<svg xmlns="http://www.w3.org/2000/svg" xmlns:xlink="http://www.w3.org/1999/xlink" viewBox="0 0 74.06 20.11"><defs><style>.cls-1{fill:none;}.cls-2{fill:#231f20;}.cls-3{clip-path:url(#clip-path);}.cls-4{fill:url(#Безымянный_градиент_8);}</style><clipPath id="clip-path"><rect id="SVGID" class="cls-1" x="40.53" y="17.39" width="33.44" height="2.72"/></clipPath><linearGradient id="Безымянный_градиент_8" x1="-50.49" y1="330.76" x2="-49.49" y2="330.76" gradientTransform="matrix(33.44, 0, 0, -33.44, 1728.54, 11077.86)" gradientUnits="userSpaceOnUse"><stop offset="0" stop-color="#fedecb"/><stop offset="0.19" stop-color="#fedecb"/><stop offset="0.29" stop-color="#f7ddcb"/><stop offset="0.43" stop-color="#e3dac9"/><stop offset="0.59" stop-color="#c3d6c7"/><stop offset="0.78" stop-color="#96cfc4"/><stop offset="0.89" stop-color="#79cbc2"/><stop offset="1" stop-color="#79cbc2"/></linearGradient></defs><g id="Слой_2" data-name="Слой 2"><g id="Слой_1-2" data-name="Слой 1"><path class="cls-2" d="M23.46.34A10.14,10.14,0,0,1,30.68,3.2a9.91,9.91,0,0,1,2.17,3.15,9.53,9.53,0,0,1,.78,3.87,9.49,9.49,0,0,1-.78,3.87,9.82,9.82,0,0,1-5.4,5.24,10,10,0,0,1-4,.78H15.89V.34ZM26,15.9a5.51,5.51,0,0,0,1.92-1.31,6.2,6.2,0,0,0,1.23-2,6.36,6.36,0,0,0,.44-2.4,6.46,6.46,0,0,0-.44-2.42,6.1,6.1,0,0,0-1.23-1.95A5.87,5.87,0,0,0,26,4.51,6.72,6.72,0,0,0,23.46,4H19.93V16.4h3.53A6,6,0,0,0,26,15.9"/><path class="cls-2" d="M6,0a6,6,0,1,0,6,6A6,6,0,0,0,6,0M6,8.52A2.48,2.48,0,1,1,8.52,6,2.48,2.48,0,0,1,6,8.52"/><polygon class="cls-2" points="41.44 4.64 41.44 7.17 40.66 7.17 40.66 1.61 41.44 1.61 41.44 3.97 42 3.97 43.87 1.61 44.81 1.61 42.67 4.24 44.89 7.17 43.96 7.17 42.02 4.64 41.44 4.64"/><path class="cls-2" d="M49.08,2.29h-2l0,1c-.09,2.41-.47,3.92-1.61,3.92h-.23V6.5h.11c.74,0,.93-1.58,1-3.48l0-1.41h3.49V7.17h-.79Z"/><polygon class="cls-2" points="52.12 7.17 51.34 7.17 51.34 1.61 52.12 1.61 52.12 6.02 55.11 1.61 55.89 1.61 55.89 7.17 55.11 7.17 55.11 2.76 52.12 7.17"/><polygon class="cls-2" points="58.14 2.33 58.14 7.17 57.36 7.17 57.36 1.61 58.67 1.61 60.09 6.24 61.51 1.61 62.82 1.61 62.82 7.17 62.04 7.17 62.04 2.33 60.5 7.17 59.68 7.17 58.14 2.33"/><path class="cls-2" d="M66.56,1.61l2.09,5.56h-.84L67.37,6H64.82l-.43,1.2h-.8l2.06-5.56Zm.57,3.69-1-2.9-1,2.9Z"/><polygon class="cls-2" points="68.14 2.29 68.14 1.61 72.54 1.61 72.54 2.29 70.73 2.29 70.73 7.17 69.95 7.17 69.95 2.29 68.14 2.29"/><path class="cls-2" d="M40.53,12.61a2.62,2.62,0,1,1,5.21,0,2.62,2.62,0,1,1-5.21,0m4.41,0c0-1.44-.79-2.22-1.81-2.22s-1.8.78-1.8,2.22.79,2.22,1.8,2.22,1.81-.79,1.81-2.22"/><polygon class="cls-2" points="51.35 15.39 50.57 15.39 50.57 12.87 47.65 12.87 47.65 15.39 46.87 15.39 46.87 9.83 47.65 9.83 47.65 12.19 50.57 12.19 50.57 9.83 51.35 9.83 51.35 15.39"/><path class="cls-2" d="M56.16,10.51h-2l0,1c-.09,2.41-.47,3.92-1.61,3.92h-.23v-.68h.11c.74,0,.93-1.58,1-3.48l0-1.4H57v5.56h-.79Z"/><path class="cls-2" d="M60.69,9.83l2.09,5.56h-.84l-.44-1.21H59l-.43,1.21h-.8l2.06-5.56Zm.56,3.69-1-2.9-1,2.9Z"/><path class="cls-2" d="M64.33,15.39h-.78V9.83h.78v4.41l3-4.41h.78v5.56h-.78V11Zm1.51-5.87c-.88,0-1.31-.39-1.39-.92H65c0,.29.33.46.81.46s.76-.18.82-.46h.59c-.06.53-.51.92-1.42.92"/><polygon class="cls-2" points="74.06 15.39 73.28 15.39 73.28 12.87 70.36 12.87 70.36 15.39 69.58 15.39 69.58 9.83 70.36 9.83 70.36 12.19 73.28 12.19 73.28 9.83 74.06 9.83 74.06 15.39"/><g class="cls-3"><rect class="cls-4" x="40.53" y="17.39" width="33.44" height="2.72"/></g></g></g></svg>