<svg xmlns="http://www.w3.org/2000/svg" xmlns:xlink="http://www.w3.org/1999/xlink" viewBox="0 0 79.14 20.11"><defs><style>.cls-1{fill:none;}.cls-2{clip-path:url(#clip-path);}.cls-3{fill:url(#Безымянный_градиент_2);}.cls-4{fill:#231f20;}</style><clipPath id="clip-path"><rect id="SVGID" class="cls-1" x="40.53" y="17.39" width="38.61" height="2.72"/></clipPath><linearGradient id="Безымянный_градиент_2" x1="-50.36" y1="276.18" x2="-49.36" y2="276.18" gradientTransform="matrix(38.61, 0, 0, -38.61, 1985.12, 10682.82)" gradientUnits="userSpaceOnUse"><stop offset="0" stop-color="#a5afd9"/><stop offset="0.14" stop-color="#a5afd9"/><stop offset="0.24" stop-color="#b6b7d8"/><stop offset="0.49" stop-color="#dccbd7"/><stop offset="0.69" stop-color="#f3d7d6"/><stop offset="0.82" stop-color="#fcdbd6"/><stop offset="1" stop-color="#fcdbd6"/></linearGradient></defs><g id="Слой_2" data-name="Слой 2"><g id="Слой_1-2" data-name="Слой 1"><g class="cls-2"><rect class="cls-3" x="40.53" y="17.39" width="38.61" height="2.72"/></g><path class="cls-4" d="M23.46.34A10.14,10.14,0,0,1,30.68,3.2a9.91,9.91,0,0,1,2.17,3.15,9.53,9.53,0,0,1,.78,3.87,9.46,9.46,0,0,1-.78,3.87,9.82,9.82,0,0,1-5.4,5.24,10,10,0,0,1-4,.78H15.89V.34ZM26,15.9a5.38,5.38,0,0,0,1.92-1.31,6.2,6.2,0,0,0,1.23-2,6.36,6.36,0,0,0,.44-2.4,6.46,6.46,0,0,0-.44-2.42,6.22,6.22,0,0,0-1.23-1.95A5.87,5.87,0,0,0,26,4.51,6.72,6.72,0,0,0,23.46,4H19.93V16.41h3.53A6,6,0,0,0,26,15.9"/><path class="cls-4" d="M6,0a6,6,0,1,0,6,6A6,6,0,0,0,6,0M6,8.52A2.48,2.48,0,1,1,8.52,6,2.48,2.48,0,0,1,6,8.52"/><polygon class="cls-4" points="41.31 2.28 41.31 7.13 40.53 7.13 40.53 1.57 41.84 1.57 43.26 6.2 44.68 1.57 45.99 1.57 45.99 7.13 45.2 7.13 45.2 2.28 43.67 7.13 42.84 7.13 41.31 2.28"/><path class="cls-4" d="M47.11,4.34a2.62,2.62,0,1,1,5.21,0,2.62,2.62,0,1,1-5.21,0m4.42,0c0-1.43-.8-2.21-1.81-2.21s-1.81.78-1.81,2.21.8,2.23,1.81,2.23,1.81-.79,1.81-2.23"/><path class="cls-4" d="M54.23,7.13h-.78V1.57h.78V6l3-4.41H58V7.13h-.78V2.71Zm1.51-5.87c-.88,0-1.31-.4-1.39-.92h.59c0,.29.33.46.81.46s.76-.18.82-.46h.59c-.06.52-.51.92-1.42.92"/><polygon class="cls-4" points="41.31 12.67 41.31 15.2 40.53 15.2 40.53 9.64 41.31 9.64 41.31 12 41.87 12 43.74 9.64 44.68 9.64 42.54 12.27 44.76 15.2 43.83 15.2 41.89 12.67 41.31 12.67"/><path class="cls-4" d="M45,12.42a2.62,2.62,0,1,1,5.21,0,2.62,2.62,0,1,1-5.21,0m4.41,0c0-1.44-.79-2.22-1.8-2.22s-1.81.78-1.81,2.22.79,2.22,1.81,2.22,1.8-.79,1.8-2.22"/><polygon class="cls-4" points="52.08 10.36 52.08 15.2 51.3 15.2 51.3 9.64 52.61 9.64 54.03 14.27 55.44 9.64 56.75 9.64 56.75 15.2 55.97 15.2 55.97 10.36 54.44 15.2 53.61 15.2 52.08 10.36"/><path class="cls-4" d="M63.52,12.42a2.32,2.32,0,0,1-2.47,2.33v.65h-.79v-.65a2.36,2.36,0,1,1,0-4.72V9.34h.79V10a2.34,2.34,0,0,1,2.47,2.39m-4.94,0a1.65,1.65,0,0,0,1.68,1.7V10.68a1.64,1.64,0,0,0-1.68,1.72m4.14,0a1.65,1.65,0,0,0-1.67-1.72V14.1a1.65,1.65,0,0,0,1.67-1.7"/><path class="cls-4" d="M64.24,12.42a2.62,2.62,0,1,1,5.21,0,2.62,2.62,0,1,1-5.21,0m4.42,0c0-1.44-.8-2.22-1.81-2.22S65,11,65,12.42s.8,2.22,1.81,2.22,1.81-.79,1.81-2.22"/><path class="cls-4" d="M74.63,11.32c0,1.38-.95,1.68-2.31,1.68h-1v2.2h-.78V9.64h1.74c1.36,0,2.31.31,2.31,1.68m-3.27,1h1c.81,0,1.45-.09,1.45-1s-.64-1-1.45-1h-1Z"/><polygon class="cls-4" points="74.74 10.32 74.74 9.64 79.14 9.64 79.14 10.32 77.33 10.32 77.33 15.2 76.55 15.2 76.55 10.32 74.74 10.32"/></g></g></svg>