<svg xmlns="http://www.w3.org/2000/svg" xmlns:xlink="http://www.w3.org/1999/xlink" viewBox="0 0 83.82 20.11"><defs><style>.cls-1{fill:none;}.cls-2{fill:#231f20;}.cls-3{clip-path:url(#clip-path);}.cls-4{fill:url(#Безымянный_градиент_3);}</style><clipPath id="clip-path"><rect id="SVGID" class="cls-1" x="40.53" y="17.38" width="43.29" height="2.72"/></clipPath><linearGradient id="Безымянный_градиент_3" x1="-50.28" y1="221.65" x2="-49.28" y2="221.65" gradientTransform="matrix(43.29, 0, 0, -43.29, 2217.19, 9615.02)" gradientUnits="userSpaceOnUse"><stop offset="0" stop-color="#ffe5aa"/><stop offset="0.41" stop-color="#fbc8ad"/><stop offset="0.88" stop-color="#f6a1b0"/><stop offset="1" stop-color="#f6a1b0"/></linearGradient></defs><g id="Слой_2" data-name="Слой 2"><g id="Слой_1-2" data-name="Слой 1"><path class="cls-2" d="M23.46.33A10.09,10.09,0,0,1,30.68,3.2a9.91,9.91,0,0,1,2.17,3.15,9.53,9.53,0,0,1,.78,3.87,9.49,9.49,0,0,1-.78,3.87,9.82,9.82,0,0,1-5.4,5.24,10,10,0,0,1-4,.78H15.89V.33ZM26,15.9a5.51,5.51,0,0,0,1.92-1.31,6.2,6.2,0,0,0,1.23-2,6.36,6.36,0,0,0,.44-2.4,6.46,6.46,0,0,0-.44-2.42,6.1,6.1,0,0,0-1.23-1.95A5.87,5.87,0,0,0,26,4.51,6.72,6.72,0,0,0,23.46,4H19.93V16.4h3.53A6,6,0,0,0,26,15.9"/><path class="cls-2" d="M6,0a6,6,0,1,0,6,6A6,6,0,0,0,6,0M6,8.52A2.48,2.48,0,1,1,8.52,6,2.48,2.48,0,0,1,6,8.52"/><polygon class="cls-2" points="41.31 2.28 41.31 7.12 40.53 7.12 40.53 1.57 41.84 1.57 43.26 6.2 44.68 1.57 45.99 1.57 45.99 7.12 45.2 7.12 45.2 2.28 43.67 7.12 42.84 7.12 41.31 2.28"/><path class="cls-2" d="M47.11,4.34a2.62,2.62,0,1,1,5.21,0,2.62,2.62,0,1,1-5.21,0m4.42,0c0-1.43-.8-2.21-1.81-2.21s-1.81.78-1.81,2.21.8,2.23,1.81,2.23,1.81-.79,1.81-2.23"/><path class="cls-2" d="M54.23,7.12h-.78V1.57h.78V6l3-4.41H58V7.12h-.78V2.71Zm1.51-5.86c-.88,0-1.31-.4-1.39-.92h.59c0,.29.33.45.81.45s.76-.17.82-.45h.59c-.06.52-.51.92-1.42.92"/><polygon class="cls-2" points="41.31 12.64 41.31 15.17 40.53 15.17 40.53 9.61 41.31 9.61 41.31 11.97 41.87 11.97 43.74 9.61 44.68 9.61 42.54 12.24 44.76 15.17 43.83 15.17 41.89 12.64 41.31 12.64"/><path class="cls-2" d="M45,12.39a2.62,2.62,0,1,1,5.21,0,2.62,2.62,0,1,1-5.21,0m4.41,0c0-1.44-.79-2.22-1.8-2.22s-1.81.78-1.81,2.22.79,2.22,1.81,2.22,1.8-.79,1.8-2.22"/><polygon class="cls-2" points="52.08 10.33 52.08 15.17 51.3 15.17 51.3 9.61 52.61 9.61 54.03 14.24 55.44 9.61 56.75 9.61 56.75 15.17 55.97 15.17 55.97 10.33 54.44 15.17 53.61 15.17 52.08 10.33"/><path class="cls-2" d="M63.52,12.39a2.32,2.32,0,0,1-2.47,2.33v.65h-.79v-.65a2.36,2.36,0,1,1,0-4.72V9.31h.79V10a2.34,2.34,0,0,1,2.47,2.39m-4.94,0a1.65,1.65,0,0,0,1.68,1.7V10.65a1.64,1.64,0,0,0-1.68,1.72m4.14,0a1.65,1.65,0,0,0-1.67-1.72v3.42a1.64,1.64,0,0,0,1.67-1.7"/><path class="cls-2" d="M64.24,12.39a2.62,2.62,0,1,1,5.21,0,2.62,2.62,0,1,1-5.21,0m4.42,0c0-1.44-.8-2.22-1.81-2.22S65,11,65,12.39s.8,2.22,1.81,2.22,1.81-.79,1.81-2.22"/><path class="cls-2" d="M74.63,11.29c0,1.38-.95,1.68-2.31,1.68h-1v2.2h-.78V9.61h1.74c1.36,0,2.31.31,2.31,1.68m-3.27,1h1c.81,0,1.45-.09,1.45-1s-.64-1-1.45-1h-1Z"/><polygon class="cls-2" points="74.74 10.29 74.74 9.61 79.14 9.61 79.14 10.29 77.33 10.29 77.33 15.17 76.55 15.17 76.55 10.29 74.74 10.29"/><polygon class="cls-2" points="81.39 12.93 79.66 12.93 79.66 12.27 81.39 12.27 81.39 10.58 82.09 10.58 82.09 12.27 83.83 12.27 83.83 12.93 82.09 12.93 82.09 14.66 81.39 14.66 81.39 12.93"/><g class="cls-3"><rect class="cls-4" x="40.53" y="17.38" width="43.29" height="2.72"/></g></g></g></svg>