<svg xmlns="http://www.w3.org/2000/svg" xmlns:xlink="http://www.w3.org/1999/xlink" viewBox="0 0 90.84 20.11"><defs><style>.cls-1{fill:none;}.cls-2{fill:#231f20;}.cls-3{clip-path:url(#clip-path);}.cls-4{fill:url(#Безымянный_градиент_4);}</style><clipPath id="clip-path"><rect id="SVGID" class="cls-1" x="40.53" y="17.38" width="50.31" height="2.72"/></clipPath><linearGradient id="Безымянный_градиент_4" x1="-50.18" y1="166.94" x2="-49.18" y2="166.94" gradientTransform="matrix(50.31, 0, 0, -50.31, 2564.67, 8417.06)" gradientUnits="userSpaceOnUse"><stop offset="0" stop-color="#cfe9dc"/><stop offset="0.21" stop-color="#cfe9dc"/><stop offset="0.37" stop-color="#c7e3dd"/><stop offset="0.61" stop-color="#b0d3df"/><stop offset="0.92" stop-color="#8bbae2"/><stop offset="0.94" stop-color="#87b7e2"/><stop offset="1" stop-color="#87b7e2"/></linearGradient></defs><g id="Слой_2" data-name="Слой 2"><g id="Слой_1-2" data-name="Слой 1"><polygon class="cls-2" points="41.28 2.38 41.28 7.05 40.53 7.05 40.53 1.69 41.79 1.69 43.16 6.16 44.53 1.69 45.79 1.69 45.79 7.05 45.04 7.05 45.04 2.38 43.56 7.05 42.76 7.05 41.28 2.38"/><path class="cls-2" d="M46.88,4.37a2.52,2.52,0,1,1,5,0,2.52,2.52,0,1,1-5,0m4.25,0c0-1.38-.77-2.14-1.74-2.14S47.65,3,47.65,4.37s.76,2.14,1.74,2.14,1.74-.76,1.74-2.14"/><path class="cls-2" d="M55,3.81c1.19,0,1.91.49,1.91,1.58S56.11,7.05,55,7.05H53V1.69h3.6v.65H53.74V3.81ZM56.14,5.4c0-.72-.44-1-1.2-1h-1.2v2H55c.74,0,1.17-.35,1.17-1"/><polygon class="cls-2" points="58.67 7.05 57.92 7.05 57.92 1.69 58.67 1.69 58.67 5.94 61.55 1.69 62.3 1.69 62.3 7.05 61.55 7.05 61.55 2.79 58.67 7.05"/><path class="cls-2" d="M67,2.34h-1.9l0,.94c-.09,2.32-.46,3.77-1.56,3.77h-.22V6.4h.11c.71,0,.89-1.52.95-3.35l0-1.36H67.7V7.05H67Z"/><path class="cls-2" d="M69.87,1.69v2h.79C72,3.67,73,4,73,5.36s-1,1.69-2.29,1.69H69.12V1.69Zm2.29,3.67c0-.89-.65-1-1.47-1h-.82V6.4h.82c.82,0,1.47-.17,1.47-1"/><polygon class="cls-2" points="78.16 7.05 77.41 7.05 77.41 4.62 74.59 4.62 74.59 7.05 73.84 7.05 73.84 1.69 74.59 1.69 74.59 3.97 77.41 3.97 77.41 1.69 78.16 1.69 78.16 7.05"/><path class="cls-2" d="M79.25,4.37a2.52,2.52,0,1,1,5,0,2.52,2.52,0,1,1-5,0m4.25,0c0-1.38-.76-2.14-1.74-2.14S80,3,80,4.37s.77,2.14,1.74,2.14,1.74-.76,1.74-2.14"/><polygon class="cls-2" points="89 1.69 89 2.34 86.11 2.34 86.11 3.97 88.83 3.97 88.83 4.62 86.11 4.62 86.11 6.4 89 6.4 89 7.05 85.36 7.05 85.36 1.69 89 1.69"/><path class="cls-2" d="M23.46.33A10.09,10.09,0,0,1,30.68,3.2a9.91,9.91,0,0,1,2.17,3.15,9.53,9.53,0,0,1,.78,3.87,9.49,9.49,0,0,1-.78,3.87,9.82,9.82,0,0,1-5.4,5.24,10,10,0,0,1-4,.78H15.89V.33ZM26,15.9a5.51,5.51,0,0,0,1.92-1.31,6.2,6.2,0,0,0,1.23-2,6.36,6.36,0,0,0,.44-2.4,6.46,6.46,0,0,0-.44-2.42,6.1,6.1,0,0,0-1.23-1.95A5.87,5.87,0,0,0,26,4.51,6.72,6.72,0,0,0,23.46,4H19.93V16.4h3.53A6,6,0,0,0,26,15.9"/><path class="cls-2" d="M6,0a6,6,0,1,0,6,6A6,6,0,0,0,6,0M6,8.52A2.48,2.48,0,1,1,8.52,6,2.48,2.48,0,0,1,6,8.52"/><g class="cls-3"><rect class="cls-4" x="40.53" y="17.38" width="50.31" height="2.72"/></g><path class="cls-2" d="M41.28,14.75h.5a.66.66,0,0,0,.64-.36l.1-.19-2-4.26h.81l1.56,3.48,1.44-3.48h.83l-2,4.48a1.49,1.49,0,0,1-1.37,1h-.55Z"/><polygon class="cls-2" points="49.16 10.59 46.48 10.59 46.48 15.29 45.73 15.29 45.73 9.94 49.91 9.94 49.91 15.29 49.16 15.29 49.16 10.59"/><path class="cls-2" d="M55.23,11.56c0,1.33-.91,1.62-2.22,1.62h-.92V15.3h-.76V9.94H53c1.31,0,2.22.29,2.22,1.62m-3.14,1h1c.78,0,1.4-.08,1.4-1s-.62-1-1.4-1h-1Z"/><path class="cls-2" d="M57.72,9.94l2,5.36h-.81l-.42-1.16H56.05l-.42,1.16h-.77l2-5.36Zm.55,3.55-1-2.79-1,2.79Z"/><path class="cls-2" d="M62.42,9.94c1,0,1.88.26,1.88,1.32a1.33,1.33,0,0,1-.59,1.18,1.27,1.27,0,0,1,.81,1.27c0,1.14-.85,1.59-1.92,1.59H60.49V9.94Zm.11,2.29c.62,0,1-.24,1-.87s-.41-.79-1-.79H61.24v1.66Zm.08,2.43c.76,0,1.14-.33,1.14-.94s-.38-.89-1.19-.89H61.24v1.83Z"/><path class="cls-2" d="M68.76,10.59H66.87l0,.93c-.08,2.32-.45,3.78-1.55,3.78h-.23v-.65h.11c.71,0,.9-1.53,1-3.36l0-1.35h3.36V15.3h-.76Z"/><polygon class="cls-2" points="74.57 9.94 74.57 10.59 71.69 10.59 71.69 12.21 74.4 12.21 74.4 12.87 71.69 12.87 71.69 14.64 74.57 14.64 74.57 15.29 70.94 15.29 70.94 9.94 74.57 9.94"/><polygon class="cls-2" points="79.97 15.29 79.22 15.29 79.22 12.86 76.41 12.86 76.41 15.29 75.65 15.29 75.65 9.94 76.41 9.94 76.41 12.21 79.22 12.21 79.22 9.94 79.97 9.94 79.97 15.29"/><polygon class="cls-2" points="82.15 15.29 81.39 15.29 81.39 9.94 82.15 9.94 82.15 14.19 85.03 9.94 85.78 9.94 85.78 15.29 85.03 15.29 85.03 11.04 82.15 15.29"/><polygon class="cls-2" points="90.84 9.94 90.84 10.59 87.95 10.59 87.95 12.21 90.67 12.21 90.67 12.87 87.95 12.87 87.95 14.64 90.84 14.64 90.84 15.29 87.2 15.29 87.2 9.94 90.84 9.94"/></g></g></svg>