<svg xmlns="http://www.w3.org/2000/svg" width="26" height="26" viewBox="0 0 26 26"><defs><style>.b{fill:#00adef}</style></defs><path fill="none" d="M0 0h26v26H0z"/><path class="b" d="M23.5 24.55h-21A1.552 1.552 0 01.95 23V5A1.552 1.552 0 012.5 3.45h3v1.1h-3a.451.451 0 00-.45.45v18a.451.451 0 00.45.45h21a.451.451 0 00.45-.45V5a.451.451 0 00-.45-.45h-3v-1.1h3A1.552 1.552 0 0125.05 5v18a1.551 1.551 0 01-1.55 1.55z"/><path class="b" d="M6.95 2h1.1v4h-1.1zm11 0h1.1v4h-1.1zM12.5 9.45h1v1.1h-1z"/><path class="b" d="M1.599 9.45h22.898v1.1H1.599zm5.901 5h1v1.1h-1zm5 0h1v1.1h-1zm5 0h1v1.1h-1zm-10 5h1v1.1h-1zm5 0h1v1.1h-1zm-3-16h7v1.1h-7z"/></svg>