<svg id="Group_1_copy" data-name="Group 1 copy" xmlns="http://www.w3.org/2000/svg" width="129" height="191" viewBox="0 0 129 191">
  <metadata><?xpacket begin="﻿" id="W5M0MpCehiHzreSzNTczkc9d"?>
<x:xmpmeta xmlns:x="adobe:ns:meta/" x:xmptk="Adobe XMP Core 5.6-c138 79.159824, 2016/09/14-01:09:01        ">
   <rdf:RDF xmlns:rdf="http://www.w3.org/1999/02/22-rdf-syntax-ns#">
      <rdf:Description rdf:about=""/>
   </rdf:RDF>
</x:xmpmeta>
                                                                                                    
                                                                                                    
                                                                                                    
                                                                                                    
                                                                                                    
                                                                                                    
                                                                                                    
                                                                                                    
                                                                                                    
                                                                                                    
                                                                                                    
                                                                                                    
                                                                                                    
                                                                                                    
                                                                                                    
                                                                                                    
                                                                                                    
                                                                                                    
                                                                                                    
                                                                                                    
                           
<?xpacket end="w"?></metadata>
<defs>
    <style>
      .cls-1 {
        fill: #f2f2f2;
      }

      .cls-2 {
        fill: #ccc;
        fill-rule: evenodd;
      }
    </style>
  </defs>
  <rect class="cls-1" x="-1" width="130" height="191"/>
  <path class="cls-2" d="M34.5,8h-19A2.5,2.5,0,0,0,13,10.5V20.526a0.5,0.5,0,0,0,.5.5h0.013l1-.026A0.5,0.5,0,0,0,15,20.487,0.522,0.522,0,0,0,14.487,20L14,20.013V17H36v3H35.5a0.5,0.5,0,1,0,0,1h1a0.5,0.5,0,0,0,.5-0.5v-10A2.5,2.5,0,0,0,34.5,8ZM14,16V10.5A1.5,1.5,0,0,1,15.5,9h19A1.5,1.5,0,0,1,36,10.5V16H14Zm19.5-6h-17a0.5,0.5,0,0,0,0,1h17A0.5,0.5,0,1,0,33.5,10Zm0,2h-17a0.5,0.5,0,0,0,0,1h17A0.5,0.5,0,1,0,33.5,12Zm-3,2a0.5,0.5,0,1,0,.5.5A0.5,0.5,0,0,0,30.5,14Zm2,0a0.5,0.5,0,1,0,.5.5A0.5,0.5,0,0,0,32.5,14ZM18.854,19.146a0.5,0.5,0,1,0-.707.707c0.611,0.611.359,1.344-.1,2.49-0.437,1.082-.98,2.427.1,3.51a0.5,0.5,0,0,0,.707-0.707c-0.585-.585-0.336-1.3.117-2.429C19.413,21.621,19.964,20.256,18.854,19.146Zm6,0a0.5,0.5,0,0,0-.707.707c0.611,0.611.359,1.344-.1,2.49-0.437,1.082-.979,2.427.1,3.51a0.5,0.5,0,1,0,.707-0.707c-0.585-.585-0.337-1.3.117-2.429C25.413,21.621,25.964,20.256,24.854,19.146Zm6.5,0a0.5,0.5,0,1,0-.707.707c0.611,0.611.359,1.344-.1,2.49-0.437,1.082-.98,2.427.1,3.51a0.5,0.5,0,0,0,.707-0.707c-0.585-.585-0.336-1.3.117-2.429C31.913,21.621,32.464,20.256,31.354,19.146Z"/>
  <path class="cls-2" d="M76.5,114.493H75.146l0.894-1.463a0.5,0.5,0,0,0-.853-0.521L73.974,114.5l-2.258,0,2.145-2.145a0.5,0.5,0,0,0-.354-0.853h-3.3l1.784-1.788,2.254,0.561a0.508,0.508,0,0,0,.121.015,0.5,0.5,0,0,0,.121-0.985l-1.672-.417,0.96-.962a0.5,0.5,0,0,0-.707-0.707l-0.956.959-0.4-1.667a0.5,0.5,0,0,0-.973.234l0.547,2.263-1.773,1.777V107.5a0.5,0.5,0,0,0-.853-0.354l-2.147,2.147v-2.268l1.983-1.212a0.5,0.5,0,1,0-.521-0.853l-1.462.892V104.5a0.5,0.5,0,0,0-1,0v1.36l-1.48-.888a0.5,0.5,0,0,0-.515.857l1.995,1.2v2.266l-2.147-2.147a0.5,0.5,0,0,0-.853.354v3.289L60.72,109l0.546-2.259a0.5,0.5,0,0,0-.973-0.234l-0.4,1.664-0.956-.956a0.5,0.5,0,0,0-.707.707l0.962,0.962-1.675.418a0.5,0.5,0,0,0,.121.985,0.508,0.508,0,0,0,.121-0.015l2.258-.563,1.79,1.79h-3.3a0.5,0.5,0,0,0-.354.853l2.14,2.14H58.024l-1.211-1.983a0.5,0.5,0,0,0-.854.521l0.893,1.462H55.5a0.5,0.5,0,0,0,0,1h1.36l-0.889,1.479a0.5,0.5,0,0,0,.857.515l1.2-1.994h2.28l-2.153,2.153a0.5,0.5,0,0,0,.354.854h3.275L60,120.281l-2.259-.547a0.5,0.5,0,0,0-.234.973l1.665,0.4-0.957.957a0.5,0.5,0,1,0,.707.707l0.962-.962,0.418,1.674a0.5,0.5,0,0,0,.485.379,0.563,0.563,0,0,0,.121-0.014,0.5,0.5,0,0,0,.364-0.607l-0.563-2.257,1.8-1.8V122.5a0.5,0.5,0,0,0,.853.353l2.147-2.146v2.266l-1.995,1.2a0.5,0.5,0,0,0,.515.857l1.48-.888v1.36a0.5,0.5,0,0,0,1,0v-1.353l1.462,0.893a0.5,0.5,0,0,0,.261.073,0.5,0.5,0,0,0,.261-0.927l-1.983-1.211v-2.268l2.147,2.146a0.5,0.5,0,0,0,.353.147,0.51,0.51,0,0,0,.191-0.038,0.5,0.5,0,0,0,.309-0.462v-3.3l1.782,1.782-0.564,2.257a0.5,0.5,0,0,0,.364.607,0.563,0.563,0,0,0,.121.014,0.5,0.5,0,0,0,.485-0.379l0.419-1.675,0.961,0.962a0.5,0.5,0,0,0,.707-0.707l-0.956-.956,1.665-.4a0.5,0.5,0,0,0-.234-0.973L72,120.28l-1.78-1.78h3.29a0.5,0.5,0,0,0,.354-0.854L71.714,115.5l2.261,0,1.2,1.991a0.5,0.5,0,0,0,.429.242,0.5,0.5,0,0,0,.429-0.757l-0.888-1.478H76.5A0.5,0.5,0,0,0,76.5,114.493ZM69.015,117.5a0.5,0.5,0,0,0-.507.5v3.293l-2.145-2.147a0.529,0.529,0,0,0-.163-0.107,0.489,0.489,0,0,0-.383,0,0.528,0.528,0,0,0-.163.107l-2.145,2.147V118a0.493,0.493,0,0,0-.152-0.357l0,0a0.486,0.486,0,0,0-.4-0.138H59.715l2.147-2.147a0.5,0.5,0,0,0,0-.707L59.715,112.5h3.293a0.5,0.5,0,0,0,.354-0.148h0c0.013-.014.018-0.031,0.029-0.045a0.468,0.468,0,0,0,.076-0.115,0.474,0.474,0,0,0,.039-0.2v-3.281l2.145,2.146a0.531,0.531,0,0,0,.163.108,0.5,0.5,0,0,0,.383,0,0.532,0.532,0,0,0,.163-0.108l2.145-2.146v3.27a0.492,0.492,0,0,0,.039.217s0.007,0.009.009,0.014a0.494,0.494,0,0,0,.095.142h0a0.5,0.5,0,0,0,.355.149H72.3l-2.147,2.146a0.5,0.5,0,0,0,0,.707L72.3,117.5H69.015Z"/>
  <path class="cls-2" d="M35.5,73.051h-21a1.5,1.5,0,0,0-1.5,1.5V86.509A1.5,1.5,0,0,0,14.5,88H17v1h1V88H32v1h1V88h2.5a1.5,1.5,0,0,0,1.5-1.5V74.546A1.5,1.5,0,0,0,35.5,73.051ZM36,86.509a0.5,0.5,0,0,1-.5.5h-21a0.5,0.5,0,0,1-.5-0.5V74.546a0.5,0.5,0,0,1,.5-0.5h21a0.5,0.5,0,0,1,.5.5V86.509ZM24.5,75.045a0.5,0.5,0,0,0-.5.5v9.969a0.5,0.5,0,0,0,1,0V75.543A0.5,0.5,0,0,0,24.5,75.045Zm-2,0a0.5,0.5,0,0,0-.5.5v9.969a0.5,0.5,0,0,0,1,0V75.543A0.5,0.5,0,0,0,22.5,75.045Zm4,0a0.5,0.5,0,0,0-.5.5v9.969a0.5,0.5,0,0,0,1,0V75.543A0.5,0.5,0,0,0,26.5,75.045Zm2,0a0.5,0.5,0,0,0-.5.5v9.969a0.5,0.5,0,0,0,1,0V75.543A0.5,0.5,0,0,0,28.5,75.045Zm2,0a0.5,0.5,0,0,0-.5.5v9.969a0.5,0.5,0,0,0,1,0V75.543A0.5,0.5,0,0,0,30.5,75.045Zm2,0a0.5,0.5,0,0,0-.5.5v9.969a0.5,0.5,0,0,0,1,0V75.543A0.5,0.5,0,0,0,32.5,75.045Zm2,0a0.5,0.5,0,0,0-.5.5v9.969a0.5,0.5,0,0,0,1,0V75.543A0.5,0.5,0,0,0,34.5,75.045Zm-15,0a1.5,1.5,0,0,0-1.5,1.5v3.988a1.5,1.5,0,0,0,3,0V76.54A1.5,1.5,0,0,0,19.5,75.045ZM20,80.528a0.5,0.5,0,0,1-1,0V76.54a0.5,0.5,0,0,1,1,0v3.988Zm-0.5,1.994a1.5,1.5,0,1,0,1.5,1.5A1.5,1.5,0,0,0,19.5,82.522Zm0,1.994a0.5,0.5,0,1,1,.5-0.5A0.5,0.5,0,0,1,19.5,84.515ZM16,76.042a1,1,0,1,0,1,1A1,1,0,0,0,16,76.042Zm0,2.991a1,1,0,1,0,1,1A1,1,0,0,0,16,79.032Zm11.536-7.678a0.5,0.5,0,0,0,.928.372,4.831,4.831,0,0,0,.031-3.409,3.611,3.611,0,0,1-.031-2.572,0.5,0.5,0,0,0-.928-0.373,4.582,4.582,0,0,0-.007,3.2A3.848,3.848,0,0,1,27.536,71.354Zm4,0a0.5,0.5,0,0,0,.928.372,4.831,4.831,0,0,0,.031-3.409,3.611,3.611,0,0,1-.031-2.572,0.5,0.5,0,0,0-.928-0.373,4.582,4.582,0,0,0-.007,3.2A3.848,3.848,0,0,1,31.536,71.354Zm-8,0a0.5,0.5,0,0,0,.928.372,4.831,4.831,0,0,0,.031-3.409,3.611,3.611,0,0,1-.031-2.572,0.5,0.5,0,0,0-.928-0.373,4.582,4.582,0,0,0-.007,3.2A3.848,3.848,0,0,1,23.536,71.354Z"/>
  <path class="cls-2" d="M25.417,131.277a0.519,0.519,0,0,0-.834,0c-0.31.468-7.583,11.507-7.583,15.742a8,8,0,0,0,16,0C33,142.784,25.727,131.745,25.417,131.277ZM25,154a7,7,0,0,1-7-6.985c0-3.387,5.433-12.106,7-14.549,1.566,2.443,7,11.161,7,14.549A7,7,0,0,1,25,154Zm-1.723-13.913a0.5,0.5,0,0,0-.675.21c-1.726,3.278-2.6,5.538-2.6,6.718a4.992,4.992,0,0,0,1.669,3.721A0.5,0.5,0,1,0,22.335,150,3.993,3.993,0,0,1,21,147.019c0-.988.884-3.209,2.487-6.255A0.5,0.5,0,0,0,23.277,140.091Z"/>
  <path class="cls-2" d="M108,145.764V132.5a2.5,2.5,0,0,0-5,0v13.264A4.5,4.5,0,1,0,108,145.764ZM105.5,153a3.5,3.5,0,0,1-1.75-6.526,0.5,0.5,0,0,0,.25-0.433V132.5a1.5,1.5,0,0,1,3,0v13.541a0.5,0.5,0,0,0,.249.433A3.5,3.5,0,0,1,105.5,153Zm0.5-4.908V142.5a0.5,0.5,0,0,0-1,0v5.592A1.5,1.5,0,1,0,106,148.092ZM105.5,150a0.5,0.5,0,1,1,.5-0.5A0.5,0.5,0,0,1,105.5,150Zm4-17h1a0.5,0.5,0,0,0,0-1h-1A0.5,0.5,0,0,0,109.5,133Zm0,5h1a0.5,0.5,0,0,0,0-1h-1A0.5,0.5,0,0,0,109.5,138Zm3,4h-3a0.5,0.5,0,0,0,0,1h3A0.5,0.5,0,0,0,112.5,142Z"/>
  <path class="cls-2" d="M113.565,68.818a0.5,0.5,0,0,0-.363-0.269,0.482,0.482,0,0,0-.426.141l-3.129,3.194h-1.935V69.753l3.052-3.2a0.515,0.515,0,0,0,.134-0.435,0.5,0.5,0,0,0-.263-0.369,6.86,6.86,0,0,0-8.082,1.3,7.192,7.192,0,0,0-1.445,7.9l-9.466,9.685a2.572,2.572,0,0,0,0,3.577,2.426,2.426,0,0,0,3.492,0l9.456-9.684a6.823,6.823,0,0,0,2.826.616h0a6.783,6.783,0,0,0,4.886-2.072A7.2,7.2,0,0,0,113.565,68.818ZM111.6,76.347a5.827,5.827,0,0,1-6.891,1.11,0.487,0.487,0,0,0-.575.093l-9.7,9.937a1.487,1.487,0,0,1-2.095,0,1.542,1.542,0,0,1,.005-2.145l9.714-9.938a0.518,0.518,0,0,0,.091-0.589,6.163,6.163,0,0,1,1.105-7.057,5.894,5.894,0,0,1,6.308-1.394l-2.695,2.829a0.512,0.512,0,0,0-.14.353v2.843a0.5,0.5,0,0,0,.494.506h2.633a0.486,0.486,0,0,0,.349-0.148l2.764-2.821A6.167,6.167,0,0,1,111.6,76.347Z"/>
  <path class="cls-2" d="M77.5,163h-21a1.5,1.5,0,0,0-1.5,1.5v20a1.5,1.5,0,0,0,1.5,1.5h21a1.5,1.5,0,0,0,1.5-1.5v-20A1.5,1.5,0,0,0,77.5,163ZM78,184.5a0.5,0.5,0,0,1-.5.5h-21a0.5,0.5,0,0,1-.5-0.5v-20a0.5,0.5,0,0,1,.5-0.5h21a0.5,0.5,0,0,1,.5.5v20ZM75.521,168H69.449a2.5,2.5,0,0,0-4.9,0h-6.03a0.5,0.5,0,1,0,0,1h6.03a2.5,2.5,0,0,0,4.9,0h6.071A0.5,0.5,0,0,0,75.521,168ZM67,170a1.5,1.5,0,1,1,1.5-1.506s0,0,0,.006,0,0,0,.006A1.5,1.5,0,0,1,67,170Zm8.52,4H65.449a2.5,2.5,0,0,0-4.9,0h-2.03a0.5,0.5,0,1,0,0,1h2.03a2.5,2.5,0,0,0,4.9,0H75.521A0.5,0.5,0,0,0,75.521,174ZM63,176a1.5,1.5,0,1,1,1.5-1.513s0,0.009,0,.013,0,0.008,0,.013A1.5,1.5,0,0,1,63,176Zm12.52,4H67.449a2.5,2.5,0,0,0-4.9,0h-4.03a0.5,0.5,0,1,0,0,1h4.03a2.5,2.5,0,0,0,4.9,0h8.071A0.5,0.5,0,0,0,75.521,180ZM65,182a1.5,1.5,0,1,1,1.5-1.513s0,0.009,0,.013,0,0.008,0,.013A1.5,1.5,0,0,1,65,182Z"/>
  <path class="cls-2" d="M65.5,43A7.5,7.5,0,1,0,73,50.5,7.508,7.508,0,0,0,65.5,43Zm0,14A6.5,6.5,0,1,1,72,50.5,6.507,6.507,0,0,1,65.5,57Zm0,2a0.5,0.5,0,0,0-.5.5v2a0.5,0.5,0,0,0,1,0v-2A0.5,0.5,0,0,0,65.5,59Zm11-9h-2a0.5,0.5,0,0,0,0,1h2A0.5,0.5,0,0,0,76.5,50Zm-11-8a0.5,0.5,0,0,0,.5-0.5v-2a0.5,0.5,0,0,0-1,0v2A0.5,0.5,0,0,0,65.5,42Zm-9,8h-2a0.5,0.5,0,1,0,0,1h2A0.5,0.5,0,0,0,56.5,50Zm2.283,6.511-1.415,1.415a0.5,0.5,0,0,0,.707.707l1.415-1.415A0.5,0.5,0,1,0,58.783,56.511Zm13.435,0a0.5,0.5,0,1,0-.707.707l1.414,1.414a0.5,0.5,0,0,0,.707-0.707Zm0.707-14.142-1.414,1.414a0.5,0.5,0,0,0,.707.707l1.414-1.414A0.5,0.5,0,0,0,72.925,42.369ZM58.783,44.49a0.5,0.5,0,1,0,.707-0.707l-1.414-1.414a0.5,0.5,0,0,0-.707.707Z"/>
  <path class="cls-2" d="M105.326,11.21a0.5,0.5,0,0,0,.213.317,0.508,0.508,0,0,0,.375.074,2.921,2.921,0,0,1,1.17,0,0.506,0.506,0,0,0,.1.01,0.5,0.5,0,0,0,.491-0.4l1.463-7.335a0.5,0.5,0,0,0-.393-0.587,11.512,11.512,0,0,0-4.486,0,0.5,0.5,0,0,0-.394.587Zm2.729-7.028-1.272,6.374c-0.1-.007-0.19-0.011-0.284-0.011s-0.189,0-.284.011l-1.273-6.374A10.422,10.422,0,0,1,108.055,4.181ZM97.077,8.856l6.237,4.154a0.5,0.5,0,0,0,.277.084,0.525,0.525,0,0,0,.1-0.01,0.5,0.5,0,0,0,.318-0.213,2.92,2.92,0,0,1,.371-0.453,2.99,2.99,0,0,1,.455-0.37,0.5,0.5,0,0,0,.139-0.692L100.8,5.137a0.5,0.5,0,0,0-.319-0.212A0.49,0.49,0,0,0,100.11,5a11.448,11.448,0,0,0-3.172,3.164A0.5,0.5,0,0,0,97.077,8.856Zm2-1.725a10.534,10.534,0,0,1,1.182-1.015l3.622,5.4c-0.072.062-.142,0.126-0.208,0.192s-0.131.135-.193,0.207L98.057,8.31A10.577,10.577,0,0,1,99.075,7.131Zm4.41,8.359a0.5,0.5,0,0,0,.074-0.376,2.843,2.843,0,0,1-.06-0.58,3.007,3.007,0,0,1,.059-0.585,0.5,0.5,0,0,0-.393-0.586L95.808,11.9a0.488,0.488,0,0,0-.376.075,0.5,0.5,0,0,0-.213.318A11.715,11.715,0,0,0,95,14.534a11.433,11.433,0,0,0,.223,2.237,0.5,0.5,0,0,0,.489.4,0.485,0.485,0,0,0,.1-0.01l7.356-1.46A0.5,0.5,0,0,0,103.485,15.49Zm-0.975-.673-6.393,1.268A10.342,10.342,0,0,1,96,14.534a10.61,10.61,0,0,1,.116-1.552l6.394,1.268c-0.007.095-.011,0.19-0.011,0.284S102.5,14.722,102.51,14.816Zm2.536,2.517a0.5,0.5,0,0,0-.216-0.318,2.854,2.854,0,0,1-.453-0.368A2.977,2.977,0,0,1,104,16.193a0.5,0.5,0,0,0-.692-0.136l-6.236,4.156a0.5,0.5,0,0,0-.138.693,11.731,11.731,0,0,0,1.43,1.736,11.4,11.4,0,0,0,1.745,1.424,0.5,0.5,0,0,0,.693-0.138l4.166-6.219A0.5,0.5,0,0,0,105.046,17.333Zm-4.788,5.618a10.437,10.437,0,0,1-1.183-1.014,10.836,10.836,0,0,1-1.018-1.18l5.42-3.612c0.063,0.073.128,0.142,0.194,0.208s0.136,0.131.207,0.192Zm7.2-5.413a0.5,0.5,0,0,0-.378-0.072,2.951,2.951,0,0,1-1.165,0,0.5,0.5,0,0,0-.588.392l-1.463,7.335a0.5,0.5,0,0,0,.394.587A11.679,11.679,0,0,0,106.5,26a11.514,11.514,0,0,0,2.244-.223,0.5,0.5,0,0,0,.392-0.586l-1.464-7.335A0.5,0.5,0,0,0,107.456,17.538Zm-2.513,7.348,1.271-6.375a3.779,3.779,0,0,0,.568,0l1.273,6.373A10.385,10.385,0,0,1,104.943,24.886Zm4.741-8.829a0.508,0.508,0,0,0-.376-0.074,0.5,0.5,0,0,0-.318.214,2.806,2.806,0,0,1-.371.453,2.974,2.974,0,0,1-.456.372,0.5,0.5,0,0,0-.137.691l4.168,6.218a0.5,0.5,0,0,0,.695.137,11.67,11.67,0,0,0,1.741-1.425,11.351,11.351,0,0,0,1.429-1.741,0.5,0.5,0,0,0-.139-0.69Zm4.239,5.88a10.572,10.572,0,0,1-1.182,1.015l-3.622-5.4q0.108-.094.207-0.193c0.067-.066.132-0.136,0.194-0.208l5.42,3.61A10.423,10.423,0,0,1,113.923,21.937Zm3.852-9.64a0.5,0.5,0,0,0-.587-0.391l-7.355,1.46a0.5,0.5,0,0,0-.393.586,2.919,2.919,0,0,1,0,1.168,0.5,0.5,0,0,0,.393.586l7.356,1.459a0.486,0.486,0,0,0,.1.01,0.5,0.5,0,0,0,.49-0.4A11.526,11.526,0,0,0,118,14.535,11.259,11.259,0,0,0,117.775,12.3Zm-0.893,3.789-6.394-1.268c0.007-.095.011-0.19,0.011-0.284s0-.188-0.011-0.283l6.393-1.269A10.212,10.212,0,0,1,117,14.534,10.548,10.548,0,0,1,116.882,16.085Zm-8.717-4.038a3.034,3.034,0,0,1,.456.372,3.117,3.117,0,0,1,.373.455,0.5,0.5,0,0,0,.415.221,0.5,0.5,0,0,0,.277-0.084l6.236-4.156a0.5,0.5,0,0,0,.138-0.692,11.644,11.644,0,0,0-1.429-1.736A11.289,11.289,0,0,0,112.885,5a0.5,0.5,0,0,0-.693.138l-4.165,6.218A0.5,0.5,0,0,0,108.165,12.047Zm4.575-5.931a10.212,10.212,0,0,1,1.183,1.015,10.675,10.675,0,0,1,1.018,1.179l-5.42,3.612c-0.062-.073-0.127-0.142-0.193-0.208s-0.137-.132-0.208-0.193Z"/>
</svg>
