<svg xmlns="http://www.w3.org/2000/svg" width="217" height="51"><defs><linearGradient id="a" x1="76.604%" x2="0%" y1="64.279%" y2="0%"><stop offset="0%" stop-color="#DB0223"/><stop offset="100%" stop-color="#FD6C5E"/></linearGradient></defs><path fill="url(#a)" d="M215 51h-4v-2h4v-4h2v6h-2zm0-49h-4V0h6v6h-2V2zm-15.47 31.044l-4.584 6.287-4.536-6.287V42.5h-1.8V30.092h1.752l4.632 6.528 4.632-6.528h1.776V42.5h-1.872v-9.456zM183.882 42.5l-4.416-5.688-2.616 2.688v3h-1.848V30.092h1.848v7.152l6.792-7.152h2.28l-5.184 5.376 5.328 7.032h-2.184zm-14.879-9.456l-4.584 6.287-4.536-6.287V42.5h-1.8V30.092h1.752l4.632 6.528 4.632-6.528h1.776V42.5h-1.872v-9.456zm-27.059 4.815a13.107 13.107 0 0 1-4.429 3.808c-1.774.946-3.7 1.419-5.778 1.419-2.078 0-3.996-.47-5.754-1.407a12.998 12.998 0 0 1-4.394-3.785c-1.172-1.586-2.086-3.429-2.742-5.531-.656-2.101-.985-4.325-.985-6.668 0-2.313.332-4.519.996-6.621.664-2.101 1.586-3.946 2.766-5.532a13.155 13.155 0 0 1 4.43-3.796c1.773-.945 3.699-1.418 5.777-1.418 2.078 0 3.996.464 5.754 1.394a12.885 12.885 0 0 1 4.395 3.774c1.171 1.586 2.086 3.43 2.742 5.531.656 2.101.984 4.324.984 6.668 0 2.313-.332 4.52-.996 6.621-.664 2.101-1.586 3.949-2.766 5.543zm.352-17.824c-.539-1.821-1.289-3.43-2.25-4.828a11.173 11.173 0 0 0-3.609-3.364 9.17 9.17 0 0 0-4.7-1.265c-1.359 0-2.64.269-3.843.808a9.67 9.67 0 0 0-3.141 2.238 14.848 14.848 0 0 0-2.32 3.329 16.73 16.73 0 0 0-1.477 4.136 21.394 21.394 0 0 0-.492 4.606c0 1.953.27 3.836.809 5.649.539 1.812 1.289 3.421 2.25 4.827a11.09 11.09 0 0 0 3.609 3.375 9.157 9.157 0 0 0 4.699 1.266c1.688 0 3.25-.418 4.688-1.254a10.867 10.867 0 0 0 3.574-3.351c.945-1.399 1.683-3.008 2.215-4.829.531-1.82.797-3.714.797-5.683 0-1.953-.27-3.84-.809-5.66zm-34.43 17.824a13.107 13.107 0 0 1-4.429 3.808c-1.774.946-3.7 1.419-5.778 1.419-2.078 0-3.996-.47-5.754-1.407a12.998 12.998 0 0 1-4.394-3.785c-1.172-1.586-2.086-3.429-2.742-5.531-.657-2.101-.985-4.325-.985-6.668 0-2.313.332-4.519.996-6.621.664-2.101 1.586-3.946 2.766-5.532a13.155 13.155 0 0 1 4.43-3.796c1.773-.945 3.699-1.418 5.777-1.418 2.078 0 3.996.464 5.754 1.394a12.872 12.872 0 0 1 4.394 3.774c1.172 1.586 2.086 3.43 2.743 5.531.656 2.101.984 4.324.984 6.668 0 2.313-.332 4.52-.996 6.621-.664 2.101-1.586 3.949-2.766 5.543zm.352-17.824c-.539-1.821-1.289-3.43-2.25-4.828a11.166 11.166 0 0 0-3.61-3.364 9.163 9.163 0 0 0-4.699-1.265c-1.359 0-2.64.269-3.844.808a9.665 9.665 0 0 0-3.14 2.238 14.848 14.848 0 0 0-2.32 3.329 16.73 16.73 0 0 0-1.477 4.136 21.394 21.394 0 0 0-.492 4.606c0 1.953.269 3.836.808 5.649.54 1.812 1.289 3.421 2.25 4.827a11.093 11.093 0 0 0 3.61 3.375 9.154 9.154 0 0 0 4.699 1.266c1.688 0 3.25-.418 4.688-1.254a10.867 10.867 0 0 0 3.574-3.351c.945-1.399 1.683-3.008 2.215-4.829.531-1.82.796-3.714.796-5.683 0-1.953-.269-3.84-.808-5.66zm-41.916 2.027c3.287 0 6.03.953 8.23 2.86 2.199 1.906 3.299 4.359 3.299 7.359 0 3.156-1.105 5.746-3.316 7.769-2.211 2.024-5.012 3.036-8.403 3.036-2.156 0-4.258-.504-6.304-1.512a19.805 19.805 0 0 1-5.438-3.926l1.781-1.781c3.297 3.297 6.657 4.945 10.079 4.945 2.625 0 4.784-.816 6.48-2.449 1.695-1.632 2.543-3.66 2.543-6.082 0-2.328-.864-4.238-2.591-5.73-1.728-1.492-3.944-2.239-6.648-2.239-2.47 0-4.995.703-7.574 2.109l-1.923-1.242.97-16.288h18.868v2.32H59.661l-.827 12.653c2.458-1.201 4.947-1.802 7.468-1.802zM10.05 24.64l22.266-11.554v2.578l-19.36 9.89 19.36 9.985v2.601L10.05 26.562V24.64zM0 51v-6h2v4h4v2H0zM2 6H0V0h6v2H2v4z"/></svg>