<?xml version="1.0" encoding="utf-8"?>
<!-- Generator: Adobe Illustrator 22.0.1, SVG Export Plug-In . SVG Version: 6.00 Build 0)  -->
<svg version="1.1" id="Слой_1" xmlns="http://www.w3.org/2000/svg" xmlns:xlink="http://www.w3.org/1999/xlink" x="0px" y="0px"
	 viewBox="0 0 72.6 61" style="enable-background:new 0 0 72.6 61;" xml:space="preserve">
<style type="text/css">
	.st0{fill:url(#SVGID_1_);}
	.st1{fill:url(#SVGID_2_);}
	.st2{fill:url(#SVGID_3_);}
	.st3{fill:url(#SVGID_4_);}
	.st4{fill:url(#SVGID_5_);}
	.st5{fill:#FFFFFF;}
	.st6{fill:url(#SVGID_6_);}
	.st7{fill:url(#SVGID_7_);}
	.st8{fill:url(#SVGID_8_);}
	.st9{fill:url(#SVGID_9_);}
	.st10{fill:url(#SVGID_10_);}
	.st11{fill:url(#SVGID_11_);}
	.st12{fill:url(#SVGID_12_);}
	.st13{fill:url(#SVGID_13_);}
	.st14{fill:url(#SVGID_14_);}
	.st15{fill:url(#SVGID_15_);}
	.st16{fill:url(#SVGID_16_);}
	.st17{fill:url(#SVGID_17_);}
	.st18{fill:url(#SVGID_18_);}
	.st19{fill:url(#SVGID_19_);}
	.st20{fill:url(#SVGID_20_);}
	.st21{fill:url(#SVGID_21_);}
	.st22{fill:url(#SVGID_22_);}
	.st23{fill:url(#SVGID_23_);}
	.st24{fill:url(#SVGID_24_);}
	.st25{fill:url(#SVGID_25_);}
	.st26{fill:url(#SVGID_26_);}
	.st27{fill:url(#SVGID_27_);}
	.st28{fill:url(#SVGID_28_);}
	.st29{fill:url(#SVGID_29_);}
	.st30{fill:url(#SVGID_30_);}
	.st31{fill:url(#SVGID_31_);}
	.st32{fill:url(#SVGID_32_);}
	.st33{clip-path:url(#SVGID_35_);fill:url(#SVGID_36_);}
	.st34{fill:url(#SVGID_37_);}
	.st35{clip-path:url(#SVGID_40_);fill:url(#SVGID_41_);}
	.st36{fill:url(#SVGID_42_);}
	.st37{fill:url(#SVGID_43_);}
	.st38{fill:url(#SVGID_44_);}
	.st39{fill:url(#SVGID_45_);}
	.st40{fill:url(#SVGID_46_);}
	.st41{fill:url(#SVGID_47_);}
	.st42{fill:url(#SVGID_48_);}
	.st43{fill:url(#SVGID_49_);}
	.st44{fill:url(#SVGID_50_);}
	.st45{fill:url(#SVGID_51_);}
	.st46{fill:url(#SVGID_52_);}
	.st47{fill:url(#SVGID_53_);}
	.st48{fill:url(#SVGID_54_);}
	.st49{fill:url(#SVGID_55_);}
	.st50{fill:url(#SVGID_56_);}
	.st51{fill:url(#SVGID_57_);}
	.st52{fill:url(#SVGID_58_);}
	.st53{fill:url(#SVGID_59_);}
	.st54{fill:url(#SVGID_60_);}
	.st55{fill:url(#SVGID_61_);}
	.st56{fill:url(#SVGID_62_);}
	.st57{fill:url(#SVGID_63_);}
	.st58{fill:url(#SVGID_64_);}
	.st59{fill:url(#SVGID_65_);}
	.st60{fill:url(#SVGID_66_);}
	.st61{fill:url(#SVGID_67_);}
	.st62{fill:url(#SVGID_68_);}
	.st63{fill:url(#SVGID_69_);}
	.st64{fill:url(#SVGID_70_);}
	.st65{fill:url(#SVGID_71_);}
	.st66{fill:url(#SVGID_72_);}
	.st67{fill:url(#SVGID_73_);}
	.st68{fill:url(#SVGID_74_);}
	.st69{fill:url(#SVGID_75_);}
	.st70{fill:url(#SVGID_76_);}
	.st71{fill:url(#SVGID_77_);}
	.st72{fill:url(#SVGID_78_);}
	.st73{fill:url(#SVGID_79_);}
	.st74{fill:url(#SVGID_80_);}
	.st75{fill:url(#SVGID_81_);}
	.st76{fill:url(#SVGID_82_);}
	.st77{fill:url(#SVGID_83_);}
	.st78{fill:url(#SVGID_84_);}
	.st79{fill:url(#SVGID_85_);}
	.st80{fill:url(#SVGID_86_);}
	.st81{fill:url(#SVGID_87_);}
	.st82{fill:url(#SVGID_88_);}
	.st83{fill:url(#SVGID_89_);}
	.st84{fill:url(#SVGID_90_);}
	.st85{fill:url(#SVGID_91_);}
	.st86{fill:url(#SVGID_92_);}
	.st87{fill:url(#SVGID_93_);}
	.st88{fill:url(#SVGID_94_);}
	.st89{fill:url(#SVGID_95_);}
	.st90{fill:url(#SVGID_96_);}
	.st91{fill:url(#SVGID_97_);}
	.st92{fill:url(#SVGID_98_);}
	.st93{fill:url(#SVGID_99_);}
	.st94{fill:url(#SVGID_100_);}
	.st95{fill:url(#SVGID_101_);}
	.st96{fill:url(#SVGID_102_);}
	.st97{fill:url(#SVGID_103_);}
	.st98{fill:url(#SVGID_104_);}
	.st99{fill:url(#SVGID_105_);}
	.st100{fill:url(#SVGID_106_);}
	.st101{fill:url(#SVGID_107_);}
	.st102{fill:url(#SVGID_108_);}
	.st103{fill:url(#SVGID_109_);}
	.st104{fill:url(#SVGID_110_);}
	.st105{fill:url(#SVGID_111_);}
	.st106{fill:url(#SVGID_112_);}
	.st107{fill:url(#SVGID_113_);}
	.st108{fill:url(#SVGID_114_);}
	.st109{fill:url(#SVGID_115_);}
	.st110{fill:url(#SVGID_116_);}
	.st111{fill:url(#SVGID_117_);}
	.st112{fill:url(#SVGID_118_);}
	.st113{fill:url(#SVGID_119_);}
	.st114{fill:url(#SVGID_120_);}
	.st115{fill:url(#SVGID_121_);}
	.st116{fill:url(#SVGID_122_);}
	.st117{fill:url(#SVGID_123_);}
	.st118{fill:url(#SVGID_124_);}
	.st119{fill:url(#SVGID_125_);}
	.st120{fill:url(#SVGID_126_);}
	.st121{fill:url(#SVGID_127_);}
	.st122{fill:url(#SVGID_128_);}
	.st123{fill:url(#SVGID_129_);}
	.st124{fill:url(#SVGID_130_);}
	.st125{fill:url(#SVGID_131_);}
	.st126{fill:url(#SVGID_132_);}
	.st127{fill:url(#SVGID_133_);}
	.st128{fill:url(#SVGID_134_);}
	.st129{fill:url(#SVGID_135_);}
	.st130{fill:url(#SVGID_136_);}
	.st131{fill:url(#SVGID_137_);}
	.st132{fill:url(#SVGID_138_);}
	.st133{fill:url(#SVGID_139_);}
</style>
<g>
	<linearGradient id="SVGID_1_" gradientUnits="userSpaceOnUse" x1="2.8556" y1="0.4738" x2="73.8556" y2="59.4738">
		<stop  offset="0" style="stop-color:#0C90C2"/>
		<stop  offset="1" style="stop-color:#2DD2AB"/>
	</linearGradient>
	<path class="st0" d="M17.3,14c0,1,0.8,1.9,1.9,1.9S21,15,21,14c0-1-0.8-1.9-1.9-1.9S17.3,13,17.3,14"/>
</g>
<g>
	<linearGradient id="SVGID_2_" gradientUnits="userSpaceOnUse" x1="-2.1163" y1="6.4569" x2="68.8837" y2="65.4569">
		<stop  offset="0" style="stop-color:#0C90C2"/>
		<stop  offset="1" style="stop-color:#2DD2AB"/>
	</linearGradient>
	<path class="st1" d="M7,16.2c0,1.4,1.1,2.5,2.5,2.5s2.5-1.1,2.5-2.5c0-1.4-1.1-2.5-2.5-2.5S7,14.8,7,16.2"/>
</g>
<g>
	<linearGradient id="SVGID_3_" gradientUnits="userSpaceOnUse" x1="-14.8622" y1="21.7952" x2="56.1378" y2="80.7952">
		<stop  offset="0" style="stop-color:#0C90C2"/>
		<stop  offset="1" style="stop-color:#2DD2AB"/>
	</linearGradient>
	<path class="st2" d="M2,37.9c0,1.4,1.1,2.5,2.5,2.5S7,39.3,7,37.9c0-1.4-1.1-2.5-2.5-2.5S2,36.5,2,37.9"/>
</g>
<g>
	<linearGradient id="SVGID_4_" gradientUnits="userSpaceOnUse" x1="-7.2313" y1="12.6122" x2="63.7687" y2="71.6122">
		<stop  offset="0" style="stop-color:#0C90C2"/>
		<stop  offset="1" style="stop-color:#2DD2AB"/>
	</linearGradient>
	<path class="st3" d="M13.9,31.9c0,1.1,0.9,2,2,2s2-0.9,2-2c0-1.1-0.9-2-2-2S13.9,30.8,13.9,31.9"/>
</g>
<g>
	<linearGradient id="SVGID_5_" gradientUnits="userSpaceOnUse" x1="-8.0501" y1="13.5976" x2="62.9499" y2="72.5976">
		<stop  offset="0" style="stop-color:#0C90C2"/>
		<stop  offset="1" style="stop-color:#2DD2AB"/>
	</linearGradient>
	<path class="st4" d="M5.8,26.7c0,1,0.8,1.9,1.9,1.9c1,0,1.9-0.8,1.9-1.9c0-1-0.8-1.9-1.9-1.9C6.6,24.8,5.8,25.6,5.8,26.7"/>
</g>
<g>
	<linearGradient id="SVGID_6_" gradientUnits="userSpaceOnUse" x1="-17.3206" y1="24.7537" x2="53.6794" y2="83.7537">
		<stop  offset="0" style="stop-color:#0C90C2"/>
		<stop  offset="1" style="stop-color:#2DD2AB"/>
	</linearGradient>
	<path class="st6" d="M8.4,47.8c0,1.1,0.9,2,2,2s2-0.9,2-2s-0.9-2-2-2S8.4,46.7,8.4,47.8"/>
</g>
<linearGradient id="SVGID_7_" gradientUnits="userSpaceOnUse" x1="-8.9607" y1="14.6934" x2="62.0393" y2="73.6934">
	<stop  offset="0" style="stop-color:#0C90C2"/>
	<stop  offset="1" style="stop-color:#2DD2AB"/>
</linearGradient>
<polygon class="st7" points="33.8,53.2 33.8,39 28,42.4 28,56.6 "/>
<linearGradient id="SVGID_8_" gradientUnits="userSpaceOnUse" x1="3.4318" y1="-0.2197" x2="74.4318" y2="58.7803">
	<stop  offset="0" style="stop-color:#0C90C2"/>
	<stop  offset="1" style="stop-color:#2DD2AB"/>
</linearGradient>
<polygon class="st8" points="35,23.4 35,37 40.9,33.5 40.9,19.9 "/>
<linearGradient id="SVGID_9_" gradientUnits="userSpaceOnUse" x1="6.0526" y1="-3.3735" x2="77.0526" y2="55.6265">
	<stop  offset="0" style="stop-color:#0C90C2"/>
	<stop  offset="1" style="stop-color:#2DD2AB"/>
</linearGradient>
<polygon class="st9" points="28,11.9 28,26.1 33.8,22.7 33.8,8.4 "/>
<linearGradient id="SVGID_10_" gradientUnits="userSpaceOnUse" x1="10.9402" y1="-9.2552" x2="81.9402" y2="49.7448">
	<stop  offset="0" style="stop-color:#0C90C2"/>
	<stop  offset="1" style="stop-color:#2DD2AB"/>
</linearGradient>
<polygon class="st10" points="35,7.8 35,22 40.9,18.6 40.9,4.3 "/>
<linearGradient id="SVGID_11_" gradientUnits="userSpaceOnUse" x1="-1.4563" y1="5.6626" x2="69.5437" y2="64.6626">
	<stop  offset="0" style="stop-color:#0C90C2"/>
	<stop  offset="1" style="stop-color:#2DD2AB"/>
</linearGradient>
<polygon class="st11" points="33.8,37.6 33.8,24 28,27.4 28,41.1 "/>
<linearGradient id="SVGID_12_" gradientUnits="userSpaceOnUse" x1="-4.071" y1="8.8091" x2="66.929" y2="67.8091">
	<stop  offset="0" style="stop-color:#0C90C2"/>
	<stop  offset="1" style="stop-color:#2DD2AB"/>
</linearGradient>
<polygon class="st12" points="40.9,34.9 35,38.3 35,52.5 40.9,49.1 "/>
<linearGradient id="SVGID_13_" gradientUnits="userSpaceOnUse" x1="8.5229" y1="-6.3462" x2="79.5229" y2="52.6538">
	<stop  offset="0" style="stop-color:#0C90C2"/>
	<stop  offset="1" style="stop-color:#2DD2AB"/>
</linearGradient>
<polygon class="st13" points="42,32.9 48.5,29.1 48.5,15.5 42,19.3 "/>
<linearGradient id="SVGID_14_" gradientUnits="userSpaceOnUse" x1="16.0301" y1="-15.3803" x2="87.0301" y2="43.6197">
	<stop  offset="0" style="stop-color:#0C90C2"/>
	<stop  offset="1" style="stop-color:#2DD2AB"/>
</linearGradient>
<polygon class="st14" points="42,3.7 42,17.9 48.5,14.2 48.5,-0.1 "/>
<linearGradient id="SVGID_15_" gradientUnits="userSpaceOnUse" x1="1.021" y1="2.6815" x2="72.021" y2="61.6815">
	<stop  offset="0" style="stop-color:#0C90C2"/>
	<stop  offset="1" style="stop-color:#2DD2AB"/>
</linearGradient>
<polygon class="st15" points="42,48.4 48.5,44.7 48.5,30.4 42,34.2 "/>
<linearGradient id="SVGID_16_" gradientUnits="userSpaceOnUse" x1="0.9631" y1="2.7512" x2="71.9631" y2="61.7512">
	<stop  offset="0" style="stop-color:#0C90C2"/>
	<stop  offset="1" style="stop-color:#2DD2AB"/>
</linearGradient>
<polygon class="st16" points="26.8,12.5 20.3,16.3 20.3,30.5 26.8,26.8 "/>
<linearGradient id="SVGID_17_" gradientUnits="userSpaceOnUse" x1="-6.5465" y1="11.7882" x2="64.4535" y2="70.7882">
	<stop  offset="0" style="stop-color:#0C90C2"/>
	<stop  offset="1" style="stop-color:#2DD2AB"/>
</linearGradient>
<polygon class="st17" points="26.8,28.1 20.3,31.9 20.3,45.5 26.8,41.7 "/>
<linearGradient id="SVGID_18_" gradientUnits="userSpaceOnUse" x1="-14.0535" y1="20.822" x2="56.9465" y2="79.822">
	<stop  offset="0" style="stop-color:#0C90C2"/>
	<stop  offset="1" style="stop-color:#2DD2AB"/>
</linearGradient>
<polygon class="st18" points="26.8,43.1 20.3,46.9 20.3,61.1 26.8,57.3 "/>
<g>
	<linearGradient id="SVGID_19_" gradientUnits="userSpaceOnUse" x1="9.981" y1="-8.1008" x2="80.981" y2="50.8992">
		<stop  offset="0" style="stop-color:#0C90C2"/>
		<stop  offset="1" style="stop-color:#2DD2AB"/>
	</linearGradient>
	<path class="st19" d="M52.6,24.5c-1.6,0.6-2.9,1.6-3.3,3.5c-0.4,1.9,0.4,2.9,0.4,2.9s1.5-1,2.9-2.7c1.2-1.5,1.4-2.7,1.4-2.7
		s-0.1,1.7-1.3,3.3c-1.3,1.7-2.6,2.3-2.6,2.3s2.2,0.1,3.7-1.5c2.3-2.4,0.9-6.4,0.9-6.4S54.4,23.8,52.6,24.5"/>
</g>
<g>
	<path class="st5" d="M33,39.8c1.8,1.9,4.4,1.8,4.4,1.8s-1.5-0.7-3-2.7C32.9,37,32.8,35,32.8,35s0.2,1.4,1.7,3.2
		c1.6,2,3.4,3.2,3.4,3.2s0.9-1.2,0.5-3.4c-0.4-2.2-2-3.5-3.9-4.2C32.3,33,32,32.3,32,32.3S30.3,37,33,39.8"/>
</g>
<g>
	<linearGradient id="SVGID_20_" gradientUnits="userSpaceOnUse" x1="7.039" y1="-4.5605" x2="78.039" y2="54.4395">
		<stop  offset="0" style="stop-color:#0C90C2"/>
		<stop  offset="1" style="stop-color:#2DD2AB"/>
	</linearGradient>
	<path class="st20" d="M52.5,35.1c-1.9,2.8-1.1,5.9-1.1,5.9s0.6-2,2.6-4.5c2-2.3,4.4-2.9,4.4-2.9s-1.7,0.7-3.6,2.9
		c-2.1,2.5-3.1,5-3.1,5s1.7,0.8,4.4-0.3c2.7-1.1,3.8-3.4,4.2-5.9c0.5-2.9,1.3-3.6,1.3-3.6s-0.5-0.1-1.3-0.1
		C58.3,31.7,54.5,32.2,52.5,35.1"/>
</g>
<g>
	<linearGradient id="SVGID_21_" gradientUnits="userSpaceOnUse" x1="19.187" y1="-19.1793" x2="90.187" y2="39.8207">
		<stop  offset="0" style="stop-color:#0C90C2"/>
		<stop  offset="1" style="stop-color:#2DD2AB"/>
	</linearGradient>
	<path class="st21" d="M61.7,19.3c1.7,1.3,3.8,0.8,3.8,0.8s-1.3-0.4-2.8-1.7c-1.4-1.3-1.8-2.8-1.8-2.8s0.4,1.1,1.8,2.3
		c1.6,1.4,3.2,2,3.2,2s0.5-1-0.1-2.8c-0.7-1.7-2.1-2.5-3.7-2.8c-1.9-0.4-2.3-0.9-2.3-0.9S59.2,17.4,61.7,19.3"/>
</g>
<g>
	<linearGradient id="SVGID_22_" gradientUnits="userSpaceOnUse" x1="1.7744" y1="1.7749" x2="72.7744" y2="60.7749">
		<stop  offset="0" style="stop-color:#0C90C2"/>
		<stop  offset="1" style="stop-color:#2DD2AB"/>
	</linearGradient>
	<path class="st22" d="M55.5,48.3c0,0,0.7,0.3,1.6,2.1c0.8,1.5,1.9,2.7,3.8,2.9c1.9,0.2,2.8-0.7,2.8-0.7s-1.1-1.4-3-2.6
		c-1.7-1.1-2.9-1.2-2.9-1.2s1.7-0.1,3.4,1c1.8,1.1,2.6,2.3,2.6,2.3s-0.1-2.2-1.9-3.6c-1-0.7-2.1-1-3.1-1
		C57.1,47.6,55.5,48.3,55.5,48.3"/>
</g>
<g>
	<linearGradient id="SVGID_23_" gradientUnits="userSpaceOnUse" x1="14.7822" y1="-13.8786" x2="85.7822" y2="45.1214">
		<stop  offset="0" style="stop-color:#0C90C2"/>
		<stop  offset="1" style="stop-color:#2DD2AB"/>
	</linearGradient>
	<path class="st23" d="M51.4,18.6c0,1.4,1.1,2.5,2.5,2.5c1.4,0,2.5-1.1,2.5-2.5c0-1.4-1.1-2.5-2.5-2.5
		C52.5,16.2,51.4,17.3,51.4,18.6"/>
</g>
<g>
	<g>
		<linearGradient id="SVGID_24_" gradientUnits="userSpaceOnUse" x1="20.0295" y1="-20.1931" x2="91.0295" y2="38.8069">
			<stop  offset="0" style="stop-color:#0C90C2"/>
			<stop  offset="1" style="stop-color:#2DD2AB"/>
		</linearGradient>
		<path class="st24" d="M54.5,12c-2,0-3.6-1.6-3.6-3.6s1.6-3.6,3.6-3.6S58,6.5,58,8.4S56.4,12,54.5,12z M54.5,5.9
			c-1.4,0-2.6,1.1-2.6,2.6s1.1,2.6,2.6,2.6S57,9.8,57,8.4S55.9,5.9,54.5,5.9z"/>
	</g>
</g>
<g>
	<path class="st5" d="M36,19.9c0,1.4,1.1,2.5,2.5,2.5c1.4,0,2.5-1.1,2.5-2.5c0-1.4-1.1-2.5-2.5-2.5C37.1,17.4,36,18.6,36,19.9"/>
</g>
<g>
	<path class="st5" d="M25.2,29.6c0,1.4,1.1,2.5,2.5,2.5c1.4,0,2.5-1.1,2.5-2.5c0-1.4-1.1-2.5-2.5-2.5C26.3,27.1,25.2,28.2,25.2,29.6
		"/>
</g>
<g>
	<linearGradient id="SVGID_25_" gradientUnits="userSpaceOnUse" x1="-0.897" y1="4.9896" x2="70.103" y2="63.9896">
		<stop  offset="0" style="stop-color:#0C90C2"/>
		<stop  offset="1" style="stop-color:#2DD2AB"/>
	</linearGradient>
	<path class="st25" d="M47.8,47.6c0,1.4,1.1,2.5,2.5,2.5c1.4,0,2.5-1.1,2.5-2.5s-1.1-2.5-2.5-2.5C49,45.1,47.8,46.2,47.8,47.6"/>
</g>
<g>
	<linearGradient id="SVGID_26_" gradientUnits="userSpaceOnUse" x1="13.9813" y1="-12.9148" x2="84.9813" y2="46.0852">
		<stop  offset="0" style="stop-color:#0C90C2"/>
		<stop  offset="1" style="stop-color:#2DD2AB"/>
	</linearGradient>
	<path class="st26" d="M65.1,31c0,1,0.8,1.8,1.8,1.8s1.8-0.8,1.8-1.8c0-1-0.8-1.8-1.8-1.8S65.1,30.1,65.1,31"/>
</g>
<g>
	<path class="st5" d="M32.6,46.7c0,1,0.8,1.8,1.8,1.8s1.8-0.8,1.8-1.8c0-1-0.8-1.8-1.8-1.8S32.6,45.8,32.6,46.7"/>
</g>
<g>
	<linearGradient id="SVGID_27_" gradientUnits="userSpaceOnUse" x1="8.0133" y1="-5.7329" x2="79.0133" y2="53.2671">
		<stop  offset="0" style="stop-color:#0C90C2"/>
		<stop  offset="1" style="stop-color:#2DD2AB"/>
	</linearGradient>
	<path class="st27" d="M29.6,13.7c0,1,0.8,1.8,1.8,1.8c1,0,1.8-0.8,1.8-1.8c0-1-0.8-1.8-1.8-1.8C30.4,11.9,29.6,12.7,29.6,13.7"/>
</g>
<g>
	<defs>
		<path id="SVGID_33_" d="M29.6,13.7c0,1,0.8,1.8,1.8,1.8c1,0,1.8-0.8,1.8-1.8c0-1-0.8-1.8-1.8-1.8C30.4,11.9,29.6,12.7,29.6,13.7"
			/>
	</defs>
	<linearGradient id="SVGID_28_" gradientUnits="userSpaceOnUse" x1="8.0135" y1="-5.7332" x2="79.0135" y2="53.2668">
		<stop  offset="0" style="stop-color:#0C90C2"/>
		<stop  offset="1" style="stop-color:#2DD2AB"/>
	</linearGradient>
	<use xlink:href="#SVGID_33_"  style="overflow:visible;fill:url(#SVGID_28_);"/>
	<clipPath id="SVGID_29_">
		<use xlink:href="#SVGID_33_"  style="overflow:visible;"/>
	</clipPath>
	<linearGradient id="SVGID_30_" gradientUnits="userSpaceOnUse" x1="8.0129" y1="-5.7324" x2="79.0129" y2="53.2676">
		<stop  offset="0" style="stop-color:#0C90C2"/>
		<stop  offset="1" style="stop-color:#2DD2AB"/>
	</linearGradient>
	<rect x="29.6" y="11.9" style="clip-path:url(#SVGID_29_);fill:url(#SVGID_30_);" width="3.6" height="3.6"/>
</g>
<g>
	<linearGradient id="SVGID_31_" gradientUnits="userSpaceOnUse" x1="14.4318" y1="-13.4569" x2="85.4318" y2="45.5431">
		<stop  offset="0" style="stop-color:#0C90C2"/>
		<stop  offset="1" style="stop-color:#2DD2AB"/>
	</linearGradient>
	<path class="st31" d="M44.3,12.8c0,1,0.8,1.8,1.8,1.8c1,0,1.8-0.8,1.8-1.8c0-1-0.8-1.8-1.8-1.8C45.1,11,44.3,11.8,44.3,12.8"/>
</g>
<g>
	<defs>
		<path id="SVGID_38_" d="M44.3,12.8c0,1,0.8,1.8,1.8,1.8c1,0,1.8-0.8,1.8-1.8c0-1-0.8-1.8-1.8-1.8C45.1,11,44.3,11.8,44.3,12.8"/>
	</defs>
	<linearGradient id="SVGID_32_" gradientUnits="userSpaceOnUse" x1="14.4321" y1="-13.4573" x2="85.4321" y2="45.5427">
		<stop  offset="0" style="stop-color:#0C90C2"/>
		<stop  offset="1" style="stop-color:#2DD2AB"/>
	</linearGradient>
	<use xlink:href="#SVGID_38_"  style="overflow:visible;fill:url(#SVGID_32_);"/>
	<clipPath id="SVGID_34_">
		<use xlink:href="#SVGID_38_"  style="overflow:visible;"/>
	</clipPath>
	<linearGradient id="SVGID_35_" gradientUnits="userSpaceOnUse" x1="14.4326" y1="-13.4579" x2="85.4326" y2="45.5421">
		<stop  offset="0" style="stop-color:#0C90C2"/>
		<stop  offset="1" style="stop-color:#2DD2AB"/>
	</linearGradient>
	<rect x="44.3" y="11" style="clip-path:url(#SVGID_34_);fill:url(#SVGID_35_);" width="3.6" height="3.6"/>
</g>
<g>
	<linearGradient id="SVGID_36_" gradientUnits="userSpaceOnUse" x1="20.0354" y1="-20.2003" x2="91.0354" y2="38.7997">
		<stop  offset="0" style="stop-color:#0C90C2"/>
		<stop  offset="1" style="stop-color:#2DD2AB"/>
	</linearGradient>
	<rect x="53" y="7.9" style="fill:url(#SVGID_36_);" width="3" height="1"/>
</g>
<g>
	<g>
		<linearGradient id="SVGID_37_" gradientUnits="userSpaceOnUse" x1="14.339" y1="-13.3453" x2="85.339" y2="45.6547">
			<stop  offset="0" style="stop-color:#0C90C2"/>
			<stop  offset="1" style="stop-color:#2DD2AB"/>
		</linearGradient>
		<path class="st34" d="M61.4,28.4c-1.5,0-2.7-1.2-2.7-2.7s1.2-2.7,2.7-2.7c1.5,0,2.7,1.2,2.7,2.7S62.9,28.4,61.4,28.4z M61.4,23.8
			c-1.1,0-1.9,0.9-1.9,1.9s0.9,1.9,1.9,1.9c1.1,0,1.9-0.9,1.9-1.9S62.5,23.8,61.4,23.8z"/>
	</g>
</g>
<g>
	<linearGradient id="SVGID_39_" gradientUnits="userSpaceOnUse" x1="14.3436" y1="-13.3508" x2="85.3437" y2="45.6492">
		<stop  offset="0" style="stop-color:#0C90C2"/>
		<stop  offset="1" style="stop-color:#2DD2AB"/>
	</linearGradient>
	<rect x="60.3" y="25.4" style="fill:url(#SVGID_39_);" width="2.3" height="0.8"/>
</g>
<g>
	<g>
		<linearGradient id="SVGID_40_" gradientUnits="userSpaceOnUse" x1="-7.4426" y1="12.8665" x2="63.5574" y2="71.8665">
			<stop  offset="0" style="stop-color:#0C90C2"/>
			<stop  offset="1" style="stop-color:#2DD2AB"/>
		</linearGradient>
		<path style="fill:url(#SVGID_40_);" d="M43.2,57.9c-1.6,0-3-1.3-3-3s1.3-3,3-3c1.6,0,3,1.3,3,3S44.8,57.9,43.2,57.9z M43.2,52.8
			c-1.2,0-2.1,1-2.1,2.1s1,2.1,2.1,2.1c1.2,0,2.1-1,2.1-2.1S44.4,52.8,43.2,52.8z"/>
	</g>
</g>
<g>
	<linearGradient id="SVGID_41_" gradientUnits="userSpaceOnUse" x1="-7.4373" y1="12.8601" x2="63.5627" y2="71.8601">
		<stop  offset="0" style="stop-color:#0C90C2"/>
		<stop  offset="1" style="stop-color:#2DD2AB"/>
	</linearGradient>
	<rect x="41.9" y="54.5" style="fill:url(#SVGID_41_);" width="2.5" height="0.8"/>
</g>
<g>
	<g>
		<linearGradient id="SVGID_42_" gradientUnits="userSpaceOnUse" x1="7.6627" y1="-5.3111" x2="78.6627" y2="53.6889">
			<stop  offset="0" style="stop-color:#0C90C2"/>
			<stop  offset="1" style="stop-color:#2DD2AB"/>
		</linearGradient>
		<path class="st36" d="M64,45c-2,0-3.6-1.6-3.6-3.6s1.6-3.6,3.6-3.6s3.6,1.6,3.6,3.6S65.9,45,64,45z M64,38.9
			c-1.4,0-2.6,1.1-2.6,2.6S62.5,44,64,44s2.6-1.1,2.6-2.6S65.4,38.9,64,38.9z"/>
	</g>
</g>
<g>
	<linearGradient id="SVGID_43_" gradientUnits="userSpaceOnUse" x1="7.6691" y1="-5.3187" x2="78.6691" y2="53.6813">
		<stop  offset="0" style="stop-color:#0C90C2"/>
		<stop  offset="1" style="stop-color:#2DD2AB"/>
	</linearGradient>
	<rect x="62.5" y="41" class="st37" width="3" height="1"/>
</g>
</svg>
