<svg xmlns="http://www.w3.org/2000/svg" preserveAspectRatio="xMidYMid" width="19" height="26" viewBox="0 0 19 26"><path fill="#3eb5f1" fill-rule="evenodd" d="M9.5.958c4.715 0 8.55 3.875 8.55 8.637a8.69 8.69 0 0 1-1.149 4.318L9.5 24.081 2.098 13.913A8.7 8.7 0 0 1 .95 9.595C.95 4.833 4.786.958 9.5.958m0 11.995c1.834 0 3.325-1.507 3.325-3.358 0-1.851-1.491-3.358-3.325-3.358-1.833 0-3.325 1.507-3.325 3.358 0 1.851 1.492 3.358 3.325 3.358m0-12.954C4.254-.001 0 4.296 0 9.595c0 1.75.466 3.386 1.276 4.798L9.5 26l8.224-11.607A9.608 9.608 0 0 0 19 9.595c0-5.299-4.254-9.596-9.5-9.596zm0 11.994a2.387 2.387 0 0 1-2.375-2.398c0-1.324 1.064-2.398 2.375-2.398 1.312 0 2.375 1.074 2.375 2.398A2.386 2.386 0 0 1 9.5 11.993z"/></svg>