<svg xmlns="http://www.w3.org/2000/svg" width="136" height="129"><defs><linearGradient id="a" x1="0%" x2="61.566%" y1="0%" y2="78.801%"><stop offset="0%" stop-color="#00ADEF" stop-opacity=".81"/><stop offset="39%" stop-color="#19CDD7" stop-opacity=".81"/><stop offset="100%" stop-color="#31ECBE" stop-opacity=".81"/></linearGradient></defs><path fill-rule="evenodd" fill="#00AFED" d="M135 129H1a1 1 0 0 1-1-1V14a1 1 0 0 1 1-1h.3L32.108.081c.002-.002.005-.002.008-.003a.969.969 0 0 1 .347-.071c.013 0 .024-.007.037-.007h72c.016 0 .029.008.044.009a.977.977 0 0 1 .332.067c.005.002.011.002.018.005l.003.001L134.708 13H135a1 1 0 0 1 1 1v114a1 1 0 0 1-1 1zM31.5 2.504L6.47 13H31.5V2.504zm72-.504h-70v11h70V2zm2 .523V13h24.176L105.5 2.523zM134 15H2v112h132V15zM22.916 58.73l-.677 3.181h-6.441l-.607 2.853h5.938l-.676 3.182h-5.938l-1.134 5.336H9.5l3.094-14.552h10.322zm5.045 0l-3.094 14.552h-3.336l3.093-14.552h3.337zm3.842 8.305c.95 0 2.41-.02 2.532 1.144h.154l.343-1.61c.202-.951.272-1.552-1.184-1.552-.834 0-1.399.193-1.592 1.105h-3.339c.672-3.162 2.978-3.143 5.365-3.143 3.414 0 4.76.427 4.012 3.939l-1.352 6.364h-3.337l.438-1.514h-.116c-.55 1.398-2.113 1.631-3.277 1.631-2.328 0-3.567-.564-3.015-3.163.521-2.445 1.962-3.201 4.368-3.201zm.211 4.21c1.397 0 1.861-.175 2.088-1.242.181-.854-.54-.931-1.626-.931-.816 0-1.484.136-1.682 1.067-.235 1.106.715 1.106 1.22 1.106zM45.307 58.73l-1.74 8.188h.582l2.83-3.822h3.667l-3.911 4.89 2.406 5.296H45.24l-1.565-4.133h-.583l-.878 4.133h-3.338l3.093-14.552h3.338zm-5.585 27.64s6.452-.302 12.575-3.592c6.02-3.235 8.355-6.648 8.355-6.648l.218-.215h5.261S60.832 87 46.008 87c-8.532 0-6.286-.63-6.286-.63zm21.903-27.64h3.939l-.289 11.215h.137l5.119-11.215h4.036l.216 11.215h.136l4.576-11.215h3.901l-6.315 14.552h-5.607l-.041-9.119h-.155l-4.054 9.119h-5.55l-.049-14.552zm26.089 4.249c4.269 0 4.91.912 3.994 5.22-.891 4.19-1.979 5.2-6.208 5.2-4.172 0-4.844-1.126-3.979-5.2.887-4.172 1.944-5.22 6.193-5.22zm-1.612 7.858c1.553 0 1.799-.426 2.269-2.638.471-2.213.41-2.659-1.143-2.659-1.609 0-1.899.446-2.37 2.659-.47 2.212-.365 2.638 1.244 2.638zm13.119-7.858c4.268 0 4.909.912 3.993 5.22-.89 4.19-1.978 5.2-6.209 5.2-4.17 0-4.844-1.126-3.977-5.2.886-4.172 1.944-5.22 6.193-5.22zm-1.612 7.858c1.552 0 1.798-.426 2.268-2.638.47-2.213.41-2.659-1.143-2.659-1.61 0-1.899.446-2.369 2.659-.47 2.212-.366 2.638 1.244 2.638zm16.596 26.821l-1.41 1.418-2.69-2.673v17.746h-2.001V96.425l-2.658 2.676-1.418-1.411 5.072-5.104 5.105 5.072zM105.5 117h20a1 1 0 1 1 0 2h-20a1 1 0 1 1 0-2zm14.604-2.851V96.425l-2.658 2.676-1.418-1.411 5.072-5.104 5.105 5.072-1.41 1.418-2.69-2.673v17.746h-2.001zm6.224-48.163h-3.144c.065-.853-.652-.853-1.176-.853-1.746 0-1.792.213-1.92.814-.108.506-.142.855 1.557.893 3.437.078 4.929.272 4.322 3.124-.634 2.988-3.038 3.435-5.717 3.435-2.638 0-4.999.058-4.285-3.299h3.338c-.244 1.145.591 1.145 1.406 1.145 1.513 0 1.766-.097 1.935-.893.214-1.009-.367-1.009-1.531-1.009-4.23 0-4.785-.951-4.343-3.026.697-3.279 2.863-3.338 5.695-3.338 1.863 0 4.498.02 3.965 2.522l-.102.485zm-16.046 7.296l.454-1.766h-.155c-.714 1.533-1.856 1.883-3.311 1.883-2.464 0-3.639-1.048-3.065-3.745l.495-2.328c.66-3.105 1.991-4.347 4.784-4.347 1.223 0 2.237.252 2.499 1.572h.156l1.237-5.821h3.338l-3.094 14.552h-3.338zm-.158-7.742c-1.669 0-1.844.641-2.272 2.658-.529 2.484-.251 2.639 1.146 2.639 1.377 0 1.874-.329 2.365-2.639.421-1.978.526-2.658-1.239-2.658zM97.399 45.687s-6.452.303-12.575 3.593c-6.02 3.234-8.355 6.647-8.355 6.647l-.219.215h-5.261s5.3-11.084 20.121-11.084c8.535 0 6.289.629 6.289.629zM59.654 65.54h-3.862l-.969 4.559c-.108.602-.046.855.575.855.874 0 .967-.621 1.154-1.32l.135-.543h2.658l-.194.912c-.59 2.775-1.75 3.395-4.466 3.395-2.135 0-3.842-.271-3.298-2.832l1.068-5.026h-1.241l.519-2.444h1.242l.458-2.154h3.336l-.457 2.154h3.861l-.519 2.444zm-24.261-4.074l.424-1.999h2.115l-.424 1.999h-2.115zm-4.075 0l.425-1.999h2.115l-.425 1.999h-2.115z"/><path fill="url(#a)" d="M135 129H1a1 1 0 0 1-1-1V14a1 1 0 0 1 1-1h.3L32.108.081c.002-.002.005-.002.008-.003a.969.969 0 0 1 .347-.071c.013 0 .024-.007.037-.007h72c.016 0 .029.008.044.009a.977.977 0 0 1 .332.067c.005.002.011.002.018.005l.003.001L134.708 13H135a1 1 0 0 1 1 1v114a1 1 0 0 1-1 1zM31.5 2.504L6.47 13H31.5V2.504zm72-.504h-70v11h70V2zm2 .523V13h24.176L105.5 2.523zM134 15H2v112h132V15zM22.916 58.73l-.677 3.181h-6.441l-.607 2.853h5.938l-.676 3.182h-5.938l-1.134 5.336H9.5l3.094-14.552h10.322zm5.045 0l-3.094 14.552h-3.336l3.093-14.552h3.337zm3.842 8.305c.95 0 2.41-.02 2.532 1.144h.154l.343-1.61c.202-.951.272-1.552-1.184-1.552-.834 0-1.399.193-1.592 1.105h-3.339c.672-3.162 2.978-3.143 5.365-3.143 3.414 0 4.76.427 4.012 3.939l-1.352 6.364h-3.337l.438-1.514h-.116c-.55 1.398-2.113 1.631-3.277 1.631-2.328 0-3.567-.564-3.015-3.163.521-2.445 1.962-3.201 4.368-3.201zm.211 4.21c1.397 0 1.861-.175 2.088-1.242.181-.854-.54-.931-1.626-.931-.816 0-1.484.136-1.682 1.067-.235 1.106.715 1.106 1.22 1.106zM45.307 58.73l-1.74 8.188h.582l2.83-3.822h3.667l-3.911 4.89 2.406 5.296H45.24l-1.565-4.133h-.583l-.878 4.133h-3.338l3.093-14.552h3.338zm-5.585 27.64s6.452-.302 12.575-3.592c6.02-3.235 8.355-6.648 8.355-6.648l.218-.215h5.261S60.832 87 46.008 87c-8.532 0-6.286-.63-6.286-.63zm21.903-27.64h3.939l-.289 11.215h.137l5.119-11.215h4.036l.216 11.215h.136l4.576-11.215h3.901l-6.315 14.552h-5.607l-.041-9.119h-.155l-4.054 9.119h-5.55l-.049-14.552zm26.089 4.249c4.269 0 4.91.912 3.994 5.22-.891 4.19-1.979 5.2-6.208 5.2-4.172 0-4.844-1.126-3.979-5.2.887-4.172 1.944-5.22 6.193-5.22zm-1.612 7.858c1.553 0 1.799-.426 2.269-2.638.471-2.213.41-2.659-1.143-2.659-1.609 0-1.899.446-2.37 2.659-.47 2.212-.365 2.638 1.244 2.638zm13.119-7.858c4.268 0 4.909.912 3.993 5.22-.89 4.19-1.978 5.2-6.209 5.2-4.17 0-4.844-1.126-3.977-5.2.886-4.172 1.944-5.22 6.193-5.22zm-1.612 7.858c1.552 0 1.798-.426 2.268-2.638.47-2.213.41-2.659-1.143-2.659-1.61 0-1.899.446-2.369 2.659-.47 2.212-.366 2.638 1.244 2.638zm16.596 26.821l-1.41 1.418-2.69-2.673v17.746h-2.001V96.425l-2.658 2.676-1.418-1.411 5.072-5.104 5.105 5.072zM105.5 117h20a1 1 0 1 1 0 2h-20a1 1 0 1 1 0-2zm14.604-2.851V96.425l-2.658 2.676-1.418-1.411 5.072-5.104 5.105 5.072-1.41 1.418-2.69-2.673v17.746h-2.001zm6.224-48.163h-3.144c.065-.853-.652-.853-1.176-.853-1.746 0-1.792.213-1.92.814-.108.506-.142.855 1.557.893 3.437.078 4.929.272 4.322 3.124-.634 2.988-3.038 3.435-5.717 3.435-2.638 0-4.999.058-4.285-3.299h3.338c-.244 1.145.591 1.145 1.406 1.145 1.513 0 1.766-.097 1.935-.893.214-1.009-.367-1.009-1.531-1.009-4.23 0-4.785-.951-4.343-3.026.697-3.279 2.863-3.338 5.695-3.338 1.863 0 4.498.02 3.965 2.522l-.102.485zm-16.046 7.296l.454-1.766h-.155c-.714 1.533-1.856 1.883-3.311 1.883-2.464 0-3.639-1.048-3.065-3.745l.495-2.328c.66-3.105 1.991-4.347 4.784-4.347 1.223 0 2.237.252 2.499 1.572h.156l1.237-5.821h3.338l-3.094 14.552h-3.338zm-.158-7.742c-1.669 0-1.844.641-2.272 2.658-.529 2.484-.251 2.639 1.146 2.639 1.377 0 1.874-.329 2.365-2.639.421-1.978.526-2.658-1.239-2.658zM97.399 45.687s-6.452.303-12.575 3.593c-6.02 3.234-8.355 6.647-8.355 6.647l-.219.215h-5.261s5.3-11.084 20.121-11.084c8.535 0 6.289.629 6.289.629zM59.654 65.54h-3.862l-.969 4.559c-.108.602-.046.855.575.855.874 0 .967-.621 1.154-1.32l.135-.543h2.658l-.194.912c-.59 2.775-1.75 3.395-4.466 3.395-2.135 0-3.842-.271-3.298-2.832l1.068-5.026h-1.241l.519-2.444h1.242l.458-2.154h3.336l-.457 2.154h3.861l-.519 2.444zm-24.261-4.074l.424-1.999h2.115l-.424 1.999h-2.115zm-4.075 0l.425-1.999h2.115l-.425 1.999h-2.115z"/></svg>