<svg xmlns="http://www.w3.org/2000/svg" preserveAspectRatio="xMidYMid" width="36" height="53" viewBox="0 0 36 53"><defs><style>.cls-1{fill:#fff;fill-rule:evenodd}</style></defs><path d="M29.568 31.675c-1.277 1.36-1.741 3.29-1.905 4.676a1.762 1.762 0 0 1-1.756 1.556l-15.82-.005a1.77 1.77 0 0 1-1.757-1.554c-.165-1.393-.642-3.338-1.98-4.74A17.888 17.888 0 0 1 .007 17.943C.009 8.051 8.08.002 18 .002c9.92 0 17.99 8.049 17.99 17.941a17.871 17.871 0 0 1-6.422 13.732zM18 2.013c-8.808 0-15.974 7.145-15.976 15.93 0 4.696 2.069 9.131 5.675 12.168l.209.212c1.575 1.713 2.176 3.925 2.397 5.568l15.383.006c.227-1.692.842-3.963 2.459-5.65l.083-.077a15.872 15.872 0 0 0 5.743-12.227c0-8.785-7.166-15.93-15.973-15.93zm-2.598 5.673c-7.756 2.604-8.386 11.093-8.391 11.18a1.006 1.006 0 0 1-1.071.937 1.004 1.004 0 0 1-.942-1.066c.026-.405.735-9.926 9.761-12.957a1.006 1.006 0 1 1 .643 1.906zm-5.364 33.237h16.136c.557 0 1.009.451 1.009 1.007 0 .555-.452 1.006-1.009 1.006H10.038a1.007 1.007 0 1 1 0-2.013zm0 5.028h16.136c.557 0 1.009.45 1.009 1.006 0 .555-.452 1.005-1.009 1.005H10.038a1.006 1.006 0 1 1 0-2.011zm4.034 5.03h8.068c.557 0 1.009.448 1.009 1.004 0 .555-.452 1.004-1.009 1.004h-8.068a1.005 1.005 0 0 1 0-2.008z" class="cls-1"/></svg>