<svg xmlns="http://www.w3.org/2000/svg" width="270" height="270" viewBox="0 0 270 270"><defs><style>.cls-1{fill:#f5f5f5;stroke:#fff;stroke-width:1px}.cls-2,.cls-3{fill-rule:evenodd}.cls-3{fill:red}</style></defs><ellipse id="base" class="cls-1" cx="135.5" cy="134.5" rx="135" ry="135"/><path class="cls-2" d="M120.934 165.014H98.228v12.245H82.51V199h53.89v-21.74h-15.47v-12.246zm-20.71 2h18.714v10.246h-18.714v-10.247zm34.185 12.244V197h-49.9v-17.743h49.9zm51.231 3.242v-8.99h-17.2v8.99h-11.549V199H197v-16.5h-11.36zm-15.209-6.994h13.213v6.994h-13.213v-6.994zM195.005 197h-36.118v-12.5h36.118V197z"/><path id="Shape_17_copy" data-name="Shape 17 copy" class="cls-3" d="M127.277 104.92l-2.421-1.326 1.015 2.569c1.89 4.791 1.944 8.717.154 11.355-1.42 2.091-3.976 3.242-7.2 3.242-2.6 0-6.971-1.138-6.971-8.76 0-3.611 1.656-5.578 3.575-7.857 2.059-2.445 4.394-5.218 4.394-10.32 0-12.789-5.56-20.231-18.594-24.887L98.607 68l1.434 2.393c5.477 9.144 4.074 18.358-3.754 24.647C80.663 107.592 74 117.971 74 129.741c0 21.325 14.46 26.829 14.606 26.883a1.035 1.035 0 0 0 .339.059 1 1 0 0 0 .344-1.938c-.543-.2-13.293-5.137-13.293-25 0-11.246 6.242-20.847 21.544-33.143 7.859-6.314 9.858-15.641 5.511-24.818 10.46 4.385 14.783 10.927 14.783 22.042 0 4.372-1.906 6.635-3.924 9.032-1.989 2.362-4.045 4.8-4.045 9.145 0 6.737 3.352 10.76 8.967 10.76 3.9 0 7.044-1.463 8.847-4.118 1.32-1.945 2.431-5.3.923-10.651 9.828 6.032 12.667 12.808 11.157 25.624-1.159 9.832-7.216 16.9-11.67 21.362a1 1 0 0 0 1.411 1.413c4.665-4.672 11.01-12.091 12.241-22.54 1.713-14.578-2.07-22.148-14.464-28.933zm-11.068 49.987a1 1 0 1 0 1.255 1.554c7.719-6.254 9.044-12.391 4.173-19.314l-1.814-2.576v3.152a10.08 10.08 0 0 1-3.285 7.563 6.874 6.874 0 0 1-5.135 1.945c-2.244-.267-3.531-2.278-3.531-5.517 0-9.248-2.682-15.225-8.441-18.808l-1.524-.949v1.8c0 6.011-1.048 8.414-2.06 10.737a19.747 19.747 0 0 0-1.926 9.218c0 8.6 4.129 12.543 4.3 12.706a1 1 0 0 0 1.361-1.461c-.036-.036-3.67-3.569-3.67-11.245a17.63 17.63 0 0 1 1.759-8.418 23.2 23.2 0 0 0 2.19-9.644c4.142 3.285 6.011 8.331 6.011 16.066 0 4.305 1.978 7.109 5.293 7.5a8.877 8.877 0 0 0 6.7-2.435 11.823 11.823 0 0 0 3.592-6.038c2.376 4.979.71 9.336-5.248 14.164zm46.972 11.378a1 1 0 0 0 .684-1.878c-.318-.119-7.783-3.038-7.783-14.753 0-6.668 3.733-12.387 12.883-19.74a12.1 12.1 0 0 0 3.852-14.553c5.56 2.579 7.783 6.275 7.783 12.566 0 2.5-1.058 3.756-2.281 5.209-1.19 1.413-2.54 3.016-2.54 5.786 0 6.405 4.453 6.9 5.819 6.9a6.564 6.564 0 0 0 5.676-2.663 7.353 7.353 0 0 0 .845-5.815c4.51 2.975 6.681 6.66 5.745 14.6-.686 5.824-4.293 10.03-6.946 12.687a1 1 0 0 0 1.412 1.413c2.863-2.867 6.757-7.424 7.516-13.866 1.048-8.9-1.377-13.746-8.949-17.892l-2.421-1.327 1.015 2.57c1.093 2.772 1.139 5.02.133 6.5a4.646 4.646 0 0 1-4.026 1.789c-1.745 0-3.823-.852-3.823-4.905 0-2.04.959-3.178 2.07-4.5a9.216 9.216 0 0 0 2.751-6.5c0-7.931-3.442-12.544-11.509-15.425l-2.625-.937 1.434 2.393c3.2 5.345 2.387 10.727-2.18 14.4-9.553 7.676-13.629 14.047-13.629 21.3 0 13.184 8.722 16.505 9.094 16.641z"/></svg>