<svg xmlns="http://www.w3.org/2000/svg" width="88" height="88" viewBox="0 0 88 88"><defs><style>.cls-1{fill:none;stroke:#f5f5f5;stroke-width:1px}.cls-2,.cls-3{fill-rule:evenodd}.cls-3{fill:red}</style></defs><circle id="Ellipse_2_copy_9" data-name="Ellipse 2 copy 9" class="cls-1" cx="44" cy="44" r="44"/><path class="cls-2" d="M79 61H12a1 1 0 0 0 0 2.009h67A1 1 0 0 0 79 61zm-64-5.346h7.32a1 1 0 0 0 1-1V25.023h12.42a1 1 0 0 0 0-2.009H22.32a1 1 0 0 0-1 1v29.631H15a1 1 0 0 0 0 2.009zm40.26-30.631h12.42v29.626a1 1 0 0 0 1 1H76a1 1 0 0 0 0-2.009h-6.32V24.018a1 1 0 0 0-1-1H55.26a1 1 0 0 0 0 2.005zm-19.52 7.351a1 1 0 0 0 0-2.009h-7.32a1 1 0 0 0-1 1v23.284a1 1 0 0 0 1 1h34.16a1 1 0 0 0 1-1V31.37a1 1 0 0 0-1-1h-7.319a1 1 0 0 0 0 2.009h6.319v21.266H29.42V32.374h6.32z"/><path class="cls-3" d="M45.679 15.525A10.98 10.98 0 1 0 56.658 26.5a10.992 10.992 0 0 0-10.979-10.975zm0 19.918a8.939 8.939 0 1 1 8.938-8.943 8.949 8.949 0 0 1-8.938 8.944z"/></svg>