<svg xmlns="http://www.w3.org/2000/svg" preserveAspectRatio="xMidYMid" width="62" height="62" viewBox="0 0 62 62"><defs><style>.cls-1{fill:#fff;mix-blend-mode:multiply;fill-rule:evenodd}</style></defs><path d="M31 62C13.879 62 0 48.121 0 31 0 13.879 13.879 0 31 0c17.121 0 31 13.879 31 31 0 17.121-13.879 31-31 31zm0-60C14.984 2 2 14.984 2 31s12.984 29 29 29 29-12.984 29-29S47.016 2 31 2zm24.499 25.837l-1.255.298-.258-1.111-3.372.802c-.257.062-.428.158-.514.29a.588.588 0 0 0-.066.467 1.677 1.677 0 0 0 .178.46l-1.255.46a3.542 3.542 0 0 1-.26-.492 3.14 3.14 0 0 1-.175-.545c-.143-.615-.084-1.128.178-1.54.261-.413.759-.706 1.494-.881l3.378-.804-.225-.965 1.255-.298.224.964 1.622-.385.414 1.782-1.622.386.259 1.112zm-2.972-3.887l-.04.006-.807-1.57a.902.902 0 0 0 .473-.538c.074-.234.034-.499-.118-.796-.136-.263-.307-.437-.513-.521a.688.688 0 0 0-.599.025.623.623 0 0 0-.337.475c-.038.219.02.594.175 1.125.233.82.298 1.485.194 1.995-.103.509-.409.896-.916 1.158-.544.282-1.108.281-1.691-.005-.584-.285-1.071-.808-1.462-1.569-.413-.802-.535-1.542-.366-2.219.168-.678.519-1.14 1.052-1.389l.04-.006.764 1.487c-.318.179-.499.407-.541.682-.042.276.02.576.186.899.155.3.332.499.533.595.2.096.403.09.608-.016.179-.093.289-.259.331-.499.041-.24-.008-.621-.148-1.14-.221-.789-.282-1.437-.183-1.947.099-.51.394-.892.886-1.147.522-.271 1.077-.282 1.665-.034.587.248 1.069.738 1.445 1.469.396.768.529 1.474.402 2.116-.128.642-.472 1.097-1.033 1.364zm-4.532-4.494l-2.861-2.857-.036.018c-.293.34-.447.706-.464 1.097-.016.391.136.748.458 1.069.287.286.553.495.8.625.247.131.545.246.894.346l-.453 1.153c-.356-.034-.745-.155-1.167-.365a4.66 4.66 0 0 1-1.213-.894c-.691-.69-1.021-1.464-.989-2.322.032-.858.391-1.63 1.077-2.316l.178-.178c.716-.716 1.501-1.11 2.355-1.183.855-.072 1.61.222 2.265.882.647.646.953 1.343.919 2.092-.035.748-.386 1.457-1.054 2.125l-.709.708zm-.158-3.923a.95.95 0 0 0-.843-.29c-.323.046-.651.202-.983.47l-.009.035 1.586 1.584.116-.116c.276-.276.432-.561.469-.854.036-.293-.076-.569-.336-.829zm-3.645-5.63l-3.661 6.829-1.616-.858 3.661-6.829-2.269-1.204.669-1.248 6.164 3.271-.669 1.249-2.279-1.21zM31 41c-5.523 0-10-4.477-10-10s4.477-10 10-10 10 4.477 10 10-4.477 10-10 10zm-.004-26.748l-2.82-9.213 1.934.047 1.77 6.757.098.499.038.001.122-.481 2.197-6.672 1.934.048-3.39 9.06-1.883-.046zm-5.848 1.333c-1.022.394-1.946.453-2.772.176-.826-.277-1.421-.894-1.785-1.85l-2.152-5.656 1.721-.663 2.15 5.651c.214.562.525.924.933 1.086.407.163.875.143 1.404-.061.536-.207.905-.507 1.105-.902.2-.395.192-.875-.023-1.44l-2.151-5.652 1.721-.663 2.152 5.656c.364.956.328 1.816-.109 2.58-.437.763-1.168 1.343-2.194 1.738zm-8.349 1.187l-.879-.909 2.491-2.408 2.389 2.47c.054.448-.03.973-.251 1.575s-.648 1.21-1.282 1.823c-.807.779-1.706 1.166-2.698 1.161-.992-.004-1.872-.404-2.641-1.199l-1.323-1.368c-.766-.791-1.146-1.674-1.138-2.648.008-.973.398-1.834 1.171-2.581.803-.776 1.607-1.176 2.41-1.201.803-.024 1.515.275 2.136.899l.017.036-1.245 1.204c-.361-.325-.739-.492-1.134-.502-.395-.01-.785.171-1.168.541-.405.392-.581.862-.529 1.411.053.55.315 1.068.787 1.557l1.331 1.375c.481.498 1 .778 1.557.84.557.062 1.052-.117 1.487-.538.308-.297.526-.568.652-.812.127-.243.193-.458.2-.644l-1.171-1.212-1.169 1.13zm-3.718 3.407c1.028.443 1.723 1.137 2.083 2.082.36.945.317 1.931-.131 2.957l-1.258 2.884-8.381-3.607 1.258-2.884c.448-1.027 1.144-1.732 2.088-2.115.945-.384 1.929-.355 2.954.086l1.387.597zm-3.943.919c-.556.168-.965.553-1.229 1.157l-.485 1.113 5.79 2.493.486-1.114c.263-.603.266-1.164.009-1.681-.257-.517-.713-.917-1.369-1.199l-1.397-.601c-.648-.279-1.25-.335-1.805-.168zM31 45c7.732 0 14-6.268 14-14h13c0 14.912-12.088 27-27 27S4 45.912 4 31h13c0 7.732 6.268 14 14 14z" class="cls-1"/></svg>