<svg xmlns="http://www.w3.org/2000/svg" width="50" height="53"><defs><linearGradient id="a" x1="86.603%" x2="0%" y1="50%" y2="0%"><stop offset="0%" stop-color="#DC0224"/><stop offset="100%" stop-color="#FE6C5F"/></linearGradient></defs><path fill="url(#a)" d="M32.392 35.123a.99.99 0 0 1-.382-.076l-9.099-3.832a.996.996 0 0 1-.608-.919V17.56c0-.552.443-.997.99-.997.547 0 .991.445.991.997v12.072l8.491 3.575a.998.998 0 0 1-.383 1.916zM42.54 45.781c-9.833 9.72-25.696 9.581-35.361-.308-9.665-9.889-9.528-25.842.305-35.561C16.562.939 30.664.23 40.556 8.154l-1.254-6.937a1.064 1.064 0 0 1 .827-1.199 1.036 1.036 0 0 1 1.202.837l1.793 9.912c.008.043.005.08.002.083h-.001a.99.99 0 0 1-.004.23.936.936 0 0 1-.113.357l-.063.121a.975.975 0 0 1-.546.377l-9.956 1.837a1.024 1.024 0 0 1-1.197-.833 1.055 1.055 0 0 1 .828-1.203l7.83-1.434c-8.99-7.73-22.497-7.29-30.975 1.089-9.025 8.922-9.154 23.561-.286 32.634 8.872 9.077 23.432 9.204 32.457.284 5.444-5.381 7.865-13.111 6.477-20.674-.105-.54.286-1.106.825-1.205a1 1 0 0 1 .765.16c.228.158.382.397.431.671a25.206 25.206 0 0 1-7.058 22.52z"/></svg>