<svg xmlns="http://www.w3.org/2000/svg" width="79" height="53"><defs><linearGradient id="a" x1="0%" x2="61.566%" y1="0%" y2="78.801%"><stop offset="0" stop-color="#0c90c2"/><stop offset="1" stop-color="#2dd2ab"/></linearGradient></defs><path fill="url(#a)" d="M78.994 36.797c0-8.918-7.256-16.175-16.175-16.175H60.54c.178-.959.295-1.934.295-2.924 0-9.227-7.438-16.735-16.58-16.735-6.161 0-11.847 3.168-15.036 8.31a12.818 12.818 0 0 0-2.934-.336c-6.633 0-11.447 4.397-11.447 10.453 0 .433.026.862.075 1.283-8.44.476-14.928 7.374-14.928 16.124 0 8.772 7.022 15.919 15.739 16.154.038.003.07.022.109.022h47.366c.045 0 .083-.02.127-.027 8.683-.271 15.668-7.401 15.668-16.149zM62.819 50.983H16.16c-7.821 0-14.184-6.365-14.184-14.186 0-7.95 6.087-14.179 13.857-14.179.042 0 .077-.019.117-.023.045.006.087.022.133.022a.994.994 0 0 0 .97-1.221 8.842 8.842 0 0 1-.224-2.006c0-4.982 3.888-8.462 9.456-8.462 5.219 0 8.461 3.242 8.461 8.462a.996.996 0 0 0 1.991 0c0-4.522-2.088-7.893-5.578-9.466 2.87-4.325 7.784-6.97 13.096-6.97 9.011 0 14.589 7.654 14.589 14.744 0 .993-.119 1.971-.323 2.924h-4.862a.995.995 0 0 0 0 1.99h9.16c7.821 0 14.184 6.364 14.184 14.185 0 7.821-6.363 14.186-14.184 14.186z"/></svg>