<svg xmlns="http://www.w3.org/2000/svg" width="164" height="100"><defs><linearGradient id="a" x1="0%" x2="70.711%" y1="70.711%" y2="0%"><stop offset="0%" stop-color="#00ADEF"/><stop offset="100%" stop-color="#31ECBE"/></linearGradient></defs><path fill-rule="evenodd" fill="url(#a)" d="M164 100.01H124.078v-1.992h8.996V17.31c0-5.485 4.463-9.932 9.969-9.932h9.494a3.523 3.523 0 0 1 3.529 3.516v87.124H164v1.992zm-9.934-88.764a1.879 1.879 0 0 0-1.883-1.876h-9.14c-4.401 0-7.97 3.556-7.97 7.94v80.708h18.993V11.246zm-30.179 23.519c-.601-.116-60.181-11.234-119.858 10.693L11.82 48.8l-.793 1.831-11.028-4.734 5.537-10.613 1.777.918-3.829 7.335c60.17-22.054 120.18-10.843 120.784-10.727l.982.191-.382 1.954-.981-.19zm-.476-6.508c-.373-.156-37.382-15.571-86.183-19.579l5.666 6.217-1.483 1.339-8.069-8.857L42.795.001l1.235 1.568-6.577 5.129c49.107 4.043 86.362 19.567 86.738 19.726l.919.39-.78 1.832-.919-.389zm-72.214 42.84c23.687-26.258 71.726-31.438 72.217-31.49l.994-.1.203 1.982-.994.103c-.482.047-47.61 5.139-70.81 30.701l8.244-.997.239 1.979-11.92 1.442-.575-11.951 1.998-.096.404 8.427z"/></svg>