<svg xmlns="http://www.w3.org/2000/svg" width="27" height="80" viewBox="0 0 27 80"><path fill-rule="evenodd" fill="#FFF" d="M22.969 79.609H4.031a3.756 3.756 0 0 1-3.75-3.752V12.949a3.757 3.757 0 0 1 3.75-3.755h18.938a3.757 3.757 0 0 1 3.75 3.755v62.908a3.756 3.756 0 0 1-3.75 3.752zm2.25-66.66a2.254 2.254 0 0 0-2.25-2.253H4.031c-1.24 0-2.25 1.01-2.25 2.253v3.835h23.438v-3.835zm0 5.336H1.781v18.787h23.438V18.285zm0 20.287H1.781v37.285a2.253 2.253 0 0 0 2.25 2.251h18.938c1.24 0 2.25-1.009 2.25-2.251V38.572zm-11.55 11.636a4.19 4.19 0 0 1-4.188-4.193 4.189 4.189 0 0 1 8.375 0 4.19 4.19 0 0 1-4.187 4.193zm.175-46.785c1.462.007 2.742.644 3.728 1.912a.752.752 0 0 1-1.186.921c-.695-.896-1.526-1.333-2.54-1.333h-.001c-.993 0-1.839.437-2.665 1.371a.75.75 0 0 1-1.123-.995c1.116-1.262 2.355-1.876 3.787-1.876zm6.377.962a.755.755 0 0 1-1.052-.132c-1.417-1.827-3.206-2.751-5.317-2.751h-.007c-2.035 0-3.766.884-5.447 2.788a.75.75 0 0 1-1.124-.995C9.261 1.047 11.35 0 13.844 0h.008c2.562 0 4.81 1.152 6.502 3.332a.75.75 0 0 1-.133 1.053z"/></svg>