<svg xmlns="http://www.w3.org/2000/svg" width="117" height="94"><path fill-rule="evenodd" fill="#272324" d="M106.943 62.453c-7.395 0-10.029-5.198-10.029-10.062 0-3.649 1.333-5.877 3.021-8.698.302-.503.617-1.03.94-1.592 2.075-3.601 5.139-9.933 5.17-9.998a.998.998 0 0 1 .896-.564h.002a1 1 0 0 1 .896.561c.031.065 3.119 6.4 5.194 10.001.323.561.638 1.088.939 1.59 1.689 2.822 3.023 5.05 3.023 8.7 0 4.864-2.641 10.062-10.052 10.062zm5.318-17.733c-.306-.511-.627-1.047-.956-1.619-1.41-2.448-3.271-6.12-4.358-8.302-1.078 2.175-2.915 5.821-4.344 8.302-.33.573-.65 1.108-.958 1.62-1.588 2.655-2.737 4.575-2.737 7.67 0 1.893.58 8.065 8.035 8.065 7.476 0 8.057-6.172 8.057-8.065 0-3.096-1.149-5.016-2.739-7.671zM86.165 94.004c-7.395 0-10.03-5.201-10.03-10.064 0-3.649 1.334-5.874 3.02-8.695a91.54 91.54 0 0 0 .942-1.593c2.074-3.602 5.14-9.937 5.17-9.999.167-.345.515-.563.897-.566h.001c.381 0 .73.219.896.562.031.062 3.119 6.4 5.194 10.003.324.561.638 1.087.94 1.591 1.689 2.818 3.022 5.047 3.022 8.697 0 4.863-2.64 10.064-10.052 10.064zm5.32-17.733c-.308-.515-.628-1.05-.958-1.62-1.41-2.45-3.27-6.12-4.359-8.303-1.076 2.177-2.914 5.821-4.343 8.303-.33.572-.651 1.11-.959 1.623-1.589 2.654-2.736 4.57-2.736 7.666 0 1.892.579 8.064 8.035 8.064 7.476 0 8.058-6.172 8.058-8.064 0-3.097-1.149-5.015-2.738-7.669zm-5.32-45.366c-7.395 0-10.03-5.198-10.03-10.064 0-3.648 1.334-5.875 3.021-8.695.302-.505.618-1.031.941-1.593 2.074-3.601 5.14-9.936 5.17-9.999a.995.995 0 0 1 .897-.562h.001c.381 0 .73.215.896.559.031.063 3.119 6.401 5.194 10.002.323.562.637 1.086.938 1.591 1.69 2.819 3.024 5.047 3.024 8.697 0 4.866-2.64 10.064-10.052 10.064zm5.318-17.735c-.306-.512-.626-1.046-.956-1.618-1.41-2.447-3.27-6.118-4.359-8.303-1.076 2.177-2.914 5.821-4.343 8.303-.329.573-.65 1.109-.957 1.622-1.59 2.654-2.738 4.572-2.738 7.667 0 1.893.579 8.064 8.035 8.064 7.476 0 8.058-6.171 8.058-8.064 0-3.096-1.15-5.015-2.74-7.671zM58.501 65.755a.938.938 0 0 1-.664-.274l-3.312-3.294 1.326-1.318 1.713 1.702v-35.45h1.874v35.45l1.713-1.702 1.324 1.318-3.312 3.294a.935.935 0 0 1-.662.274zM30.835 94.004c-7.411 0-10.052-5.201-10.052-10.064 0-3.65 1.333-5.879 3.022-8.697.302-.504.617-1.03.94-1.591 2.075-3.603 5.163-9.941 5.194-10.003a.998.998 0 0 1 .896-.562h.002c.382.003.73.221.896.566.031.062 3.096 6.397 5.17 9.999.323.563.639 1.088.941 1.593 1.687 2.817 3.02 5.045 3.02 8.695 0 4.863-2.634 10.064-10.029 10.064zm5.298-17.732c-.307-.512-.628-1.05-.958-1.621-1.429-2.482-3.266-6.126-4.344-8.303-1.087 2.183-2.948 5.853-4.358 8.303-.329.57-.65 1.105-.957 1.62-1.59 2.654-2.738 4.572-2.738 7.669 0 1.892.581 8.064 8.057 8.064 7.455 0 8.035-6.172 8.035-8.064 0-3.096-1.149-5.014-2.737-7.668zm-5.298-45.367c-7.411 0-10.052-5.198-10.052-10.064 0-3.65 1.334-5.878 3.024-8.697.301-.505.616-1.029.938-1.591C26.82 6.952 29.908.614 29.939.551a.994.994 0 0 1 .898-.559c.382 0 .73.217.896.562.031.063 3.096 6.398 5.17 9.999.323.562.638 1.088.939 1.591 1.689 2.821 3.022 5.047 3.022 8.697 0 4.866-2.634 10.064-10.029 10.064zm5.297-17.732c-.307-.513-.627-1.049-.957-1.621-1.429-2.482-3.266-6.126-4.344-8.303-1.087 2.185-2.948 5.856-4.358 8.303-.329.572-.65 1.106-.955 1.618-1.591 2.656-2.74 4.575-2.74 7.671 0 1.893.581 8.064 8.057 8.064 7.455 0 8.035-6.171 8.035-8.064 0-3.095-1.149-5.014-2.738-7.668zm-26.075 49.28C2.645 62.453.004 57.255.004 52.391c0-3.649 1.334-5.877 3.023-8.699.301-.503.616-1.03.94-1.591C6.042 38.499 9.13 32.165 9.16 32.1c.168-.342.516-.561.897-.561h.001c.382.001.73.22.896.564.031.065 3.096 6.398 5.17 9.998.324.561.639 1.088.939 1.59 1.689 2.822 3.024 5.05 3.024 8.7 0 4.864-2.635 10.062-10.03 10.062zm5.296-17.733c-.307-.511-.627-1.047-.957-1.619-1.429-2.481-3.266-6.127-4.343-8.302-1.088 2.183-2.948 5.854-4.359 8.302-.329.573-.65 1.108-.956 1.62-1.59 2.655-2.739 4.575-2.739 7.67 0 1.893.581 8.065 8.058 8.065 7.455 0 8.035-6.172 8.035-8.065 0-3.096-1.149-5.016-2.739-7.671z"/></svg>