<svg xmlns="http://www.w3.org/2000/svg" width="171" height="116"><path fill-rule="evenodd" fill="#272324" d="M169.182 90.388l-4.088-6.238c-3.008 13.765-12.934 25.033-26.295 29.637a40.347 40.347 0 0 1-13.169 2.22c-6.055 0-12.084-1.379-17.696-4.113-9.716-4.735-17.001-12.955-20.513-23.146l1.891-.651c3.338 9.684 10.263 17.498 19.498 21.998 9.233 4.5 19.655 5.141 29.337 1.802 12.656-4.361 22.07-15.011 24.965-28.038l-6.071 3.977-1.095-1.673 8.996-5.894 5.912 9.023-1.672 1.096zm-51.276-7.393H42.915a5.01 5.01 0 0 1-5.004-5.008V46.005a5.013 5.013 0 0 1 5.004-5.01h74.991a5.016 5.016 0 0 1 5.006 5.01v31.982a5.012 5.012 0 0 1-5.006 5.008zm3.004-36.99a3.01 3.01 0 0 0-3.004-3.01H42.915a3.01 3.01 0 0 0-3.004 3.01v31.982a3.01 3.01 0 0 0 3.004 3.009h74.991a3.01 3.01 0 0 0 3.004-3.009V46.005zM43.911 70.994h73v2.002h-73v-2.002zm68.016 6.001H47.911v-1.999h64.016v1.999zM68.67 30.83l1.096-1.674 6.071 3.977C72.942 20.107 63.527 9.455 50.872 5.095c-9.684-3.337-20.103-2.699-29.337 1.801-9.236 4.501-16.16 12.313-19.499 22l-1.89-.653C3.658 18.052 10.943 9.833 20.659 5.099 30.373.366 41.335-.306 51.523 3.204 64.884 7.81 74.81 19.076 77.818 32.842l4.088-6.237 1.673 1.096-5.912 9.021-8.997-5.892z"/></svg>