<svg xmlns="http://www.w3.org/2000/svg" width="52" height="88" viewBox="0 0 52 88"><defs><style>.cls-1{fill:#fff;fill-rule:evenodd}</style></defs><path id="control" class="cls-1" d="M944.827 7082.9a21.188 21.188 0 0 0 6.7-7.87 34.643 34.643 0 0 0 .3-5.01q0-5.73-.808-7.82a3.037 3.037 0 0 0-3.069-2.08 6.483 6.483 0 0 0-.865.08q-.489-4.125-4.63-4.13h-1.394q-1.166-3.045-5.194-3.05h-2.183l-.226-11.85.042-2.17q0-7.245-3.915-7.25-4.329 0-4.33 7.99v2.68l-.3 12.81-4.48 7.98a106.691 106.691 0 0 0 6.963 16.97v7.87a19.661 19.661 0 0 0 9.074 1.95 20.005 20.005 0 0 0 8.318-1.65v-5.45zm.956-51.3a20.483 20.483 0 0 0-28.522 0l-1.685-1.65a22.911 22.911 0 0 1 31.892 0zm5.2-8.7a27.378 27.378 0 0 0-38.044 0l-1.685-1.65a29.809 29.809 0 0 1 41.414 0zm5.349-8.75a34.992 34.992 0 0 0-48.631 0l-1.685-1.65a37.422 37.422 0 0 1 52 0z" transform="translate(-906 -7002)"/></svg>