<svg xmlns="http://www.w3.org/2000/svg" width="193" height="134"><defs><linearGradient id="a" x1="0%" x2="61.566%" y1="0%" y2="78.801%"><stop offset="0%" stop-color="#00ADEF" stop-opacity=".81"/><stop offset="39%" stop-color="#19CDD7" stop-opacity=".81"/><stop offset="100%" stop-color="#31ECBE" stop-opacity=".81"/></linearGradient></defs><path fill-rule="evenodd" fill="#00AFED" d="M188 27.91V36c0 13.542-7.458 21-21 21-12.553 0-18.594 4.785-18.964 15h20.214a1 1 0 0 1 1 1v60a1 1 0 0 1-1 1h-155a1 1 0 0 1-1-1V73a1 1 0 0 1 1-1h31.714C44.594 61.785 38.553 57 26 57 12.458 57 5 49.542 5 36v-9.09c-2.833-.478-5-2.943-5-5.91 0-3.309 2.691-6 6-6s6 2.691 6 6c0 2.967-2.167 5.432-5 5.91V36c0 12.43 6.57 19 19 19 13.533 0 20.567 5.729 20.962 17h18.03c-.166-9.785-2.912-16.237-15.286-20.044C38.985 48.657 35 43.519 35 33V21.91c-2.833-.479-5-2.943-5-5.91 0-3.309 2.691-6 6-6s6 2.691 6 6c0 2.967-2.167 5.431-5 5.91V33c0 9.685 3.354 13.985 13.294 17.044C63.779 54.193 66.818 61.534 66.992 72h17.985c-.233-9.338-3.745-16.344-11.635-23.247C65 41.454 65 33.994 65 28V16.91c-2.833-.479-5-2.943-5-5.91 0-3.309 2.691-6 6-6s6 2.691 6 6c0 2.967-2.167 5.431-5 5.91V28c0 5.881 0 12.546 7.658 19.247C83.029 54.572 86.745 62.029 86.978 72H95V11.91c-2.833-.479-5-2.943-5-5.91 0-3.309 2.691-6 6-6s6 2.691 6 6c0 2.967-2.167 5.431-5 5.91V72h9.022c.233-9.971 3.949-17.428 12.32-24.753C126 40.546 126 33.881 126 28V16.91c-2.833-.479-5-2.943-5-5.91 0-3.309 2.691-6 6-6s6 2.691 6 6c0 2.967-2.167 5.431-5 5.91V28c0 5.994 0 13.454-8.342 20.753-7.89 6.903-11.402 13.909-11.635 23.247h17.985c.174-10.466 3.213-17.807 16.698-21.956C152.646 46.985 156 42.685 156 33V22.91c-2.833-.479-5-2.943-5-5.91 0-3.309 2.691-6 6-6s6 2.691 6 6c0 2.967-2.167 5.431-5 5.91V33c0 10.519-3.985 15.657-14.706 18.956-12.374 3.807-15.12 10.259-15.286 20.044h18.03c.395-11.271 7.429-17 20.962-17 12.43 0 19-6.57 19-19v-8.09c-2.833-.479-5-2.943-5-5.91 0-3.309 2.691-6 6-6s6 2.691 6 6c0 2.967-2.167 5.431-5 5.91zM10 21c0-2.206-1.794-4-4-4s-4 1.794-4 4 1.794 4 4 4 4-1.794 4-4zm30-5c0-2.206-1.794-4-4-4s-4 1.794-4 4 1.794 4 4 4 4-1.794 4-4zm30-5c0-2.206-1.794-4-4-4s-4 1.794-4 4 1.794 4 4 4 4-1.794 4-4zm61 0c0-2.206-1.794-4-4-4s-4 1.794-4 4 1.794 4 4 4 4-1.794 4-4zm30 6c0-2.206-1.794-4-4-4s-4 1.794-4 4 1.794 4 4 4 4-1.794 4-4zM100 6c0-2.206-1.794-4-4-4s-4 1.794-4 4 1.794 4 4 4 4-1.794 4-4zM14.25 74v58h153V74h-153zM187 18c-2.206 0-4 1.794-4 4s1.794 4 4 4 4-1.794 4-4-1.794-4-4-4zm-27 108a2 2 0 1 1 0-4 2 2 0 0 1 0 4zm0-43a2 2 0 1 1 0-4 2 2 0 0 1 0 4zm-6.25 35.5h-126a1 1 0 0 1-1-1v-29a1 1 0 0 1 1-1h126a1 1 0 0 1 1 1v29a1 1 0 0 1-1 1zm-1-29h-124v27h124v-27zM21 126a2 2 0 1 1-.001-3.999A2 2 0 0 1 21 126zm0-43a2 2 0 1 1-.001-3.999A2 2 0 0 1 21 83z"/><path fill="url(#a)" d="M188 27.91V36c0 13.542-7.458 21-21 21-12.553 0-18.594 4.785-18.964 15h20.214a1 1 0 0 1 1 1v60a1 1 0 0 1-1 1h-155a1 1 0 0 1-1-1V73a1 1 0 0 1 1-1h31.714C44.594 61.785 38.553 57 26 57 12.458 57 5 49.542 5 36v-9.09c-2.833-.478-5-2.943-5-5.91 0-3.309 2.691-6 6-6s6 2.691 6 6c0 2.967-2.167 5.432-5 5.91V36c0 12.43 6.57 19 19 19 13.533 0 20.567 5.729 20.962 17h18.03c-.166-9.785-2.912-16.237-15.286-20.044C38.985 48.657 35 43.519 35 33V21.91c-2.833-.479-5-2.943-5-5.91 0-3.309 2.691-6 6-6s6 2.691 6 6c0 2.967-2.167 5.431-5 5.91V33c0 9.685 3.354 13.985 13.294 17.044C63.779 54.193 66.818 61.534 66.992 72h17.985c-.233-9.338-3.745-16.344-11.635-23.247C65 41.454 65 33.994 65 28V16.91c-2.833-.479-5-2.943-5-5.91 0-3.309 2.691-6 6-6s6 2.691 6 6c0 2.967-2.167 5.431-5 5.91V28c0 5.881 0 12.546 7.658 19.247C83.029 54.572 86.745 62.029 86.978 72H95V11.91c-2.833-.479-5-2.943-5-5.91 0-3.309 2.691-6 6-6s6 2.691 6 6c0 2.967-2.167 5.431-5 5.91V72h9.022c.233-9.971 3.949-17.428 12.32-24.753C126 40.546 126 33.881 126 28V16.91c-2.833-.479-5-2.943-5-5.91 0-3.309 2.691-6 6-6s6 2.691 6 6c0 2.967-2.167 5.431-5 5.91V28c0 5.994 0 13.454-8.342 20.753-7.89 6.903-11.402 13.909-11.635 23.247h17.985c.174-10.466 3.213-17.807 16.698-21.956C152.646 46.985 156 42.685 156 33V22.91c-2.833-.479-5-2.943-5-5.91 0-3.309 2.691-6 6-6s6 2.691 6 6c0 2.967-2.167 5.431-5 5.91V33c0 10.519-3.985 15.657-14.706 18.956-12.374 3.807-15.12 10.259-15.286 20.044h18.03c.395-11.271 7.429-17 20.962-17 12.43 0 19-6.57 19-19v-8.09c-2.833-.479-5-2.943-5-5.91 0-3.309 2.691-6 6-6s6 2.691 6 6c0 2.967-2.167 5.431-5 5.91zM10 21c0-2.206-1.794-4-4-4s-4 1.794-4 4 1.794 4 4 4 4-1.794 4-4zm30-5c0-2.206-1.794-4-4-4s-4 1.794-4 4 1.794 4 4 4 4-1.794 4-4zm30-5c0-2.206-1.794-4-4-4s-4 1.794-4 4 1.794 4 4 4 4-1.794 4-4zm61 0c0-2.206-1.794-4-4-4s-4 1.794-4 4 1.794 4 4 4 4-1.794 4-4zm30 6c0-2.206-1.794-4-4-4s-4 1.794-4 4 1.794 4 4 4 4-1.794 4-4zM100 6c0-2.206-1.794-4-4-4s-4 1.794-4 4 1.794 4 4 4 4-1.794 4-4zM14.25 74v58h153V74h-153zM187 18c-2.206 0-4 1.794-4 4s1.794 4 4 4 4-1.794 4-4-1.794-4-4-4zm-27 108a2 2 0 1 1 0-4 2 2 0 0 1 0 4zm0-43a2 2 0 1 1 0-4 2 2 0 0 1 0 4zm-6.25 35.5h-126a1 1 0 0 1-1-1v-29a1 1 0 0 1 1-1h126a1 1 0 0 1 1 1v29a1 1 0 0 1-1 1zm-1-29h-124v27h124v-27zM21 126a2 2 0 1 1-.001-3.999A2 2 0 0 1 21 126zm0-43a2 2 0 1 1-.001-3.999A2 2 0 0 1 21 83z"/></svg>