<svg xmlns="http://www.w3.org/2000/svg" width="62" height="56"><defs><linearGradient id="a" x1="0%" x2="61.566%" y1="0%" y2="78.801%"><stop offset="0%" stop-color="#00ADEF"/><stop offset="39%" stop-color="#19CDD7"/><stop offset="100%" stop-color="#31ECBE"/></linearGradient></defs><path fill="url(#a)" d="M51.951 28.743c-2.357 6.827-9.037 10.144-20.513 10.303v4.661c0 .044-.02.084-.025.127h6.817v4.509h5.66v7.641H16.979v-7.641h5.659v-4.509h6.818c-.006-.043-.025-.083-.025-.127v-4.661c-12.852-.279-18.204-5.208-20.287-10.258C7.483 28.292 0 25.668 0 18.895V8.743c0-.553.449-1.001 1.004-1.001h6.92V4.234a1 1 0 0 1 .463-.845C8.775 3.141 12.694.978 30.601.978c17.931 0 21.564 2.188 21.919 2.437a1 1 0 0 1 .425.819v3.535c.044-.006.082-.027.128-.027h7.923c.555 0 1.004.448 1.004 1.001v10.152c0 6.561-7.836 9.225-10.049 9.848zM7.924 22.278V9.744H2.008v9.151c0 4.229 4.044 6.517 6.37 7.481a18.302 18.302 0 0 1-.454-4.098zm11.063 28.068v3.639h22.895v-3.639H18.987zm5.659-4.514v2.511h11.576v-2.511H24.646zM50.938 4.856c-1.328-.515-6.174-1.878-20.337-1.878-14.036 0-19.207 1.38-20.67 1.908v17.392c0 6.746 3.583 14.789 20.651 14.789 14.078 0 20.356-4.559 20.356-14.789V4.856zm9.054 4.888h-6.919c-.046 0-.084-.021-.128-.026v12.56c0 1.489-.127 2.873-.37 4.158 2.608-.93 7.417-3.227 7.417-7.541V9.744zm-24.73 11.678l2.258 7.416a.71.71 0 0 1-.673.915.709.709 0 0 1-.398-.122l-6.406-4.434-6.405 4.434a.863.863 0 0 1-.194.092c-.024.009-.048.007-.071.011-.045.009-.089.019-.134.019h-.004c-.049-.001-.096-.013-.143-.021-.024-.005-.048-.005-.07-.014a.71.71 0 0 1-.455-.88l2.257-7.416-6.21-4.683a.71.71 0 0 1 .408-1.273l3.987-.081 1.171-.022 1.171-.025 1-.019.47-.011.248-.708 2.311-6.618a.709.709 0 0 1 .663-.472.71.71 0 0 1 .664.472l2.311 6.618.248.708.468.011 1.001.019 1.172.025 1.172.022 3.986.081a.71.71 0 0 1 .409 1.273l-6.212 4.683zm1.776-4.035l-1.173-.025-1.173-.025-.996-.019-.473-.013-1.394-.026-.459-1.313-.248-.71-1.079-3.088-1.078 3.088-.248.71-.459 1.313-1.394.026-.47.013-1.004.019-1.167.025-1.173.025-.245.005 3.231 2.435 1.115.844-.406 1.333-1.171 3.849 3.324-2.302 1.145-.793 1.146.793 3.324 2.302-1.172-3.849-.406-1.336 1.115-.841 3.231-2.435-.243-.005z"/></svg>