<svg xmlns="http://www.w3.org/2000/svg" viewBox="0 0 363.11 429.04"><defs><style>.cls-1,.cls-2{fill:none}.cls-1{stroke:#888;stroke-width:.25px}.cls-2{stroke:#929497;stroke-width:.56px;stroke-dasharray:1.13}.cls-3{fill:#fff;stroke:#5b5b5b;stroke-miterlimit:10;stroke-width:.25px}.cls-4{fill:#888}.cls-5{fill:#4687e0}.cls-6{fill:#f4b162}.cls-7{fill:#7b76c6}.cls-8{fill:#53dad3}</style></defs><title>dahu_10-18_2</title><g id="Слой_2" data-name="Слой 2"><g id="Layer_1" data-name="Layer 1"><path class="cls-1" d="M15.94.14H363m0 415.42V0M60 416V0m303 369.36H16.14m-.21-45.86H363m-347-46h347m-347-47h347m0-45.83H15.94m0-92.52H363M15.94 45.89H363M190 416V0m43 416V0m44 416V0m43 415V0M146.39.09v415.44m-43.27 0V.13M15.93 138.5H363M16 0v415.5h347" transform="translate(-.3)"/><path class="cls-3" d="M26.64 384.43h28v15h-28zM26.36 339h42v15h-42zM38.18 293.07H80.1V308H38.18zM65.51 200.34h53.98v15H65.51zM97.16 155.02h86v15h-86zM135.85 107.92h102v15h-102zM169.66 61.5h139.25v15H169.66zM199.83 15.4h158.42v15H199.83z"/><path class="cls-4" d="M54.13 422.46l1.6-.59h.4v7.05h-.5v-6.51l-1.35.46zM57.83 425.42A4.55 4.55 0 0 1 58 424a3.85 3.85 0 0 1 .58-1.15 2.74 2.74 0 0 1 .92-.79 2.61 2.61 0 0 1 2.4 0 2.67 2.67 0 0 1 .92.79 3.87 3.87 0 0 1 .57 1.15 4.64 4.64 0 0 1 .21 1.39 4.55 4.55 0 0 1-.21 1.38 3.87 3.87 0 0 1-.58 1.15 2.72 2.72 0 0 1-.92.79 2.6 2.6 0 0 1-2.4 0 2.7 2.7 0 0 1-.92-.79 3.87 3.87 0 0 1-.57-1.15 4.64 4.64 0 0 1-.17-1.35zm.54 0a4.14 4.14 0 0 0 .17 1.18 3.63 3.63 0 0 0 .47 1 2.33 2.33 0 0 0 .75.7 2 2 0 0 0 2 0 2.26 2.26 0 0 0 .75-.7 3.59 3.59 0 0 0 .46-1 4.22 4.22 0 0 0 .17-1.18 4.16 4.16 0 0 0-.17-1.18 3.57 3.57 0 0 0-.47-1 2.33 2.33 0 0 0-.75-.7 1.91 1.91 0 0 0-1-.26 2 2 0 0 0-.8.17 2 2 0 0 0-.65.47 3.09 3.09 0 0 0-.48.69 3.49 3.49 0 0 0-.31.86 4.46 4.46 0 0 0-.13.95zM12.65 426.82l4-5h.47v4.89h1.14v.45h-1.14v1.71h-.5v-1.71h-3.79zm.63-.06h3.34v-4.14zM.3 389.71l1.6-.59h.4v7.05h-.5v-6.51l-1.35.46zM4 392.67a4.55 4.55 0 0 1 .21-1.38 3.85 3.85 0 0 1 .58-1.15 2.74 2.74 0 0 1 .92-.79 2.61 2.61 0 0 1 2.4 0 2.67 2.67 0 0 1 .92.79 3.87 3.87 0 0 1 .57 1.15 4.64 4.64 0 0 1 .21 1.39 4.55 4.55 0 0 1-.22 1.32 3.87 3.87 0 0 1-.59 1.2 2.72 2.72 0 0 1-.92.79 2.6 2.6 0 0 1-2.4 0 2.7 2.7 0 0 1-.92-.79 3.87 3.87 0 0 1-.57-1.15 4.64 4.64 0 0 1-.19-1.38zm.54 0a4.14 4.14 0 0 0 .17 1.18 3.63 3.63 0 0 0 .47 1 2.33 2.33 0 0 0 .75.7 2 2 0 0 0 2 0 2.26 2.26 0 0 0 .75-.7 3.59 3.59 0 0 0 .46-1 4.22 4.22 0 0 0 .17-1.18 4.16 4.16 0 0 0-.17-1.18 3.57 3.57 0 0 0-.47-1 2.33 2.33 0 0 0-.75-.7 1.91 1.91 0 0 0-1-.26 2 2 0 0 0-.8.17 2 2 0 0 0-.65.47 3.09 3.09 0 0 0-.48.69 3.49 3.49 0 0 0-.31.86 4.46 4.46 0 0 0-.14.95zM97.8 422.46l1.6-.59h.4v7.05h-.5v-6.51l-1.35.46zM101.71 427.26a5.23 5.23 0 0 1-.21-1.67 5.07 5.07 0 0 1 .35-1.91 3.2 3.2 0 0 1 1-1.37 2.38 2.38 0 0 1 1.5-.51 2.63 2.63 0 0 1 1 .21 4.21 4.21 0 0 1 1 .61l-.33.4a3.46 3.46 0 0 0-.84-.56 2.14 2.14 0 0 0-.89-.19 1.91 1.91 0 0 0-1.66 1 4.49 4.49 0 0 0-.63 2.5v.17a2.42 2.42 0 0 1 2.19-1.3 2.67 2.67 0 0 1 1.18.27 2.22 2.22 0 0 1 .89.76 1.93 1.93 0 0 1 .34 1.11 2.21 2.21 0 0 1-.32 1.18 2.25 2.25 0 0 1-.88.83 2.72 2.72 0 0 1-2.24.11 2.36 2.36 0 0 1-.79-.51 2.81 2.81 0 0 1-.66-1.13zm.52-.45a1.61 1.61 0 0 0 .57 1.25 2 2 0 0 0 1.41.5 1.81 1.81 0 0 0 1.35-.53 1.77 1.77 0 0 0 .52-1.3 1.55 1.55 0 0 0-.54-1.21 2 2 0 0 0-1.36-.48 2.06 2.06 0 0 0-.79.15 1.92 1.92 0 0 0-.62.4 1.84 1.84 0 0 0-.4.56 1.55 1.55 0 0 0-.15.66z" transform="translate(-.3)"/><path d="M68.42 393.47a5.78 5.78 0 0 1-.24-1.84 5.59 5.59 0 0 1 .38-2.11 3.52 3.52 0 0 1 1.1-1.5 2.63 2.63 0 0 1 1.65-.56 2.88 2.88 0 0 1 1.15.23 4.57 4.57 0 0 1 1.07.67l-.36.44a3.77 3.77 0 0 0-.92-.61 2.37 2.37 0 0 0-1-.2 2.1 2.1 0 0 0-1.8 1.01 4.94 4.94 0 0 0-.69 2.75v.25a2.66 2.66 0 0 1 2.41-1.43 3 3 0 0 1 1.3.29 2.46 2.46 0 0 1 1 .84 2.12 2.12 0 0 1 .37 1.22 2.43 2.43 0 0 1-.35 1.29 2.48 2.48 0 0 1-1 .91 3 3 0 0 1-2.46.12 2.6 2.6 0 0 1-.87-.56 3.1 3.1 0 0 1-.74-1.21zM69 393a1.77 1.77 0 0 0 .62 1.38 2.25 2.25 0 0 0 1.55.55 2 2 0 0 0 1.49-.58 2 2 0 0 0 .57-1.43 1.7 1.7 0 0 0-.59-1.33 2.17 2.17 0 0 0-1.5-.53 2.26 2.26 0 0 0-.87.17 2.12 2.12 0 0 0-.68.44 2 2 0 0 0-.43.62 1.7 1.7 0 0 0-.16.71zM78.77 393.47a5.78 5.78 0 0 1-.24-1.84 5.59 5.59 0 0 1 .38-2.11A3.52 3.52 0 0 1 80 388a2.63 2.63 0 0 1 1.65-.56 2.88 2.88 0 0 1 1.15.23 4.57 4.57 0 0 1 1.07.67l-.36.44a3.77 3.77 0 0 0-.92-.61 2.37 2.37 0 0 0-1-.2 2.1 2.1 0 0 0-1.78 1.03 4.94 4.94 0 0 0-.69 2.75v.25a2.66 2.66 0 0 1 2.41-1.43 3 3 0 0 1 1.3.29 2.46 2.46 0 0 1 1 .84 2.12 2.12 0 0 1 .37 1.22 2.43 2.43 0 0 1-.35 1.29 2.48 2.48 0 0 1-1 .91 3 3 0 0 1-2.46.12 2.6 2.6 0 0 1-.87-.56 3.1 3.1 0 0 1-.75-1.21zm.57-.5a1.77 1.77 0 0 0 .62 1.38 2.25 2.25 0 0 0 1.55.55 2 2 0 0 0 1.49-.58 2 2 0 0 0 .57-1.43 1.7 1.7 0 0 0-.59-1.33 2.17 2.17 0 0 0-1.5-.53 2.26 2.26 0 0 0-.87.17 2.12 2.12 0 0 0-.68.44 2 2 0 0 0-.43.62 1.7 1.7 0 0 0-.16.74zM85.61 391.44a5 5 0 0 1 .23-1.52 4.25 4.25 0 0 1 .63-1.27 3 3 0 0 1 1-.87 2.87 2.87 0 0 1 2.64 0 3 3 0 0 1 1 .87 4.24 4.24 0 0 1 .63 1.27 5.09 5.09 0 0 1 .23 1.53 5 5 0 0 1-.23 1.52 4.29 4.29 0 0 1-.63 1.27 3 3 0 0 1-1 .87 2.86 2.86 0 0 1-2.64 0 3 3 0 0 1-1-.87 4.24 4.24 0 0 1-.63-1.27 5.1 5.1 0 0 1-.23-1.53zm.6 0a4.5 4.5 0 0 0 .19 1.29 3.91 3.91 0 0 0 .52 1.11 2.54 2.54 0 0 0 .83.77 2.15 2.15 0 0 0 2.15 0 2.49 2.49 0 0 0 .82-.77 3.93 3.93 0 0 0 .51-1.11 4.61 4.61 0 0 0 .18-1.3 4.53 4.53 0 0 0-.19-1.3 3.86 3.86 0 0 0-.52-1.11 2.56 2.56 0 0 0-.83-.77 2.1 2.1 0 0 0-1.08-.29 2.12 2.12 0 0 0-.88.19 2.21 2.21 0 0 0-.72.51 3.44 3.44 0 0 0-.53.76 3.81 3.81 0 0 0-.34.95 4.83 4.83 0 0 0-.12 1.07zM93.42 391.44a5 5 0 0 1 .23-1.52 4.25 4.25 0 0 1 .63-1.27 3 3 0 0 1 1-.87 2.87 2.87 0 0 1 2.64 0 3 3 0 0 1 1 .87 4.24 4.24 0 0 1 .63 1.27 5.09 5.09 0 0 1 .23 1.53 5 5 0 0 1-.23 1.52 4.29 4.29 0 0 1-.63 1.27 3 3 0 0 1-1 .87 2.86 2.86 0 0 1-2.64 0 3 3 0 0 1-1-.87 4.24 4.24 0 0 1-.63-1.27 5.1 5.1 0 0 1-.23-1.53zm.6 0a4.5 4.5 0 0 0 .19 1.29 3.91 3.91 0 0 0 .52 1.11 2.54 2.54 0 0 0 .83.77 2.15 2.15 0 0 0 2.15 0 2.49 2.49 0 0 0 .82-.77 3.93 3.93 0 0 0 .51-1.11 4.61 4.61 0 0 0 .18-1.3 4.53 4.53 0 0 0-.19-1.3 3.86 3.86 0 0 0-.53-1.13 2.56 2.56 0 0 0-.83-.77 2.1 2.1 0 0 0-1.07-.23 2.12 2.12 0 0 0-.88.19 2.21 2.21 0 0 0-.72.51 3.44 3.44 0 0 0-.53.76 3.81 3.81 0 0 0-.34.95 4.83 4.83 0 0 0-.13 1.03zM81.36 342.33v-.53h5.11v.4L83 349.5h-.63l3.5-7.17zM91.1 344.25a2.47 2.47 0 0 1 .76-1.83 2.88 2.88 0 0 1 3.9 0 3.06 3.06 0 0 1 .72 1.19 5.71 5.71 0 0 1 .25 1.83 5.39 5.39 0 0 1-.41 2.15 3.53 3.53 0 0 1-1.12 1.49 2.63 2.63 0 0 1-1.6.53 2.92 2.92 0 0 1-1.22-.25 4.76 4.76 0 0 1-1.1-.71l.37-.44a3 3 0 0 0 2 .88 2.15 2.15 0 0 0 1.84-1 4.6 4.6 0 0 0 .71-2.67v-.26a2.61 2.61 0 0 1-2.4 1.48 2.75 2.75 0 0 1-1.91-.68 2.19 2.19 0 0 1-.79-1.71zm.6 0a1.73 1.73 0 0 0 .59 1.34 2.16 2.16 0 0 0 1.5.53 2.28 2.28 0 0 0 .89-.17 2 2 0 0 0 .68-.45 2.09 2.09 0 0 0 .42-.63 1.85 1.85 0 0 0-.47-2.12 2.23 2.23 0 0 0-1.57-.57 2.12 2.12 0 0 0-.85.17 1.85 1.85 0 0 0-.65.46 2.17 2.17 0 0 0-.55 1.44zM98.06 348.39l.41-.41a3.3 3.3 0 0 0 2.31 1.13 2.05 2.05 0 0 0 1.49-.56 1.86 1.86 0 0 0 .58-1.39 1.66 1.66 0 0 0-.59-1.31 2.25 2.25 0 0 0-1.52-.51 3.61 3.61 0 0 0-1.74.48l-.44-.29.22-3.73h4.32v.53h-3.83l-.19 2.9a3.86 3.86 0 0 1 1.71-.41 2.78 2.78 0 0 1 1.89.66 2.13 2.13 0 0 1 .76 1.69 2.3 2.3 0 0 1-.76 1.78 2.74 2.74 0 0 1-1.93.7 3.24 3.24 0 0 1-1.44-.35 4.55 4.55 0 0 1-1.25-.91zM104.8 345.65a5 5 0 0 1 .23-1.52 4.25 4.25 0 0 1 .63-1.27 3 3 0 0 1 1-.87 2.87 2.87 0 0 1 2.64 0 3 3 0 0 1 1 .87 4.24 4.24 0 0 1 .63 1.27 5.09 5.09 0 0 1 .23 1.53 5 5 0 0 1-.23 1.52 4.29 4.29 0 0 1-.63 1.27 3 3 0 0 1-1 .87 2.86 2.86 0 0 1-2.64 0 3 3 0 0 1-1-.87 4.24 4.24 0 0 1-.63-1.27 5.1 5.1 0 0 1-.23-1.53zm.6 0a4.5 4.5 0 0 0 .19 1.29 3.91 3.91 0 0 0 .52 1.11 2.54 2.54 0 0 0 .83.77 2.15 2.15 0 0 0 2.15 0 2.49 2.49 0 0 0 .82-.77 3.93 3.93 0 0 0 .51-1.11 4.61 4.61 0 0 0 .18-1.3 4.53 4.53 0 0 0-.19-1.3 3.86 3.86 0 0 0-.52-1.11 2.56 2.56 0 0 0-.83-.77 2.1 2.1 0 0 0-1.08-.29 2.12 2.12 0 0 0-.88.19 2.21 2.21 0 0 0-.72.51 3.44 3.44 0 0 0-.53.76 3.81 3.81 0 0 0-.34.95 4.83 4.83 0 0 0-.12 1.07zM93 298.73a2.47 2.47 0 0 1 .76-1.83 2.88 2.88 0 0 1 3.9 0 3.06 3.06 0 0 1 .72 1.19 5.72 5.72 0 0 1 .25 1.83 5.4 5.4 0 0 1-.41 2.15 3.53 3.53 0 0 1-1.12 1.49 2.63 2.63 0 0 1-1.6.53 2.92 2.92 0 0 1-1.22-.25 4.77 4.77 0 0 1-1.1-.71l.37-.44a3 3 0 0 0 2 .88 2.15 2.15 0 0 0 1.84-1 4.6 4.6 0 0 0 .71-2.67v-.26a2.61 2.61 0 0 1-2.4 1.48 2.75 2.75 0 0 1-1.91-.68 2.19 2.19 0 0 1-.79-1.71zm.6 0a1.73 1.73 0 0 0 .59 1.34 2.16 2.16 0 0 0 1.5.53 2.28 2.28 0 0 0 .89-.17 2 2 0 0 0 .68-.45 2.09 2.09 0 0 0 .42-.63 1.85 1.85 0 0 0-.47-2.12 2.23 2.23 0 0 0-1.57-.57 2.12 2.12 0 0 0-.85.17 1.85 1.85 0 0 0-.65.46 2.16 2.16 0 0 0-.55 1.44zM103.25 302.73l.44-.37a3 3 0 0 0 2.4 1.23 2 2 0 0 0 1.35-.48 1.58 1.58 0 0 0 .55-1.24 1.41 1.41 0 0 0-.66-1.24 3.07 3.07 0 0 0-1.73-.44h-.42l-.15-.32 2.65-3.06h-4v-.53h4.82v.4l-2.6 3a5 5 0 0 1 .78.11 3.47 3.47 0 0 1 .73.26 2.64 2.64 0 0 1 .63.42 1.79 1.79 0 0 1 .43.61 2 2 0 0 1 .16.81 2.06 2.06 0 0 1-.35 1.17 2.29 2.29 0 0 1-.92.8 2.8 2.8 0 0 1-1.24.28 3.46 3.46 0 0 1-1.62-.37 3.6 3.6 0 0 1-1.25-1.04zM109.88 304v-.42l2.88-2.6a8.27 8.27 0 0 0 1.33-1.45 2.16 2.16 0 0 0 .37-1.19 1.53 1.53 0 0 0-.51-1.19 1.77 1.77 0 0 0-1.22-.46 2.15 2.15 0 0 0-1.23.35 4 4 0 0 0-1 1.08l-.43-.29a5.68 5.68 0 0 1 .53-.69 3.43 3.43 0 0 1 .58-.51 2.35 2.35 0 0 1 .73-.34 3.44 3.44 0 0 1 .9-.11 2.28 2.28 0 0 1 1.63.61 2 2 0 0 1 .65 1.53 2.48 2.48 0 0 1-.1.74 2.57 2.57 0 0 1-.36.7 6 6 0 0 1-.59.71q-.33.35-.88.84l-2.36 2.14h4.36v.55zM116.57 300.13a5 5 0 0 1 .23-1.52 4.26 4.26 0 0 1 .63-1.27 3 3 0 0 1 1-.87 2.87 2.87 0 0 1 2.64 0 3 3 0 0 1 1 .87 4.24 4.24 0 0 1 .63 1.27 5.09 5.09 0 0 1 .23 1.53 5 5 0 0 1-.23 1.52 4.3 4.3 0 0 1-.63 1.27 3 3 0 0 1-1 .87 2.86 2.86 0 0 1-2.64 0 3 3 0 0 1-1-.87 4.24 4.24 0 0 1-.63-1.27 5.1 5.1 0 0 1-.23-1.53zm.6 0a4.5 4.5 0 0 0 .19 1.29 3.91 3.91 0 0 0 .52 1.11 2.54 2.54 0 0 0 .83.77 2.15 2.15 0 0 0 2.15 0 2.48 2.48 0 0 0 .82-.77 3.91 3.91 0 0 0 .51-1.11 4.63 4.63 0 0 0 .18-1.3 4.53 4.53 0 0 0-.19-1.3 3.86 3.86 0 0 0-.52-1.11 2.55 2.55 0 0 0-.83-.77 2.1 2.1 0 0 0-1.08-.29 2.12 2.12 0 0 0-.88.19 2.2 2.2 0 0 0-.72.51 3.41 3.41 0 0 0-.53.76 3.85 3.85 0 0 0-.34.95 4.89 4.89 0 0 0-.12 1.07zM97 251.19l1.76-.65h.44v7.76h-.55v-7.16l-1.49.51zM101.07 254.44a5 5 0 0 1 .23-1.52 4.25 4.25 0 0 1 .63-1.27 3 3 0 0 1 1-.87 2.87 2.87 0 0 1 2.64 0 3 3 0 0 1 1 .87 4.24 4.24 0 0 1 .63 1.27 5.09 5.09 0 0 1 .23 1.53 5 5 0 0 1-.23 1.52 4.29 4.29 0 0 1-.63 1.27 3 3 0 0 1-1 .87 2.86 2.86 0 0 1-2.64 0 3 3 0 0 1-1-.87 4.24 4.24 0 0 1-.63-1.27 5.1 5.1 0 0 1-.23-1.53zm.6 0a4.5 4.5 0 0 0 .19 1.29 3.91 3.91 0 0 0 .52 1.11 2.54 2.54 0 0 0 .83.77 2.15 2.15 0 0 0 2.15 0 2.49 2.49 0 0 0 .82-.77 3.93 3.93 0 0 0 .51-1.11 4.61 4.61 0 0 0 .18-1.3 4.53 4.53 0 0 0-.19-1.3 3.86 3.86 0 0 0-.52-1.11 2.56 2.56 0 0 0-.83-.77 2.1 2.1 0 0 0-1.08-.29 2.12 2.12 0 0 0-.88.19 2.21 2.21 0 0 0-.72.51 3.44 3.44 0 0 0-.53.76 3.81 3.81 0 0 0-.34.95 4.83 4.83 0 0 0-.12 1.07zM112.17 254.44a5 5 0 0 1 .23-1.52 4.25 4.25 0 0 1 .63-1.27 3 3 0 0 1 1-.87 2.87 2.87 0 0 1 2.64 0 3 3 0 0 1 1 .87 4.24 4.24 0 0 1 .63 1.27 5.09 5.09 0 0 1 .23 1.53 5 5 0 0 1-.23 1.52 4.29 4.29 0 0 1-.63 1.27 3 3 0 0 1-1 .87 2.86 2.86 0 0 1-2.64 0 3 3 0 0 1-1-.87 4.24 4.24 0 0 1-.63-1.27 5.1 5.1 0 0 1-.23-1.53zm.6 0a4.5 4.5 0 0 0 .19 1.29 3.91 3.91 0 0 0 .52 1.11 2.54 2.54 0 0 0 .83.77 2.15 2.15 0 0 0 2.15 0 2.49 2.49 0 0 0 .82-.77 3.93 3.93 0 0 0 .51-1.11 4.61 4.61 0 0 0 .18-1.3 4.53 4.53 0 0 0-.19-1.3 3.86 3.86 0 0 0-.52-1.11 2.56 2.56 0 0 0-.83-.77 2.1 2.1 0 0 0-1.08-.29 2.12 2.12 0 0 0-.88.19 2.21 2.21 0 0 0-.72.51 3.44 3.44 0 0 0-.53.76 3.81 3.81 0 0 0-.34.95 4.83 4.83 0 0 0-.11 1.07zM119.9 257.18l.41-.41a3.3 3.3 0 0 0 2.31 1.13 2.05 2.05 0 0 0 1.49-.56 1.86 1.86 0 0 0 .58-1.39 1.66 1.66 0 0 0-.59-1.31 2.25 2.25 0 0 0-1.52-.51 3.61 3.61 0 0 0-1.74.48l-.44-.29.22-3.73h4.32v.53h-3.83l-.19 2.9a3.86 3.86 0 0 1 1.71-.41 2.78 2.78 0 0 1 1.89.66 2.13 2.13 0 0 1 .76 1.69 2.3 2.3 0 0 1-.76 1.78 2.74 2.74 0 0 1-1.93.7 3.24 3.24 0 0 1-1.44-.35 4.55 4.55 0 0 1-1.25-.91zM126.64 254.44a5 5 0 0 1 .23-1.52 4.25 4.25 0 0 1 .63-1.27 3 3 0 0 1 1-.87 2.87 2.87 0 0 1 2.64 0 3 3 0 0 1 1 .87 4.24 4.24 0 0 1 .63 1.27 5.09 5.09 0 0 1 .23 1.53 5 5 0 0 1-.23 1.52 4.29 4.29 0 0 1-.63 1.27 3 3 0 0 1-1 .87 2.86 2.86 0 0 1-2.64 0 3 3 0 0 1-1-.87 4.24 4.24 0 0 1-.63-1.27 5.1 5.1 0 0 1-.23-1.53zm.6 0a4.5 4.5 0 0 0 .19 1.29 3.91 3.91 0 0 0 .52 1.11 2.54 2.54 0 0 0 .83.77 2.15 2.15 0 0 0 2.15 0 2.49 2.49 0 0 0 .82-.77 3.93 3.93 0 0 0 .51-1.11 4.61 4.61 0 0 0 .18-1.3 4.53 4.53 0 0 0-.19-1.3 3.86 3.86 0 0 0-.52-1.11 2.56 2.56 0 0 0-.83-.77 2.1 2.1 0 0 0-1.08-.29 2.12 2.12 0 0 0-.88.19 2.21 2.21 0 0 0-.72.51 3.44 3.44 0 0 0-.53.76 3.81 3.81 0 0 0-.34.95 4.83 4.83 0 0 0-.12 1.07zM132.68 204.56l1.76-.65h.44v7.76h-.55v-7.16l-1.49.51zM136.63 210.41l.44-.37a3 3 0 0 0 2.39 1.23 2 2 0 0 0 1.35-.48 1.58 1.58 0 0 0 .55-1.24 1.41 1.41 0 0 0-.66-1.24 3.07 3.07 0 0 0-1.73-.44h-.42l-.15-.32 2.65-3.06h-4V204h4.82v.4l-2.61 3a5 5 0 0 1 .78.11 3.48 3.48 0 0 1 .73.26 2.63 2.63 0 0 1 .63.42 1.79 1.79 0 0 1 .43.61 2 2 0 0 1 .16.81 2.05 2.05 0 0 1-.35 1.17 2.28 2.28 0 0 1-.92.8 2.8 2.8 0 0 1-1.24.28 3.46 3.46 0 0 1-1.62-.37 3.6 3.6 0 0 1-1.23-1.08zM146.56 211.67v-.42l2.88-2.6a8.26 8.26 0 0 0 1.33-1.45 2.16 2.16 0 0 0 .37-1.19 1.53 1.53 0 0 0-.51-1.19 1.76 1.76 0 0 0-1.22-.46 2.15 2.15 0 0 0-1.23.35 4 4 0 0 0-1 1.08l-.43-.29a5.73 5.73 0 0 1 .53-.69 3.4 3.4 0 0 1 .58-.51 2.35 2.35 0 0 1 .73-.34 3.44 3.44 0 0 1 .9-.11 2.28 2.28 0 0 1 1.63.61 2 2 0 0 1 .65 1.53 2.48 2.48 0 0 1-.11.74 2.55 2.55 0 0 1-.36.7 6 6 0 0 1-.58.71q-.33.35-.88.84l-2.36 2.14h4.36v.53zM153.25 207.82a5 5 0 0 1 .23-1.52 4.25 4.25 0 0 1 .63-1.27 3 3 0 0 1 1-.87 2.87 2.87 0 0 1 2.64 0 3 3 0 0 1 1 .87 4.24 4.24 0 0 1 .63 1.27 5.09 5.09 0 0 1 .23 1.53 5 5 0 0 1-.23 1.52 4.29 4.29 0 0 1-.63 1.27 3 3 0 0 1-1 .87 2.86 2.86 0 0 1-2.64 0 3 3 0 0 1-1-.87 4.24 4.24 0 0 1-.63-1.27 5.1 5.1 0 0 1-.23-1.53zm.6 0a4.5 4.5 0 0 0 .19 1.29 3.91 3.91 0 0 0 .52 1.11 2.54 2.54 0 0 0 .83.77 2.15 2.15 0 0 0 2.15 0 2.49 2.49 0 0 0 .82-.77 3.93 3.93 0 0 0 .51-1.11 4.61 4.61 0 0 0 .18-1.3 4.53 4.53 0 0 0-.19-1.3 3.86 3.86 0 0 0-.52-1.11 2.56 2.56 0 0 0-.83-.77 2.1 2.1 0 0 0-1.08-.29 2.12 2.12 0 0 0-.88.19 2.21 2.21 0 0 0-.72.51 3.44 3.44 0 0 0-.53.76 3.81 3.81 0 0 0-.34.95 4.83 4.83 0 0 0-.12 1.07zM161.06 207.82a5 5 0 0 1 .23-1.52 4.25 4.25 0 0 1 .63-1.27 3 3 0 0 1 1-.87 2.87 2.87 0 0 1 2.64 0 3 3 0 0 1 1 .87 4.24 4.24 0 0 1 .63 1.27 5.09 5.09 0 0 1 .23 1.53 5 5 0 0 1-.23 1.52 4.29 4.29 0 0 1-.63 1.27 3 3 0 0 1-1 .87 2.86 2.86 0 0 1-2.64 0 3 3 0 0 1-1-.87 4.24 4.24 0 0 1-.63-1.27 5.1 5.1 0 0 1-.23-1.53zm.6 0a4.5 4.5 0 0 0 .19 1.29 3.91 3.91 0 0 0 .52 1.11 2.54 2.54 0 0 0 .83.77 2.15 2.15 0 0 0 2.15 0 2.49 2.49 0 0 0 .82-.77 3.93 3.93 0 0 0 .51-1.11 4.61 4.61 0 0 0 .18-1.3 4.53 4.53 0 0 0-.19-1.3 3.86 3.86 0 0 0-.52-1.11 2.56 2.56 0 0 0-.83-.77 2.1 2.1 0 0 0-1.08-.29 2.12 2.12 0 0 0-.88.19 2.21 2.21 0 0 0-.72.51 3.44 3.44 0 0 0-.53.76 3.81 3.81 0 0 0-.34.95 4.83 4.83 0 0 0-.12 1.07zM196 159.06l1.76-.65h.44v7.76h-.55V159l-1.49.51zM200.08 160.92a2.47 2.47 0 0 1 .76-1.83 2.88 2.88 0 0 1 3.9 0 3.06 3.06 0 0 1 .72 1.19 5.71 5.71 0 0 1 .25 1.83 5.39 5.39 0 0 1-.41 2.15 3.53 3.53 0 0 1-1.12 1.49 2.63 2.63 0 0 1-1.6.53 2.92 2.92 0 0 1-1.22-.25 4.76 4.76 0 0 1-1.1-.71l.37-.44a3 3 0 0 0 2 .88 2.15 2.15 0 0 0 1.84-1 4.6 4.6 0 0 0 .71-2.67v-.26a2.61 2.61 0 0 1-2.4 1.48 2.75 2.75 0 0 1-1.91-.68 2.19 2.19 0 0 1-.79-1.71zm.6 0a1.73 1.73 0 0 0 .59 1.34 2.16 2.16 0 0 0 1.5.53 2.28 2.28 0 0 0 .89-.17 2 2 0 0 0 .68-.45 2.09 2.09 0 0 0 .42-.63 1.85 1.85 0 0 0-.47-2.12 2.23 2.23 0 0 0-1.57-.57 2.12 2.12 0 0 0-.85.17 1.85 1.85 0 0 0-.65.46 2.17 2.17 0 0 0-.55 1.44zM210.22 166.17v-.42l2.88-2.6a8.26 8.26 0 0 0 1.33-1.45 2.16 2.16 0 0 0 .37-1.19 1.53 1.53 0 0 0-.51-1.19 1.76 1.76 0 0 0-1.22-.46 2.15 2.15 0 0 0-1.23.35 4 4 0 0 0-1 1.08l-.43-.29a5.73 5.73 0 0 1 .53-.69 3.4 3.4 0 0 1 .58-.51 2.35 2.35 0 0 1 .73-.34 3.44 3.44 0 0 1 .9-.11 2.28 2.28 0 0 1 1.63.61 2 2 0 0 1 .65 1.53 2.48 2.48 0 0 1-.11.74 2.55 2.55 0 0 1-.36.7 6 6 0 0 1-.58.71q-.33.35-.88.84l-2.36 2.14h4.36v.53zM216.91 162.32a5 5 0 0 1 .23-1.52 4.25 4.25 0 0 1 .63-1.27 3 3 0 0 1 1-.87 2.87 2.87 0 0 1 2.64 0 3 3 0 0 1 1 .87 4.24 4.24 0 0 1 .63 1.27 5.09 5.09 0 0 1 .23 1.53 5 5 0 0 1-.23 1.52 4.29 4.29 0 0 1-.63 1.27 3 3 0 0 1-1 .87 2.86 2.86 0 0 1-2.64 0 3 3 0 0 1-1-.87 4.24 4.24 0 0 1-.63-1.27 5.1 5.1 0 0 1-.23-1.53zm.6 0a4.5 4.5 0 0 0 .19 1.29 3.91 3.91 0 0 0 .52 1.11 2.54 2.54 0 0 0 .83.77 2.15 2.15 0 0 0 2.15 0 2.49 2.49 0 0 0 .82-.77 3.93 3.93 0 0 0 .51-1.11 4.61 4.61 0 0 0 .18-1.3 4.53 4.53 0 0 0-.19-1.3 3.86 3.86 0 0 0-.52-1.11 2.56 2.56 0 0 0-.83-.77 2.1 2.1 0 0 0-1.08-.29 2.12 2.12 0 0 0-.88.19 2.21 2.21 0 0 0-.72.51 3.44 3.44 0 0 0-.53.76 3.81 3.81 0 0 0-.34.95 4.83 4.83 0 0 0-.11 1.07zM224.72 162.32a5 5 0 0 1 .23-1.52 4.25 4.25 0 0 1 .63-1.27 3 3 0 0 1 1-.87 2.87 2.87 0 0 1 2.64 0 3 3 0 0 1 1 .87 4.24 4.24 0 0 1 .63 1.27 5.09 5.09 0 0 1 .23 1.53 5 5 0 0 1-.23 1.52 4.29 4.29 0 0 1-.63 1.27 3 3 0 0 1-1 .87 2.86 2.86 0 0 1-2.64 0 3 3 0 0 1-1-.87 4.24 4.24 0 0 1-.63-1.27 5.1 5.1 0 0 1-.23-1.53zm.6 0a4.5 4.5 0 0 0 .19 1.29 3.91 3.91 0 0 0 .52 1.11 2.54 2.54 0 0 0 .83.77 2.15 2.15 0 0 0 2.15 0 2.49 2.49 0 0 0 .82-.77 3.93 3.93 0 0 0 .51-1.11 4.61 4.61 0 0 0 .18-1.3 4.53 4.53 0 0 0-.19-1.3 3.86 3.86 0 0 0-.52-1.11 2.56 2.56 0 0 0-.83-.77 2.1 2.1 0 0 0-1.08-.29 2.12 2.12 0 0 0-.88.19 2.21 2.21 0 0 0-.72.51 3.44 3.44 0 0 0-.53.76 3.81 3.81 0 0 0-.34.95 4.83 4.83 0 0 0-.11 1.07zM93.1 118.21v-.42l2.88-2.6a8.26 8.26 0 0 0 1.33-1.45 2.16 2.16 0 0 0 .37-1.19 1.53 1.53 0 0 0-.51-1.19 1.76 1.76 0 0 0-1.17-.46 2.15 2.15 0 0 0-1.23.35 4 4 0 0 0-1 1.08l-.43-.29a5.73 5.73 0 0 1 .53-.69 3.4 3.4 0 0 1 .58-.51 2.35 2.35 0 0 1 .73-.34 3.44 3.44 0 0 1 .9-.11 2.28 2.28 0 0 1 1.63.61 2 2 0 0 1 .65 1.53 2.48 2.48 0 0 1-.11.74 2.55 2.55 0 0 1-.36.7 6 6 0 0 1-.58.71q-.33.35-.88.84L94 117.68h4.36v.53zM99.7 117.1l.41-.41a3.3 3.3 0 0 0 2.31 1.13 2.05 2.05 0 0 0 1.49-.56 1.86 1.86 0 0 0 .58-1.39 1.66 1.66 0 0 0-.59-1.31 2.25 2.25 0 0 0-1.52-.51 3.61 3.61 0 0 0-1.74.48l-.44-.29.22-3.73h4.32v.49h-3.83l-.19 2.9a3.86 3.86 0 0 1 1.71-.41 2.78 2.78 0 0 1 1.89.66 2.13 2.13 0 0 1 .76 1.69 2.3 2.3 0 0 1-.76 1.78 2.74 2.74 0 0 1-1.93.7 3.24 3.24 0 0 1-1.44-.35 4.55 4.55 0 0 1-1.25-.87zM109.62 117l.44-.37a3 3 0 0 0 2.39 1.23 2 2 0 0 0 1.35-.48 1.58 1.58 0 0 0 .55-1.24 1.41 1.41 0 0 0-.66-1.24 3.07 3.07 0 0 0-1.73-.44h-.42l-.15-.32 2.65-3.06h-4v-.53h4.82v.4l-2.61 3a5 5 0 0 1 .78.11 3.48 3.48 0 0 1 .73.26 2.63 2.63 0 0 1 .63.42 1.79 1.79 0 0 1 .43.61 2 2 0 0 1 .16.81 2.05 2.05 0 0 1-.35 1.17 2.28 2.28 0 0 1-.92.8 2.8 2.8 0 0 1-1.24.28 3.46 3.46 0 0 1-1.62-.37 3.6 3.6 0 0 1-1.23-1.04zM116.45 114.36a5 5 0 0 1 .23-1.52 4.25 4.25 0 0 1 .63-1.27 3 3 0 0 1 1-.87 2.87 2.87 0 0 1 2.64 0 3 3 0 0 1 1 .87 4.24 4.24 0 0 1 .63 1.27 5.09 5.09 0 0 1 .23 1.53 5 5 0 0 1-.23 1.52 4.29 4.29 0 0 1-.63 1.27 3 3 0 0 1-1 .87 2.86 2.86 0 0 1-2.64 0 3 3 0 0 1-1-.87 4.24 4.24 0 0 1-.63-1.27 5.1 5.1 0 0 1-.23-1.53zm.6 0a4.5 4.5 0 0 0 .19 1.29 3.91 3.91 0 0 0 .52 1.11 2.54 2.54 0 0 0 .83.77 2.15 2.15 0 0 0 2.15 0 2.49 2.49 0 0 0 .82-.77 3.93 3.93 0 0 0 .51-1.11 4.61 4.61 0 0 0 .18-1.3 4.53 4.53 0 0 0-.19-1.3 3.86 3.86 0 0 0-.52-1.11 2.56 2.56 0 0 0-.83-.77 2.1 2.1 0 0 0-1.08-.29 2.12 2.12 0 0 0-.88.19 2.21 2.21 0 0 0-.72.51 3.44 3.44 0 0 0-.53.76 3.81 3.81 0 0 0-.34.95 4.83 4.83 0 0 0-.16 1.07zM124.26 114.36a5 5 0 0 1 .23-1.52 4.25 4.25 0 0 1 .63-1.27 3 3 0 0 1 1-.87 2.87 2.87 0 0 1 2.64 0 3 3 0 0 1 1 .87 4.24 4.24 0 0 1 .63 1.27 5.09 5.09 0 0 1 .23 1.53 5 5 0 0 1-.23 1.52 4.29 4.29 0 0 1-.63 1.27 3 3 0 0 1-1 .87 2.86 2.86 0 0 1-2.64 0 3 3 0 0 1-1-.87 4.24 4.24 0 0 1-.63-1.27 5.1 5.1 0 0 1-.23-1.53zm.6 0a4.5 4.5 0 0 0 .19 1.29 3.91 3.91 0 0 0 .52 1.11 2.54 2.54 0 0 0 .83.77 2.15 2.15 0 0 0 2.15 0 2.49 2.49 0 0 0 .82-.77 3.93 3.93 0 0 0 .51-1.11 4.61 4.61 0 0 0 .18-1.3 4.53 4.53 0 0 0-.19-1.3 3.86 3.86 0 0 0-.52-1.11 2.56 2.56 0 0 0-.83-.77 2.1 2.1 0 0 0-1.08-.29 2.12 2.12 0 0 0-.88.19 2.21 2.21 0 0 0-.72.51 3.44 3.44 0 0 0-.53.76 3.81 3.81 0 0 0-.34.95 4.83 4.83 0 0 0-.12 1.07zM129.31 70.46l.44-.37a3 3 0 0 0 2.39 1.23 2 2 0 0 0 1.35-.48 1.58 1.58 0 0 0 .51-1.24 1.41 1.41 0 0 0-.66-1.24 3.07 3.07 0 0 0-1.73-.44h-.42l-.15-.32 2.65-3.06h-4V64h4.82v.4l-2.61 3a5 5 0 0 1 .78.11 3.48 3.48 0 0 1 .73.26 2.63 2.63 0 0 1 .63.42 1.79 1.79 0 0 1 .43.61 2 2 0 0 1 .16.81 2.05 2.05 0 0 1-.35 1.17 2.28 2.28 0 0 1-.92.8 2.8 2.8 0 0 1-1.24.28 3.46 3.46 0 0 1-1.62-.37 3.6 3.6 0 0 1-1.19-1.03zM135.75 64.6l1.76-.65h.44v7.76h-.55v-7.16l-1.49.51zM143 70.6l.41-.41a3.3 3.3 0 0 0 2.31 1.13 2.05 2.05 0 0 0 1.49-.56 1.86 1.86 0 0 0 .58-1.39 1.66 1.66 0 0 0-.59-1.31 2.25 2.25 0 0 0-1.52-.51A3.61 3.61 0 0 0 144 68l-.44-.29.22-3.73h4.32v.53h-3.83l-.19 2.9a3.86 3.86 0 0 1 1.71-.41 2.78 2.78 0 0 1 1.89.66 2.13 2.13 0 0 1 .76 1.69 2.3 2.3 0 0 1-.76 1.78 2.74 2.74 0 0 1-1.93.7 3.24 3.24 0 0 1-1.44-.35 4.55 4.55 0 0 1-1.31-.88zM149.77 67.86a5 5 0 0 1 .23-1.52 4.25 4.25 0 0 1 .63-1.27 3 3 0 0 1 1-.87 2.87 2.87 0 0 1 2.64 0 3 3 0 0 1 1 .87 4.24 4.24 0 0 1 .63 1.27 5.09 5.09 0 0 1 .23 1.53 5 5 0 0 1-.23 1.52 4.29 4.29 0 0 1-.63 1.27 3 3 0 0 1-1 .87 2.86 2.86 0 0 1-2.64 0 3 3 0 0 1-1-.87 4.24 4.24 0 0 1-.63-1.27 5.1 5.1 0 0 1-.23-1.53zm.6 0a4.5 4.5 0 0 0 .19 1.29 3.91 3.91 0 0 0 .52 1.11 2.54 2.54 0 0 0 .83.77A2.15 2.15 0 0 0 154 71a2.49 2.49 0 0 0 .82-.77 3.93 3.93 0 0 0 .51-1.11 4.61 4.61 0 0 0 .18-1.3 4.53 4.53 0 0 0-.19-1.3 3.86 3.86 0 0 0-.52-1.11 2.56 2.56 0 0 0-.83-.77 2.1 2.1 0 0 0-1.08-.29 2.12 2.12 0 0 0-.88.19 2.21 2.21 0 0 0-.72.51 3.44 3.44 0 0 0-.53.76 3.81 3.81 0 0 0-.34.95 4.83 4.83 0 0 0-.05 1.1zM157.58 67.86a5 5 0 0 1 .23-1.52 4.25 4.25 0 0 1 .63-1.27 3 3 0 0 1 1-.87 2.87 2.87 0 0 1 2.64 0 3 3 0 0 1 1 .87 4.24 4.24 0 0 1 .63 1.27 5.09 5.09 0 0 1 .23 1.53 5 5 0 0 1-.23 1.52 4.29 4.29 0 0 1-.63 1.27 3 3 0 0 1-1 .87 2.86 2.86 0 0 1-2.64 0 3 3 0 0 1-1-.87 4.24 4.24 0 0 1-.63-1.27 5.1 5.1 0 0 1-.23-1.53zm.6 0a4.5 4.5 0 0 0 .19 1.29 3.91 3.91 0 0 0 .52 1.11 2.54 2.54 0 0 0 .83.77 2.15 2.15 0 0 0 2.15 0 2.49 2.49 0 0 0 .82-.77 3.93 3.93 0 0 0 .51-1.11 4.61 4.61 0 0 0 .18-1.3 4.53 4.53 0 0 0-.19-1.3 3.86 3.86 0 0 0-.52-1.11 2.56 2.56 0 0 0-.83-.77 2.1 2.1 0 0 0-1.08-.29 2.12 2.12 0 0 0-.88.19 2.21 2.21 0 0 0-.72.51 3.44 3.44 0 0 0-.53.76 3.81 3.81 0 0 0-.34.95 4.83 4.83 0 0 0-.11 1.07zM156.64 24.46l.44-.37a3 3 0 0 0 2.39 1.23 2 2 0 0 0 1.35-.48 1.58 1.58 0 0 0 .55-1.24 1.41 1.41 0 0 0-.66-1.24 3.07 3.07 0 0 0-1.73-.44h-.42l-.15-.32 2.65-3.06h-4V18h4.82v.4l-2.61 3a5 5 0 0 1 .78.11 3.48 3.48 0 0 1 .73.26 2.63 2.63 0 0 1 .63.42 1.79 1.79 0 0 1 .43.61 2 2 0 0 1 .16.81 2.05 2.05 0 0 1-.35 1.17 2.28 2.28 0 0 1-.92.8 2.8 2.8 0 0 1-1.24.28 3.46 3.46 0 0 1-1.62-.37 3.6 3.6 0 0 1-1.23-1.03zM163.22 18.54V18h5.11v.4l-3.51 7.3h-.63l3.5-7.17zM172.95 21.86a5 5 0 0 1 .23-1.52 4.25 4.25 0 0 1 .63-1.27 3 3 0 0 1 1-.87 2.87 2.87 0 0 1 2.64 0 3 3 0 0 1 1 .87 4.24 4.24 0 0 1 .63 1.27 5.09 5.09 0 0 1 .23 1.53 5 5 0 0 1-.23 1.52 4.29 4.29 0 0 1-.63 1.27 3 3 0 0 1-1 .87 2.86 2.86 0 0 1-2.64 0 3 3 0 0 1-1-.87 4.24 4.24 0 0 1-.63-1.27 5.1 5.1 0 0 1-.23-1.53zm.6 0a4.5 4.5 0 0 0 .19 1.29 3.91 3.91 0 0 0 .52 1.11 2.54 2.54 0 0 0 .83.77 2.15 2.15 0 0 0 2.15 0 2.49 2.49 0 0 0 .82-.77 3.93 3.93 0 0 0 .51-1.11 4.61 4.61 0 0 0 .18-1.3 4.53 4.53 0 0 0-.19-1.3 3.86 3.86 0 0 0-.52-1.11 2.56 2.56 0 0 0-.83-.77 2.1 2.1 0 0 0-1.08-.29 2.12 2.12 0 0 0-.88.19 2.21 2.21 0 0 0-.72.51 3.44 3.44 0 0 0-.53.76 3.81 3.81 0 0 0-.34.95 4.83 4.83 0 0 0-.12 1.07zM180.76 21.86a5 5 0 0 1 .23-1.52 4.25 4.25 0 0 1 .63-1.27 3 3 0 0 1 1-.87 2.87 2.87 0 0 1 2.64 0 3 3 0 0 1 1 .87 4.24 4.24 0 0 1 .63 1.27 5.09 5.09 0 0 1 .23 1.53 5 5 0 0 1-.23 1.52 4.29 4.29 0 0 1-.63 1.27 3 3 0 0 1-1 .87 2.86 2.86 0 0 1-2.64 0 3 3 0 0 1-1-.87 4.24 4.24 0 0 1-.63-1.27 5.1 5.1 0 0 1-.23-1.53zm.6 0a4.5 4.5 0 0 0 .19 1.29 3.91 3.91 0 0 0 .52 1.11 2.54 2.54 0 0 0 .83.77A2.15 2.15 0 0 0 185 25a2.49 2.49 0 0 0 .82-.77 3.93 3.93 0 0 0 .51-1.11 4.61 4.61 0 0 0 .18-1.3 4.53 4.53 0 0 0-.19-1.3 3.86 3.86 0 0 0-.52-1.11 2.56 2.56 0 0 0-.83-.77 2.1 2.1 0 0 0-1.08-.29 2.12 2.12 0 0 0-.88.19 2.21 2.21 0 0 0-.72.51 3.44 3.44 0 0 0-.53.76 3.81 3.81 0 0 0-.34.95 4.83 4.83 0 0 0-.07 1.1zM188.57 21.86a5 5 0 0 1 .23-1.52 4.25 4.25 0 0 1 .63-1.27 3 3 0 0 1 1-.87 2.87 2.87 0 0 1 2.64 0 3 3 0 0 1 1 .87 4.24 4.24 0 0 1 .63 1.27 5.09 5.09 0 0 1 .23 1.53 5 5 0 0 1-.23 1.52 4.29 4.29 0 0 1-.63 1.27 3 3 0 0 1-1 .87 2.86 2.86 0 0 1-2.64 0 3 3 0 0 1-1-.87 4.24 4.24 0 0 1-.63-1.27 5.1 5.1 0 0 1-.23-1.53zm.6 0a4.5 4.5 0 0 0 .19 1.29 3.91 3.91 0 0 0 .52 1.11 2.55 2.55 0 0 0 .83.77 2.15 2.15 0 0 0 2.15 0 2.49 2.49 0 0 0 .82-.77 3.93 3.93 0 0 0 .51-1.11 4.61 4.61 0 0 0 .18-1.3 4.53 4.53 0 0 0-.19-1.3 3.86 3.86 0 0 0-.52-1.11 2.56 2.56 0 0 0-.83-.77 2.1 2.1 0 0 0-1.08-.29 2.12 2.12 0 0 0-.88.19 2.21 2.21 0 0 0-.72.51 3.44 3.44 0 0 0-.53.76 3.81 3.81 0 0 0-.34.95 4.83 4.83 0 0 0-.12 1.07z" transform="translate(-.3)"/><path class="cls-4" d="M4 343.46l1.6-.59H6v7.05h-.5v-6.51l-1.35.46zM7.4 343.46l1.6-.59h.4v7.05h-.5v-6.51l-1.35.46zM140.3 428.92v-.38l2.62-2.36a7.55 7.55 0 0 0 1.21-1.32 2 2 0 0 0 .34-1.08 1.39 1.39 0 0 0-.46-1.08 1.6 1.6 0 0 0-1.11-.42 2 2 0 0 0-1.12.32 3.67 3.67 0 0 0-.93 1l-.39-.26a5.31 5.31 0 0 1 .48-.63 3.1 3.1 0 0 1 .53-.46 2.1 2.1 0 0 1 .66-.31 3.08 3.08 0 0 1 .82-.1 2.07 2.07 0 0 1 1.48.56 1.83 1.83 0 0 1 .59 1.39 2.29 2.29 0 0 1-.09.67 2.35 2.35 0 0 1-.33.64 5.42 5.42 0 0 1-.53.65q-.3.32-.8.77l-2.14 1.95h4v.48zM146.2 428.92v-.38l2.62-2.36a7.55 7.55 0 0 0 1.21-1.32 2 2 0 0 0 .34-1.08 1.39 1.39 0 0 0-.46-1.08 1.6 1.6 0 0 0-1.11-.42 2 2 0 0 0-1.12.32 3.67 3.67 0 0 0-.93 1l-.39-.26a5.31 5.31 0 0 1 .48-.63 3.1 3.1 0 0 1 .53-.46 2.1 2.1 0 0 1 .66-.31 3.08 3.08 0 0 1 .82-.1 2.07 2.07 0 0 1 1.48.56 1.83 1.83 0 0 1 .59 1.39 2.29 2.29 0 0 1-.09.67 2.35 2.35 0 0 1-.33.64 5.42 5.42 0 0 1-.53.65q-.3.32-.8.77l-2.17 1.91h4v.48zM1.5 297.21l1.6-.59h.4v7.05H3v-6.51l-1.35.46zM5 303.67v-.38l2.62-2.36a7.55 7.55 0 0 0 1.21-1.32 2 2 0 0 0 .34-1.08 1.39 1.39 0 0 0-.46-1.08 1.6 1.6 0 0 0-1.1-.45 2 2 0 0 0-1.12.32 3.67 3.67 0 0 0-.93 1l-.39-.26a5.31 5.31 0 0 1 .48-.63 3.1 3.1 0 0 1 .53-.46 2.1 2.1 0 0 1 .66-.31 3.08 3.08 0 0 1 .82-.1 2.07 2.07 0 0 1 1.48.56 1.83 1.83 0 0 1 .59 1.39 2.29 2.29 0 0 1-.09.67 2.35 2.35 0 0 1-.33.64 5.42 5.42 0 0 1-.53.65q-.3.32-.8.77l-2.14 1.95h4v.48zM184.64 428.92v-.38l2.62-2.36a7.55 7.55 0 0 0 1.21-1.32 2 2 0 0 0 .34-1.08 1.39 1.39 0 0 0-.46-1.08 1.6 1.6 0 0 0-1.11-.42 2 2 0 0 0-1.12.32 3.67 3.67 0 0 0-.93 1l-.39-.26a5.31 5.31 0 0 1 .48-.63 3.1 3.1 0 0 1 .53-.46 2.1 2.1 0 0 1 .66-.31 3.08 3.08 0 0 1 .82-.1 2.07 2.07 0 0 1 1.48.56 1.83 1.83 0 0 1 .59 1.39 2.29 2.29 0 0 1-.09.67 2.35 2.35 0 0 1-.33.64 5.42 5.42 0 0 1-.53.65q-.3.32-.8.77l-2.14 1.95h4v.48zM190.62 427a1.49 1.49 0 0 1 .43-1 2.61 2.61 0 0 1 1.12-.68 2.49 2.49 0 0 1-.94-.65 1.46 1.46 0 0 1-.37-1 1.49 1.49 0 0 1 .34-1 2.18 2.18 0 0 1 .87-.65 3 3 0 0 1 2.29 0 2.19 2.19 0 0 1 .87.66 1.52 1.52 0 0 1 .34 1 1.43 1.43 0 0 1-.37 1 2.52 2.52 0 0 1-.94.64 2.6 2.6 0 0 1 1.12.68 1.51 1.51 0 0 1 .43 1.06 1.65 1.65 0 0 1-.34 1 2.23 2.23 0 0 1-.94.7 3.42 3.42 0 0 1-1.32.25 3 3 0 0 1-1.86-.56 1.71 1.71 0 0 1-.73-1.45zm.54 0a1.28 1.28 0 0 0 .56 1 2.41 2.41 0 0 0 1.5.43 2.38 2.38 0 0 0 1.5-.43 1.31 1.31 0 0 0 .56-1.06 1.27 1.27 0 0 0-.6-1.07 2.71 2.71 0 0 0-2.92 0 1.29 1.29 0 0 0-.61 1.2zm.24-3.4a1.25 1.25 0 0 0 .53 1 2.26 2.26 0 0 0 2.58 0 1.27 1.27 0 0 0 .53-1.05 1.17 1.17 0 0 0-.53-1 2.13 2.13 0 0 0-1.3-.39 2.11 2.11 0 0 0-1.3.39 1.19 1.19 0 0 0-.52 1.12zM1.3 251l1.6-.59h.4v7.05h-.5v-6.51l-1.35.46zM4.89 256.28l.4-.33a2.69 2.69 0 0 0 2.18 1.12 1.79 1.79 0 0 0 1.23-.44 1.44 1.44 0 0 0 .5-1.13 1.28 1.28 0 0 0-.6-1.12A2.78 2.78 0 0 0 7 254h-.36l-.13-.29 2.41-2.78H5.25v-.48h4.38v.36l-2.37 2.71a4.57 4.57 0 0 1 .71.1 3.2 3.2 0 0 1 .67.24 2.36 2.36 0 0 1 .57.38 1.59 1.59 0 0 1 .39.55 1.8 1.8 0 0 1 .15.73 1.87 1.87 0 0 1-.32 1.07 2.09 2.09 0 0 1-.84.73 2.55 2.55 0 0 1-1.13.25A3.14 3.14 0 0 1 6 257.2a3.27 3.27 0 0 1-1.11-.92zM227 427.78l.4-.33a2.69 2.69 0 0 0 2.18 1.12 1.79 1.79 0 0 0 1.23-.44 1.44 1.44 0 0 0 .5-1.13 1.28 1.28 0 0 0-.6-1.12 2.79 2.79 0 0 0-1.58-.4h-.38l-.13-.29 2.41-2.78h-3.63v-.48h4.38v.36l-2.37 2.71a4.56 4.56 0 0 1 .71.1 3.2 3.2 0 0 1 .67.24 2.39 2.39 0 0 1 .57.38 1.61 1.61 0 0 1 .39.55 1.8 1.8 0 0 1 .15.73 1.87 1.87 0 0 1-.32 1.07 2.08 2.08 0 0 1-.84.73 2.55 2.55 0 0 1-1.13.25 3.14 3.14 0 0 1-1.47-.34 3.28 3.28 0 0 1-1.14-.93zM233.08 426.82l4-5h.47v4.89h1.14v.45h-1.14v1.71H237v-1.71h-3.79zm.63-.06H237v-4.14zM.76 204.71l1.6-.59h.4v7.05h-.5v-6.51l-1.35.46zM4.29 209.07l4-5h.47V209H9.9v.45H8.76v1.71h-.5v-1.71H4.47zm.63-.06h3.34v-4.14zM270.81 426.82l4-5h.47v4.89h1.14v.45h-1.14v1.71h-.5v-1.71H271zm.63-.06h3.34v-4.14zM277.62 425.42a4.55 4.55 0 0 1 .21-1.38 3.85 3.85 0 0 1 .58-1.15 2.74 2.74 0 0 1 .92-.79 2.61 2.61 0 0 1 2.4 0 2.67 2.67 0 0 1 .92.79 3.87 3.87 0 0 1 .57 1.15 4.64 4.64 0 0 1 .21 1.39 4.55 4.55 0 0 1-.21 1.38 3.87 3.87 0 0 1-.58 1.15 2.72 2.72 0 0 1-.92.79 2.6 2.6 0 0 1-2.4 0 2.7 2.7 0 0 1-.92-.79 3.87 3.87 0 0 1-.57-1.15 4.64 4.64 0 0 1-.21-1.39zm.54 0a4.14 4.14 0 0 0 .17 1.18 3.63 3.63 0 0 0 .47 1 2.33 2.33 0 0 0 .75.7 2 2 0 0 0 2 0 2.26 2.26 0 0 0 .75-.7 3.59 3.59 0 0 0 .46-1 4.22 4.22 0 0 0 .17-1.18 4.16 4.16 0 0 0-.17-1.18 3.57 3.57 0 0 0-.47-1 2.33 2.33 0 0 0-.75-.7 1.91 1.91 0 0 0-1-.26 2 2 0 0 0-.8.17 2 2 0 0 0-.65.47 3.09 3.09 0 0 0-.48.69 3.49 3.49 0 0 0-.31.86 4.46 4.46 0 0 0-.14.95zM1.35 158.46l1.6-.59h.4v7.05h-.5v-6.51l-1.35.46zM5 163.91l.37-.37a3 3 0 0 0 2.1 1 1.87 1.87 0 0 0 1.35-.51 1.69 1.69 0 0 0 .53-1.27 1.5 1.5 0 0 0-.54-1.19 2 2 0 0 0-1.38-.47 3.29 3.29 0 0 0-1.58.44l-.4-.26.2-3.39h3.9v.48H6.07L5.9 161a3.51 3.51 0 0 1 1.56-.38 2.52 2.52 0 0 1 1.71.6 1.94 1.94 0 0 1 .69 1.53 2.1 2.1 0 0 1-.69 1.62 2.49 2.49 0 0 1-1.75.63 2.93 2.93 0 0 1-1.31-.32 4.11 4.11 0 0 1-1.11-.77zM314.15 426.82l4-5h.47v4.89h1.14v.45h-1.14v1.71h-.5v-1.71h-3.79zm.63-.06h3.34v-4.14zM321.16 427.26a5.23 5.23 0 0 1-.21-1.67 5.07 5.07 0 0 1 .35-1.91 3.2 3.2 0 0 1 1-1.37 2.38 2.38 0 0 1 1.5-.51 2.63 2.63 0 0 1 1 .21 4.21 4.21 0 0 1 1 .61l-.33.4a3.46 3.46 0 0 0-.84-.56 2.14 2.14 0 0 0-.89-.19 1.91 1.91 0 0 0-1.66 1 4.49 4.49 0 0 0-.63 2.5v.17a2.42 2.42 0 0 1 2.19-1.3 2.67 2.67 0 0 1 1.18.27 2.22 2.22 0 0 1 .89.76 1.93 1.93 0 0 1 .34 1.11 2.21 2.21 0 0 1-.32 1.18 2.25 2.25 0 0 1-.88.83 2.72 2.72 0 0 1-2.24.11 2.36 2.36 0 0 1-.79-.51 2.81 2.81 0 0 1-.66-1.13zm.52-.45a1.61 1.61 0 0 0 .57 1.25 2 2 0 0 0 1.41.5A1.81 1.81 0 0 0 325 428a1.77 1.77 0 0 0 .52-1.3 1.55 1.55 0 0 0-.54-1.21 2 2 0 0 0-1.36-.48 2.06 2.06 0 0 0-.79.15 1.92 1.92 0 0 0-.62.4 1.84 1.84 0 0 0-.4.56 1.55 1.55 0 0 0-.13.69zM1 112.21l1.6-.59H3v7.05h-.5v-6.51l-1.35.46zM4.89 117a5.23 5.23 0 0 1-.21-1.67 5.07 5.07 0 0 1 .32-1.91 3.2 3.2 0 0 1 1-1.37 2.38 2.38 0 0 1 1.5-.51 2.63 2.63 0 0 1 1 .21 4.21 4.21 0 0 1 1 .61l-.33.4a3.46 3.46 0 0 0-.84-.56 2.14 2.14 0 0 0-.89-.19 1.91 1.91 0 0 0-1.66 1 4.49 4.49 0 0 0-.63 2.5v.17a2.42 2.42 0 0 1 2.19-1.3 2.67 2.67 0 0 1 1.18.27 2.22 2.22 0 0 1 .89.76 1.93 1.93 0 0 1 .34 1.11 2.21 2.21 0 0 1-.32 1.18 2.25 2.25 0 0 1-.88.83 2.72 2.72 0 0 1-2.24.11 2.36 2.36 0 0 1-.79-.51 2.81 2.81 0 0 1-.63-1.13zm.52-.45a1.61 1.61 0 0 0 .59 1.26 2 2 0 0 0 1.41.5 1.81 1.81 0 0 0 1.35-.53 1.77 1.77 0 0 0 .52-1.3 1.55 1.55 0 0 0-.54-1.21 2 2 0 0 0-1.36-.48 2.06 2.06 0 0 0-.79.15 1.92 1.92 0 0 0-.62.4 1.84 1.84 0 0 0-.4.56 1.55 1.55 0 0 0-.16.66zM352.78 427.91l.37-.37a3 3 0 0 0 2.1 1 1.87 1.87 0 0 0 1.35-.51 1.69 1.69 0 0 0 .53-1.27 1.5 1.5 0 0 0-.54-1.19 2 2 0 0 0-1.38-.47 3.29 3.29 0 0 0-1.58.44l-.4-.26.2-3.39h3.93v.48h-3.48l-.17 2.64a3.51 3.51 0 0 1 1.56-.38 2.52 2.52 0 0 1 1.71.6 1.94 1.94 0 0 1 .69 1.53 2.1 2.1 0 0 1-.69 1.62 2.49 2.49 0 0 1-1.75.63 2.93 2.93 0 0 1-1.31-.32 4.11 4.11 0 0 1-1.14-.78zM358.63 428.92v-.38l2.62-2.36a7.55 7.55 0 0 0 1.21-1.32 2 2 0 0 0 .34-1.08 1.39 1.39 0 0 0-.46-1.08 1.6 1.6 0 0 0-1.11-.42 2 2 0 0 0-1.12.32 3.67 3.67 0 0 0-.93 1l-.39-.26a5.31 5.31 0 0 1 .48-.63 3.1 3.1 0 0 1 .53-.46 2.1 2.1 0 0 1 .66-.31 3.08 3.08 0 0 1 .82-.1 2.07 2.07 0 0 1 1.48.56 1.83 1.83 0 0 1 .59 1.39 2.29 2.29 0 0 1-.09.67 2.35 2.35 0 0 1-.33.64 5.42 5.42 0 0 1-.53.65q-.3.32-.8.77l-2.14 1.95h4v.48zM1.53 66l1.6-.59h.4v7.05H3v-6.55l-1.35.46zM5.26 65.9v-.48H9.9v.37l-3.19 6.63h-.57l3.18-6.52zM1.1 19.71l1.6-.59h.4v7.05h-.5v-6.51l-1.35.46zM4.7 24.28a1.49 1.49 0 0 1 .43-1 2.61 2.61 0 0 1 1.12-.68 2.49 2.49 0 0 1-.94-.65 1.46 1.46 0 0 1-.37-1 1.49 1.49 0 0 1 .34-1 2.18 2.18 0 0 1 .87-.65 3 3 0 0 1 2.29 0 2.19 2.19 0 0 1 .87.66 1.52 1.52 0 0 1 .34 1 1.43 1.43 0 0 1-.37 1 2.52 2.52 0 0 1-.94.64 2.6 2.6 0 0 1 1.12.68 1.51 1.51 0 0 1 .44 1.02 1.65 1.65 0 0 1-.34 1 2.23 2.23 0 0 1-.94.7 3.42 3.42 0 0 1-1.32.25 3 3 0 0 1-1.86-.56 1.71 1.71 0 0 1-.74-1.41zm.54 0a1.28 1.28 0 0 0 .56 1 2.41 2.41 0 0 0 1.5.43 2.38 2.38 0 0 0 1.5-.43 1.31 1.31 0 0 0 .56-1.06 1.27 1.27 0 0 0-.6-1.07 2.45 2.45 0 0 0-1.46-.35 2.44 2.44 0 0 0-1.46.43 1.29 1.29 0 0 0-.6 1.09zm.24-3.4A1.25 1.25 0 0 0 6 22a2.06 2.06 0 0 0 1.29.41A2.05 2.05 0 0 0 8.58 22a1.27 1.27 0 0 0 .53-1.05 1.17 1.17 0 0 0-.53-1 2.13 2.13 0 0 0-1.3-.39 2.11 2.11 0 0 0-1.3.39 1.19 1.19 0 0 0-.5.97z" transform="translate(-.3)"/><circle class="cls-5" cx="26.4" cy="346.25" r="2.39"/><circle class="cls-6" cx="40.41" cy="346.25" r="2.39"/><circle class="cls-7" cx="54.41" cy="346.25" r="2.39"/><circle class="cls-8" cx="68.41" cy="346.25" r="2.39"/><circle class="cls-5" cx="38.23" cy="300.54" r="2.39"/><circle class="cls-6" cx="51.81" cy="300.54" r="2.38"/><circle class="cls-7" cx="65.97" cy="300.54" r="2.38"/><circle class="cls-8" cx="80.14" cy="300.47" r="2.38"/><path class="cls-3" d="M42.01 247.36h41.92v14.93H42.01z"/><circle class="cls-5" cx="42.04" cy="254.83" r="2.39"/><circle class="cls-6" cx="55.64" cy="254.83" r="2.38"/><circle class="cls-7" cx="69.81" cy="254.83" r="2.38"/><circle class="cls-8" cx="83.97" cy="254.77" r="2.38"/><circle class="cls-5" cx="65.58" cy="207.84" r="2.39"/><circle class="cls-6" cx="83.56" cy="207.84" r="2.39"/><circle class="cls-7" cx="101.53" cy="207.84" r="2.39"/><circle class="cls-8" cx="119.51" cy="207.84" r="2.39"/><circle class="cls-5" cx="97.23" cy="162.52" r="2.39"/><circle class="cls-6" cx="125.88" cy="162.52" r="2.39"/><circle class="cls-7" cx="154.53" cy="162.52" r="2.39"/><circle class="cls-8" cx="183.18" cy="162.52" r="2.39"/><circle class="cls-5" cx="135.91" cy="115.42" r="2.39"/><circle class="cls-6" cx="169.9" cy="115.42" r="2.39"/><circle class="cls-7" cx="203.9" cy="115.42" r="2.39"/><circle class="cls-8" cx="237.89" cy="115.42" r="2.39"/><circle class="cls-5" cx="169.66" cy="69" r="2.39"/><circle class="cls-6" cx="216.08" cy="69" r="2.39"/><circle class="cls-7" cx="262.51" cy="69" r="2.39"/><circle class="cls-8" cx="308.93" cy="69" r="2.39"/><circle class="cls-5" cx="199.86" cy="22.9" r="2.39"/><circle class="cls-6" cx="252.66" cy="22.9" r="2.39"/><circle class="cls-7" cx="305.45" cy="22.9" r="2.39"/><circle class="cls-8" cx="358.25" cy="22.9" r="2.39"/><circle class="cls-5" cx="26.66" cy="391.93" r="2.39"/><circle class="cls-6" cx="36" cy="391.93" r="2.39"/><circle class="cls-7" cx="45.34" cy="391.93" r="2.39"/><circle class="cls-8" cx="54.68" cy="391.93" r="2.39"/></g></g></svg>