<svg xmlns="http://www.w3.org/2000/svg" viewBox="0 0 364.91 429.04"><defs><style>.cls-1,.cls-2,.cls-3{fill:none}.cls-1{stroke:#888;stroke-width:.25px}.cls-2{stroke:#0071bb;stroke-width:1.16px}.cls-3{stroke:#929497;stroke-width:.58px;stroke-dasharray:1.16}.cls-4{fill:#fff;stroke:#5b5b5b;stroke-miterlimit:10;stroke-width:.25px}.cls-5{fill:#888}.cls-6{fill:#4687e0}.cls-7{fill:#f4b162}.cls-8{fill:#7b76c6}.cls-9{fill:#53dad3}</style></defs><title>dahu_01-09_1</title><g id="Слой_2" data-name="Слой 2"><g id="Layer_1" data-name="Layer 1"><path class="cls-1" d="M364.92 415.56V0m-303 415.44V0M18.1 369.36h346.8m-347-45.86h347m-347-46H365m-347-47h347M18 184.67h346.95M17.9 92.15h347.05M17.9 45.89h347M17.9.14h347.05m-173 415.36V0m43 415.5V0m44 415.5V0m43 415.56V0M148.34 415.53V.09m-43.27 415.44V.13M17.89 138.5h347M17.92 0v415.5h347" transform="translate(-.65)"/><path class="cls-4" d="M57.77 384.43h28v15h-28zM70.27 339h42v15h-42zM84.27 293.04h53v15h-53zM103.77 245.63h67v15h-67zM128.77 200.34h79v15h-79zM145.77 155.02h86v15h-86zM157.77 107.92h102v15h-102zM181.77 61.5h129v15h-129zM212.77 15.4h143v15h-143z"/><path class="cls-5" d="M57.2 425.42a4.55 4.55 0 0 1 .21-1.38 3.85 3.85 0 0 1 .58-1.15 2.74 2.74 0 0 1 .92-.79 2.61 2.61 0 0 1 2.4 0 2.67 2.67 0 0 1 .92.79 3.87 3.87 0 0 1 .57 1.11 4.64 4.64 0 0 1 .21 1.39 4.55 4.55 0 0 1-.21 1.38 3.87 3.87 0 0 1-.58 1.15 2.72 2.72 0 0 1-.92.79 2.6 2.6 0 0 1-2.4 0 2.7 2.7 0 0 1-.9-.71 3.87 3.87 0 0 1-.57-1.15 4.64 4.64 0 0 1-.23-1.43zm.54 0a4.14 4.14 0 0 0 .17 1.18 3.63 3.63 0 0 0 .47 1 2.33 2.33 0 0 0 .75.7 2 2 0 0 0 2 0 2.26 2.26 0 0 0 .75-.7 3.59 3.59 0 0 0 .46-1 4.22 4.22 0 0 0 .17-1.18 4.16 4.16 0 0 0-.17-1.18 3.57 3.57 0 0 0-.47-1 2.33 2.33 0 0 0-.75-.7 1.91 1.91 0 0 0-1-.26 2 2 0 0 0-.8.17 2 2 0 0 0-.65.47 3.09 3.09 0 0 0-.48.69 3.49 3.49 0 0 0-.31.86 4.46 4.46 0 0 0-.14.95zM64 422.46l1.6-.59h.4v7.05h-.5v-6.51l-1.35.46zM15.61 425.42a4.55 4.55 0 0 1 .21-1.38 3.85 3.85 0 0 1 .58-1.15 2.74 2.74 0 0 1 .92-.79 2.61 2.61 0 0 1 2.4 0 2.67 2.67 0 0 1 .92.79 3.87 3.87 0 0 1 .56 1.11 4.64 4.64 0 0 1 .21 1.39 4.55 4.55 0 0 1-.21 1.38 3.87 3.87 0 0 1-.58 1.15 2.72 2.72 0 0 1-.92.79 2.6 2.6 0 0 1-2.4 0 2.7 2.7 0 0 1-.92-.79 3.87 3.87 0 0 1-.57-1.15 4.64 4.64 0 0 1-.2-1.35zm.54 0a4.14 4.14 0 0 0 .17 1.18 3.63 3.63 0 0 0 .47 1 2.33 2.33 0 0 0 .75.7 2 2 0 0 0 2 0 2.26 2.26 0 0 0 .75-.7 3.59 3.59 0 0 0 .46-1 4.22 4.22 0 0 0 .17-1.18 4.16 4.16 0 0 0-.17-1.18 3.57 3.57 0 0 0-.47-1 2.33 2.33 0 0 0-.75-.7 1.91 1.91 0 0 0-1-.26 2 2 0 0 0-.8.17 2 2 0 0 0-.65.47 3.09 3.09 0 0 0-.48.69 3.49 3.49 0 0 0-.31.86 4.46 4.46 0 0 0-.14.95zM3.61 392.67a4.55 4.55 0 0 1 .21-1.38 3.85 3.85 0 0 1 .58-1.15 2.74 2.74 0 0 1 .92-.79 2.61 2.61 0 0 1 2.4 0 2.67 2.67 0 0 1 .92.79 3.87 3.87 0 0 1 .57 1.15 4.64 4.64 0 0 1 .21 1.39A4.55 4.55 0 0 1 9.2 394a3.87 3.87 0 0 1-.58 1.15 2.72 2.72 0 0 1-.92.79 2.6 2.6 0 0 1-2.4 0 2.7 2.7 0 0 1-.92-.79 3.87 3.87 0 0 1-.57-1.15 4.64 4.64 0 0 1-.2-1.33zm.54 0a4.14 4.14 0 0 0 .17 1.18 3.63 3.63 0 0 0 .47 1 2.33 2.33 0 0 0 .75.7 2 2 0 0 0 2 0 2.26 2.26 0 0 0 .75-.7 3.59 3.59 0 0 0 .46-1 4.22 4.22 0 0 0 .17-1.18 4.16 4.16 0 0 0-.17-1.18 3.57 3.57 0 0 0-.47-1 2.33 2.33 0 0 0-.75-.7 1.91 1.91 0 0 0-1-.26 2 2 0 0 0-.8.17 2 2 0 0 0-.65.47 3.09 3.09 0 0 0-.48.69 3.49 3.49 0 0 0-.31.86 4.46 4.46 0 0 0-.14.95zM10.35 389.71l1.6-.59h.4v7.05h-.5v-6.51l-1.35.46zM99.24 425.42a4.55 4.55 0 0 1 .21-1.38 3.85 3.85 0 0 1 .58-1.15 2.74 2.74 0 0 1 .92-.79 2.61 2.61 0 0 1 2.4 0 2.67 2.67 0 0 1 .92.79 3.87 3.87 0 0 1 .57 1.15 4.64 4.64 0 0 1 .21 1.39 4.55 4.55 0 0 1-.21 1.38 3.87 3.87 0 0 1-.58 1.15 2.72 2.72 0 0 1-.92.79 2.6 2.6 0 0 1-2.4 0 2.7 2.7 0 0 1-.94-.75 3.87 3.87 0 0 1-.57-1.15 4.64 4.64 0 0 1-.19-1.43zm.54 0a4.14 4.14 0 0 0 .17 1.18 3.63 3.63 0 0 0 .47 1 2.33 2.33 0 0 0 .75.7 2 2 0 0 0 2 0 2.26 2.26 0 0 0 .75-.7 3.59 3.59 0 0 0 .46-1 4.22 4.22 0 0 0 .17-1.18 4.16 4.16 0 0 0-.17-1.18 3.57 3.57 0 0 0-.47-1 2.33 2.33 0 0 0-.75-.7 1.91 1.91 0 0 0-1-.26 2 2 0 0 0-.8.17 2 2 0 0 0-.65.47 3.09 3.09 0 0 0-.48.69 3.49 3.49 0 0 0-.31.86 4.46 4.46 0 0 0-.13.95zM106.07 428.92v-.38l2.62-2.36a7.55 7.55 0 0 0 1.21-1.32 2 2 0 0 0 .34-1.08 1.39 1.39 0 0 0-.46-1.08 1.6 1.6 0 0 0-1.11-.42 2 2 0 0 0-1.12.32 3.67 3.67 0 0 0-.93 1l-.39-.26a5.31 5.31 0 0 1 .48-.63 3.1 3.1 0 0 1 .53-.46 2.1 2.1 0 0 1 .66-.31 3.08 3.08 0 0 1 .82-.1 2.07 2.07 0 0 1 1.48.56 1.83 1.83 0 0 1 .59 1.39 2.29 2.29 0 0 1-.09.67 2.35 2.35 0 0 1-.33.64 5.42 5.42 0 0 1-.53.65q-.3.32-.8.77l-2.14 1.95h4v.48z" transform="translate(-.65)"/><path d="M99.29 388.19l1.76-.65h.44v7.76h-.55v-7.16l-1.49.51zM106.27 388.19l1.76-.65h.44v7.76h-.55v-7.16l-1.49.51zM110.34 391.44a5 5 0 0 1 .23-1.52 4.25 4.25 0 0 1 .63-1.27 3 3 0 0 1 1-.87 2.87 2.87 0 0 1 2.64 0 3 3 0 0 1 1 .87 4.24 4.24 0 0 1 .63 1.27 5.09 5.09 0 0 1 .23 1.53 5 5 0 0 1-.23 1.52 4.29 4.29 0 0 1-.63 1.27 3 3 0 0 1-1 .87 2.86 2.86 0 0 1-2.64 0 3 3 0 0 1-1-.87 4.24 4.24 0 0 1-.63-1.27 5.1 5.1 0 0 1-.23-1.53zm.6 0a4.5 4.5 0 0 0 .19 1.29 3.91 3.91 0 0 0 .52 1.11 2.54 2.54 0 0 0 .83.77 2.15 2.15 0 0 0 2.15 0 2.49 2.49 0 0 0 .82-.77 3.93 3.93 0 0 0 .51-1.11 4.61 4.61 0 0 0 .18-1.3 4.53 4.53 0 0 0-.19-1.3 3.86 3.86 0 0 0-.52-1.11 2.56 2.56 0 0 0-.83-.77 2.1 2.1 0 0 0-1.08-.29 2.12 2.12 0 0 0-.88.19 2.21 2.21 0 0 0-.72.51 3.44 3.44 0 0 0-.53.76 3.81 3.81 0 0 0-.34.95 4.83 4.83 0 0 0-.11 1.07zM118.06 394.18l.41-.41a3.3 3.3 0 0 0 2.31 1.13 2.05 2.05 0 0 0 1.49-.56 1.86 1.86 0 0 0 .58-1.39 1.66 1.66 0 0 0-.59-1.31 2.25 2.25 0 0 0-1.52-.51 3.61 3.61 0 0 0-1.74.48l-.44-.29.22-3.73h4.32v.53h-3.83l-.19 2.9a3.86 3.86 0 0 1 1.71-.41 2.78 2.78 0 0 1 1.89.66 2.13 2.13 0 0 1 .76 1.69 2.3 2.3 0 0 1-.76 1.78 2.74 2.74 0 0 1-1.93.7 3.24 3.24 0 0 1-1.44-.35 4.55 4.55 0 0 1-1.25-.91zM125.2 342.39l1.76-.65h.44v7.76h-.55v-7.16l-1.49.51zM132.49 348.39l.41-.41a3.3 3.3 0 0 0 2.31 1.13 2.05 2.05 0 0 0 1.49-.56 1.86 1.86 0 0 0 .58-1.39 1.66 1.66 0 0 0-.59-1.31 2.25 2.25 0 0 0-1.52-.51 3.61 3.61 0 0 0-1.74.48l-.44-.29.22-3.73h4.32v.53h-3.83l-.19 2.9a3.86 3.86 0 0 1 1.71-.41 2.78 2.78 0 0 1 1.89.66 2.13 2.13 0 0 1 .76 1.69 2.3 2.3 0 0 1-.76 1.78 2.74 2.74 0 0 1-1.93.7 3.24 3.24 0 0 1-1.44-.35 4.55 4.55 0 0 1-1.25-.91zM139.14 348.39l.41-.41a3.3 3.3 0 0 0 2.31 1.13 2.05 2.05 0 0 0 1.49-.56 1.86 1.86 0 0 0 .58-1.39 1.66 1.66 0 0 0-.59-1.31 2.25 2.25 0 0 0-1.52-.51 3.61 3.61 0 0 0-1.74.48l-.44-.29.22-3.73h4.32v.53h-3.83l-.19 2.9a3.86 3.86 0 0 1 1.71-.41 2.78 2.78 0 0 1 1.89.66 2.13 2.13 0 0 1 .76 1.69 2.3 2.3 0 0 1-.76 1.78 2.74 2.74 0 0 1-1.93.7 3.24 3.24 0 0 1-1.44-.35 4.55 4.55 0 0 1-1.25-.91zM145.88 345.65a5 5 0 0 1 .23-1.52 4.25 4.25 0 0 1 .63-1.27 3 3 0 0 1 1-.87 2.87 2.87 0 0 1 2.64 0 3 3 0 0 1 1 .87 4.24 4.24 0 0 1 .63 1.27 5.09 5.09 0 0 1 .23 1.53 5 5 0 0 1-.23 1.52 4.29 4.29 0 0 1-.63 1.27 3 3 0 0 1-1 .87 2.86 2.86 0 0 1-2.64 0 3 3 0 0 1-1-.87 4.24 4.24 0 0 1-.63-1.27 5.1 5.1 0 0 1-.23-1.53zm.6 0a4.5 4.5 0 0 0 .19 1.29 3.91 3.91 0 0 0 .52 1.11 2.54 2.54 0 0 0 .83.77 2.15 2.15 0 0 0 2.15 0 2.49 2.49 0 0 0 .82-.77 3.93 3.93 0 0 0 .51-1.11 4.61 4.61 0 0 0 .18-1.3 4.53 4.53 0 0 0-.19-1.3 3.86 3.86 0 0 0-.52-1.11 2.56 2.56 0 0 0-.83-.77 2.1 2.1 0 0 0-1.08-.29 2.12 2.12 0 0 0-.88.19 2.21 2.21 0 0 0-.72.51 3.44 3.44 0 0 0-.53.76 3.81 3.81 0 0 0-.34.95 4.83 4.83 0 0 0-.11 1.07zM150.45 296.89l1.76-.65h.44V304h-.55v-7.16l-1.49.51zM157.83 298.75a2.47 2.47 0 0 1 .76-1.83 2.88 2.88 0 0 1 3.9 0 3.06 3.06 0 0 1 .72 1.19 5.71 5.71 0 0 1 .25 1.83 5.39 5.39 0 0 1-.41 2.15 3.53 3.53 0 0 1-1.12 1.49 2.63 2.63 0 0 1-1.6.53 2.92 2.92 0 0 1-1.22-.25 4.76 4.76 0 0 1-1.1-.71l.37-.44a3 3 0 0 0 2 .88 2.15 2.15 0 0 0 1.84-1 4.6 4.6 0 0 0 .71-2.67v-.26a2.61 2.61 0 0 1-2.4 1.48 2.75 2.75 0 0 1-1.91-.68 2.19 2.19 0 0 1-.79-1.71zm.6 0a1.73 1.73 0 0 0 .59 1.34 2.16 2.16 0 0 0 1.5.53 2.28 2.28 0 0 0 .89-.17 2 2 0 0 0 .68-.45 2.09 2.09 0 0 0 .42-.63 1.85 1.85 0 0 0-.47-2.12 2.23 2.23 0 0 0-1.57-.57 2.12 2.12 0 0 0-.85.17 1.85 1.85 0 0 0-.65.46 2.17 2.17 0 0 0-.55 1.44zM164.77 301.92a1.63 1.63 0 0 1 .47-1.15 2.87 2.87 0 0 1 1.23-.75 2.72 2.72 0 0 1-1-.71 1.6 1.6 0 0 1-.4-1.1 1.65 1.65 0 0 1 .37-1 2.39 2.39 0 0 1 1-.72 3.3 3.3 0 0 1 2.52 0 2.39 2.39 0 0 1 1 .72 1.67 1.67 0 0 1 .37 1.06 1.57 1.57 0 0 1-.4 1.09 2.78 2.78 0 0 1-1 .71 2.87 2.87 0 0 1 1.24.75 1.66 1.66 0 0 1 .47 1.17 1.81 1.81 0 0 1-.38 1.13 2.43 2.43 0 0 1-1 .77 3.75 3.75 0 0 1-1.45.27 3.31 3.31 0 0 1-2-.61 1.88 1.88 0 0 1-1.04-1.63zm.59 0a1.41 1.41 0 0 0 .62 1.15 3.09 3.09 0 0 0 3.29 0 1.43 1.43 0 0 0 .62-1.17 1.4 1.4 0 0 0-.66-1.18 3 3 0 0 0-3.22 0 1.42 1.42 0 0 0-.65 1.28zm.26-3.74a1.38 1.38 0 0 0 .58 1.14 2.48 2.48 0 0 0 2.84 0 1.4 1.4 0 0 0 .58-1.16 1.28 1.28 0 0 0-.58-1.07 2.59 2.59 0 0 0-2.85 0 1.31 1.31 0 0 0-.56 1.14zM171.81 300.15a5 5 0 0 1 .23-1.52 4.25 4.25 0 0 1 .63-1.27 3 3 0 0 1 1-.87 2.87 2.87 0 0 1 2.64 0 3 3 0 0 1 1 .87 4.24 4.24 0 0 1 .63 1.27 5.09 5.09 0 0 1 .23 1.53 5 5 0 0 1-.23 1.52 4.29 4.29 0 0 1-.63 1.27 3 3 0 0 1-1 .87 2.86 2.86 0 0 1-2.64 0 3 3 0 0 1-1-.87 4.24 4.24 0 0 1-.63-1.27 5.1 5.1 0 0 1-.23-1.53zm.6 0a4.5 4.5 0 0 0 .19 1.29 3.91 3.91 0 0 0 .52 1.11 2.54 2.54 0 0 0 .83.77 2.15 2.15 0 0 0 2.15 0 2.49 2.49 0 0 0 .82-.77 3.93 3.93 0 0 0 .51-1.11 4.61 4.61 0 0 0 .18-1.3 4.53 4.53 0 0 0-.19-1.3 3.86 3.86 0 0 0-.52-1.11 2.56 2.56 0 0 0-.83-.77 2.1 2.1 0 0 0-1.08-.29 2.12 2.12 0 0 0-.88.19 2.21 2.21 0 0 0-.72.51 3.44 3.44 0 0 0-.53.76 3.81 3.81 0 0 0-.34.95 4.83 4.83 0 0 0-.12 1.07zM184 256v-.42l2.88-2.6a8.26 8.26 0 0 0 1.33-1.45 2.16 2.16 0 0 0 .37-1.19 1.53 1.53 0 0 0-.51-1.19 1.76 1.76 0 0 0-1.22-.46 2.15 2.15 0 0 0-1.23.35 4 4 0 0 0-1 1.08l-.43-.29a5.73 5.73 0 0 1 .53-.69 3.4 3.4 0 0 1 .58-.51 2.35 2.35 0 0 1 .73-.34 3.44 3.44 0 0 1 .9-.11 2.28 2.28 0 0 1 1.63.61 2 2 0 0 1 .65 1.53 2.48 2.48 0 0 1-.11.74 2.55 2.55 0 0 1-.36.7 6 6 0 0 1-.58.71q-.33.35-.88.84l-2.36 2.14h4.36v.55zM193.87 254.89l.41-.41a3.3 3.3 0 0 0 2.31 1.13 2.05 2.05 0 0 0 1.49-.56 1.86 1.86 0 0 0 .58-1.39 1.66 1.66 0 0 0-.59-1.31 2.25 2.25 0 0 0-1.52-.51 3.61 3.61 0 0 0-1.74.48l-.44-.29.22-3.73h4.32v.53h-3.83l-.19 2.9a3.86 3.86 0 0 1 1.71-.41 2.78 2.78 0 0 1 1.89.66 2.13 2.13 0 0 1 .76 1.69 2.3 2.3 0 0 1-.76 1.78 2.74 2.74 0 0 1-1.93.7 3.24 3.24 0 0 1-1.44-.35 4.55 4.55 0 0 1-1.25-.91zM200.32 248.83v-.53h5.11v.4l-3.51 7.3h-.63l3.5-7.17zM206.52 252.15a5 5 0 0 1 .23-1.52 4.25 4.25 0 0 1 .63-1.27 3 3 0 0 1 1-.87 2.87 2.87 0 0 1 2.64 0 3 3 0 0 1 1 .87 4.24 4.24 0 0 1 .63 1.27 5.09 5.09 0 0 1 .23 1.53 5 5 0 0 1-.23 1.52 4.29 4.29 0 0 1-.63 1.27 3 3 0 0 1-1 .87 2.86 2.86 0 0 1-2.64 0 3 3 0 0 1-1-.87 4.24 4.24 0 0 1-.63-1.27 5.1 5.1 0 0 1-.23-1.53zm.6 0a4.5 4.5 0 0 0 .19 1.29 3.91 3.91 0 0 0 .52 1.11 2.54 2.54 0 0 0 .83.77 2.15 2.15 0 0 0 2.15 0 2.49 2.49 0 0 0 .82-.77 3.93 3.93 0 0 0 .51-1.11 4.61 4.61 0 0 0 .18-1.3 4.53 4.53 0 0 0-.19-1.3 3.86 3.86 0 0 0-.52-1.11 2.56 2.56 0 0 0-.83-.77 2.1 2.1 0 0 0-1.08-.29 2.12 2.12 0 0 0-.88.19 2.21 2.21 0 0 0-.72.51 3.44 3.44 0 0 0-.53.76 3.81 3.81 0 0 0-.34.95 4.83 4.83 0 0 0-.11 1.07zM220.55 210.41l.45-.41a3 3 0 0 0 2.39 1.23 2 2 0 0 0 1.35-.48 1.58 1.58 0 0 0 .55-1.24 1.41 1.41 0 0 0-.66-1.24 3.07 3.07 0 0 0-1.73-.44h-.42l-.15-.32 2.67-3.01h-4v-.5h4.82v.4l-2.61 3a5 5 0 0 1 .78.11 3.48 3.48 0 0 1 .73.26 2.63 2.63 0 0 1 .63.42 1.79 1.79 0 0 1 .43.61 2 2 0 0 1 .16.81 2.05 2.05 0 0 1-.35 1.17 2.28 2.28 0 0 1-.92.8 2.8 2.8 0 0 1-1.24.28 3.46 3.46 0 0 1-1.62-.37 3.6 3.6 0 0 1-1.26-1.08zM230.29 204.56l1.76-.65h.44v7.76h-.55v-7.16l-1.49.51zM234.4 204.5v-.5h5.11v.4l-3.51 7.3h-.63l3.5-7.17zM240.6 207.82a5 5 0 0 1 .23-1.52 4.25 4.25 0 0 1 .63-1.27 3 3 0 0 1 1-.87 2.87 2.87 0 0 1 2.64 0 3 3 0 0 1 1 .87 4.24 4.24 0 0 1 .63 1.27 5.09 5.09 0 0 1 .23 1.53 5 5 0 0 1-.23 1.52 4.29 4.29 0 0 1-.63 1.27 3 3 0 0 1-1 .87 2.86 2.86 0 0 1-2.64 0 3 3 0 0 1-1-.87 4.24 4.24 0 0 1-.63-1.27 5.1 5.1 0 0 1-.23-1.53zm.6 0a4.5 4.5 0 0 0 .19 1.29 3.91 3.91 0 0 0 .52 1.11 2.54 2.54 0 0 0 .83.77 2.15 2.15 0 0 0 2.15 0 2.49 2.49 0 0 0 .82-.77 3.93 3.93 0 0 0 .51-1.11 4.61 4.61 0 0 0 .18-1.3 4.53 4.53 0 0 0-.19-1.3 3.86 3.86 0 0 0-.52-1.11 2.56 2.56 0 0 0-.83-.77 2.1 2.1 0 0 0-1.08-.29 2.12 2.12 0 0 0-.88.19 2.21 2.21 0 0 0-.72.51 3.44 3.44 0 0 0-.53.76 3.81 3.81 0 0 0-.34.95 4.83 4.83 0 0 0-.11 1.07zM244.89 164.91l.44-.37a3 3 0 0 0 2.39 1.23 2 2 0 0 0 1.35-.48 1.58 1.58 0 0 0 .55-1.24 1.41 1.41 0 0 0-.66-1.24 3.07 3.07 0 0 0-1.73-.44h-.42l-.15-.32 2.65-3.06h-4v-.53h4.82v.4l-2.61 3a5 5 0 0 1 .78.11 3.48 3.48 0 0 1 .73.26 2.63 2.63 0 0 1 .63.42 1.79 1.79 0 0 1 .43.61 2 2 0 0 1 .16.81 2.05 2.05 0 0 1-.35 1.17 2.28 2.28 0 0 1-.92.8 2.8 2.8 0 0 1-1.24.28 3.46 3.46 0 0 1-1.62-.37 3.6 3.6 0 0 1-1.23-1.04zM254.93 165.06l.41-.41a3.3 3.3 0 0 0 2.31 1.13 2.05 2.05 0 0 0 1.49-.56 1.86 1.86 0 0 0 .58-1.39 1.66 1.66 0 0 0-.59-1.31 2.25 2.25 0 0 0-1.52-.51 3.61 3.61 0 0 0-1.74.48l-.44-.29.22-3.73H260v.53h-3.83l-.19 2.9a3.86 3.86 0 0 1 1.71-.41 2.78 2.78 0 0 1 1.89.66 2.13 2.13 0 0 1 .76 1.69 2.3 2.3 0 0 1-.76 1.78 2.74 2.74 0 0 1-1.93.7 3.24 3.24 0 0 1-1.44-.35 4.55 4.55 0 0 1-1.28-.91zM261.58 165.06l.41-.41a3.3 3.3 0 0 0 2.31 1.13 2.05 2.05 0 0 0 1.49-.56 1.86 1.86 0 0 0 .58-1.39 1.66 1.66 0 0 0-.59-1.31 2.25 2.25 0 0 0-1.52-.51 3.61 3.61 0 0 0-1.74.48l-.44-.29.22-3.73h4.32v.53h-3.83l-.19 2.9a3.86 3.86 0 0 1 1.71-.41 2.78 2.78 0 0 1 1.89.66 2.13 2.13 0 0 1 .76 1.69 2.3 2.3 0 0 1-.76 1.78 2.74 2.74 0 0 1-1.93.7 3.24 3.24 0 0 1-1.44-.35 4.55 4.55 0 0 1-1.25-.91zM268.32 162.32a5 5 0 0 1 .23-1.52 4.25 4.25 0 0 1 .63-1.27 3 3 0 0 1 1-.87 2.87 2.87 0 0 1 2.64 0 3 3 0 0 1 1 .87 4.24 4.24 0 0 1 .63 1.27 5.09 5.09 0 0 1 .23 1.53 5 5 0 0 1-.23 1.52 4.29 4.29 0 0 1-.63 1.27 3 3 0 0 1-1 .87 2.86 2.86 0 0 1-2.64 0 3 3 0 0 1-1-.87 4.24 4.24 0 0 1-.63-1.27 5.1 5.1 0 0 1-.23-1.53zm.6 0a4.5 4.5 0 0 0 .19 1.29 3.91 3.91 0 0 0 .52 1.11 2.54 2.54 0 0 0 .83.77 2.15 2.15 0 0 0 2.15 0 2.49 2.49 0 0 0 .82-.77 3.93 3.93 0 0 0 .51-1.11 4.61 4.61 0 0 0 .18-1.3 4.53 4.53 0 0 0-.19-1.3 3.86 3.86 0 0 0-.52-1.11 2.56 2.56 0 0 0-.83-.77 2.1 2.1 0 0 0-1.08-.29 2.12 2.12 0 0 0-.88.19 2.21 2.21 0 0 0-.72.51 3.44 3.44 0 0 0-.53.76 3.81 3.81 0 0 0-.34.95 4.83 4.83 0 0 0-.11 1.07zM113.15 116.9l4.4-5.45h.52v5.38h1.25v.49h-1.25v1.88h-.55v-1.88h-4.17zm.69-.06h3.67v-4.55zM123.94 115.36a5 5 0 0 1 .23-1.52 4.25 4.25 0 0 1 .63-1.27 3 3 0 0 1 1-.87 2.87 2.87 0 0 1 2.64 0 3 3 0 0 1 1 .87 4.24 4.24 0 0 1 .63 1.27 5.09 5.09 0 0 1 .23 1.53 5 5 0 0 1-.23 1.52 4.29 4.29 0 0 1-.63 1.27 3 3 0 0 1-1 .87 2.86 2.86 0 0 1-2.64 0 3 3 0 0 1-1-.87 4.24 4.24 0 0 1-.63-1.27 5.1 5.1 0 0 1-.23-1.53zm.6 0a4.5 4.5 0 0 0 .19 1.29 3.91 3.91 0 0 0 .52 1.11 2.54 2.54 0 0 0 .83.77 2.15 2.15 0 0 0 2.15 0 2.49 2.49 0 0 0 .82-.77 3.93 3.93 0 0 0 .51-1.11 4.61 4.61 0 0 0 .18-1.3 4.53 4.53 0 0 0-.19-1.3A3.86 3.86 0 0 0 129 113a2.56 2.56 0 0 0-.83-.77 2.1 2.1 0 0 0-1.08-.29 2.12 2.12 0 0 0-.88.19 2.21 2.21 0 0 0-.72.51 3.44 3.44 0 0 0-.53.76 3.81 3.81 0 0 0-.34.95 4.83 4.83 0 0 0-.09 1.01zM131.75 115.36a5 5 0 0 1 .23-1.52 4.25 4.25 0 0 1 .63-1.27 3 3 0 0 1 1-.87 2.87 2.87 0 0 1 2.64 0 3 3 0 0 1 1 .87 4.24 4.24 0 0 1 .63 1.27 5.09 5.09 0 0 1 .23 1.53 5 5 0 0 1-.23 1.52 4.29 4.29 0 0 1-.63 1.27 3 3 0 0 1-1 .87 2.86 2.86 0 0 1-2.64 0 3 3 0 0 1-1-.87 4.24 4.24 0 0 1-.63-1.27 5.1 5.1 0 0 1-.23-1.53zm.6 0a4.5 4.5 0 0 0 .19 1.29 3.91 3.91 0 0 0 .52 1.11 2.54 2.54 0 0 0 .83.77 2.15 2.15 0 0 0 2.15 0 2.49 2.49 0 0 0 .82-.77 3.93 3.93 0 0 0 .51-1.11 4.61 4.61 0 0 0 .18-1.3 4.53 4.53 0 0 0-.19-1.3 3.86 3.86 0 0 0-.52-1.11 2.56 2.56 0 0 0-.83-.77 2.1 2.1 0 0 0-1.08-.29 2.12 2.12 0 0 0-.88.19 2.21 2.21 0 0 0-.72.51 3.44 3.44 0 0 0-.53.76 3.81 3.81 0 0 0-.34.95 4.83 4.83 0 0 0-.12 1.07zM139.56 115.36a5 5 0 0 1 .23-1.52 4.25 4.25 0 0 1 .63-1.27 3 3 0 0 1 1-.87 2.87 2.87 0 0 1 2.64 0 3 3 0 0 1 1 .87 4.24 4.24 0 0 1 .63 1.27 5.09 5.09 0 0 1 .23 1.53 5 5 0 0 1-.23 1.52 4.29 4.29 0 0 1-.63 1.27 3 3 0 0 1-1 .87 2.86 2.86 0 0 1-2.64 0 3 3 0 0 1-1-.87 4.24 4.24 0 0 1-.63-1.27 5.1 5.1 0 0 1-.23-1.53zm.6 0a4.5 4.5 0 0 0 .19 1.29 3.91 3.91 0 0 0 .52 1.11 2.54 2.54 0 0 0 .83.77 2.15 2.15 0 0 0 2.15 0 2.49 2.49 0 0 0 .82-.77 3.93 3.93 0 0 0 .51-1.11 4.61 4.61 0 0 0 .18-1.3 4.53 4.53 0 0 0-.19-1.3 3.86 3.86 0 0 0-.52-1.11 2.56 2.56 0 0 0-.83-.77 2.1 2.1 0 0 0-1.08-.29 2.12 2.12 0 0 0-.88.19 2.21 2.21 0 0 0-.72.51 3.44 3.44 0 0 0-.53.76 3.81 3.81 0 0 0-.34.95 4.83 4.83 0 0 0-.12 1.07zM138.11 70.73l4.4-5.45h.49v5.38h1.25v.49H143V73h-.55v-1.84h-4.17zm.69-.06h3.67v-4.56zM148.79 71a1.63 1.63 0 0 1 .47-1.15 2.87 2.87 0 0 1 1.23-.75 2.72 2.72 0 0 1-1-.71 1.6 1.6 0 0 1-.4-1.1 1.65 1.65 0 0 1 .37-1 2.39 2.39 0 0 1 1-.72 3.3 3.3 0 0 1 2.52 0 2.39 2.39 0 0 1 1 .72 1.67 1.67 0 0 1 .37 1.06 1.57 1.57 0 0 1-.4 1.09 2.78 2.78 0 0 1-1 .71 2.87 2.87 0 0 1 1.24.75 1.66 1.66 0 0 1 .47 1.17 1.81 1.81 0 0 1-.38 1.13 2.43 2.43 0 0 1-1 .77 3.75 3.75 0 0 1-1.45.27 3.31 3.31 0 0 1-2-.61 1.88 1.88 0 0 1-1.04-1.63zm.59 0a1.41 1.41 0 0 0 .62 1.15 3.09 3.09 0 0 0 3.29 0 1.43 1.43 0 0 0 .62-1.17 1.4 1.4 0 0 0-.66-1.18 3 3 0 0 0-3.22 0 1.42 1.42 0 0 0-.65 1.2zm.26-3.74a1.38 1.38 0 0 0 .58 1.14 2.48 2.48 0 0 0 2.84 0 1.4 1.4 0 0 0 .58-1.16 1.28 1.28 0 0 0-.58-1.07 2.59 2.59 0 0 0-2.85 0 1.31 1.31 0 0 0-.57 1.1zM155.82 69.19a5 5 0 0 1 .23-1.52 4.25 4.25 0 0 1 .63-1.27 3 3 0 0 1 1-.87 2.87 2.87 0 0 1 2.64 0 3 3 0 0 1 1 .87 4.24 4.24 0 0 1 .63 1.27 5.09 5.09 0 0 1 .23 1.53 5 5 0 0 1-.23 1.52 4.29 4.29 0 0 1-.63 1.27 3 3 0 0 1-1 .87 2.86 2.86 0 0 1-2.64 0 3 3 0 0 1-1-.87 4.24 4.24 0 0 1-.63-1.27 5.1 5.1 0 0 1-.23-1.53zm.6 0a4.5 4.5 0 0 0 .19 1.29 3.91 3.91 0 0 0 .52 1.11 2.54 2.54 0 0 0 .83.77 2.15 2.15 0 0 0 2.15 0 2.49 2.49 0 0 0 .82-.77 3.93 3.93 0 0 0 .51-1.11 4.61 4.61 0 0 0 .18-1.3 4.53 4.53 0 0 0-.19-1.3 3.86 3.86 0 0 0-.52-1.11 2.56 2.56 0 0 0-.83-.77 2.1 2.1 0 0 0-1.08-.29 2.12 2.12 0 0 0-.88.19 2.21 2.21 0 0 0-.72.51 3.44 3.44 0 0 0-.53.76 3.81 3.81 0 0 0-.34.95 4.83 4.83 0 0 0-.11 1.07zM163.63 69.19a5 5 0 0 1 .23-1.52 4.25 4.25 0 0 1 .63-1.27 3 3 0 0 1 1-.87 2.87 2.87 0 0 1 2.64 0 3 3 0 0 1 1 .87 4.24 4.24 0 0 1 .63 1.27 5.09 5.09 0 0 1 .23 1.53 5 5 0 0 1-.23 1.52 4.29 4.29 0 0 1-.63 1.27 3 3 0 0 1-1 .87 2.86 2.86 0 0 1-2.64 0 3 3 0 0 1-1-.87 4.24 4.24 0 0 1-.63-1.27 5.1 5.1 0 0 1-.23-1.53zm.6 0a4.5 4.5 0 0 0 .19 1.29 3.91 3.91 0 0 0 .52 1.11 2.54 2.54 0 0 0 .83.77 2.15 2.15 0 0 0 2.15 0 2.49 2.49 0 0 0 .82-.77 3.93 3.93 0 0 0 .51-1.11 4.61 4.61 0 0 0 .18-1.3 4.53 4.53 0 0 0-.19-1.3 3.86 3.86 0 0 0-.52-1.11 2.56 2.56 0 0 0-.83-.77 2.1 2.1 0 0 0-1.08-.29 2.12 2.12 0 0 0-.88.19 2.21 2.21 0 0 0-.72.51 3.44 3.44 0 0 0-.53.76 3.81 3.81 0 0 0-.34.95 4.83 4.83 0 0 0-.11 1.07zM170.88 25.93l.41-.41a3.3 3.3 0 0 0 2.31 1.13 2.05 2.05 0 0 0 1.49-.56 1.86 1.86 0 0 0 .58-1.39 1.66 1.66 0 0 0-.59-1.31 2.25 2.25 0 0 0-1.52-.51 3.61 3.61 0 0 0-1.74.48l-.44-.29.22-3.73h4.32v.53h-3.83l-.19 2.9a3.86 3.86 0 0 1 1.71-.41 2.78 2.78 0 0 1 1.89.66 2.13 2.13 0 0 1 .76 1.69 2.3 2.3 0 0 1-.76 1.78 2.74 2.74 0 0 1-1.93.7 3.24 3.24 0 0 1-1.44-.35 4.55 4.55 0 0 1-1.25-.91zM180.83 25.93l.41-.41a3.3 3.3 0 0 0 2.31 1.13 2.05 2.05 0 0 0 1.49-.56 1.86 1.86 0 0 0 .58-1.39 1.66 1.66 0 0 0-.59-1.31 2.25 2.25 0 0 0-1.52-.51 3.61 3.61 0 0 0-1.74.48l-.44-.29.22-3.73h4.32v.53H182l-.19 2.9a3.86 3.86 0 0 1 1.71-.41 2.78 2.78 0 0 1 1.89.66 2.13 2.13 0 0 1 .76 1.69 2.3 2.3 0 0 1-.76 1.78 2.74 2.74 0 0 1-1.93.7 3.24 3.24 0 0 1-1.44-.35 4.55 4.55 0 0 1-1.21-.91zM187.8 25.22a5.78 5.78 0 0 1-.24-1.84 5.59 5.59 0 0 1 .38-2.11 3.52 3.52 0 0 1 1.1-1.5 2.63 2.63 0 0 1 1.65-.56 2.88 2.88 0 0 1 1.15.23 4.57 4.57 0 0 1 1.07.67l-.36.44a3.77 3.77 0 0 0-.92-.61 2.37 2.37 0 0 0-1-.2 2.1 2.1 0 0 0-1.83 1.06 4.94 4.94 0 0 0-.69 2.75v.19a2.66 2.66 0 0 1 2.41-1.43 3 3 0 0 1 1.3.29 2.46 2.46 0 0 1 1 .84 2.12 2.12 0 0 1 .37 1.22 2.43 2.43 0 0 1-.35 1.29 2.48 2.48 0 0 1-1 .91 3 3 0 0 1-2.46.12 2.6 2.6 0 0 1-.87-.56 3.1 3.1 0 0 1-.71-1.2zm.57-.5a1.77 1.77 0 0 0 .63 1.38 2.25 2.25 0 0 0 1.55.55 2 2 0 0 0 1.49-.58 2 2 0 0 0 .57-1.43 1.7 1.7 0 0 0-.59-1.33 2.17 2.17 0 0 0-1.5-.53 2.26 2.26 0 0 0-.87.17 2.12 2.12 0 0 0-.68.44 2 2 0 0 0-.43.62 1.7 1.7 0 0 0-.17.71zM194.63 23.19a5 5 0 0 1 .23-1.52 4.25 4.25 0 0 1 .63-1.27 3 3 0 0 1 1-.87 2.87 2.87 0 0 1 2.64 0 3 3 0 0 1 1 .87 4.24 4.24 0 0 1 .63 1.27 5.09 5.09 0 0 1 .23 1.53 5 5 0 0 1-.23 1.52 4.29 4.29 0 0 1-.63 1.27 3 3 0 0 1-1 .87 2.86 2.86 0 0 1-2.64 0 3 3 0 0 1-1-.87 4.24 4.24 0 0 1-.63-1.27 5.1 5.1 0 0 1-.23-1.53zm.6 0a4.5 4.5 0 0 0 .19 1.29 3.91 3.91 0 0 0 .52 1.11 2.54 2.54 0 0 0 .83.77 2.15 2.15 0 0 0 2.15 0 2.49 2.49 0 0 0 .82-.77 3.93 3.93 0 0 0 .51-1.11 4.61 4.61 0 0 0 .18-1.3 4.53 4.53 0 0 0-.19-1.3 3.86 3.86 0 0 0-.52-1.11 2.56 2.56 0 0 0-.83-.77 2.1 2.1 0 0 0-1.08-.29 2.12 2.12 0 0 0-.88.19 2.21 2.21 0 0 0-.72.51 3.44 3.44 0 0 0-.53.76 3.81 3.81 0 0 0-.34.95 4.83 4.83 0 0 0-.11 1.07z" transform="translate(-.65)"/><path class="cls-5" d="M1.4 346.42a4.56 4.56 0 0 1 .21-1.42 3.86 3.86 0 0 1 .58-1.15 2.74 2.74 0 0 1 .92-.79 2.61 2.61 0 0 1 2.4 0 2.67 2.67 0 0 1 .92.79A3.88 3.88 0 0 1 7 345a4.65 4.65 0 0 1 .21 1.39A4.54 4.54 0 0 1 7 347.8a3.87 3.87 0 0 1-.58 1.15 2.71 2.71 0 0 1-.92.79 2.59 2.59 0 0 1-2.4 0 2.71 2.71 0 0 1-.92-.79 3.85 3.85 0 0 1-.57-1.15 4.63 4.63 0 0 1-.21-1.38zm.54 0a4.13 4.13 0 0 0 .17 1.18 3.61 3.61 0 0 0 .47 1 2.33 2.33 0 0 0 .75.7 2 2 0 0 0 2 0 2.26 2.26 0 0 0 .75-.7 3.57 3.57 0 0 0 .46-1 4.21 4.21 0 0 0 .17-1.18 4.16 4.16 0 0 0-.17-1.18 3.59 3.59 0 0 0-.47-1 2.34 2.34 0 0 0-.75-.7 1.91 1.91 0 0 0-1-.26 2 2 0 0 0-.8.17 2 2 0 0 0-.65.47 3.11 3.11 0 0 0-.48.69 3.49 3.49 0 0 0-.31.86 4.47 4.47 0 0 0-.14.95zM8.22 349.92v-.38l2.62-2.36a7.55 7.55 0 0 0 1.21-1.32 2 2 0 0 0 .34-1.08 1.39 1.39 0 0 0-.46-1.08 1.61 1.61 0 0 0-1.11-.42 2 2 0 0 0-1.12.32 3.69 3.69 0 0 0-.93 1l-.39-.26a5.29 5.29 0 0 1 .48-.63 3.11 3.11 0 0 1 .53-.46 2.12 2.12 0 0 1 .66-.3 3 3 0 0 1 .82-.1 2.07 2.07 0 0 1 1.48.56 1.83 1.83 0 0 1 .59 1.39 2.29 2.29 0 0 1-.09.67 2.38 2.38 0 0 1-.33.64 5.5 5.5 0 0 1-.53.65q-.3.32-.8.77L9 349.43h4v.48zM142.41 425.42a4.55 4.55 0 0 1 .21-1.38 3.85 3.85 0 0 1 .58-1.15 2.74 2.74 0 0 1 .92-.79 2.61 2.61 0 0 1 2.4 0 2.67 2.67 0 0 1 .92.79A3.87 3.87 0 0 1 148 424a4.64 4.64 0 0 1 .21 1.39 4.55 4.55 0 0 1-.21 1.38 3.87 3.87 0 0 1-.58 1.15 2.72 2.72 0 0 1-.92.79 2.6 2.6 0 0 1-2.4 0 2.7 2.7 0 0 1-.92-.79 3.87 3.87 0 0 1-.57-1.15 4.64 4.64 0 0 1-.2-1.35zm.54 0a4.14 4.14 0 0 0 .17 1.18 3.63 3.63 0 0 0 .47 1 2.33 2.33 0 0 0 .75.7 2 2 0 0 0 2 0 2.26 2.26 0 0 0 .75-.7 3.59 3.59 0 0 0 .46-1 4.22 4.22 0 0 0 .17-1.18 4.16 4.16 0 0 0-.17-1.18 3.57 3.57 0 0 0-.47-1 2.33 2.33 0 0 0-.75-.7 1.91 1.91 0 0 0-1-.26 2 2 0 0 0-.8.17 2 2 0 0 0-.65.47 3.09 3.09 0 0 0-.48.69 3.49 3.49 0 0 0-.31.86 4.46 4.46 0 0 0-.09.95zM149.31 427.78l.4-.33a2.69 2.69 0 0 0 2.18 1.12 1.79 1.79 0 0 0 1.23-.44 1.44 1.44 0 0 0 .5-1.13 1.28 1.28 0 0 0-.6-1.12 2.79 2.79 0 0 0-1.58-.4h-.38l-.13-.29 2.41-2.78h-3.67v-.48H154v.36l-2.32 2.71a4.56 4.56 0 0 1 .71.1 3.2 3.2 0 0 1 .67.24 2.39 2.39 0 0 1 .57.38 1.61 1.61 0 0 1 .39.55 1.8 1.8 0 0 1 .15.73 1.87 1.87 0 0 1-.32 1.07 2.08 2.08 0 0 1-.84.73 2.55 2.55 0 0 1-1.13.25 3.14 3.14 0 0 1-1.47-.34 3.28 3.28 0 0 1-1.1-.93zM1.22 300.17a4.55 4.55 0 0 1 .21-1.38 3.85 3.85 0 0 1 .57-1.16 2.74 2.74 0 0 1 .92-.79 2.53 2.53 0 0 1 1.2-.29 2.51 2.51 0 0 1 1.2.29 2.67 2.67 0 0 1 .92.79 3.87 3.87 0 0 1 .57 1.15 4.64 4.64 0 0 1 .19 1.39 4.55 4.55 0 0 1-.21 1.38 3.87 3.87 0 0 1-.58 1.15 2.72 2.72 0 0 1-.92.79 2.52 2.52 0 0 1-1.2.3 2.5 2.5 0 0 1-1.2-.29 2.7 2.7 0 0 1-.92-.79 3.87 3.87 0 0 1-.57-1.15 4.64 4.64 0 0 1-.18-1.39zm.54 0a4.14 4.14 0 0 0 .17 1.18 3.63 3.63 0 0 0 .47 1 2.33 2.33 0 0 0 .75.7 2 2 0 0 0 2 0 2.26 2.26 0 0 0 .75-.7 3.59 3.59 0 0 0 .46-1 4.22 4.22 0 0 0 .17-1.18 4.16 4.16 0 0 0-.22-1.17 3.57 3.57 0 0 0-.47-1 2.33 2.33 0 0 0-.75-.7 1.91 1.91 0 0 0-1-.26 2 2 0 0 0-.8.17 2 2 0 0 0-.65.47 3.09 3.09 0 0 0-.48.69 3.49 3.49 0 0 0-.31.86 4.46 4.46 0 0 0-.09.94zM8.11 302.53l.4-.33a2.69 2.69 0 0 0 2.18 1.12 1.79 1.79 0 0 0 1.23-.44 1.44 1.44 0 0 0 .5-1.13 1.28 1.28 0 0 0-.6-1.12 2.79 2.79 0 0 0-1.58-.4h-.38l-.13-.29 2.41-2.78H8.47v-.48h4.38v.32l-2.37 2.71a4.56 4.56 0 0 1 .71.1 3.2 3.2 0 0 1 .67.24 2.39 2.39 0 0 1 .57.38 1.61 1.61 0 0 1 .39.55 1.8 1.8 0 0 1 .15.73 1.87 1.87 0 0 1-.32 1.07 2.08 2.08 0 0 1-.84.73 2.55 2.55 0 0 1-1.13.25 3.14 3.14 0 0 1-1.47-.34 3.28 3.28 0 0 1-1.1-.89zM185.36 425.42a4.55 4.55 0 0 1 .21-1.38 3.85 3.85 0 0 1 .58-1.15 2.74 2.74 0 0 1 .92-.79 2.61 2.61 0 0 1 2.4 0 2.67 2.67 0 0 1 .92.79A3.87 3.87 0 0 1 191 424a4.64 4.64 0 0 1 .21 1.39 4.55 4.55 0 0 1-.21 1.38 3.87 3.87 0 0 1-.58 1.15 2.72 2.72 0 0 1-.92.79 2.6 2.6 0 0 1-2.4 0 2.7 2.7 0 0 1-.92-.79 3.87 3.87 0 0 1-.57-1.15 4.64 4.64 0 0 1-.25-1.35zm.54 0a4.14 4.14 0 0 0 .17 1.18 3.63 3.63 0 0 0 .47 1 2.33 2.33 0 0 0 .75.7 2 2 0 0 0 2 0 2.26 2.26 0 0 0 .75-.7 3.59 3.59 0 0 0 .46-1 4.22 4.22 0 0 0 .17-1.18 4.16 4.16 0 0 0-.17-1.18 3.57 3.57 0 0 0-.47-1 2.33 2.33 0 0 0-.75-.7 1.91 1.91 0 0 0-1-.26 2 2 0 0 0-.8.17 2 2 0 0 0-.65.47 3.09 3.09 0 0 0-.48.69 3.49 3.49 0 0 0-.31.86 4.46 4.46 0 0 0-.13.95zM192.29 426.82l4-5h.47v4.89h1.14v.45h-1.14v1.71h-.5v-1.71h-3.79zm.63-.06h3.34v-4.14zM.65 253.92a4.56 4.56 0 0 1 .21-1.38 3.86 3.86 0 0 1 .58-1.15 2.74 2.74 0 0 1 .92-.79 2.54 2.54 0 0 1 1.2-.29 2.52 2.52 0 0 1 1.2.29 2.67 2.67 0 0 1 .92.79 3.88 3.88 0 0 1 .57 1.15 4.65 4.65 0 0 1 .21 1.39 4.54 4.54 0 0 1-.21 1.38 3.87 3.87 0 0 1-.58 1.15 2.71 2.71 0 0 1-.92.79 2.52 2.52 0 0 1-1.2.3 2.5 2.5 0 0 1-1.2-.29 2.71 2.71 0 0 1-.92-.79 3.85 3.85 0 0 1-.57-1.15 4.63 4.63 0 0 1-.21-1.4zm.54 0a4.13 4.13 0 0 0 .17 1.18 3.61 3.61 0 0 0 .47 1 2.33 2.33 0 0 0 .75.7 2 2 0 0 0 2 0 2.26 2.26 0 0 0 .75-.7 3.57 3.57 0 0 0 .46-1 4.21 4.21 0 0 0 .17-1.18 4.16 4.16 0 0 0-.17-1.18 3.59 3.59 0 0 0-.47-1 2.34 2.34 0 0 0-.75-.7 1.91 1.91 0 0 0-1-.26 2 2 0 0 0-.8.17 2 2 0 0 0-.65.47 3.11 3.11 0 0 0-.48.69 3.49 3.49 0 0 0-.31.86 4.47 4.47 0 0 0-.14.95zM7.58 255.32l4-5h.47v4.89h1.14v.45h-1.14v1.71h-.5v-1.71H7.76zm.63-.06h3.34v-4.14zM228.93 425.42a4.55 4.55 0 0 1 .21-1.38 3.85 3.85 0 0 1 .58-1.15 2.74 2.74 0 0 1 .92-.79 2.61 2.61 0 0 1 2.4 0 2.67 2.67 0 0 1 .92.79 3.87 3.87 0 0 1 .57 1.15 4.64 4.64 0 0 1 .21 1.39 4.55 4.55 0 0 1-.21 1.38 3.87 3.87 0 0 1-.58 1.15 2.72 2.72 0 0 1-.92.79 2.6 2.6 0 0 1-2.4 0 2.7 2.7 0 0 1-.92-.79 3.87 3.87 0 0 1-.57-1.15 4.64 4.64 0 0 1-.21-1.39zm.54 0a4.14 4.14 0 0 0 .17 1.18 3.63 3.63 0 0 0 .47 1 2.33 2.33 0 0 0 .75.7 2 2 0 0 0 2 0 2.26 2.26 0 0 0 .75-.7 3.59 3.59 0 0 0 .46-1 4.22 4.22 0 0 0 .17-1.18 4.16 4.16 0 0 0-.17-1.18 3.57 3.57 0 0 0-.47-1 2.33 2.33 0 0 0-.75-.7 1.91 1.91 0 0 0-1-.26 2 2 0 0 0-.8.17 2 2 0 0 0-.65.47 3.09 3.09 0 0 0-.48.69 3.49 3.49 0 0 0-.31.86 4.46 4.46 0 0 0-.14.95zM235.95 427.91l.37-.37a3 3 0 0 0 2.1 1 1.87 1.87 0 0 0 1.35-.51 1.69 1.69 0 0 0 .53-1.27 1.5 1.5 0 0 0-.54-1.19 2 2 0 0 0-1.38-.47 3.29 3.29 0 0 0-1.58.44l-.4-.26.2-3.39h3.93v.48h-3.48l-.17 2.64a3.51 3.51 0 0 1 1.56-.38 2.52 2.52 0 0 1 1.71.6 1.94 1.94 0 0 1 .69 1.53 2.1 2.1 0 0 1-.69 1.62 2.49 2.49 0 0 1-1.75.63 2.93 2.93 0 0 1-1.31-.32 4.11 4.11 0 0 1-1.14-.78zM1.18 207.67a4.55 4.55 0 0 1 .21-1.38 3.85 3.85 0 0 1 .61-1.16 2.74 2.74 0 0 1 .92-.79 2.53 2.53 0 0 1 1.2-.29 2.51 2.51 0 0 1 1.2.29 2.67 2.67 0 0 1 .92.79 3.87 3.87 0 0 1 .57 1.15 4.64 4.64 0 0 1 .19 1.39 4.55 4.55 0 0 1-.23 1.33 3.87 3.87 0 0 1-.58 1.15 2.72 2.72 0 0 1-.92.79 2.52 2.52 0 0 1-1.2.3 2.5 2.5 0 0 1-1.2-.29 2.7 2.7 0 0 1-.92-.79 3.87 3.87 0 0 1-.57-1.15 4.64 4.64 0 0 1-.2-1.34zm.54 0a4.14 4.14 0 0 0 .17 1.18 3.63 3.63 0 0 0 .47 1 2.33 2.33 0 0 0 .75.7 2 2 0 0 0 2 0 2.26 2.26 0 0 0 .75-.7 3.59 3.59 0 0 0 .46-1 4.22 4.22 0 0 0 .17-1.18 4.16 4.16 0 0 0-.17-1.18 3.57 3.57 0 0 0-.47-1 2.33 2.33 0 0 0-.75-.7 1.91 1.91 0 0 0-1-.26 2 2 0 0 0-.8.17 2 2 0 0 0-.65.47 3.09 3.09 0 0 0-.48.69 3.49 3.49 0 0 0-.31.86 4.46 4.46 0 0 0-.14.95zM8.2 210.16l.37-.37a3 3 0 0 0 2.1 1 1.87 1.87 0 0 0 1.35-.51 1.69 1.69 0 0 0 .53-1.27 1.5 1.5 0 0 0-.54-1.19 2 2 0 0 0-1.38-.47 3.29 3.29 0 0 0-1.58.44l-.4-.26.2-3.39h3.93v.48H9.3l-.17 2.64a3.51 3.51 0 0 1 1.56-.38 2.52 2.52 0 0 1 1.71.6 1.94 1.94 0 0 1 .69 1.53 2.1 2.1 0 0 1-.69 1.62 2.49 2.49 0 0 1-1.75.63 2.93 2.93 0 0 1-1.32-.26 4.11 4.11 0 0 1-1.13-.84zM272 425.42a4.55 4.55 0 0 1 .21-1.38 3.85 3.85 0 0 1 .58-1.15 2.74 2.74 0 0 1 .92-.79 2.61 2.61 0 0 1 2.4 0 2.67 2.67 0 0 1 .92.79 3.87 3.87 0 0 1 .57 1.15 4.64 4.64 0 0 1 .21 1.39 4.55 4.55 0 0 1-.21 1.38 3.87 3.87 0 0 1-.58 1.15 2.72 2.72 0 0 1-.92.79 2.6 2.6 0 0 1-2.4 0 2.7 2.7 0 0 1-.92-.79 3.87 3.87 0 0 1-.57-1.15 4.64 4.64 0 0 1-.21-1.39zm.54 0a4.14 4.14 0 0 0 .17 1.18 3.63 3.63 0 0 0 .47 1 2.33 2.33 0 0 0 .75.7 2 2 0 0 0 2 0 2.26 2.26 0 0 0 .75-.7 3.59 3.59 0 0 0 .46-1 4.22 4.22 0 0 0 .17-1.18 4.16 4.16 0 0 0-.17-1.18 3.57 3.57 0 0 0-.47-1 2.33 2.33 0 0 0-.75-.7 1.91 1.91 0 0 0-1-.26 2 2 0 0 0-.8.17 2 2 0 0 0-.65.47 3.09 3.09 0 0 0-.48.69 3.49 3.49 0 0 0-.31.86 4.46 4.46 0 0 0-.13.95zM279.32 427.26a5.23 5.23 0 0 1-.21-1.67 5.07 5.07 0 0 1 .35-1.91 3.2 3.2 0 0 1 1-1.37 2.38 2.38 0 0 1 1.5-.51 2.63 2.63 0 0 1 1 .21 4.21 4.21 0 0 1 1 .61l-.33.4a3.46 3.46 0 0 0-.84-.56 2.14 2.14 0 0 0-.89-.19 1.91 1.91 0 0 0-1.66 1 4.49 4.49 0 0 0-.63 2.5v.17a2.42 2.42 0 0 1 2.19-1.3 2.67 2.67 0 0 1 1.18.27 2.22 2.22 0 0 1 .89.76 1.93 1.93 0 0 1 .34 1.11 2.21 2.21 0 0 1-.32 1.18 2.25 2.25 0 0 1-.88.83 2.72 2.72 0 0 1-2.24.11 2.36 2.36 0 0 1-.79-.51 2.81 2.81 0 0 1-.66-1.13zm.52-.45a1.61 1.61 0 0 0 .57 1.25 2 2 0 0 0 1.41.5 1.81 1.81 0 0 0 1.35-.53 1.77 1.77 0 0 0 .52-1.3 1.55 1.55 0 0 0-.54-1.21 2 2 0 0 0-1.36-.48 2.06 2.06 0 0 0-.79.15 1.92 1.92 0 0 0-.62.4 1.84 1.84 0 0 0-.4.56 1.55 1.55 0 0 0-.15.66zM.85 161.42a4.55 4.55 0 0 1 .2-1.42 3.85 3.85 0 0 1 .58-1.15 2.74 2.74 0 0 1 .92-.79 2.53 2.53 0 0 1 1.2-.29 2.51 2.51 0 0 1 1.2.29 2.67 2.67 0 0 1 .92.79 3.87 3.87 0 0 1 .57 1.15 4.64 4.64 0 0 1 .21 1.39 4.55 4.55 0 0 1-.21 1.38 3.87 3.87 0 0 1-.58 1.15 2.72 2.72 0 0 1-.92.79 2.52 2.52 0 0 1-1.2.3 2.5 2.5 0 0 1-1.2-.29 2.7 2.7 0 0 1-.92-.79 3.87 3.87 0 0 1-.57-1.15 4.64 4.64 0 0 1-.2-1.36zm.54 0a4.14 4.14 0 0 0 .17 1.18 3.63 3.63 0 0 0 .47 1 2.33 2.33 0 0 0 .75.7 2 2 0 0 0 2 0 2.26 2.26 0 0 0 .75-.7 3.59 3.59 0 0 0 .46-1 4.22 4.22 0 0 0 .17-1.18 4.16 4.16 0 0 0-.17-1.18 3.57 3.57 0 0 0-.47-1 2.33 2.33 0 0 0-.75-.7 1.91 1.91 0 0 0-1-.26 2 2 0 0 0-.8.17 2 2 0 0 0-.65.47 3.09 3.09 0 0 0-.48.69 3.49 3.49 0 0 0-.31.86 4.46 4.46 0 0 0-.14.95zM8.15 163.26a5.23 5.23 0 0 1-.21-1.67 5.07 5.07 0 0 1 .35-1.91 3.2 3.2 0 0 1 1-1.37 2.38 2.38 0 0 1 1.5-.51 2.63 2.63 0 0 1 1 .21 4.21 4.21 0 0 1 1 .61l-.33.4a3.46 3.46 0 0 0-.84-.56 2.14 2.14 0 0 0-.89-.19 1.91 1.91 0 0 0-1.66 1 4.49 4.49 0 0 0-.63 2.5v.17a2.42 2.42 0 0 1 2.19-1.3 2.67 2.67 0 0 1 1.18.27 2.22 2.22 0 0 1 .89.76 1.93 1.93 0 0 1 .34 1.11 2.21 2.21 0 0 1-.32 1.18 2.25 2.25 0 0 1-.88.83 2.72 2.72 0 0 1-2.24.11 2.36 2.36 0 0 1-.79-.51 2.81 2.81 0 0 1-.66-1.13zm.52-.45a1.61 1.61 0 0 0 .57 1.25 2 2 0 0 0 1.41.5A1.81 1.81 0 0 0 12 164a1.77 1.77 0 0 0 .52-1.3 1.55 1.55 0 0 0-.54-1.21 2 2 0 0 0-1.36-.48 2.06 2.06 0 0 0-.79.15 1.92 1.92 0 0 0-.62.4 1.84 1.84 0 0 0-.4.56 1.55 1.55 0 0 0-.14.69zM315.7 425.42a4.55 4.55 0 0 1 .21-1.38 3.85 3.85 0 0 1 .58-1.15 2.74 2.74 0 0 1 .92-.79 2.61 2.61 0 0 1 2.4 0 2.67 2.67 0 0 1 .92.79 3.87 3.87 0 0 1 .57 1.15 4.64 4.64 0 0 1 .21 1.39 4.55 4.55 0 0 1-.21 1.38 3.87 3.87 0 0 1-.58 1.15 2.72 2.72 0 0 1-.92.79 2.6 2.6 0 0 1-2.4 0 2.7 2.7 0 0 1-.92-.79 3.87 3.87 0 0 1-.57-1.15 4.64 4.64 0 0 1-.21-1.39zm.54 0a4.14 4.14 0 0 0 .17 1.18 3.63 3.63 0 0 0 .47 1 2.33 2.33 0 0 0 .75.7 2 2 0 0 0 2 0 2.26 2.26 0 0 0 .75-.7 3.59 3.59 0 0 0 .46-1 4.22 4.22 0 0 0 .17-1.18 4.16 4.16 0 0 0-.17-1.18 3.57 3.57 0 0 0-.47-1 2.33 2.33 0 0 0-.75-.7 1.91 1.91 0 0 0-1-.26 2 2 0 0 0-.8.17 2 2 0 0 0-.65.47 3.09 3.09 0 0 0-.48.69 3.49 3.49 0 0 0-.31.86 4.46 4.46 0 0 0-.13.95zM322.53 422.4v-.48h4.64v.37l-3.17 6.63h-.57l3.18-6.52zM1.61 115.17a4.55 4.55 0 0 1 .21-1.38 3.85 3.85 0 0 1 .58-1.15 2.74 2.74 0 0 1 .92-.79 2.61 2.61 0 0 1 2.4 0 2.67 2.67 0 0 1 .92.79 3.87 3.87 0 0 1 .57 1.15 4.64 4.64 0 0 1 .21 1.39 4.55 4.55 0 0 1-.21 1.38 3.87 3.87 0 0 1-.58 1.15 2.72 2.72 0 0 1-.92.79 2.6 2.6 0 0 1-2.4 0 2.7 2.7 0 0 1-.92-.79 3.87 3.87 0 0 1-.57-1.15 4.64 4.64 0 0 1-.21-1.39zm.54 0a4.14 4.14 0 0 0 .17 1.18 3.63 3.63 0 0 0 .47 1 2.33 2.33 0 0 0 .75.7 2 2 0 0 0 2 0 2.26 2.26 0 0 0 .75-.7 3.59 3.59 0 0 0 .46-1 4.22 4.22 0 0 0 .17-1.18A4.16 4.16 0 0 0 6.7 114a3.57 3.57 0 0 0-.47-1 2.33 2.33 0 0 0-.75-.7 1.91 1.91 0 0 0-1-.26 2 2 0 0 0-.8.17 2 2 0 0 0-.65.47 3.09 3.09 0 0 0-.48.69 3.49 3.49 0 0 0-.31.86 4.46 4.46 0 0 0-.09.94zM8.44 112.15v-.48h4.64v.33l-3.19 6.64h-.57l3.18-6.52zM353.36 425.42a4.55 4.55 0 0 1 .21-1.38 3.85 3.85 0 0 1 .58-1.15 2.74 2.74 0 0 1 .92-.79 2.61 2.61 0 0 1 2.4 0 2.67 2.67 0 0 1 .92.79A3.87 3.87 0 0 1 359 424a4.64 4.64 0 0 1 .21 1.39 4.55 4.55 0 0 1-.21 1.38 3.87 3.87 0 0 1-.58 1.15 2.72 2.72 0 0 1-.92.79 2.6 2.6 0 0 1-2.4 0 2.7 2.7 0 0 1-.92-.79 3.87 3.87 0 0 1-.57-1.15 4.64 4.64 0 0 1-.25-1.35zm.54 0a4.14 4.14 0 0 0 .17 1.18 3.63 3.63 0 0 0 .47 1 2.33 2.33 0 0 0 .75.7 2 2 0 0 0 2 0 2.26 2.26 0 0 0 .75-.7 3.59 3.59 0 0 0 .46-1 4.22 4.22 0 0 0 .17-1.18 4.16 4.16 0 0 0-.17-1.18 3.57 3.57 0 0 0-.47-1 2.33 2.33 0 0 0-.75-.7 1.91 1.91 0 0 0-1-.26 2 2 0 0 0-.8.17 2 2 0 0 0-.65.47 3.09 3.09 0 0 0-.48.69 3.49 3.49 0 0 0-.31.86 4.46 4.46 0 0 0-.14.95zM360.36 427a1.49 1.49 0 0 1 .43-1 2.61 2.61 0 0 1 1.12-.68 2.49 2.49 0 0 1-.94-.65 1.46 1.46 0 0 1-.37-1 1.49 1.49 0 0 1 .34-1 2.18 2.18 0 0 1 .87-.65 3 3 0 0 1 2.29 0 2.19 2.19 0 0 1 .87.66 1.52 1.52 0 0 1 .34 1 1.43 1.43 0 0 1-.37 1 2.52 2.52 0 0 1-.94.64 2.6 2.6 0 0 1 1.12.68 1.51 1.51 0 0 1 .43 1.06 1.65 1.65 0 0 1-.34 1 2.23 2.23 0 0 1-.94.7 3.42 3.42 0 0 1-1.27.24 3 3 0 0 1-1.86-.56 1.71 1.71 0 0 1-.78-1.44zm.54 0a1.28 1.28 0 0 0 .56 1 2.41 2.41 0 0 0 1.5.43 2.38 2.38 0 0 0 1.5-.43 1.31 1.31 0 0 0 .54-1 1.27 1.27 0 0 0-.6-1.07 2.71 2.71 0 0 0-2.92 0 1.29 1.29 0 0 0-.58 1.14zm.24-3.4a1.25 1.25 0 0 0 .53 1 2.26 2.26 0 0 0 2.58 0 1.27 1.27 0 0 0 .53-1.05 1.17 1.17 0 0 0-.53-1 2.13 2.13 0 0 0-1.3-.39 2.11 2.11 0 0 0-1.3.39 1.19 1.19 0 0 0-.51 1.12zM1 68.92a4.55 4.55 0 0 1 .21-1.38 3.85 3.85 0 0 1 .58-1.15 2.74 2.74 0 0 1 .92-.79 2.53 2.53 0 0 1 1.2-.29 2.51 2.51 0 0 1 1.2.29 2.67 2.67 0 0 1 .92.79 3.87 3.87 0 0 1 .57 1.15 4.64 4.64 0 0 1 .21 1.39 4.55 4.55 0 0 1-.21 1.38 3.87 3.87 0 0 1-.6 1.14 2.72 2.72 0 0 1-.92.79 2.52 2.52 0 0 1-1.2.3 2.5 2.5 0 0 1-1.2-.29 2.7 2.7 0 0 1-.92-.79 3.87 3.87 0 0 1-.57-1.15A4.64 4.64 0 0 1 1 68.92zm.54 0a4.14 4.14 0 0 0 .17 1.18 3.63 3.63 0 0 0 .47 1 2.33 2.33 0 0 0 .75.7 2 2 0 0 0 2 0 2.26 2.26 0 0 0 .75-.7 3.59 3.59 0 0 0 .46-1 4.22 4.22 0 0 0 .17-1.18A4.16 4.16 0 0 0 6 67.74a3.57 3.57 0 0 0-.47-1 2.33 2.33 0 0 0-.75-.7 1.91 1.91 0 0 0-1-.26 2 2 0 0 0-.8.17 2 2 0 0 0-.65.47 3.09 3.09 0 0 0-.48.69 3.49 3.49 0 0 0-.25.89 4.46 4.46 0 0 0-.11.92zM8 70.53a1.49 1.49 0 0 1 .43-1 2.61 2.61 0 0 1 1.07-.73 2.49 2.49 0 0 1-.94-.65 1.46 1.46 0 0 1-.37-1 1.49 1.49 0 0 1 .34-1 2.18 2.18 0 0 1 .87-.65 3 3 0 0 1 2.29 0 2.19 2.19 0 0 1 .87.66 1.52 1.52 0 0 1 .34 1 1.43 1.43 0 0 1-.37 1 2.52 2.52 0 0 1-.94.64 2.6 2.6 0 0 1 1.12.68 1.51 1.51 0 0 1 .43 1.06 1.65 1.65 0 0 1-.34 1 2.23 2.23 0 0 1-.94.7 3.42 3.42 0 0 1-1.32.25A3 3 0 0 1 8.7 72a1.71 1.71 0 0 1-.7-1.47zm.54 0a1.28 1.28 0 0 0 .56 1 2.41 2.41 0 0 0 1.5.43 2.38 2.38 0 0 0 1.5-.43 1.31 1.31 0 0 0 .56-1.06 1.27 1.27 0 0 0-.6-1.07 2.45 2.45 0 0 0-1.51-.4 2.44 2.44 0 0 0-1.46.43 1.29 1.29 0 0 0-.6 1.14zm.24-3.4a1.25 1.25 0 0 0 .53 1 2.06 2.06 0 0 0 1.29.41 2.05 2.05 0 0 0 1.29-.41 1.27 1.27 0 0 0 .53-1.05 1.17 1.17 0 0 0-.53-1 2.13 2.13 0 0 0-1.3-.39 2.11 2.11 0 0 0-1.3.39 1.19 1.19 0 0 0-.56 1.09zM.85 22.67a4.55 4.55 0 0 1 .21-1.38 3.85 3.85 0 0 1 .58-1.15 2.74 2.74 0 0 1 .92-.79 2.53 2.53 0 0 1 1.2-.35 2.51 2.51 0 0 1 1.2.29 2.67 2.67 0 0 1 .92.79 3.87 3.87 0 0 1 .57 1.15 4.64 4.64 0 0 1 .21 1.39A4.55 4.55 0 0 1 6.44 24a3.87 3.87 0 0 1-.58 1.15 2.72 2.72 0 0 1-.92.79 2.52 2.52 0 0 1-1.2.3 2.5 2.5 0 0 1-1.2-.24 2.7 2.7 0 0 1-.92-.79 3.87 3.87 0 0 1-.57-1.15 4.64 4.64 0 0 1-.2-1.39zm.54 0a4.14 4.14 0 0 0 .17 1.18 3.63 3.63 0 0 0 .47 1 2.33 2.33 0 0 0 .75.7 2 2 0 0 0 2 0 2.26 2.26 0 0 0 .75-.7 3.59 3.59 0 0 0 .46-1 4.22 4.22 0 0 0 .17-1.18 4.16 4.16 0 0 0-.17-1.18 3.57 3.57 0 0 0-.47-1 2.33 2.33 0 0 0-.75-.7 1.91 1.91 0 0 0-1-.26 2 2 0 0 0-.8.17 2 2 0 0 0-.65.47 3.09 3.09 0 0 0-.48.69 3.49 3.49 0 0 0-.31.86 4.46 4.46 0 0 0-.14.95zM8 21.4a2.25 2.25 0 0 1 .69-1.67 2.41 2.41 0 0 1 1.73-.73 2.42 2.42 0 0 1 1.78.71 2.79 2.79 0 0 1 .65 1.08 5.22 5.22 0 0 1 .22 1.67 4.92 4.92 0 0 1-.37 2 3.2 3.2 0 0 1-1 1.35 2.38 2.38 0 0 1-1.46.48 2.66 2.66 0 0 1-1.11-.23 4.41 4.41 0 0 1-1-.64l.33-.4a2.69 2.69 0 0 0 1.79.8 2 2 0 0 0 1.67-.94 4.19 4.19 0 0 0 .65-2.43v-.24a2.37 2.37 0 0 1-2.18 1.35 2.49 2.49 0 0 1-1.74-.62A2 2 0 0 1 8 21.4zm.54 0A1.56 1.56 0 0 0 9 22.61a2 2 0 0 0 1.36.48 2.1 2.1 0 0 0 .81-.15 1.84 1.84 0 0 0 .62-.41 1.91 1.91 0 0 0 .39-.58 1.66 1.66 0 0 0 .14-.66 1.64 1.64 0 0 0-.54-1.29 2 2 0 0 0-1.42-.52 1.91 1.91 0 0 0-.77.15 1.67 1.67 0 0 0-.59.41 2 2 0 0 0-.5 1.31z" transform="translate(-.65)"/><circle class="cls-6" cx="70.31" cy="346.25" r="2.39"/><circle class="cls-7" cx="84.31" cy="346.25" r="2.39"/><circle class="cls-8" cx="98.32" cy="346.25" r="2.39"/><circle class="cls-9" cx="112.32" cy="346.25" r="2.39"/><circle class="cls-6" cx="84.25" cy="300.54" r="2.39"/><circle class="cls-7" cx="101.93" cy="300.54" r="2.39"/><circle class="cls-8" cx="119.61" cy="300.54" r="2.39"/><circle class="cls-9" cx="137.3" cy="300.54" r="2.39"/><circle class="cls-6" cx="103.75" cy="253.13" r="2.39"/><circle class="cls-7" cx="126.1" cy="253.13" r="2.39"/><circle class="cls-8" cx="148.45" cy="253.13" r="2.39"/><circle class="cls-9" cx="170.8" cy="253.13" r="2.39"/><circle class="cls-6" cx="128.83" cy="207.84" r="2.39"/><circle class="cls-7" cx="155.15" cy="207.84" r="2.39"/><circle class="cls-8" cx="181.47" cy="207.84" r="2.39"/><circle class="cls-9" cx="207.79" cy="207.84" r="2.39"/><circle class="cls-6" cx="145.83" cy="162.52" r="2.39"/><circle class="cls-7" cx="174.48" cy="162.52" r="2.39"/><circle class="cls-8" cx="203.13" cy="162.52" r="2.39"/><circle class="cls-9" cx="231.79" cy="162.52" r="2.39"/><circle class="cls-6" cx="157.83" cy="115.42" r="2.39"/><circle class="cls-7" cx="191.82" cy="115.42" r="2.39"/><circle class="cls-8" cx="225.82" cy="115.42" r="2.39"/><circle class="cls-9" cx="259.81" cy="115.42" r="2.39"/><circle class="cls-6" cx="181.77" cy="69" r="2.39"/><circle class="cls-7" cx="224.77" cy="69" r="2.39"/><circle class="cls-8" cx="267.78" cy="69" r="2.39"/><circle class="cls-9" cx="310.79" cy="69" r="2.39"/><circle class="cls-6" cx="212.8" cy="22.9" r="2.39"/><circle class="cls-7" cx="260.46" cy="22.9" r="2.39"/><circle class="cls-8" cx="308.12" cy="22.9" r="2.39"/><circle class="cls-9" cx="355.77" cy="22.9" r="2.39"/><circle class="cls-6" cx="57.79" cy="391.93" r="2.39"/><circle class="cls-7" cx="67.13" cy="391.93" r="2.39"/><circle class="cls-8" cx="76.47" cy="391.93" r="2.39"/><circle class="cls-9" cx="85.81" cy="391.93" r="2.39"/></g></g></svg>