<svg xmlns="http://www.w3.org/2000/svg" viewBox="0 0 364.66 429.04"><defs><style>.cls-1{fill:none;stroke:#888;stroke-width:.25px}.cls-2,.cls-3,.cls-4,.cls-5{fill:#fff;stroke:#939393;stroke-miterlimit:10}.cls-2,.cls-3{stroke-width:.22px}.cls-4{stroke-width:.31px}.cls-5{stroke-width:.23px}.cls-6{fill:#888}.cls-7{fill:#5b5b5b}.cls-8{fill:#4687e0}.cls-9{fill:#f4b162}.cls-10{fill:#7b76c6}.cls-11{fill:#53dad3}</style></defs><title>dahu_19-27.svg</title><g id="Слой_2" data-name="Слой 2"><g id="Layer_1" data-name="Layer 1"><path class="cls-1" d="M364.17 415.56V0m-303 416V0M17.35 369.36h346.8m-347-45.86h347m-347-46h347m-347-47h347m-347-45.83H364.2M17.15 92.15H364.2M17.15 45.89h347M17.15.14H364.2M191.17 416V0m43 416V0m44 416V0m43 415V0M147.59 415.53V.09m-43.27 0v415.4m-87.19-277h347M17.17 0v415.5h347" transform="translate(-.47)"/><path class="cls-2" d="M27.67 384.43h68.77v15H27.67zM43.4 339h74.3v15H43.4z"/><path class="cls-3" d="M55.22 293.07h85.65V308H55.22z"/><path class="cls-4" d="M94.55 200.34h112.88v15H94.55z"/><path class="cls-2" d="M112.2 155.02h116v15h-116zM136.88 107.92h137v15h-137zM158.7 61.5h158.25v15H158.7z"/><path class="cls-5" d="M180.86 15.4h182.83v15H180.86z"/><path class="cls-6" d="M10.58 427.78l.4-.33a2.69 2.69 0 0 0 2.18 1.12 1.79 1.79 0 0 0 1.23-.44 1.44 1.44 0 0 0 .5-1.13 1.28 1.28 0 0 0-.6-1.12 2.79 2.79 0 0 0-1.58-.4h-.38l-.13-.29 2.41-2.78h-3.67v-.48h4.38v.36L13 425a4.56 4.56 0 0 1 .71.1 3.2 3.2 0 0 1 .67.24 2.39 2.39 0 0 1 .57.38 1.61 1.61 0 0 1 .39.55 1.8 1.8 0 0 1 .15.73 1.87 1.87 0 0 1-.32 1.07 2.08 2.08 0 0 1-.84.73 2.55 2.55 0 0 1-1.13.25 3.14 3.14 0 0 1-1.47-.34 3.28 3.28 0 0 1-1.15-.93zM16.79 425.42A4.55 4.55 0 0 1 17 424a3.85 3.85 0 0 1 .58-1.15 2.74 2.74 0 0 1 .92-.79 2.61 2.61 0 0 1 2.4 0 2.67 2.67 0 0 1 .92.79 3.87 3.87 0 0 1 .57 1.15 4.64 4.64 0 0 1 .21 1.39 4.55 4.55 0 0 1-.21 1.38 3.87 3.87 0 0 1-.58 1.15 2.72 2.72 0 0 1-.92.79 2.6 2.6 0 0 1-2.4 0 2.7 2.7 0 0 1-.92-.79 3.87 3.87 0 0 1-.57-1.15 4.64 4.64 0 0 1-.21-1.35zm.54 0a4.14 4.14 0 0 0 .17 1.18 3.63 3.63 0 0 0 .47 1 2.33 2.33 0 0 0 .75.7 2 2 0 0 0 2 0 2.26 2.26 0 0 0 .75-.7 3.59 3.59 0 0 0 .46-1 4.22 4.22 0 0 0 .17-1.18 4.16 4.16 0 0 0-.17-1.18 3.57 3.57 0 0 0-.47-1 2.33 2.33 0 0 0-.75-.7 1.91 1.91 0 0 0-1-.26 2 2 0 0 0-.8.17 2 2 0 0 0-.65.47 3.09 3.09 0 0 0-.48.69 3.49 3.49 0 0 0-.31.86 4.46 4.46 0 0 0-.14.95zM3.53 389.71l1.6-.59h.4v7.05H5v-6.51l-1.35.46zM7.24 391.4a2.25 2.25 0 0 1 .69-1.67A2.41 2.41 0 0 1 9.7 389a2.42 2.42 0 0 1 1.78.71 2.79 2.79 0 0 1 .65 1.08 5.22 5.22 0 0 1 .22 1.67 4.92 4.92 0 0 1-.37 2 3.2 3.2 0 0 1-1 1.35 2.38 2.38 0 0 1-1.46.48 2.66 2.66 0 0 1-1.11-.23 4.41 4.41 0 0 1-1-.64l.33-.4a2.69 2.69 0 0 0 1.79.8 2 2 0 0 0 1.67-.94 4.19 4.19 0 0 0 .65-2.43v-.24a2.37 2.37 0 0 1-2.18 1.35 2.49 2.49 0 0 1-1.74-.62 2 2 0 0 1-.69-1.54zm.54 0a1.56 1.56 0 0 0 .54 1.22 2 2 0 0 0 1.36.48 2.1 2.1 0 0 0 .81-.15 1.84 1.84 0 0 0 .62-.41 1.91 1.91 0 0 0 .39-.58 1.66 1.66 0 0 0 .14-.66 1.64 1.64 0 0 0-.56-1.27 2 2 0 0 0-1.42-.52 1.91 1.91 0 0 0-.77.15 1.67 1.67 0 0 0-.59.41 2 2 0 0 0-.5 1.31zM56.19 426.82l4-5h.47v4.89h1.14v.45h-1.14v1.71h-.5v-1.71h-3.79zm.63-.06h3.34v-4.14zM62.9 427a1.49 1.49 0 0 1 .43-1 2.61 2.61 0 0 1 1.12-.68 2.49 2.49 0 0 1-.94-.65 1.46 1.46 0 0 1-.37-1 1.49 1.49 0 0 1 .34-1 2.18 2.18 0 0 1 .87-.65 3 3 0 0 1 2.29 0 2.19 2.19 0 0 1 .87.66 1.52 1.52 0 0 1 .34 1 1.43 1.43 0 0 1-.37 1 2.52 2.52 0 0 1-.94.64 2.6 2.6 0 0 1 1.12.68 1.51 1.51 0 0 1 .44 1 1.65 1.65 0 0 1-.34 1 2.23 2.23 0 0 1-.94.7 3.42 3.42 0 0 1-1.32.25 3 3 0 0 1-1.86-.56 1.71 1.71 0 0 1-.74-1.39zm.54 0a1.28 1.28 0 0 0 .56 1 2.41 2.41 0 0 0 1.5.43A2.38 2.38 0 0 0 67 428a1.31 1.31 0 0 0 .56-1.06A1.27 1.27 0 0 0 67 426a2.71 2.71 0 0 0-3 0 1.29 1.29 0 0 0-.57 1.07zm.24-3.4a1.25 1.25 0 0 0 .53 1 2.26 2.26 0 0 0 2.58 0 1.27 1.27 0 0 0 .53-1.05 1.17 1.17 0 0 0-.53-1 2.13 2.13 0 0 0-1.3-.39 2.11 2.11 0 0 0-1.3.39 1.19 1.19 0 0 0-.52 1.12z" transform="translate(-.47)"/><path class="cls-7" d="M109.21 393l4.4-5.45h.52v5.38h1.25v.49h-1.25v1.88h-.55v-1.88h-4.17zm.69-.06h3.67v-4.55zM116.58 394l.44-.37a3 3 0 0 0 2.39 1.23 2 2 0 0 0 1.35-.48 1.58 1.58 0 0 0 .55-1.24 1.41 1.41 0 0 0-.66-1.24 3.07 3.07 0 0 0-1.73-.44h-.42l-.15-.32 2.65-3.06h-4v-.53h4.82v.4l-2.61 3a5 5 0 0 1 .78.11 3.48 3.48 0 0 1 .73.26 2.63 2.63 0 0 1 .63.42 1.79 1.79 0 0 1 .43.61 2 2 0 0 1 .16.81 2.05 2.05 0 0 1-.35 1.17 2.28 2.28 0 0 1-.92.8 2.8 2.8 0 0 1-1.24.28 3.46 3.46 0 0 1-1.62-.37 3.6 3.6 0 0 1-1.23-1.04zM126.52 393l4.4-5.45h.52v5.38h1.25v.49h-1.25v1.88h-.55v-1.88h-4.17zm.69-.06h3.67v-4.55zM134 391.44a5 5 0 0 1 .23-1.52 4.25 4.25 0 0 1 .63-1.27 3 3 0 0 1 1-.87 2.87 2.87 0 0 1 2.64 0 3 3 0 0 1 1 .87 4.24 4.24 0 0 1 .63 1.27 5.09 5.09 0 0 1 .23 1.53 5 5 0 0 1-.23 1.52 4.29 4.29 0 0 1-.63 1.27 3 3 0 0 1-1 .87 2.86 2.86 0 0 1-2.64 0 3 3 0 0 1-1-.87 4.24 4.24 0 0 1-.63-1.27 5.1 5.1 0 0 1-.23-1.53zm.6 0a4.5 4.5 0 0 0 .19 1.29 3.91 3.91 0 0 0 .52 1.11 2.54 2.54 0 0 0 .83.77 2.15 2.15 0 0 0 2.15 0 2.49 2.49 0 0 0 .82-.77 3.93 3.93 0 0 0 .51-1.11 4.61 4.61 0 0 0 .18-1.3 4.53 4.53 0 0 0-.19-1.3 3.86 3.86 0 0 0-.52-1.11 2.56 2.56 0 0 0-.83-.77 2.1 2.1 0 0 0-1.08-.29 2.12 2.12 0 0 0-.88.19 2.21 2.21 0 0 0-.72.51 3.44 3.44 0 0 0-.53.76 3.81 3.81 0 0 0-.34.95 4.83 4.83 0 0 0-.11 1.07zM141.81 391.44a5 5 0 0 1 .23-1.52 4.25 4.25 0 0 1 .63-1.27 3 3 0 0 1 1-.87 2.87 2.87 0 0 1 2.64 0 3 3 0 0 1 1 .87 4.24 4.24 0 0 1 .63 1.27 5.09 5.09 0 0 1 .23 1.53A5 5 0 0 1 148 393a4.29 4.29 0 0 1-.63 1.27 3 3 0 0 1-1 .87 2.86 2.86 0 0 1-2.64 0 3 3 0 0 1-1-.87A4.24 4.24 0 0 1 142 393a5.1 5.1 0 0 1-.19-1.56zm.6 0a4.5 4.5 0 0 0 .19 1.29 3.91 3.91 0 0 0 .52 1.11 2.54 2.54 0 0 0 .83.77 2.15 2.15 0 0 0 2.15 0 2.49 2.49 0 0 0 .82-.77 3.93 3.93 0 0 0 .51-1.11 4.61 4.61 0 0 0 .18-1.3 4.53 4.53 0 0 0-.19-1.3 3.86 3.86 0 0 0-.52-1.11 2.56 2.56 0 0 0-.83-.77A2.1 2.1 0 0 0 145 388a2.12 2.12 0 0 0-.88.19 2.21 2.21 0 0 0-.72.51 3.44 3.44 0 0 0-.53.76 3.81 3.81 0 0 0-.34.95 4.83 4.83 0 0 0-.12 1.03zM130.7 348.39l.41-.41a3.3 3.3 0 0 0 2.31 1.13 2.05 2.05 0 0 0 1.49-.56 1.86 1.86 0 0 0 .58-1.39 1.66 1.66 0 0 0-.59-1.31 2.25 2.25 0 0 0-1.52-.51 3.61 3.61 0 0 0-1.74.48l-.44-.29.22-3.73h4.32v.53h-3.83l-.19 2.9a3.86 3.86 0 0 1 1.71-.41 2.78 2.78 0 0 1 1.89.66 2.13 2.13 0 0 1 .76 1.69 2.3 2.3 0 0 1-.76 1.78 2.74 2.74 0 0 1-1.93.7 3.24 3.24 0 0 1-1.44-.35 4.55 4.55 0 0 1-1.25-.91zM137.06 342.39l1.76-.65h.44v7.76h-.55v-7.16l-1.49.51zM144.31 348.25l.44-.37a3 3 0 0 0 2.39 1.23 2 2 0 0 0 1.35-.48 1.58 1.58 0 0 0 .55-1.24 1.41 1.41 0 0 0-.66-1.24 3.07 3.07 0 0 0-1.73-.44h-.42l-.15-.32 2.65-3.06h-4v-.53h4.82v.4l-2.61 3a5 5 0 0 1 .78.11 3.48 3.48 0 0 1 .73.26 2.63 2.63 0 0 1 .63.42 1.79 1.79 0 0 1 .43.61 2 2 0 0 1 .16.81 2.05 2.05 0 0 1-.35 1.17 2.28 2.28 0 0 1-.92.8 2.8 2.8 0 0 1-1.24.28 3.46 3.46 0 0 1-1.62-.37 3.6 3.6 0 0 1-1.23-1.04zM151.13 345.65a5 5 0 0 1 .23-1.52 4.25 4.25 0 0 1 .63-1.27 3 3 0 0 1 1-.87 2.87 2.87 0 0 1 2.64 0 3 3 0 0 1 1 .87 4.24 4.24 0 0 1 .63 1.27 5.09 5.09 0 0 1 .23 1.53 5 5 0 0 1-.23 1.52 4.29 4.29 0 0 1-.63 1.27 3 3 0 0 1-1 .87 2.86 2.86 0 0 1-2.64 0 3 3 0 0 1-1-.87 4.24 4.24 0 0 1-.63-1.27 5.1 5.1 0 0 1-.23-1.53zm.6 0a4.5 4.5 0 0 0 .19 1.29 3.91 3.91 0 0 0 .52 1.11 2.54 2.54 0 0 0 .83.77 2.15 2.15 0 0 0 2.15 0 2.49 2.49 0 0 0 .82-.77 3.93 3.93 0 0 0 .51-1.11 4.61 4.61 0 0 0 .18-1.3 4.53 4.53 0 0 0-.19-1.3 3.86 3.86 0 0 0-.52-1.11 2.56 2.56 0 0 0-.83-.77 2.1 2.1 0 0 0-1.08-.29 2.12 2.12 0 0 0-.88.19 2.21 2.21 0 0 0-.72.51 3.44 3.44 0 0 0-.53.76 3.81 3.81 0 0 0-.34.95 4.83 4.83 0 0 0-.11 1.07zM158.94 345.65a5 5 0 0 1 .23-1.52 4.25 4.25 0 0 1 .63-1.27 3 3 0 0 1 1-.87 2.87 2.87 0 0 1 2.64 0 3 3 0 0 1 1 .87 4.24 4.24 0 0 1 .63 1.27 5.09 5.09 0 0 1 .23 1.53 5 5 0 0 1-.23 1.52 4.29 4.29 0 0 1-.63 1.27 3 3 0 0 1-1 .87 2.86 2.86 0 0 1-2.64 0 3 3 0 0 1-1-.87 4.24 4.24 0 0 1-.63-1.27 5.1 5.1 0 0 1-.23-1.53zm.6 0a4.5 4.5 0 0 0 .19 1.29 3.91 3.91 0 0 0 .52 1.11 2.54 2.54 0 0 0 .83.77 2.15 2.15 0 0 0 2.15 0 2.49 2.49 0 0 0 .82-.77 3.93 3.93 0 0 0 .51-1.11 4.61 4.61 0 0 0 .18-1.3 4.53 4.53 0 0 0-.19-1.3 3.86 3.86 0 0 0-.52-1.11 2.56 2.56 0 0 0-.83-.77 2.1 2.1 0 0 0-1.08-.29 2.12 2.12 0 0 0-.88.19 2.21 2.21 0 0 0-.72.51 3.44 3.44 0 0 0-.53.76 3.81 3.81 0 0 0-.34.95 4.83 4.83 0 0 0-.11 1.07zM154 302.87l.41-.41a3.3 3.3 0 0 0 2.31 1.13 2.05 2.05 0 0 0 1.49-.56 1.86 1.86 0 0 0 .58-1.39 1.66 1.66 0 0 0-.59-1.31 2.25 2.25 0 0 0-1.52-.51 3.62 3.62 0 0 0-1.74.48l-.44-.29.22-3.73H159v.53h-3.83l-.19 2.9a3.86 3.86 0 0 1 1.71-.41 2.78 2.78 0 0 1 1.89.66 2.13 2.13 0 0 1 .76 1.69 2.31 2.31 0 0 1-.76 1.78 2.74 2.74 0 0 1-1.93.7 3.25 3.25 0 0 1-1.45-.35 4.58 4.58 0 0 1-1.2-.91zM160.6 301.9a1.63 1.63 0 0 1 .47-1.15 2.87 2.87 0 0 1 1.23-.75 2.74 2.74 0 0 1-1-.71 1.61 1.61 0 0 1-.4-1.1 1.64 1.64 0 0 1 .37-1 2.38 2.38 0 0 1 1-.72 3.3 3.3 0 0 1 2.52 0 2.39 2.39 0 0 1 1 .72 1.67 1.67 0 0 1 .37 1.06 1.57 1.57 0 0 1-.4 1.09 2.77 2.77 0 0 1-1 .71 2.86 2.86 0 0 1 1.24.75 1.66 1.66 0 0 1 .47 1.17 1.81 1.81 0 0 1-.38 1.13 2.43 2.43 0 0 1-1 .77 3.75 3.75 0 0 1-1.45.27 3.31 3.31 0 0 1-2-.61 1.88 1.88 0 0 1-1.04-1.63zm.59 0a1.41 1.41 0 0 0 .62 1.15 2.64 2.64 0 0 0 1.65.47 2.62 2.62 0 0 0 1.65-.48 1.43 1.43 0 0 0 .62-1.17 1.41 1.41 0 0 0-.66-1.18 3 3 0 0 0-3.22 0 1.42 1.42 0 0 0-.66 1.26zm.26-3.74a1.38 1.38 0 0 0 .58 1.14 2.48 2.48 0 0 0 2.84 0 1.4 1.4 0 0 0 .58-1.16 1.28 1.28 0 0 0-.58-1.07 2.59 2.59 0 0 0-2.85 0 1.31 1.31 0 0 0-.56 1.14zM170.94 300.13a5 5 0 0 1 .23-1.52 4.27 4.27 0 0 1 .63-1.27 3 3 0 0 1 1-.87 2.87 2.87 0 0 1 2.64 0 3 3 0 0 1 1 .87 4.24 4.24 0 0 1 .63 1.27 5.09 5.09 0 0 1 .23 1.53 5 5 0 0 1-.23 1.52 4.29 4.29 0 0 1-.63 1.27 3 3 0 0 1-1 .87 2.86 2.86 0 0 1-2.64 0 3 3 0 0 1-1-.87 4.24 4.24 0 0 1-.63-1.27 5.1 5.1 0 0 1-.23-1.53zm.6 0a4.5 4.5 0 0 0 .19 1.29 3.91 3.91 0 0 0 .52 1.11 2.54 2.54 0 0 0 .83.77 2.15 2.15 0 0 0 2.15 0 2.48 2.48 0 0 0 .82-.77 3.9 3.9 0 0 0 .51-1.11 4.61 4.61 0 0 0 .18-1.3 4.53 4.53 0 0 0-.19-1.3 3.86 3.86 0 0 0-.52-1.11 2.55 2.55 0 0 0-.83-.77 2.1 2.1 0 0 0-1.08-.29 2.12 2.12 0 0 0-.88.19 2.19 2.19 0 0 0-.72.51 3.41 3.41 0 0 0-.53.76 3.84 3.84 0 0 0-.34.95 4.89 4.89 0 0 0-.12 1.07zM178.75 300.13a5 5 0 0 1 .23-1.52 4.27 4.27 0 0 1 .63-1.27 3 3 0 0 1 1-.87 2.87 2.87 0 0 1 2.64 0 3 3 0 0 1 1 .87 4.24 4.24 0 0 1 .63 1.27 5.09 5.09 0 0 1 .23 1.53 5 5 0 0 1-.23 1.52 4.29 4.29 0 0 1-.63 1.27 3 3 0 0 1-1 .87 2.86 2.86 0 0 1-2.64 0 3 3 0 0 1-1-.87 4.24 4.24 0 0 1-.63-1.27 5.1 5.1 0 0 1-.23-1.53zm.6 0a4.5 4.5 0 0 0 .19 1.29 3.91 3.91 0 0 0 .52 1.11 2.54 2.54 0 0 0 .83.77 2.15 2.15 0 0 0 2.15 0 2.48 2.48 0 0 0 .82-.77 3.9 3.9 0 0 0 .51-1.11 4.61 4.61 0 0 0 .18-1.3 4.53 4.53 0 0 0-.19-1.3 3.86 3.86 0 0 0-.52-1.11 2.55 2.55 0 0 0-.84-.71 2.1 2.1 0 0 0-1.08-.29 2.12 2.12 0 0 0-.88.19 2.19 2.19 0 0 0-.72.51 3.41 3.41 0 0 0-.53.76 3.84 3.84 0 0 0-.34.95 4.89 4.89 0 0 0-.11 1.01zM186.55 300.13a5 5 0 0 1 .23-1.52 4.27 4.27 0 0 1 .63-1.27 3 3 0 0 1 1-.87 2.87 2.87 0 0 1 2.64 0 3 3 0 0 1 1 .87 4.24 4.24 0 0 1 .63 1.27 5.09 5.09 0 0 1 .23 1.53 5 5 0 0 1-.23 1.52 4.29 4.29 0 0 1-.63 1.27 3 3 0 0 1-1 .87 2.86 2.86 0 0 1-2.64 0 3 3 0 0 1-1-.87 4.24 4.24 0 0 1-.63-1.27 5.1 5.1 0 0 1-.23-1.53zm.6 0a4.5 4.5 0 0 0 .19 1.29 3.91 3.91 0 0 0 .52 1.11 2.54 2.54 0 0 0 .83.77 2.15 2.15 0 0 0 2.15 0 2.48 2.48 0 0 0 .82-.77 3.9 3.9 0 0 0 .51-1.11 4.61 4.61 0 0 0 .18-1.3 4.53 4.53 0 0 0-.19-1.3 3.86 3.86 0 0 0-.52-1.11 2.55 2.55 0 0 0-.83-.77 2.1 2.1 0 0 0-1.08-.29 2.12 2.12 0 0 0-.88.19 2.19 2.19 0 0 0-.72.51 3.41 3.41 0 0 0-.53.76 3.84 3.84 0 0 0-.34.95 4.89 4.89 0 0 0-.11 1.07zM183.48 256.47a5.78 5.78 0 0 1-.24-1.84 5.59 5.59 0 0 1 .38-2.11 3.52 3.52 0 0 1 1.1-1.5 2.63 2.63 0 0 1 1.65-.56 2.88 2.88 0 0 1 1.15.23 4.57 4.57 0 0 1 1.07.67l-.36.44a3.77 3.77 0 0 0-.92-.61 2.37 2.37 0 0 0-1-.2 2.1 2.1 0 0 0-1.83 1.06 4.94 4.94 0 0 0-.69 2.75v.2a2.66 2.66 0 0 1 2.41-1.43 3 3 0 0 1 1.3.29 2.46 2.46 0 0 1 1 .84 2.12 2.12 0 0 1 .37 1.22 2.43 2.43 0 0 1-.35 1.29 2.48 2.48 0 0 1-1 .91 3 3 0 0 1-2.46.12 2.6 2.6 0 0 1-.87-.56 3.1 3.1 0 0 1-.71-1.21zm.57-.5a1.77 1.77 0 0 0 .62 1.38 2.25 2.25 0 0 0 1.55.55 2 2 0 0 0 1.49-.58 2 2 0 0 0 .57-1.43 1.7 1.7 0 0 0-.59-1.33 2.17 2.17 0 0 0-1.5-.53 2.26 2.26 0 0 0-.87.17 2.12 2.12 0 0 0-.68.44 2 2 0 0 0-.43.62 1.7 1.7 0 0 0-.16.74zM190.07 251.12v-.53h5.11v.4l-3.51 7.3H191l3.5-7.17zM199.71 257.18l.41-.41a3.3 3.3 0 0 0 2.31 1.13 2.05 2.05 0 0 0 1.49-.56 1.86 1.86 0 0 0 .58-1.39 1.66 1.66 0 0 0-.59-1.31 2.25 2.25 0 0 0-1.52-.51 3.61 3.61 0 0 0-1.74.48l-.44-.29.22-3.73h4.32v.53h-3.83l-.19 2.9a3.86 3.86 0 0 1 1.71-.41 2.78 2.78 0 0 1 1.89.66 2.13 2.13 0 0 1 .76 1.69 2.3 2.3 0 0 1-.76 1.78 2.74 2.74 0 0 1-1.93.7 3.24 3.24 0 0 1-1.44-.35 4.55 4.55 0 0 1-1.25-.91zM206.45 254.44a5 5 0 0 1 .23-1.52 4.25 4.25 0 0 1 .63-1.27 3 3 0 0 1 1-.87 2.87 2.87 0 0 1 2.64 0 3 3 0 0 1 1 .87 4.24 4.24 0 0 1 .63 1.27 5.09 5.09 0 0 1 .23 1.53 5 5 0 0 1-.23 1.52 4.29 4.29 0 0 1-.63 1.27 3 3 0 0 1-1 .87 2.86 2.86 0 0 1-2.64 0 3 3 0 0 1-1-.87 4.24 4.24 0 0 1-.63-1.27 5.1 5.1 0 0 1-.23-1.53zm.6 0a4.5 4.5 0 0 0 .19 1.29 3.91 3.91 0 0 0 .52 1.11 2.54 2.54 0 0 0 .83.77 2.15 2.15 0 0 0 2.15 0 2.49 2.49 0 0 0 .82-.77 3.93 3.93 0 0 0 .51-1.11 4.61 4.61 0 0 0 .18-1.3 4.53 4.53 0 0 0-.19-1.3 3.86 3.86 0 0 0-.52-1.11 2.56 2.56 0 0 0-.83-.77 2.1 2.1 0 0 0-1.08-.29 2.12 2.12 0 0 0-.88.19 2.21 2.21 0 0 0-.72.51 3.44 3.44 0 0 0-.53.76 3.81 3.81 0 0 0-.34.95 4.83 4.83 0 0 0-.16 1.07zM214.26 254.44a5 5 0 0 1 .23-1.52 4.25 4.25 0 0 1 .63-1.27 3 3 0 0 1 1-.87 2.87 2.87 0 0 1 2.64 0 3 3 0 0 1 1 .87 4.24 4.24 0 0 1 .63 1.27 5.09 5.09 0 0 1 .23 1.53 5 5 0 0 1-.23 1.52 4.29 4.29 0 0 1-.63 1.27 3 3 0 0 1-1 .87 2.86 2.86 0 0 1-2.64 0 3 3 0 0 1-1-.87 4.24 4.24 0 0 1-.63-1.27 5.1 5.1 0 0 1-.23-1.53zm.6 0a4.5 4.5 0 0 0 .19 1.29 3.91 3.91 0 0 0 .52 1.11 2.54 2.54 0 0 0 .83.77 2.15 2.15 0 0 0 2.15 0 2.49 2.49 0 0 0 .82-.77 3.93 3.93 0 0 0 .51-1.11 4.61 4.61 0 0 0 .18-1.3 4.53 4.53 0 0 0-.19-1.3 3.86 3.86 0 0 0-.52-1.11 2.56 2.56 0 0 0-.83-.77 2.1 2.1 0 0 0-1.08-.29 2.12 2.12 0 0 0-.88.19 2.21 2.21 0 0 0-.72.51 3.44 3.44 0 0 0-.53.76 3.81 3.81 0 0 0-.34.95 4.83 4.83 0 0 0-.12 1.07zM220.14 204.5v-.5h5.11v.4l-3.51 7.3h-.63l3.5-7.17zM226.35 209.59a1.63 1.63 0 0 1 .47-1.15 2.87 2.87 0 0 1 1.23-.75 2.72 2.72 0 0 1-1-.71 1.6 1.6 0 0 1-.4-1.1 1.65 1.65 0 0 1 .37-1 2.39 2.39 0 0 1 1-.72 3.3 3.3 0 0 1 2.52 0 2.39 2.39 0 0 1 1 .72 1.67 1.67 0 0 1 .37 1.06 1.57 1.57 0 0 1-.4 1.09 2.78 2.78 0 0 1-1 .71 2.87 2.87 0 0 1 1.24.75 1.66 1.66 0 0 1 .47 1.17 1.81 1.81 0 0 1-.38 1.13 2.43 2.43 0 0 1-1 .77 3.75 3.75 0 0 1-1.45.27 3.31 3.31 0 0 1-2-.61 1.88 1.88 0 0 1-1.04-1.63zm.59 0a1.41 1.41 0 0 0 .62 1.15 3.09 3.09 0 0 0 3.29 0 1.43 1.43 0 0 0 .62-1.17 1.4 1.4 0 0 0-.66-1.18 3 3 0 0 0-3.22 0 1.42 1.42 0 0 0-.65 1.24zm.26-3.74a1.38 1.38 0 0 0 .58 1.14 2.48 2.48 0 0 0 2.84 0 1.4 1.4 0 0 0 .58-1.16 1.28 1.28 0 0 0-.58-1.07 2.59 2.59 0 0 0-2.85 0 1.31 1.31 0 0 0-.57 1.13zM236.68 207.82a5 5 0 0 1 .23-1.52 4.25 4.25 0 0 1 .63-1.27 3 3 0 0 1 1-.87 2.87 2.87 0 0 1 2.64 0 3 3 0 0 1 1 .87 4.24 4.24 0 0 1 .63 1.27 5.09 5.09 0 0 1 .23 1.53 5 5 0 0 1-.23 1.52 4.29 4.29 0 0 1-.63 1.27 3 3 0 0 1-1 .87 2.86 2.86 0 0 1-2.64 0 3 3 0 0 1-1-.87 4.24 4.24 0 0 1-.63-1.27 5.1 5.1 0 0 1-.23-1.53zm.6 0a4.5 4.5 0 0 0 .19 1.29 3.91 3.91 0 0 0 .52 1.11 2.54 2.54 0 0 0 .83.77 2.15 2.15 0 0 0 2.15 0 2.49 2.49 0 0 0 .82-.77 3.93 3.93 0 0 0 .51-1.11 4.61 4.61 0 0 0 .18-1.3 4.53 4.53 0 0 0-.19-1.3 3.86 3.86 0 0 0-.52-1.11 2.56 2.56 0 0 0-.83-.77 2.1 2.1 0 0 0-1.08-.29 2.12 2.12 0 0 0-.88.19 2.21 2.21 0 0 0-.72.51 3.44 3.44 0 0 0-.53.76 3.81 3.81 0 0 0-.34.95 4.83 4.83 0 0 0-.11 1.07zM244.49 207.82a5 5 0 0 1 .23-1.52 4.25 4.25 0 0 1 .63-1.27 3 3 0 0 1 1-.87 2.87 2.87 0 0 1 2.64 0 3 3 0 0 1 1 .87 4.24 4.24 0 0 1 .63 1.27 5.09 5.09 0 0 1 .23 1.53 5 5 0 0 1-.23 1.52 4.29 4.29 0 0 1-.63 1.27 3 3 0 0 1-1 .87 2.86 2.86 0 0 1-2.64 0 3 3 0 0 1-1-.87 4.24 4.24 0 0 1-.63-1.27 5.1 5.1 0 0 1-.23-1.53zm.6 0a4.5 4.5 0 0 0 .19 1.29 3.91 3.91 0 0 0 .52 1.11 2.54 2.54 0 0 0 .83.77 2.15 2.15 0 0 0 2.15 0 2.49 2.49 0 0 0 .82-.77 3.93 3.93 0 0 0 .51-1.11 4.61 4.61 0 0 0 .18-1.3 4.53 4.53 0 0 0-.19-1.3 3.86 3.86 0 0 0-.52-1.11 2.56 2.56 0 0 0-.83-.77 2.1 2.1 0 0 0-1.08-.29 2.12 2.12 0 0 0-.88.19 2.21 2.21 0 0 0-.72.51 3.44 3.44 0 0 0-.53.76 3.81 3.81 0 0 0-.34.95 4.83 4.83 0 0 0-.11 1.07zM252.3 207.82a5 5 0 0 1 .23-1.52 4.25 4.25 0 0 1 .63-1.27 3 3 0 0 1 1-.87 2.87 2.87 0 0 1 2.64 0 3 3 0 0 1 1 .87 4.24 4.24 0 0 1 .63 1.27 5.09 5.09 0 0 1 .23 1.53 5 5 0 0 1-.23 1.52 4.29 4.29 0 0 1-.63 1.27 3 3 0 0 1-1 .87 2.86 2.86 0 0 1-2.64 0 3 3 0 0 1-1-.87 4.24 4.24 0 0 1-.63-1.27 5.1 5.1 0 0 1-.23-1.53zm.6 0a4.5 4.5 0 0 0 .19 1.29 3.91 3.91 0 0 0 .52 1.11 2.54 2.54 0 0 0 .83.77 2.15 2.15 0 0 0 2.15 0 2.49 2.49 0 0 0 .82-.77 3.93 3.93 0 0 0 .51-1.11 4.61 4.61 0 0 0 .18-1.3 4.53 4.53 0 0 0-.19-1.3 3.86 3.86 0 0 0-.52-1.11 2.56 2.56 0 0 0-.83-.77 2.1 2.1 0 0 0-1.08-.29 2.12 2.12 0 0 0-.88.19 2.21 2.21 0 0 0-.72.51 3.44 3.44 0 0 0-.53.76 3.81 3.81 0 0 0-.34.95 4.83 4.83 0 0 0-.11 1.07zM241.36 164.09a1.63 1.63 0 0 1 .47-1.15 2.87 2.87 0 0 1 1.23-.75 2.72 2.72 0 0 1-1-.71 1.6 1.6 0 0 1-.4-1.1 1.65 1.65 0 0 1 .37-1 2.39 2.39 0 0 1 1-.72 3.3 3.3 0 0 1 2.52 0 2.39 2.39 0 0 1 1 .72 1.67 1.67 0 0 1 .37 1.06 1.57 1.57 0 0 1-.4 1.09 2.78 2.78 0 0 1-1 .71 2.87 2.87 0 0 1 1.24.75 1.66 1.66 0 0 1 .47 1.17 1.81 1.81 0 0 1-.38 1.13 2.43 2.43 0 0 1-1 .77 3.75 3.75 0 0 1-1.45.27 3.31 3.31 0 0 1-2-.61 1.88 1.88 0 0 1-1.04-1.63zm.59 0a1.41 1.41 0 0 0 .62 1.15 3.09 3.09 0 0 0 3.29 0 1.43 1.43 0 0 0 .62-1.17 1.4 1.4 0 0 0-.66-1.18 3 3 0 0 0-3.22 0 1.42 1.42 0 0 0-.65 1.24zm.26-3.74a1.38 1.38 0 0 0 .58 1.14 2.48 2.48 0 0 0 2.84 0 1.4 1.4 0 0 0 .58-1.16 1.28 1.28 0 0 0-.58-1.07 2.59 2.59 0 0 0-2.85 0 1.31 1.31 0 0 0-.57 1.13zM248.2 163.86l4.4-5.45h.52v5.38h1.25v.49h-1.25v1.88h-.55v-1.88h-4.17zm.69-.06h3.67v-4.55zM259 159v-.53h5.11v.4l-3.51 7.3h-.6l3.5-7.17zM265.23 162.32a5 5 0 0 1 .23-1.52 4.25 4.25 0 0 1 .63-1.27 3 3 0 0 1 1-.87 2.87 2.87 0 0 1 2.64 0 3 3 0 0 1 1 .87 4.24 4.24 0 0 1 .63 1.27 5.09 5.09 0 0 1 .23 1.53 5 5 0 0 1-.23 1.52 4.29 4.29 0 0 1-.63 1.27 3 3 0 0 1-1 .87 2.86 2.86 0 0 1-2.64 0 3 3 0 0 1-1-.87 4.24 4.24 0 0 1-.63-1.27 5.1 5.1 0 0 1-.23-1.53zm.6 0a4.5 4.5 0 0 0 .19 1.29 3.91 3.91 0 0 0 .52 1.11 2.54 2.54 0 0 0 .83.77 2.15 2.15 0 0 0 2.15 0 2.49 2.49 0 0 0 .82-.77 3.93 3.93 0 0 0 .51-1.11 4.61 4.61 0 0 0 .18-1.3 4.53 4.53 0 0 0-.19-1.3 3.86 3.86 0 0 0-.52-1.11 2.56 2.56 0 0 0-.83-.77 2.1 2.1 0 0 0-1.08-.29 2.12 2.12 0 0 0-.88.19 2.21 2.21 0 0 0-.72.51 3.44 3.44 0 0 0-.53.76 3.81 3.81 0 0 0-.34.95 4.83 4.83 0 0 0-.12 1.07zM273 162.32a5 5 0 0 1 .23-1.52 4.25 4.25 0 0 1 .63-1.27 3 3 0 0 1 1-.87 2.87 2.87 0 0 1 2.64 0 3 3 0 0 1 1 .87 4.24 4.24 0 0 1 .63 1.27 5.09 5.09 0 0 1 .23 1.53 5 5 0 0 1-.23 1.52 4.29 4.29 0 0 1-.63 1.27 3 3 0 0 1-1 .87 2.86 2.86 0 0 1-2.64 0 3 3 0 0 1-1-.87 4.24 4.24 0 0 1-.63-1.27 5.1 5.1 0 0 1-.23-1.53zm.6 0a4.5 4.5 0 0 0 .19 1.29 3.91 3.91 0 0 0 .52 1.11 2.54 2.54 0 0 0 .83.77 2.15 2.15 0 0 0 2.15 0 2.49 2.49 0 0 0 .82-.77 3.93 3.93 0 0 0 .51-1.11 4.61 4.61 0 0 0 .18-1.3 4.53 4.53 0 0 0-.19-1.3 3.86 3.86 0 0 0-.52-1.11 2.56 2.56 0 0 0-.83-.77 2.1 2.1 0 0 0-1.08-.29 2.12 2.12 0 0 0-.88.19 2.21 2.21 0 0 0-.72.51 3.44 3.44 0 0 0-.53.76 3.81 3.81 0 0 0-.34.95 4.83 4.83 0 0 0-.08 1.07zM85.77 113a2.47 2.47 0 0 1 .76-1.83 2.88 2.88 0 0 1 3.9 0 3.06 3.06 0 0 1 .72 1.19 5.71 5.71 0 0 1 .25 1.83 5.39 5.39 0 0 1-.41 2.15 3.53 3.53 0 0 1-1.12 1.49 2.63 2.63 0 0 1-1.6.53 2.92 2.92 0 0 1-1.22-.25 4.76 4.76 0 0 1-1.1-.71l.37-.44a3 3 0 0 0 2 .88 2.15 2.15 0 0 0 1.84-1 4.6 4.6 0 0 0 .71-2.67v-.26a2.61 2.61 0 0 1-2.4 1.48 2.75 2.75 0 0 1-1.91-.68 2.19 2.19 0 0 1-.79-1.71zm.6 0a1.73 1.73 0 0 0 .63 1.3 2.16 2.16 0 0 0 1.5.53 2.28 2.28 0 0 0 .89-.17 2 2 0 0 0 .68-.45 2.09 2.09 0 0 0 .42-.63 1.85 1.85 0 0 0-.47-2.12 2.23 2.23 0 0 0-1.57-.57 2.12 2.12 0 0 0-.85.17 1.85 1.85 0 0 0-.65.46 2.17 2.17 0 0 0-.55 1.44zM92.71 116.13a1.63 1.63 0 0 1 .47-1.15 2.87 2.87 0 0 1 1.23-.75 2.72 2.72 0 0 1-1-.71 1.6 1.6 0 0 1-.4-1.1 1.65 1.65 0 0 1 .37-1 2.39 2.39 0 0 1 1-.72 3.3 3.3 0 0 1 2.52 0 2.39 2.39 0 0 1 1 .72 1.67 1.67 0 0 1 .37 1.06 1.57 1.57 0 0 1-.4 1.09 2.78 2.78 0 0 1-1 .71A2.87 2.87 0 0 1 98 115a1.66 1.66 0 0 1 .47 1.17 1.81 1.81 0 0 1-.38 1.13 2.43 2.43 0 0 1-1 .77 3.75 3.75 0 0 1-1.45.27 3.31 3.31 0 0 1-2-.61 1.88 1.88 0 0 1-.93-1.6zm.59 0a1.41 1.41 0 0 0 .62 1.15 3.09 3.09 0 0 0 3.29 0 1.43 1.43 0 0 0 .62-1.17 1.4 1.4 0 0 0-.66-1.18A3 3 0 0 0 94 115a1.42 1.42 0 0 0-.7 1.17zm.26-3.74a1.38 1.38 0 0 0 .58 1.14 2.48 2.48 0 0 0 2.84 0 1.4 1.4 0 0 0 .58-1.16 1.28 1.28 0 0 0-.58-1.07 2.59 2.59 0 0 0-2.85 0 1.31 1.31 0 0 0-.57 1.14zM103 114.36a5 5 0 0 1 .23-1.52 4.25 4.25 0 0 1 .63-1.27 3 3 0 0 1 1-.87 2.87 2.87 0 0 1 2.64 0 3 3 0 0 1 1 .87 4.24 4.24 0 0 1 .63 1.27 5.09 5.09 0 0 1 .23 1.53 5 5 0 0 1-.23 1.52 4.29 4.29 0 0 1-.63 1.27 3 3 0 0 1-1 .87 2.86 2.86 0 0 1-2.64 0 3 3 0 0 1-1-.87 4.24 4.24 0 0 1-.63-1.27 5.1 5.1 0 0 1-.23-1.53zm.6 0a4.5 4.5 0 0 0 .19 1.29 3.91 3.91 0 0 0 .52 1.11 2.54 2.54 0 0 0 .83.77 2.15 2.15 0 0 0 2.15 0 2.49 2.49 0 0 0 .82-.77 3.93 3.93 0 0 0 .51-1.11 4.61 4.61 0 0 0 .18-1.3 4.53 4.53 0 0 0-.19-1.3 3.86 3.86 0 0 0-.52-1.11 2.56 2.56 0 0 0-.83-.77 2.1 2.1 0 0 0-1.08-.29 2.12 2.12 0 0 0-.88.19 2.21 2.21 0 0 0-.72.51 3.44 3.44 0 0 0-.53.76 3.81 3.81 0 0 0-.34.95 4.83 4.83 0 0 0-.07 1.07zM110.85 114.36a5 5 0 0 1 .23-1.52 4.25 4.25 0 0 1 .63-1.27 3 3 0 0 1 1-.87 2.87 2.87 0 0 1 2.64 0 3 3 0 0 1 1 .87 4.24 4.24 0 0 1 .63 1.27 5.09 5.09 0 0 1 .23 1.53 5 5 0 0 1-.23 1.52 4.29 4.29 0 0 1-.63 1.27 3 3 0 0 1-1 .87 2.86 2.86 0 0 1-2.64 0 3 3 0 0 1-1-.87 4.24 4.24 0 0 1-.63-1.27 5.1 5.1 0 0 1-.23-1.53zm.6 0a4.5 4.5 0 0 0 .19 1.29 3.91 3.91 0 0 0 .52 1.11 2.54 2.54 0 0 0 .83.77 2.15 2.15 0 0 0 2.15 0 2.49 2.49 0 0 0 .82-.77 3.93 3.93 0 0 0 .51-1.11 4.61 4.61 0 0 0 .18-1.3 4.53 4.53 0 0 0-.19-1.3 3.86 3.86 0 0 0-.52-1.11 2.56 2.56 0 0 0-.83-.77 2.1 2.1 0 0 0-1.08-.29 2.12 2.12 0 0 0-.88.19 2.21 2.21 0 0 0-.72.51 3.44 3.44 0 0 0-.53.76 3.81 3.81 0 0 0-.34.95 4.83 4.83 0 0 0-.11 1.07zM118.66 114.36a5 5 0 0 1 .23-1.52 4.25 4.25 0 0 1 .63-1.27 3 3 0 0 1 1-.87 2.87 2.87 0 0 1 2.64 0 3 3 0 0 1 1 .87 4.24 4.24 0 0 1 .63 1.27 5.09 5.09 0 0 1 .23 1.53 5 5 0 0 1-.23 1.52 4.29 4.29 0 0 1-.63 1.27 3 3 0 0 1-1 .87 2.86 2.86 0 0 1-2.64 0 3 3 0 0 1-1-.87 4.24 4.24 0 0 1-.63-1.27 5.1 5.1 0 0 1-.23-1.53zm.6 0a4.5 4.5 0 0 0 .19 1.29 3.91 3.91 0 0 0 .52 1.11 2.54 2.54 0 0 0 .83.77 2.15 2.15 0 0 0 2.15 0 2.49 2.49 0 0 0 .82-.77 3.93 3.93 0 0 0 .51-1.11 4.61 4.61 0 0 0 .18-1.3 4.53 4.53 0 0 0-.19-1.3 3.86 3.86 0 0 0-.52-1.11 2.56 2.56 0 0 0-.83-.77 2.1 2.1 0 0 0-1.08-.29 2.12 2.12 0 0 0-.88.19 2.21 2.21 0 0 0-.72.51 3.44 3.44 0 0 0-.53.76 3.81 3.81 0 0 0-.34.95 4.83 4.83 0 0 0-.12 1.07zM109.81 64.6l1.76-.65h.43v7.76h-.55v-7.16l-1.49.51zM113.49 64.6l1.76-.65h.44v7.76h-.55v-7.16l-1.49.51zM117.18 64.6l1.76-.65h.44v7.76h-.55v-7.16l-1.49.51zM124.54 67.86a5 5 0 0 1 .23-1.52 4.25 4.25 0 0 1 .63-1.27 3 3 0 0 1 1-.87 2.87 2.87 0 0 1 2.64 0 3 3 0 0 1 1 .87 4.24 4.24 0 0 1 .63 1.27 5.09 5.09 0 0 1 .23 1.53 5 5 0 0 1-.23 1.52 4.29 4.29 0 0 1-.63 1.27 3 3 0 0 1-1 .87 2.86 2.86 0 0 1-2.64 0 3 3 0 0 1-1-.87 4.24 4.24 0 0 1-.63-1.27 5.1 5.1 0 0 1-.23-1.53zm.6 0a4.5 4.5 0 0 0 .19 1.29 3.91 3.91 0 0 0 .52 1.11 2.54 2.54 0 0 0 .83.77 2.15 2.15 0 0 0 2.15 0 2.49 2.49 0 0 0 .82-.77 3.93 3.93 0 0 0 .51-1.11 4.61 4.61 0 0 0 .18-1.3 4.53 4.53 0 0 0-.19-1.3 3.86 3.86 0 0 0-.52-1.11 2.56 2.56 0 0 0-.83-.77 2.1 2.1 0 0 0-1.08-.29 2.12 2.12 0 0 0-.88.19 2.21 2.21 0 0 0-.72.51 3.44 3.44 0 0 0-.53.76 3.81 3.81 0 0 0-.34.95 4.83 4.83 0 0 0-.11 1.07zM132.35 67.86a5 5 0 0 1 .23-1.52 4.25 4.25 0 0 1 .63-1.27 3 3 0 0 1 1-.87 2.87 2.87 0 0 1 2.64 0 3 3 0 0 1 1 .87 4.24 4.24 0 0 1 .63 1.27 5.09 5.09 0 0 1 .23 1.53 5 5 0 0 1-.23 1.52 4.29 4.29 0 0 1-.63 1.27 3 3 0 0 1-1 .87 2.86 2.86 0 0 1-2.64 0 3 3 0 0 1-1-.87 4.24 4.24 0 0 1-.63-1.27 5.1 5.1 0 0 1-.23-1.53zm.6 0a4.5 4.5 0 0 0 .19 1.29 3.91 3.91 0 0 0 .52 1.11 2.54 2.54 0 0 0 .83.77 2.15 2.15 0 0 0 2.15 0 2.49 2.49 0 0 0 .82-.77 3.93 3.93 0 0 0 .51-1.11 4.61 4.61 0 0 0 .18-1.3 4.53 4.53 0 0 0-.19-1.3 3.86 3.86 0 0 0-.52-1.11 2.56 2.56 0 0 0-.83-.77 2.1 2.1 0 0 0-1.08-.29 2.12 2.12 0 0 0-.88.19 2.21 2.21 0 0 0-.72.51 3.44 3.44 0 0 0-.53.76 3.81 3.81 0 0 0-.34.95 4.83 4.83 0 0 0-.06 1.07zM140.16 67.86a5 5 0 0 1 .23-1.52 4.25 4.25 0 0 1 .63-1.27 3 3 0 0 1 1-.87 2.87 2.87 0 0 1 2.64 0 3 3 0 0 1 1 .87 4.24 4.24 0 0 1 .63 1.27 5.09 5.09 0 0 1 .23 1.53 5 5 0 0 1-.23 1.52 4.29 4.29 0 0 1-.63 1.27 3 3 0 0 1-1 .87 2.86 2.86 0 0 1-2.64 0 3 3 0 0 1-1-.87 4.24 4.24 0 0 1-.63-1.27 5.1 5.1 0 0 1-.23-1.53zm.6 0a4.5 4.5 0 0 0 .19 1.29 3.91 3.91 0 0 0 .52 1.11 2.54 2.54 0 0 0 .83.77 2.15 2.15 0 0 0 2.15 0 2.49 2.49 0 0 0 .82-.77 3.93 3.93 0 0 0 .51-1.11 4.61 4.61 0 0 0 .18-1.3 4.53 4.53 0 0 0-.19-1.3 3.86 3.86 0 0 0-.52-1.11 2.56 2.56 0 0 0-.83-.77 2.1 2.1 0 0 0-1.08-.29 2.12 2.12 0 0 0-.88.19 2.21 2.21 0 0 0-.72.51 3.44 3.44 0 0 0-.53.76 3.81 3.81 0 0 0-.34.95 4.83 4.83 0 0 0-.11 1.07zM125.87 18.6l1.76-.65h.44v7.76h-.55v-7.16l-1.49.51zM129.74 25.71v-.42l2.88-2.6a8.26 8.26 0 0 0 1.38-1.44 2.16 2.16 0 0 0 .37-1.19 1.53 1.53 0 0 0-.51-1.19 1.76 1.76 0 0 0-1.22-.46 2.15 2.15 0 0 0-1.23.35 4 4 0 0 0-1 1.08l-.43-.29a5.73 5.73 0 0 1 .53-.69 3.4 3.4 0 0 1 .58-.51 2.35 2.35 0 0 1 .73-.34 3.44 3.44 0 0 1 .9-.11 2.28 2.28 0 0 1 1.63.61 2 2 0 0 1 .65 1.53 2.48 2.48 0 0 1-.11.74 2.55 2.55 0 0 1-.36.7 6 6 0 0 1-.58.71q-.33.35-.88.84l-2.36 2.14H135v.53zM135.91 23.4l4.4-5.45h.52v5.38h1.25v.49h-1.25v1.88h-.55v-1.87h-4.17zm.69-.06h3.67v-4.56zM146.7 21.86a5 5 0 0 1 .23-1.52 4.25 4.25 0 0 1 .63-1.27 3 3 0 0 1 1-.87 2.87 2.87 0 0 1 2.64 0 3 3 0 0 1 1 .87 4.24 4.24 0 0 1 .63 1.27 5.09 5.09 0 0 1 .23 1.53 5 5 0 0 1-.23 1.52 4.29 4.29 0 0 1-.63 1.27 3 3 0 0 1-1 .87 2.86 2.86 0 0 1-2.64 0 3 3 0 0 1-1-.87 4.24 4.24 0 0 1-.63-1.27 5.1 5.1 0 0 1-.23-1.53zm.6 0a4.5 4.5 0 0 0 .19 1.29 3.91 3.91 0 0 0 .52 1.11 2.54 2.54 0 0 0 .83.77A2.15 2.15 0 0 0 151 25a2.49 2.49 0 0 0 .82-.77 3.93 3.93 0 0 0 .51-1.11 4.61 4.61 0 0 0 .18-1.3 4.53 4.53 0 0 0-.19-1.3 3.86 3.86 0 0 0-.52-1.11 2.56 2.56 0 0 0-.83-.77 2.1 2.1 0 0 0-1.08-.29 2.12 2.12 0 0 0-.88.19 2.21 2.21 0 0 0-.72.51 3.44 3.44 0 0 0-.53.76 3.81 3.81 0 0 0-.34.95 4.83 4.83 0 0 0-.13 1.1zM154.51 21.86a5 5 0 0 1 .23-1.52 4.25 4.25 0 0 1 .63-1.27 3 3 0 0 1 1-.87 2.87 2.87 0 0 1 2.64 0 3 3 0 0 1 1 .87 4.24 4.24 0 0 1 .63 1.27 5.09 5.09 0 0 1 .23 1.53 5 5 0 0 1-.23 1.52 4.29 4.29 0 0 1-.63 1.27 3 3 0 0 1-1 .87 2.86 2.86 0 0 1-2.64 0 3 3 0 0 1-1-.87 4.24 4.24 0 0 1-.63-1.27 5.1 5.1 0 0 1-.23-1.53zm.6 0a4.5 4.5 0 0 0 .19 1.29 3.91 3.91 0 0 0 .52 1.11 2.54 2.54 0 0 0 .83.77 2.15 2.15 0 0 0 2.15 0 2.49 2.49 0 0 0 .82-.77 3.93 3.93 0 0 0 .51-1.11 4.61 4.61 0 0 0 .18-1.3 4.53 4.53 0 0 0-.19-1.3 3.86 3.86 0 0 0-.52-1.11 2.56 2.56 0 0 0-.83-.77 2.1 2.1 0 0 0-1.08-.29 2.12 2.12 0 0 0-.88.19 2.21 2.21 0 0 0-.72.51 3.44 3.44 0 0 0-.53.76 3.81 3.81 0 0 0-.34.95 4.83 4.83 0 0 0-.12 1.07zM162.32 21.86a5 5 0 0 1 .23-1.52 4.25 4.25 0 0 1 .63-1.27 3 3 0 0 1 1-.87 2.87 2.87 0 0 1 2.64 0 3 3 0 0 1 1 .87 4.24 4.24 0 0 1 .63 1.27 5.09 5.09 0 0 1 .23 1.53 5 5 0 0 1-.23 1.52 4.29 4.29 0 0 1-.63 1.27 3 3 0 0 1-1 .87 2.86 2.86 0 0 1-2.64 0 3 3 0 0 1-1-.87 4.24 4.24 0 0 1-.63-1.27 5.1 5.1 0 0 1-.23-1.53zm.6 0a4.5 4.5 0 0 0 .19 1.29 3.91 3.91 0 0 0 .52 1.11 2.54 2.54 0 0 0 .83.77 2.15 2.15 0 0 0 2.15 0 2.49 2.49 0 0 0 .82-.77 3.93 3.93 0 0 0 .51-1.11 4.61 4.61 0 0 0 .18-1.3 4.53 4.53 0 0 0-.19-1.3 3.86 3.86 0 0 0-.52-1.11 2.56 2.56 0 0 0-.83-.77 2.1 2.1 0 0 0-1.08-.29 2.12 2.12 0 0 0-.88.19 2.21 2.21 0 0 0-.72.51 3.44 3.44 0 0 0-.53.76 3.81 3.81 0 0 0-.34.95 4.83 4.83 0 0 0-.12 1.07z" transform="translate(-.47)"/><path class="cls-6" d="M.47 349.92v-.38l2.62-2.36a7.55 7.55 0 0 0 1.21-1.32 2 2 0 0 0 .34-1.08 1.39 1.39 0 0 0-.46-1.08 1.61 1.61 0 0 0-1.11-.42 2 2 0 0 0-1.12.32 3.69 3.69 0 0 0-.93 1l-.39-.26a5.29 5.29 0 0 1 .48-.63 3.11 3.11 0 0 1 .53-.46 2.12 2.12 0 0 1 .66-.3 3 3 0 0 1 .82-.1 2.07 2.07 0 0 1 1.48.56 1.83 1.83 0 0 1 .59 1.39 2.29 2.29 0 0 1-.09.67 2.38 2.38 0 0 1-.33.64 5.5 5.5 0 0 1-.53.65q-.3.32-.8.77l-2.14 1.95h4v.48zM6.55 346.42a4.56 4.56 0 0 1 .21-1.42 3.86 3.86 0 0 1 .58-1.15 2.74 2.74 0 0 1 .92-.79 2.61 2.61 0 0 1 2.4 0 2.67 2.67 0 0 1 .92.79 3.88 3.88 0 0 1 .57 1.15 4.65 4.65 0 0 1 .21 1.39 4.54 4.54 0 0 1-.21 1.38 3.87 3.87 0 0 1-.58 1.15 2.71 2.71 0 0 1-.92.79 2.59 2.59 0 0 1-2.4 0 2.71 2.71 0 0 1-.92-.79 3.85 3.85 0 0 1-.57-1.15 4.63 4.63 0 0 1-.21-1.35zm.54 0a4.13 4.13 0 0 0 .17 1.18 3.61 3.61 0 0 0 .47 1 2.33 2.33 0 0 0 .75.7 2 2 0 0 0 2 0 2.26 2.26 0 0 0 .75-.7 3.57 3.57 0 0 0 .46-1 4.21 4.21 0 0 0 .17-1.18 4.16 4.16 0 0 0-.17-1.18 3.59 3.59 0 0 0-.47-1 2.34 2.34 0 0 0-.75-.7 1.91 1.91 0 0 0-1-.26 2 2 0 0 0-.8.17 2 2 0 0 0-.65.47 3.11 3.11 0 0 0-.48.69 3.49 3.49 0 0 0-.31.86 4.47 4.47 0 0 0-.14.95zM98.9 427.26a5.23 5.23 0 0 1-.21-1.67 5.07 5.07 0 0 1 .35-1.91 3.2 3.2 0 0 1 1-1.37 2.38 2.38 0 0 1 1.5-.51 2.63 2.63 0 0 1 1 .21 4.21 4.21 0 0 1 1 .61l-.33.4a3.46 3.46 0 0 0-.84-.56 2.14 2.14 0 0 0-.89-.19 1.91 1.91 0 0 0-1.66 1 4.49 4.49 0 0 0-.63 2.5v.17a2.42 2.42 0 0 1 2.19-1.3 2.67 2.67 0 0 1 1.18.27 2.22 2.22 0 0 1 .89.76 1.93 1.93 0 0 1 .34 1.11 2.21 2.21 0 0 1-.32 1.18 2.25 2.25 0 0 1-.88.83 2.72 2.72 0 0 1-2.24.11 2.36 2.36 0 0 1-.79-.51 2.81 2.81 0 0 1-.66-1.13zm.52-.45a1.61 1.61 0 0 0 .57 1.25 2 2 0 0 0 1.41.5 1.81 1.81 0 0 0 1.35-.53 1.77 1.77 0 0 0 .52-1.3 1.55 1.55 0 0 0-.54-1.21 2 2 0 0 0-1.36-.48 2.06 2.06 0 0 0-.79.15 1.92 1.92 0 0 0-.62.4 1.84 1.84 0 0 0-.4.56 1.55 1.55 0 0 0-.15.66zM105.31 427.26a5.23 5.23 0 0 1-.21-1.67 5.07 5.07 0 0 1 .35-1.91 3.2 3.2 0 0 1 1-1.37 2.38 2.38 0 0 1 1.5-.51 2.63 2.63 0 0 1 1 .21 4.21 4.21 0 0 1 1 .61l-.33.4a3.46 3.46 0 0 0-.84-.56 2.14 2.14 0 0 0-.89-.19 1.91 1.91 0 0 0-1.66 1 4.49 4.49 0 0 0-.63 2.5v.17a2.42 2.42 0 0 1 2.19-1.3 2.67 2.67 0 0 1 1.18.27 2.22 2.22 0 0 1 .89.76 1.93 1.93 0 0 1 .34 1.11 2.21 2.21 0 0 1-.32 1.18 2.25 2.25 0 0 1-.88.83 2.72 2.72 0 0 1-2.24.11 2.36 2.36 0 0 1-.79-.51 2.81 2.81 0 0 1-.66-1.13zm.52-.45a1.61 1.61 0 0 0 .57 1.25 2 2 0 0 0 1.41.5 1.81 1.81 0 0 0 1.35-.53 1.77 1.77 0 0 0 .52-1.3 1.55 1.55 0 0 0-.54-1.21 2 2 0 0 0-1.36-.48 2.06 2.06 0 0 0-.79.15 1.92 1.92 0 0 0-.62.4 1.84 1.84 0 0 0-.4.56 1.55 1.55 0 0 0-.14.66zM4.22 303.67v-.38l2.62-2.36A7.55 7.55 0 0 0 8 299.61a2 2 0 0 0 .34-1.08 1.39 1.39 0 0 0-.46-1.08 1.6 1.6 0 0 0-1.07-.45 2 2 0 0 0-1.12.32 3.67 3.67 0 0 0-.93 1l-.39-.26a5.31 5.31 0 0 1 .48-.63 3.1 3.1 0 0 1 .53-.46 2.1 2.1 0 0 1 .66-.31 3.08 3.08 0 0 1 .82-.1 2.07 2.07 0 0 1 1.48.56 1.83 1.83 0 0 1 .59 1.39 2.29 2.29 0 0 1-.09.67 2.35 2.35 0 0 1-.33.64 5.42 5.42 0 0 1-.53.65q-.3.32-.8.77L5 303.18h4v.48zM9.95 297.21l1.6-.59h.4v7.05h-.5v-6.51l-1.35.46zM142.93 427a1.49 1.49 0 0 1 .43-1 2.61 2.61 0 0 1 1.12-.68 2.49 2.49 0 0 1-.94-.65 1.46 1.46 0 0 1-.37-1 1.49 1.49 0 0 1 .34-1 2.18 2.18 0 0 1 .87-.65 3 3 0 0 1 2.29 0 2.19 2.19 0 0 1 .87.66 1.52 1.52 0 0 1 .34 1 1.43 1.43 0 0 1-.37 1 2.52 2.52 0 0 1-.94.64 2.6 2.6 0 0 1 1.12.68 1.51 1.51 0 0 1 .43 1.06 1.65 1.65 0 0 1-.34 1 2.23 2.23 0 0 1-.94.7 3.42 3.42 0 0 1-1.32.25 3 3 0 0 1-1.86-.56 1.71 1.71 0 0 1-.73-1.45zm.54 0a1.28 1.28 0 0 0 .56 1 2.41 2.41 0 0 0 1.5.43 2.38 2.38 0 0 0 1.5-.43 1.31 1.31 0 0 0 .56-1.06 1.27 1.27 0 0 0-.59-.94 2.71 2.71 0 0 0-2.92 0 1.29 1.29 0 0 0-.62 1.07zm.24-3.4a1.25 1.25 0 0 0 .53 1 2.26 2.26 0 0 0 2.58 0 1.27 1.27 0 0 0 .53-1.05 1.17 1.17 0 0 0-.53-1 2.13 2.13 0 0 0-1.3-.39 2.11 2.11 0 0 0-1.3.39 1.19 1.19 0 0 0-.52 1.12zM149.15 426.82l4-5h.47v4.89h1.14v.45h-1.14v1.71h-.5v-1.71h-3.79zm.63-.06h3.34v-4.14zM1.67 257.42V257l2.62-2.36a7.55 7.55 0 0 0 1.21-1.32 2 2 0 0 0 .34-1.08 1.39 1.39 0 0 0-.46-1.08 1.61 1.61 0 0 0-1.11-.42 2 2 0 0 0-1.12.32 3.69 3.69 0 0 0-.93 1l-.39-.26a5.29 5.29 0 0 1 .48-.63 3.11 3.11 0 0 1 .53-.46 2.12 2.12 0 0 1 .66-.3 3 3 0 0 1 .82-.1 2.07 2.07 0 0 1 1.48.56 1.83 1.83 0 0 1 .59 1.39 2.29 2.29 0 0 1-.09.67 2.38 2.38 0 0 1-.33.64 5.5 5.5 0 0 1-.53.65q-.3.32-.8.77l-2.14 1.95h4v.48zM7.57 257.42V257l2.62-2.36a7.55 7.55 0 0 0 1.21-1.32 2 2 0 0 0 .34-1.08 1.39 1.39 0 0 0-.46-1.08 1.61 1.61 0 0 0-1.11-.42 2 2 0 0 0-1.12.32 3.69 3.69 0 0 0-.93 1l-.39-.26a5.29 5.29 0 0 1 .48-.63 3.11 3.11 0 0 1 .53-.46 2.12 2.12 0 0 1 .66-.3 3 3 0 0 1 .82-.1 2.07 2.07 0 0 1 1.48.56 1.83 1.83 0 0 1 .59 1.39 2.29 2.29 0 0 1-.09.67 2.38 2.38 0 0 1-.33.64 5.5 5.5 0 0 1-.53.65q-.3.32-.8.77l-2.14 1.95h4v.48zM185 422.46l1.6-.59h.4v7.05h-.5v-6.51l-1.35.46zM188.71 425.42a4.55 4.55 0 0 1 .21-1.38 3.85 3.85 0 0 1 .58-1.15 2.74 2.74 0 0 1 .92-.79 2.61 2.61 0 0 1 2.4 0 2.67 2.67 0 0 1 .92.79 3.87 3.87 0 0 1 .57 1.15 4.64 4.64 0 0 1 .21 1.39 4.55 4.55 0 0 1-.21 1.38 3.87 3.87 0 0 1-.58 1.15 2.72 2.72 0 0 1-.92.79 2.6 2.6 0 0 1-2.4 0 2.7 2.7 0 0 1-.92-.79 3.87 3.87 0 0 1-.57-1.15 4.64 4.64 0 0 1-.21-1.39zm.54 0a4.14 4.14 0 0 0 .17 1.18 3.63 3.63 0 0 0 .47 1 2.33 2.33 0 0 0 .75.7 2 2 0 0 0 2 0 2.26 2.26 0 0 0 .75-.7 3.59 3.59 0 0 0 .46-1 4.22 4.22 0 0 0 .17-1.18 4.16 4.16 0 0 0-.17-1.18 3.57 3.57 0 0 0-.47-1 2.33 2.33 0 0 0-.75-.7 1.91 1.91 0 0 0-1-.26 2 2 0 0 0-.8.17 2 2 0 0 0-.65.47 3.09 3.09 0 0 0-.48.69 3.49 3.49 0 0 0-.31.86 4.46 4.46 0 0 0-.14.95zM195.53 428.92v-.38l2.62-2.36a7.55 7.55 0 0 0 1.21-1.32 2 2 0 0 0 .34-1.08 1.39 1.39 0 0 0-.46-1.08 1.6 1.6 0 0 0-1.11-.42 2 2 0 0 0-1.12.32 3.67 3.67 0 0 0-.93 1l-.39-.26a5.31 5.31 0 0 1 .48-.63 3.1 3.1 0 0 1 .53-.46 2.1 2.1 0 0 1 .66-.31 3.08 3.08 0 0 1 .82-.1 2.07 2.07 0 0 1 1.48.56 1.83 1.83 0 0 1 .59 1.39 2.29 2.29 0 0 1-.09.67 2.35 2.35 0 0 1-.33.64 5.42 5.42 0 0 1-.53.65q-.3.32-.8.77l-2.14 1.95h4v.48zM1.47 211.17v-.38l2.62-2.36a7.55 7.55 0 0 0 1.21-1.32 2 2 0 0 0 .34-1.11 1.39 1.39 0 0 0-.46-1.08 1.6 1.6 0 0 0-1.11-.42 2 2 0 0 0-1.12.32 3.67 3.67 0 0 0-.93 1l-.39-.26a5.31 5.31 0 0 1 .48-.63 3.1 3.1 0 0 1 .53-.46 2.1 2.1 0 0 1 .66-.31 3.08 3.08 0 0 1 .82-.1 2.07 2.07 0 0 1 1.48.56 1.83 1.83 0 0 1 .58 1.38 2.29 2.29 0 0 1-.09.67 2.35 2.35 0 0 1-.33.64 5.42 5.42 0 0 1-.53.65q-.3.32-.8.77l-2.14 1.95h4v.48zM7.44 210l.4-.33a2.69 2.69 0 0 0 2.16 1.15 1.79 1.79 0 0 0 1.23-.44 1.44 1.44 0 0 0 .5-1.13 1.28 1.28 0 0 0-.6-1.12 2.79 2.79 0 0 0-1.58-.4h-.36l-.13-.29 2.41-2.78H7.8v-.48h4.38v.36l-2.37 2.71a4.56 4.56 0 0 1 .71.1 3.2 3.2 0 0 1 .67.24 2.39 2.39 0 0 1 .57.38 1.61 1.61 0 0 1 .39.55 1.8 1.8 0 0 1 .15.73 1.87 1.87 0 0 1-.32 1.07 2.08 2.08 0 0 1-.84.73 2.55 2.55 0 0 1-1.13.25 3.14 3.14 0 0 1-1.47-.3 3.28 3.28 0 0 1-1.1-1zM228.84 422.46l1.6-.59h.4v7.05h-.5v-6.51l-1.35.46zM232.36 428.92v-.38l2.62-2.36a7.55 7.55 0 0 0 1.21-1.32 2 2 0 0 0 .34-1.08 1.39 1.39 0 0 0-.46-1.08 1.6 1.6 0 0 0-1.11-.42 2 2 0 0 0-1.12.32 3.67 3.67 0 0 0-.93 1l-.39-.26a5.31 5.31 0 0 1 .48-.63 3.1 3.1 0 0 1 .53-.46 2.1 2.1 0 0 1 .66-.31 3.08 3.08 0 0 1 .82-.1 2.07 2.07 0 0 1 1.48.56 1.83 1.83 0 0 1 .59 1.39 2.29 2.29 0 0 1-.09.67 2.35 2.35 0 0 1-.33.64 5.42 5.42 0 0 1-.53.65q-.3.32-.8.77l-2.14 1.95h4v.48zM238.44 425.42a4.55 4.55 0 0 1 .21-1.38 3.85 3.85 0 0 1 .58-1.15 2.74 2.74 0 0 1 .92-.79 2.61 2.61 0 0 1 2.4 0 2.67 2.67 0 0 1 .92.79A3.87 3.87 0 0 1 244 424a4.64 4.64 0 0 1 .21 1.39 4.55 4.55 0 0 1-.21 1.38 3.87 3.87 0 0 1-.58 1.15 2.72 2.72 0 0 1-.92.79 2.6 2.6 0 0 1-2.4 0 2.7 2.7 0 0 1-.92-.79 3.87 3.87 0 0 1-.57-1.15 4.64 4.64 0 0 1-.17-1.35zm.54 0a4.14 4.14 0 0 0 .17 1.18 3.63 3.63 0 0 0 .47 1 2.33 2.33 0 0 0 .75.7 2 2 0 0 0 2 0 2.26 2.26 0 0 0 .75-.7 3.59 3.59 0 0 0 .46-1 4.22 4.22 0 0 0 .17-1.18 4.16 4.16 0 0 0-.17-1.18 3.57 3.57 0 0 0-.47-1 2.33 2.33 0 0 0-.75-.7 1.91 1.91 0 0 0-1-.26 2 2 0 0 0-.8.17 2 2 0 0 0-.65.47 3.09 3.09 0 0 0-.48.69 3.49 3.49 0 0 0-.31.86 4.46 4.46 0 0 0-.12.95zM1.23 164.92v-.38l2.62-2.36a7.55 7.55 0 0 0 1.21-1.32 2 2 0 0 0 .34-1.08 1.39 1.39 0 0 0-.46-1.08 1.6 1.6 0 0 0-1.11-.42 2 2 0 0 0-1.12.32 3.67 3.67 0 0 0-.93 1l-.39-.26a5.31 5.31 0 0 1 .48-.63 3.1 3.1 0 0 1 .53-.46 2.1 2.1 0 0 1 .66-.31 3.08 3.08 0 0 1 .82-.1 2.07 2.07 0 0 1 1.48.56 1.83 1.83 0 0 1 .59 1.39 2.29 2.29 0 0 1-.09.67 2.35 2.35 0 0 1-.33.64 5.42 5.42 0 0 1-.53.65q-.3.32-.8.77l-2.14 1.95H6v.48zM6.84 162.82l4-5h.47v4.89h1.14v.45h-1.14v1.71h-.5v-1.71H7zm.63-.06h3.34v-4.14zM272.17 422.46l1.6-.59h.4v7.05h-.5v-6.51l-1.35.46zM275.77 427.78l.4-.33a2.69 2.69 0 0 0 2.18 1.12 1.79 1.79 0 0 0 1.23-.44 1.44 1.44 0 0 0 .5-1.13 1.28 1.28 0 0 0-.6-1.12 2.79 2.79 0 0 0-1.58-.4h-.38l-.13-.29 2.41-2.78h-3.67v-.48h4.38v.36l-2.38 2.71a4.56 4.56 0 0 1 .71.1 3.2 3.2 0 0 1 .67.24 2.39 2.39 0 0 1 .57.38 1.61 1.61 0 0 1 .39.55 1.8 1.8 0 0 1 .15.73 1.87 1.87 0 0 1-.32 1.07 2.08 2.08 0 0 1-.84.73 2.55 2.55 0 0 1-1.13.25 3.14 3.14 0 0 1-1.47-.34 3.28 3.28 0 0 1-1.09-.93zM281.87 427a1.49 1.49 0 0 1 .43-1 2.61 2.61 0 0 1 1.12-.68 2.49 2.49 0 0 1-.94-.65 1.46 1.46 0 0 1-.37-1 1.49 1.49 0 0 1 .34-1 2.18 2.18 0 0 1 .87-.65 3 3 0 0 1 2.29 0 2.19 2.19 0 0 1 .87.66 1.52 1.52 0 0 1 .34 1 1.43 1.43 0 0 1-.37 1 2.52 2.52 0 0 1-.94.64 2.6 2.6 0 0 1 1.12.68 1.51 1.51 0 0 1 .43 1.06 1.65 1.65 0 0 1-.34 1 2.23 2.23 0 0 1-.94.7 3.42 3.42 0 0 1-1.32.25 3 3 0 0 1-1.86-.56 1.71 1.71 0 0 1-.73-1.45zm.54 0a1.28 1.28 0 0 0 .56 1 2.41 2.41 0 0 0 1.5.43 2.38 2.38 0 0 0 1.5-.43 1.31 1.31 0 0 0 .56-1.06 1.27 1.27 0 0 0-.6-1.07 2.71 2.71 0 0 0-2.92 0 1.29 1.29 0 0 0-.6 1.2zm.24-3.4a1.25 1.25 0 0 0 .53 1 2.26 2.26 0 0 0 2.58 0 1.27 1.27 0 0 0 .53-1.05 1.17 1.17 0 0 0-.53-1 2.13 2.13 0 0 0-1.3-.39 2.11 2.11 0 0 0-1.3.39 1.19 1.19 0 0 0-.51 1.12zM1.52 118.67v-.38l2.62-2.36a7.55 7.55 0 0 0 1.21-1.32 2 2 0 0 0 .34-1.08 1.39 1.39 0 0 0-.46-1.08 1.6 1.6 0 0 0-1.12-.45 2 2 0 0 0-1.12.32 3.67 3.67 0 0 0-.93 1l-.39-.26a5.31 5.31 0 0 1 .48-.63 3.1 3.1 0 0 1 .53-.46 2.1 2.1 0 0 1 .66-.31 3.08 3.08 0 0 1 .82-.1 2.07 2.07 0 0 1 1.48.56 1.83 1.83 0 0 1 .59 1.39 2.29 2.29 0 0 1-.09.67 2.35 2.35 0 0 1-.33.64 5.42 5.42 0 0 1-.53.65q-.3.32-.8.77l-2.14 1.95h4v.48zM7.52 117.66l.37-.37a3 3 0 0 0 2.1 1 1.87 1.87 0 0 0 1.35-.51 1.69 1.69 0 0 0 .53-1.27 1.5 1.5 0 0 0-.54-1.19 2 2 0 0 0-1.38-.47 3.29 3.29 0 0 0-1.58.44l-.4-.26.2-3.39h3.93v.48H8.62l-.17 2.64a3.51 3.51 0 0 1 1.56-.38 2.52 2.52 0 0 1 1.71.6 1.94 1.94 0 0 1 .69 1.53 2.1 2.1 0 0 1-.69 1.62 2.49 2.49 0 0 1-1.75.63 2.93 2.93 0 0 1-1.31-.32 4.11 4.11 0 0 1-1.14-.78zM315.84 422.46l1.6-.59h.4v7.05h-.5v-6.51l-1.35.46zM319.46 427.91l.37-.37a3 3 0 0 0 2.1 1 1.87 1.87 0 0 0 1.35-.51 1.69 1.69 0 0 0 .53-1.27 1.5 1.5 0 0 0-.54-1.19 2 2 0 0 0-1.38-.47 3.29 3.29 0 0 0-1.58.44l-.4-.26.2-3.39H324v.48h-3.48l-.17 2.64a3.51 3.51 0 0 1 1.56-.38 2.52 2.52 0 0 1 1.71.6 1.94 1.94 0 0 1 .69 1.53 2.1 2.1 0 0 1-.69 1.62 2.49 2.49 0 0 1-1.75.63 2.93 2.93 0 0 1-1.31-.32 4.11 4.11 0 0 1-1.1-.78zM325.79 427.26a5.23 5.23 0 0 1-.21-1.67 5.07 5.07 0 0 1 .35-1.91 3.2 3.2 0 0 1 1-1.37 2.38 2.38 0 0 1 1.5-.51 2.63 2.63 0 0 1 1 .21 4.21 4.21 0 0 1 1 .61l-.33.4a3.46 3.46 0 0 0-.84-.56 2.14 2.14 0 0 0-.89-.19 1.91 1.91 0 0 0-1.66 1 4.49 4.49 0 0 0-.63 2.5v.17a2.42 2.42 0 0 1 2.19-1.3 2.67 2.67 0 0 1 1.18.27 2.22 2.22 0 0 1 .89.76 1.93 1.93 0 0 1 .34 1.11 2.21 2.21 0 0 1-.32 1.18 2.25 2.25 0 0 1-.88.83 2.72 2.72 0 0 1-2.24.11 2.36 2.36 0 0 1-.79-.51 2.81 2.81 0 0 1-.66-1.13zm.52-.45a1.61 1.61 0 0 0 .57 1.25 2 2 0 0 0 1.41.5 1.81 1.81 0 0 0 1.35-.53 1.77 1.77 0 0 0 .52-1.3 1.55 1.55 0 0 0-.54-1.21 2 2 0 0 0-1.36-.48 2.06 2.06 0 0 0-.79.15 1.92 1.92 0 0 0-.62.4 1.84 1.84 0 0 0-.4.56 1.55 1.55 0 0 0-.14.66zM351 422.46l1.6-.59h.4v7.05h-.5v-6.51l-1.35.46zM354.69 422.4v-.48h4.64v.37l-3.19 6.64h-.57l3.18-6.52zM359.51 426.82l4-5h.49v4.89h1.14v.45H364v1.71h-.5v-1.71h-3.79zm.63-.06h3.34v-4.14zM1.15 72.42V72l2.62-2.36A7.55 7.55 0 0 0 5 68.36a2 2 0 0 0 .34-1.08 1.39 1.39 0 0 0-.46-1.08 1.6 1.6 0 0 0-1.11-.42 2 2 0 0 0-1.12.32 3.67 3.67 0 0 0-.93 1l-.39-.26a5.31 5.31 0 0 1 .48-.63 3.1 3.1 0 0 1 .53-.46 2.1 2.1 0 0 1 .66-.33 3.08 3.08 0 0 1 .82-.1 2.07 2.07 0 0 1 1.48.56 1.83 1.83 0 0 1 .59 1.39 2.29 2.29 0 0 1-.09.67 2.35 2.35 0 0 1-.33.64 5.42 5.42 0 0 1-.53.65q-.3.32-.8.77L2 71.93h4v.48zM7.44 70.76a5.23 5.23 0 0 1-.21-1.67 5.07 5.07 0 0 1 .35-1.91 3.2 3.2 0 0 1 1-1.37 2.38 2.38 0 0 1 1.5-.51 2.63 2.63 0 0 1 1 .21 4.21 4.21 0 0 1 1 .61l-.33.4a3.46 3.46 0 0 0-.84-.56 2.14 2.14 0 0 0-.89-.19 1.91 1.91 0 0 0-1.66 1 4.49 4.49 0 0 0-.63 2.5v.17a2.42 2.42 0 0 1 2.19-1.3 2.67 2.67 0 0 1 1.18.27 2.22 2.22 0 0 1 .89.76 1.93 1.93 0 0 1 .34 1.11 2.21 2.21 0 0 1-.33 1.14 2.25 2.25 0 0 1-.88.83 2.72 2.72 0 0 1-2.24.11 2.36 2.36 0 0 1-.79-.51 2.81 2.81 0 0 1-.65-1.09zm.56-.45a1.61 1.61 0 0 0 .57 1.25 2 2 0 0 0 1.41.5 1.81 1.81 0 0 0 1.35-.53 1.77 1.77 0 0 0 .52-1.3 1.55 1.55 0 0 0-.59-1.23 2 2 0 0 0-1.36-.48 2.06 2.06 0 0 0-.79.15 1.92 1.92 0 0 0-.62.4 1.84 1.84 0 0 0-.4.56 1.55 1.55 0 0 0-.09.68zM1.85 26.17v-.38l2.62-2.36a7.55 7.55 0 0 0 1.21-1.32A2 2 0 0 0 6 21a1.39 1.39 0 0 0-.46-1.08 1.6 1.6 0 0 0-1.11-.42 2 2 0 0 0-1.12.32 3.67 3.67 0 0 0-.93 1L2 20.57a5.31 5.31 0 0 1 .48-.63 3.1 3.1 0 0 1 .52-.47 2.1 2.1 0 0 1 .66-.31 3.08 3.08 0 0 1 .82-.1 2.07 2.07 0 0 1 1.52.56A1.83 1.83 0 0 1 6.56 21a2.29 2.29 0 0 1-.09.67 2.35 2.35 0 0 1-.33.64 5.42 5.42 0 0 1-.53.65q-.3.32-.8.77l-2.14 1.95h4v.48zM7.81 19.65v-.48h4.64v.37l-3.19 6.63h-.57l3.18-6.52z" transform="translate(-.47)"/><circle class="cls-8" cx="43.44" cy="346.25" r="2.39"/><circle class="cls-9" cx="68.21" cy="346.25" r="2.39"/><circle class="cls-10" cx="92.98" cy="346.25" r="2.39"/><circle class="cls-11" cx="117.75" cy="346.25" r="2.39"/><circle class="cls-8" cx="55.26" cy="300.54" r="2.39"/><circle class="cls-9" cx="83.81" cy="300.54" r="2.38"/><circle class="cls-10" cx="112.35" cy="300.54" r="2.38"/><circle class="cls-11" cx="140.9" cy="300.47" r="2.38"/><path class="cls-3" d="M74.05 247.35h95.9v14.93h-95.9z"/><circle class="cls-8" cx="74.07" cy="254.82" r="2.39"/><circle class="cls-9" cx="106.04" cy="254.82" r="2.38"/><circle class="cls-10" cx="138.01" cy="254.82" r="2.38"/><circle class="cls-11" cx="169.98" cy="254.82" r="2.38"/><circle class="cls-8" cx="94.61" cy="207.84" r="2.39"/><circle class="cls-9" cx="132.18" cy="207.84" r="2.39"/><circle class="cls-10" cx="169.74" cy="207.84" r="2.39"/><circle class="cls-11" cx="207.3" cy="207.84" r="2.39"/><circle class="cls-8" cx="112.26" cy="162.52" r="2.39"/><circle class="cls-9" cx="150.91" cy="162.52" r="2.39"/><circle class="cls-10" cx="189.56" cy="162.52" r="2.39"/><circle class="cls-11" cx="228.22" cy="162.52" r="2.39"/><circle class="cls-8" cx="136.95" cy="115.42" r="2.39"/><circle class="cls-9" cx="182.61" cy="115.42" r="2.39"/><circle class="cls-10" cx="228.26" cy="115.42" r="2.39"/><circle class="cls-11" cx="273.92" cy="115.42" r="2.39"/><circle class="cls-8" cx="158.7" cy="69" r="2.39"/><circle class="cls-9" cx="211.45" cy="69" r="2.39"/><circle class="cls-10" cx="264.21" cy="69" r="2.39"/><circle class="cls-11" cx="316.97" cy="69" r="2.39"/><circle class="cls-8" cx="180.9" cy="22.9" r="2.39"/><circle class="cls-9" cx="241.83" cy="22.9" r="2.39"/><circle class="cls-10" cx="302.77" cy="22.9" r="2.39"/><circle class="cls-8" cx="27.7" cy="391.93" r="2.39"/><circle class="cls-9" cx="50.63" cy="391.93" r="2.39"/><circle class="cls-10" cx="73.56" cy="391.93" r="2.39"/><circle class="cls-11" cx="96.49" cy="391.93" r="2.39"/></g></g></svg>