<?xml version="1.0" encoding="utf-8"?>
<!-- Generator: Adobe Illustrator 22.0.1, SVG Export Plug-In . SVG Version: 6.00 Build 0)  -->
<svg version="1.1" id="Слой_1" xmlns="http://www.w3.org/2000/svg" xmlns:xlink="http://www.w3.org/1999/xlink" x="0px" y="0px"
	 viewBox="0 0 108 84" style="enable-background:new 0 0 108 84;" xml:space="preserve">
<style type="text/css">
	.st0{fill:#FFFFFF;}
</style>
<path class="st0" d="M10.5,16.3c0,0,2.9,1.8,12,1c9.1-0.8,11-3,11-3s-4.9-0.5-12,0S10.5,16.3,10.5,16.3z M10.5,50.3
	c0,0,2.9,1.7,12,1c9.1-0.8,11-3,11-3s-4.9-0.5-12,0C14.4,48.8,10.5,50.3,10.5,50.3z M10.5,83.3c0,0,2.9,1.8,12,1s11-3,11-3
	s-4.9-0.5-12,0C14.4,81.8,10.5,83.3,10.5,83.3z M50.5,13c0,0,2.9,1.7,12,1c9.1-0.7,11-3,11-3s-4.9-0.5-12,0S50.5,13,50.5,13z
	 M50.5,47.3c0,0,2.9,1.7,12,1c9.1-0.7,11-3,11-3s-4.9-0.5-12,0C54.4,45.8,50.5,47.3,50.5,47.3z M50,80.2c0,0,2.8,1.9,11.9,1.6
	C71,81.5,73,79.4,73,79.4s-4.8-0.7-12-0.6C53.9,78.9,50,80.2,50,80.2z M36,44.7c0,0,1.9-3.4,2.2-14.7c0.3-11.3-1.5-13.8-1.5-13.8
	s-1,5.9-1.3,14.7C35,39.8,36,44.7,36,44.7z"/>
<circle class="st0" cx="85" cy="25" r="2"/>
<path class="st0" d="M87.5,17v2c0,0,5.3,0.4,7,3c1.7,2.6,2.4,3.4,3,8h2c0,0-0.2-6.4-4-10C91.7,16.4,87.5,17,87.5,17z M87.5,6.6v3.5
	c0,0,9.2,0.8,12.3,5.3s4.3,6.1,5.3,14.1h3.5c0,0-0.3-11.3-7-17.6S87.5,6.6,87.5,6.6z M76,41.2c0,0,1.9-3.4,2.2-14.7
	c0.3-11.3-1.5-13.8-1.5-13.8s-1,5.9-1.3,14.7C75.1,36.3,76,41.2,76,41.2z M76,41.2c0,0,1.9-3.4,2.2-14.7c0.3-11.3-1.5-13.8-1.5-13.8
	s-1,5.9-1.3,14.7C75.1,36.3,76,41.2,76,41.2z M8.2,80.7c0,0,1.9-3.4,2-14.7c0.2-11.3-1.7-13.7-1.7-13.7s-0.9,6-1.1,14.8
	C7.2,75.8,8.2,80.7,8.2,80.7z M76.2,78.7c0,0,1.9-3.4,2-14.7c0.2-11.3-1.7-13.7-1.7-13.7s-0.9,6-1.1,14.8
	C75.2,73.8,76.2,78.7,76.2,78.7z"/>
</svg>
