<svg xmlns="http://www.w3.org/2000/svg" preserveAspectRatio="xMidYMid" width="38" height="44" viewBox="0 0 38 44"><defs><style>.cls-1{fill:#fff;fill-rule:evenodd}</style></defs><path d="M33.321 28.055a4.678 4.678 0 0 1-4.678-4.668c0-2.285 3.298-6.343 3.96-7.134.356-.425 1.08-.425 1.436 0 .661.791 3.96 4.849 3.96 7.134a4.678 4.678 0 0 1-4.678 4.668zm0-9.707c-1.339 1.745-2.807 4.037-2.807 5.039a2.81 2.81 0 0 0 2.807 2.803 2.81 2.81 0 0 0 2.807-2.803c0-1.003-1.468-3.296-2.807-5.039zm0-6.23a4.678 4.678 0 0 1-4.678-4.67c0-2.284 3.298-6.343 3.96-7.133.356-.426 1.08-.426 1.436 0 .661.79 3.96 4.849 3.96 7.133a4.678 4.678 0 0 1-4.678 4.67zm0-9.707c-1.339 1.743-2.807 4.036-2.807 5.037a2.807 2.807 0 0 0 5.614 0c0-1.004-1.468-3.295-2.807-5.037zM19.158 43.994a4.678 4.678 0 0 1-4.678-4.668c0-2.285 3.299-6.342 3.96-7.133.356-.425 1.08-.425 1.436 0 .662.791 3.96 4.848 3.96 7.133a4.678 4.678 0 0 1-4.678 4.668zm0-9.707c-1.338 1.744-2.806 4.037-2.806 5.039a2.807 2.807 0 0 0 5.613 0c0-1.003-1.468-3.295-2.807-5.039zm0-6.232a4.678 4.678 0 0 1-4.678-4.668c0-2.285 3.299-6.343 3.96-7.134.356-.425 1.08-.425 1.436 0 .662.791 3.96 4.849 3.96 7.134a4.678 4.678 0 0 1-4.678 4.668zm0-9.707c-1.338 1.745-2.806 4.037-2.806 5.039a2.808 2.808 0 0 0 2.806 2.803 2.81 2.81 0 0 0 2.807-2.803c0-1.003-1.468-3.296-2.807-5.039zm0-6.23a4.678 4.678 0 0 1-4.678-4.67c0-2.284 3.299-6.343 3.96-7.133.356-.426 1.08-.426 1.436 0 .662.79 3.96 4.849 3.96 7.133a4.678 4.678 0 0 1-4.678 4.67zm0-9.707c-1.338 1.743-2.806 4.036-2.806 5.037a2.806 2.806 0 0 0 5.613 0c0-1.004-1.468-3.295-2.807-5.037zM4.678 43.994a4.677 4.677 0 0 1-4.677-4.668c0-2.285 3.298-6.342 3.959-7.133.357-.425 1.08-.425 1.437 0 .661.791 3.96 4.848 3.96 7.133 0 2.575-2.099 4.668-4.679 4.668zm0-9.707c-1.338 1.744-2.806 4.037-2.806 5.039a2.807 2.807 0 0 0 5.613 0c0-1.003-1.468-3.295-2.807-5.039zm0-6.232a4.677 4.677 0 0 1-4.677-4.668c0-2.285 3.298-6.343 3.959-7.134.357-.425 1.08-.425 1.437 0 .661.791 3.96 4.849 3.96 7.134 0 2.575-2.099 4.668-4.679 4.668zm0-9.707c-1.338 1.745-2.806 4.037-2.806 5.039a2.809 2.809 0 0 0 2.806 2.803 2.81 2.81 0 0 0 2.807-2.803c0-1.003-1.468-3.296-2.807-5.039zm0-6.23a4.677 4.677 0 0 1-4.677-4.67c0-2.284 3.298-6.343 3.959-7.133.357-.426 1.08-.426 1.437 0 .661.79 3.96 4.849 3.96 7.133a4.679 4.679 0 0 1-4.679 4.67zm0-9.707C3.34 4.154 1.872 6.447 1.872 7.448a2.806 2.806 0 0 0 5.613 0c0-1.004-1.468-3.295-2.807-5.037zm29.361 29.782c.661.791 3.96 4.848 3.96 7.133a4.678 4.678 0 0 1-4.678 4.668 4.678 4.678 0 0 1-4.678-4.668c0-2.285 3.298-6.342 3.96-7.133.356-.425 1.08-.425 1.436 0zm-.718 9.935a2.808 2.808 0 0 0 2.807-2.802c0-1.003-1.468-3.295-2.807-5.039-1.339 1.744-2.807 4.037-2.807 5.039a2.808 2.808 0 0 0 2.807 2.802z" class="cls-1"/></svg>