<svg xmlns="http://www.w3.org/2000/svg" width="46" height="65"><defs><linearGradient id="a" x1="0%" x2="61.566%" y1="0%" y2="78.801%"><stop offset="0" stop-color="#0c90c2"/><stop offset="1" stop-color="#2dd2ab"/></linearGradient></defs><path fill="url(#a)" d="M22.891 64.995C9.413 64.995-.001 55.757-.001 42.53c0-12.486 6.236-20.285 9.962-24.944.714-.894 1.33-1.664 1.762-2.299 3.013-4.429 6.944-11.483 8.076-13.54C20.562.362 22.056.019 22.869 0l.011-.002h.037c.876 0 2.514.366 3.276 1.749 1.133 2.057 5.063 9.111 8.077 13.54.431.635 1.047 1.405 1.761 2.299 3.727 4.659 9.963 12.458 9.963 24.944 0 13.017-9.716 22.465-23.103 22.465zm11.574-46.16c-.741-.925-1.379-1.723-1.854-2.422-3.064-4.501-7.032-11.626-8.175-13.7-.379-.69-1.528-.713-1.541-.713l-.001-.001a.01.01 0 0 0-.003.001h-.004c-.057.001-.952.024-1.331.713-1.143 2.074-5.111 9.199-8.175 13.7-.475.699-1.113 1.497-1.853 2.422-3.562 4.454-9.524 11.911-9.524 23.695 0 12.048 8.589 20.463 20.887 20.463 12.225 0 21.097-8.606 21.097-20.463 0-11.784-5.962-19.241-9.523-23.695zm-17.933 2.716c-.404.451-4.607 5.98-6.376 10.987a1.005 1.005 0 0 1-1.28.611 1.002 1.002 0 0 1-.611-1.278c1.895-5.363 6.512-11.503 6.986-11.856a1 1 0 0 1 1.403.198 1 1 0 0 1-.122 1.338zM8.318 36.929c-.012.024-.36.725-.404 1.781a1.002 1.002 0 0 1-1.001.963l-.041-.001a1.004 1.004 0 0 1-.961-1.042c.062-1.527.576-2.53.635-2.637a1 1 0 0 1 1.357-.412 1 1 0 0 1 .415 1.348z"/></svg>