<svg width="85" height="57"><defs><linearGradient id="a" x1="0%" x2="61.566%" y1="0%" y2="78.801%"><stop offset="0%" stop-color="#00ADEF"/><stop offset="39%" stop-color="#19CDD7"/><stop offset="100%" stop-color="#31ECBE"/></linearGradient></defs><path fill-rule="evenodd" d="M84 56.653c-.553 0-1-.447-1-.998V2.946a.998.998 0 0 1 1-.998c.553 0 1 .446 1 .998v52.709a.999.999 0 0 1-1 .998zm-9.999 0c-.553 0-1-.447-1-.998V13.329a.997.997 0 0 1 1-.997c.552 0 .999.445.999.997v42.326a.998.998 0 0 1-.999.998zm-10 0c-.553 0-1-.447-1-.998V25.811a.997.997 0 0 1 1-.996c.553 0 1 .445 1 .996v29.844a.999.999 0 0 1-1 .998zm-7.205-41.037l-2.226.85c.263 1.803.21 3.665-.154 5.456l2.179.973a.994.994 0 0 1 .505 1.318l-2.038 4.548a1 1 0 0 1-1.321.505l-2.179-.972a15.97 15.97 0 0 1-3.972 3.751l.851 2.226a.996.996 0 0 1-.577 1.286l-4.664 1.78a.973.973 0 0 1-.357.064.997.997 0 0 1-.934-.64l-.852-2.223c-1.81.261-3.673.21-5.469-.154l-.973 2.176a1 1 0 0 1-1.322.503l-4.558-2.032a.999.999 0 0 1-.505-1.32l.974-2.175a15.931 15.931 0 0 1-3.762-3.964l-2.226.851a1.002 1.002 0 0 1-1.292-.577l-1.782-4.652a.998.998 0 0 1 .577-1.29l2.227-.849a15.958 15.958 0 0 1 .153-5.457l-2.178-.972a.997.997 0 0 1-.505-1.318l2.037-4.548a.997.997 0 0 1 .556-.526c.249-.095.523-.085.765.02l2.179.974a15.969 15.969 0 0 1 3.973-3.754l-.851-2.223a.994.994 0 0 1 .576-1.288L34.315.182a1.006 1.006 0 0 1 1.291.575l.852 2.226c1.81-.261 3.673-.21 5.469.154L42.9.961a.999.999 0 0 1 1.322-.503l4.558 2.031c.242.109.432.311.526.557a.994.994 0 0 1-.021.761l-.974 2.175a16.003 16.003 0 0 1 3.762 3.965l2.226-.852a1.007 1.007 0 0 1 1.291.577l1.783 4.657a.994.994 0 0 1-.577 1.287zM54.08 11.32l-2.061.784a1.001 1.001 0 0 1-1.22-.428 13.79 13.79 0 0 0-4.29-4.52.997.997 0 0 1-.36-1.238l.902-2.014-2.733-1.218-.901 2.012a.997.997 0 0 1-1.164.559 13.797 13.797 0 0 0-6.238-.173 1.013 1.013 0 0 1-1.131-.623l-.789-2.056-2.796 1.066.788 2.057a.996.996 0 0 1-.426 1.216 13.76 13.76 0 0 0-4.532 4.283 1.008 1.008 0 0 1-1.242.358l-2.016-.9-1.221 2.727 2.016.901a.992.992 0 0 1 .559 1.158 13.742 13.742 0 0 0-.173 6.225 1 1 0 0 1-.623 1.131l-2.062.784 1.068 2.792 2.061-.787c.458-.168.971.006 1.22.426a13.73 13.73 0 0 0 4.29 4.522.999.999 0 0 1 .36 1.239l-.902 2.012 2.733 1.218.901-2.011a1.01 1.01 0 0 1 1.164-.561c2.059.535 4.156.597 6.238.177a1 1 0 0 1 1.131.62l.789 2.06 2.796-1.067-.788-2.058a1 1 0 0 1 .427-1.218 13.74 13.74 0 0 0 4.531-4.281 1.007 1.007 0 0 1 1.242-.359l2.016.902 1.222-2.727-2.017-.899a.997.997 0 0 1-.559-1.16c.534-2.06.592-4.154.173-6.228a.995.995 0 0 1 .624-1.128l2.062-.785-1.069-2.79zM41.789 26.675a8.547 8.547 0 0 1-3.035.563 8.47 8.47 0 0 1-3.461-.744 8.418 8.418 0 0 1-4.466-4.708c-1.671-4.364.527-9.269 4.9-10.939a8.442 8.442 0 0 1 6.495.18 8.418 8.418 0 0 1 4.466 4.708c1.671 4.365-.527 9.269-4.899 10.94zm3.03-10.226a6.441 6.441 0 0 0-3.413-3.601 6.458 6.458 0 0 0-4.964-.135c-3.344 1.272-5.024 5.024-3.746 8.359 1.277 3.336 5.036 5.015 8.378 3.735 3.343-1.271 5.022-5.023 3.745-8.358zM23.318 29.151a.981.981 0 0 1 .702-.306h.017c.259 0 .509.102.695.28l2.88 2.778a.998.998 0 0 1 .023 1.412l-1.218 1.256a12.787 12.787 0 0 1 1.649 3.798l1.756-.032c.219-.027.521.098.712.282.19.183.3.436.304.699l.068 3.997a1.001 1.001 0 0 1-.984 1.014l-1.755.032a13.032 13.032 0 0 1-1.521 3.845l1.263 1.218a.997.997 0 0 1 .023 1.411l-2.784 2.875a1.01 1.01 0 0 1-.702.3.945.945 0 0 1-.712-.279l-1.26-1.217a13.008 13.008 0 0 1-3.803 1.645l.03 1.754a.99.99 0 0 1-.281.709.995.995 0 0 1-.702.305l-4.01.069h-.011a.999.999 0 0 1-1-.98l-.031-1.755a12.951 12.951 0 0 1-3.854-1.517l-1.221 1.26a1.006 1.006 0 0 1-.702.304c-.224-.021-.521-.096-.712-.279L3.298 51.25a.996.996 0 0 1-.024-1.411l1.219-1.258a12.756 12.756 0 0 1-1.649-3.795l-1.755.029h-.017a.999.999 0 0 1-1-.98l-.068-3.998a1.002 1.002 0 0 1 .983-1.012l1.756-.029a13.04 13.04 0 0 1 1.519-3.848l-1.261-1.217a1 1 0 0 1-.024-1.413l2.784-2.869a1.003 1.003 0 0 1 1.414-.027l1.262 1.218a13.081 13.081 0 0 1 3.802-1.646l-.031-1.751c-.003-.263.097-.52.282-.713a1.01 1.01 0 0 1 .702-.304l4.005-.066h.016c.545 0 .99.435 1 .981l.03 1.752a13.2 13.2 0 0 1 3.855 1.516l1.22-1.258zm-6.21 1.56a.998.998 0 0 1-.851-.97l-.026-1.568-2.006.031.027 1.573a.996.996 0 0 1-.817.995 10.918 10.918 0 0 0-4.512 1.954c-.39.291-.937.254-1.289-.083l-1.13-1.093-1.394 1.438 1.131 1.095c.35.335.405.879.129 1.278a10.852 10.852 0 0 0-1.805 4.566c-.072.48-.483.84-.971.85l-1.574.027.035 1.999 1.574-.028c.519-.026.911.339 1 .817a10.834 10.834 0 0 0 1.957 4.504.997.997 0 0 1-.086 1.286l-1.093 1.127L6.849 51.9l1.093-1.126a.992.992 0 0 1 .719-.306c.196 0 .394.057.566.173a10.897 10.897 0 0 0 4.575 1.802 1 1 0 0 1 .851.971l.026 1.57 2.006-.035-.028-1.572a1.002 1.002 0 0 1 .818-.998 10.863 10.863 0 0 0 4.512-1.95 1.003 1.003 0 0 1 1.289.085l1.13 1.091 1.394-1.441-1.131-1.09a.995.995 0 0 1-.129-1.282 10.818 10.818 0 0 0 1.804-4.567 1 1 0 0 1 .972-.846l1.573-.028-.034-2.002-1.573.029h-.017a1 1 0 0 1-.983-.816 10.846 10.846 0 0 0-1.958-4.501 1 1 0 0 1 .086-1.289l1.093-1.126-1.442-1.392-1.093 1.131c-.339.348-.883.4-1.285.125a10.892 10.892 0 0 0-4.575-1.799zm3.385 15.726a6.994 6.994 0 0 1-5.039 2.13 6.996 6.996 0 0 1-4.871-1.963c-2.777-2.678-2.852-7.113-.167-9.888a6.976 6.976 0 0 1 4.92-2.132c1.891-.042 3.644.667 4.99 1.965a6.946 6.946 0 0 1 2.136 4.911 6.931 6.931 0 0 1-1.969 4.977zm-1.557-8.455a4.99 4.99 0 0 0-3.479-1.404h-.087a4.983 4.983 0 0 0-3.516 1.528 4.992 4.992 0 0 0 .12 7.063 5.022 5.022 0 0 0 7.082-.117 4.972 4.972 0 0 0 1.407-3.561 4.974 4.974 0 0 0-1.527-3.509zm27.066 11.529a1 1 0 0 1 1 .998v5.146a1 1 0 0 1-2 0v-5.146a.999.999 0 0 1 1-.998zm7.999-11.893a1 1 0 0 1 1 1.001v17.036a1 1 0 1 1-2 0V38.619c0-.552.448-1.001 1-1.001z"/><path fill="url(#a)" d="M84 56.653c-.553 0-1-.447-1-.998V2.946a.998.998 0 0 1 1-.998c.553 0 1 .446 1 .998v52.709a.999.999 0 0 1-1 .998zm-9.999 0c-.553 0-1-.447-1-.998V13.329a.997.997 0 0 1 1-.997c.552 0 .999.445.999.997v42.326a.998.998 0 0 1-.999.998zm-10 0c-.553 0-1-.447-1-.998V25.811a.997.997 0 0 1 1-.996c.553 0 1 .445 1 .996v29.844a.999.999 0 0 1-1 .998zm-7.205-41.037l-2.226.85c.263 1.803.21 3.665-.154 5.456l2.179.973a.994.994 0 0 1 .505 1.318l-2.038 4.548a1 1 0 0 1-1.321.505l-2.179-.972a15.97 15.97 0 0 1-3.972 3.751l.851 2.226a.996.996 0 0 1-.577 1.286l-4.664 1.78a.973.973 0 0 1-.357.064.997.997 0 0 1-.934-.64l-.852-2.223c-1.81.261-3.673.21-5.469-.154l-.973 2.176a1 1 0 0 1-1.322.503l-4.558-2.032a.999.999 0 0 1-.505-1.32l.974-2.175a15.931 15.931 0 0 1-3.762-3.964l-2.226.851a1.002 1.002 0 0 1-1.292-.577l-1.782-4.652a.998.998 0 0 1 .577-1.29l2.227-.849a15.958 15.958 0 0 1 .153-5.457l-2.178-.972a.997.997 0 0 1-.505-1.318l2.037-4.548a.997.997 0 0 1 .556-.526c.249-.095.523-.085.765.02l2.179.974a15.969 15.969 0 0 1 3.973-3.754l-.851-2.223a.994.994 0 0 1 .576-1.288L34.315.182a1.006 1.006 0 0 1 1.291.575l.852 2.226c1.81-.261 3.673-.21 5.469.154L42.9.961a.999.999 0 0 1 1.322-.503l4.558 2.031c.242.109.432.311.526.557a.994.994 0 0 1-.021.761l-.974 2.175a16.003 16.003 0 0 1 3.762 3.965l2.226-.852a1.007 1.007 0 0 1 1.291.577l1.783 4.657a.994.994 0 0 1-.577 1.287zM54.08 11.32l-2.061.784a1.001 1.001 0 0 1-1.22-.428 13.79 13.79 0 0 0-4.29-4.52.997.997 0 0 1-.36-1.238l.902-2.014-2.733-1.218-.901 2.012a.997.997 0 0 1-1.164.559 13.797 13.797 0 0 0-6.238-.173 1.013 1.013 0 0 1-1.131-.623l-.789-2.056-2.796 1.066.788 2.057a.996.996 0 0 1-.426 1.216 13.76 13.76 0 0 0-4.532 4.283 1.008 1.008 0 0 1-1.242.358l-2.016-.9-1.221 2.727 2.016.901a.992.992 0 0 1 .559 1.158 13.742 13.742 0 0 0-.173 6.225 1 1 0 0 1-.623 1.131l-2.062.784 1.068 2.792 2.061-.787c.458-.168.971.006 1.22.426a13.73 13.73 0 0 0 4.29 4.522.999.999 0 0 1 .36 1.239l-.902 2.012 2.733 1.218.901-2.011a1.01 1.01 0 0 1 1.164-.561c2.059.535 4.156.597 6.238.177a1 1 0 0 1 1.131.62l.789 2.06 2.796-1.067-.788-2.058a1 1 0 0 1 .427-1.218 13.74 13.74 0 0 0 4.531-4.281 1.007 1.007 0 0 1 1.242-.359l2.016.902 1.222-2.727-2.017-.899a.997.997 0 0 1-.559-1.16c.534-2.06.592-4.154.173-6.228a.995.995 0 0 1 .624-1.128l2.062-.785-1.069-2.79zM41.789 26.675a8.547 8.547 0 0 1-3.035.563 8.47 8.47 0 0 1-3.461-.744 8.418 8.418 0 0 1-4.466-4.708c-1.671-4.364.527-9.269 4.9-10.939a8.442 8.442 0 0 1 6.495.18 8.418 8.418 0 0 1 4.466 4.708c1.671 4.365-.527 9.269-4.899 10.94zm3.03-10.226a6.441 6.441 0 0 0-3.413-3.601 6.458 6.458 0 0 0-4.964-.135c-3.344 1.272-5.024 5.024-3.746 8.359 1.277 3.336 5.036 5.015 8.378 3.735 3.343-1.271 5.022-5.023 3.745-8.358zM23.318 29.151a.981.981 0 0 1 .702-.306h.017c.259 0 .509.102.695.28l2.88 2.778a.998.998 0 0 1 .023 1.412l-1.218 1.256a12.787 12.787 0 0 1 1.649 3.798l1.756-.032c.219-.027.521.098.712.282.19.183.3.436.304.699l.068 3.997a1.001 1.001 0 0 1-.984 1.014l-1.755.032a13.032 13.032 0 0 1-1.521 3.845l1.263 1.218a.997.997 0 0 1 .023 1.411l-2.784 2.875a1.01 1.01 0 0 1-.702.3.945.945 0 0 1-.712-.279l-1.26-1.217a13.008 13.008 0 0 1-3.803 1.645l.03 1.754a.99.99 0 0 1-.281.709.995.995 0 0 1-.702.305l-4.01.069h-.011a.999.999 0 0 1-1-.98l-.031-1.755a12.951 12.951 0 0 1-3.854-1.517l-1.221 1.26a1.006 1.006 0 0 1-.702.304c-.224-.021-.521-.096-.712-.279L3.298 51.25a.996.996 0 0 1-.024-1.411l1.219-1.258a12.756 12.756 0 0 1-1.649-3.795l-1.755.029h-.017a.999.999 0 0 1-1-.98l-.068-3.998a1.002 1.002 0 0 1 .983-1.012l1.756-.029a13.04 13.04 0 0 1 1.519-3.848l-1.261-1.217a1 1 0 0 1-.024-1.413l2.784-2.869a1.003 1.003 0 0 1 1.414-.027l1.262 1.218a13.081 13.081 0 0 1 3.802-1.646l-.031-1.751c-.003-.263.097-.52.282-.713a1.01 1.01 0 0 1 .702-.304l4.005-.066h.016c.545 0 .99.435 1 .981l.03 1.752a13.2 13.2 0 0 1 3.855 1.516l1.22-1.258zm-6.21 1.56a.998.998 0 0 1-.851-.97l-.026-1.568-2.006.031.027 1.573a.996.996 0 0 1-.817.995 10.918 10.918 0 0 0-4.512 1.954c-.39.291-.937.254-1.289-.083l-1.13-1.093-1.394 1.438 1.131 1.095c.35.335.405.879.129 1.278a10.852 10.852 0 0 0-1.805 4.566c-.072.48-.483.84-.971.85l-1.574.027.035 1.999 1.574-.028c.519-.026.911.339 1 .817a10.834 10.834 0 0 0 1.957 4.504.997.997 0 0 1-.086 1.286l-1.093 1.127L6.849 51.9l1.093-1.126a.992.992 0 0 1 .719-.306c.196 0 .394.057.566.173a10.897 10.897 0 0 0 4.575 1.802 1 1 0 0 1 .851.971l.026 1.57 2.006-.035-.028-1.572a1.002 1.002 0 0 1 .818-.998 10.863 10.863 0 0 0 4.512-1.95 1.003 1.003 0 0 1 1.289.085l1.13 1.091 1.394-1.441-1.131-1.09a.995.995 0 0 1-.129-1.282 10.818 10.818 0 0 0 1.804-4.567 1 1 0 0 1 .972-.846l1.573-.028-.034-2.002-1.573.029h-.017a1 1 0 0 1-.983-.816 10.846 10.846 0 0 0-1.958-4.501 1 1 0 0 1 .086-1.289l1.093-1.126-1.442-1.392-1.093 1.131c-.339.348-.883.4-1.285.125a10.892 10.892 0 0 0-4.575-1.799zm3.385 15.726a6.994 6.994 0 0 1-5.039 2.13 6.996 6.996 0 0 1-4.871-1.963c-2.777-2.678-2.852-7.113-.167-9.888a6.976 6.976 0 0 1 4.92-2.132c1.891-.042 3.644.667 4.99 1.965a6.946 6.946 0 0 1 2.136 4.911 6.931 6.931 0 0 1-1.969 4.977zm-1.557-8.455a4.99 4.99 0 0 0-3.479-1.404h-.087a4.983 4.983 0 0 0-3.516 1.528 4.992 4.992 0 0 0 .12 7.063 5.022 5.022 0 0 0 7.082-.117 4.972 4.972 0 0 0 1.407-3.561 4.974 4.974 0 0 0-1.527-3.509zm27.066 11.529a1 1 0 0 1 1 .998v5.146a1 1 0 0 1-2 0v-5.146a.999.999 0 0 1 1-.998zm7.999-11.893a1 1 0 0 1 1 1.001v17.036a1 1 0 1 1-2 0V38.619c0-.552.448-1.001 1-1.001z"/></svg>