<svg xmlns="http://www.w3.org/2000/svg" width="88" height="88" viewBox="0 0 88 88"><defs><style>.cls-1{fill:none;stroke:#f5f5f5;stroke-width:1px}.cls-2{fill:red}.cls-2,.cls-3{fill-rule:evenodd}</style></defs><circle id="Ellipse_2_copy_7" data-name="Ellipse 2 copy 7" class="cls-1" cx="44" cy="44" r="44"/><path id="Shape_30_copy" data-name="Shape 30 copy" class="cls-2" d="M34.292 39.959v-9.874h2.158v9.874h-2.158zm5 0v-9.874H43.3a3.859 3.859 0 0 1 2.747.945 3.264 3.264 0 0 1 1.009 2.5 3.111 3.111 0 0 1-1.121 2.56 4.368 4.368 0 0 1-2.84.91h-1.639v2.963H39.3zm2.158-4.9h1.709a1.77 1.77 0 0 0 1.254-.423 1.433 1.433 0 0 0 .455-1.1 1.365 1.365 0 0 0-.462-1.107 1.947 1.947 0 0 0-1.289-.388h-1.661v3.018zm5.7 4.9l3.419-5.022-3.269-4.852h2.522l2.061 3.2 2.073-3.2h2.453l-3.279 4.824 3.419 5.05h-2.522l-2.2-3.386-2.214 3.386H47.16zm-7.465 15.282a5.121 5.121 0 0 1-3.672-1.481l1.3-1.566a3.513 3.513 0 0 0 2.34 1.072 1.813 1.813 0 0 0 1.205-.367 1.273 1.273 0 0 0 .442-1.029 1.165 1.165 0 0 0-.476-.981 2.046 2.046 0 0 0-1.262-.359 4.146 4.146 0 0 0-1.639.367l-1.247-.832.28-4.867h6.025v1.9H38.8l-.111 1.707a5.263 5.263 0 0 1 1.289-.169 3.755 3.755 0 0 1 2.48.79 2.935 2.935 0 0 1 .953 2.4 3.2 3.2 0 0 1-1.011 2.491 3.875 3.875 0 0 1-2.715.924zm5.824-.169V45.2h3.826a5.19 5.19 0 0 1 3.756 1.4 4.995 4.995 0 0 1-.007 7.06 5.18 5.18 0 0 1-3.749 1.411h-3.826zm2.158-1.961h1.668a2.873 2.873 0 0 0 2.144-.825 3.233 3.233 0 0 0-.007-4.3 2.87 2.87 0 0 0-2.137-.831h-1.667v5.952z"/><path id="Shape_28_copy_2" data-name="Shape 28 copy 2" class="cls-3" d="M66.2 20.329c-.27-.1-6.773-2.354-21.807-2.354s-21.563 2.258-21.834 2.353a1 1 0 0 0-.669.94v31.441c0 7.352 7.475 13.149 22.218 17.234a1.031 1.031 0 0 0 .544 0c15.158-4.2 22.218-9.675 22.218-17.234V21.268a1 1 0 0 0-.67-.939zm-1.35 32.38c0 2.356 0 9.5-20.47 15.236-13.58-3.806-20.47-8.931-20.47-15.236v-30.7c1.994-.549 8.506-2.036 20.487-2.036s18.466 1.486 20.453 2.035v30.7z"/></svg>