<svg xmlns="http://www.w3.org/2000/svg" width="125" height="143"><defs><linearGradient id="a" x1="0%" x2="61.566%" y1="0%" y2="78.801%"><stop offset="0%" stop-color="#00ADEF" stop-opacity=".81"/><stop offset="39%" stop-color="#19CDD7" stop-opacity=".81"/><stop offset="100%" stop-color="#31ECBE" stop-opacity=".81"/></linearGradient></defs><path fill-rule="evenodd" fill="#00AFED" d="M110.105 63.471c1.998 11.254-.007 22.596-5.637 32.389l19.541 11.274-1.001 1.732-19.566-11.289a50.086 50.086 0 0 1-1.307 1.969c-7.394 10.567-18.465 17.628-31.175 19.88a48.95 48.95 0 0 1-7.431.729V143h-2.002v-22.837c-9.493-.178-18.721-3.147-26.679-8.705a48.143 48.143 0 0 1-13.673-14.577l-19.04 10.985-1.001-1.732 19.04-10.985a48.318 48.318 0 0 1-5.222-14.836c-2.041-11.495.098-23.078 6.002-33.012L1.134 35.866l1.001-1.732L22.01 45.601c.299-.46.595-.922.912-1.374 7.395-10.572 18.467-17.631 31.179-19.878a48.89 48.89 0 0 1 7.426-.737V0h2.002v23.603c9.492.174 18.72 3.151 26.678 8.711a48.193 48.193 0 0 1 13.346 14.044l19.455-11.224 1.001 1.732-19.428 11.209a48.35 48.35 0 0 1 5.524 15.396zM89.06 33.952c-7.865-5.494-17.025-8.359-26.421-8.359-2.719 0-5.457.24-8.189.724-12.186 2.155-22.799 8.922-29.888 19.056-7.087 10.133-9.801 22.417-7.64 34.59a46.31 46.31 0 0 0 4.987 14.185l.025-.014 1 1.732-.025.015a46.172 46.172 0 0 0 13.086 13.938c10.14 7.082 22.431 9.794 34.615 7.638 12.184-2.159 22.797-8.928 29.885-19.058 7.087-10.13 9.8-22.41 7.64-34.579-2.163-12.177-8.936-22.784-19.075-29.868zM54.544 90.035l3.238 3.235-12.724 4.855 4.859-12.714 3.212 3.21L77.56 64.207l-32.516-.001 22.698-22.909 1.423 1.406-19.322 19.503 32.548.001-27.847 27.828zM66.403 12.03l.127-1.996c18.623 1.185 36.144 11.052 46.868 26.395l-1.642 1.144C101.379 22.726 84.424 13.177 66.403 12.03zM14.012 36.588l-1.619-1.178c9.483-13.016 23.446-21.729 39.319-24.536a62.79 62.79 0 0 1 6.68-.82l.137 1.996a60.988 60.988 0 0 0-6.469.793C36.7 15.559 23.188 23.991 14.012 36.588zM8.327 97.664l-1.808.859A62.125 62.125 0 0 1 1.466 82.7C-1 68.81 1.23 54.917 7.912 42.524l1.761.95C3.208 55.465 1.051 68.909 3.436 82.351a60.091 60.091 0 0 0 4.891 15.313zm50.199 34.067l-.131 1.996c-19.318-1.275-37.19-11.726-47.806-27.956l1.675-1.094c10.275 15.707 27.569 25.821 46.262 27.054zm53.155-25.436l1.64 1.148c-9.489 13.531-23.685 22.571-39.971 25.456a62.54 62.54 0 0 1-6.818.828l-.131-1.997a60.766 60.766 0 0 0 6.599-.799c15.761-2.793 29.499-11.542 38.681-24.636zm4.226-61.837l1.78-.914a62.03 62.03 0 0 1 5.903 17.541c2.409 13.567.324 27.184-6.028 39.377l-1.775-.924c6.147-11.798 8.164-24.973 5.833-38.103a60.085 60.085 0 0 0-5.713-16.977z"/><path fill="url(#a)" d="M110.105 63.471c1.998 11.254-.007 22.596-5.637 32.389l19.541 11.274-1.001 1.732-19.566-11.289a50.086 50.086 0 0 1-1.307 1.969c-7.394 10.567-18.465 17.628-31.175 19.88a48.95 48.95 0 0 1-7.431.729V143h-2.002v-22.837c-9.493-.178-18.721-3.147-26.679-8.705a48.143 48.143 0 0 1-13.673-14.577l-19.04 10.985-1.001-1.732 19.04-10.985a48.318 48.318 0 0 1-5.222-14.836c-2.041-11.495.098-23.078 6.002-33.012L1.134 35.866l1.001-1.732L22.01 45.601c.299-.46.595-.922.912-1.374 7.395-10.572 18.467-17.631 31.179-19.878a48.89 48.89 0 0 1 7.426-.737V0h2.002v23.603c9.492.174 18.72 3.151 26.678 8.711a48.193 48.193 0 0 1 13.346 14.044l19.455-11.224 1.001 1.732-19.428 11.209a48.35 48.35 0 0 1 5.524 15.396zM89.06 33.952c-7.865-5.494-17.025-8.359-26.421-8.359-2.719 0-5.457.24-8.189.724-12.186 2.155-22.799 8.922-29.888 19.056-7.087 10.133-9.801 22.417-7.64 34.59a46.31 46.31 0 0 0 4.987 14.185l.025-.014 1 1.732-.025.015a46.172 46.172 0 0 0 13.086 13.938c10.14 7.082 22.431 9.794 34.615 7.638 12.184-2.159 22.797-8.928 29.885-19.058 7.087-10.13 9.8-22.41 7.64-34.579-2.163-12.177-8.936-22.784-19.075-29.868zM54.544 90.035l3.238 3.235-12.724 4.855 4.859-12.714 3.212 3.21L77.56 64.207l-32.516-.001 22.698-22.909 1.423 1.406-19.322 19.503 32.548.001-27.847 27.828zM66.403 12.03l.127-1.996c18.623 1.185 36.144 11.052 46.868 26.395l-1.642 1.144C101.379 22.726 84.424 13.177 66.403 12.03zM14.012 36.588l-1.619-1.178c9.483-13.016 23.446-21.729 39.319-24.536a62.79 62.79 0 0 1 6.68-.82l.137 1.996a60.988 60.988 0 0 0-6.469.793C36.7 15.559 23.188 23.991 14.012 36.588zM8.327 97.664l-1.808.859A62.125 62.125 0 0 1 1.466 82.7C-1 68.81 1.23 54.917 7.912 42.524l1.761.95C3.208 55.465 1.051 68.909 3.436 82.351a60.091 60.091 0 0 0 4.891 15.313zm50.199 34.067l-.131 1.996c-19.318-1.275-37.19-11.726-47.806-27.956l1.675-1.094c10.275 15.707 27.569 25.821 46.262 27.054zm53.155-25.436l1.64 1.148c-9.489 13.531-23.685 22.571-39.971 25.456a62.54 62.54 0 0 1-6.818.828l-.131-1.997a60.766 60.766 0 0 0 6.599-.799c15.761-2.793 29.499-11.542 38.681-24.636zm4.226-61.837l1.78-.914a62.03 62.03 0 0 1 5.903 17.541c2.409 13.567.324 27.184-6.028 39.377l-1.775-.924c6.147-11.798 8.164-24.973 5.833-38.103a60.085 60.085 0 0 0-5.713-16.977z"/></svg>