<svg xmlns="http://www.w3.org/2000/svg" width="111" height="106" viewBox="0 0 111 106"><path fill-rule="evenodd" fill="#FFF" d="M99.023 105.19H9.084v-2.005h89.939c5.464 0 8.994-3.542 8.994-9.021 0-5.482-3.53-9.024-8.994-9.024H60.049c-7.019 0-13.16-.696-18.249-2.067-14.301-3.852-21.393-13.033-21.695-28.018C10.748 54.807.09 50.833.09 34.019V18.982h9.993V1.942a1 1 0 1 1 1.999 0v17.04H30.07V1.942a1 1 0 1 1 1.998 0v17.04h9.993v15.037c0 16.778-10.614 20.771-19.957 21.034.3 13.952 6.908 22.5 20.215 26.083 4.92 1.327 10.885 1.999 17.73 1.999h38.974c6.575 0 10.993 4.432 10.993 11.029 0 6.594-4.418 11.026-10.993 11.026zm-58.96-71.171V20.988H2.088v13.031c0 12.815 6.211 19.045 18.988 19.045 12.776 0 18.987-6.23 18.987-19.045zM15.08 40.035a1 1 0 0 1 .999-1.003h9.993c.553 0 1 .449 1 1.003a1 1 0 0 1-1 1.002h-9.993a1 1 0 0 1-.999-1.002zm10.992-5.012h-9.993a1 1 0 0 1-.999-1.003 1 1 0 0 1 .999-1.002h9.993a1 1 0 0 1 1 1.002 1 1 0 0 1-1 1.003zm0-6.014h-9.993a1 1 0 0 1-.999-1.003 1 1 0 0 1 .999-1.002h9.993a1 1 0 0 1 1 1.002c0 .554-.447 1.003-1 1.003zm73.027 47.112a1 1 0 0 1-.999-1.002V64.092a1 1 0 1 1 1.999 0v11.027a1 1 0 0 1-1 1.002zm-9.07 0a1 1 0 0 1-.999-1.002V52.063a1 1 0 0 1 .999-1.002 1 1 0 0 1 .999 1.002v23.056a1 1 0 0 1-.999 1.002zm-9.993 0a1 1 0 0 1-.999-1.002V33.018a1 1 0 0 1 .999-1.003 1 1 0 0 1 .999 1.003v42.101a1 1 0 0 1-.999 1.002zm-9.993 0a1 1 0 0 1-1-1.002V14.975c0-.553.447-1.003 1-1.003.552 0 .999.45.999 1.003v60.144a1 1 0 0 1-.999 1.002zm-9.994 0a1 1 0 0 1-.999-1.002V1.944a1 1 0 1 1 1.999 0v73.175a1 1 0 0 1-1 1.002z"/></svg>