<svg xmlns="http://www.w3.org/2000/svg" width="86" height="108"><defs><linearGradient id="a" x1="0%" x2="70.711%" y1="70.711%" y2="0%"><stop offset="0%" stop-color="#0c90c2"/><stop offset="100%" stop-color="#2dd2ab"/></linearGradient></defs><path fill-rule="evenodd" fill="url(#a)" d="M42.987 107.966C5.275 96.802.445 28.091-.009 19.501 4.479 9.939 28.254 3.147 42.987.96c14.73 2.187 38.51 8.979 42.996 18.541-.454 8.59-5.28 77.301-42.996 88.465zM67.61 9.327c-7.224-2.741-16.405-5.108-24.623-6.351-8.219 1.243-17.4 3.61-24.623 6.351C9.77 12.588 4.002 16.334 2.025 19.923c.572 9.815 5.682 74.834 40.962 85.958 14.868-4.685 26.153-19.379 33.549-43.689 5.725-18.817 7.135-37.514 7.412-42.269-1.975-3.589-7.743-7.335-16.338-10.596zm-6.135 28.535c1.991 2.293 2.522 5.503 1.288 8.302a7.357 7.357 0 0 1-.598 1.098 3.696 3.696 0 0 1-.178.244l-.063.081a7.907 7.907 0 0 1-.495.632c-.084.092-.169.173-.253.254l-.165.157c-.144.14-.29.278-.445.405-.126.101-.244.183-.363.267-.228.16-.413.287-.606.402a9.529 9.529 0 0 1-.466.246 7.955 7.955 0 0 1-.59.27 7.552 7.552 0 0 1-.408.145 7.295 7.295 0 0 1-1.235.316 7.239 7.239 0 0 1-.656.083c-.188.014-.332.026-.474.031a7.974 7.974 0 0 1-2.09 4.877 7.656 7.656 0 0 1-2.867 1.971 7.841 7.841 0 0 1-1.161.344l-.138.031a7.413 7.413 0 0 1-1.122.133l-.173.009c-.065.002-.128.002-.191.002a7.63 7.63 0 0 1-.956-.056l-.153-.026a8.218 8.218 0 0 1-1.258-.291 7.726 7.726 0 0 1-.832-.318l-.186-.081a7.675 7.675 0 0 1-.967-.553l-.219-.154a8.042 8.042 0 0 1-.678-.545 5.075 5.075 0 0 1-.228-.207l-.004-.004-.164.138a8.34 8.34 0 0 1-.846.611 1.592 1.592 0 0 1-.127.081 7.73 7.73 0 0 1-.939.478l-.227.091a8.193 8.193 0 0 1-.907.296l-.178.049a7.608 7.608 0 0 1-1.273.188 7.715 7.715 0 0 1-1.033 0l-.139-.005a7.659 7.659 0 0 1-1.283-.226 7.856 7.856 0 0 1-1.185-.406 7.484 7.484 0 0 1-1.492-.898 7.703 7.703 0 0 1-2.804-4.088 8.264 8.264 0 0 1-.327-2.033 7.393 7.393 0 0 1-1.047-.139l-.101-.018a3.97 3.97 0 0 1-.218-.038l-.211-.065a8.367 8.367 0 0 1-.621-.2c-.171-.063-.328-.12-.482-.186a7.596 7.596 0 0 1-.619-.309l-.108-.06c-.117-.064-.235-.128-.347-.201a6.163 6.163 0 0 1-.498-.357l-.151-.112a5.313 5.313 0 0 1-.301-.237 5.915 5.915 0 0 1-.451-.445l-.165-.172a3.415 3.415 0 0 1-.246-.265 6.87 6.87 0 0 1-.424-.585l-.119-.172a3.354 3.354 0 0 1-.16-.235 7.932 7.932 0 0 1-.562-1.156c-1.114-2.88-.421-6.077 1.708-8.271-1.992-2.293-2.523-5.503-1.291-8.301.168-.377.369-.744.6-1.096.044-.073.107-.154.171-.235l.061-.082c.163-.225.327-.444.514-.647.069-.081.159-.167.249-.254l.073-.07a7.79 7.79 0 0 1 .543-.494c.11-.089.23-.175.351-.261.228-.16.42-.289.621-.406.132-.081.286-.161.441-.237a7.294 7.294 0 0 1 1.081-.449c.226-.072.442-.134.662-.185.198-.045.338-.078.481-.101a8.36 8.36 0 0 1 .694-.084c.205-.017.329-.028.452-.032.185-3.061 2.082-5.732 4.963-6.843a7.918 7.918 0 0 1 1.158-.344l.098-.021a7.442 7.442 0 0 1 1.167-.144 7.493 7.493 0 0 1 1.32.044l.121.019c.352.052.669.119.977.208a7.535 7.535 0 0 1 1.146.411c.058.022.133.053.205.089.308.147.627.329.937.533l.168.121a8.527 8.527 0 0 1 .967.798c.057-.053.138-.119.22-.183.251-.203.515-.395.789-.566l.101-.068a7.99 7.99 0 0 1 1.164-.571c.344-.136.637-.233.938-.311a7.394 7.394 0 0 1 1.459-.238c.385-.018.703-.02 1.017 0l.165.007c.375.034.742.096 1.109.184l.239.063c.439.122.778.24 1.098.383 2.804 1.238 4.572 3.977 4.629 7.024a7.574 7.574 0 0 1 1.038.138c.167.032.342.068.514.115.22.059.43.13.641.206.224.081.366.133.504.195.189.081.383.184.578.29l-.382.929.478-.877c.126.068.253.136.374.214.198.127.384.268.566.41l.084.063c.108.079.216.159.316.249.143.124.282.267.419.412l.176.184c.088.088.175.179.256.278a6.7 6.7 0 0 1 .428.59l.103.15c.062.085.123.171.178.264.217.37.404.753.554 1.139 1.117 2.879.425 6.076-1.706 8.272zm-.167-7.554a6.029 6.029 0 0 0-.415-.853c-.021-.034-.046-.064-.068-.096l-.107-.151c-.144-.216-.239-.362-.35-.494-.051-.063-.096-.106-.139-.149l-.204-.213c-.094-.098-.186-.198-.288-.287-.062-.055-.121-.096-.18-.139l-.12-.09c-.144-.112-.279-.217-.423-.309-.076-.049-.16-.093-.242-.137l-.091-.049c-.153-.083-.293-.161-.441-.224a4.323 4.323 0 0 0-.293-.114c-.239-.085-.396-.141-.557-.184a6.158 6.158 0 0 0-.386-.085 5.509 5.509 0 0 0-.896-.11c-.248-.012-.48-.025-.72-.004l-1.22.099.14-1.207c.301-2.602-1.065-5.045-3.4-6.076a5.636 5.636 0 0 0-.818-.281l-.093-.025a5.755 5.755 0 0 0-.884-.157l-.101-.003a5.864 5.864 0 0 0-.737-.003l-.181.012a5.398 5.398 0 0 0-.791.126l-.136.036a5.868 5.868 0 0 0-.656.214l-.199.078a6.132 6.132 0 0 0-.728.368l-.086.059c-.2.125-.398.269-.59.424-.051.041-.099.079-.145.121-.26.224-.456.414-.617.6l-.806.92-.748-.966a5.528 5.528 0 0 0-.565-.614 6.44 6.44 0 0 0-.685-.569l-.17-.124a6.066 6.066 0 0 0-.703-.399l-.118-.048a5.8 5.8 0 0 0-1.581-.47l-.104-.017a4.945 4.945 0 0 0-.851-.041l-.138.009a5.556 5.556 0 0 0-.816.095l-.098.023a5.922 5.922 0 0 0-.869.256c-2.398.925-3.878 3.314-3.684 5.945l.091 1.212-1.215-.15a5.586 5.586 0 0 0-1.07-.011l-.102.009a6.69 6.69 0 0 0-.519.061 5.148 5.148 0 0 0-.306.066 6.365 6.365 0 0 0-.896.275 5.363 5.363 0 0 0-.46.21c-.108.054-.213.106-.312.166a5.68 5.68 0 0 0-.447.293c-.125.088-.208.146-.286.21a5.298 5.298 0 0 0-.404.369l-.09.087c-.048.045-.096.09-.142.141a5.373 5.373 0 0 0-.382.487c-.029.041-.069.091-.109.142-.019.027-.042.052-.059.08a5.71 5.71 0 0 0-.456.829c-1.03 2.336-.401 5.068 1.564 6.792l.9.789-.942.74c-2.069 1.623-2.834 4.329-1.904 6.735.11.283.246.565.417.857l.055.076c.042.057.083.115.123.175.14.21.238.358.349.491.042.05.081.087.119.126l.206.213c.098.105.195.21.302.303.058.05.12.095.183.141l.117.087c.175.135.291.226.416.303.085.055.155.091.225.129l.126.07c.142.078.289.155.441.221.114.05.235.093.358.138.167.06.326.113.487.157l.197.054c.068.01.134.021.2.034.163.034.325.06.49.08.125.012.257.022.391.027l.18.014c.246.009.397.003.549-.007l1.199-.081-.134 1.186a6.048 6.048 0 0 0 .219 2.358 5.733 5.733 0 0 0 2.082 3.044c.403.303.753.515 1.104.67.232.104.49.193.816.281l.18.046c.281.068.55.115.8.137l.121.004c.252.018.483.016.714.002l.152-.009c.303-.027.567-.066.827-.126l.152-.044c.223-.058.44-.131.653-.211l.147-.06a6.04 6.04 0 0 0 .755-.378l.62.787-.532-.845c.207-.129.405-.275.595-.428l.157-.13c.247-.215.441-.405.604-.59l.8-.915.75.956c.176.224.373.426.575.625.05.048.106.097.162.145.176.158.344.293.519.417l.17.121c.223.15.458.285.7.401l.162.069a5.558 5.558 0 0 0 .84.302c.231.062.462.113.697.147l.123.021c.251.033.529.047.839.04l.125-.007a5.264 5.264 0 0 0 .979-.13c.284-.064.558-.145.81-.243a5.65 5.65 0 0 0 2.12-1.462 5.978 5.978 0 0 0 1.564-4.484l-.089-1.189 1.195.124c.116.012.232.011.349.013l.344.01c.042.002.087.01.122.004.112-.003.23-.014.347-.023.197-.018.363-.034.527-.064.15-.024.273-.052.396-.08.141-.037.309-.08.475-.134l.096-.037a4.65 4.65 0 0 0 .28-.099c.128-.053.281-.125.432-.201.123-.06.237-.119.349-.183.125-.076.267-.173.407-.273.143-.099.226-.156.307-.22.102-.085.21-.19.318-.293l.171-.164c.05-.047.101-.095.149-.147a5.88 5.88 0 0 0 .362-.467l.102-.135c.027-.034.055-.068.079-.104a5.46 5.46 0 0 0 .443-.81c1.033-2.344.406-5.076-1.56-6.801l-.9-.789.942-.739c2.072-1.625 2.837-4.33 1.904-6.733zm-10.928 11.6a6.194 6.194 0 0 1-.171.27 8.33 8.33 0 0 1-.576.783l-.034.044-.009.011-.024.031-.035.04a7.897 7.897 0 0 1-.77.772 5.468 5.468 0 0 1-.179.155l-.029.027-.031.024a9.154 9.154 0 0 1-.758.567l-.074.053-.055.036a8.967 8.967 0 0 1-.942.514l-.027.013-.028.013-.11.047-.096.043a8.804 8.804 0 0 1-1.043.38 8.607 8.607 0 0 1-1.111.242l-.225.029a9.154 9.154 0 0 1-.872.065 2.658 2.658 0 0 1-.202.009h-.073l-.024-.001a8.89 8.89 0 0 1-.455-.024l-.079-.004a5.506 5.506 0 0 1-.308-.022 9.076 9.076 0 0 1-.507-.078 5.225 5.225 0 0 1-.866-.196l-.02-.005a4.114 4.114 0 0 1-.325-.089 8.595 8.595 0 0 1-3.936-2.644c-2.16-2.553-2.667-6.032-1.323-9.081.146-.331.324-.666.545-1.026l.16-.253c.203-.307.401-.573.603-.81l.015-.021.027-.034.029-.034a8.773 8.773 0 0 1 1.027-.993c.262-.216.511-.401.756-.563l.098-.067a8.01 8.01 0 0 1 1.208-.636c.289-.127.569-.234.855-.322.07-.024.137-.047.191-.062a8.947 8.947 0 0 1 1.097-.241l.243-.031c.272-.034.551-.056.869-.066.068-.005.137-.009.207-.009.042 0 .084.002.128.004.14.003.279.011.394.021l.057.002c.124.005.248.013.372.028a6.5 6.5 0 0 1 .36.052l.081.013.073.012.031.005c.118.018.234.038.305.055.181.039.358.089.569.148.108.027.216.056.285.081.31.1.59.207.84.321 4.361 1.927 6.343 7.045 4.417 11.41a8.382 8.382 0 0 1-.525.992zm-4.709-10.582a6.097 6.097 0 0 0-.645-.246c-.084-.029-.172-.045-.256-.07a6.78 6.78 0 0 0-.402-.106c-.098-.023-.197-.032-.298-.051-.122-.019-.242-.042-.361-.055-.104-.014-.208-.014-.312-.02a4.63 4.63 0 0 0-.351-.017c-.019 0-.037-.004-.053-.004-.039 0-.076.007-.115.007a6.96 6.96 0 0 0-1.729.258c-.041.011-.081.026-.12.04a6.064 6.064 0 0 0-.682.254 5.96 5.96 0 0 0-.927.485l-.079.054a7.097 7.097 0 0 0-.772.593 6.74 6.74 0 0 0-.603.604.92.92 0 0 0-.035.046 6.539 6.539 0 0 0-.608.845 6.522 6.522 0 0 0-.42.789 6.665 6.665 0 0 0 1.021 6.999 6.617 6.617 0 0 0 3.023 2.032c.073.024.145.039.216.056.147.042.294.087.442.119.088.018.177.03.266.044.132.023.264.047.395.063.097.008.192.011.288.017.125.009.25.017.375.021h.05c.038 0 .071-.007.109-.007.24-.005.48-.023.717-.052l.205-.026c.276-.045.547-.102.813-.179.038-.01.079-.025.117-.038.231-.07.462-.159.685-.255l.194-.085c.25-.12.498-.249.733-.399.026-.017.05-.037.074-.053.213-.138.415-.292.613-.456.053-.047.109-.091.163-.141.212-.187.417-.384.604-.601.01-.013.02-.028.032-.041l.013-.019a6.05 6.05 0 0 0 .476-.641c.04-.061.081-.123.119-.187.154-.252.299-.513.422-.79 1.484-3.365-.038-7.303-3.397-8.787zm-2.4 31.264c7.529-.195 14.049-2.618 14.396-3.165v24.377c0 .99-.597 1.881-1.508 2.262a2.447 2.447 0 0 1-2.664-.531l-10.507-6.374-10.508 6.374a2.44 2.44 0 0 1-2.664.531 2.45 2.45 0 0 1-1.509-2.262V60.37c.318.378 7.545 2.231 14.107 2.231.288 0 .573-.004.857-.011zM30.314 83.802c0 .187.11.353.279.424a.423.423 0 0 0 .461-.096l.171-.172.208-.125 10.508-6.374 1.047-.635 1.046.635 10.508 6.374.208.125.172.172a.422.422 0 0 0 .464.094.456.456 0 0 0 .273-.422V62.473c-3.312 1.1-8.203 2.002-12.335 2.109-.302.008-.605.012-.91.012-3.295 0-8.564-.632-12.1-1.502v20.71z"/></svg>