<svg xmlns="http://www.w3.org/2000/svg" width="87" height="105"><defs><linearGradient id="a" x1="0%" x2="70.711%" y1="70.711%" y2="0%"><stop offset="0%" stop-color="#0c90c2"/><stop offset="100%" stop-color="#2dd2ab"/></linearGradient></defs><path fill-rule="evenodd" fill="url(#a)" d="M73.599 52.182c-3.211 0-6.119-1.073-8.402-2.879L33.803 77.771c2.256 2.858 3.615 6.448 3.615 10.353 0 9.278-7.599 16.826-16.939 16.826-9.339 0-16.938-7.548-16.938-16.826 0-9.277 7.599-16.825 16.938-16.825 4.689 0 8.936 1.903 12.006 4.971l31.244-28.331c-2.193-2.36-3.528-5.525-3.528-9.064 0-1.525.257-2.977.713-4.33L25.367 20.293c-2.182 4.342-6.664 7.265-11.97 7.265C5.884 27.558 0 21.713 0 14.251 0 6.788 5.884.942 13.397.942c7.512 0 13.397 5.846 13.397 13.309a13.57 13.57 0 0 1-.665 4.199l35.559 14.256c2.205-4.273 6.655-7.139 11.911-7.139 7.512 0 13.396 5.846 13.396 13.308 0 7.463-5.884 13.307-13.396 13.307zM20.479 73.29c-8.234 0-14.933 6.654-14.933 14.834s6.699 14.834 14.933 14.834c8.235 0 14.934-6.654 14.934-14.834S28.714 73.29 20.479 73.29zM13.397 2.934c-6.388 0-11.392 4.97-11.392 11.317 0 6.344 5.004 11.316 11.392 11.316s11.392-4.972 11.392-11.316c0-6.347-5.004-11.317-11.392-11.317zm60.202 24.624c-6.389 0-11.393 4.971-11.393 11.317 0 6.345 5.004 11.316 11.393 11.316 6.387 0 11.391-4.971 11.391-11.316 0-6.346-5.004-11.317-11.391-11.317zm.951 4.515c-4.373.026-7.8 3.452-7.8 7.798 0 .55-.448.995-1.002.995a.998.998 0 0 1-1.003-.995c0-5.457 4.302-9.758 9.794-9.79h.005c.552 0 1 .441 1.003.99a.999.999 0 0 1-.997 1.002zM11.517 8.227c-2.457 0-4.309 1.84-4.309 4.281 0 .55-.448.995-1.003.995a.998.998 0 0 1-1.002-.995c0-3.517 2.773-6.273 6.314-6.273a.999.999 0 0 1 1.002.996c0 .55-.448.996-1.002.996zm9.965 69.577c-6.388 0-11.392 4.971-11.392 11.316 0 .55-.448.996-1.002.996a1 1 0 0 1-1.003-.996c0-7.463 5.884-13.308 13.397-13.308a.998.998 0 0 1 1.002.996.998.998 0 0 1-1.002.996z"/></svg>