<svg xmlns="http://www.w3.org/2000/svg" width="123" height="104"><defs><linearGradient id="a" x1="0%" x2="70.711%" y1="70.711%" y2="0%"><stop offset="0%" stop-color="#0c90c2"/><stop offset="100%" stop-color="#2dd2ab"/></linearGradient></defs><path fill-rule="evenodd" fill="url(#a)" d="M123 72.589c0 2.3-1.149 4.434-3.005 5.716a6.934 6.934 0 0 1 1.004 3.591 6.985 6.985 0 0 1-3.691 6.133c.048.327.072.654.072.978 0 3.829-3.109 6.944-6.93 6.944l-.517.044c-.193.004-11.879.125-17.363.125-.734 0-1.356-.002-1.826-.006a19.06 19.06 0 0 1-.918-.023c-1.543-.11-3.232-1.49-4.722-2.708-.559-.457-1.322-1.08-1.579-1.175a5.469 5.469 0 0 0-1.194-.143h-.001l-14.279.002V64.422l6.624-.041c.097.003.833.058 1.753-.182 1.567-.411 3.015-1.834 4.302-4.231.348-.647.628-1.639.922-2.689.496-1.761 1.057-3.754 2.22-5.37.847-1.173 2.34-2.66 3.785-4.1l.676-.675c1.175-1.176 3.246-3.814 4.08-5.709 1.051-2.387 1.116-4.631 1.156-5.971.012-.408.024-.739.052-.976.268-2.215 1.181-3.584 2.788-4.183 2.601-.968 4.899.827 6.189 2.831.879 1.364 2.039 3.526 2.567 6.064.498 2.39.082 5.328-1.084 7.667-.471.946-1.111 2.185-1.711 3.348-.672 1.3-1.293 2.504-1.568 3.081-.498 1.041-.581 1.623-.621 2.087-.04.47.064.853.306 1.14.233.273.537.387.727.401 1.462.116 4.277-.234 6.541-.511 2.02-.246 6.51-.663 6.701-.68l.376-.004c3.821 0 6.93 3.115 6.93 6.943 0 1.61-.552 3.145-1.546 4.372A6.983 6.983 0 0 1 123 72.589zm-8.168-14.867h-.285c.046 0-4.559.426-6.476.659-2.548.313-5.349.66-7.007.53-.779-.058-1.564-.47-2.099-1.101-.414-.487-.884-1.335-.774-2.608.057-.686.196-1.498.807-2.78.282-.588.914-1.813 1.596-3.137a289.714 289.714 0 0 0 1.7-3.322c.96-1.926 1.319-4.424.915-6.364-.466-2.237-1.503-4.165-2.29-5.389-.301-.466-1.888-2.759-3.814-2.038-.404.151-1.248.465-1.499 2.547-.024.193-.03.462-.039.794-.041 1.389-.116 3.976-1.325 6.72-.976 2.216-3.26 5.08-4.496 6.317l-.68.68c-1.388 1.381-2.823 2.811-3.574 3.853-.956 1.326-1.466 3.139-1.916 4.739-.326 1.16-.634 2.255-1.086 3.096-1.561 2.904-3.43 4.66-5.557 5.219-1.251.327-2.234.25-2.342.243l-4.542.031v23.653l12.276-.001h.019c.155 0 .945.011 1.702.212l.001.001c.592.158 1.235.668 2.319 1.555 1.072.875 2.689 2.198 3.603 2.264.139.009.413.012.796.016 3.96.041 18.929-.115 19.079-.115l.528-.045c2.798-.002 5.01-2.219 5.01-4.944 0-.424-.061-.861-.179-1.294l-.239-.878.849-.323a4.965 4.965 0 0 0 3.188-4.616 4.94 4.94 0 0 0-1.221-3.246l-.881-1.011 1.218-.558a4.959 4.959 0 0 0 2.885-4.492 4.969 4.969 0 0 0-2.811-4.455l-1.407-.674 1.199-.999a4.941 4.941 0 0 0-3.151-8.739zm-28.056-19.23a.997.997 0 0 1-.751-.341 38.81 38.81 0 0 0-1.753-1.875c-7.257-7.273-16.904-11.277-27.165-11.277-1.159 0-2.328.052-3.474.156a.983.983 0 0 1-1.085-.908 1.001 1.001 0 0 1 .905-1.087 41.132 41.132 0 0 1 3.654-.163c10.795 0 20.945 4.213 28.578 11.862a40.364 40.364 0 0 1 1.842 1.972 1.003 1.003 0 0 1-.092 1.413.996.996 0 0 1-.659.248zm-31.334-1.148l1.38 4.66c.916 3.097.252 6.373-1.872 9.223-3.013 4.045-8.542 6.763-13.757 6.763H16.546c-5.217 0-10.746-2.717-13.758-6.76C.663 48.379-.001 45.103.916 42.004l1.38-4.66c3.365-11.366 9.799-18.516 17.964-20.206-.843-.868-1.736-2.174-1.907-3.9a6.624 6.624 0 0 1 .259-13.241c3.646 0 6.613 2.973 6.613 6.626 0 3.054-2.075 5.626-4.885 6.39.219 2.329 2.466 3.647 2.49 3.661.056.032.092.081.14.123.373-.022.743-.054 1.123-.054h9.552c.379 0 .749.032 1.122.054.047-.041.082-.089.137-.121.024-.014 2.272-1.356 2.494-3.663-2.81-.765-4.885-3.336-4.885-6.39 0-3.653 2.967-6.626 6.613-6.626a6.624 6.624 0 1 1 .259 13.241c-.171 1.726-1.065 3.032-1.907 3.9 8.166 1.69 14.6 8.84 17.964 20.206zM23.227 6.623a4.626 4.626 0 0 0-4.615-4.624 4.625 4.625 0 0 0 0 9.249 4.626 4.626 0 0 0 4.615-4.625zm15.899 4.625a4.625 4.625 0 0 0 0-9.249 4.625 4.625 0 0 0 0 9.249zm-5.481 7.498h-9.552c-12.823 0-18.175 13.405-19.881 19.167l-1.379 4.66c-.941 3.177.326 5.809 1.556 7.458 2.654 3.564 7.54 5.957 12.157 5.957h24.647c4.616 0 9.501-2.395 12.156-5.958 1.229-1.65 2.496-4.283 1.556-7.457l-1.379-4.66c-1.706-5.762-7.056-19.167-19.881-19.167zM17.688 62.495a1 1 0 0 1 1 1.001c0 21.227 17.235 38.496 38.419 38.496a38.17 38.17 0 0 0 21.479-6.574 1 1 0 0 1 1.119 1.658c-6.684 4.526-14.498 6.918-22.598 6.918-22.287 0-40.418-18.167-40.418-40.498a1 1 0 0 1 .999-1.001z"/></svg>