<svg xmlns="http://www.w3.org/2000/svg" width="121" height="108"><defs><linearGradient id="a" x1="0%" x2="70.711%" y1="70.711%" y2="0%"><stop offset="0%" stop-color="#0c90c2"/><stop offset="100%" stop-color="#2dd2ab"/></linearGradient></defs><path fill-rule="evenodd" fill="url(#a)" d="M120.576 81.86l-3.624 2.554a.99.99 0 0 1-1.151-.002l-1.851-1.316a1.004 1.004 0 0 1-.421-.818v-3.991L75.711 95.289l-3.265 9.834a1.01 1.01 0 0 1-.534.597l-4.764 2.166-.012.003a.99.99 0 0 1-.4.086.995.995 0 0 1-.436-.111c-.031-.015-.065-.023-.095-.042l-4.181-2.631a1.011 1.011 0 0 1-.428-.571l-2.757-9.531-3.159-1.711c-.008-.004-.012-.013-.02-.017l-5.155 2.977.017 2.519c.001.057-.022.106-.031.161-.008.052-.001.104-.018.157-.004.012-.014.02-.019.032-.026.071-.067.129-.107.192-.032.048-.056.1-.095.142-.043.047-.098.079-.149.117-.053.038-.1.082-.159.109-.049.023-.105.03-.158.046-.073.02-.144.042-.221.046-.012.001-.022.007-.034.007h-.007c-.054 0-.101-.022-.153-.031-.053-.009-.105-.001-.157-.019-5.178-1.701-10.068 1.203-12.92 4.487-.007.009-.017.011-.025.019a1 1 0 0 1-.257.207c-.014.008-.03.01-.045.017-.019.009-.039.015-.059.023a.994.994 0 0 1-.367.078c-.108 0-.214-.022-.317-.056-.032-.011-.061-.03-.092-.044-.049-.022-.1-.038-.145-.068L.442 81.32a1.005 1.005 0 0 1-.444-.834V29.069c0-.043.011-.084.016-.126.002-.015-.004-.028-.001-.042.002-.01.008-.017.01-.026.023-.116.064-.224.124-.325.012-.019.025-.034.038-.052.058-.083.127-.156.208-.219.015-.011.027-.024.042-.035.008-.006.014-.014.023-.019a.976.976 0 0 1 .279-.118c.027-.008.053-.011.081-.016.11-.02.221-.026.331-.01h.016c6.482 1.11 10.711.281 12.576-2.463l.003-.003v-.001c.017-.024.044-.04.063-.063.042-.051.086-.095.136-.137.028-.022.049-.053.079-.072.023-.016.051-.021.076-.034a.867.867 0 0 1 .19-.076c.013-.004.024-.012.037-.015.02-.005.034-.018.053-.023h.006l7.822-1.521V12.554c0-.008.004-.015.004-.022 0-.01-.004-.019-.003-.03.006-.115.033-.225.075-.328.01-.024.027-.042.039-.065a.974.974 0 0 1 .155-.231c.028-.031.061-.055.094-.082a.981.981 0 0 1 .189-.128.826.826 0 0 1 .127-.052c.032-.012.059-.031.093-.039L72.675.016c.158-.036.321-.034.478.007l47.102 12.386c.027.007.048.025.074.034a.894.894 0 0 1 .13.059.916.916 0 0 1 .183.123c.035.03.068.058.098.092.053.06.095.127.133.198.019.035.041.066.055.103a.988.988 0 0 1 .073.36v67.661c0 .327-.159.633-.425.821zm-52.841 23.557l2.955-1.344 2.547-7.672-5.502 2.474v6.542zm-4.327-1.723l2.329 1.466v-6.337l-4.432-2.4 2.103 7.271zm-12.919-9.661l9.293-5.367V37.294l-9.666 3.4.373 53.339zm-13.949 7.188c3.563-3.15 7.912-4.484 11.976-3.651l-.387-55.408c-4.22 3.206-9.114 3.747-11.589 3.79v55.269zM1.996 30.631v49.318l32.547 21.821V90.425c-.015-.008-.032-.011-.046-.021L13.832 77.399a1.005 1.005 0 0 1-.468-.85V35.985c0-.043.019-.079.024-.12L1.996 30.631zm32.547 57.435V45.585l-19.181-8.813v39.221l19.181 12.073zM6.596 30.539l29.175 13.404c1.863.049 7.147-.159 11.464-3.63l-32.351-12.93c-1.722 2.022-4.497 3.076-8.288 3.156zm11.508-4.027l31.03 12.403 8.673-3.05-30.572-11.127-9.131 1.774zm6.099-3.227l2.923-.568c.18-.035.362-.019.531.041l33.464 12.18c.01.003.017.011.026.014.032.012.057.033.087.048.076.04.147.085.209.141.031.028.056.058.083.089.052.06.095.125.132.195.018.036.037.068.051.106.04.105.065.215.067.332 0 .006.004.011.004.018v53.364c0 .359-.192.69-.501.87l-3.59 2.073 8.048 4.357V28.213L24.203 13.956v9.329zm48.683-21.26L26.831 12.739 66.773 26.45l49.302-13.067L72.886 2.025zm46.118 12.655L67.735 28.268v68.409l51.269-23.048V14.68zm0 61.279l-3.478 1.885v3.915l.855.608 2.623-1.848v-4.56zm-37.86-11.456l2.439.145v-8.189l-2.441-2.178a1.005 1.005 0 0 1-.083-1.415.992.992 0 0 1 1.41-.083l2.776 2.477a.999.999 0 0 1 .336.749v9.702a1 1 0 0 1-.999 1.002l-.059-.001-3.496-.207a1 1 0 0 1-.938-1.059 1.009 1.009 0 0 1 1.055-.943zm27.54-11.162l2.231.132v-7.614l-2.276-2.031a1.004 1.004 0 0 1-.083-1.415.992.992 0 0 1 1.409-.084l2.612 2.33c.213.191.335.463.335.75v9.127a1.004 1.004 0 0 1-.998 1.003l-.059-.002-3.289-.195a1 1 0 0 1-.938-1.06c.032-.552.513-.97 1.056-.941z"/></svg>