<svg xmlns="http://www.w3.org/2000/svg" width="66" height="54" viewBox="0 0 66 54"><path fill-rule="evenodd" d="M63 32.999c1.654 0 3 1.346 3 3v3c0 1.655-1.346 3-3 3h-2v4.573c0 2.018-1.444 3.427-3.512 3.427H55v1a1 1 0 1 1-2 0v-1h-4v1a1 1 0 1 1-2 0v-1h-4v1a1 1 0 1 1-2 0v-1h-4v1a1 1 0 1 1-2 0v-1h-4v1a1 1 0 1 1-2 0v-.537c-1.625 1.784-2.051 2.854-2.056 2.866-.008.023-.025.041-.035.063-.019.045-.043.084-.068.125a1.002 1.002 0 0 1-.118.153 1.028 1.028 0 0 1-.122.116c-.051.038-.108.065-.165.094-.042.021-.074.053-.12.069a1.028 1.028 0 0 1-.316.051.995.995 0 0 1-.643-.246c-.018-.016-.033-.033-.05-.049a.967.967 0 0 1-.166-.218.73.73 0 0 1-.05-.096c-.012-.026-.03-.047-.039-.074-.001-.001-.484-1.25-2.48-3.317H19v1a1 1 0 1 1-2 0v-1h-4v1a1 1 0 1 1-2 0v-1H8.678C6.581 49.999 5 48.525 5 46.572v-4.573H3c-1.654 0-3-1.345-3-3v-3c0-1.654 1.346-3 3-3h2v-15H3c-1.654 0-3-1.346-3-3v-3c0-1.654 1.346-3 3-3h2V6.093c0-2.142 1.753-4.094 3.678-4.094H11V1a1 1 0 1 1 2 0v.999h4V1a1 1 0 1 1 2 0v.999h4V1a1 1 0 1 1 2 0v.999h4V1a1 1 0 1 1 2 0v.999h4V1a1 1 0 1 1 2 0v.999h4V1a1 1 0 1 1 2 0v.999h4V1a1 1 0 1 1 2 0v.999h4V1a1 1 0 1 1 2 0v.999h2.488C59.589 1.999 61 4.116 61 6.093v2.906h2c1.654 0 3 1.346 3 3v3c0 1.654-1.346 3-3 3h-2v15h2zm-2 7h2a1 1 0 0 0 1-1v-3c0-.551-.448-1-1-1h-2v5zm-56-29H3c-.552 0-1 .449-1 1v3c0 .551.448 1 1 1h2v-5zm0 24H3c-.552 0-1 .449-1 1v3a1 1 0 0 0 1 1h2v-5zM11 4H8.678C7.862 4 7 5.075 7 6.093v40.479c0 .985.843 1.427 1.678 1.427H11V4zm6 0h-4v43.999h4V4zm2 43.999h1.359A9.655 9.655 0 0 0 19 47.106v.893zM23 4h-4v40.898c.528-.277 1.677-.99 3.293-2.606.26-.26.492-.505.707-.741V4zm6 0h-4v34.796l.056-.125c.007-.02.023-.034.031-.052a.987.987 0 0 1 .122-.202c.028-.036.051-.074.082-.106a.988.988 0 0 1 .21-.156c.034-.02.065-.041.101-.058.029-.013.051-.035.082-.047.06-.02.12-.013.18-.022.037-.006.072-.013.11-.014a.972.972 0 0 1 .29.039c.02.005.041 0 .062.007.011.005.019.014.03.018a.947.947 0 0 1 .243.143c.031.022.063.043.09.069.054.053.095.115.137.179.032.05.064.097.087.151.009.023.027.039.035.063.001 0 .406 1.068 2.052 2.868V4zm-.707 39.706c-1.083-1.083-1.802-1.983-2.293-2.693-.28.404-.644.876-1.096 1.402a.991.991 0 0 1-.342.39c-.259.286-.537.583-.855.901-1.083 1.082-1.984 1.801-2.693 2.293.709.491 1.61 1.21 2.693 2.293 1.083 1.082 1.802 1.984 2.293 2.694.491-.71 1.21-1.612 2.293-2.694 1.082-1.083 1.984-1.802 2.693-2.293-.709-.492-1.611-1.211-2.693-2.293zm2.618-.302c1.514 1.299 2.407 1.647 2.418 1.651.02.007.033.023.052.031a.982.982 0 0 1 .203.123c.036.028.074.051.106.082.06.059.106.129.15.203.023.038.047.071.064.113.012.026.034.046.044.076.019.056.013.112.021.17.007.042.015.082.016.126a.957.957 0 0 1-.037.273c-.006.025-.001.05-.01.073-.005.015-.015.025-.02.039a.969.969 0 0 1-.09.168.991.991 0 0 1-.429.37c-.026.012-.044.033-.072.042-.032.012-.643.258-1.688 1.055H35V28a.99.99 0 0 1-.652-.257c-.013-.01-.023-.022-.035-.034a.984.984 0 0 1-.222-.318c-.011-.027-.03-.048-.039-.075-.001 0-.365-.93-1.902-2.467A13.99 13.99 0 0 0 31 23.812v19.187a.991.991 0 0 1-.089.405zM35 4h-4v16.185c.332-.265.713-.599 1.15-1.036 1.544-1.544 1.904-2.475 1.908-2.484.006-.018.022-.03.029-.048a.996.996 0 0 1 .132-.213c.024-.03.043-.064.071-.091a.969.969 0 0 1 .23-.169c.027-.015.051-.033.079-.045.03-.013.052-.038.085-.049.065-.021.13-.016.196-.023.032-.005.062-.011.094-.012.009 0 .017.003.026.003V4zm1.435 16.563A15.237 15.237 0 0 1 35 18.922a15.151 15.151 0 0 1-1.436 1.641A15.078 15.078 0 0 1 31.922 22c.466.347 1.012.804 1.642 1.435.63.63 1.088 1.177 1.436 1.642.348-.465.806-1.012 1.435-1.642A14.903 14.903 0 0 1 38.078 22a15.17 15.17 0 0 1-1.643-1.437zM41 15.101c-.205-.108-.325-.156-.329-.158-.013-.004-.022-.015-.035-.021a1.018 1.018 0 0 1-.277-.167 1.179 1.179 0 0 1-.05-.05.956.956 0 0 1-.181-.244c-.01-.019-.02-.035-.028-.054-.015-.031-.037-.057-.048-.092-.019-.056-.013-.112-.021-.17-.007-.041-.015-.082-.016-.126a.961.961 0 0 1 .036-.273c.007-.024.002-.049.01-.074.005-.012.015-.02.02-.032a.905.905 0 0 1 .134-.229c.025-.035.047-.071.077-.102.05-.053.11-.091.172-.132.049-.033.096-.065.151-.088.021-.01.036-.027.058-.035.013-.004.13-.053.327-.156V4h-4v13.999c0 .065-.025.122-.037.183.241.288.529.609.887.967 1.544 1.545 2.474 1.904 2.484 1.907.018.006.029.022.046.029a.974.974 0 0 1 .223.138c.027.022.058.039.082.065a.944.944 0 0 1 .169.229c.016.029.034.054.047.083.013.03.037.052.047.084.022.064.016.128.024.193.005.032.012.062.012.097a.953.953 0 0 1-.042.301c-.005.018-.001.037-.007.054-.004.011-.011.018-.015.027a1.145 1.145 0 0 1-.184.299.983.983 0 0 1-.132.126.939.939 0 0 1-.188.111c-.03.015-.052.04-.084.05-.048.019-.972.396-2.482 1.907-.358.358-.646.678-.887.967.012.062.037.119.037.183v22h4V15.101zm2 32.898h4V21.2c-.165-.357-.82-1.607-2.707-3.494A20.915 20.915 0 0 0 43 16.516v31.483zM47 4h-4v7.482c.391-.332.818-.714 1.293-1.19C46.172 8.412 46.83 7.166 47 6.796V4zm1 5.014c-.491.709-1.211 1.61-2.293 2.693-1.082 1.082-1.983 1.801-2.693 2.292.71.492 1.611 1.211 2.693 2.293 1.082 1.083 1.802 1.983 2.293 2.693.491-.71 1.21-1.61 2.293-2.693 1.082-1.082 1.983-1.801 2.693-2.293-.71-.491-1.611-1.21-2.693-2.292C49.21 10.624 48.491 9.723 48 9.014zM53 4h-4v2.798c.165.357.82 1.607 2.707 3.494.475.476.901.858 1.293 1.189V4zm0 12.516c-.391.332-.818.715-1.293 1.19-1.879 1.88-2.537 3.127-2.707 3.497v26.796h4V16.516zm6-10.423C59 5.016 58.266 4 57.488 4H55v8.897c.205.107.325.157.329.157.019.008.032.023.051.032.075.031.14.076.205.124.036.027.073.05.105.081.06.059.106.129.15.203.023.038.047.073.064.112.012.028.034.047.044.077.019.057.013.113.021.169.007.043.015.084.016.128a.96.96 0 0 1-.037.272c-.006.025-.001.049-.01.074-.005.014-.015.025-.02.039a1.07 1.07 0 0 1-.308.413 1.014 1.014 0 0 1-.215.127c-.025.01-.042.03-.068.039-.013.005-.13.053-.327.157v32.898h2.488c.454 0 1.512-.139 1.512-1.427V6.093zm4 9.906c.552 0 1-.449 1-1v-3c0-.551-.448-1-1-1h-2v5h2z"/></svg>