<svg xmlns="http://www.w3.org/2000/svg" width="112" height="48" viewBox="0 0 112 48"><path fill-rule="evenodd" d="M104.99 17.983h-3.004v11.991h3.004c4.257 0 7.008 3.137 7.008 7.993s-2.751 7.994-7.008 7.994h-3.004v1.54a.5.5 0 0 1-1.001 0v-1.54h-5.006v1.54a.5.5 0 0 1-1.001 0v-1.54h-5.006v1.54a.5.5 0 0 1-1.001 0v-1.54h-5.006v1.54a.5.5 0 0 1-.501.499.5.5 0 0 1-.501-.499v-1.54h-5.006v1.54a.5.5 0 1 1-1.001 0v-1.54H71.95v1.54a.5.5 0 0 1-1.001 0v-1.54h-5.006v1.54a.5.5 0 0 1-1.001 0v-1.54h-5.006v1.54a.5.5 0 0 1-1.001 0v-1.54h-5.006v1.54a.5.5 0 0 1-.501.499.5.5 0 0 1-.501-.499v-1.54h-3.003a1 1 0 1 1 0-1.999h3.003v-11.99h-2.941c-4.257 0-7.008-3.138-7.008-7.993 0-4.856 2.751-7.993 7.008-7.993h2.941V3.996h-3.003a1 1 0 1 1 0-1.999h3.003V.498a.5.5 0 0 1 1.002 0v1.499h5.006V.498a.5.5 0 0 1 1.001 0v1.499h5.006V.498a.5.5 0 0 1 1.001 0v1.499h5.006V.498a.5.5 0 0 1 1.001 0v1.499h5.006V.498a.5.5 0 0 1 1.001 0v1.499h5.006V.498a.5.5 0 0 1 1.002 0v1.499h5.006V.498a.5.5 0 0 1 1.001 0v1.499h5.006V.498a.5.5 0 0 1 1.001 0v1.499h5.006V.498a.5.5 0 0 1 1.001 0v1.499h3.004c4.257 0 7.008 3.138 7.008 7.993 0 4.856-2.751 7.993-7.008 7.993zm-3.004 25.979h3.004c4.518 0 5.006-4.192 5.006-5.995 0-1.802-.488-5.995-5.006-5.995h-3.004v11.99zM52.927 17.983h-2.941c-4.518 0-5.006 4.193-5.006 5.996 0 1.803.488 5.995 5.006 5.995h2.941V17.983zm6.008-13.987h-5.006v11.99h5.006V3.996zm0 13.987h-5.006v11.991h5.006V17.983zm0 13.989h-5.006v11.99h5.006v-11.99zm6.007-27.976h-5.006v11.99h5.006V3.996zm0 13.987h-5.006v11.991h5.006V17.983zm0 13.989h-5.006v11.99h5.006v-11.99zm6.007-27.976h-5.006v11.99h5.006V3.996zm0 13.987h-5.006v11.991h5.006V17.983zm0 13.989h-5.006v11.99h5.006v-11.99zm6.007-27.976H71.95v11.99h5.006V3.996zm0 13.987H71.95v11.991h5.006V17.983zm0 13.989H71.95v11.99h5.006v-11.99zm6.007-27.976h-5.006v11.99h5.006V3.996zm0 13.987h-5.006v11.991h5.006V17.983zm0 13.989h-5.006v11.99h5.006v-11.99zm6.008-27.976h-5.006v11.99h5.006V3.996zm0 13.987h-5.006v11.991h5.006V17.983zm0 13.989h-5.006v11.99h5.006v-11.99zm6.007-27.976h-5.006v11.99h5.006V3.996zm0 13.987h-5.006v11.991h5.006V17.983zm0 13.989h-5.006v11.99h5.006v-11.99zm6.007-27.976h-5.006v11.99h5.006V3.996zm0 13.987h-5.006v11.991h5.006V17.983zm0 13.989h-5.006v11.99h5.006v-11.99zm4.005-27.976h-3.004v11.99h3.004c4.518 0 5.006-4.193 5.006-5.996 0-1.803-.488-5.994-5.006-5.994zM16.893 45.949C6.655 45.949.001 37.913.001 30.505c0-5.024.469-6.897 2.516-10.218C5.11 16.084 16.893 1.902 16.893 1.902s13.792 16.771 14.93 18.897c1.149 2.146 2.218 3.911 2.218 9.706 0 8.003-6.995 15.444-17.148 15.444zm11.003-6.17c2.633-2.495 4.143-5.876 4.143-9.274 0-5.077-.817-6.598-1.852-8.523l-.13-.242c-.626-1.169-6.984-9.135-13.168-16.69C13.622 9.025 6.161 18.192 4.223 21.335c-1.846 2.994-2.22 4.537-2.22 9.17 0 6.494 5.983 13.446 14.89 13.446 4.257 0 8.165-1.482 11.003-4.172zM4.823 30.224c0-3.587.341-4.964 1.826-7.371a.5.5 0 1 1 .853.524c-1.38 2.236-1.678 3.452-1.678 6.847 0 5.08 4.522 10.52 11.255 10.52a.5.5 0 0 1 0 .999c-7.331 0-12.256-5.956-12.256-11.519z"/></svg>