<svg data-name="Слой 1" xmlns="http://www.w3.org/2000/svg" viewBox="0 0 17.16 10"><title>logoeye</title><path d="M16.88 4.17a10.69 10.69 0 0 0-3.61-3A10.18 10.18 0 0 0 8.71 0h-.26a10.18 10.18 0 0 0-4.56 1.13 10.69 10.69 0 0 0-3.61 3 1.38 1.38 0 0 0 0 1.66 10.69 10.69 0 0 0 3.61 3A10.18 10.18 0 0 0 8.45 10h.27a10.18 10.18 0 0 0 4.56-1.13 10.69 10.69 0 0 0 3.61-3 1.38 1.38 0 0 0-.01-1.7zm-8.3 4.65A3.82 3.82 0 1 1 12.41 5a3.83 3.83 0 0 1-3.83 3.82zm-7.5-3.59a.38.38 0 0 1 0-.45A9.68 9.68 0 0 1 4.34 2c.24-.12.49-.23.74-.33a4.78 4.78 0 0 0 0 6.62c-.25-.1-.5-.2-.74-.33a9.68 9.68 0 0 1-3.26-2.73zm15 0A9.68 9.68 0 0 1 12.82 8a9.8 9.8 0 0 1-.74.33 4.78 4.78 0 0 0 0-6.62c.25.1.5.2.74.33a9.68 9.68 0 0 1 3.27 2.75.38.38 0 0 1 0 .44z"/><circle cx="8.58" cy="5" r="1.03"/></svg>