<svg xmlns="http://www.w3.org/2000/svg" width="58" height="39" viewBox="0 0 58 39"><defs><linearGradient id="a" x1="0%" x2="61.566%" y1="0%" y2="78.801%"><stop offset="0%" stop-color="#00ADEF"/><stop offset="39%" stop-color="#19CDD7"/><stop offset="100%" stop-color="#31ECBE"/></linearGradient></defs><path fill-rule="evenodd" fill="#F54F4F" d="M57.483 20.25l-.001.003c-.456.765-11.36 18.738-28.191 18.738-9.901 0-19.552-6.236-28.687-18.538a2.34 2.34 0 0 1-.008-2.791C1.097 16.981 13.053.982 29.715.982c9.884 0 19.175 5.6 27.614 16.644.585.766.645 1.796.154 2.624zm-1.756-1.423C47.688 8.308 38.937 2.973 29.715 2.973c-15.652 0-27.019 15.214-27.495 15.862a.372.372 0 0 0 .002.439C10.957 31.036 20.064 37 29.291 37c15.68 0 26.007-16.997 26.46-17.757a.377.377 0 0 0-.024-.416zM28.94 33.159c-7.448 0-13.508-6.004-13.508-13.384 0-7.38 6.06-13.384 13.508-13.384 7.448 0 13.506 6.004 13.506 13.384 0 7.38-6.058 13.384-13.506 13.384zm0-24.777c-6.341 0-11.499 5.111-11.499 11.393 0 6.282 5.158 11.393 11.499 11.393 6.339 0 11.497-5.111 11.497-11.393 0-6.282-5.158-11.393-11.497-11.393zm0 17.611c-3.463 0-6.28-2.789-6.28-6.218 0-3.428 2.817-6.217 6.28-6.217 3.459 0 6.272 2.789 6.272 6.217 0 3.429-2.813 6.218-6.272 6.218zm0-10.444c-2.355 0-4.271 1.895-4.271 4.226 0 2.33 1.916 4.227 4.271 4.227 2.351 0 4.263-1.897 4.263-4.227 0-2.331-1.912-4.226-4.263-4.226z"/><path fill="url(#a)" d="M57.483 20.25l-.001.003c-.456.765-11.36 18.738-28.191 18.738-9.901 0-19.552-6.236-28.687-18.538a2.34 2.34 0 0 1-.008-2.791C1.097 16.981 13.053.982 29.715.982c9.884 0 19.175 5.6 27.614 16.644.585.766.645 1.796.154 2.624zm-1.756-1.423C47.688 8.308 38.937 2.973 29.715 2.973c-15.652 0-27.019 15.214-27.495 15.862a.372.372 0 0 0 .002.439C10.957 31.036 20.064 37 29.291 37c15.68 0 26.007-16.997 26.46-17.757a.377.377 0 0 0-.024-.416zM28.94 33.159c-7.448 0-13.508-6.004-13.508-13.384 0-7.38 6.06-13.384 13.508-13.384 7.448 0 13.506 6.004 13.506 13.384 0 7.38-6.058 13.384-13.506 13.384zm0-24.777c-6.341 0-11.499 5.111-11.499 11.393 0 6.282 5.158 11.393 11.499 11.393 6.339 0 11.497-5.111 11.497-11.393 0-6.282-5.158-11.393-11.497-11.393zm0 17.611c-3.463 0-6.28-2.789-6.28-6.218 0-3.428 2.817-6.217 6.28-6.217 3.459 0 6.272 2.789 6.272 6.217 0 3.429-2.813 6.218-6.272 6.218zm0-10.444c-2.355 0-4.271 1.895-4.271 4.226 0 2.33 1.916 4.227 4.271 4.227 2.351 0 4.263-1.897 4.263-4.227 0-2.331-1.912-4.226-4.263-4.226z"/></svg>