<svg xmlns="http://www.w3.org/2000/svg" width="17" height="16" viewBox="0 0 17 16"><path fill-rule="evenodd" d="M16.843 4.211l-1.451 1.46a.538.538 0 0 1-.732.024.466.466 0 0 1-.026-.687l1.451-1.46a.544.544 0 0 1 .732-.024.466.466 0 0 1 .026.687zM3.464 15.007a.532.532 0 0 1-.402.179.535.535 0 0 1-.327-.11.466.466 0 0 1-.073-.685l2.507-2.878c-.103-.047-.209-.087-.31-.139-1.036-.584-2.072-1.363-2.798-2.336a.974.974 0 0 1 0-1.265c.726-.973 1.658-1.752 2.798-2.336a7.948 7.948 0 0 1 3.626-.876h.208c.754 0 1.505.122 2.235.341l2.889-3.317a.54.54 0 0 1 .729-.068c.222.17.255.476.074.684L3.464 15.007zm5.229-9.57h-.208c-1.036 0-2.175.292-3.108.779-.933.486-1.865 1.167-2.487 2.043v.195c.725.876 1.554 1.557 2.487 2.141.136.071.282.128.426.19l.953-1.094a2.005 2.005 0 0 1-.446-1.237c0-1.182 1.02-2.141 2.279-2.141.336 0 .652.073.937.198l.715-.82c-.517-.153-1.043-.254-1.548-.254zm-.208-2.239c-.286 0-.518-.217-.518-.487V.668c0-.269.232-.487.518-.487.287 0 .518.218.518.487v2.043c0 .27-.231.487-.518.487zM1.958 5.826a.532.532 0 0 1-.379-.155L.128 4.211a.466.466 0 0 1 .026-.687.543.543 0 0 1 .732.024l1.451 1.46a.466.466 0 0 1-.026.687.538.538 0 0 1-.353.131zm6.527 5.548h.208c1.036 0 2.176-.292 3.108-.779.933-.487 1.865-1.168 2.487-2.044v-.194c-.54-.762-1.317-1.367-2.123-1.834l.67-.769c.856.54 1.678 1.208 2.282 2.019a1.11 1.11 0 0 1 0 1.362c-.726.973-1.658 1.752-2.798 2.336a7.948 7.948 0 0 1-3.626.876h-.208a11.35 11.35 0 0 1-1.24-.176l.724-.832c.173.015.348.035.516.035z"/></svg>