<svg xmlns="http://www.w3.org/2000/svg" width="88" height="88" viewBox="0 0 88 88"><defs><style>.cls-1{fill:none;stroke:#f5f5f5;stroke-width:1px}.cls-2{fill:red}.cls-2,.cls-3{fill-rule:evenodd}</style></defs><circle id="Ellipse_2_copy_4" data-name="Ellipse 2 copy 4" class="cls-1" cx="44" cy="44" r="44"/><path class="cls-2" d="M55.42 39.575L53 38.237l1.016 2.593c1.024 2.615 1.071 4.823.133 6.218a4.383 4.383 0 0 1-3.81 1.7c-2.361 0-3.608-1.618-3.608-4.677 0-1.948.912-3.038 1.968-4.3a8.946 8.946 0 0 0 2.64-6.288c0-7.66-3.3-12.115-11.029-14.9l-2.627-.945 1.435 2.414c3.047 5.127 2.273 10.288-2.073 13.805C27.9 41.264 24 47.409 24 54.409c0 12.717 8.365 15.928 8.721 16.059a.993.993 0 0 0 1.276-.6 1.013 1.013 0 0 0-.59-1.294C33.1 68.459 26 65.655 26 54.409c0-6.407 3.562-11.9 12.295-18.974a11.74 11.74 0 0 0 3.737-13.962c5.218 2.475 7.308 6.015 7.308 12.012 0 2.392-1.006 3.594-2.169 4.987a8.144 8.144 0 0 0-2.438 5.6c0 6.21 4.291 6.693 5.606 6.693a6.3 6.3 0 0 0 5.461-2.584 7.13 7.13 0 0 0 .836-5.526c4.233 2.846 6.265 6.388 5.379 13.959-.655 5.6-4.094 9.638-6.625 12.192a1.015 1.015 0 0 0 0 1.426.992.992 0 0 0 1.413 0c2.74-2.766 6.468-7.162 7.2-13.381.997-8.591-1.327-13.272-8.583-17.276z"/><path id="Shape_27_copy" data-name="Shape 27 copy" class="cls-3" d="M42.7 55.909l-4.5 10.73h3.078l.75-1.9H46.1l.774 1.9h3.136l-4.491-10.73H42.7zm.192 6.531l1.192-3.032 1.178 3.032h-2.37z"/></svg>