<svg xmlns="http://www.w3.org/2000/svg" width="83" height="83"><path fill-rule="evenodd" d="M51.966 44.147a.918.918 0 0 1 1.109-.643l2.459.671 4.018-2.359-4.018-2.357-2.459.668a.926.926 0 0 1-1.109-.641.907.907 0 0 1 .635-1.106l.747-.203-.637-.375a.912.912 0 0 1-.33-1.23.926.926 0 0 1 1.245-.333l.604.354-.197-.747a.908.908 0 0 1 .636-1.106.92.92 0 0 1 1.112.643l.661 2.508 3.995 2.344v-4.711l-1.808-1.837a.916.916 0 0 1 0-1.273.927.927 0 0 1 1.288 0l.52.528v-.719c0-.5.406-.906.904-.906s.904.406.904.906v.72l.52-.529a.926.926 0 0 1 1.287 0 .912.912 0 0 1 0 1.273l-1.807 1.837v4.711l3.995-2.345.663-2.507a.912.912 0 0 1 1.111-.643.91.91 0 0 1 .638 1.103l-.199.748.604-.353a.929.929 0 0 1 1.243.332.913.913 0 0 1-.329 1.232l-.637.374.747.204c.478.13.764.627.635 1.106-.127.477-.653.775-1.118.639l-2.45-.666-4.017 2.357 4.017 2.359 2.458-.671a.924.924 0 0 1 1.11.643.906.906 0 0 1-.635 1.106l-.745.203.635.374a.912.912 0 0 1 .329 1.23c-.235.419-.815.58-1.239.337l-.608-.358.197.747a.912.912 0 0 1-.636 1.106.883.883 0 0 1-1.111-.647l-.663-2.504-3.995-2.345v4.712l1.807 1.838a.91.91 0 0 1 0 1.271.926.926 0 0 1-1.288 0l-.519-.528v.72c0 .5-.406.906-.904.906a.906.906 0 0 1-.904-.906v-.72l-.52.528a.926.926 0 0 1-1.286.002.914.914 0 0 1-.002-1.273l1.808-1.838v-4.712l-3.995 2.345-.662 2.508a.909.909 0 0 1-1.108.644.913.913 0 0 1-.64-1.107l.198-.746-.606.355c-.413.244-1.002.087-1.242-.334a.911.911 0 0 1 .327-1.228l.639-.377-.745-.203a.904.904 0 0 1-.637-1.106zM81.7 52.073l-.327 1.287-.164.646-.229.628-.918 2.53c-.14.431-.324.843-.53 1.248l-.589 1.228c-.406.815-.75 1.67-1.261 2.438l-1.436 2.372c-.504.776-1.097 1.499-1.645 2.258l-.841 1.127-.944 1.051c-.641.691-1.253 1.417-1.926 2.088-2.726 2.653-5.837 4.965-9.221 6.899-3.45 1.802-7.128 3.267-10.996 4.123-.959.243-1.963.337-2.945.511l-1.482.23c-.492.06-.976.064-1.464.099l-2.961.159-2.979-.132c-3.955-.292-7.917-1.028-11.615-2.472l-1.4-.5c-.458-.189-.899-.414-1.348-.62-.889-.433-1.801-.817-2.667-1.289l-2.539-1.508-.633-.378-.595-.433-1.186-.868c-1.632-1.095-3.011-2.484-4.472-3.761-1.301-1.434-2.7-2.777-3.801-4.353l-.872-1.141-.433-.57-.379-.607-1.503-2.419c-.49-.809-.857-1.68-1.288-2.514l-.623-1.261c-.203-.422-.34-.868-.513-1.302l-.98-2.604-.719-2.661-.351-1.324-.226-1.362-.429-2.705c-.081-.881-.108-1.742-.165-2.607l-.073-1.289-.019-.32c-.01-.22.006-.251.007-.385l.03-.658c.082-1.751.101-3.489.425-5.174.969-6.776 3.543-12.93 7.046-17.802A42.647 42.647 0 0 1 19.313 6.691c1.059-.616 2.032-1.31 3.07-1.803l2.985-1.446c.989-.394 1.953-.734 2.867-1.076.461-.16.899-.357 1.35-.474l1.316-.345c.856-.222 1.666-.434 2.428-.633.792-.128 1.533-.245 2.223-.358.692-.107 1.333-.206 1.919-.295.577-.068 1.076-.07 1.537-.105l2.802-.157.153 2.979-2.804.126c-.453.028-.98.027-1.52.084l-1.719.256c-.622.091-1.289.189-2.002.296-.71.176-1.466.364-2.265.564l-1.231.305c-.422.103-.831.285-1.262.427-.855.312-1.759.615-2.686.969l-2.802 1.318c-.977.446-1.889 1.089-2.889 1.652A40.03 40.03 0 0 0 9.599 19.424c-3.351 4.54-5.841 10.304-6.836 16.69-.329 1.589-.362 3.23-.463 4.887l-.036.624-.014.257.015.321.058 1.291c.046.858.062 1.736.132 2.594l.374 2.499.192 1.261.32 1.259.649 2.536.903 2.483c.159.413.283.841.471 1.243l.579 1.206c.402.796.738 1.633 1.197 2.408l1.404 2.321.352.584.408.549.819 1.097c1.03 1.519 2.354 2.813 3.578 4.204 1.385 1.229 2.683 2.583 4.234 3.644l1.125.845.565.425.602.365 2.415 1.476c.825.462 1.696.839 2.544 1.266.428.202.849.425 1.285.612l1.338.496c3.533 1.43 7.334 2.178 11.143 2.507l2.871.164 2.887-.123c.484-.027.98-.026 1.455-.08l1.408-.207c.936-.158 1.883-.229 2.81-.455 3.75-.782 7.327-2.159 10.699-3.866 3.304-1.835 6.357-4.046 9.045-6.599.661-.646 1.265-1.346 1.899-2.012l.933-1.013.833-1.09c.543-.733 1.132-1.432 1.633-2.185l1.429-2.299c.511-.744.854-1.575 1.262-2.365l.591-1.198c.207-.392.391-.793.532-1.212.312-.826.622-1.647.929-2.465l.232-.614.168-.629.336-1.257c.98-3.32 1.248-6.744 1.388-10.003l-.1-2.475-.05-1.223-.158-1.193-.316-2.357c-.158-.771-.347-1.534-.516-2.292-.285-1.532-.87-2.955-1.309-4.39-.234-.714-.574-1.38-.852-2.063-.31-.669-.542-1.365-.907-1.992a41.062 41.062 0 0 0-9.659-12.404c-3.569-3.107-7.209-5.151-10.301-6.563-3.143-1.318-5.731-2.066-7.517-2.445l-2.753-.547 2.76.514c1.793.358 4.392 1.075 7.562 2.359 3.119 1.383 6.8 3.389 10.431 6.474a41.438 41.438 0 0 1 9.898 12.403c2.713 5.162 4.36 11.508 4.485 18.163-.098 3.377-.333 6.823-1.29 10.238zM31.655 63.28a.917.917 0 0 1 1.109-.642l2.459.671 4.018-2.359-4.018-2.357-2.459.667a.925.925 0 0 1-1.109-.64.91.91 0 0 1 .635-1.108l.747-.203-.637-.374a.911.911 0 0 1-.33-1.23.93.93 0 0 1 1.245-.334l.604.356-.197-.749a.907.907 0 0 1 .636-1.104.917.917 0 0 1 1.112.643l.661 2.507 3.995 2.346v-4.712l-1.807-1.839a.912.912 0 0 1 0-1.27.924.924 0 0 1 1.288-.001l.519.529v-.721a.905.905 0 0 1 1.808 0v.722l.52-.53a.924.924 0 0 1 1.287 0 .91.91 0 0 1 0 1.271l-1.807 1.839v4.71l3.995-2.345.663-2.506a.91.91 0 0 1 1.111-.643.91.91 0 0 1 .638 1.103l-.198.748.603-.354a.93.93 0 0 1 1.243.333.912.912 0 0 1-.329 1.231l-.637.373.747.204a.908.908 0 0 1 .635 1.108c-.127.477-.653.776-1.117.639l-2.451-.666-4.017 2.357 4.017 2.359 2.458-.671a.923.923 0 0 1 1.11.642.906.906 0 0 1-.635 1.107l-.745.204.635.373a.91.91 0 0 1 .329 1.229.926.926 0 0 1-1.239.337l-.607-.357.196.746a.91.91 0 0 1-.636 1.106.882.882 0 0 1-1.111-.647l-.663-2.504-3.995-2.345v4.714l1.807 1.835a.912.912 0 0 1 0 1.273.924.924 0 0 1-1.288 0l-.519-.529v.722a.906.906 0 0 1-.904.904.906.906 0 0 1-.904-.904v-.722l-.519.529a.926.926 0 0 1-1.287.002.916.916 0 0 1-.001-1.274l1.807-1.836v-4.714l-3.995 2.346-.662 2.508a.912.912 0 0 1-1.108.645.914.914 0 0 1-.64-1.109l.198-.746-.606.356c-.413.243-1.001.087-1.242-.334a.912.912 0 0 1 .327-1.229l.639-.375-.745-.205a.905.905 0 0 1-.637-1.106zm.15-23.794c-.128.477-.653.775-1.118.639l-2.45-.666-4.017 2.357 4.017 2.359 2.458-.671a.924.924 0 0 1 1.11.643.906.906 0 0 1-.635 1.106l-.745.203.635.374a.912.912 0 0 1 .329 1.23c-.235.419-.816.58-1.239.337l-.608-.358.196.747a.91.91 0 0 1-.635 1.106.883.883 0 0 1-1.111-.647l-.663-2.504-3.996-2.345v4.712l1.808 1.838a.91.91 0 0 1 0 1.271.926.926 0 0 1-1.288 0l-.52-.528v.72c0 .5-.405.906-.903.906a.906.906 0 0 1-.904-.906v-.72l-.52.528a.926.926 0 0 1-1.286.002.914.914 0 0 1-.002-1.273l1.808-1.838v-4.712l-3.996 2.345-.661 2.508a.909.909 0 0 1-1.108.644.912.912 0 0 1-.64-1.107l.198-.746-.606.355c-.414.244-1.002.087-1.242-.334a.911.911 0 0 1 .327-1.228l.639-.377-.745-.203a.905.905 0 0 1-.638-1.106.92.92 0 0 1 1.11-.643l2.459.671 4.018-2.359-4.018-2.357-2.459.668a.927.927 0 0 1-1.11-.641.908.908 0 0 1 .636-1.106l.747-.203-.638-.375a.912.912 0 0 1-.329-1.23.926.926 0 0 1 1.245-.333l.604.354-.197-.747a.907.907 0 0 1 .636-1.106.92.92 0 0 1 1.112.643l.66 2.508 3.996 2.344v-4.711l-1.808-1.837a.916.916 0 0 1 0-1.273.927.927 0 0 1 1.288 0l.52.528v-.719c0-.5.406-.906.904-.906s.903.406.903.906v.72l.521-.529a.926.926 0 0 1 1.287 0 .912.912 0 0 1 0 1.273l-1.808 1.837v4.711l3.996-2.345.663-2.507a.912.912 0 0 1 1.111-.643.91.91 0 0 1 .637 1.103l-.198.748.604-.353a.929.929 0 0 1 1.243.332.913.913 0 0 1-.329 1.232l-.637.374.747.204c.478.13.764.627.635 1.106zm16.536-22.65l-.198.748.603-.355a.93.93 0 0 1 1.243.332.913.913 0 0 1-.329 1.233l-.637.373.747.204c.478.13.764.627.635 1.107-.127.477-.653.775-1.117.638l-2.451-.665-4.017 2.356 4.017 2.36 2.458-.672a.924.924 0 0 1 1.11.643.908.908 0 0 1-.635 1.108l-.745.202.635.373a.912.912 0 0 1 .329 1.231.926.926 0 0 1-1.239.336l-.607-.357.196.747a.911.911 0 0 1-.636 1.106.882.882 0 0 1-1.111-.647l-.663-2.505-3.995-2.344v4.713l1.807 1.836a.911.911 0 0 1 0 1.272.922.922 0 0 1-1.288 0l-.519-.529v.722a.906.906 0 0 1-.904.904.906.906 0 0 1-.904-.904v-.722l-.519.529a.923.923 0 0 1-1.287.001.914.914 0 0 1-.001-1.272l1.807-1.837v-4.713l-3.995 2.345-.662 2.509a.91.91 0 0 1-1.108.643.912.912 0 0 1-.64-1.107l.198-.746-.606.355c-.413.244-1.001.089-1.242-.333a.913.913 0 0 1 .327-1.23l.639-.376-.745-.203a.906.906 0 0 1-.637-1.107.918.918 0 0 1 1.109-.643l2.459.672 4.018-2.36-4.018-2.356-2.459.667a.924.924 0 0 1-1.109-.64.908.908 0 0 1 .635-1.107l.747-.203-.637-.374a.912.912 0 0 1-.33-1.23.925.925 0 0 1 1.245-.333l.604.354-.197-.748a.909.909 0 0 1 .636-1.106.921.921 0 0 1 1.112.644l.661 2.508 3.995 2.344v-4.712l-1.807-1.836a.915.915 0 0 1 0-1.272.924.924 0 0 1 1.288-.001l.519.527v-.719a.905.905 0 0 1 1.808 0v.721l.52-.529a.924.924 0 0 1 1.287 0 .912.912 0 0 1 0 1.273l-1.807 1.836v4.712l3.995-2.345.663-2.507a.913.913 0 0 1 1.111-.644.912.912 0 0 1 .638 1.105z"/></svg>