<svg xmlns="http://www.w3.org/2000/svg" width="88" height="88" viewBox="0 0 88 88"><defs><style>.cls-1{fill:none;stroke:#f5f5f5;stroke-width:1px}.cls-2,.cls-3{fill-rule:evenodd}.cls-3{fill:red}</style></defs><circle id="Ellipse_2_copy_9" data-name="Ellipse 2 copy 9" class="cls-1" cx="44" cy="44" r="44"/><path class="cls-2" d="M50 25.476V24a2 2 0 0 0 0-4v-3H38v8.177A9.08 9.08 0 0 0 31 34v21a9.078 9.078 0 0 0 5.8 8.449L35.613 67h15.774L50.2 63.449A9.078 9.078 0 0 0 56 55V34a9.078 9.078 0 0 0-6-8.524zM40 19h8v6a9.082 9.082 0 0 0-1.07-.069H40V19zm8.279 45l.334 1H38.387l.334-1h.271a9.082 9.082 0 0 0 1.079.07h6.86a9.08 9.08 0 0 0 1.078-.07h.27zM54 55a7.075 7.075 0 0 1-6.127 7h-8.745A7.076 7.076 0 0 1 33 55V34a7.076 7.076 0 0 1 6.128-7h8.745A7.075 7.075 0 0 1 54 34v21z"/><path id="Shape_35_copy" data-name="Shape 35 copy" class="cls-3" d="M49.622 41.467l-.573 1.761c-.008.025-.8 2.383-2.907 2.383-.362 0-.523-.023-.523-.591a1.083 1.083 0 0 1 .524-.744A5.606 5.606 0 0 0 48 40.025c0-2.983-3.908-6.385-4.353-6.763l-1.447-1.23-.2 1.894c-.283 2.813-1.136 6.2-2.019 6.781-4.175 2.727-5.956 5.068-5.956 7.829a6.478 6.478 0 0 0 4.393 6.422 1.013 1.013 0 0 0 .292.042 1 1 0 0 0 .29-1.958 4.489 4.489 0 0 1-2.967-4.506c0-2 1.51-3.843 5.05-6.154 1.5-.977 2.275-4.108 2.644-6.272C44.878 37.354 46 38.92 46 40.025a3.584 3.584 0 0 1-1.245 2.811 2.9 2.9 0 0 0-1.135 2.184 2.373 2.373 0 0 0 2.523 2.591 4.754 4.754 0 0 0 3.925-2.1 6.41 6.41 0 0 1 .85 3.71 6.671 6.671 0 0 1-2.678 3.921A1 1 0 1 0 49.5 54.7a8.5 8.5 0 0 0 3.4-5.189c.48-3.315-2.01-6.467-2.116-6.6z"/></svg>