<svg xmlns="http://www.w3.org/2000/svg" width="20" height="26"><path fill-rule="evenodd" fill="#BBB" d="M9.826 25.535l-.311.255-.311-.255C8.828 25.226.008 17.899.008 10.348.008 5.085 4.273.804 9.515.804c5.243 0 9.508 4.281 9.508 9.544 0 7.551-8.821 14.878-9.197 15.187zM9.515 1.813C4.82 1.813 1 5.642 1 10.348c0 6.307 6.947 12.757 8.515 14.133 1.569-1.377 8.516-7.832 8.516-14.133 0-4.706-3.821-8.535-8.516-8.535zm0 13.06c-2.319 0-4.206-1.92-4.206-4.281 0-2.36 1.887-4.28 4.206-4.28 2.32 0 4.207 1.92 4.207 4.28 0 2.361-1.887 4.281-4.207 4.281zm0-7.551c-1.773 0-3.214 1.467-3.214 3.27 0 1.805 1.441 3.272 3.214 3.272s3.215-1.467 3.215-3.272c0-1.803-1.442-3.27-3.215-3.27z"/></svg>