<svg xmlns="http://www.w3.org/2000/svg" preserveAspectRatio="xMidYMid" width="17" height="17" viewBox="0 0 17 17"><path fill="#ccc" fill-rule="evenodd" d="M8.5-.001c-4.687 0-8.5 3.813-8.5 8.5 0 4.687 3.813 8.5 8.5 8.5 4.687 0 8.5-3.813 8.5-8.5 0-4.687-3.813-8.5-8.5-8.5zm.578 15.821v-3.507a.578.578 0 0 0-1.156 0v3.507a7.356 7.356 0 0 1-6.743-6.743h3.505a.579.579 0 0 0 0-1.156H1.179a7.357 7.357 0 0 1 6.743-6.744v3.508a.577.577 0 0 0 1.156 0V1.177a7.357 7.357 0 0 1 6.743 6.744h-3.505a.578.578 0 1 0 0 1.156h3.505a7.356 7.356 0 0 1-6.743 6.743z" class="cls-1"/></svg>