<svg xmlns="http://www.w3.org/2000/svg" preserveAspectRatio="xMidYMid" width="20" height="18" viewBox="0 0 20 18"><path fill="#3eb5f1" fill-rule="evenodd" d="M18.384 1.578A5.583 5.583 0 0 0 14.471.012c-1.48 0-2.871.557-3.918 1.569l-.547.529-.555-.536A5.613 5.613 0 0 0 5.529-.001 5.597 5.597 0 0 0 1.62 1.565 5.216 5.216 0 0 0 0 5.353c0 1.431.581 2.771 1.628 3.784l7.963 8.698a.582.582 0 0 0 .805.004l7.98-8.686A5.234 5.234 0 0 0 20 5.365a5.21 5.21 0 0 0-1.616-3.787zM17.57 8.37l-7.577 8.297-7.559-8.309a4.151 4.151 0 0 1-1.289-3.005c0-1.135.454-2.202 1.285-3.001A4.435 4.435 0 0 1 5.529 1.11a4.45 4.45 0 0 1 3.112 1.247l.958.926a.585.585 0 0 0 .81 0l.95-.918a4.446 4.446 0 0 1 3.108-1.246c1.17 0 2.272.442 3.103 1.241a4.15 4.15 0 0 1 1.285 3.005A4.13 4.13 0 0 1 17.57 8.37z"/></svg>