<svg xmlns="http://www.w3.org/2000/svg" width="88" height="88" viewBox="0 0 88 88"><defs><style>.cls-1{fill:none;stroke:#f5f5f5;stroke-width:1px}.cls-2{fill:red}.cls-2,.cls-3{fill-rule:evenodd}</style></defs><circle class="cls-1" cx="44" cy="44" r="44"/><path class="cls-2" d="M65 63H15v-2h50c3.458 0 5-1.542 5-5s-1.542-5-5-5H21c-4.579 0-7-2.421-7-7s2.421-7 7-7h44c3.458 0 5-1.543 5-5s-1.542-5-5-5H15v-2h50c4.579 0 7 2.421 7 7s-2.421 7-7 7H21c-3.458 0-5 1.542-5 5s1.542 5 5 5h44c4.579 0 7 2.421 7 7s-2.421 7-7 7z"/><path class="cls-3" d="M27 67h-2V21h2v46zm6 0h-2V21h2v46zm6 0h-2V21h2v46zm6 0h-2V21h2v46zm6 0h-2V21h2v46zm6 0h-2V21h2v46zm6 0h-2V21h2v46z"/></svg>