<svg xmlns="http://www.w3.org/2000/svg" width="109" height="45" viewBox="0 0 109 45"><path fill-rule="evenodd" d="M102.7 2.55c-1.749 0-3.206.623-4.374 1.869-1.168 1.244-1.752 2.788-1.752 4.634 0 1.829.588 3.37 1.763 4.623 1.176 1.253 2.63 1.878 4.363 1.878 1.025 0 1.929-.187 2.713-.563.783-.374 1.583-.944 2.396-1.709l1.176 1.238c-.89.885-1.824 1.552-2.804 2.003-.979.448-2.155.674-3.525.674-2.277 0-4.167-.784-5.675-2.351-1.507-1.567-2.261-3.499-2.261-5.793 0-2.265.761-4.189 2.284-5.771 1.522-1.583 3.428-2.375 5.72-2.375 1.324 0 2.455.215 3.39.642.934.428 1.845 1.062 2.735 1.901l-1.175 1.26c-1.523-1.44-3.18-2.16-4.974-2.16zM88.007 7.927c-.935 0-1.76-.344-2.475-1.034-.716-.69-1.073-1.5-1.073-2.431 0-.914.357-1.713 1.073-2.395.715-.683 1.54-1.023 2.475-1.023.934 0 1.759.344 2.475 1.034.715.69 1.073 1.5 1.073 2.429 0 .901-.358 1.696-1.073 2.386-.716.69-1.541 1.034-2.475 1.034zm1.593-5.04a2.117 2.117 0 0 0-1.593-.674c-.632 0-1.164.229-1.593.687a2.27 2.27 0 0 0-.645 1.607c0 .6.215 1.125.645 1.575a2.11 2.11 0 0 0 1.593.675c.632 0 1.164-.229 1.593-.685.43-.459.644-.995.644-1.61 0-.598-.214-1.124-.644-1.575zM78.741 26.485c1.751 1.86 2.627 4.019 2.627 6.474 0 2.315-.702 4.39-2.104 6.22-1.402 1.832-3.312 3.247-5.728 4.246-2.418 1.001-5.108 1.501-8.072 1.501-4.534 0-8.314-1.129-11.337-3.385-3.024-2.257-4.536-5.157-4.536-8.702 0-2.394.876-4.518 2.625-6.37 1.751-1.85 4.029-3.231 6.833-4.142-2.347-.95-4.267-2.262-5.758-3.935-1.492-1.673-2.238-3.706-2.238-6.102 0-2.139.687-4.068 2.059-5.792 1.373-1.722 3.153-3.043 5.341-3.964 2.188-.92 4.525-1.38 7.011-1.38 2.486 0 4.819.46 6.998 1.38 2.177.921 3.956 2.253 5.34 3.994 1.383 1.743 2.073 3.703 2.073 5.88 0 2.357-.746 4.361-2.237 6.014-1.492 1.653-3.412 2.955-5.759 3.905 2.825.911 5.111 2.297 6.862 4.158zm-5.384-7.796c2.157-1.652 3.237-3.787 3.237-6.399 0-2.395-1.07-4.375-3.208-5.939s-4.779-2.346-7.922-2.346c-3.142 0-5.783.792-7.921 2.376-2.138 1.583-3.208 3.592-3.208 6.027 0 2.554 1.08 4.653 3.237 6.296 2.159 1.643 4.789 2.466 7.892 2.466 3.103 0 5.733-.828 7.893-2.481zm-7.893 5.152c-3.521 0-6.499.872-8.936 2.614-2.436 1.743-3.654 3.949-3.654 6.621 0 2.516 1.148 4.643 3.445 6.385 2.298 1.743 5.346 2.615 9.145 2.615 3.819 0 6.873-.882 9.161-2.644 2.286-1.762 3.431-3.92 3.431-6.473 0-2.614-1.219-4.787-3.655-6.52-2.437-1.731-5.416-2.598-8.937-2.598zm-36.253 9.441l-.322.002c-4.39 0-6.872-.904-9.276-1.78-2.549-.928-5.029-1.685-9.301-1.65-4.283.044-6.619.946-8.877 1.819l-.098.037-.36-.923.097-.039c2.233-.862 4.763-1.84 9.228-1.885 4.423-.037 7.108.784 9.654 1.709 2.487.907 4.811 1.75 9.245 1.719 4.228-.043 6.591-.936 8.875-1.8l.278-.105.352.928-.277.105c-2.255.851-4.812 1.818-9.218 1.863zm0-8.614l-.329.001c-4.383.001-6.865-.903-9.269-1.778-2.547-.928-4.991-1.68-9.301-1.651-4.283.044-6.619.946-8.877 1.819l-.098.038-.36-.925.097-.037c2.233-.863 4.763-1.841 9.228-1.886 4.437-.047 7.109.784 9.654 1.71 2.489.907 4.837 1.763 9.245 1.718 4.232-.042 6.595-.936 8.88-1.801l.273-.103.352.926-.271.103c-2.257.854-4.814 1.822-9.224 1.866zm0-8.613h-.329c-4.381.001-6.863-.904-9.267-1.778-2.549-.929-4.993-1.689-9.303-1.651-4.283.044-6.619.946-8.877 1.818l-.098.04-.36-.926.097-.037c2.233-.863 4.763-1.84 9.228-1.886 4.437-.046 7.109.783 9.654 1.71 2.49.907 4.846 1.767 9.245 1.718 4.23-.043 6.593-.936 8.877-1.8l.276-.105.352.929-.274.103c-2.256.853-4.813 1.819-9.221 1.865z"/></svg>