<svg xmlns="http://www.w3.org/2000/svg" width="88.031" height="73" viewBox="0 0 88.031 73"><defs><style>.cls-1{fill:#fff;fill-rule:evenodd}</style></defs><path id="heat" class="cls-1" d="M270.988 4781.76v2.29h-9.653v-1.68l1.686-1.59c3.348-3.18 4.924-4.93 4.945-6.86a2.267 2.267 0 0 0-2.537-2.44 5.113 5.113 0 0 0-3.043 1.21l-.788-1.94a6.891 6.891 0 0 1 4.378-1.51c3.151 0 4.683 2.04 4.683 4.42 0 2.55-1.794 4.61-4.268 6.96l-1.248 1.1v.04h5.845zm-21.381.61l1.685-1.59c3.349-3.18 4.925-4.93 4.947-6.86a2.268 2.268 0 0 0-2.54-2.44 5.112 5.112 0 0 0-3.041 1.21l-.788-1.94a6.888 6.888 0 0 1 4.377-1.51c3.152 0 4.684 2.04 4.684 4.42 0 2.55-1.794 4.61-4.267 6.96l-1.249 1.1v.04h5.844v2.29h-9.652v-1.68zM218 4801h22v2h-22v-2zm0-24h22v2h-22v-2zm0-24h22v2h-22v-2zm-22.014 62.01a13.157 13.157 0 0 1-4.93-25.29c0-.06-.017-.11-.017-.17v-42.54a4.946 4.946 0 1 1 9.892 0v42.54c0 .06-.015.11-.017.17a13.156 13.156 0 0 1-4.928 25.29zm2.963-68a2.963 2.963 0 1 0-5.926 0v18.74h5.926v-18.74zM232 4763h-14v-2h14v2zm0 8h-14v-2h14v2zm0 16h-14v-2h14v2zm0 8h-14v-2h14v2z" transform="translate(-182.969 -4742)"/></svg>