<svg xmlns="http://www.w3.org/2000/svg" preserveAspectRatio="xMidYMid" width="71" height="65" viewBox="0 0 71 65"><defs><style>.cls-1{fill:#fff;fill-rule:evenodd}</style></defs><path d="M64.996 51.416l-6.212-13.472h4.352s.172-16.406.172-19.78c0-3.38-1.833-7.67-5.028-9.344l1.698-2.617s6.434 4.44 6.434 12.11v19.631h4.601l-6.017 13.472zM41.442 7.214S23.524 7.06 19.835 7.06c-3.691 0-8.377 1.681-10.21 4.606l-2.86-1.535s4.858-5.908 13.241-5.908h21.436V.008l14.736 5.508-14.736 5.688v-3.99zM7.881 27.071s-.172 16.4-.172 19.772c0 3.386 1.838 7.675 5.029 9.353l-1.666 2.606s-6.467-4.436-6.467-12.107V27.071H.003l6.045-13.484 6.188 13.484H7.881zm22.357 14.621l-2.031 5.175h-8.149l11.369-29.771h8.385l11.116 29.771h-8.182l-1.916-5.175H30.238zm5.386-15.399h-.089l-3.161 9.475h6.38l-3.13-9.475zM29.579 57.79s17.91.151 21.603.151c3.689 0 8.373-1.675 10.204-4.59l2.87 1.519s-4.866 5.91-13.237 5.91h-21.44v4.222l-14.732-5.538 14.732-5.66v3.986z" class="cls-1"/></svg>