<svg xmlns="http://www.w3.org/2000/svg" preserveAspectRatio="xMidYMid" width="66" height="84" viewBox="0 0 66 84"><defs><style>.cls-1{fill:#f4f5f7;fill-rule:evenodd}</style></defs><path d="M61.132 18.878c-3.907 1.481-8.291-.445-9.792-4.301-1.5-3.856.451-8.183 4.359-9.665 3.907-1.48 8.291.446 9.791 4.302 1.501 3.856-.45 8.183-4.358 9.664zm-5.786-8.804l-.467.177-.305 5.151.511-.194.076-1.35 2.403-.911.965.956.536-.203-3.719-3.626zm7.234 1.649l-1.034-2.657-.484.184.225.58c-.496-.308-1.005-.363-1.527-.165a1.633 1.633 0 0 0-.909.826c-.198.398-.207.822-.032 1.273.177.453.471.762.884.926.413.163.828.17 1.239.014.509-.193.848-.582 1.016-1.165l.147.379c.144.369.15.694.014.972-.136.276-.387.485-.753.624a2.269 2.269 0 0 1-1.415.064l-.074.458a2.755 2.755 0 0 0 1.656-.113c.538-.204.896-.506 1.075-.902.171-.378.162-.81-.028-1.298zm-1.708.521a1.21 1.21 0 0 1-.918-.009 1.119 1.119 0 0 1-.637-.66c-.127-.327-.123-.634.016-.916.138-.282.368-.484.687-.606a1.36 1.36 0 0 1 .961-.016c.316.113.537.332.661.651s.107.628-.051.926c-.16.299-.399.508-.719.63zm-5.544-1.507l1.867 1.842-2.012.762.145-2.604zm5.757 31.007L45.712 68.891V56.785h-6.873v12.899L18.987 84.01V14.336L38.839.006V26.64h6.873V14.461l15.373 27.283zm-34.39 15.162l2.166-1.613v-8.037l-2.166 1.54v8.11zm0-9.681l2.166-1.54v-7.76l-2.166 1.572v7.728zm0-9.314l2.166-1.571v-7.767l-2.166 1.57v7.768zm-1.296-24.252l-3.179 2.294v6.605l3.179-2.325v-6.574zm0 8.168l-3.179 2.325v7.647l3.179-2.301v-7.671zm0 9.253l-3.179 2.301v7.776l3.179-2.306V31.08zm0 9.354l-3.179 2.305v7.67l3.179-2.262v-7.713zm0 9.287L22.22 51.98v8.253l3.179-2.363v-8.149zm0 9.746l-3.179 2.368v7.631l3.179-2.321v-7.678zm0 9.265l-3.179 2.32v6.668l3.179-2.294v-6.694zm5.588-59.104l-4.292 3.098v6.562l4.292-3.14v-6.52zm0 8.109l-4.292 3.142v7.678l2.166-1.568v-.349h.482l1.644-1.189v-7.714zm0 39.048h-1.984l-2.308 1.718v7.698l4.292-3.13v-6.286zm0 7.872l-4.292 3.13v6.706l4.292-3.095v-6.741zm4.618-58.36l-3.323 2.398v6.504l3.323-2.43V6.297zm0 8.063l-3.323 2.433v7.721l3.323-2.407V14.36zm0 9.33l-3.323 2.406v.544h3.323v-2.95zm0 33.095h-3.323v5.342l3.323-2.422v-2.92zm0 4.505l-3.323 2.422v6.749l3.323-2.394V61.29zM5.877 18.49c-3.839-.641-6.425-4.232-5.776-8.021.649-3.789 4.287-6.341 8.126-5.7 3.839.641 6.425 4.232 5.776 8.02-.649 3.789-4.287 6.341-8.126 5.701zm-.409-9.753l-.459-.077-2.715 3.981.502.084.708-1.046 2.361.394.314 1.217.527.088-1.238-4.641zm4.972 2.011l-.098.57c-.25-.478-.631-.76-1.143-.846a1.55 1.55 0 0 0-1.124.236c-.349.227-.561.562-.636 1.004-.077.446.011.831.263 1.155.252.324.581.523.985.591.5.083.958-.07 1.373-.459l-.064.374c-.062.362-.214.625-.456.784-.241.156-.542.208-.902.148a2.098 2.098 0 0 1-1.164-.61l-.279.332c.378.363.838.592 1.38.682.529.089.96.014 1.294-.218.318-.224.518-.574.6-1.053l.447-2.61-.476-.08zm-.711 2.14a1.232 1.232 0 0 1-.877.168 1.108 1.108 0 0 1-.731-.436 1.022 1.022 0 0 1-.193-.826c.055-.321.206-.564.452-.726.246-.161.527-.216.841-.164.318.053.577.198.776.437.2.238.272.516.218.829a1.001 1.001 0 0 1-.486.718zM5.136 9.259l.611 2.347-1.977-.33 1.366-2.017zm4.381 55.806c2.592.817 4.023 3.553 3.195 6.11-.827 2.559-3.599 3.97-6.191 3.154-2.592-.817-4.022-3.553-3.195-6.11.827-2.559 3.599-3.97 6.191-3.154zm-.752 6.911c.357.112.663.103.917-.025.242-.124.415-.347.52-.67l.57-1.762-.322-.102-.124.385a1.053 1.053 0 0 0-.706-.697 1.084 1.084 0 0 0-.802.054 1.004 1.004 0 0 0-.54.633c-.097.301-.075.576.067.825.142.248.35.418.623.504.337.106.669.045.995-.184l-.082.252c-.079.245-.21.412-.393.498-.183.085-.397.091-.639.015a1.467 1.467 0 0 1-.745-.535l-.225.202c.225.289.521.491.886.607zm-3.799-1.935l.594-.654 1.594.502.095.871.357.113-.394-3.331-.31-.098-2.276 2.49.34.107zm2.153-.487l-1.335-.421 1.146-1.262.189 1.683zm2.003 1.306a.78.78 0 0 1-.463-.373.72.72 0 0 1-.051-.591.727.727 0 0 1 .386-.458.792.792 0 0 1 .597-.032c.216.068.38.193.494.378a.681.681 0 0 1 .068.595.701.701 0 0 1-.408.449.865.865 0 0 1-.623.032zm48.75-7.338c3.881-.238 7.222 2.672 7.463 6.502.242 3.829-2.708 7.126-6.588 7.365-3.879.239-7.221-2.672-7.462-6.501-.242-3.83 2.707-7.128 6.587-7.366zm1.355 7.99c.32.259.685.379 1.094.354.505-.031.915-.282 1.229-.753l.023.377c.023.366-.063.655-.262.864-.198.207-.48.324-.843.346a2.099 2.099 0 0 1-1.272-.331l-.195.385c.452.269.952.387 1.5.354.534-.032.936-.202 1.207-.502.257-.29.371-.675.341-1.158l-.167-2.639-.481.029.036.576c-.353-.409-.788-.597-1.306-.565a1.532 1.532 0 0 0-1.039.481c-.287.299-.415.672-.387 1.12.028.449.202.804.522 1.062zm-4.803.964l.448-1.176 2.387-.147.585 1.113.533-.034-2.273-4.234-.464.028-1.723 4.481.507-.031zm2.612-1.751l-1.998.123.863-2.267 1.135 2.144zm3.215-1.461c.322-.019.607.063.856.25a.981.981 0 0 1 .403.758.998.998 0 0 1-.307.807c-.226.221-.496.34-.815.36a1.111 1.111 0 0 1-.81-.26 1.025 1.025 0 0 1-.379-.76c-.02-.324.07-.596.273-.808.202-.211.462-.328.779-.347z" class="cls-1"/></svg>