<svg xmlns="http://www.w3.org/2000/svg" preserveAspectRatio="xMidYMid" width="81" height="77" viewBox="0 0 81 77"><defs><style>.cls-1{fill:#fff;fill-rule:evenodd}</style></defs><path d="M76.656 71.76v4.882h-3.515V71.76l-4.34-7.683h4.143l2.135 4.416 2.079-4.416h3.837l-4.339 7.683zM66.04 67.092v9.552h-3.516v-9.552h-2.761v-3.017h9.038v3.017H66.04zm4.126-5.489L3.294 51.072 43.098-.003h30.024l-.024.553-2.932 61.053zm-.995-1.228l1.783-37.194-21.597-1.562-12.68 33.641 32.494 5.115zM43.615 1.052L29.532 19.125l19.116 1.384 7.329-19.457H43.615zm13.491 0l-7.361 19.535 21.26 1.539 1.011-21.074h-14.91zM12.254 22.328l.894-.569 3.955 6.204-.894.569-3.955-6.204zm2.058 10.57l-7.91.924-.125-1.048 7.91-.924.125 1.048zm.666-2.634l-7.451-2.431.329-1.004 7.451 2.431-.329 1.004zM9.855 68.278c0 1.738-1.026 4.218-4.577 4.218H3.504v4.148H-.011V64.075h5.289c3.573 0 4.577 2.478 4.577 4.203zm-6.351-1.441v2.894h1.004c1.56 0 1.721-.916 1.721-1.453 0-.632-.212-1.441-1.721-1.441H3.504zm17.521 1.009c0 2.368-1.452 3.357-2.636 3.771l3.516 5.027h-4.251l-2.657-4.148v4.148h-3.512V64.075h5.203c4.194 0 4.337 3.198 4.337 3.771zm-6.028-1.009v2.894h.864c1.256 0 1.648-.72 1.648-1.453 0-.701-.392-1.441-1.648-1.441h-.864zm11.553 9.808h-3.516V64.077h3.516v12.568zm8.449-12.928c4.586 0 6.741 3.283 6.741 6.642 0 3.355-2.155 6.642-6.741 6.642-4.592 0-6.748-3.287-6.748-6.642 0-3.359 2.156-6.642 6.748-6.642zm0 10.271c1.628 0 3.118-1.205 3.118-3.629 0-2.423-1.49-3.628-3.118-3.628-1.635 0-3.124 1.205-3.124 3.628 0 2.424 1.489 3.629 3.124 3.629zm17.985-6.142c0 2.368-1.454 3.357-2.638 3.771l3.516 5.027h-4.249l-2.654-4.148v4.148h-3.516V64.075h5.202c4.194 0 4.339 3.198 4.339 3.771zm-6.025-1.009v2.894h.859c1.256 0 1.65-.72 1.65-1.453 0-.701-.394-1.441-1.65-1.441h-.859zm11.548 9.808h-3.516V64.077h3.516v12.568z" class="cls-1"/></svg>