<svg xmlns="http://www.w3.org/2000/svg" width="24" height="24" viewBox="0 0 24 24"><path fill="#888" d="M19.946 8.8c-.1-.2-.25-.3-.449-.3h-5.89l4.84-7.25c.1-.15.1-.35 0-.5a.525.525 0 0 0-.45-.25h-6.986c-.2 0-.349.1-.449.25l-6.487 13c-.1.15-.1.35 0 .5s.299.25.449.25h4.142l-3.591 8.35c-.1.2 0 .45.2.6.05.05.15.05.25.05.15 0 .299-.05.399-.15l13.973-14a.541.541 0 0 0 .049-.55zM7.271 20.15l2.592-6c.05-.15.05-.3-.05-.45-.1-.1-.25-.2-.399-.2H5.322l5.989-12h5.788l-4.89 7.25c-.1.15-.1.35 0 .5.1.15.25.25.449.25h5.79L7.271 20.15z"/></svg>