<svg xmlns="http://www.w3.org/2000/svg" viewBox="0 34 104.9 66"><linearGradient id="a" gradientUnits="userSpaceOnUse" x1="19.939" y1="73.077" x2="70.061" y2="8.923" gradientTransform="matrix(1.1364 0 0 -1.1364 0 113.636)"><stop offset="0" stop-color="#0c90c2"/><stop offset="1" stop-color="#2dd2ab"/></linearGradient><path fill="url(#a)" d="M75 34.1H18.1V66H0v2.3h18.2V100.2H84.1V34.2h-2.3c0-.1-6.8-.1-6.8-.1zm-2.3 2.3v6.8h-6.8v-6.8h6.8zm-25 27.2h6.8v6.8h-6.8v-6.8zm0-2.2v-6.8h6.8v6.8h-6.8zm-2.2 0h-6.8v-6.8h6.8v6.8zm0 2.2v2.3h-6.8v-2.3h6.8zm0 4.6v2.3h-6.8v-2.3h6.8zm0 4.5v6.8h-6.8v-6.8h6.8zm2.2 0h6.8v6.8h-6.8v-6.8zm9.1 0h6.8v6.8h-6.8v-6.8zm0-2.2v-6.8h6.8v6.8h-6.8zm0-9.1v-6.8h6.8v6.8h-6.8zm0-9.1v-6.8h6.8v6.8h-6.8zm-2.3 0h-6.8v-6.8h6.8v6.8zm-9 0h-6.8v-6.8h6.8v6.8zm-9.1 0h-6.8v-6.8h6.8v6.8zm0 2.2v6.8h-6.8v-6.8h6.8zm0 9.1v2.3h-6.8v-2.3h6.8zm0 4.6v2.3h-6.8v-2.3h6.8zm0 4.5v6.8h-6.8v-6.8h6.8zm0 9.1v6.8h-6.8v-6.8h6.8zm2.2 0h6.8v6.8h-6.8v-6.8zm9.1 0h6.8v6.8h-6.8v-6.8zm9.1 0h6.8v6.8h-6.8v-6.8zm9.1 0h6.8v6.8h-6.8v-6.8zm0-2.3v-6.8h6.8v6.8h-6.8zm0-9v-6.8h6.8v6.8h-6.8zm0-9.1v-6.8h6.8v6.8h-6.8zm0-9.1v-6.8h6.8v6.8h-6.8zm-2.3-15.9v6.8h-6.8v-6.8h6.8zm-9.1 0v6.8h-6.8v-6.8h6.8zm-9 0v6.8h-6.8v-6.8h6.8zm-9.1 0v6.8h-6.8v-6.8h6.8zm-15.9 0h6.8v6.8h-6.8v-6.8zm0 9.1h6.8v6.8h-6.8v-6.8zm0 9h6.8v6.8h-6.8v-6.8zm0 9.1h6.8v2.3h-6.8v-2.3zm0 4.6h6.8v2.3h-6.8v-2.3zm0 4.5h6.8v6.8h-6.8v-6.8zm0 9.1h6.8v6.8h-6.8v-6.8zm0 15.9v-6.8h6.8v6.8h-6.8zm9 0v-6.8h6.8v6.8h-6.8zm9.1 0v-6.8h6.8v6.8h-6.8zm9.1 0v-6.8h6.8v6.8h-6.8zm9.1 0v-6.8h6.8v6.8h-6.8zm9.1 0v-6.8h6.8v6.8h-6.8zm15.9 0H75v-6.8h6.8v6.8zm0-9.1H75v-6.8h6.8v6.8zm0-9.1H75v-6.8h6.8v6.8zm0-9H75v-6.8h6.8v6.8zm0-9.1H75v-6.8h6.8v6.8zm0-9.1H75v-6.8h6.8v6.8zm0-9.1H75v-6.8h6.8v6.8z"/><linearGradient id="b" gradientUnits="userSpaceOnUse" x1="80.889" y1="45.313" x2="88.822" y2="35.161" gradientTransform="matrix(1.1364 0 0 -1.1364 0 113.636)"><stop offset="0" stop-color="#0c90c2"/><stop offset="1" stop-color="#2dd2ab"/></linearGradient><path fill="url(#b)" d="M97.5 57.8l-1.8 1.4 5.3 6.7H87.5v2.3h13.6L95.7 75l1.8 1.4 7.4-9.4z"/><linearGradient id="c" gradientUnits="userSpaceOnUse" x1="5.391" y1="66.663" x2="7.239" y2="64.299" gradientTransform="matrix(1.1364 0 0 -1.1364 0 113.636)"><stop offset="0" stop-color="#0c90c2"/><stop offset="1" stop-color="#2dd2ab"/></linearGradient><circle fill="url(#c)" cx="7.2" cy="39.2" r="1.7"/><linearGradient id="d" gradientUnits="userSpaceOnUse" x1="9.061" y1="58.402" x2="10.908" y2="56.038" gradientTransform="matrix(1.1364 0 0 -1.1364 0 113.636)"><stop offset="0" stop-color="#0c90c2"/><stop offset="1" stop-color="#2dd2ab"/></linearGradient><circle fill="url(#d)" cx="11.4" cy="48.6" r="1.7"/><linearGradient id="e" gradientUnits="userSpaceOnUse" x1="11.082" y1="19.475" x2="12.929" y2="17.111" gradientTransform="matrix(1.1364 0 0 -1.1364 0 113.636)"><stop offset="0" stop-color="#0c90c2"/><stop offset="1" stop-color="#2dd2ab"/></linearGradient><circle fill="url(#e)" cx="13.6" cy="92.8" r="1.7"/><linearGradient id="f" gradientUnits="userSpaceOnUse" x1="5.065" y1="26.597" x2="6.912" y2="24.233" gradientTransform="matrix(1.1364 0 0 -1.1364 0 113.636)"><stop offset="0" stop-color="#0c90c2"/><stop offset="1" stop-color="#2dd2ab"/></linearGradient><circle fill="url(#f)" cx="6.8" cy="84.8" r="1.7"/><linearGradient id="g" gradientUnits="userSpaceOnUse" x1="11.082" y1="33.475" x2="12.929" y2="31.111" gradientTransform="matrix(1.1364 0 0 -1.1364 0 113.636)"><stop offset="0" stop-color="#0c90c2"/><stop offset="1" stop-color="#2dd2ab"/></linearGradient><circle fill="url(#g)" cx="13.6" cy="76.9" r="1.7"/><linearGradient id="h" gradientUnits="userSpaceOnUse" x1="2.053" y1="50.112" x2="3.9" y2="47.748" gradientTransform="matrix(1.1364 0 0 -1.1364 0 113.636)"><stop offset="0" stop-color="#0c90c2"/><stop offset="1" stop-color="#2dd2ab"/></linearGradient><circle fill="url(#h)" cx="3.4" cy="58.1" r="1.7"/></svg>