<svg xmlns="http://www.w3.org/2000/svg" width="60" height="56"><defs><linearGradient id="a" gradientUnits="userSpaceOnUse" x1="18" y1="113" x2="131"><stop offset="0" stop-color="#00adef"/><stop offset="1" stop-color="#31ecbe"/></linearGradient></defs><path fill="url(#a)" d="M29.908 55.931l-.745-1.547c-.099-.209-9.997-20.791-10.922-22.501-.692-.892-7.772-3.725-11.577-5.247C1.873 24.72.616 24.186.238 23.761-1.647 21.658 7.9 3.043 8.028 2.891c.58-.712 2.581-1.757 4.66-1.757 1.187 0 2.236.329 3.116.979 1.769 1.287 2.71 2.796 2.792 4.482.126 2.557-1.788 4.67-2.94 5.703-.522.467-1.204.522-1.671.522-.27 0-.557-.02-.847-.043-.627-.045-1.278-.056-1.5.104-.445.334-1.375 2.494-1.822 4.001.792-.623 1.926-1.31 3.477-1.31.495 0 1.009.071 1.526.213 2.816.764 3.754 3.122 3.919 4.741 1.461.282 5.001.935 6.484.935.92 0 1.216-.113 1.302-.205.099-.108.204-.471.148-1.592-.017-.428-.803-1.078-1.563-1.706-1.879-1.555-4.718-3.902-4.782-8.882-.035-2.532.7-4.604 2.184-6.163 2.7-2.835 6.912-2.916 7.384-2.916.496 0 4.701.081 7.401 2.914 1.484 1.557 2.219 3.631 2.184 6.165-.063 4.98-2.904 7.329-4.785 8.882-.759.63-1.545 1.28-1.562 1.698-.056 1.121.054 1.486.155 1.595.127.139.565.21 1.3.21 1.483 0 5.023-.653 6.485-.935.164-1.619 1.105-3.979 3.939-4.741a5.655 5.655 0 0 1 1.514-.213c1.548 0 2.681.689 3.472 1.312-.441-1.507-1.366-3.671-1.817-4.013-.202-.143-.869-.137-1.5-.094-.292.023-.58.043-.853.043-.468 0-1.153-.055-1.677-.521-1.152-1.034-3.062-3.148-2.936-5.705.081-1.685 1.02-3.194 2.791-4.483.876-.648 1.926-.977 3.113-.977 2.072 0 4.079 1.043 4.673 1.765.123.146 9.655 18.755 7.8 20.86-.388.429-1.643.961-6.422 2.872-3.813 1.525-10.91 4.366-11.621 5.285-.905 1.677-10.798 22.259-10.897 22.468l-.744 1.547zM1.564 22.659c.639.349 3.319 1.42 5.699 2.373 8.265 3.306 11.82 4.873 12.43 6.015.802 1.481 7.863 16.139 10.215 21.023 2.349-4.884 9.407-19.544 10.211-21.026.628-1.142 4.185-2.709 12.452-6.016 2.325-.931 4.932-1.974 5.689-2.387-.043-2.537-6.896-17.434-7.748-18.645-.207-.251-1.706-1.142-3.393-1.142-.834 0-1.558.223-2.152.66-1.335.972-2.038 2.037-2.092 3.167-.066 1.336.795 2.909 2.364 4.317.025.024.148.103.589.103.235 0 .483-.02.733-.038.298-.024.596-.045.885-.045.456 0 1.127.047 1.687.445 1.266.934 2.857 5.486 2.763 6.849-.043.628-.374.896-.568.998l-.178.096-.296.022c-.492 0-.864-.324-1.337-.734-.851-.74-2.219-1.762-4.082-1.246-2.858.77-2.732 3.623-2.725 3.743l.043.749-.712.144c-.219.045-5.409 1.096-7.453 1.096-1.092 0-1.938-.126-2.505-.744-.592-.645-.672-1.61-.612-2.86.051-1.194 1.04-2.012 2.188-2.96 1.83-1.512 4.107-3.394 4.159-7.563.027-2.058-.546-3.717-1.706-4.936-2.263-2.373-6.032-2.401-6.192-2.401-.185 0-3.962.028-6.227 2.405-1.16 1.217-1.733 2.876-1.704 4.932.054 4.167 2.329 6.049 4.158 7.562 1.147.949 2.136 1.767 2.185 2.968.064 1.285-.013 2.214-.602 2.856-.565.615-1.411.741-2.508.741-2.043 0-7.234-1.051-7.453-1.096l-.71-.144.041-.749c.005-.117.101-2.983-2.706-3.743-1.876-.514-3.246.502-4.102 1.246-.473.41-.847.734-1.339.734l-.454-.108c-.214-.112-.545-.38-.588-1.008-.092-1.362 1.515-5.915 2.775-6.841.572-.406 1.24-.453 1.694-.453.286 0 .584.021.88.045.247.018.493.038.725.038.435 0 .556-.079.582-.103 1.572-1.408 2.434-2.981 2.369-4.317-.055-1.129-.759-2.195-2.091-3.165-.599-.439-1.323-.662-2.157-.662-1.689 0-3.179.887-3.398 1.157-.847 1.201-7.733 16.181-7.726 18.648z"/></svg>