<svg xmlns="http://www.w3.org/2000/svg" width="61" height="44"><defs><linearGradient id="a" gradientUnits="userSpaceOnUse" x1="18" y1="113" x2="131"><stop offset="0" stop-color="#00adef"/><stop offset="1" stop-color="#31ecbe"/></linearGradient></defs><path fill="url(#a)" d="M60.043 36.255c-2.716 0-2.765 2.611-2.765 2.953v4.409h-3.714v-10.34h3.565v1.351c.111-.15.218-.28.322-.409a3.553 3.553 0 0 1 2.592-1.176c.274 0 .828.063.956.084v3.298c-.339-.149-.596-.17-.956-.17zm-14.448 7.749c-4.248 0-6.136-2.614-6.136-5.568 0-2.911 1.888-5.543 6.136-5.543 4.255 0 6.14 2.632 6.14 5.543 0 2.954-1.885 5.568-6.14 5.568zm0-8.413c-1.487 0-2.29 1.156-2.29 2.845 0 1.714.803 2.87 2.29 2.87 1.49 0 2.297-1.156 2.297-2.87 0-1.689-.807-2.845-2.297-2.845zM32.536 11.868c0-7.516 5.256-11.882 11.313-11.882 1.975 0 4.237.513 6.118 1.797v6.521c-1.146-1.351-2.9-2.702-5.287-2.702-3.444 0-5.71 2.765-5.71 6.455 0 3.403 2.138 6.07 5.71 6.07 2.322 0 4.141-1.253 5.287-2.44v6.388c-2.009 1.382-4.112 1.672-6.021 1.672-6.628 0-11.41-4.688-11.41-11.879zm.336 18.564h3.718v2.845h2.082v2.698H36.59v7.642h-3.718v-7.642h-1.341v-2.698h1.341v-2.845zm-8.267 13.572c-4.247 0-6.139-2.614-6.139-5.568 0-2.911 1.892-5.543 6.139-5.543 4.252 0 6.14 2.632 6.14 5.543 0 2.954-1.888 5.568-6.14 5.568zm0-8.413c-1.486 0-2.29 1.156-2.29 2.845 0 1.714.804 2.87 2.29 2.87 1.49 0 2.297-1.156 2.297-2.87 0-1.689-.807-2.845-2.297-2.845zm-5.578-12.486h-8.16V.628h8.16c9.178 0 11.468 6.196 11.468 11.237 0 6.035-3.471 11.24-11.468 11.24zM17.814 6.021h-.7v11.687h.7c6.181 0 6.247-4.685 6.247-5.843 0-1.254-.066-5.844-6.247-5.844zm-1.022 30.597v6.999h-3.721v-6.036c0-.321 0-1.606-1.168-1.606-.807 0-1.656.622-1.656 2.098v5.544H6.526v-6.036c0-.321 0-1.606-1.168-1.606-.807 0-1.656.622-1.656 2.098v5.544H-.015v-10.34h3.717v1.093c.87-.964 1.954-1.477 3.229-1.477 1.425 0 2.509.555 3.084 1.585.849-1.072 1.76-1.585 3.247-1.585 2.761 0 3.53 2.098 3.53 3.725z"/></svg>