<svg xmlns="http://www.w3.org/2000/svg" preserveAspectRatio="xMidYMid" width="82" height="37" viewBox="0 0 82 37"><defs><style>.cls-1{fill:#fff;fill-rule:evenodd}</style></defs><path d="M71.48 22.007h-5.988l7.54-17.249h-.091L61.643 22.007h-4.67L56.13 4.758h-.087l-2.885 17.249h-5.952l2.66-22h11.706l.412 12.995h.079L70.401.007h11.612l-10.533 22zM44.504 28.84l-.469 5.194c-.051.563.182.685.546.685.318-.054.42-.035.716-.035l-.223 1.971c-.58.088-1.14.158-1.725.158-1.438 0-2.191-.773-2.132-2.271l.227-5.702h-1.211l.042-2.021h1.25l.114-2.817h3.299l-.252 2.817h1.508l-.231 2.021h-1.459zm-6.627-11.116h-5.229l-.371 4.281h-6.309L29.481.007h10.003l5.696 21.998h-6.345l-.958-4.281zM34.683 3.995h-.091l-1.528 9.856h4.072l-2.453-9.856zm-4.936 25.921l.62 4.009c.209 2.238-.976 3.063-2.992 3.063-1.9 0-3.699-.808-4.339-3.063l-1.148-4.009c-.723-2.535.732-3.381 3.184-3.381 2.794 0 4.331 1.163 4.675 3.381zM27.6 34.101l-.901-4.397c-.128-.634-.467-1.146-1.181-1.146s-.826.512-.676 1.146l1.037 4.397c.183.564.479.865 1.051.865.57 0 .733-.301.67-.865zM12.895 13.442l2.928 8.565H9.549l-9.557-22H9.86c3.211 0 7.878.176 10.533 1.818 2.152 1.349 2.822 2.992 3.155 4.781.442 2.378.156 5.047-2.872 6.131-2.235.879-5.159.617-7.781.705zm2.981-6.748c-.238-.849-.733-2.141-2.198-2.551-.819-.175-1.903-.175-3.167-.175h-.855l1.885 5.514c1.383-.028 3.024.086 4.018-.557.601-.589.528-1.467.317-2.231zm-.861 19.841c3.145.036 4.752 1.233 5.424 3.943h-2.808l-.081-.178c-.189-.369-.309-.755-.52-1.125-.28-.405-.592-.615-1.055-.615-.793 0-.706.562-.46 1.195l1.592 4.066c.24.618.619 1.145 1.329 1.145 1.021 0 .291-1.55.025-2.288h2.774c.182.582.493 1.812.503 2.339.034 1.234-.787 1.796-1.897 1.92-.244.014-.461.051-.863.051-1.901 0-3.638-.808-4.634-3.063l-1.768-4.009c-1.12-2.535-.016-3.381 2.439-3.381zm19.1 1.513h.038c.236-.755 1.098-1.513 2.095-1.513 1.497 0 2.834.722 2.832 2.058l-.01 8.078h-2.664l-.345-7.037c-.061-.459-.272-.847-.848-.811-.536.017-.802.299-.767.811l.534 7.037h-2.663l-1.241-9.854h2.94l.099 1.231zm16.309-1.231l-.275 1.494h.042c.546-1.054 1.459-1.776 2.776-1.776l-.7 3.169c-.29-.054-.59-.07-.895-.07-.852 0-1.225.156-1.43.969l-1.122 6.068h-2.664l1.325-9.854h2.943zm2.928 3.099c.605-2.535 2.504-3.381 4.958-3.381 2.795 0 3.721 1.163 2.899 3.381l-1.487 4.009c-.962 2.238-2.585 3.063-4.6 3.063-1.899 0-3.271-.808-2.731-3.063l.961-4.009zm2.387 5.05c.572 0 .894-.301 1.126-.865l1.408-4.397c.205-.634.134-1.146-.58-1.146-.713 0-1.096.512-1.277 1.146l-1.274 4.397c-.113.564.026.865.597.865zm13.317-11.492l-5.978 13.197h-2.664l5.316-13.197h3.326z" class="cls-1"/></svg>