<svg xmlns="http://www.w3.org/2000/svg" width="79.988" height="61.524" viewBox="0 0 79.988 61.524"><linearGradient id="a" gradientUnits="userSpaceOnUse" y1="30.762" x2="79.988" y2="30.762"><stop offset="0" stop-color="#008abf"/><stop offset=".374" stop-color="#15a5af"/><stop offset=".748" stop-color="#24b9a3"/><stop offset="1" stop-color="#2ac09f"/></linearGradient><path fill-rule="evenodd" clip-rule="evenodd" fill="url(#a)" d="M78.182 59.639c-1.204 1.256-2.734 1.885-4.594 1.885-1.859 0-3.385-.625-4.576-1.875-1.192-1.252-1.788-2.763-1.788-4.533 0-1.758.602-3.266 1.806-4.523 1.203-1.257 2.735-1.884 4.594-1.884 1.859 0 3.385.625 4.576 1.876 1.191 1.251 1.787 2.762 1.787 4.532.001 1.758-.602 3.266-1.805 4.522zm-1.063-8.152C76.182 50.496 75.006 50 73.588 50c-1.418 0-2.589.492-3.513 1.478-.924.985-1.385 2.198-1.385 3.638 0 1.428.468 2.638 1.403 3.629.936.991 2.112 1.487 3.531 1.487 1.418 0 2.589-.492 3.512-1.478s1.385-2.198 1.385-3.638c.001-1.428-.467-2.638-1.402-3.629zm-16.9-9.528c-.211 0-.425-.066-.606-.201a.992.992 0 0 1-.196-1.397c5.137-6.723 6.321-15.739 3.093-23.53C57.452 4.629 43.316-1.224 30.993 3.783c-5.969 2.425-10.626 7.008-13.115 12.903-2.489 5.895-2.51 12.396-.06 18.306a23.86 23.86 0 0 0 3.086 5.368.992.992 0 0 1-.195 1.397 1.016 1.016 0 0 1-1.409-.194 25.921 25.921 0 0 1-3.344-5.814c-2.654-6.403-2.631-13.446.065-19.832 2.696-6.386 7.741-11.35 14.207-13.977 13.348-5.424 28.664.916 34.142 14.134 3.498 8.441 2.215 18.207-3.348 25.49a1.011 1.011 0 0 1-.803.395zM5.631 61.312H4.2V50.213H0v-1.292h9.831v1.292h-4.2v11.099zm11.942-5.276c0 1.334.337 2.364 1.01 3.089.674.726 1.612 1.089 2.816 1.089 1.18 0 2.104-.349 2.771-1.045.667-.696 1.001-1.711 1.001-3.044V48.92h1.412v7.098c0 1.77-.471 3.127-1.412 4.072-.941.943-2.211 1.416-3.807 1.416-1.586 0-2.848-.469-3.79-1.407-.941-.938-1.412-2.263-1.412-3.974V48.92h1.412v7.116zm3.775-38.918l4.04 1.658c.513.21.757.793.544 1.302a1.008 1.008 0 0 1-1.315.539l-4.04-1.658a.993.993 0 0 1-.544-1.302 1.01 1.01 0 0 1 1.315-.539zm3.27 14.093a1.007 1.007 0 0 1 1.314.54.991.991 0 0 1-.545 1.301l-4.042 1.656a1.006 1.006 0 0 1-1.314-.54.99.99 0 0 1 .545-1.3l4.042-1.657zm-6.369-4.897a1 1 0 0 1 1.006-.996h4.376a1 1 0 0 1 1.006.996 1 1 0 0 1-1.006.996h-4.376a1 1 0 0 1-1.006-.996zm6.508-15.659c.393-.39 1.03-.39 1.423 0l3.091 3.062a.99.99 0 0 1 0 1.409 1.011 1.011 0 0 1-1.422 0l-3.091-3.063a.987.987 0 0 1-.001-1.408zm7.068-4.681a1.012 1.012 0 0 1 1.315.539l1.674 4.004a.993.993 0 0 1-.544 1.301 1.006 1.006 0 0 1-1.314-.539l-1.674-4.003a.994.994 0 0 1 .543-1.302zM42.999 50.16c.644.637.966 1.463.966 2.478 0 .991-.31 1.794-.93 2.407-.62.614-1.442 1.016-2.467 1.204l3.843 5.063h-1.734l-3.629-4.815h-3.574v4.815h-1.413V48.921h5.381c1.537 0 2.723.413 3.557 1.239zm-7.525.053v5.027h3.843c.954 0 1.728-.229 2.325-.69.595-.46.893-1.092.893-1.894 0-.767-.283-1.366-.849-1.797-.566-.43-1.35-.646-2.35-.646h-3.862zm3.559-40.149V5.732a1 1 0 0 1 1.006-.996 1 1 0 0 1 1.006.996v4.332a1 1 0 0 1-1.006.996 1 1 0 0 1-1.006-.996zm7.41 1.831c-.129 0-.259-.024-.385-.076a.992.992 0 0 1-.544-1.301l1.674-4.001a1.01 1.01 0 0 1 1.315-.539.992.992 0 0 1 .544 1.301l-1.674 4.001a1.007 1.007 0 0 1-.93.615zm10.876 22.117c-.13 0-.261-.024-.388-.077L43.61 28.418a4.227 4.227 0 0 1-1.819 1.422 4.306 4.306 0 0 1-1.623.318c-1.688 0-3.291-.993-3.971-2.633-.898-2.167.151-4.652 2.338-5.541a4.305 4.305 0 0 1 3.286.012 4.235 4.235 0 0 1 2.31 2.305 4.16 4.16 0 0 1 .256 2.279l13.321 5.516a.992.992 0 0 1 .54 1.304 1.006 1.006 0 0 1-.929.612zm-15.051-8.955a2.243 2.243 0 0 0-1.225-1.223 2.293 2.293 0 0 0-1.744-.007 2.25 2.25 0 0 0-1.242 2.941 2.284 2.284 0 0 0 2.969 1.228 2.255 2.255 0 0 0 1.236-1.215v-.001l.001-.001a2.213 2.213 0 0 0 .005-1.722zm19.685.858a1 1 0 0 1-1.006.996h-.001l-4.374-.003a1.001 1.001 0 0 1-1.005-.997 1 1 0 0 1 1.006-.996h.001l4.374.003a1.002 1.002 0 0 1 1.005.997zM51.542 15.48c-.257 0-.514-.097-.71-.291a.99.99 0 0 1-.002-1.409l3.087-3.066a1.014 1.014 0 0 1 1.423-.002.99.99 0 0 1 .002 1.409l-3.087 3.066a1.01 1.01 0 0 1-.713.293zm8.752 2.176a.993.993 0 0 1-.544 1.302l-4.042 1.658a1.006 1.006 0 0 1-1.314-.539.993.993 0 0 1 .544-1.302l4.042-1.658a1.012 1.012 0 0 1 1.314.539zm-.695 32.362c.536.554.805 1.228.805 2.018 0 1.346-.662 2.301-1.985 2.868 1.787.531 2.681 1.54 2.681 3.027 0 1.051-.411 1.876-1.233 2.478-.822.602-1.925.903-3.307.903H51V48.921h5.327c1.466 0 2.556.365 3.272 1.097zm-7.205 10.037h4.201c.953 0 1.705-.197 2.253-.592.547-.396.822-.948.822-1.655 0-.685-.284-1.211-.85-1.577-.566-.366-1.391-.549-2.476-.549h-3.951v4.373zm0-9.878v4.267h3.701c.87 0 1.567-.196 2.091-.585.525-.389.787-.943.787-1.663 0-.625-.242-1.118-.724-1.478-.483-.36-1.165-.54-2.047-.54h-3.808z"/></svg>