<svg id="Layer_1" data-name="Layer 1" xmlns="http://www.w3.org/2000/svg" viewBox="0 0 12.98 17.44" height="68" width="51"><defs><style>.cls-1{fill:#fff}</style></defs><path class="cls-1" d="M13 6.49A6.49 6.49 0 1 0 6.49 13 6.5 6.5 0 0 0 13 6.49zm-6.51 6.08a6.08 6.08 0 1 1 6.08-6.08 6.09 6.09 0 0 1-6.08 6.08z"/><path class="cls-1" d="M10.04 4.08l-1.22.75V3.6h-.46v1.52l-1.62.96V4.17l1.23-.86-.19-.37-1.04.66V2.27h-.48V3.6l-1.04-.66-.19.37 1.23.86v1.91l-1.62-.96.1-1.52h-.48l-.1 1.13-1.13-.65-.29.48 1.13.65-1.03.58.19.46 1.33-.75 1.71 1.04-1.62.96-1.32-.67-.29.38 1.13.56-1.13.67.19.49 1.13-.68v1.23h.48V7.86l1.62-.94v1.81l-1.23.94.19.48 1.04-.77v1.33h.48V9.38l.94.77.29-.38-1.23-1.04V6.92l1.62.94v1.52h.46V8.15l1.13.78.29-.39-1.13-.77 1.03-.56-.26-.38-1.26.67-1.71-.96L8.53 5.5l1.42.75.19-.36-1.03-.68 1.13-.65-.2-.48zM4.27 14.77a1.1 1.1 0 0 0-.27-.84 1.23 1.23 0 0 0-.88-.3H1.87v3.76h.76V16H3l.57 1.37h.81l-.66-1.54a1.09 1.09 0 0 0 .55-1.06zm-.87.47a.4.4 0 0 1-.34.15h-.43v-1.12h.44q.44 0 .44.56a.65.65 0 0 1-.11.41zM4.81 15.48h1.26v.61H4.81zM8.29 15.46a.91.91 0 0 0 .35-.33.9.9 0 0 0 .13-.47 1 1 0 0 0-.29-.78 1.11 1.11 0 0 0-.81-.29 1.12 1.12 0 0 0-.54.13 1 1 0 0 0-.38.37 1 1 0 0 0-.14.53h.73a.46.46 0 0 1 .1-.3.31.31 0 0 1 .25-.12.31.31 0 0 1 .26.13.56.56 0 0 1 .1.35A.67.67 0 0 1 8 15a.33.33 0 0 1-.3.14h-.4v.59h.36c.29 0 .43.19.43.56a.58.58 0 0 1-.09.41.36.36 0 0 1-.3.14.32.32 0 0 1-.27-.14.53.53 0 0 1-.11-.34h-.74a1.05 1.05 0 0 0 .3.78 1.07 1.07 0 0 0 .78.3 1.17 1.17 0 0 0 .84-.3 1.17 1.17 0 0 0 .19-1.34.8.8 0 0 0-.4-.34zM10.74 16.1a4 4 0 0 0 .56-.8 1.5 1.5 0 0 0 .15-.64 1.07 1.07 0 0 0-.28-.79 1.05 1.05 0 0 0-.78-.28 1.1 1.1 0 0 0-.59.16 1.07 1.07 0 0 0-.4.44 1.39 1.39 0 0 0-.14.63H10a.86.86 0 0 1 .1-.46.32.32 0 0 1 .28-.17.28.28 0 0 1 .25.14.75.75 0 0 1 .09.39.94.94 0 0 1-.09.39 2.79 2.79 0 0 1-.28.47l-1 1.29v.52h2.21v-.61h-1.3z"/></svg>