<svg xmlns="http://www.w3.org/2000/svg" preserveAspectRatio="xMidYMid" width="109.344" height="153" viewBox="0 0 109.344 153"><path d="M87.969 100.762h.001a34.216 34.216 0 0 1-13.049 2.589c-13.581 0-26.482-8.095-31.95-21.456-7.218-17.646 1.221-37.889 18.814-45.13 17.591-7.24 37.778 1.223 44.997 18.868 7.219 17.644-1.22 37.889-18.813 45.129zm16.968-44.371c-5.15-12.587-17.307-20.214-30.101-20.214-4.103 0-8.27.783-12.294 2.439-16.576 6.82-24.527 25.894-17.725 42.519 6.802 16.623 25.821 24.595 42.395 17.777h.001c16.574-6.823 24.526-25.896 17.724-42.521zm-8.22 12.722l.002-2.002 5.821.003-.001 2-5.822-.001zm-7.268 15.886l1.41-1.414 4.115 4.125-1.41 1.415-4.115-4.126zM89.316 52l4.111-4.133 1.412 1.41-4.111 4.134L89.316 52zm.328 22.032l-.794 1.835-9.503-4.133a5.326 5.326 0 0 1-2.433 2.008h-.001a5.324 5.324 0 0 1-2.035.406 5.347 5.347 0 0 1-2.071-.421 5.337 5.337 0 0 1-2.894-2.922c-1.123-2.743.19-5.892 2.927-7.021a5.368 5.368 0 0 1 7.28 6.107l9.524 4.141zm-11.648-6.553a3.375 3.375 0 0 0-4.399-1.845 3.391 3.391 0 0 0-1.839 4.413 3.343 3.343 0 0 0 1.819 1.834 3.32 3.32 0 0 0 2.579.011 3.39 3.39 0 0 0 1.84-4.413zm-4.281-26.572h1.994v5.841h-1.994v-5.841zM54.747 87.635l4.11-4.134 1.412 1.414-4.11 4.133-1.412-1.413zM54.612 49.2l1.41-1.413 4.114 4.129-1.41 1.412-4.114-4.128zm-7.565 18.452h5.824v2.001h-5.824v-2.001zm9.786-47.651h-37.89v-2h37.89v2zm11.965 117H7.975v-21h60.823v21zM66.804 118H9.97v16.999h56.834V118zm-22.218 5.698c1.722 0 3.119 1.4 3.119 3.129a3.122 3.122 0 0 1-3.119 3.125 3.122 3.122 0 0 1-3.119-3.125 3.124 3.124 0 0 1 3.119-3.129zm0 4.255a1.127 1.127 0 0 0 0-2.255 1.127 1.127 0 1 0 0 2.255zm8.4-4.255c1.722 0 3.118 1.4 3.118 3.129a3.12 3.12 0 0 1-3.118 3.125 3.121 3.121 0 0 1-3.119-3.125 3.123 3.123 0 0 1 3.119-3.129zm0 4.255a1.128 1.128 0 0 0 0-2.255 1.128 1.128 0 0 0 0 2.255zM74 2.001H1.996L2 142h72v-30h2v32h-7.202v9.001h-1.994V144H9.97v9.001H7.975V144H0V.001h76v23h-2v-21z" class="cls-1"/></svg>