<svg xmlns="http://www.w3.org/2000/svg" width="88" height="90"><defs><linearGradient id="a" x1="0%" x2="61.566%" y1="0%" y2="78.801%"><stop offset="0%" stop-color="#00ADEF" stop-opacity=".8"/><stop offset="44%" stop-color="#1CD1DA" stop-opacity=".8"/><stop offset="100%" stop-color="#37F4C5" stop-opacity=".8"/></linearGradient></defs><path fill="url(#a)" d="M8-.001h72a8 8 0 0 1 8 8v72.002a8 8 0 0 1-8 7.998H8a8 8 0 0 1-8-7.998V7.999a8 8 0 0 1 8-8z"/><path fill-rule="evenodd" fill="#FFF" d="M87.187 27.162a1.086 1.086 0 0 1-1.324-.775c-1.035-3.967-1.297-4.974-1.356-5.196a.201.201 0 0 0-.01-.035c-.149-.578.192-1.202.771-1.352.579-.15.842-.221 1.233.81l.093-.019c.032.118.039.244.03.363.301.897.694 2.402 1.34 4.884.15.58-.197 1.169-.777 1.32zM67.674 5.437c0-1.905.406-3.73 1.154-5.449h2.091c.035.205.071.42-.024.624a11.45 11.45 0 0 0-1.048 4.825c0 6.413 5.233 11.633 11.667 11.633 1.701 0 3.34-.356 4.872-1.059.057-.027.117.008.176-.008v2.221c-1.609.632-3.292 1.011-5.048 1.011-7.632 0-13.84-6.191-13.84-13.798zm-.692 6.777l-9.116 3.52a1.063 1.063 0 0 1-.392.076c-.436 0-.847-.265-1.013-.692a1.08 1.08 0 0 1 .62-1.399l9.112-3.52a1.081 1.081 0 1 1 .789 2.015zM65.61 4.687c-.041 0-.083-.005-.126-.008l-9.707-1.127a1.085 1.085 0 0 1-.952-1.201c.068-.592.627-1.011 1.206-.948l9.702 1.126a1.081 1.081 0 0 1-.123 2.158zm.151 3.852c-.002 0-7.469.877-13.653 1.667-.048.004-.095.008-.141.008a1.083 1.083 0 0 1-.137-2.157c6.197-.79 13.677-1.668 13.677-1.668l.254 2.15zm-5.924 37.518L44.365 73.649V61.344h-6.917v13.111L17.467 89.016V18.2L37.448 3.635v27.07h6.917V18.327l15.472 27.73zm-34.612 15.41l2.181-1.64v-8.168l-2.181 1.565v8.243zm0-9.839l2.181-1.566v-7.887l-2.181 1.597v7.856zm0-9.467l2.181-1.596V32.67l-2.181 1.595v7.896zm-1.304-24.649l-3.199 2.332v6.713l3.199-2.362v-6.683zm0 8.302l-3.199 2.363v7.772l3.199-2.339v-7.796zm0 9.404l-3.199 2.339v7.903l3.199-2.343v-7.899zm0 9.508l-3.199 2.342v7.796l3.199-2.299v-7.839zm0 9.438l-3.199 2.296v8.389l3.199-2.402v-8.283zm0 9.906l-3.199 2.407v7.757l3.199-2.36V64.07zm0 9.417l-3.199 2.358v6.777l3.199-2.331v-6.804zm5.624-60.072l-4.32 3.148v6.67l4.32-3.192v-6.626zm0 8.243l-4.32 3.192v7.804l2.181-1.594v-.355h.485l1.654-1.208v-7.839zm0 39.686h-1.997l-2.323 1.747v7.823l4.32-3.181v-6.389zm0 8.002l-4.32 3.181v6.816l4.32-3.145v-6.852zm4.648-59.318l-3.344 2.438v6.611l3.344-2.47v-6.579zm0 8.196l-3.344 2.473v7.847l3.344-2.446v-7.874zm0 9.483l-3.344 2.446v.552h3.344v-2.998zm0 33.637h-3.344v5.429l3.344-2.462v-2.967zm0 4.58l-3.344 2.462v6.859l3.344-2.433v-6.888zm-21.689 5.034a4.765 4.765 0 0 1-2.078.482c-.513 0-.981-.087-1.387-.265a2.992 2.992 0 0 1-1.574-3.927c.551-1.273 1.851-2.067 3.015-1.795.301.068.585.103.846.103 1.451 0 1.81-1.058 1.846-1.182.396-.948 1.455-1.37 2.331-.979.43.182.763.521.937.957.165.414.169.864.01 1.276-.085.533-.717 3.721-3.946 5.33zm2.979-6.223a.718.718 0 0 0-.386-.396.72.72 0 0 0-.954.38c-.164.604-.995 1.864-2.817 1.864-.336 0-.697-.042-1.072-.126a1.031 1.031 0 0 0-.248-.028c-.626 0-1.282.502-1.593 1.226a1.965 1.965 0 0 0 1.034 2.579c.678.285 1.814.195 2.595-.193 2.952-1.473 3.38-4.485 3.396-4.616l.037-.133a.727.727 0 0 0 .008-.557zm-1.974 2.907a.821.821 0 0 1-.434-1.082.827.827 0 1 1 .434 1.082zm-2.028 1.194a.823.823 0 0 1-.434-1.083.827.827 0 1 1 1.522.656.827.827 0 0 1-1.088.427zm-2.056.711a.831.831 0 0 1-.434-1.09.834.834 0 0 1 1.088-.431.824.824 0 0 1 .435 1.086.833.833 0 0 1-1.089.435zm4.736-28.123c-.139.654-.449 1.364-.936 2.057a5.798 5.798 0 0 1-1.52 1.516l.571.996-.626.356-.586-1.022c-.32.133-.635.223-.931.223-.343 0-.648-.09-.906-.268-.5-.351-.721-.968-.686-1.705l-1.149-.196.123-.711 1.128.192c.152-.619.457-1.287.915-1.938a5.622 5.622 0 0 1 1.633-1.556l-.56-.977.626-.355.584 1.018c.646-.24 1.26-.246 1.711.068.473.33.69.902.686 1.583l1.132.195-.123.711-1.086-.187zm-1.199-1.46a.523.523 0 0 0-.308-.079c-.531 0-1.461.509-2.251 1.628-.973 1.387-.995 2.64-.585 2.923.424.301 1.59-.149 2.563-1.544.898-1.277 1.046-2.6.581-2.928zm-2.381 3.394c-.327-.229-.242-.913.192-1.533.435-.62 1.051-.929 1.38-.703.325.229.24.916-.194 1.533-.434.62-1.053.928-1.378.703zm3.457-8.199a.869.869 0 1 1 0-1.738.869.869 0 1 1 0 1.738zm0-8.309a.87.87 0 1 1 0-1.74.87.87 0 1 1 0 1.74zM7.707 37.932c-1.403 0-2.626-.88-2.846-2.046-.343-1.842-1.475-2.039-1.947-2.039l-.18.007c-.97 0-1.758-.785-1.758-1.753 0-.944.749-1.716 1.686-1.754a7.312 7.312 0 0 1 1.711-.191c1.251 0 3.092.293 4.761 1.692.783.663 1.572 1.873 1.572 3.097a2.996 2.996 0 0 1-2.999 2.987zm.763-5.297c-2.606-2.182-5.586-1.282-5.596-1.282l-.14.02a.73.73 0 0 0-.728.728.73.73 0 0 0 .708.727c.02-.005.095-.008.2-.008.569 0 2.464.205 2.961 2.876.141.758 1.043 1.21 1.832 1.21a1.969 1.969 0 0 0 1.968-1.961c0-.849-.606-1.805-1.205-2.31zm-.252 3.425a.824.824 0 0 1-.828-.826c0-.459.369-.826.828-.826a.826.826 0 1 1 0 1.652zm-1.462-1.604a.825.825 0 1 1 0-1.652.826.826 0 0 1 0 1.652zm-1.902-1.383a.826.826 0 1 1 0-1.652.825.825 0 1 1 0 1.652zm.839-9.274a.872.872 0 1 1 0-1.743.872.872 0 0 1 0 1.743zM1.737 47.911a.87.87 0 0 1-.873.868.87.87 0 1 1 0-1.743c.484 0 .873.395.873.875zm.951 18.163a.87.87 0 0 1-.872.869.87.87 0 0 1 0-1.739.87.87 0 0 1 .872.87zm-.515-25.62c0-.482.39-.87.874-.87a.87.87 0 1 1 0 1.739.87.87 0 0 1-.874-.869zm9.596 19.417l-.555-1.022c-.313.17-.665.275-1.045.275-.787 0-1.754-.229-2.409-.573-1.316-.7-1.597-.526-1.621-.486-.034.039-.036.174-.03.209.008 1.387-1.05 2.438-2.351 2.438A2.354 2.354 0 0 1 1.4 58.365c0-.839.448-1.573 1.115-1.989l-.562-1.429.674-.261.553 1.408a2.35 2.35 0 0 1 .578-.08l.157.024c.18-.217.563-.906.149-3.529a1.607 1.607 0 0 1 .033-.641l-.967-.643.401-.601.886.59c.02-.026.033-.055.055-.08a2.181 2.181 0 0 1 1.637-.747c1.13 0 2.05.917 2.05 2.043-.05.443-.067 1.545.41 2.086.304.336.793.412 1.469.23.131-.037.27-.052.406-.052 1.136 0 1.929 1.177 1.929 2.233 0 .57-.224 1.086-.583 1.476l.613 1.128-.634.34zm-1.467-4.13c-1.077.277-1.947.083-2.508-.549-.868-.98-.686-2.64-.662-2.826-.004-.497-.462-.951-1.023-.951-.323 0-.648.146-.852.387a.673.673 0 0 0-.174.549c.348 2.216.241 3.62-.332 4.287a1.144 1.144 0 0 1-.87.419l-.154-.016a1.33 1.33 0 0 0-1.296 1.324c0 .727.596 1.319 1.327 1.319.732 0 1.329-.592 1.329-1.319-.008 0-.086-.549.261-.961.153-.181.442-.398.954-.398.499 0 1.136.21 1.942.635.508.27 1.3.455 1.925.455.646 0 1.173-.525 1.173-1.169-.002-.66-.547-1.368-1.04-1.186zm-.226 1.889a.7.7 0 0 1-.706-.707c0-.388.311-.704.706-.704a.71.71 0 0 1 .709.704.707.707 0 0 1-.709.707zm-3.973-4.406a.706.706 0 0 1 0-1.41c.395 0 .712.316.712.704 0 .39-.317.706-.712.706zm-2.345 5.848a.708.708 0 1 1-.002-1.416.708.708 0 0 1 .002 1.416zM2.003 75.679l-.118-1.158.718-.07.116 1.148c.052-.001.095-.014.148-.014.626 0 1.31.122 1.976.356.896.315 1.679.802 2.206 1.374.606.656.818 1.359.598 1.98-.185.527-.676.892-1.349 1.074l.116 1.146-.717.072-.112-1.109c-.092.005-.171.026-.266.026a6.048 6.048 0 0 1-1.971-.355c-1.282-.455-2.293-1.233-2.702-2.083-.21-.438-.247-.881-.107-1.273.196-.559.724-.947 1.464-1.114zm-.427 1.944c.285.593 1.116 1.202 2.117 1.553a4.94 4.94 0 0 0 1.626.3c.711 0 1.244-.205 1.357-.521.084-.24-.059-.593-.386-.944-.409-.443-1.061-.846-1.79-1.099a4.995 4.995 0 0 0-1.633-.301c-.712 0-1.244.206-1.356.523-.048.134-.026.3.065.489zm2.717-.276c.714.249 1.186.759 1.051 1.134-.133.38-.82.478-1.534.229-.71-.253-1.181-.762-1.047-1.137.129-.376.815-.479 1.53-.226zm6.827 6.057a.872.872 0 0 1 0 1.743.871.871 0 1 1 0-1.743zm2.444-6.974a.872.872 0 1 1 0 1.742.873.873 0 0 1-.874-.872c0-.479.391-.87.874-.87zm43.018-52.387c-.341 0-.678-.161-.888-.462a1.078 1.078 0 0 1 .263-1.505c5.108-3.576 11.826-8.345 11.826-8.345l1.261 1.762s-6.726 4.777-11.838 8.353c-.19.134-.408.197-.624.197zm13.605-7.273a1.1 1.1 0 0 1 1.533-.108c.453.392.501 1.076.109 1.53l-6.417 7.349a1.087 1.087 0 0 1-1.532.107 1.081 1.081 0 0 1-.105-1.529l6.412-7.349zm3.071 2.366l1.923 1.012c-.002 0-3.664 6.934-6.506 12.47a1.082 1.082 0 0 1-.967.589 1.08 1.08 0 0 1-.967-1.576c2.85-5.544 6.517-12.495 6.517-12.495zm3.542 1.588c.135-.58.712-.96 1.304-.806.585.139.946.72.809 1.305l-2.232 9.482a1.085 1.085 0 0 1-2.113-.496l2.232-9.485zm6.109 14.905a1.084 1.084 0 0 1-1.074 1.094h-.012a1.086 1.086 0 0 1-1.086-1.071c-.074-6.226-.113-14.248-.113-14.248l2.172-.008s.04 8.013.113 14.233z"/></svg>