<svg xmlns="http://www.w3.org/2000/svg" width="22" height="22" viewBox="0 0 22 22"><path fill-rule="evenodd" clip-rule="evenodd" fill="#29AAE2" d="M9.95 19.5a2.5 2.5 0 0 1-4.9 0H0v-1h5.05a2.5 2.5 0 0 1 4.9 0H22v1H9.95zm-2.45-2a1.5 1.5 0 1 0 0 3 1.5 1.5 0 0 0 0-3zm7-4a2.502 2.502 0 0 1-2.45-2H0v-1h12.05a2.5 2.5 0 0 1 4.899 0H22v1h-5.051a2.5 2.5 0 0 1-2.449 2zm0-4a1.5 1.5 0 1 0-.001 2.999A1.5 1.5 0 0 0 14.5 9.5zm-7-4a2.502 2.502 0 0 1-2.45-2H0v-1h5.05a2.5 2.5 0 0 1 4.9 0H22v1H9.95a2.502 2.502 0 0 1-2.45 2zm0-4a1.5 1.5 0 1 0-.001 2.999A1.5 1.5 0 0 0 7.5 1.5z"/></svg>