<svg xmlns="http://www.w3.org/2000/svg" width="19" height="26" viewBox="0 0 19 26"><path fill="#29AAE2" d="M9.5.959c4.714 0 8.549 3.874 8.549 8.636a8.69 8.69 0 0 1-1.149 4.318L9.5 24.081 2.098 13.913A8.697 8.697 0 0 1 .95 9.595C.95 4.833 4.786.959 9.5.959m0 11.994c1.833 0 3.324-1.506 3.324-3.358 0-1.851-1.491-3.357-3.324-3.357-1.834 0-3.326 1.506-3.326 3.357.001 1.852 1.493 3.358 3.326 3.358M9.5 0C4.253 0 0 4.297 0 9.595a9.61 9.61 0 0 0 1.276 4.798L9.5 26l8.224-11.607A9.608 9.608 0 0 0 19 9.595C19 4.297 14.746 0 9.5 0zm0 11.993a2.386 2.386 0 0 1-2.375-2.398c0-1.324 1.063-2.398 2.375-2.398 1.311 0 2.375 1.074 2.375 2.398A2.386 2.386 0 0 1 9.5 11.993z"/></svg>