<svg xmlns="http://www.w3.org/2000/svg" preserveAspectRatio="xMidYMid" width="60" height="69" viewBox="0 0 60 69"><defs><style>.cls-1{fill:#fff;fill-rule:evenodd}</style></defs><path d="M55.655 32.341c-11.261 1.555-28.674 3.839-39.169-4.309 9.469-.509 23.543-1.269 34.545-9.162l8.964 5.069s-2.299 4.599-4.34 8.402zm-16.787-5.057l-.742.223 1.115 4.106.737-.228-1.11-4.101zm1.112-.254l1.075 4.101 1.204-.341-1.113-4.097-1.166.337zm1.703-.455l1.11 4.07 1.424-.364-1.113-4.098-1.421.392zm7.686-4.666l.654 2.429-6.549 1.731 1.114 4.126 6.52-1.747.566 2.083 4.558-6.103-6.863-2.519zM.007 31.526V0h14.379v23.374l-6.664 8.152H.007zM42.3 67.001s-5.023 1.16-9.305 1.998c-8.339-7.666-21.162-19.59-21.501-32.819 6.409 6.934 15.938 17.283 29.071 20.722L42.3 67.001zM25.259 52.19l-2.482 3.479.658.423 2.477-3.452-.653-.45zm1.535 1.133l-2.447 3.446 1.027.682 2.444-3.455-1.024-.673zm1.456 1.01l-2.453 3.455 1.226.851 2.444-3.483-1.217-.823zm8.739 3.087l-1.452 2.048-5.494-3.913-2.506 3.455 5.49 3.902-1.251 1.759 7.63-.399-2.417-6.852zM14.274 31.695c8.789 3.521 21.897 8.743 35.229 6.205l5.949 8.403s-4.026 3.184-7.512 5.785c-10.864-3.357-27.596-8.606-33.666-20.393zm30.771 17.013l6.717-3.627-5.151-5.176-.454 2.492-6.637-1.167-.742 4.195 6.637 1.156-.37 2.127zm-6.919-3.401l.794-4.183-1.448-.227-.798 4.129 1.452.281zm-1.994-.391l.798-4.16-1.194-.2-.798 4.16 1.194.2zm-2.305-.455l.794-4.16-.766-.141-.794 4.184.766.117z" class="cls-1"/></svg>