<svg xmlns="http://www.w3.org/2000/svg" preserveAspectRatio="xMidYMid" width="34.969" height="82" viewBox="0 0 34.969 82"><defs><style>.cls-1{fill:#fff;fill-rule:evenodd}</style></defs><path d="M30.04 48.57c-2.855 0-4.934-2.011-4.934-4.898 0-2.676 2.377-4.528 4.934-4.528 2.561 0 4.943 1.852 4.943 4.528 0 2.887-2.086 4.898-4.943 4.898zm0-7.204c-1.382 0-2.507 1.112-2.507 2.332 0 1.538 1.116 2.651 2.507 2.651 1.392 0 2.541-1.113 2.541-2.651 0-1.22-1.149-2.332-2.541-2.332zm-16.473-3.523l4.647-16.265H8.786L17.623-.014h13.278l-9.91 15.156h10.812L13.567 37.843zM6.863 48.282l-.586-1.537H3.071l-.612 1.537H0l3.448-8.85h2.533l3.339 8.85H6.863zm-2.162-6.118l-.985 2.806h1.947l-.962-2.806zm13.086-2.732v4.98c0 1.112-.055 2.255-.935 3.105-.746.735-1.924 1.001-2.967 1.001-1.037 0-2.212-.266-2.937-1.001-.903-.85-.933-1.993-.933-3.105v-4.98h2.295v4.665c0 1.139.081 2.385 1.575 2.385 1.496 0 1.578-1.246 1.578-2.385v-4.665h2.324zm2.692 8.85v-6.916h-1.916v-1.934h6.163v1.934h-1.92v6.916h-2.327zm-9.208 1.512h12.363l-6.492 9.507h10.821L9.72 82.01l4.647-16.243h-9.45l6.354-15.973z" class="cls-1"/></svg>