<svg xmlns="http://www.w3.org/2000/svg" width="65" height="65"><defs><linearGradient id="a" gradientUnits="userSpaceOnUse" x1="18" y1="113" x2="131"><stop offset="0" stop-color="#00adef"/><stop offset="1" stop-color="#31ecbe"/></linearGradient></defs><path fill="url(#a)" d="M64.958 14.998a.988.988 0 0 1-1.679.612.972.972 0 0 1-.285-.783 11.82 11.82 0 0 0-3.41-9.399 11.81 11.81 0 0 0-9.402-3.408.978.978 0 0 1-.78-.287.987.987 0 0 1 .612-1.679 13.79 13.79 0 0 1 10.963 3.981 13.787 13.787 0 0 1 3.981 10.963zM55.789 27.58L19.25 64.119a2.977 2.977 0 0 1-2.118.877c-.8 0-1.552-.312-2.118-.877L.893 49.997a2.976 2.976 0 0 1-.877-2.118c0-.8.311-1.552.877-2.118L37.431 9.223c1.13-1.131 3.105-1.131 4.237 0l14.121 14.121a2.998 2.998 0 0 1 0 4.236zM2.305 47.173a.992.992 0 0 0-.292.706c0 .267.103.517.292.705l14.121 14.122a1.019 1.019 0 0 0 1.412 0l23.83-23.829-15.534-15.533L2.305 47.173zm52.072-22.417L40.256 10.635a.994.994 0 0 0-.706-.292.995.995 0 0 0-.707.292L27.546 21.932 43.08 37.465l11.297-11.297a1 1 0 0 0 0-1.412zm1.05-9.834a.99.99 0 0 1-.288-.783 3.924 3.924 0 0 0-4.267-4.266.995.995 0 0 1-.783-.288.966.966 0 0 1-.283-.612.983.983 0 0 1 .894-1.066 5.902 5.902 0 0 1 4.698 1.707 5.902 5.902 0 0 1 1.707 4.698.983.983 0 0 1-1.067.894.957.957 0 0 1-.611-.284zm1.367-6.704a7.87 7.87 0 0 0-6.267-2.272.99.99 0 0 1-1.066-.899.985.985 0 0 1 .898-1.067 9.842 9.842 0 0 1 10.672 10.672.983.983 0 0 1-1.68.612.99.99 0 0 1-.286-.78 7.874 7.874 0 0 0-2.271-6.266z"/></svg>