<svg xmlns="http://www.w3.org/2000/svg" width="62" height="68"><defs><linearGradient id="a" gradientUnits="userSpaceOnUse" x1="18" y1="113" x2="131"><stop offset="0" stop-color="#00adef"/><stop offset="1" stop-color="#31ecbe"/></linearGradient></defs><path fill="url(#a)" d="M61.821 56.584a2.615 2.615 0 0 1-1.342 1.497L40.16 67.803c-.274.13-.561.196-.857.196h-.001a1.991 1.991 0 0 1-1.624-.853 1.979 1.979 0 0 1-.245-1.818l2.497-7.069C20.567 47.484 21.044 26.157 21.663 19.81a1.523 1.523 0 0 1 1.519-1.382c.651 0 1.215.4 1.436 1.019 3.697 10.387 11.215 18.188 21.229 22.064l2.532-7.172a1.97 1.97 0 0 1 1.876-1.329c.773 0 1.46.436 1.793 1.141l9.669 20.419c.302.635.339 1.35.104 2.014zm-1.899-1.153l-9.67-20.422-3.201 9.069-.937-.335c-10.406-3.719-18.371-11.37-22.619-21.668-.366 7.816.858 25.709 18.12 34.824l.763.404-3.07 8.691 20.315-9.719a.622.622 0 0 0 .323-.361.627.627 0 0 0-.024-.483zm-5.935-26.653a1.584 1.584 0 0 1-1.493 1.035 1.58 1.58 0 0 1-1.456-.946l-1.718-3.848c-1.954.498-3.878.75-5.732.75h-.001c-6.582 0-12.537-3.171-17.22-9.168a1.314 1.314 0 0 1-.151-1.391c.312-.644 1.137-.931 1.777-.609 5.141 2.585 10.341 2.555 16.637-.081l-1.718-3.846a1.608 1.608 0 0 1 .115-1.529 1.611 1.611 0 0 1 1.909-.631l12.75 4.867c.495.189.886.56 1.103 1.045.217.485.234 1.027.045 1.524l-4.847 12.828zm-8.873-18.057l2.151 4.816-.907.409c-6.175 2.79-11.481 3.287-16.554 1.578 3.095 3.202 7.65 6.244 13.783 6.244h.001c1.932 0 3.956-.302 6.017-.898l.828-.24 2.031 4.548 4.512-11.938-11.862-4.519zM7.507 32.996c-4.133 0-7.495-3.278-7.495-7.306 0-2.373 1.146-4.543 3.096-5.917V4.287C3.108 1.923 5.081 0 7.507 0c2.425 0 4.398 1.923 4.398 4.287v15.486c1.95 1.374 3.096 3.544 3.096 5.917 0 4.028-3.362 7.306-7.494 7.306zm2.772-11.771a1.037 1.037 0 0 1-.515-.892v-1.342h-.397a1.058 1.058 0 0 1-1.071-1.044c0-.576.479-1.044 1.071-1.044h.397v-3.757h-.397a1.057 1.057 0 0 1-1.071-1.044c0-.576.479-1.043 1.071-1.043h.397V7.302h-.397a1.057 1.057 0 0 1-1.071-1.044c0-.576.479-1.043 1.071-1.043h.397v-.928c0-1.213-1.013-2.2-2.257-2.2-1.245 0-2.258.987-2.258 2.2v16.046c0 .365-.195.703-.515.892-1.616.956-2.581 2.625-2.581 4.465 0 2.878 2.402 5.218 5.354 5.218 2.951 0 5.353-2.34 5.353-5.218 0-1.84-.965-3.509-2.581-4.465z"/></svg>