<svg xmlns="http://www.w3.org/2000/svg" preserveAspectRatio="xMidYMid" width="47" height="69" viewBox="0 0 47 69"><defs><style>.cls-1{fill:#fff;fill-rule:evenodd}</style></defs><path d="M-.011 68.987V35.309l21.247.026V-.009h2.945v35.344l22.82-.026v33.678H-.011zm17.127-7.442h22.88v-4.692h-22.88v4.692zm-7.263 1.528c2.03 0 3.693-1.553 3.693-3.489s-1.663-3.518-3.693-3.518c-2.031 0-3.659 1.582-3.659 3.518 0 1.936 1.628 3.489 3.659 3.489zm31.57-23.214H5.594v11.893h35.829V39.859zm-24.137 8.74h-7.29v-5.211h7.29v5.211zm9.866 0h-7.291v-5.211h7.291v5.211zm9.865 0h-7.291v-5.211h7.291v5.211z" class="cls-1"/></svg>