<svg xmlns="http://www.w3.org/2000/svg" width="64" height="65"><defs><linearGradient id="a" gradientUnits="userSpaceOnUse" x1="18" y1="113" x2="131"><stop offset="0" stop-color="#00adef"/><stop offset="1" stop-color="#31ecbe"/></linearGradient></defs><path fill="url(#a)" d="M62.985 64.993h-9.372a1.001 1.001 0 0 1-1.007-.997V37.723c0-.213.069-.42.196-.592 3.593-4.846 6.053-10.409 7.313-16.535.096-.464.507-.798.986-.798h1.884c.557 0 1.007.447 1.007.998v43.2c0 .551-.45.997-1.007.997zm-1.006-43.199h-.063c-1.339 5.986-3.791 11.449-7.297 16.254v24.949h7.36V21.794zM49.831 64.993h-9.37a1.001 1.001 0 0 1-1.006-.997V48.377c0-.327.161-.633.431-.82 3.488-2.407 6.574-5.181 9.175-8.244a1.015 1.015 0 0 1 1.115-.295.998.998 0 0 1 .661.938v24.04c0 .551-.45.997-1.006.997zm-1.007-22.42a49.667 49.667 0 0 1-7.356 6.322v14.102h7.356V42.573zm-6.847-23.972c-1.36.819-2.741 1.217-4.222 1.217-1.066 0-2.014-.206-2.852-.389-.741-.162-1.507-.301-2.165-.269 3.148.662 6.272 2.234 8.357 4.303 4.692 4.653 4.741 12.176.111 16.77-1.965 1.949-4.427 3.024-6.932 3.024-2.941 0-5.68-1.487-7.148-3.881-1.758-2.869-1.222-5.279-.83-7.038.186-.839.336-1.511.278-2.182-.641 3.148-2.213 6.226-4.35 8.346a12.08 12.08 0 0 1-8.555 3.527c-3.165 0-6.131-1.213-8.354-3.417-2.271-2.252-3.331-5.062-2.986-7.91.306-2.521 1.746-4.785 3.851-6.056 1.359-.819 2.739-1.217 4.22-1.217 1.072 0 2.025.208 2.865.392.731.16 1.501.305 2.159.267-3.149-.66-6.275-2.233-8.362-4.304a11.888 11.888 0 0 1-3.553-8.4A11.573 11.573 0 0 1 6.95 3.015C8.917 1.064 11.38-.01 13.883-.01c2.941 0 5.679 1.487 7.147 3.881 1.758 2.868 1.222 5.278.831 7.038-.187.839-.337 1.51-.278 2.182.64-3.148 2.212-6.227 4.349-8.346a12.08 12.08 0 0 1 8.556-3.528c3.164 0 6.13 1.214 8.353 3.418 2.271 2.252 3.332 5.061 2.988 7.909-.308 2.523-1.748 4.787-3.852 6.057zm-.559-12.554c-1.842-1.827-4.303-2.833-6.93-2.833a10.077 10.077 0 0 0-7.133 2.942c-2.447 2.429-4.048 6.309-4.075 9.885a.998.998 0 0 1-.553.884 1.014 1.014 0 0 1-1.046-.084c-.583-.421-1.406-1.116-1.821-2.283-.537-1.511-.246-2.817.035-4.079.353-1.588.753-3.387-.585-5.57-1.105-1.803-3.184-2.923-5.427-2.923-1.966 0-3.923.867-5.509 2.44a9.603 9.603 0 0 0-2.852 6.944 9.912 9.912 0 0 0 2.963 7.003c2.408 2.388 6.409 4.019 9.957 4.059.377.004.721.217.889.551a.992.992 0 0 1-.088 1.037c-.423.572-1.12 1.379-2.289 1.788-1.229.43-2.769.26-4.112-.035-.822-.18-1.589-.348-2.442-.348-1.101 0-2.139.304-3.174.928-1.582.954-2.666 2.669-2.899 4.588-.27 2.227.586 4.449 2.412 6.259 1.842 1.827 4.303 2.833 6.93 2.833 2.684 0 5.217-1.045 7.132-2.943 2.448-2.428 4.048-6.307 4.076-9.884a.997.997 0 0 1 .553-.884 1.008 1.008 0 0 1 1.046.085c.583.422 1.407 1.117 1.821 2.282.535 1.511.258 2.758-.035 4.078-.354 1.589-.754 3.388.584 5.572 1.106 1.802 3.185 2.921 5.428 2.921 1.967 0 3.923-.866 5.509-2.439 3.846-3.815 3.796-10.071-.111-13.947-2.407-2.387-6.408-4.019-9.958-4.058a1.006 1.006 0 0 1-.888-.552.992.992 0 0 1 .087-1.036c.67-.908 1.398-1.477 2.289-1.788 1.232-.428 2.765-.259 4.111.035.831.18 1.594.347 2.442.347 1.101 0 2.14-.304 3.177-.928 1.58-.953 2.665-2.669 2.897-4.588.27-2.227-.586-4.45-2.411-6.259zM24.079 25.089c-.942 0-1.849-.364-2.488-.998a3.474 3.474 0 0 1-.001-4.934c1.329-1.319 3.647-1.318 4.975 0a3.473 3.473 0 0 1 .001 4.933c-.639.635-1.546.999-2.487.999zm1.062-4.521a1.494 1.494 0 0 0-1.062-.436 1.5 1.5 0 0 0-1.065.436 1.487 1.487 0 0 0 .001 2.112c.528.524 1.598.524 2.126 0a1.487 1.487 0 0 0 0-2.112zM11.007 57.826a.992.992 0 0 1 .382.783v5.387c0 .551-.45.997-1.006.997H1.011a1.001 1.001 0 0 1-1.006-.997v-3.739a1 1 0 0 1 .895-.992c1.637-.181 5.017-.633 9.251-1.628.301-.071.615 0 .856.189zm-1.63 2.035a81.68 81.68 0 0 1-7.36 1.283v1.853h7.36v-3.136zm4.532-2.653a80.897 80.897 0 0 0 9.253-2.979c.31-.12.66-.082.935.103a.996.996 0 0 1 .441.826v8.838c0 .551-.451.997-1.007.997h-9.369a1.001 1.001 0 0 1-1.006-.997v-5.822c0-.455.309-.853.753-.966zm1.26 5.789h7.356V56.61a83.62 83.62 0 0 1-7.356 2.332v4.055zm11.749-9.486c3.308-1.399 6.41-3.017 9.22-4.81a1.015 1.015 0 0 1 1.027-.037 1 1 0 0 1 .524.877v14.455c0 .551-.451.997-1.007.997h-9.368a1.002 1.002 0 0 1-1.007-.997V54.43a1 1 0 0 1 .611-.919zm1.402 9.486h7.356V51.335a65.15 65.15 0 0 1-7.356 3.75v7.912z"/></svg>