<svg xmlns="http://www.w3.org/2000/svg" preserveAspectRatio="xMidYMid" width="78" height="81" viewBox="0 0 78 81"><defs><style>.cls-1{fill:#fff;fill-rule:evenodd}</style></defs><path d="M75.211 58.088c-10.275 5.419-11.963 8.02-16.295 13.969-.766 8.327-1.189 8.843-2.723 8.857-2.363.011-2.5.054-6.243.1-4.259.088-4.68-.573-6.193-7.175-5.585 2.827-16.597.596-16.597.596s-.508 5.876-2.575 5.913c-4.967.128-5.714.209-10.219-.045-2.9-.601-3.664-9.633-3.664-9.633-17.53-14.805-8.227-36.027-8.227-36.027-4.642-5.227-1.615-8.319.038-9.045 2.059-.189 2.179 2.1 2.139 2.75-.041.65.403.65 1.575.685 10.287-8.395 32.921-6.411 41.758-6.145 6.78-8.738 16.218-4.96 17.065-4.387.283.725-.416 2.398-.416 2.398s.839-.131 3.073.792c1.257 2.511-3.492 8.189-3.492 8.189-.78 4.614 10.257 12.893 13.055 14.876 1.842 4.718-.219 10.666-2.059 13.332zM42.724 24.78l.04-.466-.489-.079a58.239 58.239 0 0 0-9.27-.725c-5.731 0-10.741.761-14.767 1.372l-1.195.182.116.528c.002.009.215.968.275 2.299l.025.553.581-.064c7.015-.78 12.465-1.158 16.66-1.158 3.155 0 5.181.205 7.14.402l.934.079-.12-.67c-.005-.018-.078-.457.07-2.253zm22.06 13.721c-.298 0-.541.919-.541 2.055 0 1.134.243 2.058.541 2.058.304 0 .545-.924.545-2.058 0-1.136-.241-2.055-.545-2.055zM34.7 26.192c-4.122 0-9.43.363-16.214 1.105a16.972 16.972 0 0 0-.163-1.387l.085-.014c3.989-.604 8.954-1.358 14.597-1.358 2.994 0 5.812.207 8.599.632a21.03 21.03 0 0 0-.058 1.39c-1.796-.181-3.861-.368-6.846-.368zm-4.557-11.713c-4.22 0-7.648-3.238-7.648-7.235 0-3.997 3.428-7.234 7.648-7.234 4.222 0 7.648 3.237 7.648 7.234s-3.426 7.235-7.648 7.235z" class="cls-1"/></svg>