<svg xmlns="http://www.w3.org/2000/svg" width="88" height="88" viewBox="0 0 88 88"><defs><linearGradient id="a" x1="0%" x2="61.566%" y1="0%" y2="78.801%"><stop offset="0%" stop-color="#00ADEF" stop-opacity=".8"/><stop offset="44%" stop-color="#1CD1DA" stop-opacity=".8"/><stop offset="100%" stop-color="#37F4C5" stop-opacity=".8"/></linearGradient></defs><path fill="url(#a)" d="M8 0h72a8 8 0 0 1 8 8v72a8 8 0 0 1-8 8H8a8 8 0 0 1-8-8V8a8 8 0 0 1 8-8z"/><path fill="#FFF" fill-rule="evenodd" d="M73.429 73.994V79h2.7v-5.006l3.859-5.435h-3.267L74.793 71.4l-1.959-2.843H69.6zm-9.368-3.358h.254c.886 0 1.876.173 1.876 1.311s-.99 1.3-1.876 1.3h-.254v-2.611zm2.672 4.1a2.835 2.835 0 0 0 2.3-2.959c0-2.218-1.56-3.214-3.637-3.214h-4.035V79h2.7l.029-4.01L66.645 79h3.379zm-13.066-3.87h.652a2.917 2.917 0 1 1-.024 5.832h-.629v-5.836zM50.974 79h3.832a5.221 5.221 0 1 0 0-10.441h-3.832V79zM38.4 52.605c-1.939-7.593-3.215-26.763-2.193-37.631a102.587 102.587 0 0 1-20.047 29.24c-8.206 8.219-14.283 24.4 2.527 29.211S40.348 60.229 38.4 52.605zm-3.271-11.517l.537.912a36.747 36.747 0 0 0-4.8 2.185l-.511-.88a39.931 39.931 0 0 1 4.774-2.217zm.45 4.066l.511.907c-4.085 1.285-2.78 1.484-6.753 3.012l-.515-.873c3.978-1.594 2.7-1.712 6.758-3.046zm.395 4.1l.515.907c-4.063 1.312-5.765 2.762-9.742 4.3l-.507-.882c3.977-1.567 5.679-2.995 9.734-4.329zm.37 3.867l.517.911c-4.065 1.3-7.639 3.785-11.614 5.316l-.511-.88c3.974-1.594 7.552-4.016 11.608-5.351zM24.708 70.636l-.508-.886c3.975-1.561 6.441-2.815 10.507-4.15l.511.911c-4.093 1.308-6.535 2.589-10.51 4.125zm-1.275-2.817l-.511-.88c3.967-1.593 9.454-4.239 13.539-5.574l.511.908c-4.087 1.314-9.572 4.013-13.54 5.546zm.762-4.383l-.511-.874c3.971-1.569 8.974-4.383 13.029-5.72l.517.906c-4.065 1.311-9.058 4.157-13.035 5.688zm48.38-21.811C70.647 34.032 69.344 14.866 70.394 4A103.276 103.276 0 0 1 50.35 33.209c-8.214 8.247-14.285 24.4 2.527 29.212S74.514 49.22 72.575 41.625zm-3.264-11.518l.515.884a36.722 36.722 0 0 0-4.8 2.22l-.511-.886a39.032 39.032 0 0 1 4.796-2.218zm.457 4.067l.511.884c-4.089 1.309-2.81 1.48-6.789 3.015l-.511-.884c3.976-1.562 2.697-1.708 6.79-3.016zm.4 4.1l.513.911c-4.089 1.277-5.763 2.756-9.736 4.292l-.515-.883c3.97-1.594 5.678-2.988 9.734-4.323zm.371 3.868l.511.911c-4.093 1.274-7.65 3.747-11.615 5.289l-.511-.888c3.968-1.562 7.546-3.981 11.611-5.315zM61.451 61.96l-.511-.878a33.468 33.468 0 0 1 4.85-1.85l.51.906a37.529 37.529 0 0 0-4.849 1.822zm-2.558-2.3l-.511-.911c3.975-1.563 6.417-2.789 10.506-4.119l.512.878c-4.086 1.305-6.532 2.587-10.507 4.151zm-1.281-2.842l-.538-.883c3.975-1.563 9.485-4.215 13.548-5.546l.512.911c-4.093 1.272-9.571 3.976-13.522 5.517zm.768-4.358l-.511-.884c3.977-1.588 8.97-4.377 13.035-5.712l.511.884c-4.089 1.309-9.058 4.178-13.035 5.712z"/></svg>