<svg xmlns="http://www.w3.org/2000/svg" width="63" height="63"><defs><linearGradient id="a" gradientUnits="userSpaceOnUse" x1="18" y1="113" x2="131"><stop offset="0" stop-color="#00adef"/><stop offset="1" stop-color="#31ecbe"/></linearGradient></defs><path fill="url(#a)" d="M31.501 62.992C14.135 62.992.007 48.864.007 31.499.007 14.132 14.135.002 31.501.002c17.367 0 31.496 14.13 31.496 31.497 0 17.365-14.129 31.493-31.496 31.493zm1.004-60.954v7.298a1.004 1.004 0 1 1-2.009 0V2.038C15.038 2.559 2.566 15.031 2.042 30.49h7.284a1.004 1.004 0 1 1 0 2.01H2.042c.519 15.46 12.993 27.935 28.454 28.456v-7.105a1.004 1.004 0 1 1 2.009 0v7.105C47.968 60.435 60.442 47.96 60.962 32.5H53.93a1.004 1.004 0 1 1 0-2.01h7.032C60.438 15.031 47.965 2.559 32.505 2.038zM50.41 22.643l-18.44 9.74a1.005 1.005 0 0 1-1.052-.069L16.752 22.227a1.004 1.004 0 0 1 1.166-1.637l13.661 9.727 17.893-9.451a1.004 1.004 0 1 1 .938 1.777zM20.733 37.539c.37.325 1.005 1.068 1.005 2.347 0 .375-.031.99-.421 1.802-.798 1.72-2.739 3.554-4.069 4.832h4.814v1.802h-7.67l.018-1.916.629-.583c.458-.419.908-.858 1.349-1.296.356-.356.712-.732 1.054-1.119 1.267-1.378 1.85-2.352 1.85-3.263 0-.16-.017-.567-.293-.937-.453-.632-1.33-.632-1.509-.632-1.039 0-1.802.421-2.659.922l-.18-2.01c.291-.128.601-.276.909-.373.373-.131 1.492-.421 2.693-.421.957 0 1.765.193 2.48.845zm9.612-.669v7.363h1.264v1.754h-1.264v2.335h-2.287v-2.335h-4.814v-1.833l4.182-7.284h2.919zm-2.221 7.363l.048-5.336-2.855 5.336h2.807zm11.28-7.36l-3.972 11.449h-1.799l3.972-11.449h1.799zm9.207 1.783l-4.037 9.666H42.06l4.251-9.666h-5.142v-1.783h7.442v1.783z"/></svg>