<svg xmlns="http://www.w3.org/2000/svg" width="51" height="69"><defs><linearGradient id="a" gradientUnits="userSpaceOnUse" x1="18" y1="113" x2="131"><stop offset="0" stop-color="#00adef"/><stop offset="1" stop-color="#31ecbe"/></linearGradient></defs><path fill="url(#a)" d="M50.002 69.008H.988a1 1 0 0 1-.997-1.003V1.014A1 1 0 0 1 .988.012h49.014c.551 0 .996.449.996 1.002v66.991a1 1 0 0 1-.996 1.003zm-.997-66.991H1.985v64.986h47.02V2.017zM9.825 21.739c2.898 0 5.256 2.373 5.256 5.29 0 2.93-2.358 5.314-5.256 5.314-2.915 0-5.287-2.384-5.287-5.314a5.295 5.295 0 0 1 5.287-5.29zm0 8.599c1.799 0 3.263-1.484 3.263-3.309 0-1.812-1.464-3.286-3.263-3.286a3.294 3.294 0 0 0-3.294 3.286 3.305 3.305 0 0 0 3.294 3.309zm0 7.134c2.898 0 5.256 2.373 5.256 5.29 0 2.93-2.358 5.314-5.256 5.314-2.915 0-5.287-2.384-5.287-5.314a5.295 5.295 0 0 1 5.287-5.29zm0 8.599c1.799 0 3.263-1.484 3.263-3.309 0-1.811-1.464-3.285-3.263-3.285a3.294 3.294 0 0 0-3.294 3.285 3.305 3.305 0 0 0 3.294 3.309zm8.637-24.332h25.755a1 1 0 0 1 .997 1.002v8.738c0 .438-.284.826-.702.957a.992.992 0 0 1-1.116-.39c-.001-.001-.554-.768-1.315-.768-.411 0-.862.222-1.341.659-.629.573-1.173.839-1.711.839-.974 0-1.407-.816-1.641-1.254l-.029-.055a5.62 5.62 0 0 0-.458.427c-.935.965-1.722 1.414-2.478 1.414-1.074 0-1.61-.853-1.93-1.363a.03.03 0 0 0-.005-.007c-.04.046-.085.1-.135.164-.475.602-1.217 1.401-2.164 1.401-1.001 0-1.519-.802-1.839-1.474-1.116.786-2.605 1.233-3.674 1.233-1.12 0-1.632-.474-1.864-.873-.225-.384-.385-1.037.127-1.96.025-.044.044-.084.06-.121-.372.1-.956.431-1.581 1.23-.887 1.141-1.617 1.65-2.363 1.65-.948 0-1.484-.82-1.582-1.581a1.1 1.1 0 0 1-.008-.128v-8.738a1 1 0 0 1 .997-1.002zm.996 9.028c.111-.121.242-.273.392-.467 1.013-1.294 2.23-2.036 3.343-2.036.709 0 1.3.315 1.624.863.204.348.458 1.076-.06 2.129.879-.033 2.308-.579 2.919-1.277.335-.392.728-.452.931-.452.828 0 1.156.758 1.396 1.311.066.154.174.403.27.569.111-.09.283-.254.519-.552.42-.533 1.004-1.145 1.788-1.145.866 0 1.307.7 1.598 1.164.088.14.233.37.316.441.011-.034.33-.15.98-.82.782-.808 1.411-1.169 2.038-1.169.97 0 1.402.814 1.635 1.251l.033.063a3.98 3.98 0 0 0 .221-.189c.858-.781 1.759-1.178 2.68-1.178.412 0 .794.083 1.14.215v-5.745H19.458v7.024zm-.996 6.705h25.755a1 1 0 0 1 .997 1.003v8.737a1 1 0 0 1-.702.957.993.993 0 0 1-1.116-.39c-.001-.001-.554-.767-1.314-.767-.412 0-.863.222-1.342.658-.629.574-1.173.84-1.711.84-.974 0-1.407-.816-1.641-1.255l-.029-.054a5.563 5.563 0 0 0-.458.426c-.935.965-1.722 1.415-2.478 1.415-1.074 0-1.61-.853-1.93-1.363l-.005-.008c-.04.046-.085.101-.135.164-.475.601-1.217 1.402-2.164 1.402-1.001 0-1.519-.803-1.839-1.475-1.116.786-2.605 1.234-3.674 1.234-1.12 0-1.632-.474-1.864-.873-.225-.385-.385-1.038.127-1.96.025-.044.044-.084.06-.121-.372.099-.956.43-1.581 1.229-.887 1.141-1.617 1.651-2.363 1.651-.948-.001-1.484-.821-1.582-1.582a1.113 1.113 0 0 1-.008-.128v-8.737a1 1 0 0 1 .997-1.003zm.996 9.028a7.14 7.14 0 0 0 .392-.466c1.013-1.294 2.23-2.036 3.343-2.036.709 0 1.3.314 1.624.863.205.348.458 1.075-.06 2.129.879-.033 2.308-.579 2.919-1.277.335-.392.728-.452.932-.452.827 0 1.155.757 1.395 1.311.066.154.174.403.27.568a3.46 3.46 0 0 0 .519-.551c.42-.534 1.004-1.145 1.788-1.145.867 0 1.307.7 1.598 1.164.088.14.233.37.316.441.011-.034.33-.15.98-.821.782-.808 1.411-1.168 2.038-1.168.97 0 1.402.813 1.634 1.25l.034.063a3.52 3.52 0 0 0 .221-.188c.858-.782 1.759-1.178 2.681-1.178.411 0 .793.082 1.139.215v-5.745H19.458V46.5zm24.759-28.425H6.216a1 1 0 0 1-.997-1.003V6.833a1 1 0 0 1 .997-1.003h38.001a1 1 0 0 1 .997 1.003v10.239a1 1 0 0 1-.997 1.003zm-.996-10.24H7.212v8.235h36.009V7.835z"/></svg>