<svg xmlns="http://www.w3.org/2000/svg" viewBox="0 0 21.51 21" width="88" height="88"><defs><style>.a{fill:#fff}.b{opacity:.5}</style></defs><path class="a" d="M6.29 20.11H6V3.83h.32zm1.36-1h-.32V2.75h.32zM4.87 7.16l3.98-2.97"/><path class="a" d="M4.782 7.033L8.765 4.06l.191.257L4.973 7.29zM4.8 9.51l4.05-2.99M4.9 9.63l-.19-.25 4.05-2.99.19.25L4.9 9.63zM4.78 11.85l4.07-3.01M4.88 11.98l-.19-.26 4.07-3.01.19.26-4.07 3.01zM4.8 14.13l4.05-2.94M4.9 14.26L4.71 14l4.05-2.94.19.26-4.05 2.94zM4.83 16.57l4.02-3.05M4.92 16.7l-.19-.25 4.03-3.06.19.25-4.03 3.06zM4.8 18.88l4.09-3.04M4.89 19.01l-.19-.26 4.09-3.04.19.26-4.09 3.04z"/><path class="a" d="M4.4 22V4.68l4.85-3.57v17.33zm.79-16.92v15.36L8.46 18V2.68z"/><path class="a" d="M6.81 7.74h4.12V4.71l3.75 6.79-3.75 6.75v-3.01H6.81v-7.5zM2.62 11.37a.37.37 0 0 1-.22-.07c-.25-.18-.22-.64.08-1.07s.73-.61 1-.44.22.64-.08 1.07a1 1 0 0 1-.78.51zM3.24 10a.82.82 0 0 0-.55.4c-.22.31-.25.64-.14.72s.38 0 .62-.38.24-.65.14-.72z"/><path class="a" d="M3.07 10.66c.11-.15.13-.32 0-.37s-.23 0-.33.17-.13.32 0 .38.23 0 .33-.17M3 11.57l-.2-.36.15-.09.2.36zm.87-1.16l-.41-.07v-.17l.41.07zM2.95 10l-.2-.36.15-.09.2.36zM1.46 19.93a1.45 1.45 0 0 1-.46-.09 1.13 1.13 0 0 1-.66-.51A.4.4 0 0 1 .3 19a.55.55 0 0 1 .56-.29 1.45 1.45 0 0 1 .48.09c.49.17.78.53.68.82a.55.55 0 0 1-.56.31zM.86 19c-.17 0-.3 0-.33.13a.16.16 0 0 0 0 .12.91.91 0 0 0 .51.38 1.19 1.19 0 0 0 .39.07c.17 0 .3-.05.33-.13s-.17-.37-.53-.5A1.2 1.2 0 0 0 .86 19z"/><path class="a" d="M1.09 19.49c.17.06.34 0 .37-.06s-.08-.22-.25-.28-.34 0-.37.06.08.22.25.28M1.55 20.19v-.41h.17v.41zm-.89-1.32v-.41h.17v.41zM2 9.51A.68.68 0 0 1 1.35 9c-.08-.45-.36-.5-.47-.5a.43.43 0 0 1 0-.86 1.76 1.76 0 0 1 .42 0A1.77 1.77 0 0 1 2.38 8a1.07 1.07 0 0 1 .38.76.73.73 0 0 1-.76.75zM.87 8.26c.14 0 .6.05.72.7a.44.44 0 0 0 .44.3.48.48 0 0 0 .48-.48.83.83 0 0 0-.29-.56A1.52 1.52 0 0 0 .87 7.9a.18.18 0 0 0 0 .36z"/><path class="a" d="M1.34 8.32a.2.2 0 1 0-.2-.2.2.2 0 0 0 .2.2M1.81 8.66a.2.2 0 1 0-.2-.2.2.2 0 0 0 .2.2M2.16 9a.2.2 0 1 0-.2-.2.2.2 0 0 0 .2.2M1.08 15.08a.57.57 0 0 1 0-1.15c0-.05.14-.22 0-.86a.42.42 0 0 1 .1-.34.53.53 0 0 1 .4-.18.5.5 0 0 1 .5.5.77.77 0 0 0 .1.51.33.33 0 0 0 .35.06h.1a.53.53 0 0 1 .47.55.54.54 0 0 1-.53.54 1.35 1.35 0 0 1-.57-.16c-.31-.17-.38-.13-.39-.12a.09.09 0 0 0 0 .05.58.58 0 0 1-.53.6zm0-.9a.32.32 0 1 0 .33.32.32.32 0 0 1 .06-.23.29.29 0 0 1 .23-.1 1.07 1.07 0 0 1 .47.16 1.11 1.11 0 0 0 .47.11.29.29 0 0 0 .28-.29c0-.16-.13-.32-.25-.29a.57.57 0 0 1-.61-.13A1 1 0 0 1 1.9 13a.25.25 0 0 0-.25-.23.28.28 0 0 0-.21.09.17.17 0 0 0 0 .14c.08.54.06.89-.08 1a.27.27 0 0 1-.21.1z"/><path class="a" d="M1.65 13.25a.17.17 0 1 0-.17-.17.17.17 0 0 0 .17.17M2.61 14.33a.17.17 0 1 0-.17-.17.17.17 0 0 0 .17.17M1.08 14.68a.17.17 0 1 0-.17-.17.17.17 0 0 0 .17.17M3 14.88l-.2-.36.2-.09.2.36zm-2.21-.82l-.15-.39.16-.06.2.39zM1.27 13l-.34-.23.1-.15.34.23zM.91 10.34a.21.21 0 1 0-.21-.21.21.21 0 0 0 .21.21M2.86 21.06a.21.21 0 1 0-.21-.21.21.21 0 0 0 .21.21M.38 12.16a.21.21 0 1 0-.21-.21.21.21 0 0 0 .21.21M3.57 8.83a.21.21 0 1 0-.21-.21.21.21 0 0 0 .21.21M3.57 6.8a.21.21 0 1 0-.21-.21.21.21 0 0 0 .21.21M1.55 6a.21.21 0 1 0-.21-.21.21.21 0 0 0 .21.21M.61 16.61a.21.21 0 1 0-.21-.21.21.21 0 0 0 .21.21M2.69 17.71a.85.85 0 0 1-.34-.06.73.73 0 0 1-.38-1 .68.68 0 0 1 .73-.44h.21a.43.43 0 0 0 .45-.21.43.43 0 1 1 .8.31 1.82 1.82 0 0 1-1 1.3 1.16 1.16 0 0 1-.47.1zm-.1-1.23a.47.47 0 0 0-.39.3.48.48 0 0 0 .25.63.83.83 0 0 0 .63 0 1.59 1.59 0 0 0 .82-1.13.18.18 0 0 0-.07-.28.18.18 0 0 0-.23.09.69.69 0 0 1-.68.46h-.26z"/><path class="a" d="M3.34 16.51a.2.2 0 1 0 .26-.11.2.2 0 0 0-.26.11M2.85 16.81a.2.2 0 0 0 .11.27.2.2 0 0 0 .26-.08.2.2 0 1 0-.37-.16M2.35 17a.2.2 0 1 0 .26-.11.2.2 0 0 0-.26.11M3.46 19.35a.21.21 0 1 0-.21-.21.21.21 0 0 0 .21.21M20 9.21a.26.26 0 0 1-.25-.21V5.51h.53v3.48a.26.26 0 0 1-.26.27zm-3.42-.86a.26.26 0 0 1-.23-.35c.69-1.36 1.58-3.06 1.58-3.06l.47.25s-.89 1.7-1.58 3.05a.26.26 0 0 1-.23.11zm1.92-.41h-.06a.26.26 0 0 1-.2-.32l.54-2.32a.26.26 0 1 1 .51.12l-.54 2.32a.26.26 0 0 1-.24.2zm2.74-1.06a.26.26 0 0 1-.26-.2l-.33-1.27a.27.27 0 0 1 .19-.33c.14 0 .2-.05.3.2a.25.25 0 0 1 0 .09c.07.22.17.59.33 1.2a.26.26 0 0 1-.19.32zm-5.41-.31a.26.26 0 0 1-.2-.44l1.55-1.8a.26.26 0 0 1 .4.35L16 6.47a.26.26 0 0 1-.17.1zm-1.94-.46a.26.26 0 0 1-.15-.48l2.87-2 .31.43-2.92 2a.26.26 0 0 1-.11.05zm6-1.18A3.38 3.38 0 0 1 16.88.15a.26.26 0 0 1 .48.22 2.85 2.85 0 0 0 2.58 4 2.8 2.8 0 0 0 1.18-.26.26.26 0 1 1 .22.48 3.32 3.32 0 0 1-1.4.34zm-5.83-.84a.26.26 0 0 1-.1-.51l2.21-.86a.26.26 0 1 1 .19.49l-2.21.86zm-1.29-1.37a.26.26 0 0 1 0-.53l3.32-.41.06.52-3.31.41zm3.31-1.35l-2.38-.28a.26.26 0 1 1 .06-.52l2.35.27a.26.26 0 0 1 0 .53z"/><path class="b a" d="M0 7.74h6.85v7.5H0z"/></svg>