<svg xmlns="http://www.w3.org/2000/svg" width="30" height="34"><defs><linearGradient id="a" x1="0%" x2="61.566%" y1="0%" y2="78.801%"><stop offset="0" stop-color="#0c90c2"/><stop offset="1" stop-color="#2dd2ab"/></linearGradient></defs><path fill="url(#a)" d="M29.316 13.34a.646.646 0 0 1-.178-.024l-4.483-1.231-8.289 4.909 8.289 4.908 4.483-1.231a.682.682 0 0 1 .837.497.701.701 0 0 1-.483.857l-3.161.87 2.773 1.642a.711.711 0 0 1 .251.957.68.68 0 0 1-.934.257l-2.774-1.643.847 3.242a.703.703 0 0 1-.483.86.687.687 0 0 1-.837-.496l-1.201-4.597-8.289-4.909v9.821l3.28 3.363a.717.717 0 0 1 0 .994.68.68 0 0 1-.483.204.681.681 0 0 1-.484-.204l-2.313-2.376v3.283a.692.692 0 0 1-.684.702.692.692 0 0 1-.683-.702v-3.284l-2.314 2.377c-.267.27-.7.27-.967 0a.717.717 0 0 1 0-.994l3.281-3.364V18.21l-8.291 4.909-1.201 4.595a.686.686 0 0 1-.837.496.704.704 0 0 1-.483-.86l.847-3.24-2.773 1.642a.679.679 0 0 1-.934-.258.711.711 0 0 1 .251-.957l2.773-1.642-3.161-.87a.702.702 0 0 1-.483-.858.68.68 0 0 1 .837-.496l4.483 1.231 8.288-4.907-8.291-4.91-4.48 1.231a.685.685 0 0 1-.837-.496.704.704 0 0 1 .483-.859l3.16-.867L.896 9.452a.713.713 0 0 1-.251-.959.675.675 0 0 1 .934-.256L4.353 9.88l-.847-3.242a.703.703 0 0 1 .483-.86c.364-.1.739.122.837.495l1.201 4.598 8.289 4.91V5.962l-3.28-3.365a.713.713 0 0 1 0-.991.67.67 0 0 1 .967 0l2.313 2.373V.694c0-.386.306-.699.684-.699.377 0 .683.313.683.699V3.98l2.314-2.374a.67.67 0 0 1 .967 0 .713.713 0 0 1 0 .991l-3.281 3.367v9.817l8.291-4.911 1.201-4.597a.683.683 0 0 1 .837-.495.703.703 0 0 1 .483.86l-.847 3.24 2.772-1.642a.674.674 0 0 1 .934.257.712.712 0 0 1-.25.958l-2.775 1.643 3.163.867a.705.705 0 0 1 .483.859.684.684 0 0 1-.659.52z"/></svg>