<svg xmlns="http://www.w3.org/2000/svg" preserveAspectRatio="xMidYMid" width="72.938" height="72.97" viewBox="0 0 72.938 72.97"><defs><style>.cls-1{fill:#fff;fill-rule:evenodd}</style></defs><path d="M27.075 5.973a3.75 3.75 0 0 1 1.052-.895c.53-.306 1.168-.534 1.911-.683 1.347-.265 2.489-.146 3.433.365.941.508 1.53 1.359 1.765 2.553.235 1.179.015 2.179-.653 3.008-.671.828-1.675 1.373-3.019 1.638-1.362.269-2.504.153-3.437-.351-.933-.507-1.519-1.343-1.75-2.504-.146-.742-.131-1.399.048-1.959.131-.414.351-.806.65-1.172zm1.194 2.705c.164.83.53 1.407 1.093 1.744.56.332 1.209.425 1.948.279.739-.145 1.299-.481 1.691-1 .388-.515.496-1.198.328-2.048-.168-.84-.522-1.422-1.063-1.743-.541-.321-1.194-.407-1.956-.258-.761.153-1.332.485-1.716.993-.385.511-.493 1.19-.325 2.033zm10.8 4.24l-1.523-.369.68-2.81.765.183c.526-.526.947-1.187 1.265-1.975.317-.791.627-1.81.929-3.064l.183-.761L47.63 5.63l-1.456 6.023.803.194-.679 2.814-1.523-.366.381-1.582-5.706-1.377-.381 1.582zm5.277-1.701l1.157-4.796-2.687-.649c-.53 2.191-1.165 3.728-1.907 4.612l3.437.833zm5.713 3.892l-1.567-1.232 7.475-3.612 1.571 1.239-1.694 8.161-1.609-1.265.411-1.832-2.93-2.303-1.657.844zm4.897.089l.701-2.966-2.705 1.395 2.004 1.571zm-18.311-1.403c9.498 0 13.592 6.083 13.592 11.696 0 4.986-2.262 8.389-4.568 9.333v.07l-14.114.001v-4.314h4.511c1.471 0 4.882-.104 4.882-3.464 0-1.47-1.049-4.036-4.882-4.036-3.056 0-5.213.794-6.892 3.164l-7.542-4.728c2.776-4.203 7.441-7.722 15.013-7.722zm-15.086 2.236l-3.717-6.472 5.475-3.145.63 1.101-3.843 2.205 3.082 5.374-1.627.937zM71.88 45.3c-3.949 15.886-18.302 27.66-35.408 27.66-20.149 0-36.483-16.334-36.483-36.482 0-18.339 13.535-33.516 31.153-36.095.29.496.594.951.886 1.44C15.398 3.99 2.442 17.85 1.75 34.899l39.338-.005-9.367.001v3.243h3.623c3.564 0 6.244 1.31 6.244 4.77 0 3.358-2.728 5.194-5.773 5.194-1.605 0-4.695-.421-7.703-3.795l-6.124 6.561c5.18 5.519 11.084 6.519 14.401 6.519 14.17 0 15.432-8.549 15.432-12.065 0-5.508-1.892-9.128-5.986-10.389v-.039l25.537-.002c-.757-18.57-16.051-33.397-34.811-33.397-1.54 0-3.045.134-4.532.328-.291-.488-.594-.942-.883-1.436a36.789 36.789 0 0 1 5.326-.389c20.148 0 36.479 16.335 36.479 36.483 0 3.038-.37 5.994-1.071 8.819zm-59.554-7.763l-7.389 1.045.261 1.862 6.136-.865.619 4.388 1.258-.175-.885-6.255zm2.65 9.998l-8.289.47.974 1.744 1.852-.154 1.821 3.258-1.083 1.526 1.001 1.788 4.702-6.885-.978-1.747zM24.1 58.57a2.503 2.503 0 0 0-.63-1.388c-.232-.273-.806-.75-1.721-1.433l-2.41-1.817-4.49 5.959 1.5 1.131 1.695-2.246.977.738c.683.511 1.224.874 1.624 1.086.298.157.63.258.992.306.362.053.724.015 1.075-.112.355-.123.672-.369.948-.734.351-.475.504-.971.44-1.49zm6.964 1.628l-1.929-.527-5.467 6.254 1.929.519 1.187-1.429 3.601.978.336 1.844 1.974.533-1.631-8.172zm13.036-.333l-1.859.306.478 2.9-3.65.604-.481-2.903-1.852.306 1.213 7.363 1.855-.306-.53-3.209 3.654-.605.53 3.217 1.854-.31-1.212-7.363zm9.135-3.791l-.683-1.068-6.239 4 .686 1.068 2.329-1.496 3.34 5.221 1.586-1.019-3.34-5.217 2.321-1.489zm4.15-7.307l1.978 5.903-4.101-2.791-.989 1.456 6.165 4.201 1.059-1.556-1.914-5.859 4.031 2.755.996-1.46-6.169-4.206-1.056 1.557zm3.411-11.655l-.657 3.911c-.157.918-.213 1.62-.172 2.105.042.481.213.892.512 1.235.298.34.671.549 1.123.623.515.086.985-.026 1.422-.346.433-.318.776-.896 1.026-1.732.112.426.265.791.448 1.093.187.302.526.72 1.019 1.257l1.246 1.37.373-2.224-1.38-1.612c-.598-.698-.948-1.183-1.045-1.448-.101-.265-.101-.694 0-1.276l.063-.377 3.071.515.31-1.859-7.359-1.235zm2.258 5.273a1.143 1.143 0 0 1-.388.568c-.183.138-.396.182-.654.141a.808.808 0 0 1-.559-.354 1.087 1.087 0 0 1-.168-.646c.011-.239.078-.728.205-1.467l.243-1.451 1.862.313-.232 1.378c-.13.768-.235 1.272-.309 1.518zM29.62 61.604l.515 3.008-2.459-.668 1.944-2.34zm-8.042-2.359a1.249 1.249 0 0 1-.691-.059c-.246-.09-.668-.358-1.257-.802l-.825-.62 1.272-1.694.728.549c.541.406.892.693 1.053.858.216.216.35.459.406.72a.85.85 0 0 1-.168.713.85.85 0 0 1-.518.335zm-7.643-10.012l-1.792 2.471-1.242-2.22 3.034-.251z" class="cls-1"/></svg>