<svg xmlns="http://www.w3.org/2000/svg" preserveAspectRatio="xMidYMid" width="70.031" height="73" viewBox="0 0 70.031 73"><defs><style>.cls-1{fill:#fff;fill-rule:evenodd}</style></defs><path d="M69.13 50.069c-.363.151-8.948 3.688-16.084 3.688-6.995 0-12.534-3.382-13.157-3.777-.571-.31-8.168-4.333-16.233-4.333-8.329 0-15.173 4.268-15.241 4.31a1.435 1.435 0 0 1-1.978-.442 1.429 1.429 0 0 1 .443-1.975c.308-.195 7.624-4.756 16.776-4.756 9.11 0 17.32 4.522 17.664 4.715l.085.051c.049.032 5.248 3.345 11.641 3.345 6.568 0 14.897-3.433 14.981-3.468a1.432 1.432 0 1 1 1.103 2.642zm0-10.762c-.363.15-8.948 3.688-16.084 3.688-6.994 0-12.533-3.382-13.157-3.778-.571-.309-8.168-4.332-16.233-4.332-8.33 0-15.173 4.267-15.242 4.309a1.432 1.432 0 1 1-1.533-2.418c.307-.194 7.623-4.755 16.775-4.755 9.11 0 17.32 4.523 17.664 4.715l.085.051c.05.032 5.248 3.346 11.641 3.346 6.568 0 14.897-3.434 14.981-3.469a1.43 1.43 0 1 1 1.103 2.643zm0-10.762c-.363.15-8.948 3.688-16.084 3.688-6.994 0-12.533-3.382-13.157-3.778-.571-.31-8.168-4.333-16.233-4.333-8.33 0-15.173 4.267-15.242 4.311a1.434 1.434 0 0 1-1.977-.444 1.429 1.429 0 0 1 .444-1.975c.307-.194 7.623-4.755 16.775-4.755 9.11 0 17.32 4.522 17.664 4.715l.085.05c.05.032 5.248 3.346 11.641 3.346 6.568 0 14.897-3.433 14.981-3.468a1.432 1.432 0 1 1 1.103 2.643zm0-10.763c-.363.151-8.948 3.689-16.084 3.689-6.994 0-12.532-3.382-13.157-3.779-.571-.309-8.168-4.332-16.233-4.332-8.296 0-15.174 4.268-15.243 4.311a1.437 1.437 0 0 1-1.977-.446 1.43 1.43 0 0 1 .445-1.974c.307-.194 7.623-4.754 16.775-4.754 9.11 0 17.32 4.522 17.664 4.714l.085.051c.049.032 5.248 3.345 11.641 3.345 6.556 0 14.898-3.433 14.982-3.468a1.432 1.432 0 0 1 1.102 2.643zM36.56 2.863H2.867v67.275H36.56v-6.203h2.867V73H0V0h39.427v10.736H36.56V2.863zM8.413 60.72a1.434 1.434 0 0 1-1.977-.446 1.43 1.43 0 0 1 .445-1.973c.307-.194 7.623-4.754 16.775-4.754 9.11 0 17.32 4.521 17.664 4.714l.085.05c.05.033 5.248 3.348 11.641 3.348 6.555 0 14.897-3.435 14.981-3.47a1.432 1.432 0 1 1 1.103 2.642c-.363.151-8.948 3.69-16.084 3.69-6.994 0-12.533-3.383-13.157-3.78-.573-.31-8.168-4.332-16.233-4.332-8.296 0-15.174 4.269-15.243 4.311z" class="cls-1"/></svg>