<svg xmlns="http://www.w3.org/2000/svg" width="54" height="53"><defs><linearGradient id="a" gradientUnits="userSpaceOnUse" x1="18" y1="113" x2="131"><stop offset="0" stop-color="#00adef"/><stop offset="1" stop-color="#31ecbe"/></linearGradient></defs><path fill="url(#a)" d="M42.563 25.938H11.415c-5.152 0-9.343-4.191-9.343-9.342 0-5.152 4.191-9.343 9.343-9.343h14.534v4.151c0 .573.467 1.04 1.04 1.04h15.574a1.04 1.04 0 0 0 1.039-1.04V7.253h9.343c.573 0 1.04-.467 1.04-1.04s-.467-1.04-1.04-1.04h-9.343V1.022a1.04 1.04 0 0 0-1.039-1.04H26.989c-.573 0-1.04.467-1.04 1.04v4.151H11.415c-6.298 0-11.422 5.124-11.422 11.423 0 6.298 5.124 11.422 11.422 11.422h31.148c5.151 0 9.342 4.192 9.342 9.343s-4.191 9.342-9.342 9.342H28.028v-4.152a1.04 1.04 0 0 0-1.039-1.039H11.415a1.04 1.04 0 0 0-1.039 1.039v4.152H1.033c-.573 0-1.04.467-1.04 1.04s.467 1.04 1.04 1.04h9.343v4.152a1.04 1.04 0 0 0 1.039 1.039h15.574a1.04 1.04 0 0 0 1.039-1.039v-4.152h14.535c6.298 0 11.422-5.125 11.422-11.422 0-6.299-5.124-11.423-11.422-11.423zM27.813 2.607c0-.341.276-.617.617-.617h12.466c.341 0 .618.276.618.617v6.965a.618.618 0 0 1-.618.617H28.43a.617.617 0 0 1-.617-.617V2.607zm-1.778 48.464a.617.617 0 0 1-.617.617H12.952a.617.617 0 0 1-.617-.617v-6.965c0-.341.276-.617.617-.617h12.466c.341 0 .617.276.617.617v6.965z"/></svg>