<svg xmlns="http://www.w3.org/2000/svg" preserveAspectRatio="xMidYMid" width="74" height="75" viewBox="0 0 74 75"><defs><style>.cls-1{fill:#fff;fill-rule:evenodd}</style></defs><path d="M70.929 37.434l-3.626-3.356v36.373h4.533v4.554H2.148v-4.554h4.534V33.768l-3.65 3.304-3.033-3.386L37.194.012l36.807 34.072-3.072 3.35zm-8.164-7.555L37.163 6.176 11.057 29.809h.163v40.642h51.545V29.879zM36.988 26.39c11.19 0 20.293 9.145 20.293 20.384s-9.103 20.385-20.293 20.385c-11.185 0-20.288-9.146-20.288-20.385S25.803 26.39 36.988 26.39zm0 37.729c1.195 0 2.362-.125 3.491-.359l.008-15.419c0-1.53-1.303-2.126-2.525-2.173a2.447 2.447 0 0 0-1.73.676c-.566.549-.779 1.21-.779 1.497v5.729a1.009 1.009 0 1 1-1.788.643c-.582-.707-1.114-1.019-2.723-.927-1.462.074-2.568 1.163-2.568 2.53l-.035 5.381c2.556 1.501 5.485 2.422 8.649 2.422zM26.33 60.314l.027-4.004c0-2.46 1.928-4.42 4.484-4.55.954-.043 1.811.004 2.595.313v-3.732c0-.974.55-2.136 1.4-2.958.888-.857 2.009-1.292 3.203-1.241 2.63.103 4.465 1.83 4.465 4.199l-.008 14.79c6.814-2.324 11.759-8.739 11.759-16.357 0-9.564-7.745-17.345-17.267-17.345-9.517 0-17.263 7.781-17.263 17.345 0 5.504 2.614 10.361 6.605 13.54zm7.97-20.345a1.004 1.004 0 0 1 1.424.066 1.015 1.015 0 0 1-.066 1.43c-1.187 1.09-3.541 1.766-6.14 1.766-2.757 0-5.174-.741-6.306-1.931a1.016 1.016 0 0 1 .031-1.432 1.007 1.007 0 0 1 1.427.033c.597.627 2.37 1.303 4.848 1.303 2.37 0 4.112-.621 4.782-1.235zm5.43.043c.598.629 2.374 1.307 4.852 1.307 2.374 0 4.112-.622 4.783-1.235a1.007 1.007 0 0 1 1.423.064 1.017 1.017 0 0 1-.066 1.432c-1.183 1.09-3.537 1.765-6.14 1.765-2.757 0-5.173-.74-6.31-1.93a1.019 1.019 0 0 1 .031-1.434 1.012 1.012 0 0 1 1.427.031z" class="cls-1"/></svg>