<svg xmlns="http://www.w3.org/2000/svg" width="65" height="65"><defs><linearGradient id="a" gradientUnits="userSpaceOnUse" x1="18" y1="113" x2="131"><stop offset="0" stop-color="#00adef"/><stop offset="1" stop-color="#31ecbe"/></linearGradient></defs><path fill="url(#a)" d="M64.989 14.998a.988.988 0 0 1-1.68.612.972.972 0 0 1-.285-.783 11.816 11.816 0 0 0-3.412-9.399 11.818 11.818 0 0 0-9.406-3.408.98.98 0 0 1-.781-.287.986.986 0 0 1 .613-1.679 13.8 13.8 0 0 1 10.968 3.981 13.785 13.785 0 0 1 3.983 10.963zM55.815 27.58L19.259 64.119a2.98 2.98 0 0 1-2.119.877c-.8 0-1.553-.312-2.119-.877L.893 49.997a2.972 2.972 0 0 1-.878-2.118c0-.8.312-1.552.878-2.118L37.449 9.223c1.131-1.131 3.106-1.131 4.239 0l14.127 14.121a2.997 2.997 0 0 1 0 4.236zM2.306 47.173a.993.993 0 0 0-.293.706.99.99 0 0 0 .292.705l14.129 14.122a1.019 1.019 0 0 0 1.412 0l23.842-23.829-15.541-15.533L2.306 47.173zm52.097-22.417L40.275 10.635a.994.994 0 0 0-.706-.292.995.995 0 0 0-.707.292L27.559 21.932 43.1 37.465l11.303-11.297a1 1 0 0 0 0-1.412zM27.991 37.392l.356.772a.076.076 0 0 1-.015.086.076.076 0 0 1-.086.015l-.772-.356a2.354 2.354 0 0 0-1.97 0l-.772.356a.076.076 0 0 1-.086-.015.075.075 0 0 1-.015-.086l.356-.772a2.352 2.352 0 0 0 0-1.969l-.356-.771a.075.075 0 0 1 .015-.086.075.075 0 0 1 .086-.015l.772.355a2.354 2.354 0 0 0 1.97 0l.772-.355a.075.075 0 0 1 .086.015.075.075 0 0 1 .015.086l-.356.771a2.352 2.352 0 0 0 0 1.969zm-1.626 5.523l1.135-.523a.112.112 0 1 1 .149.148l-.523 1.136a3.458 3.458 0 0 0 0 2.897l.524 1.135a.115.115 0 0 1-.023.127.11.11 0 0 1-.126.022l-1.137-.523a3.46 3.46 0 0 0-2.898 0l-1.136.523a.111.111 0 0 1-.126-.022.111.111 0 0 1-.023-.127l.524-1.135a3.458 3.458 0 0 0 0-2.897l-.524-1.136a.11.11 0 0 1 .023-.126.111.111 0 0 1 .126-.022l1.136.523c.92.424 1.979.424 2.899 0zm-7.814 3.073a.113.113 0 0 1-.022.127.113.113 0 0 1-.127.022l-1.136-.524a3.457 3.457 0 0 0-2.898.001l-1.136.523a.113.113 0 0 1-.127-.022.113.113 0 0 1-.022-.127l.524-1.135a3.458 3.458 0 0 0 0-2.897l-.524-1.136a.112.112 0 0 1 .022-.126.113.113 0 0 1 .127-.023l1.136.524a3.46 3.46 0 0 0 2.898 0l1.136-.524a.113.113 0 0 1 .127.023.112.112 0 0 1 .022.126l-.523 1.136a3.448 3.448 0 0 0 0 2.896l.523 1.136zm36.902-31.066a.992.992 0 0 1-.288-.783 3.926 3.926 0 0 0-4.268-4.266.995.995 0 0 1-.784-.288.984.984 0 0 1 .611-1.678 5.905 5.905 0 0 1 6.408 6.405.983.983 0 0 1-1.067.894.962.962 0 0 1-.612-.284zm1.368-6.704a7.874 7.874 0 0 0-6.27-2.272.987.987 0 0 1-.168-1.966A9.842 9.842 0 0 1 61.06 14.652a.983.983 0 0 1-1.68.612.988.988 0 0 1-.287-.78 7.872 7.872 0 0 0-2.272-6.266z"/></svg>