<svg xmlns="http://www.w3.org/2000/svg" width="59" height="63"><defs><linearGradient id="a" gradientUnits="userSpaceOnUse" x1="18" y1="113" x2="131"><stop offset="0" stop-color="#00adef"/><stop offset="1" stop-color="#31ecbe"/></linearGradient></defs><path fill="url(#a)" d="M54.351 6.422H50.94V4.449h.403c2.725 0 3.452-1.41 3.512-2.476h2.329v14.359h-2.833v-9.91zm4.648 24.529l-10.541 8.834-.109-3.974a35.228 35.228 0 0 1-8.362-.479c-6.887-1.228-10.508-3.549-12.904-5.085l-3.132-2.007 3.714.161c6.411.277 16.8-.227 20.215-.392l.279-.014-.092-4.401 10.932 7.357zm-11.022-.939c-2.816.136-10.364.508-16.544.474 2.109 1.081 4.894 2.156 8.904 2.871 4.009.715 7.073.509 8.72.399l1.234-.081.053 1.915 5.326-4.464-5.523-3.717.052 2.54-1.016.008c-.105.001-.532.022-1.206.055zM0 22.612V-.002h34.034v21.085l-.102 1.529H0zm2.001-2.006h29.98L32 20l.006-3H2.001v3.606zm0-5.606h30.008l.006-3H2.001v3zm0-7.081V10h30.018l.004-2.201.002-.799H2.001v.919zm0-5.916V5h30.027l.006-2.997H2.001zm12.983 55.291c2.59-1.878 3.623-2.606 3.623-4.225 0-.949-.608-2.041-1.986-2.041-1.983 0-2.043 1.637-2.062 2.688h-2.735c0-4.673 3.399-5.083 4.677-5.083 2.754 0 4.941 1.622 4.941 4.537 0 2.468-1.602 3.717-2.996 4.667-1.904 1.337-2.899 1.984-3.223 2.65h6.238v2.505h-9.797c.1-1.675.22-3.436 3.32-5.698zm8.911-23.055c3.215 3.056 20.543 13.904 24.426 16.284l3.32-4.716 5.637 16.115-17.761.933 2.914-4.128c-.597-.353-1.26-.76-1.985-1.242-9.394-6.232-15.173-13.285-18.188-22.197L20.96 31.45l2.935 2.789zM41.55 55.813a45.922 45.922 0 0 0 2.825 1.722l.962.546-1.803 2.555 10.972-.577-3.469-9.916-2.075 2.946-.734-.299c-.749-.303-15.779-9.704-22.743-14.757 3.115 6.911 8.295 12.625 16.065 17.78z"/></svg>