<svg xmlns="http://www.w3.org/2000/svg" width="44" height="50"><defs><linearGradient id="a" gradientUnits="userSpaceOnUse" x1="18" y1="113" x2="131"><stop offset="0" stop-color="#00adef"/><stop offset="1" stop-color="#31ecbe"/></linearGradient></defs><path fill="url(#a)" d="M43.945 33.236c-.13.472-3.401 11.593-21.687 16.684l-.271.076-.271-.076C3.436 44.829.159 33.708.029 33.237l-.036-.265V3.433l.478-.293c.21-.128 5.326-3.146 21.533-3.146 16.208 0 21.293 3.02 21.502 3.148l.475.293-.036 29.801zM41.97 4.612c-1.553-.677-7.131-2.62-19.966-2.62-12.946 0-18.458 1.933-20 2.615v28.21c.388 1.134 4.061 10.574 19.983 15.103 15.915-4.526 19.591-13.957 19.983-15.103V4.612zM27.016 32.97h-9.052v-5.996H11.93v-8.993h6.034v-5.996h9.052v5.996h6.034v8.993h-6.034v5.996zm4.023-7.994v-4.997h-6.035v-5.995h-5.028v5.995h-6.035v4.997h6.035v5.995h5.028v-5.995h6.035z"/></svg>