<svg xmlns="http://www.w3.org/2000/svg" preserveAspectRatio="xMidYMid" width="76" height="76" viewBox="0 0 76 76"><defs><style>.cls-1{fill:#fff;fill-rule:evenodd}</style></defs><path d="M66.396 39.462h9.602c-.759 19.864-16.668 35.77-36.526 36.527v-8.791h-2.936v8.791C16.705 75.23.771 59.326.01 39.462h9.602v-2.935H.01C.769 16.7 16.705.763 36.536.004v9.595h2.936V.002C59.33.761 75.239 16.7 75.998 36.527h-9.602v2.935zm-15.783 7.174h7.143L51.85 60.067h3.492l5.612-13.431v-2.482H50.613v2.482zm-7.976 13.431l5.521-15.913h-2.501l-5.521 15.913h2.501zm-16.938-3.244h6.691v3.242h3.175v-3.242h1.761v-2.438h-1.761V44.154h-4.054l-5.812 10.118v2.551zM15.021 44.492c-.429.135-.859.339-1.263.519l.249 2.795c1.192-.699 2.252-1.284 3.694-1.284.25 0 1.468 0 2.098.876.382.52.407 1.081.407 1.306 0 1.266-.811 2.619-2.572 4.533-.473.538-.968 1.06-1.462 1.554a70.727 70.727 0 0 1-1.875 1.804l-.875.811-.023 2.661h10.658v-2.502h-6.692c1.849-1.781 4.552-4.328 5.657-6.718.54-1.126.585-1.981.585-2.503 0-1.78-.883-2.811-1.396-3.263-.993-.906-2.121-1.175-3.449-1.175-1.669 0-3.224.404-3.741.586zm55.585-12.965l-1.139-4.245-31.032 8.324-16.842-11.994-2.549 3.581 18.529 13.194 33.033-8.86zM32.481 54.385h-3.899l3.966-7.415-.067 7.415z" class="cls-1"/></svg>