<svg xmlns="http://www.w3.org/2000/svg" preserveAspectRatio="xMidYMid" width="69" height="81" viewBox="0 0 69 81"><defs><style>.cls-1{fill:#fff;fill-rule:evenodd}</style></defs><path d="M41.5 36.963c7.448 0 13.511 5.922 13.511 13.199 0 7.274-6.063 13.193-13.511 13.193-7.445 0-13.504-5.919-13.504-13.193 0-7.277 6.059-13.199 13.504-13.199zm0 24.302c6.271 0 11.373-4.981 11.373-11.103 0-6.125-5.102-11.11-11.373-11.11-6.268 0-11.366 4.985-11.366 11.11 0 6.122 5.098 11.103 11.366 11.103zm-15.16-4.396h-.008l-6.063-.085a.429.429 0 0 1-.305-.134.408.408 0 0 1-.112-.311l1.073-14.978a.421.421 0 0 1 .424-.388h1.68l-1.17-.611a.418.418 0 0 1-.22-.294.421.421 0 0 1 .1-.351l4.281-4.698a.43.43 0 0 1 .32-.14h1.165l-.409-.436a.41.41 0 0 1-.015-.55l5.7-6.614c.1-.109.266-.175.382-.145l1.143.145-.305-.463a.41.41 0 0 1 .038-.504l4.276-4.704a.434.434 0 0 1 .479-.111l3.655 1.415 3.84-1.834a.43.43 0 0 1 .502.091l4.812 5.047c.132.139.151.35.047.511l-.479.726 1.135-.146c.104-.03.289.034.386.15l5.167 6.182c.12.143.128.347.02.499l-.44.628 1.196-.145c.139-.036.286.033.382.147l4.276 5.051a.404.404 0 0 1 .093.339.422.422 0 0 1-.208.288l-4.813 2.699a.445.445 0 0 1-.54-.094l-4.277-4.967a.41.41 0 0 1-.046-.467l.614-1.094-1.652.059a.41.41 0 0 1-.336-.14l-5.526-6.094a.412.412 0 0 1 .027-.582l.744-.679-1.652-.167a.43.43 0 0 1-.289-.155l-2.701-3.303-.405.043-3.273 3.705a.462.462 0 0 1-.394.137l-.895-.143.293.815a.403.403 0 0 1-.074.403l-5.26 6.182c-.081.1-.216.17-.343.151l-1.251-.049.456.605a.413.413 0 0 1-.023.525l-3.563 3.9-1.235 14.75a.418.418 0 0 1-.424.383zm.926-15.584l3.427-3.752-.78-1.032a.414.414 0 0 1-.034-.444.435.435 0 0 1 .378-.22h.016l1.929.077 4.971-5.843-.451-1.255a.406.406 0 0 1 .073-.406.421.421 0 0 1 .397-.143l1.37.221 3.227-3.653a.448.448 0 0 1 .278-.141l.803-.088a.406.406 0 0 1 .378.154l2.74 3.349 2.404.243c.17.017.309.126.363.283a.413.413 0 0 1-.112.437l-1.127 1.026 5.118 5.643 2.2-.077c.12.031.301.071.378.197a.407.407 0 0 1 .011.419l-.833 1.486 3.86 4.481 4.063-2.277-3.805-4.493-1.903.232a.41.41 0 0 1-.416-.196.405.405 0 0 1 .011-.453l.795-1.135-4.817-5.761-1.814.231c-.123.034-.328-.05-.412-.19a.403.403 0 0 1 0-.449l.798-1.209-4.368-4.583-3.724 1.78a.453.453 0 0 1-.348.013l-3.555-1.376-3.863 4.248.629.954a.41.41 0 0 1 0 .448c-.089.14-.281.221-.413.191l-1.821-.232-5.311 6.159.815.864a.409.409 0 0 1 .077.451.424.424 0 0 1-.39.249h-1.945l-3.794 4.162 2.2 1.147a.41.41 0 0 1 .212.469.422.422 0 0 1-.413.315h-2.991l-1.015 14.15 5.214.074 1.216-14.501a.413.413 0 0 1 .104-.244zm40.667 39.634c-1.235.011-8.642.073-14.226.073-3.134 0-5.689-.019-6.272-.079a74.564 74.564 0 0 1-7.31-1.126c-.026.004-.046.04-.077.04a.624.624 0 0 1-.351-.11c-.011-.007-.019-.022-.031-.03a71.316 71.316 0 0 1-3.408-.812l-.22.89a.855.855 0 0 1-1.034.616.838.838 0 0 1-.633-1.008l.239-.967a63.47 63.47 0 0 1-6.576-2.31l-2.285 2.232a.866.866 0 0 1-.606.243.861.861 0 0 1-.606-.245.828.828 0 0 1 0-1.182l1.83-1.787c-6.99-3.194-10.521-6.515-10.764-6.752a1.047 1.047 0 0 1-.293-.519l-1.606-7.143a1.047 1.047 0 0 1 .818-1.244c.599-.123 1.146.235 1.274.795l1.532 6.825c.884.775 4.508 3.663 10.71 6.409l3.987-3.897a.871.871 0 0 1 1.212.002.826.826 0 0 1 0 1.181l-3.528 3.445a59.975 59.975 0 0 0 5.407 1.903l1.127-4.565c.112-.447.587-.719 1.034-.616.46.107.741.559.633 1.008l-1.134 4.595c.795.213 1.62.413 2.462.607.035-.083.035-.151.081-.235.753-1.352 2.509-2.814 4.732-4.665 7.923-6.595 19.899-16.563 5.688-35.63a.621.621 0 0 1 .143-.877.654.654 0 0 1 .899.137c2.972 3.992 4.798 7.604 5.813 10.904l7.051-3.737-.158-4.308-1.791-2.628a.62.62 0 0 1 .181-.869.655.655 0 0 1 .892.175l1.891 2.775c.065.097.1.21.104.325l.177 4.873a.619.619 0 0 1-.335.575l-7.418 3.931a.653.653 0 0 1-.282.07c3.157 12.532-5.982 20.214-12.022 25.24-2.007 1.669-3.732 3.111-4.396 4.251 2.239.468 4.605.87 7.171 1.137 1.085.111 11.686.064 19.193.004V28.75l-7.568 4.385a.68.68 0 0 1-.51.062.641.641 0 0 1-.393-.32l-3.567-6.967a.62.62 0 0 1 .055-.646.665.665 0 0 1 .605-.257l1.571.208c-.671-1.352-2.304-3.809-5.627-5.004-4.527-1.629-8.363-5.336-9.359-6.354 0 .004-.004.005-.008.009-.177.193-4.438 4.744-9.602 6.607a10.047 10.047 0 0 0-5.631 5.002l1.575-.205a.644.644 0 0 1 .606.257.62.62 0 0 1 .054.646l-3.566 6.962a.645.645 0 0 1-.575.347.65.65 0 0 1-.328-.088l-7.661-4.437a.619.619 0 0 1-.309-.605.63.63 0 0 1 .432-.53l2.088-.681c-.285-1.123-.614-3.542.83-5.605l-6.576 3.707.648 6.644a1.052 1.052 0 0 1-1.065 1.144 1.063 1.063 0 0 1-1.065-.944l-.715-7.313c-.038-.408.17-.8.533-1.005l9.271-5.225a1.08 1.08 0 0 1 1.458.383c.089.152.058.32.066.487.058-.031.093-.067.154-.095 8.8-4.131 12.536-9.563 12.575-9.618a.65.65 0 0 1 .868-.192l5.646 3.313a.673.673 0 0 1 .197-.179l5.797-3.397a.652.652 0 0 1 .868.192c.039.054 3.774 5.488 12.574 9.619 4.484 2.106 3.937 6.246 3.535 7.826l2.088.677c.015.006.015.03.031.038V14.749H56.64a1.057 1.057 0 0 1-1.069-1.044c0-.578.478-1.046 1.069-1.046h11.281c.59 0 1.069.468 1.069 1.046v66.169c0 .573-.471 1.039-1.057 1.045zM35.961 10.882c-1.146 1.478-5.048 5.961-12.732 9.568-4.531 2.127-2.783 6.674-2.705 6.866a.618.618 0 0 1-.016.495.644.644 0 0 1-.378.329l-1.343.438 5.858 3.394 2.717-5.302-1.47.193a.662.662 0 0 1-.571-.214.616.616 0 0 1-.131-.582c.058-.198 1.486-4.857 6.815-6.771 3.841-1.385 7.256-4.463 8.549-5.72l-4.593-2.694zm27.776 17a.628.628 0 0 1-.393-.822c.073-.192 1.802-4.758-2.702-6.871-7.684-3.608-11.586-8.093-12.732-9.571l-4.596 2.694c1.292 1.26 4.712 4.34 8.552 5.722 5.326 1.916 6.754 6.577 6.812 6.775a.623.623 0 0 1-.131.584.638.638 0 0 1-.572.211l-1.466-.194 2.713 5.301 5.859-3.393-1.344-.436zM42.441 11.556a.657.657 0 0 1-.88-.007l-5.766-5.36a.613.613 0 0 1-.15-.688.638.638 0 0 1 .594-.394l1.899.004.011-4.489c0-.166.066-.327.19-.444a.648.648 0 0 1 .451-.182l6.322.015a.634.634 0 0 1 .641.627l-.004 4.492 2.203.005a.647.647 0 0 1 .599.402.615.615 0 0 1-.163.687l-5.947 5.332zm2.663-5.173a.632.632 0 0 1-.64-.628l.004-4.49-5.037-.012-.012 4.487a.633.633 0 0 1-.64.627l-.93-.002 4.164 3.872 4.295-3.852-1.204-.002zM12.191 61.724a1.073 1.073 0 0 1-1.32-.723c-.081-.283-1.999-7.181-1.999-29.014 0-.577.479-1.045 1.069-1.045s1.069.468 1.069 1.045c0 21.437 1.903 28.383 1.922 28.451a1.043 1.043 0 0 1-.741 1.286zM9.3 28.076a.624.624 0 0 1-.378.123.723.723 0 0 1-.216-.035L2.23 25.923a.628.628 0 0 1-.425-.501.624.624 0 0 1 .259-.598l1.146-.818-2.802-3.72a.613.613 0 0 1-.115-.466.615.615 0 0 1 .251-.411l2.909-2.089a.648.648 0 0 1 .9.134l2.802 3.716 1.15-.822a.64.64 0 0 1 .66-.056.63.63 0 0 1 .359.543l.239 6.714a.613.613 0 0 1-.263.527zm-1.219-6.014l-.687.491a.659.659 0 0 1-.896-.137L3.7 18.703l-1.875 1.346 2.802 3.721c.1.134.143.302.116.468a.613.613 0 0 1-.255.411l-.683.486 2.088.72h.004l2.35.815-.166-4.608zM3.218 65.7a.61.61 0 0 1-.062-.645.654.654 0 0 1 .556-.352l6.874-.236c.22.043.417.09.54.256a.62.62 0 0 1 .089.583l-2.293 6.329a.638.638 0 0 1-.513.413.64.64 0 0 1-.61-.251l-.837-1.12-3.806 2.737a.661.661 0 0 1-.478.116.647.647 0 0 1-.421-.249L.115 70.436a.62.62 0 0 1 .135-.877l3.806-2.737-.838-1.122zm-1.686 4.498l1.377 1.835 3.81-2.74a.608.608 0 0 1 .478-.115c.17.027.32.115.421.251l.498.664.733-2.038v-.004l.838-2.297-4.717.163.498.669a.62.62 0 0 1-.135.875l-3.801 2.737z" class="cls-1"/></svg>