<svg xmlns="http://www.w3.org/2000/svg" viewBox="0 44.8 89 55.2"><linearGradient id="a" gradientUnits="userSpaceOnUse" x1="41.942" y1="38.163" x2="119.962" y2="-61.698" gradientTransform="matrix(.5562 0 0 -.5562 0 69.466)"><stop offset="0" stop-color="#0c90c2"/><stop offset="1" stop-color="#2dd2ab"/></linearGradient><path fill="url(#a)" d="M55.5 89.3l-14.3-1.9v1.1l14.3 1.9h.2l.1-.1c.3-.1 5.6-2.4 8.4-7.3h-1.3c-2.5 3.9-6.7 5.9-7.4 6.3z"/><linearGradient id="b" gradientUnits="userSpaceOnUse" x1="9.128" y1="51.923" x2="108.957" y2="-75.852" gradientTransform="matrix(.5562 0 0 -.5562 0 69.466)"><stop offset="0" stop-color="#0c90c2"/><stop offset="1" stop-color="#2dd2ab"/></linearGradient><path fill="url(#b)" d="M37.8 86.9L4.7 82.5c3.9-1.1 9.2-4.2 12.6-12.7 3.4-8.5 3.8-17.8.9-22.3 9.1 4 36 15.9 44.4 19.7 2.6 3 3.2 7.7 1.7 12.6h1.2c1.5-5.2.7-10.2-2.1-13.4l-.1-.1-.1-.1c-10-4.5-47.3-20.9-47.7-21-.9-.4-1.9-.5-3.1-.3-7.3 1.3-10.7 2.8-10.8 2.9l-.3.2L0 83.1h.6l37.3 5v-1.2zM2.5 48.7c1-.4 4.3-1.6 10.3-2.7 1.6-.3 3 .2 4.1 1.5 3.1 3.8 2.9 13.5-.6 22C12 80.1 4.7 81.8 1.2 81.9l1.3-33.2z"/><linearGradient id="c" gradientUnits="userSpaceOnUse" x1="13.016" y1="34.235" x2="100.538" y2="-77.788" gradientTransform="matrix(.5562 0 0 -.5562 0 69.466)"><stop offset="0" stop-color="#0c90c2"/><stop offset="1" stop-color="#2dd2ab"/></linearGradient><path fill="url(#c)" d="M19.2 73.4c4.8 1.1 11.3 2.6 19.2 4.5 2.7.7 5.4 1.3 7.9 1.9H51c-3.6-.9-7.8-1.9-12.3-3-8.2-2-14.8-3.6-19.7-4.6l-.6-.1-.2.5c-1.4 4.3-6.5 8-6.6 8l-1.1.8 1.3.2c.2.1 13.9 2.2 25.9 4.2v-1.1C28 83 17 81.3 13.3 80.6c1.7-1.2 4.6-4 5.9-7.2z"/><linearGradient id="d" gradientUnits="userSpaceOnUse" x1="38.14" y1="41.46" x2="119.72" y2="-62.958" gradientTransform="matrix(.5562 0 0 -.5562 0 69.466)"><stop offset="0" stop-color="#0c90c2"/><stop offset="1" stop-color="#2dd2ab"/></linearGradient><path fill="url(#d)" d="M55 87.4c-1.9-.3-7.4-1.2-13.8-2.2v1.1c6.6 1.1 12.1 1.9 13.8 2.2l.2.1.2-.1c3.5-2 5.6-5 5.7-5.3h-1.4.1c-.8.9-2.5 2.8-4.8 4.2z"/><linearGradient id="e" gradientUnits="userSpaceOnUse" x1="41.577" y1="53.657" x2="128.445" y2="-57.528" gradientTransform="matrix(.5562 0 0 -.5562 0 69.466)"><stop offset="0" stop-color="#0c90c2"/><stop offset="1" stop-color="#2dd2ab"/></linearGradient><path fill="url(#e)" d="M83.8 75l-.9.7 4.2 5.2H39v17.3L33.8 94l-.7.9 6.5 5.1 6.5-5.1-.8-.9-5.1 4.2V82h46.9l-4.2 5.2.9.7 5.1-6.5z"/></svg>