<svg xmlns="http://www.w3.org/2000/svg" width="67" height="42"><defs><linearGradient id="a" x1="0%" y1="0%" y2="100%"><stop offset="0%" stop-color="#fd6c5e"/><stop offset="100%" stop-color="#db0223"/></linearGradient></defs><path fill="url(#a)" d="M64.705 41.998H3.225a2.253 2.253 0 0 1-2.249-2.249V2.248A2.253 2.253 0 0 1 3.225-.003h4.499c1.24 0 2.249 1.01 2.249 2.251v30.751h47.984V2.248a2.253 2.253 0 0 1 2.249-2.251h4.499c1.24 0 2.249 1.01 2.249 2.251v37.501a2.253 2.253 0 0 1-2.249 2.249zM3.225 1.997a.252.252 0 0 0-.25.251v37.501a.25.25 0 0 0 .25.249h61.48a.25.25 0 0 0 .25-.249V2.248a.252.252 0 0 0-.25-.251h-4.499a.252.252 0 0 0-.25.251v31.209c0 .849-.691 1.541-1.541 1.541h-48.9c-.85 0-1.541-.692-1.541-1.541V2.248a.252.252 0 0 0-.25-.251H3.225z"/></svg>