<svg xmlns="http://www.w3.org/2000/svg" viewBox="0 1.5 87.7 98.5"><linearGradient id="a" gradientUnits="userSpaceOnUse" x1="7.741" y1="97.096" x2="106.259" y2="-29" gradientTransform="matrix(.7692 0 0 -.7692 0 76.923)"><stop offset="0" stop-color="#0c90c2"/><stop offset="1" stop-color="#2dd2ab"/></linearGradient><path fill="url(#a)" d="M75.4 9c-.6.2-.9.2-1.5.4-4.3 1.2-6.5 1.9-10.8 2.5-.6.1-.9.2-1.5.2-4.3.5-6.5.2-10.8-1.7-.6-.2-.9-.4-1.5-.7-4.4-2-6.5-3.6-10.8-5.7-.6-.3-.9-.5-1.5-.7-4.3-1.8-6.5-2.2-10.8-1.7-.6.1-.9.1-1.5.2-4.3.6-6.5 1.4-10.8 2.5-.6.2-.9.2-1.5.4C8 6 5.8 6.6 1.5 6.8c-.6 0-.9.1-1.5.1v87.7c.6 0 .9 0 1.5-.1 4.3-.2 6.5-.8 10.8-2 .6-.2.9-.2 1.5-.4 4.3-1.2 6.5-1.9 10.8-2.5.6-.1.9-.2 1.5-.2 4.3-.5 6.5-.2 10.8 1.7.6.2.9.4 1.5.7 4.3 2.1 6.5 3.6 10.8 5.7.6.3.9.5 1.5.7 4.3 1.8 6.5 2.2 10.8 1.7.6-.1.9-.1 1.5-.2 4.3-.6 6.5-1.4 10.8-2.5.6-.2.9-.2 1.5-.4 4.3-1.2 6.5-1.8 10.8-2 .6 0 .9-.1 1.5-.1v-1.5-10.8-1.5-10.8-1.5-10.8-1.5-10.8V44 33.2v-1.5-10.8-1.5V8.6 7.1c-.6 0-.9 0-1.5.1-4.3 0-6.4.6-10.7 1.8zm-1.6 2v10.8c-4.3 1.2-6.5 1.9-10.8 2.5V13.5c4.4-.7 6.5-1.4 10.8-2.5zM38.5 41V30.2c4.3 2.1 6.5 3.6 10.8 5.7v10.8c-4.4-2-6.5-3.7-10.8-5.7zm10.7 7.2V59c-4.3-2.1-6.5-3.6-10.8-5.7V42.5c4.4 2.1 6.5 3.7 10.8 5.7zm-12.3-7.9c-4.3-1.8-6.5-2.2-10.8-1.7V27.8c4.3-.5 6.5-.2 10.8 1.7v10.8zm0 1.5v10.8c-4.3-1.8-6.5-2.2-10.8-1.7V40.1c4.4-.4 6.5-.1 10.8 1.7zm0 12.3v10.8c-4.3-1.8-6.5-2.2-10.8-1.7V52.4c4.4-.4 6.5-.1 10.8 1.7zm1.6.7c4.3 2.1 6.5 3.6 10.8 5.7v10.8c-4.3-2.1-6.5-3.6-10.8-5.7V54.8zm12.3 6.4c4.3 1.8 6.5 2.2 10.8 1.7v10.8c-4.3.5-6.5.2-10.8-1.7V61.2zm0-1.5V48.9c4.3 1.8 6.5 2.2 10.8 1.7v10.8c-4.4.4-6.5.1-10.8-1.7zm0-12.4V36.5c4.3 1.8 6.5 2.2 10.8 1.7V49c-4.4.5-6.5.2-10.8-1.7zm0-12.3V24.2c4.3 1.8 6.5 2.2 10.8 1.7v10.8c-4.4.5-6.5.2-10.8-1.7zm-1.6-.7c-4.3-2.1-6.5-3.6-10.8-5.7V17.8c4.3 2.1 6.5 3.6 10.8 5.7v10.8zM36.9 28c-4.3-1.8-6.5-2.2-10.8-1.7V15.5c4.3-.5 6.5-.2 10.8 1.7V28zm-12.3-1.5c-4.3.6-6.5 1.4-10.8 2.5V18.2c4.3-1.2 6.5-1.9 10.8-2.5v10.8zm0 1.5v10.8c-4.3.6-6.5 1.4-10.8 2.5V30.5c4.4-1.1 6.5-1.8 10.8-2.5zm0 12.3v10.8c-4.3.6-6.5 1.4-10.8 2.5V42.8c4.4-1.1 6.5-1.8 10.8-2.5zm0 12.4v10.8c-4.3.6-6.5 1.4-10.8 2.5V55.2c4.4-1.2 6.5-1.9 10.8-2.5zm0 12.3v10.8c-4.3.6-6.5 1.4-10.8 2.5V67.5c4.4-1.2 6.5-1.9 10.8-2.5zm1.6-.3c4.3-.5 6.5-.2 10.8 1.7v10.8c-4.3-1.8-6.5-2.2-10.8-1.7V64.7zm12.3 2.4c4.3 2.1 6.5 3.6 10.8 5.7v10.8c-4.3-2.1-6.5-3.6-10.8-5.7V67.1zm12.3 6.4c4.3 1.8 6.5 2.2 10.8 1.7V86c-4.3.5-6.5.2-10.8-1.7V73.5zM63.1 75c4.3-.6 6.5-1.4 10.8-2.5v10.8c-4.3 1.2-6.5 1.9-10.8 2.5V75zm0-1.5V62.7c4.3-.6 6.5-1.4 10.8-2.5V71c-4.4 1.1-6.5 1.8-10.8 2.5zm0-12.3V50.4c4.3-.6 6.5-1.4 10.8-2.5v10.8c-4.4 1.1-6.5 1.8-10.8 2.5zm0-12.3V38.1c4.3-.6 6.5-1.4 10.8-2.5v10.8c-4.4 1.1-6.5 1.8-10.8 2.5zm0-12.3V25.8c4.3-.6 6.5-1.4 10.8-2.5v10.8c-4.4 1.1-6.5 1.8-10.8 2.5zm-1.6-22.9v10.8c-4.3.5-6.5.2-10.8-1.7V12c4.4 1.8 6.5 2.1 10.8 1.7zm-12.3-2.4v10.8c-4.3-2.1-6.5-3.6-10.8-5.7V5.6c4.4 2.1 6.5 3.7 10.8 5.7zM36.9 4.9v10.8c-4.3-1.8-6.5-2.2-10.8-1.7V3.2c4.4-.4 6.5-.2 10.8 1.7zM24.6 3.4v10.8c-4.3.6-6.5 1.4-10.8 2.5V5.9c4.4-1.1 6.5-1.9 10.8-2.5zm-23.1 5c4.3-.2 6.5-.8 10.8-2v10.8C8 18.3 5.8 19 1.5 19.2V8.4zm0 12.3c4.3-.2 6.5-.8 10.8-2v10.8c-4.3 1.2-6.5 1.8-10.8 2V20.7zm0 12.3c4.3-.2 6.5-.8 10.8-2v10.8C8 43 5.8 43.6 1.5 43.8V33zm0 12.3c4.3-.2 6.5-.8 10.8-2v10.8c-4.3 1.2-6.5 1.8-10.8 2V45.3zm0 12.4c4.3-.2 6.5-.8 10.8-2v10.8c-4.3 1.2-6.5 1.8-10.8 2V57.7zm0 12.3c4.3-.2 6.5-.8 10.8-2v10.8C8 80 5.8 80.6 1.5 80.8V70zm0 23V82.2c4.3-.2 6.5-.8 10.8-2V91C8 92.2 5.8 92.8 1.5 93zm12.3-2.4V79.8c4.3-1.2 6.5-1.9 10.8-2.5v10.8c-4.3.6-6.4 1.3-10.8 2.5zm12.4-2.8V77c4.3-.5 6.5-.2 10.8 1.7v10.8c-4.4-1.8-6.5-2.1-10.8-1.7zm12.3 2.4V79.4c4.3 2.1 6.5 3.6 10.8 5.7v10.8c-4.4-2-6.5-3.6-10.8-5.7zm12.3 6.4V85.8c4.3 1.8 6.5 2.2 10.8 1.7v10.8c-4.4.4-6.5.1-10.8-1.7zm12.3 1.5V87.3c4.3-.6 6.5-1.4 10.8-2.5v10.8c-4.4 1.1-6.5 1.8-10.8 2.5zm23.1-5c-4.3.2-6.5.8-10.8 2V84.3c4.3-1.2 6.5-1.8 10.8-2v10.8zm0-12.3c-4.3.2-6.5.8-10.8 2V72c4.3-1.2 6.5-1.8 10.8-2v10.8zm0-12.3c-4.3.2-6.5.8-10.8 2V59.7c4.3-1.2 6.5-1.8 10.8-2v10.8zm0-12.3c-4.3.2-6.5.8-10.8 2V47.4c4.3-1.2 6.5-1.8 10.8-2v10.8zm0-12.3c-4.3.2-6.5.8-10.8 2V35.1c4.3-1.2 6.5-1.8 10.8-2v10.8zm0-12.3c-4.3.2-6.5.8-10.8 2V22.8c4.3-1.2 6.5-1.8 10.8-2v10.8zm0-12.3c-4.3.2-6.5.8-10.8 2V10.5c4.3-1.2 6.5-1.8 10.8-2v10.8z"/></svg>