<svg xmlns="http://www.w3.org/2000/svg" preserveAspectRatio="xMidYMid" width="75.969" height="72.15" viewBox="0 0 75.969 72.15"><defs><style>.cls-1{fill:#fff;fill-rule:evenodd}</style></defs><path d="M41.387 5.886H73.63v2.562H41.387V5.886zm0-5.887H73.63v5.447H41.387V-.001zM40.07 44.868l5.51 22.337h-7.978l-4.689-13.126v18.087H12.185V55.762L7.74 67.442H.01l5.101-22.574h12.007v-2.184c-5.789-1.904-9.967-7.225-9.967-13.505 0-7.879 6.563-14.263 14.655-14.263 8.101 0 14.66 6.384 14.66 14.263 0 5.73-3.478 10.656-8.489 12.928v2.761H40.07zm11.008-34.274l14.09.142c-2.605 5.404-5.215 16.993-1.347 22.027 1.893-2.096 4.743-4.671 6.952-6.258-2.119 4.705.373 12.569 5.188 18.949-8.053.531-17.592-.31-26.742-7.826a47.114 47.114 0 0 0 8.879-1.251c-5.404-7.416-11.174-17.513-7.02-25.783z" class="cls-1"/></svg>