<svg xmlns="http://www.w3.org/2000/svg" preserveAspectRatio="xMidYMid" width="40" height="80" viewBox="0 0 40 80"><defs><style>.cls-1{fill:#fff;fill-rule:evenodd}</style></defs><path d="M39.993 30.659v8.707h-3.859c.212.998.677 3.882-.041 4.829a.82.82 0 0 1-.842.326c-1.105-.213-1.755-.279-2.317-.293-.027 3.753-.712 10.262-4.666 15.238a40.986 40.986 0 0 0-3.187 4.665l-2.307-2.374c.932-1.518 1.928-2.994 3.006-4.348 3.311-4.164 3.906-9.868 3.943-13.162-.426.009-.852.042-1.295.172-.24.071-.453.105-.646.105-1.228 0-1.228-1.349-1.228-2.246 0-2.501.328-3.529.568-4.281.132-.414.228-.714.228-1.14 0-.088.007-.174.009-.261h-.89v2.774h-1.664c.213 1.002.676 3.879-.041 4.825a.816.816 0 0 1-.841.326 18.166 18.166 0 0 0-1.543-.241c.143 6.396-.926 22.342-13.602 35.241a1.587 1.587 0 0 1-1.132.478c-.411 0-.82-.161-1.133-.478a1.655 1.655 0 0 1 .002-2.311c11.761-11.969 12.739-27.167 12.639-32.962-.686-.019-1.35-.036-2.055.171-.24.071-.453.105-.645.105-1.229 0-1.229-1.349-1.229-2.246 0-1.327.093-2.232.216-2.908h-1.365c.213 1.002.676 3.879-.041 4.825a.82.82 0 0 1-.842.326 16.495 16.495 0 0 0-1.85-.27c.587 3.029 2.084 8.016 5.793 12.512a30.982 30.982 0 0 1-.488 1.966 39.529 39.529 0 0 1-.543 1.742c-5.556-5.767-7.415-12.549-8.032-16.224-.567-.008-1.123-.003-1.701.172a2.308 2.308 0 0 1-.647.105c-1.229 0-1.229-1.349-1.229-2.246 0-2.501.328-3.529.568-4.281.132-.414.228-.714.228-1.14 0-.088.007-.174.009-.261h-.756v2.77H.007v-8.707H1.93V19.27H.007v-8.706h4.538v2.168h8.982v-2.165h1.98v2.165h8.986v-2.165h1.976v2.165h8.986v-2.168h4.538v8.709H38.07v11.386h1.923zM3.849 11.274H.703v7.285h1.924V31.37H.703v7.286h3.146V11.274zm1.289 31.004c.001 1.592.251 1.749 1.054 1.513.807-.239 1.524-.212 2.292-.197.365.004.75.011 1.17-.004.398-.011.68-.023.965-.023.658 0 1.367.053 2.694.311l.058.007c.052 0 .099-.015.156-.09.493-.654.172-3.334-.132-4.527-.094-.362-.253-.646-.423-.949a7.151 7.151 0 0 1-.292-.553c-.314-.688-.362-1.331-.387-1.989-.02-.493-.031-.912-.041-1.267-.02-.755-.036-1.406-.131-1.506-.886-.191-2.075-.296-3.356-.296-.981 0-1.966.064-2.569.165-.11.018-.309.048-.206 1.764.024.434 0 .875-.024 1.301-.016.303-.033.609-.033.919 0 .531-.119.909-.258 1.342-.228.711-.537 1.679-.537 4.079zm6.895-10.026V25.4H6.082v6.829c.004-.001.007-.003.011-.003.644-.109 1.643-.172 2.672-.172.772 0 1.833.043 2.842.198h.426zm1.494-18.81H4.549v22.443h.778c.022-.42.043-.819.022-1.211-.062-1.026-.046-1.691.172-2.07v-7.641h7.073v7.587c.256.28.271.856.3 1.941.009.351.02.77.041 1.26.001.048.005.088.007.134h.585V13.442zm0 23.154h-.521c.048.317.122.602.255.893.083.179.176.344.266.505v-1.398zm1.284-25.319h-.587v1.455h.587v-1.455zm0 2.165h-.587v22.443h.587V13.442zm0 23.154h-.587v2.063h.587v-2.063zm.696 2.431c.093-.425.196-.747.286-1.03.133-.414.228-.714.228-1.14 0-.088.007-.174.01-.261h-.524v2.431zm8.986-25.585h-8.986v22.443h.55c.025-.42.046-.819.021-1.207-.066-1.1-.04-1.782.224-2.144v-7.571h7.074v7.664c.203.301.222.858.248 1.849.009.355.019.778.04 1.275l.008.134h.821V13.442zM16.863 25.4v6.82c.644-.104 1.621-.166 2.631-.166.774 0 1.835.043 2.843.198h.478V25.4h-5.952zm7.63 11.196h-.757c.048.317.123.602.258.893.082.179.176.344.266.508.079.14.158.286.233.439v-1.84zm-.369 2.672c-.093-.362-.253-.646-.422-.945-.099-.18-.2-.359-.291-.557-.315-.684-.363-1.331-.389-1.989-.02-.501-.031-.927-.04-1.286-.019-.744-.037-1.387-.131-1.487-.885-.191-2.073-.296-3.357-.296-.981 0-1.966.064-2.569.165-.11.018-.308.048-.205 1.764.027.437.001.882-.023 1.316-.016.295-.034.598-.034.904 0 .531-.12.909-.259 1.342-.227.711-.537 1.679-.537 4.079 0 1.592.249 1.749 1.054 1.513.811-.239 1.531-.216 2.294-.197.361.004.747.011 1.168-.004h.081c.319-.011.601-.023.886-.023.656 0 1.366.053 2.692.311l.058.007c.052 0 .099-.015.156-.09.493-.654.172-3.334-.132-4.527zm1.648-27.991h-.582v1.455h.582v-1.455zm0 2.165h-.582v22.443h.582V13.442zm0 23.154h-.582v2.063h.582v-2.063zm9.683-23.154h-8.986v22.443h.916c.024-.421.047-.818.022-1.211-.058-.955-.047-1.595.131-1.985h-.014v-7.726h7.069v7.538c.309.252.328.814.358 1.953.01.362.021.788.042 1.297.001.048.005.088.007.134h.455V13.442zM28.085 25.4v6.849c.023-.005.041-.015.066-.019.643-.113 1.645-.176 2.674-.176.774 0 1.835.043 2.844.198h.363V25.4h-5.947zm7.37 11.196l-.44-.461c.037.522.112.93.308 1.354.04.09.087.168.132.251v-1.144zm.02 2.77h-.02v-.089l-.002-.009c-.09-.362-.249-.643-.418-.941-.101-.18-.204-.36-.296-.561-.315-.684-.362-1.331-.388-1.989-.02-.512-.031-.942-.042-1.304-.019-.737-.035-1.369-.127-1.469-.885-.191-2.074-.296-3.357-.296-.982 0-1.966.064-2.571.165-.11.018-.308.052-.206 1.764.026.434.002.878-.022 1.308-.018.303-.034.606-.034.912 0 .531-.12.909-.259 1.342-.227.711-.538 1.679-.538 4.079 0 1.592.248 1.749 1.055 1.513.812-.239 1.527-.216 2.294-.197.363.004.748.011 1.168-.004.398-.011.68-.023.965-.023.656 0 1.366.053 2.693.311l.059.007c.051 0 .099-.015.156-.09.482-.638.187-3.198-.11-4.429zm3.821-20.803v-7.289h-3.144v27.382h3.144V31.37h-1.923V18.563h1.923zm-8.381 12.463c-1.229 0-2.227-1.02-2.227-2.273 0-1.252.998-2.269 2.227-2.269 1.226 0 2.222 1.017 2.222 2.269 0 1.253-.996 2.273-2.222 2.273zm0-3.682c-.765 0-1.387.631-1.387 1.409a1.4 1.4 0 0 0 1.387 1.413c.762 0 1.382-.632 1.382-1.413 0-.778-.62-1.409-1.382-1.409zm0-7.85c-1.229 0-2.227-1.017-2.227-2.265 0-1.253.998-2.274 2.227-2.274 1.226 0 2.222 1.021 2.222 2.274 0 1.248-.996 2.265-2.222 2.265zm0-3.679c-.765 0-1.387.632-1.387 1.414 0 .773.622 1.405 1.387 1.405.762 0 1.382-.632 1.382-1.405 0-.782-.62-1.414-1.382-1.414zM19.958 31.026c-1.229 0-2.226-1.02-2.226-2.273 0-1.252.997-2.269 2.226-2.269s2.226 1.017 2.226 2.269c0 1.253-.997 2.273-2.226 2.273zm0-3.682c-.765 0-1.386.631-1.386 1.409 0 .781.621 1.413 1.386 1.413.764 0 1.386-.632 1.386-1.413 0-.778-.622-1.409-1.386-1.409zm0-7.85c-1.229 0-2.226-1.017-2.226-2.265 0-1.253.997-2.274 2.226-2.274s2.226 1.021 2.226 2.274c0 1.248-.997 2.265-2.226 2.265zm0-3.679c-.765 0-1.386.632-1.386 1.414 0 .773.621 1.405 1.386 1.405.764 0 1.386-.632 1.386-1.405 0-.782-.622-1.414-1.386-1.414zM9.003 19.494c-1.228 0-2.226-1.017-2.226-2.265 0-1.253.998-2.274 2.226-2.274 1.227 0 2.223 1.021 2.223 2.274 0 1.248-.996 2.265-2.223 2.265zm0-3.679c-.765 0-1.386.632-1.386 1.414 0 .773.621 1.405 1.386 1.405.763 0 1.383-.632 1.383-1.405 0-.782-.62-1.414-1.383-1.414zM6.777 28.753c0-1.252.998-2.269 2.226-2.269 1.227 0 2.223 1.017 2.223 2.269 0 1.253-.996 2.273-2.223 2.273-1.228 0-2.226-1.02-2.226-2.273zm2.226 1.413c.763 0 1.383-.632 1.383-1.413 0-.778-.62-1.409-1.383-1.409-.765 0-1.386.631-1.386 1.409 0 .781.621 1.413 1.386 1.413zM29.719 6.377c.367.438.845.658 1.43.658.437 0 .807-.142 1.119-.423.311-.28.537-.718.673-1.319l1.566.497c-.244.897-.646 1.563-1.205 1.996-.565.437-1.274.654-2.138.654-1.069 0-1.946-.37-2.632-1.11-.691-.74-1.034-1.753-1.034-3.035 0-1.361.347-2.419 1.038-3.167.69-.751 1.599-1.129 2.721-1.129.985 0 1.785.292 2.401.883.365.347.638.848.823 1.502l-1.608.389c-.094-.422-.294-.755-.594-.997-.303-.248-.668-.371-1.101-.371-.596 0-1.08.221-1.452.654-.372.434-.556 1.14-.556 2.112 0 1.032.18 1.768.549 2.206zm-7.223 1.484c-.294.213-.655.344-1.086.389-.271.029-.92.048-1.953.056h-2.73V.149h3.207c.635 0 1.108.026 1.419.082.312.053.591.165.838.333.244.172.45.396.613.681.165.283.247.601.247.953 0 .381-.102.732-.304 1.05-.2.318-.473.56-.82.718.49.146.864.389 1.124.744.263.347.395.754.395 1.229 0 .37-.086.733-.257 1.084a2.136 2.136 0 0 1-.693.838zm-1.229-6.049c-.136-.157-.337-.25-.609-.284-.161-.015-.619-.026-1.386-.026h-.926V3.39h1.062c.631 0 1.021-.011 1.175-.03.275-.034.492-.13.655-.291.157-.161.236-.374.236-.64 0-.25-.068-.456-.207-.617zm.334 3.421a.95.95 0 0 0-.506-.37c-.222-.082-.703-.12-1.44-.12h-1.309V6.93h1.502c.581 0 .953-.022 1.111-.056a.986.986 0 0 0 .59-.325c.149-.172.228-.401.228-.691 0-.248-.059-.453-.176-.625zM10.453 6.455H7.232L6.57 8.306H4.855L7.967.149h1.698l3.222 8.157h-1.742l-.692-1.851zM8.805 2.048L7.723 5.076h2.201L8.805 2.048zm14.167 66.143c-1.738 3.775-2.831 7.521-2.831 10.298H16.94c0-3.507 1.382-8.149 3.605-12.695l2.427 2.397zm-2.169-2.939l.013-.023c-.421-.422-.835-.839-1.271-1.274a1.238 1.238 0 0 1-.062-.063c.105-.468.28-1.178.543-1.911.189-.534.385-1.095.551-1.577l1.211 1.218.656.657.019-.032 2.33 2.4c4.239 4.333 7.77 8.38 9.681 13.091a1.646 1.646 0 0 1-.867 2.134c-.2.082-.408.123-.613.123a1.602 1.602 0 0 1-1.48-1.009c-1.726-4.254-4.999-7.964-9.171-12.212l-1.54-1.522z" class="cls-1"/></svg>