<svg xmlns="http://www.w3.org/2000/svg" width="68" height="65"><defs><linearGradient id="a" gradientUnits="userSpaceOnUse" x1="18" y1="113" x2="131"><stop offset="0" stop-color="#00adef"/><stop offset="1" stop-color="#31ecbe"/></linearGradient></defs><path fill="url(#a)" d="M50.885 62.662a.99.99 0 0 1-.391.329h14.523a1 1 0 0 1 1.005.998 1 1 0 0 1-1.005.998H1.699a1.001 1.001 0 0 1-1.006-.998c0-.552.45-.998 1.006-.998H5.94V21.622l-4.257 3.714a1.01 1.01 0 0 1-1.419-.091.994.994 0 0 1 .091-1.409L27.39.251a1.014 1.014 0 0 1 1.257-.056l28.751 20.876c.013.009.018.023.03.033 6.366 4.113 10.588 11.236 10.588 19.323 0 10.617-7.273 19.575-17.131 22.235zm-1.195.329c-.016-.007-.028-.021-.043-.029l-.125.029h.168zm-.603-1.949l.006-18.136c0-1.919-1.702-2.666-3.159-2.722a2.984 2.984 0 0 0-2.176.841c-.642.613-.978 1.411-.978 1.881v6.686a.999.999 0 0 1-.666.94c-.399.14-.846.02-1.116-.306-.804-.971-1.587-1.24-3.372-1.15-1.83.093-3.21 1.442-3.21 3.137l-.049 6.511a21.16 21.16 0 0 0 10.437 2.75 21.36 21.36 0 0 0 4.283-.432zM28.111 2.28L7.929 19.886c.004.037.022.068.022.106v42.999h32.135c-10.542-2.17-18.49-11.463-18.49-22.564 0-12.707 10.411-23.045 23.208-23.045 1.642 0 3.245.173 4.792.497L28.111 2.28zm16.693 17.099c-11.688 0-21.198 9.442-21.198 21.048 0 6.989 3.463 13.176 8.76 17.006l.04-5.228c0-2.77 2.2-4.975 5.118-5.123 1.236-.058 2.294.013 3.246.453v-4.629c0-1.091.625-2.394 1.594-3.32.706-.673 1.904-1.47 3.647-1.396 2.999.114 5.093 2.053 5.093 4.716l-.006 17.621c8.626-2.668 14.907-10.67 14.907-20.1 0-11.606-9.511-21.048-21.201-21.048zm16.067 15.495c-1.365 1.241-4.095 2.012-7.126 2.012-3.214 0-6.018-.841-7.318-2.195a.994.994 0 0 1 .033-1.411 1.012 1.012 0 0 1 1.422.033c.728.76 2.874 1.577 5.863 1.577 2.854 0 4.954-.748 5.769-1.488a1.009 1.009 0 0 1 1.42.062.992.992 0 0 1-.063 1.41zm-24.916 1.881c-3.207 0-6.011-.842-7.316-2.197a.992.992 0 0 1 .03-1.411 1.009 1.009 0 0 1 1.422.031c.734.761 2.882 1.58 5.864 1.58 2.854 0 4.956-.748 5.773-1.489a1.011 1.011 0 0 1 1.421.065.991.991 0 0 1-.065 1.409c-1.368 1.241-4.099 2.012-7.129 2.012z"/></svg>