<svg xmlns="http://www.w3.org/2000/svg" preserveAspectRatio="xMidYMid" width="74" height="71" viewBox="0 0 74 71"><defs><style>.cls-1{fill:#fff;fill-rule:evenodd}</style></defs><path d="M73.249 65.157l-8.986-18.045-.779-1.56-1.165 1.287-3.502 3.861c-9.826-10.113-12.172-23.951-12.746-34.684h16.707a.396.396 0 0 0 .383-.317L66.367.48a.415.415 0 0 0-.08-.332.4.4 0 0 0-.308-.145H8.009a.394.394 0 0 0-.387.477l3.202 15.219a.4.4 0 0 0 .391.317h16.702c-.574 10.733-2.921 24.571-12.754 34.684l-3.493-3.861-1.166-1.287-.778 1.56L.74 65.157l-.751 1.508 1.665.216 28.719 3.717 3.21.413-2.184-2.406-4.295-4.738c4.172-4.122 7.372-8.624 9.89-13.255 2.518 4.632 5.718 9.133 9.891 13.255l-4.304 4.738-2.175 2.406 3.209-.413 28.72-3.716 1.661-.221-.747-1.504zM11.536 15.218L8.495.801h56.991l-3.037 14.417H46.033c-.034-.753-.063-1.487-.083-2.204h12.428c.2 0 .364-.145.396-.338L60.119 4a.4.4 0 0 0-.088-.32.387.387 0 0 0-.299-.141H14.253a.402.402 0 0 0-.391.461l1.349 8.676a.397.397 0 0 0 .392.338h12.436c-.02.717-.049 1.451-.084 2.204H11.536zm47.397-8.712l-.213 1.371H45.878l-.003-.746-.005-.625h13.063zm-13.068-.797l-.011-1.371h13.415l-.213 1.371H45.865zm12.732 2.962l-.214 1.379h-12.49c-.005-.471-.01-.932-.012-1.379h12.716zm-.337 2.173l-.213 1.371H45.928c-.01-.467-.02-.922-.026-1.371H58.26zm-42.655-.794l-.215-1.379h12.718c-.002.447-.007.908-.012 1.379H15.605zm12.482.794c-.006.449-.016.904-.027 1.371H15.941l-.213-1.371h12.359zm-12.82-2.967l-.213-1.371h13.065l-.005.625-.003.746H15.267zm-.338-2.168l-.213-1.371h13.419l-.011 1.371H14.929zm9.704 57.231l-.855.806.787.87 2.902 3.199-23.853-3.087 7.465-14.99 3.162 3.488.822.91.883-.854c8.141-7.84 11.719-17.897 13.295-27.2.97 6.952 2.852 14.578 6.426 21.972-2.662 5.246-6.225 10.33-11.034 14.886zm12.358-17.686c-4.551-10.262-5.861-20.859-6.257-29.238-.013-.261-.034-.541-.045-.798-.031-.769-.05-1.479-.069-2.204-.007-.269-.014-.536-.019-.799-.01-.451-.028-.939-.034-1.371-.004-.28-.005-.523-.008-.794-.004-.483-.006-.924-.008-1.379-.002-.262-.005-.542-.005-.794l-.005-.71-.002-.661-.002-.797a92.78 92.78 0 0 0-.018-1.371h12.943c-.006.43-.011.88-.013 1.371l-.003.797-.002.658-.005.713c0 .252-.003.532-.004.794-.003.455-.004.896-.009 1.379-.003.271-.004.514-.008.794-.005.432-.024.92-.033 1.371l-.02.799a128.44 128.44 0 0 1-.069 2.204c-.01.257-.032.537-.044.798-.396 8.381-1.709 18.976-6.261 29.238zm9.531 22.558l2.898-3.195.786-.867-.854-.805c-4.81-4.556-8.372-9.639-11.034-14.885 3.576-7.396 5.459-15.023 6.429-21.978 1.576 9.303 5.153 19.361 13.292 27.204l.878.854.827-.91 3.165-3.492 7.462 14.99-23.849 3.084z" class="cls-1"/></svg>