<svg height="76" overflow="visible" viewBox="0 0 82.75 83.784" width="75" xmlns="http://www.w3.org/2000/svg" xmlns:xlink="http://www.w3.org/1999/xlink"><defs><path id="a" d="M0 0h82.75v83.783H0z"/><clipPath id="b"><use xlink:href="#a"/></clipPath></defs><path clip-path="url(#b)" d="M66.076 51.221l-14.788-.056v-2.684c6.017-2.664 10.227-8.661 10.227-15.667 0-9.472-7.678-17.146-17.148-17.146-9.47 0-17.146 7.674-17.146 17.146 0 7.128 4.35 13.234 10.54 15.82v2.478l-13.844-.05-6.135 27.058h9.753l4.876-12.429v18.093H56.48V65.691l5.662 12.586h9.753z" fill="#fff"/><path clip-path="url(#b)" d="M6.91 39.089c0-20.296 16.453-36.75 36.75-36.75s36.75 16.454 36.75 36.75" fill="none" stroke="#fff" stroke-linecap="round" stroke-width="4.679"/><path clip-path="url(#b)" d="M7.171 49.022l-3.585-6.209L0 36.602h14.342l-3.586 6.211z" fill="#fff"/></svg>