<svg xmlns="http://www.w3.org/2000/svg" preserveAspectRatio="xMidYMid" width="73" height="75" viewBox="0 0 73 75"><defs><style>.cls-1{fill:#fff;fill-rule:evenodd}</style></defs><path d="M72.971 59.379L69.54 74.167c-.112.48-.536.82-1.024.82H5.157a1.05 1.05 0 0 1-1.012-.772L.027 59.427a1.062 1.062 0 0 1 1.012-1.345h2.515c.4 0 .763.23.94.586L9.696 69.17h54.688l4.304-10.433a1.05 1.05 0 0 1 .97-.655h2.288c.322 0 .625.149.824.4.199.255.273.586.201.897zm-2.612.82l-4.304 10.433a1.049 1.049 0 0 1-.97.654H9.045c-.397 0-.763-.229-.94-.585L2.903 60.199h-.478L5.954 72.87h61.728l2.941-12.671h-.264zM54.377 47.802l.482.893c.065.121 1.593 2.993 1.593 6.22 0 2.638-1.526 3.192-2.808 3.192-1.878 0-2.852-.853-3.069-2.682-.155-1.293.586-2.368 1.525-3.725.576-.836 1.231-1.786 1.827-2.989l.45-.909zm-2.762 7.497c.155 1.293.685 1.749 2.029 1.749.87 0 1.76-.25 1.76-2.133 0-1.91-.609-3.732-1.043-4.786-.476.832-.96 1.535-1.4 2.173-.843 1.22-1.452 2.101-1.346 2.997zm-6.274.348l.48.892c.066.122 1.599 2.993 1.599 6.22 0 2.638-1.525 3.195-2.805 3.195-1.882 0-2.858-.851-3.075-2.681-.152-1.297.587-2.367 1.521-3.725.578-.836 1.233-1.785 1.829-2.993l.451-.908zm-2.76 7.504c.154 1.289.687 1.745 2.034 1.745.868 0 1.756-.25 1.756-2.137 0-1.91-.61-3.732-1.044-4.786-.478.836-.963 1.539-1.402 2.177-.842 1.22-1.449 2.101-1.344 3.001zm-5.012-14.824l.482.893c.065.121 1.593 2.993 1.593 6.225 0 2.637-1.524 3.19-2.804 3.19-1.876 0-2.852-.852-3.075-2.677-.153-1.297.584-2.368 1.521-3.72.578-.841 1.235-1.794 1.834-3.002l.449-.909zm-2.763 7.505c.158 1.288.69 1.745 2.034 1.745.868 0 1.756-.25 1.756-2.132 0-1.915-.609-3.737-1.043-4.791-.478.84-.964 1.543-1.406 2.185-.84 1.216-1.446 2.097-1.341 2.993zm-5.651.509l.45-.909.482.893c.064.121 1.593 2.998 1.593 6.224 0 2.638-1.524 3.195-2.804 3.195-1.878 0-2.852-.852-3.069-2.681-.157-1.293.583-2.367 1.518-3.729.579-.836 1.234-1.785 1.83-2.993zm-.279 8.345c.868 0 1.756-.25 1.756-2.137 0-1.914-.609-3.736-1.041-4.79-.478.837-.962 1.539-1.402 2.177-.841 1.22-1.45 2.104-1.341 3.002.154 1.292.684 1.748 2.028 1.748zm-7.901-15.357l.449-.909.482.893c.065.121 1.591 2.989 1.591 6.22 0 2.638-1.525 3.196-2.802 3.196-1.878 0-2.854-.853-3.071-2.682-.157-1.293.585-2.368 1.522-3.729.577-.836 1.232-1.785 1.829-2.989zm-.28 8.341c.868 0 1.754-.25 1.754-2.137 0-1.914-.607-3.732-1.041-4.786-.476.832-.96 1.535-1.4 2.173-.841 1.22-1.45 2.105-1.344 3.001.155 1.293.685 1.749 2.031 1.749zm36.018-21.763h-8.141v10.559h-2.101V35.907h-8.138v10.559h-2.102V35.907h-8.14v10.559H25.99V35.907h-8.143v10.559h-2.101V-.01h2.101v10.562h8.143V-.01h2.101v10.562h8.14V-.01h2.102v10.562h8.138V-.01h2.101v10.562h8.141V-.01h2.101v46.476h-2.101V35.907zM25.99 12.669h-8.143v9.5h8.143v-9.5zm0 11.617h-8.143v9.504h8.143v-9.504zm10.241-11.617h-8.14v9.5h8.14v-9.5zm0 11.617h-8.14v9.504h8.14v-9.504zm10.24-11.617h-8.138v9.5h8.138v-9.5zm0 11.617h-8.138v9.504h8.138v-9.504zm10.242-11.617h-8.141v9.5h8.141v-9.5zm0 11.617h-8.141v9.504h8.141v-9.504z" class="cls-1"/></svg>