<svg xmlns="http://www.w3.org/2000/svg" preserveAspectRatio="xMidYMid" width="77" height="47" viewBox="0 0 77 47"><defs><style>.cls-1{fill:#fff;fill-rule:evenodd}</style></defs><path d="M72.618 15.683l-5.59-9.151v9.151h-4.077V.431h4.445l5.525 9v-9h4.078v15.252h-4.381zm-19.274.439c-4.592 0-8.306-2.812-8.306-7.956 0-4.989 3.173-8.17 8.007-8.17 4.724 0 6.474 2.7 7.012 3.703l-3.73 1.767c-.566-1.116-1.726-1.809-3.177-1.809-1.981 0-3.88 1.418-3.88 4.422 0 3.05 1.875 4.684 4.033 4.684 1.706 0 3.024-1 3.367-2.567h-3.928V6.838h8.115c.303 3.593-.711 9.284-7.513 9.284zM38.758.436h4.231v15.256h-4.231V.436zm29.03 36.928l-1.406 1.221C58.4 29.188 48.74 24.135 38.451 23.968c-10.088-.176-20.023 4.506-27.859 13.156l-1.367-1.266c8.201-9.046 18.657-14.008 29.254-13.761 10.839.176 20.972 5.454 29.309 15.267zM32.089 6.011c2.223.523 4.709 1.504 4.709 5.1 0 3.03-2.143 5.009-5.679 5.009-1.944 0-3.476-.651-5.654-2.441l2.004-3.246c1.189 1.157 2.506 2.026 3.755 2.026.78 0 1.491-.367 1.491-1.283 0-1.396-1.297-1.571-2.893-2.071-1.209-.37-3.601-1.221-3.601-4.51 0-2.461 1.766-4.597 5.306-4.597a7.837 7.837 0 0 1 4.599 1.5l-1.511 3.205c-.711-.651-1.665-1.349-2.74-1.349-1.273 0-1.577.76-1.577 1.308 0 .914 1.035 1.174 1.791 1.349zM15.341.431h9.065v3.66h-4.834v2.138h4.381v3.357h-4.381v2.441h4.834v3.656h-9.065V.431zM5.519 15.683H-.005V.434h5.524c6.216 0 7.768 4.204 7.768 7.624 0 4.1-2.348 7.625-7.768 7.625zM4.703 4.095h-.477v7.927h.477c4.187 0 4.228-3.176 4.228-3.964 0-.845-.041-3.963-4.228-3.963zm21.356 27.278c0-1.324.077-2.179.493-3.46l.069-.209.202-.082c7.493-2.962 15.843-2.787 23.494.496l.198.086.064.211c.356 1.185.356 1.74.356 2.958 0 6.922-5.582 12.554-12.436 12.554-6.859 0-12.44-5.632-12.44-12.554zm23.947 0c0-1.107 0-1.571-.255-2.479-7.308-3.079-15.237-3.246-22.383-.479-.323 1.052-.38 1.787-.38 2.958 0 6.406 5.162 11.62 11.511 11.62 6.345 0 11.507-5.214 11.507-11.62zm-16.224 2.069c0-2.628 2.11-4.76 4.717-4.76 2.603 0 4.713 2.132 4.713 4.76 0 2.628-2.11 4.761-4.713 4.761-2.607 0-4.717-2.133-4.717-4.761zm27.568 2.639l.647.665c-6.859 6.825-15.617 10.258-24.262 10.258-8.257 0-16.417-3.126-22.738-9.413l.647-.666C28.233 49.434 48.3 49.063 61.35 36.081z" class="cls-1"/></svg>