<svg xmlns="http://www.w3.org/2000/svg" width="69" height="42"><defs><linearGradient id="a" gradientUnits="userSpaceOnUse" x1="18" y1="113" x2="131"><stop offset="0" stop-color="#00adef"/><stop offset="1" stop-color="#31ecbe"/></linearGradient></defs><path fill="url(#a)" d="M63.366 19.588v19.635H51.675a8.104 8.104 0 0 1-6.133 2.804 8.086 8.086 0 0 1-6.124-2.804H-.009V11.889h14.481c-.005-.138-.021-.274-.021-.413 0-6.321 5.171-11.463 11.525-11.463 6.363 0 11.54 5.142 11.54 11.463 0 .139-.016.275-.021.413h15.32c.021-4.42 3.64-8.009 8.088-8.009 4.467 0 8.101 3.61 8.101 8.048 0 3.582-2.372 6.623-5.638 7.66zm-1.987 17.649V33.13h-7.78l.001.021c.011.108.011.219.018.329.009.157.025.316.025.472l-.001.01.001.021a7.96 7.96 0 0 1-.698 3.254h8.434zm-8.422-6.484l.077.176c.029.073.066.141.093.215h8.252v-4.598H48.71a8.091 8.091 0 0 1 4.247 4.207zm-13.441 4.146l.011.069a5.977 5.977 0 0 0 1.17 2.656l.293.379a6.103 6.103 0 0 0 4.552 2.037 6.12 6.12 0 0 0 4.554-2.029l.299-.388a5.972 5.972 0 0 0 1.174-2.659l.01-.063c.049-.308.076-.62.077-.937-.001-.033-.005-.065-.005-.098a5.776 5.776 0 0 0-.043-.61c-.008-.071-.021-.14-.032-.21a6.4 6.4 0 0 0-.16-.73 6.01 6.01 0 0 0-.273-.756 5.839 5.839 0 0 0-.155-.318 6.196 6.196 0 0 0-.675-1.041l-.084-.103a6.122 6.122 0 0 0-4.687-2.177 6.11 6.11 0 0 0-4.681 2.179l-.076.095a6.076 6.076 0 0 0-.475.683c-.07.118-.139.235-.201.358a5.52 5.52 0 0 0-.429 1.075c-.022.077-.041.156-.061.235a6.432 6.432 0 0 0-.098.486c-.012.076-.026.152-.035.23a5.834 5.834 0 0 0-.041.6c-.001.034-.005.068-.005.102 0 .316.027.628.076.935zM1.977 37.237H38.15a7.96 7.96 0 0 1-.698-3.254l.001-.021-.001-.01c0-.158.016-.319.026-.479.007-.107.007-.216.018-.322l.001-.021H1.977v4.107zm0-6.093h35.99c.028-.076.066-.147.096-.221l.07-.161a8.08 8.08 0 0 1 4.247-4.216H1.977v4.598zm0-6.584h59.402v-4.591h-.432l-.044.002-.043-.002H33.692a11.528 11.528 0 0 1-7.716 2.961 11.506 11.506 0 0 1-7.706-2.961H1.977v4.591zm0-10.685v4.107h14.525a11.36 11.36 0 0 1-1.792-4.107H1.977zM25.976 2c-5.259 0-9.538 4.251-9.538 9.476 0 .289.018.573.043.855l.058.415a9.485 9.485 0 0 0 2.835 5.512l.002.001a9.504 9.504 0 0 0 6.6 2.654 9.525 9.525 0 0 0 6.608-2.652l.004-.003a9.479 9.479 0 0 0 2.841-5.513l.057-.413c.025-.282.043-.567.043-.856C35.529 6.251 31.244 2 25.976 2zm11.281 11.875a11.33 11.33 0 0 1-1.795 4.107h20.132a8.027 8.027 0 0 1-2.531-4.107H37.257zm23.646-8.008c-3.365 0-6.104 2.719-6.104 6.061 0 .176.012.349.027.522l.041.293c.419 2.97 3.014 5.21 6.036 5.21.423 0 .849-.044 1.267-.131l.578-.121c2.472-.777 4.269-3.071 4.269-5.773 0-3.342-2.743-6.061-6.114-6.061z"/></svg>