<svg xmlns="http://www.w3.org/2000/svg" preserveAspectRatio="xMidYMid" width="76" height="79" viewBox="0 0 76 79"><defs><style>.cls-1{fill:#fff;fill-rule:evenodd}</style></defs><path d="M72.883 1.045l3.113 2.617-28.514 33.617-9.235-10.952-9.482 11.177L6.382 10.952.336 13.396 0 .004l15.297 7.348-4.663 1.885 18.144 21.518 6.622-7.81-10.157-12.049-6.189 2.5L18.722.004l15.294 7.348-4.805 1.94 8.856 10.507L54.052.95l3.339 2.807-16.476 19.424 6.574 7.798L72.883 1.045zm-5.959 77.969H6.216V37.725h60.708v41.289zm-3.121-38.183H9.337v35.076h54.466V40.831zm-36.968 1.294c9 0 16.322 7.285 16.322 16.243 0 8.956-7.322 16.242-16.322 16.242-8.999 0-16.32-7.286-16.32-16.242 0-8.958 7.321-16.243 16.32-16.243zm0 29.378c7.277 0 13.2-5.894 13.2-13.135 0-7.243-5.923-13.137-13.2-13.137-7.278 0-13.199 5.894-13.199 13.137 0 7.241 5.921 13.135 13.199 13.135z" class="cls-1"/></svg>