<svg xmlns="http://www.w3.org/2000/svg" width="67" height="68"><defs><linearGradient id="a" gradientUnits="userSpaceOnUse" x1="18" y1="113" x2="131"><stop offset="0" stop-color="#00adef"/><stop offset="1" stop-color="#31ecbe"/></linearGradient></defs><path fill="url(#a)" d="M66.901 39.043a.948.948 0 0 1-.797.543c-1.2.081-2.315.121-3.408.121-8.298-.001-15.262-2.457-21.294-7.511a.937.937 0 0 1-.285-1.023.947.947 0 0 1 .856-.637 40.11 40.11 0 0 0 6.436-.815c-5.803-8.441-7.938-15.306-6.496-20.902h-6.935a.945.945 0 0 1-.948-.942V.938c0-.519.424-.941.948-.941h28.968c.525 0 .949.422.949.941v6.939c0 .52-.424.942-.949.942h-7.414c-1.86 4.854-3.244 12.501-1.243 16.636 1.684-1.764 3.829-3.683 5.528-4.928a.957.957 0 0 1 1.156.022.938.938 0 0 1 .277 1.114c-1.675 3.785.198 10.54 4.555 16.426a.94.94 0 0 1 .096.954zm-7.099-15.276c-1.407 1.221-2.858 2.634-3.955 3.872a.935.935 0 0 1-.75.319.95.95 0 0 1-.723-.376c-3.586-4.76-1.514-14.831.634-20.06a.948.948 0 0 1 .878-.586h7.112V1.88H35.927v5.056h7.272c.309 0 .6.15.777.402a.932.932 0 0 1 .114.863c-2.002 5.436.181 12.496 6.674 21.582a.94.94 0 0 1-.547 1.46c-1.884.46-3.791.792-5.697.991 5.261 3.804 11.098 5.589 18.176 5.59.522 0 1.049-.011 1.59-.029-3.232-4.862-4.857-10.037-4.484-14.028zm-32.804 16.34v1.004h9.917a.95.95 0 0 1 .923.722l4.948 20.463a.937.937 0 0 1-.178.803.95.95 0 0 1-.744.358h-7.17a.948.948 0 0 1-.896-.633l-2.366-6.756v10.993a.945.945 0 0 1-.949.942H11.862a.945.945 0 0 1-.949-.942v-9.777l-2.155 5.778a.95.95 0 0 1-.89.614H.923a.955.955 0 0 1-.739-.351.937.937 0 0 1-.187-.793L4.58 41.85a.946.946 0 0 1 .926-.739h9.839v-.404c-5.386-2.097-8.957-7.251-8.957-13.033 0-7.725 6.334-14.01 14.119-14.01 7.783 0 14.116 6.285 14.116 14.01 0 5.218-2.973 10.033-7.625 12.433zm-6.491-24.56c-6.739 0-12.222 5.44-12.222 12.127 0 5.201 3.341 9.816 8.312 11.483a.941.941 0 0 1 .645.892v2.003a.945.945 0 0 1-.949.942H6.269L2.103 61.793h5.105l3.764-10.092a.951.951 0 0 1 1.839.328v14.09h16.724v-15.63c0-.459.334-.852.791-.928a.953.953 0 0 1 1.054.62l3.989 11.393h5.291l-4.493-18.58H26.049a.945.945 0 0 1-.949-.942v-2.531c0-.366.214-.699.549-.854 4.298-1.986 7.076-6.302 7.076-10.993 0-6.687-5.481-12.127-12.218-12.127z"/></svg>