<svg xmlns="http://www.w3.org/2000/svg" preserveAspectRatio="xMidYMid" width="15" height="19" viewBox="0 0 15 19"><defs><style>.cls-1{fill:#bbb;fill-rule:evenodd}</style></defs><path d="M13.997 3v13.499A2.505 2.505 0 0 1 11.494 19H3.489a2.506 2.506 0 0 1-2.504-2.501V3H0V2h3.988v-.5c0-.827.674-1.5 1.502-1.5h4.003c.828 0 1.502.673 1.502 1.5V2h4.003v1h-1.001zM9.994 1.5c0-.276-.225-.5-.501-.5H5.49a.501.501 0 0 0-.501.5V2h5.005v-.5zM12.997 3H1.986v13.499c0 .827.674 1.501 1.503 1.501h8.005c.828 0 1.503-.674 1.503-1.501V3zM9.994 5h1.001v11H9.994V5zM6.991 5h1.001v11H6.991V5zM3.988 5h1.001v11H3.988V5z" class="cls-1"/></svg>