<svg xmlns="http://www.w3.org/2000/svg" preserveAspectRatio="xMidYMid" width="46" height="73" viewBox="0 0 46 73"><defs><style>.cls-1{fill:#fff;fill-rule:evenodd}</style></defs><path d="M39.817 33.635a6.175 6.175 0 0 0-4.617 2.063c-2.303-2.946-6.835-2.88-9.083.159-1.903-2.796-5.685-3.471-8.163-1.462V19.65c2.672-2.083 4.295-5.171 4.295-8.603 0-6.093-4.99-11.048-11.125-11.048S-.001 4.954-.001 11.047c0 3.971 2.178 7.604 5.607 9.559-.008.308-.043.547-.043.872v35.224c0 8.981 6.124 16.292 13.653 16.292h13.141c7.087 0 13.059-6.602 13.611-15.085.008-.066.043-.443.043-.509V39.751c0-3.37-2.781-6.116-6.194-6.116zM3.035 11.047c0-4.431 3.627-8.032 8.089-8.032 4.462 0 8.088 3.601 8.088 8.032 0 1.65-.543 3.177-1.44 4.484-.645-3.617-3.048-6.246-6.015-6.246-1.945 0-4.971 1.191-5.895 7.854a8.015 8.015 0 0 1-2.827-6.092zm39.896 46.724c-.439 6.847-5.083 12.207-10.574 12.207H19.216c-5.855 0-10.616-5.954-10.616-13.276l.004-6.975H8.6v-.297l.008-.004H8.6l.019-.101a2.172 2.172 0 0 0-.019-.177v-27.67c0-6.768 1.631-9.178 3.157-9.178 1.685 0 3.161 2.414 3.161 5.163v22.103c0 .466.396.852.769 1.137.369.286 1.04.328 1.487.213a1.507 1.507 0 0 0 1.118-1.215c.334-2.06 1.628-3.551 3.072-3.551 1.359 0 2.633 1.391 3.025 3.312.144.701 1.138 1.206 1.86 1.206.703 0 1.312-.481 1.476-1.16.438-1.832 1.665-3.108 2.99-3.108 1.339 0 2.574 1.296 3.001 3.151.167.713.87 1.187 1.562 1.168a1.51 1.51 0 0 0 1.425-1.326c.186-1.566 1.526-2.742 3.114-2.742 1.74 0 3.157 1.388 3.157 3.1v17.641l1.518.074-1.561.305z" class="cls-1"/></svg>