<svg xmlns="http://www.w3.org/2000/svg" width="45" height="58" viewBox="0 0 45 58"><path fill="#29AAE2" d="M44.45 12.187l-.771-.771L33.584 1.321 32.813.55A1.891 1.891 0 0 0 31.485 0H2.463C1.277 0 0 .916 0 2.926V56c0 .837.842 1.653 1.838 1.91.05.013.098.032.15.042.156.031.315.048.475.048h40.074c.16 0 .319-.017.475-.048.052-.01.1-.029.15-.042C44.158 57.653 45 56.837 45 56V13.978c0-.767-.092-1.333-.55-1.791zM41.435 12H33V3.565L41.435 12zM2.463 56c-.071 0-.135-.026-.198-.049A.458.458 0 0 1 2 55.537V41h41v14.537a.46.46 0 0 1-.265.414c-.063.023-.127.049-.198.049H2.463zM2 39V2.926C2 2.709 2.033 2 2.463 2h28.595a1.54 1.54 0 0 0-.058.391V14h11.609c.135 0 .264-.025.39-.058l.001.036V39H2z"/><path fill="#29AAE2" d="M15.727 43.924l-1.928 4.101h-.137l-1.777-4.101h-1.873l2.72 5.181L10.176 54h1.9l1.723-3.801h.137L15.535 54h1.901l-2.557-4.895 2.721-5.181h-1.873zM21.537 43.924h-1.668V54h6.303v-1.244h-4.635v-8.832zM32.44 49.064a5.399 5.399 0 0 0-1.019-.581c-.365-.159-.702-.323-1.012-.492s-.57-.364-.779-.588c-.21-.224-.314-.518-.314-.882 0-.146.036-.299.109-.458.073-.159.173-.303.301-.431a1.78 1.78 0 0 1 .438-.321c.165-.087.337-.139.52-.157.328-.027.597-.032.807-.014.209.019.378.051.506.096.127.046.226.091.294.137.068.046.13.082.185.109.009-.009.036-.055.082-.137.045-.082.1-.185.164-.308l.205-.396c.073-.142.137-.271.191-.39-.265-.173-.611-.299-1.039-.376a7.188 7.188 0 0 0-1.271-.116c-.41 0-.8.063-1.169.191s-.693.313-.971.554a2.65 2.65 0 0 0-.663.882 2.75 2.75 0 0 0-.246 1.189c0 .492.104.902.314 1.23.209.328.474.613.793.854.319.241.661.451 1.025.629.364.178.704.355 1.019.533s.576.376.786.595c.209.219.314.483.314.793 0 .511-.148.896-.444 1.155-.296.26-.723.39-1.278.39a3.49 3.49 0 0 1-.588-.055 5.937 5.937 0 0 1-.629-.144c-.21-.06-.413-.123-.608-.191a2.883 2.883 0 0 1-.485-.212l-.287 1.176c.155.137.339.253.554.349.214.096.439.171.677.226.237.055.472.094.704.116s.458.034.677.034c.51 0 .966-.077 1.367-.232s.738-.362 1.012-.622.485-.561.636-.902c.151-.341.226-.695.226-1.06 0-.538-.105-.978-.314-1.319a3.004 3.004 0 0 0-.79-.854zM18 13H6v22h33V17H18v-4zM8 19h8v2H8v-2zm0 4h8v2H8v-2zm0 4h8v2H8v-2zm8 6H8v-2h8v2zm21 0H18v-2h19v2zm0-4H18v-2h19v2zm0-4H18v-2h19v2zm0-6v2H18v-2h19zM8 17v-2h8v2H8z"/></svg>