<svg xmlns="http://www.w3.org/2000/svg" width="24" height="24" viewBox="0 0 24 24"><path fill="#888" d="M18.52 10.465c-.428 0-.753.171-.998.42a2.375 2.375 0 0 1-.012-.198c0-1.137-.737-1.872-1.879-1.872-.505 0-.891.12-1.178.289-.173-.508-.679-1.071-1.648-1.071-.535 0-.945.136-1.25.308l-.025-2.988c0-.469-.66-1.38-1.869-1.38-1.04 0-1.62.832-1.799 1.323a.392.392 0 0 0-.023.118l-.252 6.695c-.44-.708-1.071-1.386-1.545-1.592-.547-.24-1.479-.078-2.032.353-.511.398-.645.964-.368 1.552.221.469.355 1.018.51 1.655.198.812.445 1.823.969 3.055.842 1.98 3.471 4.072 4.204 4.628v.528c0 1.474 1.41 1.713 3.142 1.713h3.441c1.732 0 3.142-.24 3.142-1.715v-.828c.884-1.033 1.411-2.891 1.434-2.973a.37.37 0 0 0 .014-.105v-6.186c.002-1.034-.794-1.729-1.978-1.729zm.918 7.859c-.166.569-.683 2.019-1.33 2.692a.417.417 0 0 0-.12.287v.982c0 .975-.933.809-2.079.809h-3.441c-1.146 0-2.08.167-2.08-.807v-.734a.426.426 0 0 0-.187-.344c-.032-.024-3.216-2.353-4.082-4.387-.498-1.171-.727-2.106-.928-2.931-.166-.678-.309-1.266-.565-1.808-.138-.292-.031-.436.076-.528.21-.179.552-.247.742-.247.049 0 .088.005.112.013.358.156 1.229 1.208 1.454 1.969.092.309.138.603.178.862.078.495.14.885.487 1.121a.612.612 0 0 0 .554.057c.182-.072.301-.225.308-.396l.357-9.417c.073-.157.333-.639.764-.639.615 0 .806.486.806.475 0 .213.05 5.685.05 5.685.002.239.223.435.503.448.282.026.523-.161.556-.399l.236-1.713c.098-.13.391-.435.992-.435.537 0 .637.379.659.574l.333 1.836c.043.236.295.403.572.382.279-.021.491-.223.484-.461l-.033-1.175c.057-.117.246-.372.811-.372.676 0 .817.526.817.967 0 .548.308 1.964.343 2.124.048.221.281.385.544.368.264-.01.479-.183.506-.406.075-.634.395-1.4.678-1.4.759 0 .917.448.917.823l.006 6.125z"/><path fill="#888" d="M12.464 5.028c-.065.243.112.487.398.543l1.553.305a.61.61 0 0 0 .12.012c.242 0 .461-.142.518-.351.066-.243-.112-.486-.398-.542l-1.553-.305c-.285-.058-.572.093-.638.338zM9.874 2.263c.293 0 .531-.202.531-.452V.453c0-.251-.238-.453-.531-.453-.293 0-.531.202-.531.453v1.358c0 .25.238.452.531.452zM12.37 3.29a.588.588 0 0 0 .334-.101l1.238-.854c.228-.157.263-.442.079-.636a.597.597 0 0 0-.748-.067l-1.238.854c-.228.157-.263.442-.079.636.106.11.259.168.414.168zM7.043 3.189a.591.591 0 0 0 .335.101.573.573 0 0 0 .413-.168c.185-.194.149-.479-.079-.636l-1.238-.855a.598.598 0 0 0-.748.067c-.184.194-.149.479.079.636l1.238.855zM5.212 5.887c.04 0 .08-.004.12-.011l1.553-.305c.286-.056.464-.299.398-.542-.066-.244-.353-.397-.638-.34l-1.552.305c-.285.056-.464.299-.398.542.057.21.276.351.517.351z"/></svg>