<svg xmlns="http://www.w3.org/2000/svg" preserveAspectRatio="xMidYMid" width="214" height="134" viewBox="0 0 214 134"><path d="M213.376 90.627c-5.248 1.992-11.197 4.251-21.455 4.357-.25.005-.498.006-.743.006-10.182 0-15.957-2.108-21.547-4.146-5.979-2.189-11.727-3.979-21.76-3.883-10.02.106-15.48 2.224-20.76 4.276l-.216.082-.725-1.863.217-.086c5.193-2.016 11.079-4.301 21.464-4.408 10.378-.103 16.527 1.829 22.443 3.995 5.692 2.075 11.058 4.031 20.862 4.031.246 0 .493 0 .745-.003 9.901-.104 15.673-2.293 20.765-4.229l.623-.235.71 1.869-.623.237zm-23.765-35.964c-.261.003-.52.003-.775.003-10.194.002-15.959-2.11-21.54-4.153-5.954-2.176-11.712-3.967-21.734-3.87-10.006.1-15.462 2.217-20.738 4.264l-.239.093-.723-1.862.238-.096c5.19-2.013 11.072-4.295 21.442-4.398 10.337-.088 16.526 1.828 22.442 3.99 5.553 2.033 11.315 4.137 21.607 4.029 9.884-.099 15.651-2.286 20.738-4.221l.651-.246.71 1.872-.649.246c-5.245 1.991-11.188 4.248-21.43 4.349zM162.109 2H32.022v30.999H30.02V0h134.091v32.999h-2.002V2zM46.145 44.026l1.35-1.475 27.797 25.413L47.53 95.906l-1.421-1.409L71.444 69H0v-1.999h71.272L46.145 44.026zm69.23 25.157c5.186-2.008 11.066-4.287 21.429-4.391 10.336-.097 16.525 1.829 22.441 3.992 5.822 2.127 11.314 4.126 21.607 4.03 9.895-.1 15.665-2.292 20.756-4.226l.633-.241.709 1.87-.631.24c-5.248 1.993-11.194 4.253-21.446 4.357-.253.003-.505.005-.754.005-10.187 0-15.963-2.111-21.555-4.156-5.96-2.178-11.675-3.965-21.74-3.871-9.999.1-15.453 2.213-20.726 4.257l-.251.097-.723-1.865.251-.098zM32.022 132h130.087v-29h2.002v30.999H30.02V103h2.002v29z" class="cls-1"/></svg>