<svg xmlns="http://www.w3.org/2000/svg" width="43.989" height="50.002" viewBox="0 0 43.989 50.002"><linearGradient id="a" gradientUnits="userSpaceOnUse" y1="25.001" x2="43.989" y2="25.001"><stop offset="0" stop-color="#008abf"/><stop offset=".374" stop-color="#15a5af"/><stop offset=".748" stop-color="#24b9a3"/><stop offset="1" stop-color="#2ac09f"/></linearGradient><path fill-rule="evenodd" clip-rule="evenodd" fill="url(#a)" d="M43.952 33.242c-.13.472-3.401 11.593-21.687 16.684l-.271.076-.271-.076C3.443 44.835.166 33.714.036 33.243L0 32.978V3.439l.478-.293C.688 3.018 5.804 0 22.011 0c16.208 0 21.293 3.02 21.502 3.148l.475.293-.036 29.801zM41.977 4.618c-1.553-.677-7.131-2.619-19.966-2.619-12.946 0-18.458 1.932-20 2.614v28.211c.388 1.133 4.061 10.574 19.983 15.103C37.909 43.4 41.585 33.97 41.977 32.824V4.618zM27.023 32.976h-9.052V26.98h-6.034v-8.993h6.034v-5.996h9.052v5.996h6.034v8.993h-6.034v5.996zm4.023-7.994v-4.996h-6.035V13.99h-5.029v5.996h-6.034v4.996h6.034v5.996h5.029v-5.997h6.035z"/></svg>