<svg xmlns="http://www.w3.org/2000/svg" width="71" height="76"><defs><linearGradient id="a" gradientUnits="userSpaceOnUse" x1="18" y1="113" x2="131"><stop offset="0" stop-color="#00adef"/><stop offset="1" stop-color="#31ecbe"/></linearGradient></defs><path fill="url(#a)" d="M70.702 34.241L60.69 44.319a1.024 1.024 0 0 1-1.448.001 1.044 1.044 0 0 1-.004-1.458l8.268-8.319H42.719a1.028 1.028 0 0 1-1.022-1.033c0-.567.458-1.028 1.022-1.028h24.784l-8.263-8.318a1.038 1.038 0 0 1-.001-1.457 1.02 1.02 0 0 1 .725-.295c.275 0 .539.108.725.295L70.7 32.783c.095.097.169.209.219.332.029.066.037.134.045.194l.007.049a.369.369 0 0 0 .01.039c.008.03.018.068.018.113 0 .281-.105.54-.297.731zM57.584 6.224c-.511.19-.915.596-1.103 1.111l-.233.636a.06.06 0 0 1-.057.039.058.058 0 0 1-.056-.039l-.234-.636a1.866 1.866 0 0 0-1.103-1.111l-.631-.234a.061.061 0 0 1-.04-.057.06.06 0 0 1 .04-.057l.631-.235c.512-.19.915-.596 1.103-1.11l.234-.636a.06.06 0 0 1 .056-.04c.025 0 .048.016.057.04l.233.636c.188.514.592.92 1.103 1.11l.632.235a.059.059 0 0 1 .039.057.06.06 0 0 1-.039.057l-.632.234zm-2.513 7.085l.163-.443a.043.043 0 0 1 .039-.029c.018 0 .034.012.04.029l.162.443c.132.359.413.642.77.774l.44.164a.042.042 0 0 1 .028.04.043.043 0 0 1-.027.04l-.441.163a1.307 1.307 0 0 0-.77.775l-.162.444a.043.043 0 0 1-.04.028.043.043 0 0 1-.039-.028l-.163-.444a1.306 1.306 0 0 0-.769-.775l-.441-.163a.042.042 0 0 1-.028-.04c0-.018.011-.034.028-.04l.441-.164c.356-.132.637-.415.769-.774zm-2.596-2.918a2.755 2.755 0 0 0-1.623 1.634l-.342.936a.09.09 0 0 1-.084.058.088.088 0 0 1-.083-.058L50 12.025a2.755 2.755 0 0 0-1.623-1.634l-.93-.345a.089.089 0 0 1-.058-.084c0-.038.023-.071.058-.084l.93-.345A2.755 2.755 0 0 0 50 7.899l.343-.936a.088.088 0 0 1 .083-.058.09.09 0 0 1 .084.058l.342.936a2.754 2.754 0 0 0 1.624 1.634l.929.345a.089.089 0 0 1 .058.084.089.089 0 0 1-.058.084l-.93.345zm.52-8.654a1.305 1.305 0 0 0-.77.775l-.162.443a.042.042 0 1 1-.079 0l-.163-.443a1.303 1.303 0 0 0-.769-.775l-.441-.163a.045.045 0 0 1-.027-.04c0-.018.011-.034.027-.04l.441-.164c.357-.132.638-.415.769-.774l.163-.444a.042.042 0 0 1 .079 0l.162.444c.132.359.413.642.77.774l.441.164a.043.043 0 0 1 .027.04.045.045 0 0 1-.027.04l-.441.163zM46 12.155l.204-.558a.054.054 0 0 1 .05-.035c.023 0 .042.014.05.035l.204.559c.166.451.52.807.968.973l.555.206a.053.053 0 0 1 .034.05.053.053 0 0 1-.034.05l-.555.206a1.646 1.646 0 0 0-.968.974l-.204.558a.053.053 0 0 1-.05.035.054.054 0 0 1-.05-.035L46 14.615a1.64 1.64 0 0 0-.968-.974l-.554-.206a.053.053 0 0 1-.035-.05c0-.022.014-.042.035-.05l.554-.206c.449-.166.803-.522.968-.974zm2.344-7.863a2.75 2.75 0 0 0-1.623 1.634l-.343.935a.087.087 0 0 1-.083.059.087.087 0 0 1-.083-.059l-.343-.935a2.75 2.75 0 0 0-1.623-1.634l-.93-.345a.09.09 0 0 1 0-.168l.93-.346A2.751 2.751 0 0 0 45.869 1.8l.343-.936a.088.088 0 0 1 .083-.058c.037 0 .071.023.083.058l.343.936a2.751 2.751 0 0 0 1.623 1.633l.93.346a.09.09 0 1 1 0 .168l-.93.345zM21.278 75.804a1 1 0 0 1-1.042.085 1.006 1.006 0 0 1-.546-.896V12.427c0-.321.152-.623.409-.811L35.609.199A.994.994 0 0 1 36.65.114c.335.172.546.518.546.896v62.567c0 .321-.152.622-.409.811L21.278 75.804zm3.497-65.14l-3.089 2.273v6.438l3.089-2.303v-6.408zm0 8.908l-3.089 2.305v6.291l3.089-2.282v-6.314zm0 8.808l-3.089 2.281v6.417l3.089-2.284V28.38zm0 8.908l-3.072 2.271c-.005.005-.011.005-.017.009v6.312l3.089-2.241v-6.351zm0 8.829l-3.089 2.241v6.885l3.089-2.345v-6.781zm0 9.3l-3.089 2.344v6.266l3.089-2.298v-6.312zm0 15.306v-6.495l-3.089 2.297v6.488l3.091-2.275-.002-.015zm5.212-63.896l-3.216 2.367v6.388l3.216-2.4V6.827zm0 8.857l-3.216 2.399v6.327l3.216-2.376v-6.35zm0 8.843l-3.216 2.377v6.413l3.216-2.378v-6.412zm0 8.906l-3.216 2.378v6.379l3.216-2.333v-6.424zm0 8.902l-3.216 2.334v6.713l3.216-2.441v-6.606zm0 9.124l-3.216 2.442v6.343l3.216-2.393v-6.392zm0 8.89l-3.216 2.393v6.529l3.216-2.367v-6.555zM35.2 2.99l-3.217 2.368v6.335l3.217-2.4V2.99zm0 8.805l-3.217 2.399v6.364l3.217-2.377v-6.386zm0 8.879l-3.217 2.377v6.411l3.217-2.379v-6.409zm0 8.903l-3.217 2.379v6.453l3.217-2.334v-6.498zm0 8.975l-3.217 2.335v6.537l3.217-2.441v-6.431zm0 8.949l-3.217 2.442v6.422l3.2-2.38c.006-.004.012-.004.017-.008v-6.476zm0 8.97l-3.217 2.393v6.57l3.217-2.368v-6.595zM14.322 66.485c-.511.19-.915.596-1.103 1.111l-.233.636a.061.061 0 0 1-.057.04.06.06 0 0 1-.056-.04l-.233-.636a1.872 1.872 0 0 0-1.103-1.111l-.632-.234a.061.061 0 0 1-.04-.057.06.06 0 0 1 .04-.057l.632-.235c.511-.19.914-.596 1.103-1.11l.233-.636a.06.06 0 0 1 .056-.04c.025 0 .048.016.057.04l.233.636c.188.514.592.92 1.103 1.11l.632.235a.059.059 0 0 1 .039.057.06.06 0 0 1-.039.057l-.632.234zm-2.513 7.085l.163-.443a.042.042 0 0 1 .079 0l.162.443c.132.359.413.642.77.774l.44.164a.042.042 0 0 1 .028.04.043.043 0 0 1-.027.04l-.441.163a1.307 1.307 0 0 0-.77.775l-.162.444a.043.043 0 0 1-.04.028.043.043 0 0 1-.039-.028l-.163-.444a1.306 1.306 0 0 0-.769-.775l-.441-.163a.042.042 0 0 1-.028-.04c0-.018.011-.034.028-.04l.441-.164c.356-.132.638-.415.769-.774zm-2.596-2.918a2.755 2.755 0 0 0-1.623 1.634l-.342.936a.09.09 0 0 1-.084.058.088.088 0 0 1-.083-.058l-.343-.936a2.755 2.755 0 0 0-1.623-1.634l-.93-.345a.089.089 0 0 1-.058-.084c0-.038.023-.071.058-.084l.93-.345a2.755 2.755 0 0 0 1.623-1.634l.343-.936a.088.088 0 0 1 .083-.058.09.09 0 0 1 .084.058l.342.936a2.754 2.754 0 0 0 1.624 1.634l.929.345a.089.089 0 0 1 .058.084.089.089 0 0 1-.058.084l-.93.345zm.52-8.654a1.305 1.305 0 0 0-.77.775l-.162.444a.042.042 0 1 1-.079 0l-.163-.444a1.303 1.303 0 0 0-.769-.775l-.441-.163a.045.045 0 0 1-.027-.04c0-.018.011-.034.027-.04l.441-.164c.357-.132.638-.415.769-.774l.163-.444a.042.042 0 0 1 .079 0l.162.444c.132.359.413.642.77.774l.441.164a.043.043 0 0 1 .027.04.045.045 0 0 1-.027.04l-.441.163zm-4.651 2.555a2.75 2.75 0 0 0-1.623 1.634l-.343.935a.087.087 0 0 1-.083.059.087.087 0 0 1-.083-.059l-.343-.935a2.75 2.75 0 0 0-1.623-1.634l-.93-.345a.09.09 0 0 1 0-.168l.93-.346a2.751 2.751 0 0 0 1.623-1.633l.343-.936a.088.088 0 0 1 .083-.058c.037 0 .071.023.083.058l.343.936a2.751 2.751 0 0 0 1.623 1.633l.93.346a.09.09 0 1 1 0 .168l-.93.345zM1.77 73.391a1.64 1.64 0 0 0 .968-.975l.204-.557a.053.053 0 0 1 .05-.036c.023 0 .042.014.05.036l.204.557c.166.452.52.808.968.975l.555.205a.053.053 0 0 1 .034.05.055.055 0 0 1-.034.051l-.555.205a1.646 1.646 0 0 0-.968.974l-.204.558a.053.053 0 0 1-.05.035.054.054 0 0 1-.05-.035l-.204-.558a1.64 1.64 0 0 0-.968-.974l-.554-.205a.054.054 0 1 1 0-.101l.554-.205z"/></svg>