<svg xmlns="http://www.w3.org/2000/svg" width="28" height="74"><defs><linearGradient id="a" gradientUnits="userSpaceOnUse" x1="18" y1="113" x2="131"><stop offset="0" stop-color="#00adef"/><stop offset="1" stop-color="#31ecbe"/></linearGradient></defs><path fill="url(#a)" d="M24.036 42.907c-2.287 0-3.947-1.598-3.947-3.89 0-2.127 1.899-3.599 3.947-3.599s3.953 1.472 3.953 3.599c0 2.292-1.669 3.89-3.953 3.89zm0-5.723c-1.109 0-2.009.882-2.009 1.854 0 1.219.894 2.103 2.009 2.103 1.112 0 2.032-.884 2.032-2.103 0-.972-.92-1.854-2.032-1.854zM26.23 13.67L11.639 31.708a1.008 1.008 0 0 1-1.245.261.996.996 0 0 1-.505-1.161l3.354-11.653H7.029c-.334 0-.647-.166-.834-.442a.992.992 0 0 1-.095-.935L13.17.624c.155-.374.522-.619.93-.619h10.624c.369 0 .708.2.884.523a.991.991 0 0 1-.043 1.021l-6.911 10.497h6.793c.387 0 .739.221.906.567a.992.992 0 0 1-.123 1.057zm-9.434.373c-.369 0-.708-.201-.884-.524a.993.993 0 0 1 .043-1.021l6.911-10.497h-8.092L8.526 17.158h6.049c.316 0 .613.148.802.398.191.25.251.574.164.875l-2.352 8.174 10.162-12.562h-6.555zM5.491 42.679l-.47-1.222H2.455l-.49 1.222H-.001l2.756-7.029h2.03l2.669 7.029H5.491zm-1.733-4.863l-.788 2.23h1.56l-.772-2.23zM14.23 35.65v3.954c0 .884-.042 1.79-.745 2.467-.6.583-1.542.794-2.375.794-.83 0-1.772-.211-2.351-.794-.724-.677-.748-1.583-.748-2.467V35.65H9.85v3.704c0 .902.063 1.892 1.26 1.892s1.26-.99 1.26-1.892V35.65h1.86zm2.157 7.029v-5.495h-1.536v-1.537h4.932v1.537h-1.536v5.495h-1.86zm-8.301 4.366c.152-.379.522-.629.934-.629h9.89c.373 0 .714.205.889.532a.99.99 0 0 1-.059 1.028l-4.122 5.996h6.755c.386 0 .739.22.905.566a.99.99 0 0 1-.122 1.056L8.561 73.635a1.005 1.005 0 0 1-1.246.261.994.994 0 0 1-.503-1.16l3.35-11.633H3.934c-.334 0-.645-.164-.832-.438A.992.992 0 0 1 3 59.736l5.086-12.691zm3.409 12.062c.315 0 .612.147.802.397.19.25.25.575.164.876l-2.348 8.15 10.164-12.562h-6.562c-.372 0-.714-.205-.888-.532a.988.988 0 0 1 .059-1.029l4.121-5.995H9.701L5.415 59.107h6.08z"/></svg>