<svg xmlns="http://www.w3.org/2000/svg" width="20" height="17" viewBox="0 0 20 17"><defs><style>.cls-1{fill:#00adef;fill-rule:evenodd}</style></defs><path id="wishlist" class="cls-1" d="M1121.38 437.577a5.563 5.563 0 0 0-3.91-1.566 5.662 5.662 0 0 0-2.01.364.774.774 0 0 0-.46.625c-.17.414-2 3-2 3l2 3-3 6 1-6-3-2s1.76-3.27 2-4c-.63-.738-2.64-1-3.47-1a5.585 5.585 0 0 0-3.91 1.566 5.222 5.222 0 0 0 .01 7.571l7.96 7.7a.587.587 0 0 0 .81 0l7.98-7.686a5.239 5.239 0 0 0 0-7.574z" transform="translate(-1103 -436)"/></svg>