<svg xmlns="http://www.w3.org/2000/svg" preserveAspectRatio="xMidYMid" width="67" height="67" viewBox="0 0 67 67"><defs><style>.cls-1{fill:#fff;fill-rule:evenodd}</style></defs><path d="M39.235 15.229V6.033h27.757v9.196H39.235zm0-15.239h27.757v4.729H39.235V-.01zm-4.538 21.981v16.116h15.481v28.901H17.481V38.087h15.621V21.971l-5.968-5.697h1.958l4.627 4.298 5.071-4.643 1.956.088-6.049 5.954zm7.607 24.524h4.671v-4.599h-4.671v4.599zm-12.011-3.496c-5.94 0-10.758 4.741-10.758 10.589 0 5.849 4.818 10.589 10.758 10.589 5.941 0 10.758-4.74 10.758-10.589 0-5.848-4.817-10.589-10.758-10.589zm0 19.879c-5.211 0-9.436-4.16-9.436-9.29 0-5.129 4.225-9.289 9.436-9.289s9.437 4.16 9.437 9.289c0 5.13-4.226 9.29-9.437 9.29zm0-17.65c-4.69 0-8.493 3.743-8.493 8.36 0 4.617 3.803 8.36 8.493 8.36 4.689 0 8.493-3.743 8.493-8.36 0-4.617-3.804-8.36-8.493-8.36zm0 15.606c-4.065 0-7.361-3.244-7.361-7.246 0-4.001 3.296-7.244 7.361-7.244 4.066 0 7.361 3.243 7.361 7.244 0 4.002-3.295 7.246-7.361 7.246zm0-13.377c-3.44 0-6.229 2.745-6.229 6.131s2.789 6.131 6.229 6.131c3.439 0 6.229-2.745 6.229-6.131s-2.79-6.131-6.229-6.131zm0 9.359c-1.811 0-3.278-1.445-3.278-3.228 0-1.782 1.467-3.227 3.278-3.227s3.278 1.445 3.278 3.227c0 1.783-1.467 3.228-3.278 3.228zM0 6.033h27.758v9.196H0V6.033zM0-.01h27.758v4.729H0V-.01z" class="cls-1"/></svg>