<svg xmlns="http://www.w3.org/2000/svg" preserveAspectRatio="xMidYMid" width="76" height="63.94" viewBox="0 0 76 63.94"><defs><style>.cls-1{fill:#fff;fill-rule:evenodd}</style></defs><path d="M75.29 39.216a.768.768 0 0 1-.636.739l-14.048 2.729c-.033.01-1.96.487-4.95.487-2.152 0-4.868-.746-4.985-.779L16.979 30.07c-.232-.084-5.767-2.113-7.095-5.963-.868-2.506-1.067-5.362-1.074-5.482l-.059-2.928-8.312-1.552.408-.888C4.028 6.351 7.736 1.452 15.493-.009L67.466 1.43h7.742c.213 0 .415.08.565.229.15.146.228.346.224.554l-.707 37.003zm-60.802-12.16c1.528 1.002 3.014 1.561 3.041 1.572l26.052 9.529-1.033-3.855-29.199-9.7 1.139 2.454zM15.62 1.517C9.027 2.777 5.596 7.003 2.707 13.002l38.935 7.266C47.087 9.253 54.96 4.675 60.573 2.777L15.62 1.517zm42.863 3.747c-5.06 2.305-11.237 6.919-15.669 16.199l-.263.546-30.879-5.766c-.203 1.38.003 3.162.098 3.796 1.598.447 11.012 3.099 20.424 5.758 5.163 1.461 10.328 2.921 14.2 4.025 3.353.954 5.048 1.435 5.898 1.723-.154-3.302.338-18.592 6.191-26.281zm1.582-.667c-7.162 7.525-7.212 26.469-6.984 27.309.057.065.049.124.038.196l-.049.325H52.468l-.034-.081c-2.257-.695-27.601-7.845-41.117-11.652l-.232-.065-.041-.233c-.019-.114-.427-2.484-.161-4.301l-.545-.102.053 2.567s.063.827.245 1.944l42.648 12.519.37-.188c-.101-3.162-.337-20.012 5.725-27.012.507-.588.991-1.066 1.466-1.499-.26.091-.51.169-.78.273zm7.461-1.63v.357c-2.219 0-4.139.259-6.934 3.489-6.164 7.117-5.348 26.248-5.34 26.437l.022.487-1.826.947-.31-.094-42.156-12.379c.115.469.244.945.402 1.404.19.552.525 1.046.905 1.514l-.587-1.266a.564.564 0 0 1 .105-.626.583.583 0 0 1 .629-.156l30.796 10.227a.584.584 0 0 1 .386.4l1.328 4.948 6.219 2.276c.012 0 2.579.702 4.491.702 2.773 0 4.58-.448 4.599-.451l7.113-1.382.66-36.834h-.502zm1.295 0l-.657 36.68 5.558-1.079.681-35.601h-5.582zM44.157 33.548l8.704 2.739.127 4.786-7.476-2.68-1.355-4.845zm2.342 3.963l5.254 1.887-.06-2.265-5.815-1.829.621 2.207zM9.959 4.187a.368.368 0 0 1 .412-.35l40.986 2.644a.38.38 0 0 1 .359.401.38.38 0 0 1-.386.35h-.026L10.318 4.587a.378.378 0 0 1-.359-.4zM12.9 3.028c.011-.206.172-.363.404-.357l40.129 1.978a.38.38 0 0 1 .367.395.381.381 0 0 1-.385.356h-.019L13.267 3.422a.38.38 0 0 1-.367-.394zm2.851-.953c.008-.208.225-.383.401-.361l40.675 1.479a.38.38 0 0 1 .371.39.38.38 0 0 1-.386.36h-.015L16.122 2.465a.381.381 0 0 1-.371-.39zm33.779 6.41a.38.38 0 0 1-.385.346h-.03L8.552 5.823a.38.38 0 0 1-.356-.405.381.381 0 0 1 .416-.346l40.563 3.009c.213.014.37.196.355.404zM3.695 51.076l2.185.08 11.196-10.1.09-2.277a.756.756 0 0 1 .25-.535l3.002-2.711a.81.81 0 0 1 .703-.189l2.193.456c.288.061.52.272.598.549a.752.752 0 0 1-.224.769l-2.324 2.094.206 1.661 1.508.372 2.302-2.076a.854.854 0 0 1 .778-.171.781.781 0 0 1 .535.575l.453 2.061a.758.758 0 0 1-.24.725l-2.896 2.605c-.153.134-.296.185-.565.204l-2.185-.077-11.2 10.097-.09 2.28a.757.757 0 0 1-.251.535l-3.001 2.71a.791.791 0 0 1-.539.204.759.759 0 0 1-.164-.015l-2.193-.451a.785.785 0 0 1-.599-.55.755.755 0 0 1 .225-.768l2.324-2.098-.206-1.658-1.505-.379-2.305 2.077a.825.825 0 0 1-.778.171.784.784 0 0 1-.535-.576l-.453-2.051a.766.766 0 0 1 .236-.724l2.9-2.616a.793.793 0 0 1 .569-.203zM1.7 55.028l1.602-1.443a.844.844 0 0 1 .737-.182l2.447.612a.78.78 0 0 1 .588.655l.318 2.573a.763.763 0 0 1-.247.654l-1.501 1.356.3.058 2.458-2.218.09-2.284a.753.753 0 0 1 .251-.535l11.678-10.527c.154-.138.352-.23.569-.204l2.186.076 2.327-2.094-.067-.306-1.598 1.439a.811.811 0 0 1-.734.182l-2.45-.605a.775.775 0 0 1-.592-.656l-.318-2.574a.766.766 0 0 1 .247-.656l1.501-1.351-.3-.062-2.458 2.218-.09 2.28a.76.76 0 0 1-.251.536L6.715 52.503c-.154.139-.367.194-.569.204l-2.186-.08-2.327 2.098.067.303zm16.005-5.756a.783.783 0 0 1 .587-.135l3.465.559c.109.017.21.057.303.112l1.243.779 23.803 3.8.276-1.647c.034-.2.15-.382.322-.502a.764.764 0 0 1 .587-.135l1.737.277c.21.033.393.145.516.313l.468.63 1.377-.958a.752.752 0 0 1 .588-.134L71.66 55.21a.775.775 0 0 1 .655.885l-1.209 7.19a.766.766 0 0 1-.321.502.797.797 0 0 1-.461.142c-.041 0-.085 0-.127-.007L51.51 60.943a.792.792 0 0 1-.517-.314l-.988-1.336-.651.455a.78.78 0 0 1-.595.139l-1.732-.281a.775.775 0 0 1-.651-.885l.28-1.65-23.798-3.795-1.43.389a.77.77 0 0 1-.341.019l-3.468-.547a.802.802 0 0 1-.517-.314.756.756 0 0 1-.138-.571l.419-2.477a.767.767 0 0 1 .322-.503zm52.919 7.333l-17.58-2.801-.317.22c.075-.018.135-.062.22-.053l17.366 2.768c.109.019.183.094.261.16l.05-.294zM52.09 59.472l17.579 2.804.077-.452c-.069.026-.127.073-.204.073-.03 0-.063-.004-.097-.007l-17.37-2.768a.585.585 0 0 1-.49-.667c.052-.309.318-.513.684-.477l17.371 2.768c.108.019.181.094.26.159l.182-1.081c-.069.027-.129.073-.206.073-.031 0-.064-.004-.098-.006l-17.367-2.776a.586.586 0 0 1-.49-.667c.053-.314.322-.517.685-.477l17.367 2.776c.11.018.184.094.264.16l.183-1.089c-.068.026-.128.072-.204.072a.836.836 0 0 1-.097-.007l-17.367-2.768a.585.585 0 0 1-.49-.667c.013-.075.075-.118.113-.179l-1.044.725-.474 2.81 1.233 1.668zm-3.394-1.159l.985-.693.475-2.814-.708-.955-.629-.102-.276 1.646c-.029.17-.142.307-.272.424l-.042.252c.087.151.148.319.119.49l-.281 1.65.629.102zM21.17 52.136l1.167-.317-.999-.63-2.522-.405-.161.955 2.515.397z" class="cls-1"/></svg>