<svg xmlns="http://www.w3.org/2000/svg" width="66" height="65"><defs><linearGradient id="a" gradientUnits="userSpaceOnUse" x1="18" y1="113" x2="131"><stop offset="0" stop-color="#00adef"/><stop offset="1" stop-color="#31ecbe"/></linearGradient></defs><path fill="url(#a)" d="M65.58 43.746a25.405 25.405 0 0 1-.686 2.876 45.144 45.144 0 0 0-.626-.91 53.928 53.928 0 0 0-1.06-1.446c-1.525-2.01-2.449-2.874-2.97-3.225-.655-.441-1.159-.438-1.804.007-.119.082-.263.2-.43.353a1.118 1.118 0 0 1-1.583-.075c-1.176-1.308-2.243-1.439-3.637-.475l-.932.649c-.38.266-.884.267-1.267.007-1.134-.772-2.29-.645-3.707.337l-1.467 1.015a1.116 1.116 0 0 1-1.533-.253l-5.862-7.968-1.044-1.526c-1.92-2.715-3.156-3.122-3.722-3.122-.285 0-.564.097-.851.295-.627.435-.861 1.001-.755 1.836.133 1.056.795 2.433 1.966 4.091l1.293 1.826 5.982 8.887c.098.147.16.315.18.491l.784 7.072c2.366 1.861 5.277 3.815 8.685 5.833.734.434 1.497.873 2.276 1.313a26.005 26.005 0 0 1-12.803 3.357c-14.325 0-25.979-11.549-25.979-25.745 0-14.199 11.654-25.75 25.979-25.75s25.979 11.551 25.979 25.75c0 1.536-.144 3.038-.406 4.5zM40.007 15.697c-13.101 0-23.758 10.564-23.758 23.549 0 12.982 10.657 23.545 23.758 23.545 2.817 0 5.508-.514 8.017-1.41-3.078-1.881-5.739-3.711-7.927-5.464a1.102 1.102 0 0 1-.405-.735l-.806-7.259-7.096-10.448c-1.4-1.984-2.169-3.645-2.35-5.081-.208-1.651.374-3.003 1.685-3.912.664-.459 1.379-.693 2.125-.693 1.797 0 3.612 1.333 5.551 4.076l1.032 1.508 5.198 7.066.575-.399c1.927-1.334 3.841-1.582 5.551-.746l.353-.245c2.026-1.401 4.073-1.353 5.816.086 1.339-.852 2.812-.822 4.159.085.621.417 1.344 1.109 2.175 2.073.059-.676.105-1.356.105-2.047 0-12.985-10.658-23.549-23.758-23.549zM42.924 3.39c-.681-.08-1.222.38-1.435 1.077a2.257 2.257 0 0 0-.091.44l-.325 2.796-.955-.109.413-3.607c.071-.619.126-1.149.148-1.642l.842.096-.084 1.035.045.004c.316-.678.951-1.058 1.593-.981.113.006.19.028.271.061l-.1.9a1.627 1.627 0 0 0-.322-.07zm-7.148 1.677c.035 1.297.876 1.821 1.844 1.808.696-.006 1.109-.134 1.473-.29l.174.683c-.338.157-.919.351-1.77.361-1.638.022-2.631-1.044-2.65-2.639-.019-1.59.912-2.859 2.463-2.874 1.735-.023 2.218 1.485 2.228 2.456.003.198-.016.351-.026.447l-3.736.048zm1.463-2.265c-.977.013-1.393.914-1.463 1.582l2.827-.042c0-.607-.274-1.553-1.364-1.54zM32.261.144l.958-.131 1.086 7.664-.964.137-1.08-7.67zm-.825 8.009L29.775.588l.948-.201 1.661 7.562-.948.204zm-3.057.927c-1.361.478-2.76-.145-3.321-1.719-.593-1.668.158-3.026 1.551-3.514 1.441-.502 2.786.198 3.327 1.715.655 1.847-.345 3.096-1.557 3.518zm.635-3.157c-.303-.843-1.103-1.766-2.186-1.386-1.077.373-1.193 1.524-.857 2.472.39 1.089 1.315 1.693 2.208 1.383.871-.306 1.232-1.347.835-2.469zm-5.681 2.035l1.264 2.514-.858.425-1.631-3.252a30.266 30.266 0 0 0-.774-1.454l.755-.373.493.913.042-.022c-.103-.741.216-1.396.799-1.683.097-.049.175-.071.258-.096l.407.814a1.421 1.421 0 0 0-.307.115c-.609.304-.812.971-.609 1.677.042.128.087.275.161.422zm-.912 2.888c.225-.14.341-.24.441-.352l.423.585c-.12.166-.339.377-.655.572-.38.236-.774.297-1.109.198-.384-.099-.719-.441-1.051-.971l-1.535-2.444-.699.438-.391-.62.697-.434-.519-.825.648-.747.674 1.077 1.18-.732.39.623-1.177.728 1.519 2.412c.354.559.709.773 1.164.492zm-4.079-.441l2.051 2.409-.739.616-1.979-2.322c-.555-.649-1.264-.987-1.961-.402-.483.408-.57 1.066-.348 1.584.042.115.132.256.239.38l2.066 2.425-.738.619-2.508-2.942c-.355-.415-.655-.75-.964-1.06l.657-.553.61.636.016-.02c-.129-.549.026-1.316.7-1.881.561-.473 1.721-.872 2.898.511zm-3.479 7.747c-.899 1.118-2.421 1.319-3.73.272-1.39-1.106-1.474-2.658-.545-3.796.957-1.182 2.473-1.287 3.74-.275 1.535 1.224 1.344 2.809.535 3.799zm-3.724-3.057c-.719.881-.21 1.923.584 2.552.906.725 2.012.754 2.605.023.58-.713.338-1.786-.597-2.534-.702-.559-1.876-.92-2.592-.041zm-2.695 3.737c-.619 1.045-.178 2.061.777 2.623 1.06.62 2.115.329 2.653-.575.284-.466.345-.85.381-1.144l.709.224c-.019.281-.142.856-.506 1.463-.816 1.374-2.296 1.709-3.695.888-1.416-.824-1.867-2.383-.977-3.865.287-.489.667-.85.916-1.007l.532.563c-.233.134-.52.38-.79.83zm-.671 5.683l-1.157 3.527c1.25.38 2.024-.243 2.321-1.157.216-.654.229-1.082.197-1.475l.709.057c.042.371.032.978-.226 1.776-.506 1.547-1.844 2.134-3.372 1.646-1.525-.492-2.438-1.773-1.961-3.236.542-1.636 2.138-1.604 3.067-1.307.193.064.325.128.422.169zm-2.85 1.422c-.303.923.425 1.603 1.038 1.881l.871-2.664c-.584-.201-1.574-.239-1.909.783zm.416 3.801l3.15.435-.136.949-3.04-.419c-.848-.121-1.599.096-1.728.991-.087.629.293 1.175.799 1.415.116.06.274.099.442.121l3.169.441-.135.949-3.846-.53a17.184 17.184 0 0 0-1.435-.154l.122-.846.877.067.004-.02c-.465-.328-.871-1.003-.749-1.865.104-.725.697-1.789 2.506-1.534zm2.473 6.782l-5.323-.067.012-.958 5.324.064-.013.961zm-6.823.036a.584.584 0 0 1-.593-.608c0-.361.268-.584.609-.581.332-.006.59.236.587.617a.575.575 0 0 1-.603.572zm6.845 1.894l-7.806.294-.032-.959 7.803-.29.035.955zm-3.089 4.926c.123.022.294.019.455-.007l3.157-.52.161.946-3.837.632c-.542.089-.983.169-1.412.275l-.136-.841.855-.195-.003-.022c-.545-.173-1.132-.7-1.274-1.559-.123-.722.126-1.91 1.928-2.207l3.134-.515.158.946-3.024.501c-.848.138-1.5.563-1.354 1.46.106.62.631 1.032 1.192 1.106zm.226 2.338c2.386-.901 4.201.061 4.875 1.811.697 1.815-.238 3.626-2.334 4.415-2.202.831-4.159.019-4.866-1.82-.719-1.873.268-3.633 2.325-4.406zm-1.576 4.172c.564 1.469 2.211 1.687 3.733 1.115 1.483-.559 2.502-1.856 1.97-3.249-.545-1.408-2.157-1.712-3.727-1.114-1.377.517-2.541 1.769-1.976 3.248z"/></svg>