<svg xmlns="http://www.w3.org/2000/svg" preserveAspectRatio="xMidYMid" width="81.969" height="156" viewBox="0 0 81.969 156"><path d="M75.75 154.031c-3.433 0-6.225-2.783-6.225-6.206 0-3.422 2.792-6.207 6.225-6.207 3.432 0 6.225 2.785 6.225 6.207 0 3.423-2.793 6.206-6.225 6.206zm0-10.408a4.213 4.213 0 0 0-4.213 4.202 4.211 4.211 0 0 0 4.213 4.201c2.322 0 4.213-1.884 4.213-4.201a4.214 4.214 0 0 0-4.213-4.202zm-12.09-8.447c-7.632 0-13.841-6.191-13.841-13.803 0-7.61 6.209-13.804 13.841-13.804 7.633 0 13.842 6.194 13.842 13.804 0 7.612-6.209 13.803-13.842 13.803zm0-25.602c-6.522 0-11.829 5.293-11.829 11.799 0 6.506 5.307 11.799 11.829 11.799 6.523 0 11.83-5.293 11.83-11.799 0-6.506-5.307-11.799-11.83-11.799zm4.971-54.319c1.652 5.196 3.211 10.101 3.211 15.313 0 17.729-11.783 26.72-35.022 26.72-22.075 0-31.919-9.079-31.919-29.439 0-5.989 1.316-10.78 2.589-15.417.376-1.369.755-2.743 1.1-4.157 3.146-12.814-.879-23.902-.92-24.013l-.607-1.637 1.724.302c.134.022 12.727 2.373 18.119 15.419 1.02-3.477 1.312-6.893 1.618-10.472.228-2.679.465-5.449 1.018-8.403C31.806 7.394 40.702 1.434 41.081 1.187l1.812-1.188-.26 2.144c-.021.165-1.81 15.88 6.41 29.592 4.712-14.082 18.913-15.707 19.064-15.721l1.658-.171-.622 1.541c-.051.125-5.07 12.729-3.888 23.932.525 4.965 1.975 9.528 3.376 13.939zm-1.972-36.953c-3.89.884-13.417 4.237-16.288 16.086l-.534 2.208-1.277-1.881c-7.973-11.754-8.327-25.154-8.098-30.48-2.613 2.315-7.43 7.535-8.941 15.604-.536 2.856-.767 5.577-.992 8.206-.396 4.637-.77 9.011-2.682 13.704l-1.077 2.642-.819-2.733C22.59 30.456 13.82 26.533 10.122 25.349c1.059 3.749 2.996 12.917.423 23.402-.35 1.431-.733 2.822-1.115 4.211-1.293 4.715-2.517 9.166-2.517 14.887 0 19.23 8.944 27.436 29.907 27.436 21.904 0 33.01-8.315 33.01-24.717 0-4.903-1.514-9.666-3.116-14.709-1.433-4.507-2.914-9.167-3.459-14.334-.989-9.369 2.043-19.341 3.404-23.223zm-49.751 96.913c0 4.037-3.294 7.321-7.342 7.321-4.049 0-7.343-3.284-7.343-7.321 0-4.036 3.294-7.322 7.343-7.322 4.048 0 7.342 3.286 7.342 7.322zm-12.673 0c0 2.933 2.392 5.318 5.331 5.318 2.939 0 5.33-2.385 5.33-5.318 0-2.931-2.391-5.317-5.33-5.317s-5.331 2.386-5.331 5.317zm17.146 28.624c0 5.882-4.799 10.669-10.697 10.669-5.898 0-10.698-4.787-10.698-10.669 0-5.881 4.8-10.667 10.698-10.667 5.898 0 10.697 4.786 10.697 10.667zm-19.383 0c0 4.778 3.897 8.666 8.686 8.666s8.685-3.888 8.685-8.666c0-4.776-3.896-8.663-8.685-8.663-4.789 0-8.686 3.887-8.686 8.663zm31.796-27.024c3.843 0 6.97 3.117 6.97 6.95s-3.127 6.949-6.97 6.949-6.97-3.116-6.97-6.949c0-3.833 3.127-6.95 6.97-6.95zm0 11.897c2.734 0 4.958-2.219 4.958-4.947 0-2.727-2.224-4.945-4.958-4.945s-4.958 2.218-4.958 4.945c0 2.728 2.224 4.947 4.958 4.947zm10.437 10.41c4.666 0 8.461 3.783 8.461 8.436 0 4.651-3.795 8.437-8.461 8.437-4.665 0-8.461-3.786-8.461-8.437 0-4.653 3.796-8.436 8.461-8.436zm0 14.868c3.556 0 6.449-2.887 6.449-6.432 0-3.549-2.893-6.434-6.449-6.434s-6.449 2.885-6.449 6.434c0 3.545 2.893 6.432 6.449 6.432z" class="cls-1"/></svg>