<svg xmlns="http://www.w3.org/2000/svg" preserveAspectRatio="xMidYMid" width="87.968" height="76.97" viewBox="0 0 87.968 76.97"><defs><style>.cls-1{fill:#fff;fill-rule:evenodd}</style></defs><path d="M68.06 42.631v34.342h-1.923V43.167l-5.153.02c-1.507 2.177-2.699 4.52-2.699 6.527l-1.903.194c-.329-1.571-1.055-4.176-2.077-6.695l-10.725.041c1.971 3.932 4.445 7.376 6.984 7.376h2.492l-1.846 1.666c-.112.1-11.331 10.303-11.331 17.317l-1.902.195c-1.001-4.801-4.81-17.266-10.314-17.266h-3.298l2.784-1.761c.068-.046 4.455-2.886 7.618-7.493l-34.774.133-.008-1.912 16.538-.064c-.831-3.307-3.064-9.802-6.029-9.802H7.215l2.76-1.762c.068-.043 6.756-4.383 6.756-10.493l1.887-.262c1.268 4.404 4.136 10.605 6.532 10.605h2.493l-1.846 1.666c-1.852 1.671-6.404 6.49-7.021 10.04l17.159-.066c1.188-2.192 2.022-4.68 2.022-7.407l1.886-.266c.523 1.811 1.525 4.735 2.829 7.647l10.782-.042c-1.359-2.759-3.102-5.022-5.152-5.022h-3.29l2.772-1.762c.087-.055 8.578-5.542 8.578-13.309l1.887-.263c1.491 5.19 5.093 13.421 8.403 13.421h2.5l-1.854 1.667a51.537 51.537 0 0 0-4.872 5.233l4.298-.016 20.814-18.94.416.451v1.766L68.06 42.631zM23.312 31.128c-2.373-1.346-4.211-5.047-5.344-7.951-1.205 3.289-3.717 5.776-5.372 7.141 2.508 1.456 4.171 5.32 5.109 8.232 1.423-2.967 4.064-5.871 5.607-7.422zm18.122 12.135a50.98 50.98 0 0 1-.869-1.91 63.484 63.484 0 0 1-1.256-3.141c-.299 1.112-.729 2.149-1.207 3.15a21.62 21.62 0 0 1-1.03 1.917c-2.207 3.632-5.206 6.35-7.104 7.831 4.591 1.968 7.466 9.497 8.878 14.317 2.086-5.351 7.295-10.881 9.759-13.301-2.909-1.243-5.351-5.057-7.171-8.863zm23.32-7.455c-3.203-1.59-5.688-6.867-7.095-10.592-1.44 4.57-5.01 7.97-7.151 9.684 2.183 1.086 3.863 3.679 5.098 6.394.29.639.55 1.277.791 1.911.345.905.651 1.793.899 2.601.381-.879.887-1.752 1.421-2.61.413-.666.859-1.289 1.322-1.919a48.881 48.881 0 0 1 4.715-5.469zM4.416 18.024l14.7-18.031h63.521L67.94 18.024H4.416zM20.034 1.905L8.452 16.111h58.571L78.601 1.905H20.034zM13.96 13.148l7.23-8.661h51.352l-7.23 8.661H13.96zm53.139-5.136L68.443 6.4H22.092l-1.204 1.443h46.211v.169zM19.404 9.756v-.132l-1.344 1.612h46.351l1.233-1.48h-46.24z" class="cls-1"/></svg>