<svg xmlns="http://www.w3.org/2000/svg" preserveAspectRatio="xMidYMid" width="77.656" height="76.12" viewBox="0 0 77.656 76.12"><defs><style>.cls-1{fill:#fff;fill-rule:evenodd}</style></defs><path d="M66.183 76.118V46.286c4.206-5.701 7.473-12.551 9.16-20.797h2.304v50.629H66.183zm-13.625-16.74c4.128-2.864 8.029-6.289 11.461-10.345v27.085H52.558v-16.74zm-10.381-4.712c-3.764 2.009-6.425 2.009-7.736-2.626-1.502-5.352-3.756-14.745-3.756-14.745a9.122 9.122 0 0 1-1.721.156c-.521 0-1.045-.024-1.53-.125-.325-.058-.634-.164-.947-.257.058.017.117.059.18.074 0 0-3.178 11.938-4.191 15.285-1.162 3.887-2.426 4.626-8.029 1.521C4.606 48.491-.347 37.944-.011 27.442c.129-4.239 1.44-6.526 6.139-5.349 5.404 1.365 14.689 4.144 14.689 4.144-.078.234-.113.474-.172.712.078-.318.145-.637.254-.944a8.73 8.73 0 0 1 2.121-3.235c-.019.016-.043.027-.059.043 0 0-8.768-8.693-11.183-11.245-2.781-2.93-2.844-4.395 2.669-7.693 9.68-5.76 21.329-4.753 30.285.772 3.647 2.243 4.97 4.526 1.573 7.999-3.873 3.965-10.944 10.605-10.944 10.605-.012-.012-.023-.019-.031-.031a8.474 8.474 0 0 1 1.937 3.581v.004c.008-.003 11.934-3.244 15.346-4.037 3.979-.938 5.27-.24 5.376 6.143.172 11.245-6.519 20.786-15.812 25.755zM24.671 36.32c.039.022.078.027.118.049a8.767 8.767 0 0 1-1.503-1.062c.423.372.877.721 1.385 1.013zm.004-14.792c-.039.024-.07.061-.109.084.188-.113.387-.206.587-.304-.161.078-.325.131-.478.22zm12.862 7.382a8.538 8.538 0 0 1 0 .001v-.001zM23.149 76.118H11.688v-2.144c2.34-.259 6.418-.835 11.461-2.024v4.168zm13.625 0H25.313v-4.703a99.833 99.833 0 0 0 11.461-3.706v8.409zm13.62 0H38.937v-9.301c3.819-1.626 7.701-3.603 11.457-6.008v15.309z" class="cls-1"/></svg>