<svg xmlns="http://www.w3.org/2000/svg" width="66" height="62"><defs><linearGradient id="a" gradientUnits="userSpaceOnUse" x1="18" y1="113" x2="131"><stop offset="0" stop-color="#00adef"/><stop offset="1" stop-color="#31ecbe"/></linearGradient></defs><path fill="url(#a)" d="M42.237 13.305l1.869-.738a6.993 6.993 0 0 0 6.543 4.457 6.982 6.982 0 0 0 6.547-4.481l1.871.73a8.976 8.976 0 0 1-8.418 5.763 8.992 8.992 0 0 1-8.412-5.731zM66.98 61.988H36.549V32.53H25.601L36.424 0H66.98v2.012H37.871l-9.484 28.506h10.171v17.779c4.651-.514 8.637-3.507 10.373-7.959l1.872.731c-2.041 5.233-6.756 8.752-12.245 9.272v9.635H66.98v2.012zM.81 37.485h24.448v24.503H.81V37.485zm2.008 22.491h20.431V39.497H2.818v20.479zm10.187-1.104a4.2 4.2 0 0 1-4.191-4.199c0-1.139.469-2.234 1.276-3.02l.01-7.697v-2.895H15.792v10.466a4.203 4.203 0 0 1-2.787 7.345zm0-2.012a2.191 2.191 0 0 0 1.223-4.007l-.445-.298v-6.786h-1.677l-.008 6.847-.401.302a2.208 2.208 0 0 0-.874 1.755c0 1.205.978 2.187 2.182 2.187zm-.895-13.787l-.001.684h1.555v-.684H12.11zm-.763-19.877c-6.263 0-11.359-5.103-11.359-11.375C-.012 5.048 4.216.795 11.298.443l.111-.005.097.014h3.897l-3.48 1.891a8.32 8.32 0 0 0-4.351 7.319c0 4.59 3.729 8.325 8.314 8.325a8.262 8.262 0 0 0 3.161-.627l3.595-1.48-2.429 3.04a11.302 11.302 0 0 1-8.866 4.276zm4.539-3.197c-5.692 0-10.323-4.637-10.323-10.337 0-2.457.867-4.782 2.382-6.607-3.822 1.245-5.948 4.31-5.948 8.766 0 5.162 4.195 9.363 9.35 9.363a9.282 9.282 0 0 0 4.552-1.185h-.013z"/></svg>