<svg xmlns="http://www.w3.org/2000/svg" xmlns:xlink="http://www.w3.org/1999/xlink" width="96.262" height="72.442" viewBox="0 0 96.262 72.442" overflow="visible"><defs><path id="a" d="M0 0h96.262v72.442H0z"/></defs><clipPath id="b"><use xlink:href="#a"/></clipPath><path clip-path="url(#b)" fill="#FFF" d="M22.325 71.688c-.163.082-1.507.754-3.117.754-2.873 0-5.012-1.997-5.012-5.299 0-2.75 1.671-5.276 5.012-5.276 1.079 0 1.996.245 3.117.774v3.098c-.672-.652-1.527-1.02-2.343-1.02-1.386 0-2.098 1.059-2.098 2.446 0 1.405.836 2.382 2.24 2.382.551 0 1.305-.182 2.201-.977v3.118zM23.549 67.144c0-2.77 1.812-5.276 5.887-5.276 4.075 0 5.89 2.507 5.89 5.276 0 2.813-1.815 5.299-5.89 5.299-4.075-.001-5.887-2.486-5.887-5.299m8.089 0c0-1.609-.775-2.709-2.202-2.709-1.426 0-2.2 1.1-2.2 2.709 0 1.631.774 2.731 2.2 2.731 1.427 0 2.202-1.101 2.202-2.731M37.076 62.233h3.566v1.141c.734-.956 1.834-1.507 3.199-1.507 3.199 0 3.505 2.853 3.505 4.463v5.745h-3.567v-5.42c0-.59-.039-1.854-1.262-1.854-.918 0-1.875.732-1.875 2.425v4.849h-3.566v-9.842zM49.77 64.802h-1.285v-2.569h1.285v-2.709h3.566v2.709h1.995v2.569h-1.995v7.273H49.77zM56.617 62.233h3.422v1.284c.102-.144.203-.265.306-.389a3.424 3.424 0 0 1 2.485-1.118c.265 0 .795.061.916.08v3.139c-.324-.143-.57-.163-.916-.163-2.607 0-2.648 2.485-2.648 2.812v4.197h-3.564v-9.842zM64.5 67.144c0-2.77 1.814-5.276 5.89-5.276s5.888 2.507 5.888 5.276c0 2.813-1.813 5.299-5.888 5.299s-5.89-2.486-5.89-5.299m8.09 0c0-1.609-.773-2.709-2.2-2.709s-2.202 1.1-2.202 2.709c0 1.631.775 2.731 2.202 2.731s2.2-1.101 2.2-2.731M78.029 57.1h3.564v14.976h-3.564zM4.521 49.625h3.771l1.655-13.47H6.174l-1.653 13.47zm6.194 0h3.638l1-8.082 4.08 8.082h3.81l1.655-13.47h-3.637l-.982 7.947-3.945-7.947h-3.963l-1.656 13.47zm19.014 0h3.656l6.754-13.47h-4.041l-3.906 8.89-1.828-8.89h-4.388l3.753 13.47zm9.833 0h8.082l.404-3.232h-4.311l.251-2.155h3.906l.366-2.964h-3.907l.231-1.885h4.311l.403-3.233h-8.082l-1.654 13.469zm10.102 0h3.771l.539-4.444 2.309 4.444h4.561l-3.117-5.388c1.116-.327 1.828-.886 2.31-1.425.673-.77 1.02-1.654 1.02-2.732 0-.962-.27-1.866-.731-2.501-1.039-1.386-2.752-1.424-3.617-1.424H51.32l-1.656 13.47zm5.061-10.507h.847c.539 0 1.059.077 1.366.481.174.23.289.558.289.904 0 .386-.135.847-.424 1.174-.442.48-1.174.539-1.616.539h-.847l.385-3.098zm9.217 10.507h3.771l1.251-10.236h2.963l.404-3.233h-9.698l-.404 3.233h2.964l-1.251 10.236zm8.082 0h8.082l.404-3.232H76.2l.25-2.155h3.906l.365-2.964h-3.906l.231-1.885h4.311l.403-3.233h-8.082l-1.654 13.469zm10.103 0h3.771l.539-4.444 2.309 4.444h4.561l-3.117-5.388c1.116-.327 1.828-.886 2.31-1.425.673-.77 1.02-1.654 1.02-2.732 0-.962-.27-1.866-.731-2.501-1.039-1.386-2.751-1.424-3.617-1.424h-5.389l-1.656 13.47zm5.061-10.507h.847c.539 0 1.059.077 1.366.481.174.23.289.558.289.904 0 .386-.135.847-.424 1.174-.442.48-1.174.539-1.616.539h-.847l.385-3.098z"/><path clip-path="url(#b)" fill="none" stroke="#FFF" stroke-width=".566" d="M0 51.225h.524M0 49.226l1.042.001M0 47.201l1.575.001M0 45.159h2.125M0 43.102h2.688M0 41.036h3.268M0 38.967h3.86M0 36.899h4.466M0 34.84h5.084M0 32.793h5.714M0 30.765h6.356M.499 28.762h6.508M1.254 26.787h6.414M2.019 24.847h6.319M2.791 22.948h6.226M3.571 21.094h6.131M4.357 19.291h6.038M5.15 17.545h5.942M5.948 15.86h5.848M6.75 14.244h5.754M7.557 12.7h5.66M8.366 11.234h5.565M9.178 9.852h5.471M9.992 8.559h5.376M10.807 7.36h5.281M11.622 6.262h5.187M12.436 5.27h5.094M13.25 4.388h5M14.062 3.622h4.904M14.871 2.978h4.811"/><path clip-path="url(#b)" fill="none" stroke="#FFF" stroke-width=".56" d="M15.659 2.388h4.877"/><path clip-path="url(#b)" fill="none" stroke="#FFF" stroke-width=".555" d="M16.441 1.876h4.944"/><path clip-path="url(#b)" fill="none" stroke="#FFF" stroke-width=".549" d="M17.219 1.439h5.011"/><path clip-path="url(#b)" fill="none" stroke="#FFF" stroke-width=".544" d="M17.991 1.076h5.077"/><path clip-path="url(#b)" fill="none" stroke="#FFF" stroke-width=".538" d="M18.757.782h5.144"/><path clip-path="url(#b)" fill="none" stroke="#FFF" stroke-width=".533" d="M19.518.556h5.211"/><path clip-path="url(#b)" fill="none" stroke="#FFF" stroke-width=".527" d="M20.272.395h5.277"/><path clip-path="url(#b)" fill="none" stroke="#FFF" stroke-width=".522" d="M21.021.296h5.345"/><path clip-path="url(#b)" fill="none" stroke="#FFF" stroke-width=".516" d="M21.765.258h5.411"/><path clip-path="url(#b)" fill="none" stroke="#FFF" stroke-width=".51" d="M22.501.276h5.478"/><path clip-path="url(#b)" fill="none" stroke="#FFF" stroke-width=".505" d="M23.232.35h5.544"/><path clip-path="url(#b)" fill="none" stroke="#FFF" stroke-width=".499" d="M23.957.475h5.611"/><path clip-path="url(#b)" fill="none" stroke="#FFF" stroke-width=".494" d="M24.675.65h5.678"/><path clip-path="url(#b)" fill="none" stroke="#FFF" stroke-width=".488" d="M25.387.872h5.744"/><path clip-path="url(#b)" fill="none" stroke="#FFF" stroke-width=".483" d="M26.093 1.138h5.811"/><path clip-path="url(#b)" fill="none" stroke="#FFF" stroke-width=".477" d="M26.792 1.446h5.877"/><path clip-path="url(#b)" fill="none" stroke="#FFF" stroke-width=".472" d="M27.484 1.794h5.944"/><path clip-path="url(#b)" fill="none" stroke="#FFF" stroke-width=".466" d="M28.169 2.178h6.011"/><path clip-path="url(#b)" fill="none" stroke="#FFF" stroke-width=".46" d="M28.848 2.596h6.078"/><path clip-path="url(#b)" fill="none" stroke="#FFF" stroke-width=".455" d="M29.52 3.045h6.145"/><path clip-path="url(#b)" fill="none" stroke="#FFF" stroke-width=".449" d="M30.184 3.523h6.211"/><path clip-path="url(#b)" fill="none" stroke="#FFF" stroke-width=".444" d="M30.841 4.028h6.278"/><path clip-path="url(#b)" fill="none" stroke="#FFF" stroke-width=".438" d="M31.492 4.557h6.344"/><path clip-path="url(#b)" fill="none" stroke="#FFF" stroke-width=".433" d="M32.135 5.106h6.411"/><path clip-path="url(#b)" fill="none" stroke="#FFF" stroke-width=".427" d="M32.77 5.674h6.478"/><path clip-path="url(#b)" fill="none" stroke="#FFF" stroke-width=".422" d="M33.398 6.258h6.544"/><path clip-path="url(#b)" fill="none" stroke="#FFF" stroke-width=".416" d="M34.019 6.855h6.61"/><path clip-path="url(#b)" fill="none" stroke="#FFF" stroke-width=".411" d="M34.631 7.464h6.678"/><path clip-path="url(#b)" fill="none" stroke="#FFF" stroke-width=".405" d="M35.237 8.08h6.745"/><path clip-path="url(#b)" fill="none" stroke="#FFF" stroke-width=".4" d="M35.834 8.702h6.812"/><path clip-path="url(#b)" fill="none" stroke="#FFF" stroke-width=".394" d="M36.423 9.327h6.878"/><path clip-path="url(#b)" fill="none" stroke="#FFF" stroke-width=".388" d="M37.004 9.953h6.945"/><path clip-path="url(#b)" fill="none" stroke="#FFF" stroke-width=".383" d="M37.578 10.577h7.012"/><path clip-path="url(#b)" fill="none" stroke="#FFF" stroke-width=".377" d="M38.143 11.195h7.078"/><path clip-path="url(#b)" fill="none" stroke="#FFF" stroke-width=".372" d="M38.699 11.807h7.145"/><path clip-path="url(#b)" fill="none" stroke="#FFF" stroke-width=".366" d="M39.248 12.409h7.21"/><path clip-path="url(#b)" fill="none" stroke="#FFF" stroke-width=".361" d="M39.787 12.998h7.278"/><path clip-path="url(#b)" fill="none" stroke="#FFF" stroke-width=".355" d="M40.318 13.572h7.346"/><path clip-path="url(#b)" fill="none" stroke="#FFF" stroke-width=".35" d="M40.841 14.129h7.412"/><path clip-path="url(#b)" fill="none" stroke="#FFF" stroke-width=".344" d="M41.354 14.665h7.479"/><path clip-path="url(#b)" fill="none" stroke="#FFF" stroke-width=".339" d="M41.859 15.179h7.545"/><path clip-path="url(#b)" fill="none" stroke="#FFF" stroke-width=".333" d="M42.355 15.667h7.612"/><path clip-path="url(#b)" fill="none" stroke="#FFF" stroke-width=".327" d="M42.842 16.128h7.679"/><path clip-path="url(#b)" fill="none" stroke="#FFF" stroke-width=".322" d="M43.32 16.558h7.745"/><path clip-path="url(#b)" fill="none" stroke="#FFF" stroke-width=".316" d="M43.789 16.955h7.812"/><path clip-path="url(#b)" fill="none" stroke="#FFF" stroke-width=".311" d="M44.248 17.316h7.878"/><path clip-path="url(#b)" fill="none" stroke="#FFF" stroke-width=".305" d="M44.698 17.639h7.945"/><path clip-path="url(#b)" fill="none" stroke="#FFF" stroke-width=".3" d="M45.138 17.921h8.012"/><path clip-path="url(#b)" fill="none" stroke="#FFF" stroke-width=".294" d="M45.569 18.159h8.078"/><path clip-path="url(#b)" fill="none" stroke="#FFF" stroke-width=".288" d="M45.99 18.352h8.146"/><path clip-path="url(#b)" fill="none" stroke="#FFF" stroke-width=".283" d="M46.402 18.496h8.212M47.134 18.667h8.14M47.862 18.806h8.071M48.586 18.911h8M49.308 18.986h7.929M50.024 19.03h7.86M50.739 19.046h7.788M51.449 19.034h7.718M52.156 18.995h7.648M52.859 18.932h7.578M53.56 18.843h7.505M54.256 18.732h7.436M54.949 18.599h7.365M55.639 18.445h7.295M56.324 18.272h7.224M57.007 18.08h7.153M57.685 17.871h7.083M58.36 17.646h7.013M59.032 17.406h6.942M59.7 17.152h6.871M60.364 16.885h6.801M61.025 16.607h6.731M61.683 16.319h6.659M62.336 16.021h6.589M62.986 15.715h6.519M63.633 15.403h6.448M64.276 15.084h6.376M64.916 14.762h6.306M65.552 14.436h6.235M66.185 14.107h6.165M66.813 13.777h6.094M67.438 13.448h6.024M68.06 13.12h5.953M68.678 12.794h5.883M69.293 12.471h5.812M69.903 12.154h5.742M70.511 11.842h5.671M71.114 11.537h5.601M71.715 11.24h5.529M72.311 10.953h5.459M72.903 10.676h5.389M73.493 10.411h5.319M74.079 10.158h5.247M74.661 9.919h5.177M75.239 9.696h5.107M75.813 9.489h5.037M76.386 9.299h4.965M76.953 9.127h4.895M77.517 8.976h4.824M78.077 8.845h4.754M78.634 8.736h4.682M79.187 8.651h4.612"/><path clip-path="url(#b)" fill="#FFF" d="M79.795 8.576h4.618"/><path clip-path="url(#b)" fill="none" stroke="#FFF" stroke-width=".283" d="M79.795 8.576h4.618"/><path clip-path="url(#b)" fill="#FFF" d="M80.412 8.523h4.626"/><path clip-path="url(#b)" fill="none" stroke="#FFF" stroke-width=".283" d="M80.412 8.523h4.626"/><path clip-path="url(#b)" fill="#FFF" d="M81.038 8.493h4.632"/><path clip-path="url(#b)" fill="none" stroke="#FFF" stroke-width=".283" d="M81.038 8.493h4.632"/><path clip-path="url(#b)" fill="#FFF" d="M81.672 8.482h4.639"/><path clip-path="url(#b)" fill="none" stroke="#FFF" stroke-width=".283" d="M81.672 8.482h4.639"/><path clip-path="url(#b)" fill="#FFF" d="M82.312 8.492h4.645"/><path clip-path="url(#b)" fill="none" stroke="#FFF" stroke-width=".283" d="M82.312 8.492h4.645"/><path clip-path="url(#b)" fill="#FFF" d="M82.958 8.521h4.652"/><path clip-path="url(#b)" fill="none" stroke="#FFF" stroke-width=".283" d="M82.958 8.521h4.652"/><path clip-path="url(#b)" fill="#FFF" d="M83.61 8.568h4.659"/><path clip-path="url(#b)" fill="none" stroke="#FFF" stroke-width=".283" d="M83.61 8.568h4.659"/><path clip-path="url(#b)" fill="#FFF" d="M84.266 8.633h4.666"/><path clip-path="url(#b)" fill="none" stroke="#FFF" stroke-width=".283" d="M84.266 8.633h4.666"/><path clip-path="url(#b)" fill="#FFF" d="M84.926 8.714h4.672"/><path clip-path="url(#b)" fill="none" stroke="#FFF" stroke-width=".283" d="M84.926 8.714h4.672"/><path clip-path="url(#b)" fill="#FFF" d="M85.587 8.81h4.68"/><path clip-path="url(#b)" fill="none" stroke="#FFF" stroke-width=".283" d="M85.587 8.81h4.68"/><path clip-path="url(#b)" fill="#FFF" d="M86.251 8.921h4.686"/><path clip-path="url(#b)" fill="none" stroke="#FFF" stroke-width=".283" d="M86.251 8.921h4.686"/><path clip-path="url(#b)" fill="#FFF" d="M86.915 9.047h4.692"/><path clip-path="url(#b)" fill="none" stroke="#FFF" stroke-width=".283" d="M86.915 9.047h4.692"/><path clip-path="url(#b)" fill="#FFF" d="M87.579 9.186h4.699"/><path clip-path="url(#b)" fill="none" stroke="#FFF" stroke-width=".283" d="M87.579 9.186h4.699"/><path clip-path="url(#b)" fill="#FFF" d="M88.242 9.336h4.706"/><path clip-path="url(#b)" fill="none" stroke="#FFF" stroke-width=".283" d="M88.242 9.336h4.706"/><path clip-path="url(#b)" fill="#FFF" d="M88.904 9.499h4.712"/><path clip-path="url(#b)" fill="none" stroke="#FFF" stroke-width=".283" d="M88.904 9.499h4.712"/><path clip-path="url(#b)" fill="#FFF" d="M89.562 9.671h4.72"/><path clip-path="url(#b)" fill="none" stroke="#FFF" stroke-width=".283" d="M89.562 9.671h4.72"/><path clip-path="url(#b)" fill="#FFF" d="M90.218 9.854h4.725"/><path clip-path="url(#b)" fill="none" stroke="#FFF" stroke-width=".283" d="M90.218 9.854h4.725"/><path clip-path="url(#b)" fill="#FFF" d="M90.868 10.045H95.6"/><path clip-path="url(#b)" fill="none" stroke="#FFF" stroke-width=".283" d="M90.868 10.045H95.6"/><path clip-path="url(#b)" fill="#FFF" d="M91.514 10.245h4.739"/><path clip-path="url(#b)" fill="none" stroke="#FFF" stroke-width=".283" d="M91.514 10.245h4.739"/><path clip-path="url(#b)" fill="#FFF" d="M92.152 10.451h4.11"/><path clip-path="url(#b)" fill="none" stroke="#FFF" stroke-width=".283" d="M92.152 10.451h4.11"/><path clip-path="url(#b)" fill="#FFF" d="M92.784 10.664h3.478"/><path clip-path="url(#b)" fill="none" stroke="#FFF" stroke-width=".283" d="M92.784 10.664h3.478"/><path clip-path="url(#b)" fill="#FFF" d="M93.408 10.883h2.854"/><path clip-path="url(#b)" fill="none" stroke="#FFF" stroke-width=".283" d="M93.408 10.883h2.854"/><path clip-path="url(#b)" fill="#FFF" d="M94.023 11.106h2.239"/><path clip-path="url(#b)" fill="none" stroke="#FFF" stroke-width=".283" d="M94.023 11.106h2.239"/><path clip-path="url(#b)" fill="#FFF" d="M94.63 11.333h1.632"/><path clip-path="url(#b)" fill="none" stroke="#FFF" stroke-width=".283" d="M94.63 11.333h1.632"/><path clip-path="url(#b)" fill="#FFF" d="M95.224 11.563h1.038"/><path clip-path="url(#b)" fill="none" stroke="#FFF" stroke-width=".283" d="M95.224 11.563h1.038"/><path clip-path="url(#b)" fill="#FFF" d="M95.808 11.794h.454"/><path clip-path="url(#b)" fill="none" stroke="#FFF" stroke-width=".283" d="M95.808 11.794h.454"/></svg>