<svg xmlns="http://www.w3.org/2000/svg" preserveAspectRatio="xMidYMid" width="169" height="132" viewBox="0 0 169 132"><path d="M169 98.001v2h-18.5v32H21v-32H0v-2h21V67H0v-2h21V33.999H0v-1.998h21v-32h129.5v32H169v1.998h-18.5V65H169v2h-18.5v31.001H169zm-20.5-96H23v30h18.137c.624-8.07 7.375-14.449 15.6-14.449 8.227 0 14.978 6.379 15.602 14.449H148.5v-30zM43.075 33.215c0 7.533 6.129 13.662 13.662 13.662 7.534 0 13.663-6.129 13.663-13.662 0-7.533-6.129-13.663-13.663-13.663-7.533 0-13.662 6.13-13.662 13.663zm105.425.784H72.361c-.413 8.271-7.252 14.879-15.624 14.879-8.371 0-15.209-6.608-15.622-14.879H23V65h47.479c.788-7.904 7.475-14.098 15.584-14.098 8.107 0 14.794 6.194 15.582 14.098H148.5V33.999zM72.399 66.566c0 7.533 6.129 13.661 13.664 13.661 7.533 0 13.662-6.128 13.662-13.661 0-7.535-6.129-13.664-13.662-13.664-7.535 0-13.664 6.129-13.664 13.664zM148.5 67h-46.797c-.233 8.435-7.151 15.229-15.64 15.229-8.491 0-15.409-6.794-15.642-15.229H23v31.001h76.855c.949-7.735 7.546-13.748 15.533-13.748 7.987 0 14.584 6.013 15.533 13.748H148.5V67zm-46.774 32.916c0 7.533 6.128 13.661 13.662 13.661 7.534 0 13.663-6.128 13.663-13.661 0-7.534-6.129-13.663-13.663-13.663-7.534 0-13.662 6.129-13.662 13.663zm46.774.085h-17.454c-.046 8.596-7.05 15.576-15.658 15.576-8.607 0-15.612-6.98-15.658-15.576H23v29.998h125.5v-29.998zm-33.165 2.66c.446 0 .799-.105 1.058-.317.259-.212.389-.497.389-.859 0-.361-.159-.643-.475-.847-.318-.203-.77-.306-1.357-.306h-1.32l-.456-1.622 2.594-2.328h-4.316v-2.566h8.158v2.27l-2.702 2.303c.427.093.809.22 1.146.38.337.159.644.365.921.615.276.251.49.561.639.934.151.372.226.79.226 1.261 0 1.128-.409 2.031-1.229 2.714-.819.685-1.864 1.025-3.134 1.025-1.997 0-3.595-.661-4.795-1.984l1.964-1.958c.844.857 1.741 1.285 2.689 1.285zM86.91 64.834c.219-.307.327-.629.327-.966 0-.349-.113-.624-.342-.829-.227-.201-.53-.306-.908-.306-.366 0-.718.112-1.052.331-.336.217-.732.586-1.188 1.109l-2.106-1.749c.644-.846 1.308-1.46 1.992-1.85.684-.389 1.548-.582 2.591-.582 1.227 0 2.223.336 2.988 1.01.765.676 1.146 1.552 1.146 2.631 0 .438-.053.834-.161 1.19a3.07 3.07 0 0 1-.518 1 6.027 6.027 0 0 1-.798.853c-.294.257-.671.548-1.132.87l-1.935 1.343h4.655v2.565h-8.915v-2.365l4.231-3.206c.531-.394.906-.745 1.125-1.049zM59.024 27.039v11.353h-3.057v-8.436l-1.903.433-.597-2.414 3.298-.936h2.259z" class="cls-1"/></svg>