<svg xmlns="http://www.w3.org/2000/svg" width="90" height="90"><defs><linearGradient id="a" x1="0%" x2="61.566%" y1="0%" y2="78.801%"><stop offset="0" stop-color="#0c90c2"/><stop offset="1" stop-color="#2dd2ab"/></linearGradient></defs><path fill="url(#a)" d="M82.24 89.999H7.761C3.481 89.999 0 86.517 0 82.238V7.758c0-4.277 3.481-7.76 7.761-7.76H82.24c4.278 0 7.76 3.483 7.76 7.76v74.48c0 4.279-3.482 7.761-7.76 7.761zM88 7.758a5.766 5.766 0 0 0-5.76-5.759H7.761A5.767 5.767 0 0 0 2 7.758v74.48a5.767 5.767 0 0 0 5.761 5.761H82.24A5.767 5.767 0 0 0 88 82.238V7.758zM45 69.125c-12.611 0-22.87-10.258-22.87-22.869 0-10.092 6.758-19.119 16.434-21.953a1.072 1.072 0 0 1 1.323.725 1.067 1.067 0 0 1-.724 1.323c-8.773 2.568-14.9 10.753-14.9 19.905 0 11.434 9.302 20.736 20.737 20.736 11.434 0 20.736-9.302 20.736-20.736 0-9.152-6.127-17.337-14.9-19.905a1.068 1.068 0 0 1-.724-1.323 1.09 1.09 0 0 1 1.323-.725c9.676 2.834 16.435 11.861 16.435 21.953 0 12.611-10.26 22.869-22.87 22.869zm0-22.869a1.068 1.068 0 0 1-1.067-1.065V17.628c0-.588.479-1.067 1.067-1.067s1.067.479 1.067 1.067v27.563c0 .587-.479 1.065-1.067 1.065z"/></svg>