<svg xmlns="http://www.w3.org/2000/svg" width="60" height="60"><defs><linearGradient id="a" gradientUnits="userSpaceOnUse" x1="18" y1="113" x2="131"><stop offset="0" stop-color="#00adef"/><stop offset="1" stop-color="#31ecbe"/></linearGradient></defs><path fill="url(#a)" d="M48.887 31.098v-2L60 29.095v2l-11.113.003zm-6.312-15.236l7.853-7.861 1.414 1.413-7.853 7.86-1.414-1.412zm2.631 20.073c-2.494 6.505-8.716 10.509-15.3 10.51a16.28 16.28 0 0 1-5.837-1.085 16.257 16.257 0 0 1-9.085-8.623 16.249 16.249 0 0 1-.344-12.519c3.229-8.426 12.717-12.653 21.147-9.42 4.074 1.558 7.299 4.618 9.08 8.616a16.257 16.257 0 0 1 .339 12.521zM43.04 24.227a14.242 14.242 0 0 0-7.968-7.562 14.305 14.305 0 0 0-5.132-.953c-5.783 0-11.244 3.512-13.433 9.222a14.265 14.265 0 0 0 .303 10.988 14.265 14.265 0 0 0 7.974 7.571h.001c7.395 2.833 15.718-.877 18.554-8.274a14.275 14.275 0 0 0-.299-10.992zm-6.735 5.426h3.178V31.2h-3.178v2.4h-1.861v-6.722h5.376v1.636h-3.515v1.139zm-6.48 0h3.179V31.2h-3.179v2.4h-1.86v-6.722h5.376v1.636h-3.516v1.139zm-4.064 3.062a3.535 3.535 0 0 1-1.15.745 3.747 3.747 0 0 1-1.436.276 3.716 3.716 0 0 1-1.847-.466 3.395 3.395 0 0 1-1.296-1.265 3.437 3.437 0 0 1-.466-1.763 3.48 3.48 0 0 1 1.036-2.472 3.535 3.535 0 0 1 1.153-.746c.45-.185.93-.278 1.439-.278s.988.093 1.434.275a3.55 3.55 0 0 1 1.146.741c.315.312.565.682.747 1.112.182.43.273.886.273 1.368 0 .475-.093.927-.278 1.358a3.482 3.482 0 0 1-.755 1.115zm-1.344-3.755c-.324-.356-.738-.535-1.242-.535-.496 0-.904.176-1.223.529-.319.351-.478.781-.478 1.288 0 .497.162.924.487 1.281a1.6 1.6 0 0 0 1.233.535c.504 0 .915-.176 1.233-.528.318-.352.478-.782.478-1.288 0-.499-.163-.926-.488-1.282zM28.889 0h2l.005 11.11-2 .001L28.889 0zM8.001 9.573l1.414-1.416 7.712 7.706-1.414 1.415-7.712-7.705zm2.902 21.533l-10.902.005-.001-2 10.902-.005.001 2zm6.232 13.035l-7.707 7.712-1.414-1.414 7.707-7.712 1.414 1.414zm13.771 15.858h-2l-.004-10.903h2l.004 10.903zm20.946-9.425l-1.414 1.414-7.86-7.856 1.414-1.415 7.86 7.857z"/></svg>