<svg xmlns="http://www.w3.org/2000/svg" preserveAspectRatio="xMidYMid" width="78.969" height="79.03" viewBox="0 0 78.969 79.03"><defs><style>.cls-1{fill:#fff;fill-rule:evenodd}</style></defs><path d="M39.474 79.032C17.7 79.032-.014 61.307-.014 39.521-.014 17.734 17.7.013 39.474.013c21.777 0 39.491 17.721 39.491 39.508 0 21.786-17.714 39.511-39.491 39.511zm0-77.896c-21.154 0-38.366 17.22-38.366 38.385 0 21.168 17.212 38.388 38.366 38.388 21.157 0 38.369-17.22 38.369-38.388 0-21.165-17.212-38.385-38.369-38.385zm0 71.505a33.157 33.157 0 0 1-20.821-7.381l-.484-.392 46.639-46.659.393.482a33.195 33.195 0 0 1 7.375 20.83c0 18.263-14.849 33.12-33.102 33.12zm-6.423-21.074l.989-.283.294-1.002-1.283 1.285zm16.606-16.613l1.992-.486.674-2.182-2.666 2.668zM64.716 19.89L54.52 30.09l1.584-.389-1.261 3.983 2.463-.603 1.308-3.994 3.343-.818-1.337 4.002 2.661-.652 1.928 1.684-.992 2.144-2.955.742 2.904 3.2-2.985.731-3.004-3.158-2.619.659 2.877 3.17-3.107.761-2.819-3.17-5.61 1.41.68.757.242-.207.837-.204.891.038.744.453.535.629.203.836-.032.897-.422.863-.63.531-.835.207-.892-.034-.744-.452-.254-.297-.784.124 3.418 3.561 4.165-.935 2.375 2.461-4.173.937 1.774 1.847 4.118-.923 2.375 2.461-4.194.859 2.002 2.083-.552 2.419-2.207.283-2.107-2.174-1.241 4.009-2.195-2.254 1.212-4.054-1.888-1.948-1.341 3.96-2.074-2.279 1.189-3.983-3.908-4.036-.55 1.523.614.301.535.633.175.716-.034.894-.423.866-.627.535-.837.203-.894-.034-.863-.422-.535-.633-.203-.836.064-.776.42-.863.015-.015-.732-.803-1.411 4.786 2.959 3.052-.91 3.01-2.968-2.943-.781 2.641 3.02 3.015-.907 3.01-3.01-2.98-.9 3.048-2.211.796-1.6-1.892.81-2.758-3.991 1.13.85-3.251 4.103-1.168.715-2.45-4.029 1.146.058-.196-9.259 9.261a32.005 32.005 0 0 0 19.625 6.745c17.634 0 31.979-14.356 31.979-31.997 0-7.1-2.387-14.043-6.737-19.631zM13.749 60.354a33.2 33.2 0 0 1-7.376-20.833c0-18.26 14.848-33.113 33.101-33.113a33.163 33.163 0 0 1 20.824 7.377l.484.392-46.639 46.659-.394-.482zM45.86 27.52l-.849.207-.254.897 1.103-1.104zM29.261 44.125l-1.724.418-.555 1.861 2.279-2.279zm-5.03 5.03l-.906.222 1.072-4.061-2.671.652-1.147 4.08-2.986.731.992-4.047-2.943.724-1.902-1.564.966-2.264 2.738-.686-2.987-2.928 3.224-.791 2.972 2.912 2.57-.644-3.033-2.882 3.314-.935L26.5 40.67l5.066-1.27-1.187-1.255-.527.132-.895-.038-.862-.422-.535-.629-.204-.836.035-.897.421-.863.629-.531.837-.208.894.039.863.417.563.75.024.098.817-.233-3.175-3.301-4.186 1.104-2.075-2.284 4.026-1.148-1.907-1.983-4.136 1.093-2.195-2.253 4.094-1.168-2.14-2.223.429-2.385 2.447-.347 1.952 2.038 1.1-4.05 2.373 2.46-1.134 4.036 1.82 1.899 1.035-4.073 2.373 2.46-1.068 4.058 2.753 2.875.315-.915-.209-.245-.208-.841.036-.892.422-.863.627-.535.838-.204.893.034.864.422.535.633.205.837-.036.893-.422.862-.058.049 1.056 1.089 1.59-5.561-2.789-3.131.849-3.249 2.881 3.128.714-2.453-2.804-3.15.97-3.278 2.791 3.131.753-2.603 2.211-.796 1.484 1.922-.801 2.811 4.07-.825-.791 2.984-4.179 1.021-.721 2.544 3.661-.747 9.53-9.533a32.046 32.046 0 0 0-19.628-6.74c-17.633 0-31.979 14.352-31.979 31.99 0 7.098 2.39 14.047 6.74 19.635l9.996-10.001z" class="cls-1"/></svg>