<svg xmlns="http://www.w3.org/2000/svg" width="42" height="61"><defs><linearGradient id="a" gradientUnits="userSpaceOnUse" x1="18" y1="113" x2="131"><stop offset="0" stop-color="#00adef"/><stop offset="1" stop-color="#31ecbe"/></linearGradient></defs><path fill="url(#a)" d="M36.075 60.98c-3.431 0-5.921-2.419-5.921-5.89 0-3.222 2.849-5.449 5.921-5.449s5.93 2.227 5.93 5.449c0 3.471-2.504 5.89-5.93 5.89zm0-8.665c-1.663 0-3.013 1.335-3.013 2.806 0 1.846 1.341 3.185 3.013 3.185 1.668 0 3.049-1.339 3.049-3.185 0-1.471-1.381-2.806-3.049-2.806zm-22.027-8.14l5.737-20.123h-9.772L19.837-.005h16.057L25.802 15.469h11.252L14.048 44.175zM32.178 2.01H21.186l-8.178 20.027h9.442l-3.735 13.097 14.147-17.651H22.087L32.178 2.01zM8.254 60.634l-.704-1.85H3.701l-.737 1.85H.015L4.15 49.991h3.045l4.004 10.643H8.254zm-2.599-7.363l-1.182 3.376h2.341l-1.159-3.376zm9.138 2.329c0 1.366.096 2.865 1.891 2.865s1.89-1.499 1.89-2.865v-5.609h2.791v5.987c0 1.339-.064 2.71-1.118 3.736-.9.884-2.313 1.202-3.563 1.202-1.245 0-2.658-.318-3.526-1.202-1.087-1.026-1.123-2.397-1.123-3.736v-5.987h2.758V55.6zm14.902-3.285h-2.304v8.319H24.6v-8.319h-2.304v-2.328h7.399v2.328z"/></svg>