<svg xmlns="http://www.w3.org/2000/svg" width="65" height="65"><defs><linearGradient id="a" gradientUnits="userSpaceOnUse" x1="18" y1="113" x2="131"><stop offset="0" stop-color="#00adef"/><stop offset="1" stop-color="#31ecbe"/></linearGradient></defs><path fill="url(#a)" d="M32.496 64.986c-7.75 0-14.872-2.732-20.462-7.278l-6.121 6.405c-.47.49-1.123.76-1.84.76-.789 0-1.594-.335-2.209-.918-.564-.542-.919-1.237-1.003-1.963-.093-.787.149-1.545.663-2.079l6.174-6.46C2.905 47.791.007 40.476.007 32.494.007 14.581 14.581.008 32.496.008c17.914 0 32.488 14.573 32.488 32.486 0 17.916-14.574 32.492-32.488 32.492zM2.961 61.29c-.139.143-.137.356-.124.471.031.264.177.539.401.754.241.229.554.368.835.368.12 0 .286-.026.401-.147l6.052-6.331 1.374-1.437L23.12 43.23a.54.54 0 0 0 .132-.391c-.005-.287-.157-.599-.406-.838-.244-.232-.549-.367-.834-.367-.121 0-.288.025-.405.147L10.41 53.496l-1.376 1.439-6.073 6.355zm30.994-17.533c8.98 0 16.285-7.594 16.285-16.929 0-9.329-7.305-16.919-16.285-16.919-8.977 0-16.281 7.59-16.281 16.919 0 9.335 7.304 16.929 16.281 16.929zM32.496 1.998c-16.817 0-30.499 13.68-30.499 30.496 0 7.417 2.664 14.222 7.081 19.515l11.093-11.606c.187-.194.413-.336.652-.451a19.2 19.2 0 0 1-5.139-13.124c0-10.426 8.196-18.908 18.271-18.908 10.077 0 18.275 8.482 18.275 18.908 0 10.432-8.198 18.92-18.275 18.92-3.18 0-6.171-.85-8.778-2.336a2.45 2.45 0 0 1-.621 1.196L13.415 56.264c5.228 4.206 11.864 6.732 19.081 6.732 16.817 0 30.498-13.683 30.498-30.502 0-16.816-13.681-30.496-30.498-30.496zm-8.815 30.499l-.98.175a9.522 9.522 0 0 1-.144-1.657h.995c0 .5.043.999.129 1.482zm1.02 2.788l-.859.502a9.333 9.333 0 0 1-.708-1.508l.935-.342c.17.466.383.92.632 1.348zm-1.506-7.701a9.77 9.77 0 0 1 .735-1.49l.851.515a8.598 8.598 0 0 0-.659 1.337l-.927-.362zm3.413 9.983l-.646.758a9.79 9.79 0 0 1-1.169-1.179l.763-.638a8.77 8.77 0 0 0 1.052 1.059zM24.909 24.75c.363-.416.764-.805 1.191-1.156l.632.769a9.101 9.101 0 0 0-1.073 1.041l-.75-.654zm4.253 14.345l-.361.927a9.937 9.937 0 0 1-1.491-.73l.511-.854c.429.256.88.477 1.341.657zm-1.695-16.443c.478-.273.985-.509 1.506-.702l.344.934a8.899 8.899 0 0 0-1.356.633l-.494-.865zm4.61 17.057l-.042.996a10.333 10.333 0 0 1-1.646-.208l.206-.974a9.1 9.1 0 0 0 1.482.186zM30.57 21.506c.54-.103 1.095-.163 1.647-.179l.027.996a9.264 9.264 0 0 0-1.487.16l-.187-.977zm4.744 18.814c-.531.152-1.077.261-1.624.326l-.116-.989a9.283 9.283 0 0 0 1.466-.294l.274.957zm-1.575-17.917l.134-.987c.549.074 1.094.194 1.619.355l-.292.952a9.038 9.038 0 0 0-1.461-.32zm4.56 16.489a10.15 10.15 0 0 1-1.432.838l-.43-.898a9.11 9.11 0 0 0 1.291-.755l.571.815zm-1.713-15.614l.445-.889c.495.246.972.537 1.418.862l-.587.804a9.071 9.071 0 0 0-1.276-.777zm4.065 13.285c-.324.45-.686.875-1.078 1.263l-.7-.707c.352-.349.679-.731.969-1.136l.809.58zm.476-3.255l.958.268a9.504 9.504 0 0 1-.586 1.556l-.898-.43c.216-.448.392-.917.526-1.394zm.312-2.292c0-.222-.007-.442-.025-.659l.991-.08a9.476 9.476 0 0 1-.014 1.664l-.991-.096c.027-.273.04-.549.039-.829zm-.767-3.534l.905-.413a9.52 9.52 0 0 1 .557 1.568l-.964.249a8.399 8.399 0 0 0-.498-1.404zm-1.682-2.449l.713-.694c.387.397.741.829 1.054 1.284l-.82.563a8.835 8.835 0 0 0-.947-1.153zm-15.436 5.822l-.995-.019c.01-.557.069-1.113.176-1.653l.975.192a8.482 8.482 0 0 0-.156 1.48z"/></svg>