<svg xmlns="http://www.w3.org/2000/svg" width="88" height="88" viewBox="0 0 88 88"><defs><linearGradient id="a" x1="0%" x2="61.566%" y1="0%" y2="78.801%"><stop offset="0%" stop-color="#00ADEF" stop-opacity=".8"/><stop offset="44%" stop-color="#1CD1DA" stop-opacity=".8"/><stop offset="100%" stop-color="#37F4C5" stop-opacity=".8"/></linearGradient></defs><path fill="url(#a)" d="M8 0h72a8 8 0 0 1 8 8v72a8 8 0 0 1-8 8H8a8 8 0 0 1-8-8V8a8 8 0 0 1 8-8z"/><path fill="#FFF" fill-rule="evenodd" d="M52.862 52.8v-2.4a15.317 15.317 0 1 0-12.1.136v2.221l-12.379-.047L22.9 76.93h8.72l4.362-11.13V82H57.51V65.8l5.061 11.271h8.724l-5.205-24.22zM46.041 7A34.991 34.991 0 0 0 11.2 39.766H7l3.2 5.561 3.207 5.557 3.2-5.557 3.207-5.561h-4.435a30.757 30.757 0 0 1 61.437 2.228 2.092 2.092 0 1 0 4.184 0A35.017 35.017 0 0 0 46.041 7z"/></svg>