<svg xmlns="http://www.w3.org/2000/svg" width="54" height="54"><defs><linearGradient id="a" gradientUnits="userSpaceOnUse" x1="18" y1="113" x2="131"><stop offset="0" stop-color="#00adef"/><stop offset="1" stop-color="#31ecbe"/></linearGradient></defs><path fill="url(#a)" d="M26.989 53.992C12.11 53.992.003 41.885.003 27.003.003 12.11 12.11-.006 26.989-.006c14.901 0 27.025 12.116 27.025 27.009 0 14.882-12.124 26.989-27.025 26.989zm0-51.995c-13.783 0-24.996 11.218-24.996 25.006 0 13.777 11.213 24.986 24.996 24.986 13.804 0 25.035-11.209 25.035-24.986 0-13.788-11.231-25.006-25.035-25.006zm-14.738 22.73l.568-1.92 13.889 4.155 11.465-15.576 1.599 1.192-12.294 16.703-15.227-4.554z"/></svg>