<svg id="Layer_1" data-name="Layer 1" xmlns="http://www.w3.org/2000/svg" viewBox="0 0 88 88"><defs><style>.cls-1{fill:url(#Безымянный_градиент)}.cls-2{fill:none}.cls-3{fill:#fff}</style><linearGradient id="Безымянный_градиент" x1="7.47" y1="-333.08" x2="80.53" y2="-426.59" gradientTransform="matrix(1 0 0 -1 0 -335.83)" gradientUnits="userSpaceOnUse"><stop offset="0" stop-color="#00adef"/><stop offset="1" stop-color="#37f4c5"/></linearGradient></defs><title>Монтажная область 15sky_air</title><path class="cls-1" d="M88 82a6 6 0 0 1-6 6H6a6 6 0 0 1-6-6V6a6 6 0 0 1 6-6h76a6 6 0 0 1 6 6z"/><path class="cls-2" d="M0-.1h88v87.8H0z"/><path class="cls-3" d="M37.6 20.1L19.8 66.3h12.8l3.2-8h16.6l3 8h12.8L50.8 20.1zm1.5 29l5-14.7h.1l4.9 14.7z"/></svg>