<svg xmlns="http://www.w3.org/2000/svg" preserveAspectRatio="xMidYMid" width="74" height="75" viewBox="0 0 74 75"><defs><style>.cls-1{fill:#fff;fill-rule:evenodd}</style></defs><path d="M71.908 37.089a2.094 2.094 0 0 1-2.092-2.095c0-16.985-13.807-30.804-30.775-30.804-16.216 0-29.513 12.633-30.662 28.576h4.441l-3.207 5.561-3.205 5.557-3.207-5.557-3.205-5.561h4.2C5.353 14.508 20.517-.001 39.041-.001 58.318-.001 74 15.699 74 34.994a2.094 2.094 0 0 1-2.092 2.095zm-38.144 8.669v-2.221c-5.533-2.311-9.426-7.778-9.426-14.163 0-8.48 6.866-15.349 15.335-15.349 8.468 0 15.337 6.869 15.337 15.349 0 6.272-3.767 11.641-9.148 14.026v2.404l13.228.047 5.205 24.224h-8.724L50.51 58.804V75H28.982V58.804L24.62 69.93h-8.723l5.485-24.22 12.382.048z" class="cls-1"/></svg>