<svg xmlns="http://www.w3.org/2000/svg" width="151" height="93"><defs><linearGradient id="a" x1="0%" x2="61.566%" y1="0%" y2="78.801%"><stop offset="0" stop-color="#0c90c2"/><stop offset="1" stop-color="#2dd2ab"/></linearGradient></defs><path fill="url(#a)" d="M147.57 81.952h-12.565v7.625a3.428 3.428 0 0 1-3.417 3.432h-11.166a3.428 3.428 0 0 1-3.417-3.432v-7.605h-19.01v4.589c0 1.893-1.533 3.433-3.417 3.433H56.412c-1.884 0-3.417-1.54-3.417-3.433v-4.589h-19v7.605a3.428 3.428 0 0 1-3.417 3.432H19.412a3.428 3.428 0 0 1-3.417-3.432v-7.625H3.43c-1.892 0-3.43-1.547-3.43-3.445V48.245a3.44 3.44 0 0 1 3.43-3.446h12.565v-7.635a3.429 3.429 0 0 1 3.417-3.432h11.166a3.429 3.429 0 0 1 3.417 3.432v7.619h19v-4.605a3.428 3.428 0 0 1 3.417-3.432h10.604v-13.61H56.412c-1.884 0-3.417-1.541-3.417-3.433V3.418c0-1.891 1.533-3.433 3.417-3.433h38.166c1.884 0 3.417 1.542 3.417 3.433v16.285c0 1.892-1.533 3.433-3.417 3.433H83.995v13.61h10.583a3.428 3.428 0 0 1 3.417 3.432v4.605h19.01v-7.619a3.429 3.429 0 0 1 3.417-3.432h11.166a3.429 3.429 0 0 1 3.417 3.432v7.635h12.565a3.44 3.44 0 0 1 3.43 3.446v30.262c0 1.898-1.538 3.445-3.43 3.445zM15.995 46.808H3.43c-.788 0-1.43.645-1.43 1.437v30.262c0 .792.642 1.435 1.43 1.435h12.565V46.808zm16-9.644c0-.784-.636-1.423-1.417-1.423H19.412c-.781 0-1.417.639-1.417 1.423v8.616c0 .008.005.015.005.024v35.144c0 .008-.005.015-.005.024v8.605c0 .784.636 1.422 1.417 1.422h11.166c.781 0 1.417-.638 1.417-1.422V37.164zm21 9.629h-19v33.17h19v-33.17zm41.583-25.667c.781 0 1.417-.639 1.417-1.423V3.418c0-.785-.636-1.423-1.417-1.423H56.412c-.781 0-1.417.638-1.417 1.423v16.285c0 .784.636 1.423 1.417 1.423h38.166zm-25.562 2.01v13.61h12.979v-13.61H69.016zm26.979 17.042c0-.784-.636-1.422-1.417-1.422H56.412c-.781 0-1.417.638-1.417 1.422v46.383c0 .785.636 1.424 1.417 1.424h38.166c.781 0 1.417-.639 1.417-1.424V40.178zm21.01 6.615h-19.01v33.17h19.01v-33.17zm16 34.179c0-.009-.005-.016-.005-.024V45.804c0-.009.005-.016.005-.024v-8.616c0-.784-.636-1.423-1.417-1.423h-11.166c-.781 0-1.417.639-1.417 1.423v52.413c0 .784.636 1.422 1.417 1.422h11.166c.781 0 1.417-.638 1.417-1.422v-8.605zM149 48.245c0-.792-.642-1.437-1.43-1.437h-12.565v33.134h12.565c.788 0 1.43-.643 1.43-1.435V48.245zM88.609 83.966H62.428a3.428 3.428 0 0 1-3.417-3.432V46.227c0-1.891 1.533-3.433 3.417-3.433h26.181c1.884 0 3.417 1.542 3.417 3.433v34.307a3.428 3.428 0 0 1-3.417 3.432zm1.417-37.739c0-.785-.635-1.423-1.417-1.423H62.428c-.782 0-1.417.638-1.417 1.423v34.307c0 .785.635 1.423 1.417 1.423h26.181c.782 0 1.417-.638 1.417-1.423V46.227zm-9.031 20.676h-2.984c-.553 0-1-.45-1-1.005 0-.556.447-1.006 1-1.006h2.984c.553 0 1 .45 1 1.006 0 .555-.447 1.005-1 1.005zm0-8.054H70.026c-.552 0-1-.45-1-1.005 0-.555.448-1.004 1-1.004h10.969c.553 0 1 .449 1 1.004 0 .555-.447 1.005-1 1.005zm-10.969 6.043h2.985c.552 0 1 .45 1 1.006 0 .555-.448 1.005-1 1.005h-2.985c-.552 0-1-.45-1-1.005 0-.556.448-1.006 1-1.006z"/></svg>