<svg xmlns="http://www.w3.org/2000/svg" preserveAspectRatio="xMidYMid" width="64.969" height="65.03" viewBox="0 0 64.969 65.03"><defs><style>.cls-1{fill:#fff;fill-rule:evenodd}</style></defs><path d="M33.225 65.036v-11.2c6.492-.177 12.176-4.158 14.553-10.283a1.38 1.38 0 0 0-.779-1.783 1.354 1.354 0 0 0-1.77.781c-1.967 5.06-6.648 8.351-12.004 8.528V33.103H21.834L32.784.022h32.175v65.014H33.225zm22.778-51.9a1.359 1.359 0 0 0-1.77.787c-1.109 2.858-3.793 4.703-6.845 4.703-3.034 0-5.717-1.835-6.83-4.678a1.369 1.369 0 0 0-1.777-.777 1.383 1.383 0 0 0-.772 1.789c1.529 3.902 5.212 6.423 9.379 6.423 4.189 0 7.878-2.535 9.394-6.461a1.38 1.38 0 0 0-.779-1.786zM17.291 53.902l-4.02-2.816-4.027 2.816 1.42-4.72-3.906-2.986 4.905-.101 1.608-4.658 1.609 4.658 4.905.101-3.91 2.986 1.416 4.72zm-6.958-33.098C4.625 20.804.006 16.153.006 10.41.006 4.67 4.625.012 10.333.012c.027 0 .058.01.096.01a9.35 9.35 0 0 0-4.864 8.223c0 5.168 4.165 9.354 9.294 9.354 1.25 0 2.445-.252 3.53-.704-1.891 2.383-4.794 3.909-8.056 3.909z" class="cls-1"/></svg>