<svg xmlns="http://www.w3.org/2000/svg" width="53" height="52"><defs><linearGradient id="a" x1="0%" x2="61.566%" y1="0%" y2="78.801%"><stop offset="0" stop-color="#0c90c2"/><stop offset="1" stop-color="#2dd2ab"/></linearGradient></defs><path fill="url(#a)" d="M49.06 51.998h-20.8a3.04 3.04 0 0 1-2.058-.809 3.036 3.036 0 0 1-2.057.809H3.344c-1.687 0-3.184-1.495-3.184-3.179V28.052c0-.793.312-1.51.811-2.054a3.024 3.024 0 0 1-.811-2.055V3.177c0-1.684 1.497-3.179 3.184-3.179h20.801c.795 0 1.513.311 2.057.81a3.037 3.037 0 0 1 2.058-.81h20.8c1.687 0 3.185 1.495 3.185 3.179v45.642c0 1.684-1.498 3.179-3.185 3.179zM25.201 3.053c0-.583-.473-1.056-1.056-1.056H3.219c-.583 0-1.056.473-1.056 1.056v20.89c0 .584.473 1.055 1.056 1.055h20.926c.583 0 1.056-.471 1.056-1.055V3.053zm0 24.999c0-.582-.473-1.054-1.056-1.054H3.219c-.583 0-1.056.472-1.056 1.054v20.893c0 .582.473 1.053 1.056 1.053h20.926c.583 0 1.056-.471 1.056-1.053V28.052zM50.242 3.177c0-.58-.599-1.18-1.182-1.18h-20.8c-.582 0-1.056.6-1.056 1.18V48.819c0 .581.474 1.179 1.056 1.179h20.8c.583 0 1.182-.598 1.182-1.179V3.177zM14.183 15.999H6.17a1.001 1.001 0 0 1 0-2h8.013a1 1 0 1 1 0 2zm0-4.001H6.17a1 1 0 1 1 0-2h8.013a1.001 1.001 0 0 1 0 2zm0-4H6.17a1.001 1.001 0 0 1-1.002-1c0-.552.449-1 1.002-1h8.013a1 1 0 1 1 0 2z"/></svg>