<svg xmlns="http://www.w3.org/2000/svg" preserveAspectRatio="xMidYMid" width="50" height="86" viewBox="0 0 50 86"><defs><style>.cls-1{fill:#fff;fill-rule:evenodd}</style></defs><path d="M49.987 42.727l-15.437 27.8V58.129H19.928v13.214L-.005 86.011V14.653L19.928-.015v27.274H34.55V14.787l15.437 27.94zM13.343 72.135l3.335-2.455v-6.931l-3.335 2.479v6.907zm3.335-11.013v-2.993h-3.335v5.475l3.335-2.482zM7.735 76.265l4.307-3.173v-6.895l-4.307 3.204v6.864zm0-8.488l4.307-3.204v-6.444h-1.988L7.735 59.89v7.887zm0-9.526l2.176-1.653v-8.226l-2.176 1.58v8.299zm0-9.911l2.176-1.579V38.82l-2.176 1.609v7.911zm0-9.543l2.176-1.609v-7.947l-2.176 1.606v7.95zm-1.301-24.83l-3.19 2.349v6.758l3.19-2.381v-6.726zm0 8.358l-3.19 2.376v7.837l3.19-2.357v-7.856zm0 9.484l-3.19 2.356v7.954l3.19-2.357v-7.953zm0 9.581l-3.19 2.357v7.852l3.19-2.314V41.39zm0 9.503l-3.19 2.314v8.452l3.19-2.42v-8.346zm0 9.982l-3.19 2.424v7.82l3.19-2.373v-7.871zm0 9.494l-3.19 2.374v6.828l3.19-2.349v-6.853zm5.608-60.532L7.735 13.01v6.715l4.307-3.213V9.837zm0 8.303l-4.307 3.213v7.866l2.176-1.608v-.352h.475l1.656-1.224V18.14zm4.636-11.715L13.343 8.88v6.66l3.335-2.487V6.425zm0 8.256l-3.335 2.49v7.903l3.335-2.463v-7.93zm0 9.558l-3.335 2.467v.553h3.335v-3.02z" class="cls-1"/></svg>