<svg xmlns="http://www.w3.org/2000/svg" width="48" height="22" viewBox="0 0 48 22"><linearGradient id="a" gradientUnits="userSpaceOnUse" x1="1.716" y1="22.539" x2="41.48" y2="-.418"><stop offset="0" stop-color="#2abbd8"/><stop offset="1" stop-color="#41dbb3"/></linearGradient><path fill-rule="evenodd" clip-rule="evenodd" fill="url(#a)" d="M47.909 11.293l-6.43 10.23s-.284.45-.515.474h-3.82c-.011 0-.021.003-.032.003H3.269C1.473 22 .018 20.522.018 18.7V3.3C.018 1.477 1.474 0 3.269 0h33.843c.011 0 .021.003.032.003h3.82c.247 0 .515.41.515.41l6.427 10.297a.61.61 0 0 1 .003.583zm-8.626-2.48a2.18 2.18 0 0 1 2.172 2.188 2.18 2.18 0 0 1-2.172 2.187 2.18 2.18 0 0 1-2.172-2.187 2.18 2.18 0 0 1 2.172-2.188z"/></svg>