<svg xmlns="http://www.w3.org/2000/svg" preserveAspectRatio="xMidYMid" width="70" height="63" viewBox="0 0 70 63"><defs><style>.cls-1{fill:#fff;fill-rule:evenodd}</style></defs><path d="M65.854 14.148l-5.29-8.492v8.492h-3.858V0h4.205l5.228 8.35V0h3.858v14.148h-4.143zm-3.056 18.704l2.531-8.633H69.7l-5.023 14.148h-3.92l-2.346-9.053-2.35 9.053h-3.92l-5.023-14.148h4.368l2.534 8.633 2.246-8.633h4.286l2.246 8.633zM50.131-.004h4.004v14.151h-4.004V-.004zm-6.146 14.152l-4.148-6.085v6.085h-4.001V0h4.001v5.939L44.147 0h4.699l-5.432 6.852 5.575 7.296h-5.004zm2.624 17.145c0 3.782-2.45 7.483-7.678 7.483s-7.678-3.701-7.678-7.483c0-3.782 2.45-7.478 7.678-7.478s7.678 3.696 7.678 7.478zm-11.232 0c0 2.727 1.694 4.083 3.554 4.083 1.859 0 3.553-1.356 3.553-4.083 0-2.727-1.694-4.083-3.553-4.083-1.86 0-3.554 1.356-3.554 4.083zM29.262-.004h4.003v14.151h-4.003V-.004zm-6.231 11.706h-4.858l-.794 2.446h-4.291L18.173 0h4.858l5.085 14.148H23.83l-.799-2.446zm-2.427-8.329L18.968 8.59h3.268l-1.632-5.217zM5.229 14.148H.001V0h5.228c5.88 0 7.35 3.9 7.35 7.074 0 3.8-2.226 7.074-7.35 7.074zM4.453 3.396h-.451v7.356h.451c3.963 0 4.001-2.952 4.001-3.678 0-.791-.038-3.678-4.001-3.678zM5.73 30.163l4.306-5.944h4.7l-5.433 6.853 5.575 7.295H9.874l-4.144-6.08v6.08H1.726V24.219H5.73v5.944zm7.358 23.372h4.862v-5.096h4.001V62.59H17.95v-5.661h-4.862v5.661H9.087V48.439h4.001v5.096zm16.224-29.316v14.148h-4.144l-5.289-8.487v8.487H16.02V24.219h4.206l5.228 8.35v-8.35h3.858zm2.257 23.815c5.228 0 7.678 3.701 7.678 7.482 0 3.782-2.45 7.479-7.678 7.479s-7.678-3.697-7.678-7.479c0-3.781 2.45-7.482 7.678-7.482zm0 11.566c1.86 0 3.554-1.356 3.554-4.084 0-2.731-1.694-4.083-3.554-4.083-1.859 0-3.553 1.352-3.553 4.083 0 2.728 1.694 4.084 3.553 4.084zm15.09-2.529l2.245-8.632h4.291l2.245 8.632 2.531-8.632h4.372L57.319 62.59h-3.924l-2.345-9.056-2.35 9.056h-3.92l-5.024-14.151h4.368l2.535 8.632z" class="cls-1"/></svg>