<svg xmlns="http://www.w3.org/2000/svg" width="45" height="58" viewBox="0 0 45 58"><path fill="#29AAE2" d="M44.45 12.187l-.771-.771L33.584 1.321 32.813.55A1.891 1.891 0 0 0 31.485 0H2.463C1.277 0 0 .916 0 2.926V56c0 .837.842 1.653 1.838 1.91.05.013.098.032.15.042.156.031.315.048.475.048h40.074c.16 0 .319-.017.475-.048.052-.01.1-.029.15-.042C44.158 57.653 45 56.837 45 56V13.978c0-.767-.092-1.333-.55-1.791zM41.435 12H33V3.565L41.435 12zM2.463 56c-.071 0-.135-.026-.198-.049A.458.458 0 0 1 2 55.537V41h41v14.537a.46.46 0 0 1-.265.414c-.063.023-.127.049-.198.049H2.463zM2 39V2.926C2 2.709 2.033 2 2.463 2h28.595a1.54 1.54 0 0 0-.058.391V14h11.609c.135 0 .264-.025.39-.058l.001.036V39H2z"/><path fill="#29AAE2" d="M16.735 45.4c-.424-.446-.957-.805-1.6-1.073s-1.388-.403-2.235-.403H9.865V54h3.814c.127 0 .323-.016.588-.048.264-.032.556-.104.875-.219.319-.114.649-.285.991-.513.342-.228.649-.54.923-.937s.499-.889.677-1.477c.178-.588.267-1.297.267-2.126a5.06 5.06 0 0 0-.314-1.757 4.421 4.421 0 0 0-.951-1.523zm-1.196 6.33c-.492.711-1.294 1.066-2.406 1.066h-1.627v-7.629h.957c.784 0 1.422.103 1.914.308s.882.474 1.169.807c.287.333.48.704.581 1.114.1.41.15.825.15 1.244 0 1.349-.246 2.38-.738 3.09zM26.765 45.072a3.8 3.8 0 0 0-1.326-.978 4.058 4.058 0 0 0-1.661-.335c-.601 0-1.155.111-1.661.335a3.8 3.8 0 0 0-1.326.978c-.378.429-.675.964-.889 1.606-.214.643-.321 1.388-.321 2.235s.107 1.595.321 2.242c.214.647.51 1.185.889 1.613.378.429.82.752 1.326.971s1.06.328 1.661.328 1.155-.109 1.661-.328c.506-.219.948-.542 1.326-.971s.674-.966.889-1.613c.214-.647.321-1.395.321-2.242s-.107-1.593-.321-2.235c-.215-.642-.511-1.177-.889-1.606zm-.677 5.626c-.137.487-.326.882-.567 1.183a2.143 2.143 0 0 1-.82.649 2.407 2.407 0 0 1-.964.198 2.14 2.14 0 0 1-.937-.212 2.184 2.184 0 0 1-.793-.67c-.232-.306-.415-.699-.547-1.183-.132-.483-.203-1.066-.212-1.75.009-.702.082-1.294.219-1.777.137-.483.326-.877.567-1.183s.515-.521.82-.649.626-.191.964-.191c.328 0 .64.068.937.205a2.1 2.1 0 0 1 .793.67c.232.31.415.704.547 1.183.132.479.203 1.06.212 1.743-.01.702-.082 1.297-.219 1.784zM32.562 45.954c.241-.306.515-.521.82-.649.305-.128.626-.191.964-.191.301 0 .59.06.868.178s.531.31.759.574l1.135-1.012a3.73 3.73 0 0 0-1.271-.82 4.212 4.212 0 0 0-1.531-.273c-.593 0-1.144.111-1.654.335a3.78 3.78 0 0 0-1.333.978c-.378.429-.675.964-.889 1.606-.214.643-.321 1.388-.321 2.235s.107 1.595.321 2.242c.214.647.51 1.185.889 1.613.378.429.82.752 1.326.971.506.219 1.06.328 1.661.328.547 0 1.057-.091 1.531-.273a3.735 3.735 0 0 0 1.271-.82l-1.135-.998a2.156 2.156 0 0 1-.786.574c-.287.118-.595.178-.923.178s-.641-.07-.937-.212a2.184 2.184 0 0 1-.793-.67c-.232-.306-.415-.699-.547-1.183-.132-.483-.203-1.066-.212-1.75.009-.702.082-1.294.219-1.777.137-.483.326-.878.568-1.184zM7 14h6a1 1 0 0 0 0-2H7a1 1 0 0 0 0 2zM7 19h9a1 1 0 0 0 0-2H7a1 1 0 0 0 0 2zM20 19c.26 0 .52-.11.71-.29.18-.19.29-.45.29-.71s-.11-.52-.29-.71c-.37-.37-1.05-.37-1.42 0-.18.19-.29.45-.29.71s.11.52.29.71c.19.18.45.29.71.29zM24 19h8a1 1 0 0 0 0-2h-8a1 1 0 0 0 0 2zM6.29 32.29c-.18.19-.29.45-.29.71 0 .26.11.52.29.71.19.18.45.29.71.29s.52-.11.71-.29c.18-.19.29-.45.29-.71 0-.27-.11-.52-.29-.71-.37-.37-1.05-.37-1.42 0zM19 32h-8a1 1 0 0 0 0 2h8a1 1 0 0 0 0-2zM38 17h-2a1 1 0 0 0 0 2h2a1 1 0 0 0 0-2zM7 24h22a1 1 0 0 0 0-2H7a1 1 0 0 0 0 2zM38 22h-6a1 1 0 0 0 0 2h6a1 1 0 0 0 0-2zM7 29h4a1 1 0 0 0 0-2H7a1 1 0 0 0 0 2zM25 27H15a1 1 0 0 0 0 2h10a1 1 0 0 0 0-2zM38 27h-9a1 1 0 0 0 0 2h9a1 1 0 0 0 0-2z"/></svg>