<svg xmlns="http://www.w3.org/2000/svg" preserveAspectRatio="xMidYMid" width="71.906" height="75" viewBox="0 0 71.906 75"><defs><style>.cls-1{fill:#fff;fill-rule:evenodd}</style></defs><path d="M68.04 69.994V75h-2.696v-5.006l-3.826-5.435h3.231l1.957 2.843 1.925-2.843h3.263l-3.854 5.435zM44.818 58.421c-16.79-4.812-10.727-20.965-2.524-29.212 8.195-8.223 15.791-19.57 20.018-29.211-1.048 10.868.253 30.034 2.178 37.627 1.937 7.595-2.888 25.596-19.672 20.796zm8.563-.461c3.965-1.531.789-.512 4.843-1.823l-.51-.905c-4.05 1.339-.875.254-4.843 1.851l.51.877zm7.85-31.853c-3.544 1.48-1.327.512-4.79 2.218l.51.886c3.463-1.681 1.222-.77 4.794-2.22l-.514-.884zm.457 4.066c-4.087 1.307-2.81 1.453-6.78 3.016l.51.883c3.974-1.535 2.697-1.706 6.78-3.015l-.51-.884zm.395 4.098c-4.051 1.335-5.754 2.728-9.726 4.32l.514.884c3.968-1.537 5.64-3.015 9.724-4.292l-.512-.912zm.371 3.868c-4.061 1.334-7.634 3.753-11.596 5.316l.51.888c3.964-1.54 7.512-4.016 11.596-5.293l-.51-.911zm.368 3.725c-4.06 1.335-9.046 4.124-13.018 5.712l.51.884c3.972-1.534 8.935-4.403 13.019-5.711l-.511-.885zm-.282 4.523c-4.058 1.331-9.561 3.984-13.531 5.547l.538.883c3.946-1.541 9.417-4.245 13.505-5.522l-.512-.908zm-1.731 4.242c-4.084 1.33-6.523 2.556-10.493 4.119l.51.911c3.97-1.564 6.413-2.846 10.493-4.151l-.51-.879zM10.673 69.425C-6.115 64.617-.045 48.432 8.149 40.213c8.195-8.247 15.827-19.566 20.018-29.239-1.02 10.868.253 30.038 2.19 37.632 1.949 7.622-2.894 25.627-19.684 20.819zm16.421-32.337c-3.548 1.478-1.339.539-4.767 2.216l.511.88c3.461-1.677 1.218-.734 4.791-2.185l-.535-.911zm.449 4.066c-4.052 1.334-2.777 1.452-6.748 3.045l.514.873c3.968-1.527 2.665-1.726 6.744-3.011l-.51-.907zm.395 4.096c-4.051 1.334-5.75 2.761-9.722 4.322l.506.882c3.972-1.536 5.672-2.986 9.73-4.297l-.514-.907zm.369 3.867c-4.051 1.335-7.624 3.757-11.594 5.348l.51.88c3.97-1.532 7.54-4.012 11.6-5.317l-.516-.911zm.369 3.726c-4.051 1.336-9.047 4.151-13.013 5.719l.51.874c3.972-1.531 8.959-4.377 13.019-5.687l-.516-.906zm-.254 4.523c-4.079 1.334-9.558 3.981-13.52 5.574l.51.88c3.964-1.534 9.441-4.234 13.521-5.547l-.511-.907zm-1.754 4.235c-4.06 1.335-6.523 2.589-10.493 4.149l.511.886c3.97-1.539 6.409-2.816 10.492-4.123l-.51-.912zm25.35 8.192c0 2.934-2.385 5.207-5.273 5.207h-3.827V64.559h3.827c2.888 0 5.273 2.303 5.273 5.234zm-6.411-2.931v5.832h.627c1.616 0 2.978-.882 2.978-2.901 0-1.876-1.221-2.931-2.954-2.931h-.651zm15.343.911c0 1.451-.818 2.677-2.294 2.959L61.943 75h-3.375l-2.551-4.011L55.988 75h-2.697V64.559h4.027c2.074 0 3.632.997 3.632 3.214zm-4.962-1.137v2.615h.253c.885 0 1.874-.168 1.874-1.304 0-1.138-.989-1.311-1.874-1.311h-.253z" class="cls-1"/></svg>