<svg xmlns="http://www.w3.org/2000/svg" width="69" height="28"><defs><linearGradient id="a" gradientUnits="userSpaceOnUse" x1="18" y1="113" x2="131"><stop offset="0" stop-color="#00adef"/><stop offset="1" stop-color="#31ecbe"/></linearGradient></defs><path fill="url(#a)" d="M66.47 5.908L69 9.512h-1.942l-2.327-3.319h-2.04v3.319h-1.647V-.004h4.184c1.087 0 1.941.274 2.561.823.62.549.93 1.285.93 2.21 0 .751-.202 1.37-.606 1.854-.403.484-.95.827-1.643 1.025zm.052-3.978c-.34-.272-.818-.408-1.432-.408h-2.399v3.192h2.412c.589 0 1.057-.146 1.406-.438.348-.292.523-.685.523-1.181 0-.504-.17-.892-.51-1.165zm-8.073 24.6a4.7 4.7 0 0 1-1.566 1.06 4.976 4.976 0 0 1-1.978.395c-.937 0-1.78-.222-2.53-.667a4.628 4.628 0 0 1-1.738-1.786 5.047 5.047 0 0 1-.615-2.467c0-.664.122-1.296.366-1.896.244-.6.58-1.122 1.007-1.567a4.715 4.715 0 0 1 1.562-1.063 4.967 4.967 0 0 1 1.974-.395c.706 0 1.364.13 1.974.388.61.26 1.129.611 1.553 1.053.425.443.758.966 1.001 1.568.241.602.363 1.239.363 1.912 0 .663-.123 1.295-.367 1.896a4.899 4.899 0 0 1-1.006 1.569zm-.759-5.166a3.14 3.14 0 0 0-1.141-1.234 3.04 3.04 0 0 0-1.644-.459 3.064 3.064 0 0 0-2.761 1.683 3.688 3.688 0 0 0-.396 1.711c0 .617.134 1.183.402 1.7.267.517.647.929 1.137 1.235a3.037 3.037 0 0 0 1.644.459c.606 0 1.152-.152 1.638-.455a3.108 3.108 0 0 0 1.128-1.229 3.664 3.664 0 0 0 .399-1.71c0-.617-.136-1.183-.406-1.701zM52.075-.004h6.949v1.48h-5.302v2.508h4.701v1.48h-4.701v2.568h5.367v1.48h-7.014V-.004zm-4.72 9.516h-1.647V1.549H42.72V-.004h7.616v1.553h-2.981v7.963zm-7.615 0l-2.328-3.319h-2.04v3.319h-1.647V-.004h4.185c1.087 0 1.94.274 2.56.823.62.549.93 1.285.93 2.21 0 .751-.202 1.37-.606 1.854-.403.484-.95.827-1.643 1.025l2.53 3.604H39.74zm-.55-5.236c.348-.292.523-.685.523-1.181 0-.504-.17-.892-.51-1.165-.339-.272-.817-.408-1.432-.408h-2.399v3.192h2.413c.588 0 1.056-.146 1.405-.438zM24.756-.004h6.949v1.48h-5.302v2.508h4.7v1.48h-4.7v2.568h5.367v1.48h-7.014V-.004zm-6.949 9.582L13.911-.004h1.824l2.824 7.313L21.37-.004h1.784l-3.896 9.582h-1.451zm-1.196 8.954c.61.26 1.128.611 1.552 1.053.425.443.758.966 1.001 1.568.241.602.363 1.239.363 1.912 0 .663-.123 1.295-.367 1.896a4.882 4.882 0 0 1-1.006 1.569 4.68 4.68 0 0 1-1.566 1.06 4.973 4.973 0 0 1-1.978.395c-.937 0-1.78-.222-2.529-.667a4.63 4.63 0 0 1-1.739-1.786 5.047 5.047 0 0 1-.615-2.467c0-.664.122-1.296.366-1.896.244-.6.58-1.122 1.007-1.567a4.71 4.71 0 0 1 1.563-1.063 4.96 4.96 0 0 1 1.974-.395c.706 0 1.364.13 1.974.388zm-3.638 1.595a3.08 3.08 0 0 0-1.125 1.227 3.712 3.712 0 0 0-.395 1.711c0 .617.134 1.183.402 1.7A3.12 3.12 0 0 0 12.993 26c.49.307 1.038.459 1.644.459.605 0 1.151-.152 1.637-.455a3.1 3.1 0 0 0 1.128-1.229 3.664 3.664 0 0 0 .399-1.71 3.61 3.61 0 0 0-.406-1.701 3.14 3.14 0 0 0-1.141-1.234 3.04 3.04 0 0 0-1.644-.459c-.605 0-1.151.151-1.637.456zM5.766 2.743v6.769H4.144V-.004h1.53l5.021 6.582V-.004h1.621v9.516h-1.38l-5.17-6.769zm1.252 15.782a5.504 5.504 0 0 1 1.598 1.093l-1.053 1.237a5.181 5.181 0 0 0-1.242-.879 3.13 3.13 0 0 0-1.386-.305 2.9 2.9 0 0 0-1.588.452 3.092 3.092 0 0 0-1.108 1.229 3.708 3.708 0 0 0-.395 1.713c0 .945.293 1.747.882 2.406.588.659 1.325.988 2.209.988.541 0 1.015-.102 1.422-.306.408-.204.831-.515 1.272-.932l1.059 1.092a6.517 6.517 0 0 1-1.037.895 4.427 4.427 0 0 1-1.215.563 5.31 5.31 0 0 1-1.553.214 4.682 4.682 0 0 1-2.435-.65 4.598 4.598 0 0 1-1.713-1.776c-.412-.752-.617-1.584-.617-2.494 0-.673.12-1.31.359-1.912.24-.602.569-1.125.987-1.568A4.574 4.574 0 0 1 3 18.532a4.921 4.921 0 0 1 1.949-.388c.806 0 1.495.127 2.069.381zM0-.004h1.647v9.516H0V-.004zm28.064 24.891v-6.583h1.621v9.515h-1.379l-5.171-6.768v6.768h-1.621v-9.515h1.53l5.02 6.583zm10.956-5.031h-2.981v7.963h-1.647v-7.963h-2.988v-1.552h7.616v1.552zm8.484-.73c.62.55.93 1.285.93 2.21 0 .753-.202 1.371-.606 1.855-.403.485-.95.826-1.643 1.025l2.53 3.603h-1.941l-2.328-3.317h-2.04v3.317h-1.647v-9.515h4.184c1.087 0 1.941.274 2.561.822zm-5.098.704v3.192h2.413c.588 0 1.056-.147 1.405-.438.348-.292.523-.686.523-1.181 0-.505-.17-.893-.51-1.165-.339-.273-.817-.408-1.432-.408h-2.399zm21.05 6.463h4.929v1.526h-6.576v-9.515h1.647v7.989z"/></svg>