<svg id="Layer_1" data-name="Layer 1" xmlns="http://www.w3.org/2000/svg" width="73" height="70" viewBox="0 0 17.61 17.82"><defs><style>.cls-1{fill:#fff}</style></defs><path class="cls-1" d="M.58 3.66h7.07a.58.58 0 0 0 .58-.58V.83a.58.58 0 0 0-.58-.58H.58A.58.58 0 0 0 0 .83v2.25a.58.58 0 0 0 .58.58zm5.51-.55L1 3.15a.25.25 0 0 1 0-.5h5.11a.25.25 0 0 1 0 .5zm1.36-.19l-.25.43a.13.13 0 0 1-.25 0l-.25-.43c-.07-.12 0-.22.13-.22h.5c.13.01.19.11.12.22zM.62 1.37a.47.47 0 0 1 .47-.45h6a.44.44 0 0 1 .44.45v.23a.47.47 0 0 1-.46.4H1a.43.43 0 0 1-.39-.4zM16.94 0H16a.68.68 0 0 0-.68.68V3.2l-.24.13a.23.23 0 0 0-.08-.02h-3.76a.23.23 0 0 0-.22.23.25.25 0 0 0 .23.22h3.5a.23.23 0 0 0 0 .07.22.22 0 0 0 .07.07L11.6 5a.23.23 0 0 0 .07.44h.07l3.39-1.17a.23.23 0 0 0 0-.41l.38-.21a.67.67 0 0 0 .49.22h.9a.68.68 0 0 0 .68-.68V.68a.68.68 0 0 0-.64-.68zm.23 3.2a.23.23 0 0 1-.23.23H16a.23.23 0 0 1-.23-.23V.68A.23.23 0 0 1 16 .45h.9a.23.23 0 0 1 .23.23zM5.86 14.18a1.23 1.23 0 0 0 .74-1.29 1.62 1.62 0 0 0-1.72-1.72c-.4 0-1.62.07-1.82 2h1.27a.6.6 0 0 1 .54-.67c.19 0 .5.11.5.67s-.46.7-.58.7h-.16v1.08h.16c.26 0 .71 0 .71.69 0 .3-.06.88-.64.88s-.64-.58-.64-.88H3c0 .5.19 2.21 1.87 2.21a1.85 1.85 0 0 0 1.93-2 1.54 1.54 0 0 0-.94-1.67zM7.35 13.73h2.46v1.39H7.35zM12.4 11.32h-1.85v6.32h1.85c1.81 0 2.6-1.46 2.6-3.16 0-1.42-.52-3.16-2.6-3.16zm-.27 4.8H12v-3.28h.16a1.42 1.42 0 0 1 1.41 1.64 1.43 1.43 0 0 1-1.44 1.64zM5.64 6.9h.06a.23.23 0 0 0 .16-.28l-.43-1.54a.23.23 0 0 0-.28-.16.23.23 0 0 0-.15.27l.42 1.54a.22.22 0 0 0 .22.17zM2.93 6.76a.23.23 0 0 0 .22-.16l.42-1.45A.23.23 0 1 0 3.13 5l-.42 1.47a.23.23 0 0 0 .15.28zM4.3 7a.23.23 0 0 0 .22-.23V5.15a.23.23 0 1 0-.45 0v1.62A.23.23 0 0 0 4.3 7zM1.65 6.26a.23.23 0 0 0 .2-.11l.69-1.21a.23.23 0 1 0-.39-.22l-.7 1.2a.23.23 0 0 0 .08.31.23.23 0 0 0 .12.03zM1.7 4a.23.23 0 0 0-.32 0l-1 1.09a.23.23 0 1 0 .33.31l1-1.09A.23.23 0 0 0 1.7 4zM6.07 4.56a.22.22 0 0 0-.07.31l.73 1.28a.23.23 0 0 0 .2.11.22.22 0 0 0 .11 0 .22.22 0 0 0 .08-.31l-.74-1.31a.22.22 0 0 0-.31-.08zM4.4 9.13a3.69 3.69 0 0 0 .6 0 6.36 6.36 0 0 0 2.74-1.21l.26.36L8.55 7l-1.38.18.29.38a6 6 0 0 1-2.54 1.08 2.77 2.77 0 0 1-2.55-.82.23.23 0 0 0-.37.28 3.17 3.17 0 0 0 2.4 1.03zM13.48 7.92a.23.23 0 0 0 .06.31.23.23 0 0 0 .31-.06l2.07-3.08a.23.23 0 1 0-.37-.25zM16.37 5.09a.23.23 0 0 0-.28.15L15 8.66a.23.23 0 0 0 .15.28h.07a.23.23 0 0 0 .21-.16l1.09-3.42a.23.23 0 0 0-.15-.27zM8 5.4a.23.23 0 0 0 .15-.4l-1-1.07a.23.23 0 0 0-.32.31l1 1.07A.22.22 0 0 0 8 5.4zM16.86 5.12a.23.23 0 0 0-.22.23v3.61a.23.23 0 0 0 .23.22.23.23 0 0 0 .22-.23V5.34a.23.23 0 0 0-.23-.22z"/><path class="cls-1" d="M3.95 10.1h.48a6.27 6.27 0 0 0 3.11-.94.23.23 0 0 0-.25-.38A5.65 5.65 0 0 1 4 9.65a5.06 5.06 0 0 1-2.92-1.86l.34-.24L.16 7l.12 1.35.42-.3a5.48 5.48 0 0 0 3.25 2.05zM15.34 4.41l-3 2.14a.23.23 0 1 0 .26.37l3-2.14a.23.23 0 1 0-.26-.37zM10.95 9.54A6.09 6.09 0 0 0 14.34 11a.23.23 0 0 0 0-.45 5.73 5.73 0 0 1-3.11-1.36A5.07 5.07 0 0 1 10.1 6h.42l-.64-1.25-.75 1.16h.51a5.49 5.49 0 0 0 1.31 3.63z"/><path class="cls-1" d="M15.28 9.7a6 6 0 0 1-2.67-.7 2.77 2.77 0 0 1-1.51-2.23.23.23 0 0 0-.23-.22.23.23 0 0 0-.22.23 3.22 3.22 0 0 0 1.74 2.6 6.36 6.36 0 0 0 2.88.77v.45l1.21-.68-1.2-.71z"/></svg>