<svg xmlns="http://www.w3.org/2000/svg" width="33" height="52"><defs><linearGradient id="a" gradientUnits="userSpaceOnUse" x1="18" y1="113" x2="131"><stop offset="0" stop-color="#00adef"/><stop offset="1" stop-color="#31ecbe"/></linearGradient></defs><path fill="url(#a)" d="M28.56 23.969a4.438 4.438 0 0 0-3.311 1.47c-1.652-2.099-4.901-2.052-6.513.113-1.365-1.992-4.077-2.473-5.854-1.042V14.006c1.916-1.484 3.08-3.685 3.08-6.129 0-4.341-3.579-7.871-7.978-7.871-4.4 0-7.978 3.53-7.978 7.871 0 2.829 1.562 5.417 4.021 6.81-.006.219-.031.39-.031.62v25.095c0 6.399 4.391 11.607 9.791 11.607h9.423c5.082 0 9.365-4.703 9.761-10.747.005-.046.03-.315.03-.362V28.326c0-2.401-1.993-4.357-4.441-4.357zM2.183 7.877c0-3.157 2.601-5.723 5.801-5.723 3.199 0 5.8 2.566 5.8 5.723 0 1.175-.39 2.263-1.033 3.194-.462-2.576-2.186-4.45-4.313-4.45-1.395 0-3.565.849-4.228 5.596a5.696 5.696 0 0 1-2.027-4.34zm28.61 33.287c-.315 4.878-3.645 8.697-7.583 8.697h-9.423c-4.199 0-7.613-4.242-7.613-9.459l.003-4.969h-.003v-.211l.005-.003h-.005l.014-.072c-.003-.041-.009-.085-.014-.126V15.307c0-4.821 1.169-6.538 2.264-6.538 1.208 0 2.266 1.72 2.266 3.679v15.746c0 .333.285.607.552.811.264.203.746.233 1.066.151.418-.104.733-.445.802-.865.24-1.468 1.167-2.531 2.203-2.531.975 0 1.888.992 2.169 2.36.103.5.816.86 1.334.86.504 0 .941-.343 1.058-.827.315-1.305 1.195-2.214 2.145-2.214.96 0 1.846.923 2.152 2.245.12.508.624.845 1.12.832a1.08 1.08 0 0 0 1.022-.945c.133-1.116 1.094-1.953 2.233-1.953 1.247 0 2.264.989 2.264 2.208v12.569l1.089.052-1.12.217z"/></svg>