<svg xmlns="http://www.w3.org/2000/svg" width="50" height="71"><defs><linearGradient id="a" gradientUnits="userSpaceOnUse" x1="18" y1="113" x2="131"><stop offset="0" stop-color="#00adef"/><stop offset="1" stop-color="#31ecbe"/></linearGradient></defs><path fill="url(#a)" d="M49.893 45.496a.989.989 0 0 1-.505.572l-3.526 1.73a.996.996 0 0 1-.445.103c-.37 0-.726-.202-.901-.552a.986.986 0 0 1 .453-1.331l1.429-.7-12.564-4.186a.99.99 0 0 1-.631-1.258c.176-.52.746-.802 1.273-.624l12.451 4.148-.709-1.412a.987.987 0 0 1 .454-1.331 1.007 1.007 0 0 1 1.346.448l1.823 3.635a.975.975 0 0 1 .052.758zm-11.076 9.092a.996.996 0 0 1 .911-1.078 1.003 1.003 0 0 1 1.091.9l.354 3.876a.986.986 0 0 1-.229.726 1.01 1.01 0 0 1-.681.353l-4.088.364a1.002 1.002 0 0 1-1.091-.9.998.998 0 0 1 .911-1.079l1.587-.141-10.088-8.322a.985.985 0 0 1-.128-1.399c.355-.423.99-.477 1.415-.126l10.18 8.396-.144-1.57zm-22.953-4.175a2.592 2.592 0 0 1-2.01.946H.994a.999.999 0 0 1-1.005-.993V.988A1 1 0 0 1 .994-.005h25.377a1 1 0 0 1 1.005.993v34.507c0 .587-.206 1.161-.58 1.615L15.864 50.413zm9.502-48.431H1.998v47.39h11.856a.58.58 0 0 0 .451-.213l10.932-13.302a.574.574 0 0 0 .129-.362V1.982zm-4.982 52.499a1.01 1.01 0 0 1 1.276.618l4.299 12.399.701-1.415a1.01 1.01 0 0 1 1.344-.456.987.987 0 0 1 .46 1.329l-1.73 3.495a1.007 1.007 0 0 1-1.344.456l-3.686-1.783a.99.99 0 0 1-.461-1.329 1.013 1.013 0 0 1 1.345-.457l1.431.693-4.26-12.288a.991.991 0 0 1 .625-1.262z"/></svg>