<svg xmlns="http://www.w3.org/2000/svg" width="61" height="31"><defs><linearGradient id="a" gradientUnits="userSpaceOnUse" x1="18" y1="113" x2="131"><stop offset="0" stop-color="#00adef"/><stop offset="1" stop-color="#31ecbe"/></linearGradient></defs><path fill="url(#a)" d="M53.165 17.948H48.71l5.608-14.074h-.066L45.85 17.948h-3.472L41.75 3.874h-.063l-2.145 14.074h-4.428L37.091-.004h8.705l.306 10.604h.061l6.2-10.604h8.633l-7.831 17.952zm-20.057 6.39l-.349 4.238c-.039.459.135.561.406.561.237-.043.312-.031.535-.031l-.169 1.61a7.778 7.778 0 0 1-1.282.127c-1.07 0-1.629-.629-1.583-1.851l.168-4.654h-.901l.03-1.647h.931l.084-2.301h2.451l-.186 2.301h1.12l-.171 1.647h-1.084zm-4.93-9.885h-3.887l-.276 3.492h-4.692L21.936-.003h7.441l4.232 17.948h-4.716l-.715-3.492zM25.805 3.252h-.066l-1.138 8.041h3.028l-1.824-8.041zm-3.673 21.964l.462 3.271c.156 1.826-.727 2.501-2.226 2.501-1.412 0-2.748-.659-3.226-2.501l-.853-3.271c-.538-2.066.544-2.759 2.367-2.759 2.079 0 3.22.951 3.476 2.759zm-1.595 3.416l-.67-3.588c-.096-.517-.346-.933-.877-.933-.532 0-.616.416-.505.933l.772 3.588c.135.459.357.705.781.705.423 0 .547-.246.499-.705zm-5.149-18.247c-1.661.717-3.836.501-5.786.576l2.178 6.987H7.115L.008-.004h7.339c2.385 0 5.857.146 7.831 1.485 1.601 1.1 2.099 2.442 2.346 3.902.327 1.94.117 4.118-2.136 5.002zm-3.569-4.931c-.177-.693-.543-1.746-1.634-2.082-.61-.141-1.415-.141-2.355-.141h-.637L8.596 7.73c1.027-.025 2.247.071 2.986-.456.448-.481.393-1.198.237-1.82zm-.64 17.003c2.337.03 3.533 1.007 4.035 3.218h-2.088l-.06-.145c-.141-.302-.231-.615-.388-.917-.21-.33-.438-.502-.784-.502-.588 0-.525.459-.342.976l1.183 3.317c.181.505.46.933.989.933.76 0 .216-1.262.018-1.867h2.063c.136.475.367 1.479.376 1.91.024 1.004-.586 1.463-1.412 1.565-.183.012-.342.043-.643.043-1.412 0-2.703-.659-3.445-2.501l-1.316-3.271c-.832-2.066-.009-2.759 1.814-2.759zm14.2 1.235h.03c.174-.616.817-1.235 1.559-1.235 1.111 0 2.106.591 2.106 1.681l-.01 6.591h-1.979l-.255-5.744c-.045-.372-.205-.69-.631-.659-.4.012-.598.244-.571.659l.397 5.744h-1.98l-.925-8.041h2.187l.072 1.004zm12.129-1.004l-.204 1.219h.03c.406-.859 1.088-1.45 2.067-1.45l-.52 2.587a3.427 3.427 0 0 0-.667-.059c-.634 0-.91.13-1.063.791l-.835 4.953h-1.98l.986-8.041h2.186zm2.178 2.528c.451-2.066 1.863-2.759 3.686-2.759 2.079 0 2.766.951 2.157 2.759l-1.106 3.271c-.715 1.826-1.922 2.501-3.421 2.501-1.412 0-2.433-.659-2.031-2.501l.715-3.271zm1.775 4.121c.427 0 .664-.246.836-.705l1.048-3.588c.153-.517.099-.933-.433-.933-.528 0-.814.416-.949.933l-.946 3.588c-.084.459.018.705.444.705zm9.901-9.378l-4.446 10.77h-1.979l3.953-10.77h2.472z"/></svg>