<svg xmlns="http://www.w3.org/2000/svg" width="71" height="60"><defs><linearGradient id="a" gradientUnits="userSpaceOnUse" x1="18" y1="113" x2="131"><stop offset="0" stop-color="#00adef"/><stop offset="1" stop-color="#31ecbe"/></linearGradient></defs><path fill="url(#a)" d="M51.206 14.892c.203.067.415.112.64.112h17.1a2.054 2.054 0 0 0 2.055-2.048V2.049A2.054 2.054 0 0 0 68.946.001h-17.1a2.054 2.054 0 0 0-2.055 2.048v10.907c0 .218.043.423.106.62L35.671 24.325v-9.321h8.379a2.053 2.053 0 0 0 2.054-2.048V2.049A2.053 2.053 0 0 0 44.05.001H26.951a2.054 2.054 0 0 0-2.056 2.048v10.907c0 1.129.922 2.048 2.056 2.048h6.877v9.207L21.09 13.614c.072-.208.119-.426.119-.658V2.049A2.054 2.054 0 0 0 19.154.001H2.055A2.054 2.054 0 0 0-.001 2.049v10.907c0 1.129.922 2.048 2.056 2.048h17.099c.213 0 .415-.042.608-.102l12.45 10.358H21.209v-4.535a2.054 2.054 0 0 0-2.055-2.048H2.055a2.054 2.054 0 0 0-2.056 2.048v10.907c0 1.129.922 2.048 2.056 2.048h17.099a2.054 2.054 0 0 0 2.055-2.048v-4.536h12.619v8.73H23.435a2.053 2.053 0 0 0-2.055 2.047v20.091c0 1.129.922 2.047 2.055 2.047h22.628a2.054 2.054 0 0 0 2.056-2.047V37.873a2.054 2.054 0 0 0-2.056-2.047H35.671v-8.73h14.12v4.532c0 1.129.922 2.048 2.055 2.048h17.1a2.054 2.054 0 0 0 2.055-2.048V20.721a2.054 2.054 0 0 0-2.055-2.048h-17.1a2.054 2.054 0 0 0-2.055 2.048v4.539H37.485l13.721-10.368zm-24.467-1.936V2.049c0-.116.094-.211.212-.211H44.05c.117 0 .211.095.211.211v10.907a.211.211 0 0 1-.211.211H26.951a.211.211 0 0 1-.212-.211zm-7.373 18.676a.212.212 0 0 1-.212.211H2.055a.212.212 0 0 1-.212-.211V20.725c0-.117.095-.211.212-.211h17.099c.117 0 .212.094.212.211v10.907zm26.91 6.241v20.091c0 .116-.096.21-.213.21H23.435a.211.211 0 0 1-.212-.21V37.873c0-.117.095-.211.212-.211h22.628c.117 0 .213.094.213.211zm5.358-17.152c0-.117.095-.211.212-.211h17.1a.21.21 0 0 1 .211.211v10.907a.211.211 0 0 1-.211.212h-17.1a.212.212 0 0 1-.212-.212V20.721zm0-18.672c0-.116.095-.211.212-.211h17.1c.117 0 .211.095.211.211v10.907a.211.211 0 0 1-.211.211h-17.1a.212.212 0 0 1-.212-.211V2.049zM2.055 13.167a.212.212 0 0 1-.212-.211V2.049c0-.116.095-.211.212-.211h17.099c.117 0 .212.095.212.211v10.907a.212.212 0 0 1-.212.211H2.055z"/></svg>