<svg xmlns="http://www.w3.org/2000/svg" width="61" height="62"><defs><linearGradient id="a" gradientUnits="userSpaceOnUse" x1="18" y1="113" x2="131"><stop offset="0" stop-color="#00adef"/><stop offset="1" stop-color="#31ecbe"/></linearGradient></defs><path fill="url(#a)" d="M59.014 6.531l-.333-2.877-13.385 13.289-7.792-7.482-7.548 7.494-7.665-7.61-7.672 7.617L-.014 2.13 1.422.734l13.212 13.393L26.555 2.29l-2.791-.318.23-1.983 5.701.651.657 5.663-1.997.228-.333-2.876-4.31 4.279 6.244 6.2L41.884 2.29l-2.791-.318.23-1.983 5.701.651.656 5.663-1.995.228-.334-2.877-4.426 4.396 6.348 6.096L57.213 2.29l-2.791-.318.23-1.983 5.701.651.656 5.663-1.995.228zm-1.532 55.463H4.238V20.266h53.244v41.728zm-2.009-39.733H6.247v37.738h49.226V22.261zm-29.411 2.814c8.865 0 16.077 7.164 16.077 15.968 0 8.802-7.212 15.964-16.077 15.964-8.865 0-16.077-7.162-16.077-15.964 0-8.804 7.212-15.968 16.077-15.968zm0 29.936c7.757 0 14.068-6.266 14.068-13.968 0-7.704-6.311-13.972-14.068-13.972s-14.068 6.268-14.068 13.972c0 7.702 6.311 13.968 14.068 13.968zm-4.245-20.174a21.702 21.702 0 0 1 2.7 2.25c.265-.108.542-.191.829-.245.302-1.005.462-2.128.47-3.426.006-1.061-.363-2.36-.897-3.162-.503-.753-.35-1.335-.213-1.614.2-.411.606-.681 1.084-.719.59-.038 4.595.829 6.419 2.095 2.009 1.395 2.151 4.282.338 6.867a21.238 21.238 0 0 1-2.318 2.726c.068.19.123.384.164.585.998.289 2.114.443 3.403.451h.035c1.179 0 2.473-.446 3.15-.89.756-.498 1.342-.346 1.623-.212.414.199.685.6.726 1.074.049.572-.833 4.564-2.107 6.376-.749 1.062-1.922 1.6-3.244 1.6-1.169 0-2.455-.419-3.673-1.266a21.418 21.418 0 0 1-2.679-2.23c-.122.043-.248.08-.373.112-.309 1.01-.474 2.143-.482 3.457-.008 1.059.362 2.36.898 3.165.502.752.349 1.332.213 1.61-.2.412-.605.682-1.083.722-.016.002-.034.002-.054.002-.735 0-4.593-.864-6.368-2.097-2.011-1.398-2.152-4.285-.336-6.865a21.33 21.33 0 0 1 2.121-2.531 4.278 4.278 0 0 1-.191-.624c-1.063-.341-2.255-.521-3.644-.529-1.184.023-2.504.444-3.183.891-.401.262-.753.344-1.036.344a1.295 1.295 0 0 1-1.316-1.205c-.048-.578.838-4.57 2.109-6.376 1.407-1.996 4.315-2.138 6.915-.336zm9.64 10.856c1.368.95 3.24 1.406 4.119.156.628-.892 1.175-2.663 1.484-3.892-1.015.428-2.192.683-3.231.683h-.047c-1.279-.009-2.423-.146-3.473-.403-.131.45-.32.886-.599 1.282-.112.16-.234.307-.364.447a18.775 18.775 0 0 0 2.111 1.727zm-2.37-7.782A18.977 18.977 0 0 0 30.9 35.74c.953-1.359 1.411-3.219.158-4.089-.9-.624-2.684-1.168-3.922-1.475.437 1.02.695 2.209.689 3.251-.007 1.301-.15 2.464-.423 3.529.436.13.858.312 1.242.578.161.112.3.246.443.377zm-1.023 4.465a2.289 2.289 0 0 0-.571-3.207 2.317 2.317 0 0 0-1.735-.38 2.298 2.298 0 0 0-.922 4.156 2.33 2.33 0 0 0 3.228-.569zm-6.375 3.97c-.955 1.357-1.413 3.217-.159 4.087.899.625 2.685 1.169 3.923 1.477-.439-1.024-.698-2.214-.69-3.257.008-1.262.146-2.389.402-3.427a4.287 4.287 0 0 1-1.481-.646c-.116-.081-.209-.18-.314-.269a18.692 18.692 0 0 0-1.681 2.035zm-5.141-10.029c-.627.891-1.175 2.662-1.485 3.891 1.027-.433 2.234-.703 3.277-.684 1.347.008 2.552.155 3.653.442a4.2 4.2 0 0 1 .622-1.371c.078-.111.174-.201.261-.304a18.911 18.911 0 0 0-2.211-1.818c-1.366-.948-3.238-1.403-4.117-.156zM50.45 56.843h-2.009V25.919h2.009v30.924z"/></svg>