<svg xmlns="http://www.w3.org/2000/svg" width="24" height="24" viewBox="0 0 24 24"><path fill="#29AAE2" d="M23.611 10.837a14.934 14.934 0 0 0-5.046-4.251 14.22 14.22 0 0 0-6.751-1.585 14.219 14.219 0 0 0-6.379 1.584A14.944 14.944 0 0 0 .39 10.836a1.932 1.932 0 0 0 0 2.326 14.952 14.952 0 0 0 5.045 4.251 14.209 14.209 0 0 0 6.751 1.584 14.216 14.216 0 0 0 6.379-1.584 14.957 14.957 0 0 0 5.046-4.251 1.93 1.93 0 0 0 0-2.325zm-17.74 5.678a13.961 13.961 0 0 1-4.711-3.97.906.906 0 0 1 0-1.09 13.974 13.974 0 0 1 4.711-3.971 13.665 13.665 0 0 1 1.586-.691C6.07 8.076 5.197 9.935 5.197 12s.874 3.925 2.26 5.207a13.43 13.43 0 0 1-1.586-.692zM12 17.997c-3.213 0-5.827-2.69-5.827-5.997S8.787 6.003 12 6.003s5.827 2.69 5.827 5.997-2.614 5.997-5.827 5.997zm10.841-5.452a13.963 13.963 0 0 1-4.712 3.97 13.63 13.63 0 0 1-1.584.69 7.08 7.08 0 0 0 2.258-5.206 7.079 7.079 0 0 0-2.261-5.208c.539.195 1.068.426 1.586.692a13.977 13.977 0 0 1 4.712 3.971c.244.322.244.77.001 1.091z"/><path fill="#29AAE2" d="M12 9.433c-1.375 0-2.494 1.151-2.494 2.566s1.119 2.566 2.494 2.566 2.494-1.151 2.494-2.566S13.375 9.433 12 9.433zm0 4.129c-.836 0-1.518-.7-1.518-1.562 0-.861.681-1.562 1.518-1.562s1.517.7 1.517 1.562c.001.861-.681 1.562-1.517 1.562z"/></svg>