<svg id="Layer_1" data-name="Layer 1" xmlns="http://www.w3.org/2000/svg" viewBox="0 0 88 88"><defs><style>.cls-1{fill:url(#Безымянный_градиент)}.cls-2{fill:#fff}</style><linearGradient id="Безымянный_градиент" x1="7.47" y1="-103.06" x2="80.53" y2="-196.57" gradientTransform="matrix(1 0 0 -1 0 -105.81)" gradientUnits="userSpaceOnUse"><stop offset="0" stop-color="#00adef"/><stop offset="1" stop-color="#37f4c5"/></linearGradient></defs><title>Монтажная область 7sky_air</title><path class="cls-1" d="M88 82a6 6 0 0 1-6 6H6a6 6 0 0 1-6-6V6a6 6 0 0 1 6-6h76a6 6 0 0 1 6 6z"/><path class="cls-2" d="M62.5 80.9h5.1a.43.43 0 0 0 .4-.4v-7.1a.43.43 0 0 0-.4-.4h-5.1a.43.43 0 0 0-.4.4v7.1c-.1.2.1.4.4.4zm.4-7.1h4.2V80h-4.2z"/><path class="cls-2" d="M76.8 33.1l-.6-.6-4.7 4.7v-3.4l5.3-5.3-.6-.6-4 4v-3.4l4.7-4.7-.6-.6-4 4v-2.7a.68.68 0 0 0-.7-.7l4.5-4.5-.6-.6-5.1 5.2h-3.8l4.5-4.5-.6-.6-5.5 5h-3.3l4.5-4.5-.6-.6-4.5 4.5v-3.4l5.1-5.2-.6-.6-4.5 4.5v-3.4l5.1-5.1-.6-.6-4.5 4.5v-3.4l5.1-5.2-.6-.6-4.5 4.5V5.8L66.2.6l-.6-.6-4.5 4.5v-4h-1.3v24.6H46.5a6.45 6.45 0 0 0-6.2 6.6v46.5a6.71 6.71 0 0 0 3.6 6H25.6v.9h.4l2.9 2.9.6-.6-2.3-2.3H31l3 2.9.6-.6-2.3-2.3H36l3 2.9.6-.6-2.3-2.3H41l3 2.9.6-.6-2.3-2.3H46l3 2.9.6-.6-2.6-2.6h4.1l-.2.2 3 3 .6-.6-2.5-2.6h4l-.2.2 3 3 .6-.6-2.4-2.6h3.8a.1.1 0 0 0 .1.1l3 3 .6-.6-2.3-2.3H66l3 3 .6-.6-2.4-2.4h3.1a.76.76 0 0 0 .5.2.37.37 0 0 0 .3-.1L74 88l.6-.6-2.7-2.7 4.9-4.9-.6-.6-4.7 4.7V81l5.3-5.3-.6-.6-4.7 4.7v-3.5l5.3-5.3-.6-.6-4.7 4.7v-3.4l5.3-5.3-.6-.6-4.7 4.7v-3.4l5.3-5.3-.6-.6-4.7 4.7v-3.4l5.3-5.3-.6-1.2-4.7 4.7v-3.4l5.3-5.3-.6-.6-4.7 4.6v-3.4l5.3-5.3-.6-.6-4.7 4.7V48l5.3-5.3-.6-.6-4.7 4.7v-3.4l5.3-5.3-.6-.6-4.7 4.7v-3.4zm-6.1-4.6a6.25 6.25 0 0 0-5-3.4h5.1l-.1 3.4zm-5.4-1.2a4.16 4.16 0 0 1 3.9 4.4v46.5a4.23 4.23 0 0 1-3.9 4.4h-3.9V27.3zm4.8 55v1.8H68a4.63 4.63 0 0 0 2.1-1.8zm-9.6-55v55.2h-14a2.77 2.77 0 0 1-.9-.1 6.6 6.6 0 0 0 1.8-4.4V46.3c-.2-2-1.5-5.6-4.8-6.3v-.8h3.1a.9.9 0 0 0 .9-.9v-9.4a1.08 1.08 0 0 0-.3-.7l-.8-.8a3.55 3.55 0 0 1 1-.2h14zm-16.6 1.2l.9.8v8.1h-2.2v-5.8a3.58 3.58 0 0 1 1.3-3.1zm-1.4 13.4c2.5.8 3 4.1 3.1 4.6V78a5 5 0 0 1-1.6 3.5 4.37 4.37 0 0 1-1.4-3.3V41.9z"/></svg>