<svg xmlns="http://www.w3.org/2000/svg" width="61" height="57"><defs><linearGradient id="a" gradientUnits="userSpaceOnUse" x1="18" y1="113" x2="131"><stop offset="0" stop-color="#00adef"/><stop offset="1" stop-color="#31ecbe"/></linearGradient></defs><path fill="url(#a)" d="M59.963 56.44c-.344-.183-.69-.378-1.032-.553V.975c.342-.156.688-.331 1.032-.495.343-.164.686-.322 1.032-.494v57.008c-.346-.193-.689-.369-1.032-.554zm-10.854-3.5V3.588c.342-.103.688-.246 1.031-.358.343-.112.688-.238 1.032-.358v50.879c-.344-.136-.689-.279-1.032-.406-.343-.126-.689-.288-1.031-.405zm-9.824-1.776V5.144c.344-.049.688-.155 1.032-.212.344-.057.688-.152 1.032-.217v46.939c-.344-.075-.688-.183-1.032-.248-.344-.065-.688-.187-1.032-.242zm-9.82-.416V5.507c.323.009.638.069.962.071.37-.003.733-.07 1.102-.082V50.76c-.369-.014-.732-.091-1.102-.094-.324.003-.639.072-.962.082zm-9.821.872V4.745c.344.064.688.161 1.032.217.344.055.688.145 1.032.192v45.998c-.344.054-.688.156-1.032.22-.344.064-.688.175-1.032.248zm-9.822 2.076V2.92c.344.12.689.248 1.031.359.343.11.69.256 1.033.358v49.247c-.343.116-.69.281-1.033.406-.342.125-.687.271-1.031.406zM.001 56.917V.054C.346.226.69.386 1.033.549c.343.163.69.34 1.032.494V55.81c-.342.174-.689.371-1.032.553-.343.183-.687.362-1.032.554z"/></svg>