<svg xmlns="http://www.w3.org/2000/svg" preserveAspectRatio="xMidYMid" width="67.937" height="62.719" viewBox="0 0 67.937 62.719"><defs><style>.cls-1{fill:#f4f5f7;fill-rule:evenodd}</style></defs><path d="M65.67 56.728v.054c.778.322 1.247 1.18 1.491 2.424.328 1.676.568 2.84.779 3.302h-1.355c-.164-.357-.392-1.375-.675-2.871-.301-1.66-.843-2.285-2.032-2.335h-1.233v5.206h-1.312v-11.86c.664-.161 1.614-.251 2.514-.251 1.403 0 2.303.306 2.933.982.512.534.8 1.355.8 2.281 0 1.592-.843 2.639-1.91 3.068zm-1.731-5.133c-.631 0-1.084.067-1.294.142v4.385h1.338c1.4 0 2.286-.91 2.286-2.282 0-1.555-.947-2.229-2.33-2.245zm-1.394-28.959L60.95 19.4l-2.423-.142-1.839-3.759c6.536-.094 7.83 3.41 7.94 4.186.255 1.799-2.083 2.951-2.083 2.951zm-45.372-9.658c-.217 6.132 14.768 9.227 14.768 9.227s-14.577 2.479-14.721 8.947c-.229 10.272 37.723 12.37 37.723 12.37S17.883 45.045 2.986 29.25C1.144 27.3.037 24.594-.016 21.875c-.05-2.38.481-4.52 2.467-7.087C10.58 4.27 37.318-1.44 62.545.324c0 0-44.986 1.758-45.372 12.654zM4.454 61.401c1.339 0 2.121-.836 2.121-2.049 0-1.122-.542-1.766-1.91-2.391-1.656-.695-2.678-1.713-2.678-3.404 0-1.874 1.307-3.268 3.277-3.268 1.04 0 1.795.286 2.246.589l-.363 1.267a3.6 3.6 0 0 0-1.926-.569c-1.384 0-1.911.978-1.911 1.799 0 1.127.619 1.677 2.018 2.322 1.716.784 2.586 1.762 2.586 3.53 0 1.852-1.159 3.479-3.548 3.479-.98 0-2.047-.357-2.59-.785l.33-1.304c.589.428 1.444.784 2.348.784zm11.602-9.595h-3.101v10.702h-1.323V51.806H8.546v-1.319h7.51v1.319zm6.576-.427c.511.534.798 1.355.798 2.281 0 1.592-.843 2.639-1.915 3.068v.054c.785.322 1.251 1.18 1.491 2.424.332 1.676.572 2.84.785 3.302h-1.357c-.163-.357-.39-1.375-.675-2.871-.302-1.66-.843-2.285-2.03-2.335h-1.235v5.206h-1.312v-11.86c.664-.161 1.613-.251 2.516-.251 1.397 0 2.301.306 2.934.982zm-4.138 4.743h1.339c1.399 0 2.287-.91 2.287-2.282 0-1.555-.948-2.229-2.33-2.245-.632 0-1.083.067-1.296.142v4.385zm12.262-4.331h-4.165v3.797h3.941v1.284h-3.941v4.336h4.392v1.3H25.28V50.487h5.476v1.304zm6.185-1.302l3.462 12.021h-1.399l-1.083-3.781h-3.597l-1.052 3.781h-1.354l3.444-12.021h1.579zm.709 7.026l-.992-3.46c-.228-.786-.376-1.501-.529-2.195h-.031a39.639 39.639 0 0 1-.507 2.174l-.996 3.481h3.055zm6.29-7.028l1.727 5.816c.424 1.48.771 2.795 1.029 4.048h.043c.255-1.214.614-2.534 1.067-4.048l1.807-5.816h1.671l.63 12.021h-1.278l-.256-5.279c-.076-1.676-.167-3.691-.152-5.191h-.045a79.137 79.137 0 0 1-1.278 4.568l-1.79 5.831h-.991l-1.644-5.726c-.48-1.697-.887-3.248-1.17-4.673h-.033c-.028 1.5-.104 3.515-.196 5.318l-.271 5.152h-1.247l.706-12.021h1.671zM58.72 23.16l2.277-.046 1.599 3.091c-2.857 2.38-5.716 1.425-5.716 1.425l-.871-1.854 2.369-3.471.342.855zm-3.913-7.578l1.795 3.522-1.707 1.772-5.036-4.332c2.965-1.292 4.948-.962 4.948-.962zm-10.516 5.532c.107-1.866 3.205-3.342 3.398-3.342.195 0 1.878 1.723 1.878 1.723l-3.098 4.95s-2.295-1.337-2.178-3.331zm10.508 3.427l-.919.663 1.015 2.571c-3.874.854-6.876-1.476-6.876-1.476l3.294-4.853 3.486 3.095zm4.608 27.25h-4.165v3.797h3.942v1.284h-3.942v4.336h4.393v1.3h-5.704V50.487h5.476v1.304z" class="cls-1"/></svg>