<svg xmlns="http://www.w3.org/2000/svg" width="24" height="24" viewBox="0 0 24 24"><path fill="#888" d="M12.463 7.02c-.082-.187-.263-.307-.463-.307s-.381.12-.463.307l-3.434 7.854a.521.521 0 0 0 .256.684.507.507 0 0 0 .669-.262L12 8.5l1.873 4.177c.115.261.413.378.67.261a.523.523 0 0 0 .256-.684L12.463 7.02z"/><path fill="#888" d="M9.664 11.967c0 .286.227.518.507.518h3.57l1.229 2.813a.506.506 0 0 0 .669.262.522.522 0 0 0 .256-.684l-1.363-3.119a.506.506 0 0 0-.463-.306h-3.898a.51.51 0 0 0-.507.516zM23.991 8.112l-1.256-6.673a.513.513 0 0 0-.349-.397.499.499 0 0 0-.507.129l-2.286 2.337a11.093 11.093 0 0 0-15.552.358 11.581 11.581 0 0 0-3.29 7.747.512.512 0 0 0 .49.535h.017a.513.513 0 0 0 .506-.5 10.545 10.545 0 0 1 2.994-7.049 10.098 10.098 0 0 1 14.485 0c.19.194.527.194.717 0l1.96-2.004.935 4.963-4.856-.955L20.03 4.56a.525.525 0 0 0 0-.732.498.498 0 0 0-.717 0L16.606 6.56a.525.525 0 0 0-.126.518c.055.184.204.32.389.356l6.529 1.284a.5.5 0 0 0 .454-.143.526.526 0 0 0 .139-.463z"/><path fill="#888" d="M22.759 11.853h-.017a.513.513 0 0 0-.506.5 10.545 10.545 0 0 1-2.994 7.049 10.098 10.098 0 0 1-14.485 0 .514.514 0 0 0-.717 0l-1.96 2.004-.935-4.963 4.856.955-2.032 2.041a.527.527 0 0 0 0 .733.5.5 0 0 0 .717 0l2.708-2.732a.525.525 0 0 0 .126-.518.508.508 0 0 0-.389-.356L.603 15.282a.497.497 0 0 0-.454.143.523.523 0 0 0-.139.464l1.256 6.673c.035.188.17.342.349.397a.501.501 0 0 0 .507-.129l2.286-2.336a11.096 11.096 0 0 0 15.552-.359 11.583 11.583 0 0 0 3.29-7.747.515.515 0 0 0-.491-.535z"/></svg>