<svg id="Layer_1" data-name="Layer 1" xmlns="http://www.w3.org/2000/svg" height="62" width="69" viewBox="0 0 17 15.97"><defs><style>.cls-1{fill:#fff}</style></defs><path class="cls-1" d="M1.34 14.18c-.35-.16-.5-.3-.5-.59a.44.44 0 0 1 .48-.46.89.89 0 0 1 .48.14l.08-.27a1 1 0 0 0-.56-.15.79.79 0 0 0-.82.83.92.92 0 0 0 .67.87c.34.16.48.32.48.61a.49.49 0 0 1-.53.52 1 1 0 0 1-.59-.2l-.08.33a1.14 1.14 0 0 0 .65.2.83.83 0 0 0 .9-.93.92.92 0 0 0-.66-.9zM2.14 13.19h.78v2.72h.33v-2.72h.77v-.34H2.14v.34zM5.39 14.46a.8.8 0 0 0 .48-.78.85.85 0 0 0-.2-.58.92.92 0 0 0-.73-.25 2.84 2.84 0 0 0-.63.06v3h.33v-1.32h.31c.3 0 .43.17.51.59a4.81 4.81 0 0 0 .17.73H6a5.6 5.6 0 0 1-.2-.84.76.76 0 0 0-.41-.61zM5 14.29h-.37v-1.12a1.1 1.1 0 0 1 .32 0 .52.52 0 0 1 .58.57.54.54 0 0 1-.53.55zM6.66 14.48h.98v-.33h-.98v-.96H7.7v-.34H6.33v3.06h1.43v-.33h-1.1v-1.1zM8.85 12.85L8 15.92h.34l.26-1h.9l.27 1h.35l-.87-3.06zm-.19 1.79l.25-.89c0-.19.09-.37.13-.55H9c0 .18.08.36.13.56l.25.88zM12.42 12.85L12 14.34c-.11.39-.2.72-.27 1-.06-.32-.15-.65-.26-1L11 12.85h-.42l-.18 3.06h.31l.07-1.31v-1.35c.07.36.17.76.29 1.19l.41 1.46h.25l.45-1.48c.13-.42.23-.8.32-1.16v1.32l.06 1.34H13l-.16-3.06zM13.83 14.48h.98v-.33h-.98v-.96h1.04v-.34H13.5v3.06h1.43v-.33h-1.1v-1.1zM16.81 15.07a.77.77 0 0 0-.37-.62.8.8 0 0 0 .48-.78.85.85 0 0 0-.2-.58.92.92 0 0 0-.73-.25 2.84 2.84 0 0 0-.63.06v3h.33v-1.31H16c.3 0 .43.17.51.59a4.75 4.75 0 0 0 .17.73H17a5.6 5.6 0 0 1-.19-.84zm-.81-.78h-.33v-1.12a1.1 1.1 0 0 1 .32 0 .52.52 0 0 1 .58.57.54.54 0 0 1-.57.55zM13.75 11.08s-9.5-.53-9.44-3.15C4.35 6.28 8 5.65 8 5.65S4.25 4.86 4.3 3.3C4.4.53 15.65.08 15.65.08c-6.31-.45-13 1-15 3.68A2.67 2.67 0 0 0 0 5.57a2.88 2.88 0 0 0 .75 1.88c3.73 4.02 13 3.63 13 3.63z"/><path class="cls-1" d="M11.94 4.52s-.82.38-.85.85.54.85.54.85L12.41 5a4.13 4.13 0 0 0-.47-.48zM13.74 7.07l-.25-.65.23-.17-.87-.79L12 6.69a2.21 2.21 0 0 0 1.74.38zM15.67 6.67l-.4-.79h-.57l-.09-.22-.61.9.22.47a1.55 1.55 0 0 0 1.45-.36zM14.65 4.9h.61l.4.82s.58-.29.52-.75c0-.2-.35-1.09-2-1.07zM14.17 4.86L13.72 4a2.36 2.36 0 0 0-1.24.25l1.26 1.1z"/></svg>