<svg xmlns="http://www.w3.org/2000/svg" preserveAspectRatio="xMidYMid" width="77" height="76" viewBox="0 0 77 76"><defs><style>.cls-1{fill:#fff;fill-rule:evenodd}</style></defs><path d="M63.128 70.833h9.123v5.154H2.441v-5.154h3.214V29.499l-2.268 1.996-3.394-3.872L31.363.004 62.92 23.426c8.379 4.605 14.072 13.53 14.072 23.764 0 10.147-5.6 19.004-13.864 23.643zm-13.161-1.661c1.521 0 3.005-.157 4.44-.454l.007-18.772c0-1.933-1.661-2.686-3.215-2.748a2.964 2.964 0 0 0-2.193.858c-.724.697-.993 1.53-.993 1.891v7.44c0 .587-.368 1.111-.92 1.31a1.385 1.385 0 0 1-1.54-.426c-.74-.899-1.412-1.281-3.486-1.177-1.867.095-3.275 1.476-3.275 3.213l-.035 5.767a21.758 21.758 0 0 0 11.21 3.098zM31.629 6.629L10.797 24.971v45.862h26.008c-8.263-4.639-13.864-13.496-13.864-23.643 0-14.935 12.124-27.086 27.026-27.086.113 0 .224.007.337.009L31.629 6.629zm18.338 18.578c-12.095 0-21.935 9.861-21.935 21.983 0 6.803 3.101 12.894 7.96 16.929l.023-3.821c0-3.236 2.541-5.811 5.91-5.984 1.215-.063 2.309.002 3.311.37v-4.737c0-1.287.724-2.816 1.844-3.897 1.155-1.113 2.644-1.712 4.227-1.632 3.464.134 5.884 2.408 5.884 5.529l-.006 17.996c8.558-2.998 14.716-11.167 14.716-20.753 0-12.122-9.839-21.983-21.934-21.983zm17.902 16.01c-1.557 1.427-4.641 2.314-8.049 2.314-3.61 0-6.778-.97-8.269-2.529a1.395 1.395 0 0 1 .043-1.968 1.388 1.388 0 0 1 1.963.043c.768.804 3.056 1.67 6.263 1.67 3.072 0 5.315-.795 6.174-1.584a1.387 1.387 0 0 1 1.962.088 1.393 1.393 0 0 1-.087 1.966zm-27.661 2.166c-3.61 0-6.779-.97-8.269-2.529a1.395 1.395 0 0 1 .043-1.968 1.386 1.386 0 0 1 1.963.043c.769.804 3.056 1.67 6.263 1.67 3.074 0 5.315-.795 6.173-1.582a1.387 1.387 0 0 1 1.962.086 1.395 1.395 0 0 1-.085 1.966c-1.555 1.427-4.64 2.314-8.05 2.314z" class="cls-1"/></svg>