<svg xmlns="http://www.w3.org/2000/svg" width="57" height="64"><defs><linearGradient id="a" gradientUnits="userSpaceOnUse" x1="18" y1="113" x2="131"><stop offset="0" stop-color="#00adef"/><stop offset="1" stop-color="#31ecbe"/></linearGradient></defs><path fill="url(#a)" d="M56.995 22.47L48.78 33.551l-1.032-3.841c-1.265.363-3.418.863-6.545 1.205-5.333.581-12.221-.673-15.998-2.147l-3.654-1.426 3.889-.506c8.604-1.119 14.227-2.394 20.327-4.632l-1.15-4.313 12.378 4.579zm-26.642 5.691c3.136.676 7.081 1.144 10.633.757 4.055-.443 6.331-1.146 7.121-1.429l1.023-.364.509 1.897 4.151-5.597-6.236-2.307.62 2.327-.848.322c-5.408 2.047-10.324 3.338-16.973 4.394zm11.701 11.015l.27.041.781-4.34 9.285 9.396-12.104 6.578.679-3.923a35.334 35.334 0 0 1-8.119-2.133c-6.52-2.572-9.619-5.571-11.67-7.556l-2.68-2.594 3.617.896c6.241 1.547 16.553 3.118 19.941 3.635zm-8.474 3.751c3.792 1.496 6.843 1.904 8.482 2.124l1.234.166-.328 1.891 6.117-3.324-4.691-4.748-.451 2.504-.999-.193c-.104-.02-.526-.083-1.191-.185-2.795-.426-10.262-1.564-16.351-2.824 1.859 1.48 4.382 3.09 8.178 4.589zm2.517 7.87l4.364 12.467-13.743.721 2.258-3.196a32.23 32.23 0 0 1-1.178-.743c-6.817-4.52-11.012-9.64-13.203-16.113l-1.301-3.845 2.94 2.793c2.273 2.158 14.154 9.598 17.31 11.539l2.553-3.623zm-18.189-4.122c2.257 4.489 5.822 8.264 10.996 11.695.771.512 1.452.908 2.017 1.229l.964.548-1.141 1.616 6.939-.365-2.191-6.259-1.308 1.857-.738-.302c-.514-.211-10.218-6.273-15.538-10.019zM0 31.922V-.006h15.544v23.541l-6.801 8.387H0zM13.539 2.003H2.005v27.91H7.79l5.749-7.091V2.003z"/></svg>