<svg xmlns="http://www.w3.org/2000/svg" width="69" height="51"><defs><linearGradient id="a" x1="0%" x2="61.566%" y1="0%" y2="78.801%"><stop offset="0%" stop-color="#00ADEF" stop-opacity=".8"/><stop offset="44%" stop-color="#1CD1DA" stop-opacity=".8"/><stop offset="100%" stop-color="#37F4C5" stop-opacity=".8"/></linearGradient></defs><path fill-rule="evenodd" d="M67.975 26.485h-4.771a1.002 1.002 0 1 1 0-2.004h4.771a1.003 1.003 0 0 1 0 2.004zm-10.86 13.41a1.005 1.005 0 0 1-1.005-1.003V14.078a1.004 1.004 0 1 1 2.009 0v24.814c0 .552-.449 1.003-1.004 1.003zm-6.466 4.819a1.004 1.004 0 0 1-1.005-1.004V7.255c0-.553.45-1 1.005-1 .555 0 1.004.447 1.004 1V43.71c0 .555-.449 1.004-1.004 1.004zm-6.466 6.268a1.003 1.003 0 0 1-1.004-1.004V.989c0-.554.449-1.002 1.004-1.002.555 0 1.004.448 1.004 1.002v48.989c0 .555-.449 1.004-1.004 1.004zm-6.466-6.268a1.004 1.004 0 0 1-1.005-1.004V7.255c0-.553.45-1 1.005-1 .555 0 1.004.447 1.004 1V43.71c0 .555-.449 1.004-1.004 1.004zm-6.466 4.267a1.002 1.002 0 0 1-1.004-1.002V2.988c0-.553.449-1.001 1.004-1.001.555 0 1.004.448 1.004 1.001v44.991c0 .554-.449 1.002-1.004 1.002zm-6.466-9.086a1.004 1.004 0 0 1-1.004-1.003V12.078a1.003 1.003 0 1 1 2.008 0v26.814c0 .552-.449 1.003-1.004 1.003zm-6.466 4.819a1.003 1.003 0 0 1-1.004-1.004V7.255c0-.553.449-1 1.004-1 .555 0 1.004.447 1.004 1V43.71c0 .555-.449 1.004-1.004 1.004zm-6.466-12.192a1.003 1.003 0 0 1-1.004-1.003V19.448c0-.555.449-1.003 1.004-1.003.555 0 1.005.448 1.005 1.003v12.071c0 .555-.45 1.003-1.005 1.003zm-6.089-6.037H.993a1.003 1.003 0 1 1 0-2.004h4.771a1.003 1.003 0 1 1 0 2.004z"/><path fill="url(#a)" d="M67.975 26.485h-4.771a1.002 1.002 0 1 1 0-2.004h4.771a1.003 1.003 0 0 1 0 2.004zm-10.86 13.41a1.005 1.005 0 0 1-1.005-1.003V14.078a1.004 1.004 0 1 1 2.009 0v24.814c0 .552-.449 1.003-1.004 1.003zm-6.466 4.819a1.004 1.004 0 0 1-1.005-1.004V7.255c0-.553.45-1 1.005-1 .555 0 1.004.447 1.004 1V43.71c0 .555-.449 1.004-1.004 1.004zm-6.466 6.268a1.003 1.003 0 0 1-1.004-1.004V.989c0-.554.449-1.002 1.004-1.002.555 0 1.004.448 1.004 1.002v48.989c0 .555-.449 1.004-1.004 1.004zm-6.466-6.268a1.004 1.004 0 0 1-1.005-1.004V7.255c0-.553.45-1 1.005-1 .555 0 1.004.447 1.004 1V43.71c0 .555-.449 1.004-1.004 1.004zm-6.466 4.267a1.002 1.002 0 0 1-1.004-1.002V2.988c0-.553.449-1.001 1.004-1.001.555 0 1.004.448 1.004 1.001v44.991c0 .554-.449 1.002-1.004 1.002zm-6.466-9.086a1.004 1.004 0 0 1-1.004-1.003V12.078a1.003 1.003 0 1 1 2.008 0v26.814c0 .552-.449 1.003-1.004 1.003zm-6.466 4.819a1.003 1.003 0 0 1-1.004-1.004V7.255c0-.553.449-1 1.004-1 .555 0 1.004.447 1.004 1V43.71c0 .555-.449 1.004-1.004 1.004zm-6.466-12.192a1.003 1.003 0 0 1-1.004-1.003V19.448c0-.555.449-1.003 1.004-1.003.555 0 1.005.448 1.005 1.003v12.071c0 .555-.45 1.003-1.005 1.003zm-6.089-6.037H.993a1.003 1.003 0 1 1 0-2.004h4.771a1.003 1.003 0 1 1 0 2.004z"/></svg>