<svg xmlns="http://www.w3.org/2000/svg" width="62" height="68"><defs><linearGradient id="a" gradientUnits="userSpaceOnUse" x1="18" y1="113" x2="131"><stop offset="0" stop-color="#00adef"/><stop offset="1" stop-color="#31ecbe"/></linearGradient></defs><path fill="url(#a)" d="M59.884 48.863a1.006 1.006 0 0 1-.35.327c-7.479 4.162-8.875 6.188-11.935 10.627l-.157.229c-.532 6.08-.815 7.846-3.068 7.865-.911.004-1.39.016-2.004.031-.616.014-1.368.032-2.811.051-.164.003-.328.005-.487.005-3.361 0-4.08-1.342-5.02-5.451-1.453.51-3.278.768-5.444.768-2.333 0-4.522-.296-5.776-.505-.274 1.909-.989 4.606-2.845 4.641l-1.41.04c-2.682.079-3.543.1-6.556-.078a.904.904 0 0 1-.155-.022c-2.58-.564-3.364-6.098-3.576-8.348C-3.843 47.92.674 32.531 1.767 29.4.29 27.485-.269 25.667.106 23.989c.355-1.592 1.474-2.62 2.405-3.051.102-.047.212-.077.324-.088.81-.081 1.457.165 1.946.682.569.6.745 1.42.793 2.001 4.405-3.508 11.726-5.215 22.35-5.215 2.908 0 5.593.122 7.751.22.68.031 1.307.06 1.874.081 2.998-3.802 6.55-4.617 9.041-4.617 2.577 0 4.648.857 5.196 1.248.164.117.29.28.359.469.159.436.123.985.023 1.486.404.112.895.283 1.488.542.221.097.4.27.504.488 1.093 2.302-1.686 6.246-2.631 7.483-.035 2.384 4.775 7.245 9.708 10.937a.998.998 0 0 1 .339.453c1.579 4.27-.199 9.477-1.692 11.755zm-.093-10.794c-2.877-2.178-10.896-8.676-10.22-12.892.027-.168.097-.328.203-.462 1.43-1.806 2.72-4.213 2.649-5.315-.957-.375-1.388-.387-1.439-.387-.369.115-.671-.015-.932-.296-.261-.282-.241-.707-.102-1.064.123-.31.227-.687.277-.963a9.995 9.995 0 0 0-3.637-.689c-3.083 0-5.69 1.422-7.75 4.226a1.027 1.027 0 0 1-.84.408c-.701-.022-1.513-.059-2.417-.101-2.136-.097-4.797-.217-7.659-.217-10.475 0-17.498 1.663-21.471 5.085a1.03 1.03 0 0 1-.69.242c-.809-.029-1.4-.05-1.832-.527-.257-.283-.374-.651-.346-1.093.021-.381-.071-.921-.258-1.119-.022-.022-.052-.053-.138-.065a2.533 2.533 0 0 0-1.129 1.583c-.258 1.156.299 2.59 1.609 4.148.239.286.3.681.158 1.025-.281.681-6.734 16.794 6.092 28.224.192.171.311.41.331.665.269 3.333 1.226 6.64 1.995 6.939 2.877.17 3.708.144 6.274.069l1.422-.041c.341-.232.872-2.138 1.019-3.902a1.001 1.001 0 0 1 1.207-.895c.031.006 3.133.661 6.441.661 2.473 0 4.385-.353 5.686-1.048a1.01 1.01 0 0 1 .892-.027c.285.132.492.39.559.696C36.845 66 37.014 66 39.072 66l.452-.006a204.62 204.62 0 0 0 2.798-.051c.626-.014 1.113-.026 2.04-.031a.96.96 0 0 0 .213-.015c.388-.45.73-4.392.895-6.286a1 1 0 0 1 .173-.481l.307-.447c3.114-4.516 4.692-6.806 12.386-11.115 1.293-2.113 2.51-6.25 1.455-9.499zM24.258 13.786c-3.807 0-6.904-3.092-6.904-6.893 0-3.802 3.097-6.896 6.904-6.896 3.809 0 6.907 3.094 6.907 6.896 0 3.801-3.098 6.893-6.907 6.893zm0-11.79a4.905 4.905 0 0 0-4.902 4.897 4.904 4.904 0 0 0 9.807 0c0-2.7-2.2-4.897-4.905-4.897z"/></svg>