<svg xmlns="http://www.w3.org/2000/svg" preserveAspectRatio="xMidYMid" width="75" height="72.75" viewBox="0 0 75 72.75"><defs><style>.cls-1{fill:#fff;fill-rule:evenodd}</style></defs><path d="M75 69.022v3.345H63.077V58.035h11.641v3.344h-6.962v2.048h5.894v3.345h-5.894v2.25H75zM66.18.729c1.023-.228 2.051-.476 3.081-.728v32.351c-1.03-.283-2.058-.555-3.081-.811V.729zm-9.741 28.73c-.146-.026-.293-.06-.438-.085V2.648c1.023-.154 2.055-.35 3.082-.528v27.853l-3.082-.595c.146.024.292.055.438.081zm11.98 13.183h-7.744v2.049h6.555v3.345h-6.555v2.249h8.055v3.345H55.469V39.298h12.95v3.344zm-7.481 29.725H49.826V58.035h4.684v10.987h6.428v3.345zM44.894 53.634h-6.836V39.298h6.97c5.116 0 8.296 2.151 8.296 6.866 0 5.398-3.333 7.47-8.43 7.47zm-.638-10.992h-.993v7.648h1.101c2.428 0 3.751-1.155 3.751-3.865 0-2.987-1.077-3.783-3.859-3.783zm1.571-38.855c1.028-.071 2.054-.217 3.081-.315v24.96l-3.081-.358V3.787zm3.081-.315c-1.027.094-2.053.244-3.081.315l3.081-.315zM37.085 27.707c.555.005 1.097.06 1.648.068l-3.081-.008c.481-.008.95-.055 1.433-.06zm-1.433.056V4.055c.481.004.95.051 1.433.051h.002c-.483 0-.954-.047-1.435-.051l3.081-.008v23.728c-.551-.012-1.093-.068-1.646-.071-.483.003-.954.051-1.435.059zm-5.939 11.535h5.205v14.336h-5.205V39.298zm-4.238-10.889c1.027-.106 2.053-.264 3.082-.343l-3.082.343zm3.082-24.614v24.267c-1.029.083-2.055.237-3.082.347V3.495c1.027.094 2.053.233 3.082.3zm0 0c-1.029-.071-2.055-.206-3.082-.3l3.082.3zm-4.613 49.839h-5.117l-1.833-8.324h-.039l-1.814 8.324h-5.12L6.074 39.298h5.032l1.784 8.86h.045l1.897-8.86h4.306l1.895 8.86h.046l1.784-8.86h5.032l-3.951 14.336zM15.299 2.156c1.026.173 2.058.378 3.081.528v26.651l-3.081.599V2.156zM5.124.052c1.03.252 2.061.5 3.081.725v30.709c-1.02.252-2.051.528-3.081.811V.052zm9.874 72.315h-4.667l-.555-1.896H5.114l-.536 1.896H-.003L5.114 58.03h4.762l5.122 14.337zm-7.54-10.015L6.009 67.49h2.956l-1.507-5.138zm18.628 3.503l-.181-3.262v-4.558h4.481v14.332h-4.381l-5.101-7.801.177 3.262v4.539h-4.477V58.035h4.38l5.102 7.82zm13.941-8.203c3.432 0 6.188 1.797 6.767 5.319h-4.445c-.338-1.174-1.19-1.812-2.399-1.812-1.849 0-2.718 1.67-2.718 4.203 0 2.025.632 3.88 2.995 3.88.948 0 2.163-.657 2.396-1.654H40.56v-3.104h6.411v7.922h-3.015l-.18-1.414c-.772.918-2.061 1.753-4.305 1.753-3.651 0-6.922-2.368-6.922-7.363 0-4.582 2.857-7.73 7.478-7.73z" class="cls-1"/></svg>