<svg xmlns="http://www.w3.org/2000/svg" width="45" height="58" viewBox="0 0 45 58"><path fill="#29AAE2" d="M44.449 12.187l-5.818-5.818-5.047-5.048-.77-.77A1.892 1.892 0 0 0 31.485 0H2.463C1.277 0 0 .916 0 2.926V56c0 .837.842 1.653 1.838 1.91.05.013.098.032.15.042.156.031.315.048.475.048h40.074c.16 0 .319-.017.475-.048.052-.01.101-.029.152-.043C44.159 57.652 45 56.837 45 56V13.978c0-.767-.093-1.334-.551-1.791zM41.435 12H33V3.565l4.248 4.249L41.435 12zM2.463 2h28.595a1.54 1.54 0 0 0-.058.391V14h11.608c.135 0 .265-.025.391-.058l.001.036v12.693l-8.311-7.896a1.004 1.004 0 0 0-1.428.051l-9.795 10.727-4.743-4.743a1 1 0 0 0-1.355-.055L2 37.836V2.926C2 2.709 2.033 2 2.463 2zm0 54c-.071 0-.135-.026-.198-.049A.458.458 0 0 1 2 55.537V41h41v14.537a.46.46 0 0 1-.265.414c-.063.024-.127.049-.198.049H2.463zm1.255-17l14.245-12.124L28.276 37.19a.999.999 0 1 0 1.414-1.414l-4.807-4.807 9.168-10.041L43 29.429V39H3.718z"/><path fill="#29AAE2" d="M12.854 51.43c-.019.446-.171.764-.458.95-.287.186-.672.28-1.155.28-.191 0-.396-.022-.615-.068a7.705 7.705 0 0 1-.629-.157 6.357 6.357 0 0 1-.554-.191 2.042 2.042 0 0 1-.39-.198l-.697 1.107c.182.137.405.26.67.369.264.109.54.207.827.294.287.087.565.15.834.191.269.041.503.062.704.062.401 0 .791-.039 1.169-.116a2.778 2.778 0 0 0 1.005-.41c.292-.196.524-.456.697-.779.173-.323.26-.723.26-1.196V43.72h-1.668v7.71zM22.267 44.744a3.438 3.438 0 0 0-1.128-.615 4.067 4.067 0 0 0-1.271-.205H16.97V54h1.641v-3.637h1.217c.528 0 1.012-.077 1.449-.232.437-.155.811-.374 1.121-.656s.551-.631.725-1.046c.173-.415.26-.877.26-1.388 0-.483-.103-.918-.308-1.306a3.229 3.229 0 0 0-.808-.991zm-.622 3.329c-.101.278-.232.494-.396.649a1.499 1.499 0 0 1-.54.335 1.808 1.808 0 0 1-.595.103H18.61v-3.992h1.23c.419 0 .756.066 1.012.198.255.132.453.296.595.492.141.196.234.401.28.615a2.8 2.8 0 0 1 .068.567c0 .411-.05.755-.15 1.033zM29.26 49.926h1.709v2.488a.683.683 0 0 1-.342.232 3.29 3.29 0 0 1-.485.13 4.618 4.618 0 0 1-.506.068 5.139 5.139 0 0 1-.403.021c-.328 0-.641-.077-.937-.232s-.561-.392-.793-.711c-.232-.319-.415-.729-.547-1.23-.132-.501-.203-1.094-.212-1.777.009-.702.082-1.294.219-1.777.137-.483.326-.877.567-1.183.241-.306.515-.521.82-.649.305-.128.626-.191.964-.191.301 0 .592.06.875.178.282.118.533.31.752.574l1.135-1.012a3.73 3.73 0 0 0-1.271-.82 4.212 4.212 0 0 0-1.531-.273c-.593 0-1.144.111-1.654.335a3.78 3.78 0 0 0-1.333.978c-.378.429-.675.964-.889 1.606-.214.643-.321 1.388-.321 2.235s.107 1.595.321 2.242c.214.647.51 1.185.889 1.613.378.429.82.752 1.326.971.506.219 1.06.328 1.661.328.301 0 .604-.022.909-.068a4.308 4.308 0 0 0 1.709-.649c.259-.169.494-.385.704-.649v-3.896H29.26v1.118zM12.569 23.638a5.575 5.575 0 0 0 5.569-5.569 5.575 5.575 0 0 0-5.569-5.569A5.575 5.575 0 0 0 7 18.069a5.575 5.575 0 0 0 5.569 5.569zm0-9.138c1.968 0 3.569 1.601 3.569 3.569s-1.601 3.569-3.569 3.569S9 20.037 9 18.069s1.601-3.569 3.569-3.569z"/></svg>