<svg xmlns="http://www.w3.org/2000/svg" viewBox="0 10.8 76.9 89.2"><linearGradient id="a" gradientUnits="userSpaceOnUse" x1="-25.687" y1="148.166" x2="98.828" y2="-11.206" gradientTransform="matrix(.9234 0 0 -.9234 6.74 92.336)"><stop offset="0" stop-color="#0c90c2"/><stop offset="1" stop-color="#2dd2ab"/></linearGradient><path fill="url(#a)" d="M44.5 27c1.8-.7 3.2-1.8 4.4-3 1.1-1.3 1.8-2.8 1.8-4.6 0-1.7-.6-3.1-1.6-4.5-1-1.3-2.4-2.4-4.1-3-1.7-.7-3.4-1-5.4-1s-3.7.4-5.4 1c-1.7.7-3 1.8-4.1 3-1 1.3-1.6 2.8-1.6 4.4 0 1.8.6 3.4 1.8 4.7 1.1 1.3 2.6 2.3 4.4 3-2.1.7-3.9 1.8-5.3 3.1-1.3 1.4-2 3-2 4.9 0 2.7 1.2 5 3.5 6.6 2.3 1.8 5.2 2.6 8.7 2.6 2.3 0 4.3-.4 6.2-1.1s3.3-1.8 4.3-3.2c1.1-1.4 1.6-3 1.6-4.8s-.6-3.5-2-5c-1.3-1.4-3.1-2.5-5.2-3.1zm-11-2.8c-1.7-1.3-2.5-2.9-2.5-4.8 0-1.8.8-3.4 2.5-4.6 1.7-1.2 3.7-1.8 6.1-1.8s4.4.6 6.1 1.8 2.5 2.7 2.5 4.5c0 2-.8 3.6-2.5 4.9s-3.7 1.9-6 1.9c-2.5-.1-4.5-.7-6.2-1.9zm13 15.9c-1.8 1.4-4.1 2-7 2-2.9 0-5.3-.6-7-2-1.8-1.3-2.7-3-2.7-4.9 0-2 .9-3.8 2.8-5.1 1.8-1.3 4.2-2 6.8-2 2.7 0 5 .6 6.8 2 1.8 1.3 2.8 3 2.8 5 .2 1.9-.7 3.6-2.5 5z"/><linearGradient id="b" gradientUnits="userSpaceOnUse" x1="-6.938" y1="163.47" x2="111.735" y2="11.576" gradientTransform="matrix(.9234 0 0 -.9234 6.74 92.336)"><stop offset="0" stop-color="#0c90c2"/><stop offset="1" stop-color="#2dd2ab"/></linearGradient><path fill="url(#b)" d="M57.3 11.2c-.8 0-1.7.3-2.3.9-.6.6-1 1.4-1 2.2s.4 1.7 1 2.3 1.4.9 2.3.9c.8 0 1.7-.3 2.3-.9s1-1.4 1-2.2c0-.8-.4-1.7-1-2.3-.6-.6-1.4-.9-2.3-.9zm1.5 4.7c-.4.5-.9.6-1.5.6s-1.1-.2-1.5-.6c-.4-.5-.6-.9-.6-1.5s.2-1.1.6-1.5c.4-.4.9-.6 1.5-.6s1.1.2 1.5.6c.4.5.6.9.6 1.5s-.2 1-.6 1.5z"/><linearGradient id="c" gradientUnits="userSpaceOnUse" x1="-1.337" y1="170.882" x2="118.153" y2="17.941" gradientTransform="matrix(.9234 0 0 -.9234 6.74 92.336)"><stop offset="0" stop-color="#0c90c2"/><stop offset="1" stop-color="#2dd2ab"/></linearGradient><path fill="url(#c)" d="M75.7 22.6c-.7.7-1.5 1.2-2.2 1.6-.7.4-1.6.6-2.5.6-1.6 0-3-.6-4.1-1.8-1.1-1.2-1.7-2.6-1.7-4.3 0-1.8.6-3.1 1.7-4.3 1.1-1.2 2.4-1.8 4.1-1.8 1.7 0 3.2.6 4.6 2l1.1-1.2c-.8-.7-1.7-1.4-2.5-1.8-.8-.4-1.9-.6-3.1-.6-2.1 0-3.9.7-5.3 2.2s-2.1 3.2-2.1 5.4.7 4 2.1 5.4c1.4 1.5 3.1 2.2 5.3 2.2 1.3 0 2.4-.2 3.2-.6.9-.5 1.8-1 2.6-1.8l-1.2-1.2z"/><linearGradient id="d" gradientUnits="userSpaceOnUse" x1="-63.01" y1="122.698" x2="78.326" y2="-58.204" gradientTransform="matrix(.9234 0 0 -.9234 6.74 92.336)"><stop offset="0" stop-color="#0c90c2"/><stop offset="1" stop-color="#2dd2ab"/></linearGradient><path fill="url(#d)" d="M11.4 79.3V11.2h-.9V11H5.7v1.8h3.8v12.7H5.7v1.8h3.8V40H5.7v2h3.8v12.7H5.7v1.8h3.8v12.7H5.7V71h3.8v8C4.2 79.7 0 84.1 0 89.6 0 95.3 4.7 100 10.4 100s10.4-4.7 10.4-10.4c.1-5.3-4.1-9.8-9.4-10.3zm-1 18.9c-4.7 0-8.6-3.9-8.6-8.6S5.7 81 10.4 81s8.6 3.9 8.6 8.6c0 4.9-3.9 8.6-8.6 8.6z"/></svg>