<svg xmlns="http://www.w3.org/2000/svg" preserveAspectRatio="xMidYMid" width="73.093" height="62.03" viewBox="0 0 73.093 62.03"><defs><style>.cls-1{fill:#fff;fill-rule:evenodd}</style></defs><path d="M72.463 39.332c-.906-.781-5.229-4.47-6.501-5.559l5.998-2.483h-6.021l.464-8.602L50.955 9.425 49.889-.004 48.736 7.52 45.91 5.094l-.159-.141-13.886-.212-25.632 16.68.547 12.913-6.299 3.299-.165.083-.087.166a2.212 2.212 0 0 0-.133 1.598c.191.614.652 1.112 1.374 1.477 1.712.855 29.9 11.92 31.157 12.411.03.007.712.191 1.722.191.876 0 1.731-.137 2.539-.404.686-.226 4.692-1.456 9.751-3.002l1.749 11.873 4.352-13.735 7.11-2.168 4.716 1.642-2.199-2.408c5.404-1.645 9.571-2.912 9.687-2.946l.217-.123c.086-.076.834-.761.83-1.667-.001-.339-.113-.837-.638-1.289zm-7.27-16.103l-.434 8.061h-2.081c-2.653-1.96-6.55-4.826-10.085-7.37l-1.44-12.744 14.04 12.053zm-4.545 8.061h-7.222l-.65-5.751c2.726 1.969 5.583 4.064 7.872 5.751zM32.197 5.961l13.12.205 3.205 2.751-1.678 10.952c-.93-.63-1.688-1.124-2.146-1.382-3.54-1.992-6.132-.036-6.145-.014L7.934 33.748l-.495-11.677 24.758-16.11zM36.528 52a6.973 6.973 0 0 1-2.179.343c-.797 0-1.348-.134-1.364-.134-.463-.18-29.34-11.516-30.999-12.346-.416-.209-.673-.458-.764-.744a.896.896 0 0 1-.007-.508l6.427-3.365v.001l31.517-15.738c.086-.058 2.126-1.556 4.976.047.504.283 1.4.875 2.507 1.634l-1.573 10.263-16.132-.329 12.383 7.129-8.143 11.057 12.425-6.19.858 5.822c-5.133 1.568-9.224 2.824-9.932 3.058zm16.655-5.111l.881-2.779 3.846 1.338-4.727 1.441zm18.401-5.604c-.894.273-5.019 1.527-10.122 3.082l-5.787-6.336 9.032-3.739.09.067.035.029s5.813 4.959 6.876 5.876c.213.183.215.314.215.364.002.224-.194.498-.339.657z" class="cls-1"/></svg>