<svg height="103" overflow="visible" viewBox="0 0 50.44 25.774" width="209" xmlns="http://www.w3.org/2000/svg" xmlns:xlink="http://www.w3.org/1999/xlink"><defs><path id="a" d="M0 0h50.44v25.774H0z"/><clipPath id="b"><use xlink:href="#a"/></clipPath></defs><path clip-path="url(#b)" d="M30.361 6.26h-6.914c-.404 0-.438-.036-.476-.408-.075-.737-.395-1.374-.811-1.981-.403-.587-.961-.976-1.591-1.281a3.27 3.27 0 0 0-1.295-.324c-.554-.027-1.093-.006-1.609.196-.721.282-1.348.686-1.83 1.318-.425.555-.672 1.172-.88 1.818.052.469-.249.933-.01 1.404-.026.677.255 1.268.575 1.835.446.79 1.127 1.321 1.969 1.693.684.301 1.389.305 2.094.245.487-.041.947-.25 1.374-.498.515-.299.959-.682 1.282-1.177.273-.421.505-.867.638-1.355l.006-.089c.205-.526.027-.484.628-.485.461 0 .929-.052 1.381.011.732.101 1.461.057 2.191.064.188.002.285.098.374.217.507.68 1.007 1.363 1.513 2.045l.121.095.053-.157c.004-.649.001-1.298.003-1.949.001-.238.004-.241.253-.243.369-.003.738.004 1.106-.004.147-.003.221.022.22.195-.009 1.253-.003 2.505-.005 3.758-.001.214-.008.218-.235.219-.477.003-.953-.013-1.429.007a.481.481 0 0 1-.43-.203c-.35-.446-.694-.896-1.045-1.341a61.083 61.083 0 0 0-.81-1.016l-.155-.059-.007.16c.01.101.063.211.039.302-.117.441-.114.875.001 1.316.054.207-.011.424-.03.634-.009.087-.05.224-.24.208-.319-.027-.645-.003-.967-.009-.271-.004-.318-.05-.319-.315-.004-.966-.002-1.933-.002-2.9 0-.105.002-.211-.004-.316l-.041-.075-.04.077a5.15 5.15 0 0 1-.464 1.46c-.26.549-.554 1.078-.971 1.529-.221.238-.414.497-.686.701-.323.243-.637.489-.989.698-.48.284-1.001.438-1.526.603-.636.197-1.286.201-1.936.166-.536-.029-1.057-.183-1.559-.363a5.888 5.888 0 0 1-2.254-1.473 6.533 6.533 0 0 1-1.608-2.82 6.326 6.326 0 0 1-.18-.814c-.05-.366-.077-.737-.094-1.108-.018-.4.11-.787.152-1.178.046-.421.183-.804.311-1.191.257-.781.717-1.458 1.247-2.081A5.571 5.571 0 0 1 16.368.587a6.814 6.814 0 0 1 1.565-.503c.565-.111 1.126-.089 1.683-.06.41.021.822.138 1.216.264a5.88 5.88 0 0 1 2.319 1.406 6.32 6.32 0 0 1 1.622 2.573c.119.363.127.363.493.363h4.702c1.813 0 3.627.003 5.439-.003.238-.001.431.058.632.19.461.302.944.573 1.417.858l.164.126c.022.132.01.27-.002.403l-.112.053c-.106.007-.215.003-.322.003z" fill="#00adee"/><path clip-path="url(#b)" d="M35.361 11.61c-.547 0-1.01.013-1.462-.175a1.934 1.934 0 0 1-.994-.904c-.074-.137-.08-.31-.111-.467l.036-.084c.376-.032.745-.134 1.128-.099.104.009.143.037.181.145.157.45.475.666.946.671.331.003.673.053.962-.174l.179-.129c.124-.144.088-.335-.096-.417a3.098 3.098 0 0 0-.547-.179c-.531-.133-1.086-.178-1.604-.367-.344-.126-.646-.294-.833-.635-.18-.327-.178-.843.056-1.128.353-.432.821-.646 1.37-.678a7.922 7.922 0 0 1 1.242.002c.543.054 1.064.187 1.432.647a.977.977 0 0 1 .216.571c.013.176-.079.263-.215.275-.333.029-.669.03-1.004.03l-.096-.127c-.164-.38-.458-.528-.869-.5-.255.018-.512-.012-.76.092-.107.045-.193.09-.2.211-.01.147.081.211.214.243.404.097.8.224 1.216.277.414.051.815.169 1.192.347.702.334.914 1.203.501 1.813-.252.372-.607.506-.985.643-.382.139-.78.086-1.095.096" fill="#00adee"/><path clip-path="url(#b)" d="M10.006 20.58h.101c.107.007.228.014.275-.101.054-.133-.123-.067-.156-.148a2.599 2.599 0 0 0-.18-.347 1.897 1.897 0 0 0-.199-.286l-.144.034-.003.042c-.079.226.122.435.028.676-.035.086.156.152.278.13m-.523.991c.398 0 .796.003 1.195-.001.181-.002.362-.016.542-.024.013-.193.033-.384.035-.575.002-.209-.005-.214-.234-.215-.874-.002-1.747-.004-2.62.001-.209.001-.418.026-.627.041-.007.209-.011.418-.022.626-.006.123.059.149.168.148.521-.002 1.042-.001 1.563-.001m.025-4.349c-.507 0-1.014-.002-1.52.002-.226.001-.233.008-.234.225-.003.845-.003 1.689.001 2.534.001.191.025.383.038.574.197.008.394.023.59.021.211-.003.422-.022.632-.034.01-.208.026-.416.026-.624 0-.193-.017-.387-.026-.579-.195-.013-.392-.015-.586-.039-.101-.015-.29.088-.284-.102.005-.135.176-.059.272-.066.195-.019.393-.021.589-.029.013-.192.026-.384.037-.576.031-.526-.062-.494-.561-.48l-.114.06c-.103-.103-.192.048-.28.01l-.131-.123.113-.043c.614-.003 1.228-.006 1.842 0 .134.001.199-.042.282-.154.218-.299.364-.3.628-.049l.229.263c-.116.025-.231.054-.347.075l-.114-.018c-.213-.01-.426-.026-.639-.024-.175.002-.244.071-.251.242-.008.196.004.393-.004.589-.005.124.052.211.159.244.113.037.217-.017.27-.118.056-.108.09-.252.235-.233.126.016.249.089.363.156l.196.189.009.103-.101.06a2.126 2.126 0 0 0-.746.025c-.116.025-.237.025-.356.038.129.049.256.104.387.144.127.039.263.054.388.098.21.073.394.285.337.446-.086.241.031.32.219.398.166.067.199.065.199-.086.003-.98 0-1.961.004-2.941.001-.137-.049-.182-.186-.181-.521.006-1.043.003-1.565.003m-2.584 2.235c0-.814-.001-1.631.001-2.445.001-.232.084-.295.302-.236l.249.093c.296.212.633.176.965.176.814 0 1.629-.009 2.443.005.18.003.271-.056.347-.204.087-.17.199-.215.354-.145.162.074.323.16.465.268.218.163.202.174.083.452-.044.104-.042.231-.042.349-.003 1.313-.001 2.626-.003 3.94 0 .404-.098.496-.513.501l-.138.002c-.14.014-.179-.051-.184-.184-.015-.363-.022-.363-.405-.363H8.036c-.257 0-.27.004-.277.261-.004.13-.054.191-.166.222-.171.046-.343.094-.517.122l-.128-.1c-.024-.101-.023-.207-.023-.312l-.001-2.402M36.157 18.355c0-.302-.001-.603.001-.904.001-.091-.035-.132-.132-.137-.224-.01-.319.057-.322.27-.009.496-.005.993-.008 1.49 0 .085.021.142.123.148l.168.051c.124.064.168.008.17-.104.002-.272.001-.542 0-.814m-2.582 1.648c0-.302.002-.604-.001-.904l-.037-.122c-.082-.083-.374-.026-.423.085a.795.795 0 0 0-.082.292c-.009.498-.001.995-.006 1.493-.001.128.03.201.176.188h.184c.133.014.196-.027.192-.172-.009-.288-.003-.574-.003-.86m1.387-1.716c.001-.271-.001-.541.002-.812.002-.108-.031-.164-.154-.162-.275.005-.553.017-.825-.006-.261-.024-.398.084-.479.31-.115.329-.238.656-.358.984l-.085.229.267.018a.856.856 0 0 0 .293-.185c.106-.096.206-.119.324-.034.132.096.27.187.39.297l.029.187c-.111.224-.002.16.13.113l.229-.005c.232-.01.234-.01.237-.258.002-.225 0-.45 0-.676m1.195 2.482v-1.176c-.001-.085.026-.183-.119-.194-.232-.02-.296-.001-.342.158-.036.126-.087.257-.082.384.018.415-.15.779-.308 1.14-.122.279-.341.481-.618.633a5.068 5.068 0 0 1-.889.4l-.118-.038.057-.069c.097-.069.191-.147.298-.197.431-.201.611-.595.799-.984l.027-.083c.032-.264.078-.526.092-.792.03-.584.012-.591-.582-.553-.128.009-.147.068-.147.171.003.453.001.905.001 1.358l.002.226c-.004.347-.096.428-.468.429-.134 0-.204-.042-.184-.179.028-.175-.068-.207-.215-.192h-.185c-.125-.009-.145.061-.151.164-.023.385-.026.388-.42.455l-.126-.074c-.019-.119-.014-.24-.014-.361-.002-.513-.001-1.025-.006-1.538l-.079-.08-.074.033-.155.214-.185.085c-.109-.083.001-.145.047-.217.321-.519.515-1.085.637-1.675.05-.245.066-.496.098-.745.014-.117-.043-.161-.159-.157-.138.005-.276.01-.413-.006l-.136-.11.129-.059c.46-.004.921-.004 1.381-.001.175.002.304-.015.413-.198.122-.206.36-.213.519-.018.214.265.473.315.787.304.398-.014.798-.007 1.196-.001.132.002.234-.008.281-.154l.122-.133c.223-.225.248-.227.487-.035l.099.094c.099.078.279.079.264.268-.131.018-.261.038-.392.054l-.138.001c-.215.011-.284.063-.287.258-.006.513-.002 1.025.002 1.538l.066.09.102-.06.161-.211.145-.014c.125.105.265.196.391.302l.037.116-.105.058c-.2.002-.4.011-.598-.002-.167-.011-.207.052-.206.207.007.739.004 1.478.003 2.217 0 .361-.098.461-.455.478-.191.008-.28-.064-.283-.262-.008-.423-.004-.845-.004-1.267M28.502 18.266c0-.468.004-.937-.002-1.404-.001-.131.04-.202.184-.183.207.025.421-.048.625.081.096.061.153.093.076.19-.144.181-.143.386-.14.597.005.393-.001.784.003 1.178l.042.202.167-.154c.192-.298.376-.602.562-.904l.111-.189.236-.083c.196.063.387.152.566.254l.225.225-.233.185c-.309.295-.609.598-.921.89-.142.133-.301.247-.453.368-.196.156-.349.319-.31.603.031.225.007.453.006.681-.001.262.027.5.329.616.313.12.59.088.839-.131.161-.141.285-.306.306-.529l.068-.207.08-.127.032.125c-.055.347.148.593.343.836.161.199.184.288.014.433-.234.2-.517.297-.825.302-.415.005-.83.005-1.245 0-.465-.005-.681-.225-.684-.688-.002-.317.004-.634-.002-.951-.002-.189-.018-.194-.213-.103-.176.082-.343.209-.527.241-.425.077-.515.322-.458.694.023.162.006.331.004.497-.003.304-.081.385-.394.403l-.229-.006-.109-.104c-.016-.104-.007-.211-.007-.317 0-.8.001-1.6-.001-2.399l-.025-.128-.089.107c-.19.169-.381.339-.578.502l-.261.163c-.046-.146.109-.175.161-.264.28-.487.541-.988.685-1.527.113-.422.267-.84.296-1.283.017-.262.122-.337.399-.272.231.054.457.13.679.213.093.035.136.113.022.198-.342.258-.417.681-.633 1.017l.056.188c.152.049.13.141.102.249-.027.098-.07.196-.071.296-.007.559-.001 1.118-.004 1.676-.001.143.031.131.147.071.273-.141.477-.372.727-.528.294-.183.346-.405.329-.708-.022-.367-.006-.729-.007-1.092zM4.717 19.032h-.015v-.761l-.808-.047-.138-.001c-.087-.004-.149.021-.149.119 0 .465-.002.93.006 1.395l.106.104c.318.002.636-.008.955-.015l.043-.794m-3.137.059h-.012l.033.718.768.041h.184c.145-.01.22-.089.221-.232.001-.392.003-.785-.002-1.177-.002-.142-.088-.217-.233-.218-.246-.002-.492-.007-.737.002-.14.005-.221.089-.223.231-.001.212.001.423.001.635m-.829.135c0-.363-.007-.725.002-1.088.006-.27.143-.359.379-.212.478.298 1.001.181 1.509.205.097.005.133-.045.133-.137-.002-.378.001-.755-.004-1.132-.002-.134.045-.193.186-.185.225.015.461-.039.663.101l.058.135c-.155.363-.038.741-.065 1.111l.112.098c.153.014.308-.006.461.01.263.025.468-.006.548-.312.028-.108.128-.147.291-.094.253.084.477.188.639.393l.048.242a3.169 3.169 0 0 0-.095 1.71c.026.115-.205.378-.357.412l-.138.006c-.298.013-.334-.014-.403-.295-.062-.247-.062-.251-.295-.249-.259.002-.518.014-.777.021-.014.252-.036.503-.04.755-.007.361 0 .724-.003 1.087-.003.459-.166.602-.638.588-.133-.004-.196-.04-.193-.18.006-.302.002-.604.002-.906 0-.211.005-.423-.002-.634-.007-.237-.025-.475-.038-.711a59.3 59.3 0 0 0-.73-.023l-.185-.002c-.157-.011-.244.011-.248.213-.007.371-.322.556-.673.414-.101-.041-.153-.132-.151-.255.008-.363.003-.724.004-1.086zM22.23 18.629c0 .104.006.211-.001.315-.009.128.03.201.176.188l.184-.001c.341-.002.426-.1.376-.439-.017-.113-.096-.245-.058-.331.084-.19-.05-.224-.153-.221-.159.005-.336.032-.467.112-.064.038-.041.217-.056.332zm.736 1.155c-.016-.565.115-.468-.512-.479l-.136.006-.081.085c-.03.14-.064.282-.065.424-.001.128.032.259.067.384l.118.094c.55.005.637.082.609-.514m-.736 1.175l.001.179c.016.142.038.284.057.426l.543-.003.038-.024.087-.141c-.147-.187.024-.361.018-.542-.014-.441-.016-.457-.452-.457-.307.001-.294-.021-.292.293zm-.736-.179l-.001-1.402-.024-.13-.135.088c-.159.179-.312.362-.469.544l-.072.041-.033-.124c.083-.188.201-.365.265-.56a49.04 49.04 0 0 0 .548-1.799c.037-.127.008-.27.019-.405.016-.209.123-.295.33-.26.146.024.299.044.433.102a.46.46 0 0 1 .225.214l-.104.219c-.097.214-.188.43-.288.642-.047.103.03.091.081.091.476.004.952-.007 1.427.008.212.007.292-.147.399-.264.233-.251.233-.262.438-.064.124.119.226.259.338.389-.166.009-.333.021-.499.027-.123.004-.246-.002-.369.001-.229.008-.368.133-.379.349-.009.166-.008.332.001.498l.076.135.171-.022.134-.122c.085-.055.051-.236.202-.206.113.022.222.081.326.136l.127.126.036.241-.21.011c-.276-.179-.528.056-.792.034l-.068.095c-.006.241-.01.483.001.725l.106.133.137-.074.16-.162c.222-.22.272-.224.524-.021l.195.189.044.155-.117.041c-.292.004-.583.007-.875 0-.139-.004-.187.046-.183.182.008.257.003.515.003.77-.001.123.063.213.181.217l.237-.095.028-.035c.348-.466.349-.466.783-.054l.189.196-.028.081a4.286 4.286 0 0 1-.321.008c-.753 0-1.505.005-2.257-.004-.165-.002-.214.051-.208.206a.755.755 0 0 1-.052.345c-.079.157-.452.252-.614.168l-.065-.151c-.005-.422-.002-.844-.001-1.267zM45.382 18.726c0 .451.003.902-.002 1.353-.002.129.007.247.143.302.159.062.26-.042.348-.148.216-.262.245-.86-.02-1.116-.273-.263-.247-.571-.166-.83.09-.288-.024-.599.151-.864l-.025-.16c-.115-.023-.237-.038-.352-.023l-.074.181c-.006.433-.003.868-.003 1.305m-.736.806v-2.125c0-.09-.005-.181.001-.271.014-.25.108-.313.35-.24.198.058.383.162.604.155.151-.004.28-.021.328-.179.039-.126.147-.127.216-.092.198.103.388.224.569.354l.134.216-.204.065-.151.161c-.199.327-.392.658-.589.987-.079.131-.109.219.073.316.156.082.272.238.401.367.328.335.336.759.282 1.174-.036.291-.453.596-.763.601l-.217-.126-.059-.207-.153-.183c-.142-.001-.083.13-.084.206-.006.392-.001.783-.004 1.176-.001.173-.079.273-.242.312l-.184.01c-.236.003-.303-.052-.307-.281-.007-.347-.002-.692-.002-1.039v-1.357zM41.503 21.058c.031-.276-.051-.579.088-.865l-.001-.178c-.032-.068-.056-.168-.19-.112-.093.038-.206.035-.311.041-.096.005-.121.051-.134.139a1.971 1.971 0 0 1-.944 1.479c-.458.29-.972.444-1.467.644l-.132-.014.07-.124c.271-.156.544-.31.822-.452.526-.269.736-.758.9-1.267.083-.258.016-.319-.258-.312-.254.008-.515-.044-.761.078l-.221-.018-.029-.073.042-.068.181-.015c.315-.029.629-.057.943-.091.144-.016.206-.108.204-.248-.001-.196.005-.392.001-.588-.002-.109.032-.169.153-.165.199.006.399 0 .599.007.164.006.226.091.155.229-.075.145-.185.274-.164.45.009.079-.051.209.083.216.122.006.26.067.373-.072.246-.305.256-.301.596-.113.103.057.203.127.289.207.162.152.168.167.015.318a.485.485 0 0 0-.16.396c.01.256-.002.512 0 .77.002.141.083.22.227.227.123.005.247.014.368-.002.148-.02.282-.073.346-.233.043-.108.107-.209.161-.314.054-.107.104-.216.157-.325.011.117.025.234.032.353.013.191.128.322.25.46.203.229.165.369-.093.525-.2.121-.402.187-.641.173a9.106 9.106 0 0 0-.92.002c-.166.009-.298-.061-.423-.134-.131-.077-.229-.189-.211-.37.02-.181.005-.362.005-.561" fill="#231f20"/><path clip-path="url(#b)" d="M31.086 9.269c0-.604.005-1.205-.003-1.808-.001-.15.032-.218.203-.213.337.013.674.01 1.012.003.146-.003.177.062.176.19-.003 1.235 0 2.47-.004 3.705 0 .208-.063.269-.267.275-.275.008-.552.007-.828 0-.231-.006-.285-.059-.286-.299-.006-.619-.003-1.236-.003-1.853" fill="#00adee"/><path clip-path="url(#b)" d="M17.166 20.647c0 .316-.007.633.002.95.012.471-.39.626-.81.604l-.119-.103-.125-.236c-.053-.085.013-.287.111-.325.186-.071.286-.205.287-.402 0-.424.001-.846-.004-1.268l-.066-.093-.101.057c-.253.349-.49.707-.755 1.045-.158.202-.358.372-.541.555l-.071.019-.017-.082c.147-.288.315-.565.443-.861.092-.213.132-.447.193-.674l.005-.09c.043-.168.088-.336.133-.505.17.039.341.077.511.117l.126.038.137-.077.008-.133c.008-.38-.077-.482-.446-.404-.214.046-.401-.056-.602-.015l-.124-.036.149-.049c.645-.004 1.29-.011 1.935.002.174.003.286-.034.352-.197l.112-.14c.055-.185.181-.149.281-.076.141.103.26.233.387.354.097.094.07.143-.06.162l-.161.059c-.316-.181-.622.012-.932.012-.143 0-.219.083-.237.221-.017.128.004.24.131.31.196.106.389.22.589.319.34.172.565.438.703.782.115.288.019.584-.236.728-.246.137-.451.083-.54-.176-.061-.178-.071-.374-.096-.563-.043-.328-.126-.638-.39-.869l-.137-.084-.024.129c-.002.331-.002.663-.001.995z" fill="#231f20"/><path clip-path="url(#b)" d="M14.674 20.459c0 .438.003.875-.001 1.313-.002.294-.241.487-.537.427l-.104-.155c-.009-.332-.005-.664-.005-.996 0-.377.001-.754-.001-1.132l-.033-.125-.064.087c-.226.261-.451.523-.682.78l-.133.053.029-.123c.263-.479.483-.973.629-1.5.074-.271.116-.547.19-.812.053-.188-.015-.219-.144-.229-.199-.017-.399-.004-.599-.011l-.086-.055.081-.03c.184-.003.369-.001.553-.002.25-.002.266.037.261-.283-.004-.301-.006-.603.001-.904.004-.201.022-.207.265-.178l.092.004c.118.014.269-.011.347.053.117.095-.049.21-.053.32-.009.301-.003.603 0 .904l.043.07.124-.026c.086-.102.16-.214.241-.318.079-.104.167-.126.263-.019l.033.032.378.394-.537.045-.138.001c-.133.013-.265.029-.397.045-.004.164-.016.329-.006.492l.122.102c.152.093.314.173.46.274.288.202.325.608.097.815a.344.344 0 0 1-.341.07c-.128-.036-.176-.148-.168-.285a2.84 2.84 0 0 0-.007-.452l-.113-.135-.057.13c-.004.454-.003.906-.003 1.359M47.938 19.49c.337 0 .676-.015 1.012.005.232.015.376-.075.483-.261l.125-.183c.063-.091.128-.085.221-.025.198.127.434.204.532.45l-.059.104c-.291.003-.583-.003-.874.005-.256.005-.393.134-.396.38-.007.406 0 .813-.003 1.221-.001.157.043.306.178.376.163.085.41-.008.515-.183.065-.11.092-.244.135-.369.034-.096.064-.192.099-.288l.031-.034.05.056.001.044c-.056.347.075.611.357.814.123.089.128.176.015.296a.931.931 0 0 1-.675.308c-.291.008-.583.012-.874 0-.352-.014-.481-.15-.483-.5-.003-.587 0-1.175 0-1.763 0-.091.011-.184-.009-.27l-.123-.086-.129.08c-.043.217-.064.437-.103.653-.154.889-.646 1.504-1.525 1.796-.224.074-.457.122-.687.179l-.08-.035.053-.068.204-.079c.501-.213.899-.524 1.125-1.036.201-.455.181-.927.162-1.4l-.167-.091c-.116-.024-.236-.028-.354-.04.123-.019.246-.05.37-.054.29-.007.582-.002.873-.002M40.993 17.676l-1.567.001c-.109 0-.111.035-.065.13l.023.265c-.04.413-.504.668-.882.489-.138-.065-.183-.29-.076-.431l.191-.196c.184-.178.378-.344.404-.625.01-.107.092-.053.111-.006.079.181.217.211.399.199.245-.016.492.003.737-.007.163-.005.325-.031.487-.048-.054-.182-.106-.361-.162-.542l-.053-.12-.221-.148c.101-.018.201-.041.303-.049.278-.022.546.008.775.183l.105.121c.076.166.129.333-.073.461l-.09.102.166.041c.245.006.492-.006.737.006.229.012.423-.003.508-.262l.181-.084c.338.162.698.296.929.616.05.07.068.142-.036.175a2.504 2.504 0 0 1-.39.09c-.149.019-.295-.001-.439.086-.2.12-.216.112-.043.293a.747.747 0 0 1 .219.565c-.004.167-.075.247-.218.347-.168.119-.273.025-.369-.032-.107-.065-.181-.192-.259-.3-.311-.426-.62-.851-1.195-.958l-.07-.045.075-.042c.366-.027.725.019 1.076.113l.212.064c.096.015.184.01.19-.124l.061-.164c.059-.123 0-.164-.115-.165h-1.198zM48.401 18.675c-.383 0-.766.001-1.15-.003l-.097-.053.095-.092.268-.03c.338-.003.675-.011 1.012.004a.419.419 0 0 0 .389-.18c.065-.091.08-.21.257-.21.14-.001.074-.17.078-.264.011-.252.005-.256-.232-.257-.506-.003-1.012.002-1.519-.004-.134-.002-.2.032-.188.176l.008.27c.049.259-.136.382-.3.515-.089.07-.333.031-.405-.09-.057-.094-.213-.201-.069-.352l.083-.154c.198-.162.262-.386.316-.616l.029-.081.1.059c.057.186.196.201.357.184l.092-.002c.165-.028.347.066.5-.061-.143-.233.059-.599-.3-.749l-.114-.058.031-.11c.387-.069.752-.01 1.069.227.134.101.132.425-.013.615-.09.118-.073.14.063.137.238-.006.492.056.657-.201.067-.104.187-.104.283-.029.18.135.357.272.521.426l.031.205-.155.053c-.202-.01-.395.012-.563.132-.099.071-.14.147-.028.257.081.079.136.185.201.279-.112.02-.227.054-.341.057-.322.005-.643 0-.966 0M19.65 21.503c.039-.269.06-.473.101-.674.104-.506.089-.546-.361-.795l-.069-.065.083-.024c.34.021.562-.113.712-.428.221-.464.485-.91.732-1.361l.061-.09.031.123c-.104.318-.223.631-.325.95-.134.421-.266.848-.22 1.295.031.304.094.605.162.905.047.207-.055.355-.189.464-.098.079-.218.181-.401.063-.258-.164-.321-.203-.317-.363" fill="#231f20"/><path clip-path="url(#b)" d="M15.592 6.8l-.001-.164c-.032-.205.066-.134.194-.117.225.03.457.01.686.01.092 0 .141.038.138.131-.008.299.071.577.178.854.066.172-.005.23-.198.294-.195.063-.378.167-.571.24l-.137-.047c-.141-.4-.299-.797-.289-1.201M16.104 6.369c-.172-.061-.399.088-.497-.104-.069-.136.045-.313.061-.466a2.5 2.5 0 0 1 .283-.87c.052-.103.077-.132.193-.083.23.096.469.171.704.255l-.186.698-.046.122c-.015.131.024.341-.042.379-.129.073-.315.051-.47.069M21.906 6.527c.491.011.416-.083.42.44.002.254-.088.487-.179.719-.048.122-.092.245-.137.368-.121-.045-.24-.093-.363-.134-.175-.06-.433-.047-.492-.213-.048-.13.087-.323.136-.49l.02-.176c.065-.515.065-.515.595-.514M21.859 6.354c-.487 0-.48-.001-.551-.468-.028-.186-.092-.367-.145-.548-.061-.206-.041-.301.153-.336.212-.039.43-.264.608-.136.142.102.175.358.243.551.082.234.161.47.163.725.002.142-.016.236-.195.214-.091-.01-.184-.002-.276-.002M16.979 9.341l-.202-.071c-.323-.275-.536-.63-.747-.988-.03-.048-.08-.086.021-.122.139-.049.267-.129.407-.176.432-.149.428-.143.66.271.1.179.223.345.338.516.093.137.086.204-.054.28-.153.082-.35.102-.425.292zM19.646 6.364l-.592-.029c-.015-.206-.042-.411-.043-.617-.003-.325.034-.356.361-.364.153-.003.307.004.459-.006l.241-.051a.875.875 0 0 1 .127.321c.043.2-.052.42.086.612l-.088.114c-.183.011-.367.005-.55.005zM20.943 9.342c-.079-.212-.317-.202-.462-.321l-.038-.134c.191-.298.396-.588.583-.89.047-.075.072-.117.164-.082.222.085.441.172.666.242l.045.115c-.237.426-.465.863-.958 1.07M18.31 6.354h-.183c-.473-.012-.418.096-.405-.446.004-.171.057-.344.108-.51l.161-.086c.255.005.511.032.767.04.118.004.163.049.158.161l-.001.225-.023.577-.58.057zM17.125 3.562l.099.085c.099.06.197.124.304.168.091.037.119.083.065.163-.179.268-.365.533-.542.803-.078.119-.188.156-.312.12-.225-.064-.444-.146-.665-.22.12-.185.225-.381.365-.55.143-.173.317-.323.486-.473z" fill="#00adee"/><path clip-path="url(#b)" d="M38.687 19.562l-.029-.077.1-.143c.171-.172.354-.332.517-.513.229-.255.46-.511.657-.79.107-.151.173-.221.352-.101.094.063.236.053.332.113.098.06.162.168.241.254-.092.062-.177.145-.279.181-.285.103-.497.316-.76.451-.356.183-.703.385-1.053.579z" fill="#231f20"/><path clip-path="url(#b)" d="M19.654 6.527c.152 0 .305.005.457-.001.133-.005.204.039.184.178-.03.218-.052.435-.096.65-.027.133-.138.216-.271.169-.233-.081-.47-.072-.709-.086-.163-.009-.245-.139-.206-.328.033-.168.152-.327.033-.506l.059-.068c.183-.006.366-.003.549-.003zM18.341 6.515c.18.015.425-.034.522.062.095.095.042.334.053.512l.001.18c.015.143-.06.173-.19.175-.254.004-.513-.038-.76.08-.064.031-.131-.002-.164-.1a1.896 1.896 0 0 1-.081-.79l.113-.099c.167-.011.336-.004.505-.004zM21.103 4.93l-.163-.149c-.168-.226-.326-.458-.492-.685-.064-.088-.08-.142.047-.196.161-.072.308-.172.461-.26l.435.39.095.098c.124.183.244.368.365.554l-.748.248M18.917 8.182v.09c-.008.133.033.309-.039.386-.068.073-.262.015-.383.061-.198.074-.279.017-.356-.167-.109-.258-.244-.504-.244-.792-.001-.089.034-.14.131-.14.261 0 .521-.006.782.002l.103.109c.012.148.006.3.006.451zM19.073 8.152l.07-.521c.167-.004.333-.014.5-.013.499.004.522.037.362.503-.057.166-.11.333-.173.496-.063.164-.148.206-.316.165l-.255-.067c-.158.003-.171-.084-.168-.2.004-.12.001-.24.001-.361zM19.009 4.631c.016-.547-.119-.43.522-.461.16-.009.216.061.259.183l.072.161c.066.203.222.388.138.624-.275.058-.546.175-.833.116l-.15-.197c-.026-.131-.008-.27-.008-.426M17.163 6.354h-.137c-.316-.003-.295-.001-.25-.332.034-.248.083-.482.178-.716.056-.139.133-.137.24-.134l.09.005c.139.042.315.053.401.145.052.055-.039.237-.057.362l-.004.224c-.007.446-.007.446-.461.446M18.916 4.751l-.001.045-.035.438c-.18.008-.36.024-.54.022l-.16-.075c-.09-.033-.242.057-.267-.089-.015-.089.05-.193.082-.288l.091-.245c.066-.148.103-.367.217-.418.135-.064.34.011.511.043l.096.117c.011.148.004.3.004.45zM20.777 6.354h-.046c-.318-.002-.313-.003-.347-.338-.02-.204-.061-.407-.089-.61-.012-.087.023-.139.123-.147l.169-.051c.3-.09.351-.063.454.234.044.124.096.245.135.37.144.462.083.544-.399.542M20.821 6.528l.229-.002c.148-.013.19.064.172.19-.03.203-.055.406-.099.606-.028.126-.057.276-.144.355-.049.045-.213-.032-.325-.052-.115-.022-.307-.01-.33-.067-.045-.109.004-.255.017-.385.014-.133.044-.264.044-.395.001-.233.001-.26.252-.251zM17.191 6.515l.401.046c-.101.127-.009.238.028.354l.002.091c0 .649.075.538-.507.647-.148.027-.13-.039-.167-.098-.169-.269-.129-.594-.241-.879-.03-.078.019-.144.117-.145h.366z" fill="#00adee"/><path clip-path="url(#b)" d="M19.745 17.31c.432.005.796.217.895.485.107.291-.193.697-.498.673-.112-.009-.274-.16-.307-.285-.056-.208-.107-.418-.169-.624l-.102-.188zM26.293 25.123c0-.15-.005-.302.001-.451.007-.229.066-.284.304-.284l.22.029a.42.42 0 0 0 .392.013c.095-.044.104.017.097.071l-.069.141a6.988 6.988 0 0 1-.597.009c-.114-.002-.169.035-.161.155.007.097.056.125.146.124.2-.002.399 0 .599.005l.068.045-.028.121-.195.09a2.488 2.488 0 0 1-.414.002c-.146-.01-.176.061-.178.188-.002.136.047.184.186.179.215-.007.43-.002.644.007l.078.078-.068.089a18.77 18.77 0 0 1-.919.001l-.097-.114c-.015-.167-.008-.333-.009-.498zM40.096 24.946c.087-.024.215-.054.335-.099l.049-.109-.084-.076a1.764 1.764 0 0 0-.363-.007c-.101.011-.268-.084-.275.121-.011.242.185.119.338.17m-.539.144c.012-.193.022-.387.032-.579.194-.016.389-.028.581-.044l.24-.024c.128.035.266.083.27.256.003.15.031.328-.144.392-.21.074-.132.148-.035.247.086.086.172.172.247.266l-.019.112-.117-.001c-.089-.1-.164-.209-.247-.313-.106-.134-.225-.23-.422-.212-.128.013-.19.034-.194.177-.003.121.071.349-.068.349-.203-.001-.088-.229-.11-.354-.017-.087-.003-.179-.003-.27h-.011zM36.901 25.094c0 .104.005.209-.001.312-.008.119.049.158.16.152l.227-.002c.298-.026.463-.234.439-.541-.019-.24-.164-.357-.46-.362h-.136c-.222.005-.223.006-.229.219zm-.187.006c0-.136.019-.274-.006-.406-.031-.184.094-.238.218-.28.314-.105.613-.008.845.182.215.175.176.472.13.716-.044.229-.233.367-.466.428l-.046.003c-.675.075-.675.075-.675-.643M41.144 25.101c-.001.104.001.209-.003.313-.002.087.023.144.123.143.106-.001.215.013.318-.002.303-.044.5-.46.343-.713-.102-.166-.44-.269-.695-.18-.175.062-.055.233-.085.351zm-.19-.004c0-.151.013-.302-.003-.451-.016-.143.081-.204.177-.205.275-.003.565-.072.814.116l.08.034c.169.236.174.5.099.764-.067.239-.25.37-.496.382-.21.011-.422-.013-.633-.021-.019-.206-.035-.412-.053-.617zM28.953 24.653c-.477-.008-.621.092-.633.376-.011.256.208.518.442.527.244.011.563-.21.553-.423-.007-.136-.091-.28-.177-.395zm-.821.401c.003-.348.307-.659.647-.663.353-.005.753.39.738.729-.016.347-.353.626-.748.62-.402-.004-.64-.261-.637-.686M23.047 16.859c.199-.018.369.066.535.175.181.119.263.347.224.613-.031.21-.223.229-.359.292-.14.067-.386-.105-.382-.255.008-.273-.005-.533-.231-.733l.024-.087zM47.407 25.119c.004.281.202.456.495.438.286-.019.43-.172.43-.456 0-.327-.131-.451-.473-.448-.33.001-.458.133-.452.466m1.114-.012c-.002.427-.231.643-.677.634-.414-.007-.619-.223-.629-.64-.004-.184-.001-.387.139-.496a.993.993 0 0 1 .53-.205c.363-.015.638.318.637.707M11.443 25.044c-.004.35.141.511.46.513.285.002.459-.155.465-.419.007-.341-.116-.48-.433-.485-.398-.008-.489.064-.492.391m1.111.007c.056.438-.306.712-.646.695-.393-.019-.726-.291-.732-.637-.005-.33.355-.722.709-.707a.76.76 0 0 1 .484.194c.145.137.218.283.185.455M13.937 25.136c0 .136.007.271-.004.407l-.068.19-.185-.107c-.187-.232-.361-.475-.544-.71l-.1-.049-.024.081c-.003.183.005.364-.006.544l-.079.2-.037.023-.06-.038-.007-.182c-.016-.283-.012-.571-.058-.852-.019-.115.006-.196.083-.216l.227.084c.198.259.377.532.565.798l.074.054.035-.08c.003-.241 0-.482.007-.724l.081-.078.092.065c.007.195.004.392.004.588h.004" fill="#231f20"/><path clip-path="url(#b)" d="M16.978 9.343c.179-.071.365-.128.534-.218.098-.053.158-.06.236.019.27.268.543.534.812.803l.039.1-.132.017c-.406-.099-.817-.188-1.162-.438-.117-.085-.217-.189-.325-.285z" fill="#00adee"/><path clip-path="url(#b)" d="M4.715 25.058c0 .12.01.241-.003.36-.011.106.068.274-.08.302l-.273-.197c-.159-.195-.295-.407-.446-.608l-.1-.047-.022.082c-.003.226.002.45-.008.676l-.103.106-.07-.093c-.007-.271-.006-.541-.007-.811 0-.091-.003-.182.005-.271l.217-.076.066.111c.175.24.351.478.528.716l.072.055.035-.078c.004-.21-.002-.421.006-.631l.065-.201.072-.053.041.071c.003.194.002.39.002.586h.003M7.945 25.058c0 .135.009.271-.003.406-.008.093.07.243-.08.259l-.242-.171c-.179-.235-.342-.483-.512-.726l-.05-.058-.036.077c-.005.271-.003.542-.012.813l-.087.068-.082-.075c-.007-.346-.01-.692-.005-1.039l.078-.134.169.026.116.134c.081.123.153.252.238.373s.182.232.273.351c.016-.144.026-.289.05-.432.03-.18-.1-.401.136-.53.017.174.034.347.049.521zM36.438 25.06c0 .135.009.271-.003.405-.009.092.071.242-.081.258l-.241-.171c-.167-.207-.316-.429-.478-.639l-.102-.045-.021.083c-.003.226.002.451-.009.677l-.103.104-.069-.095c-.006-.3-.005-.6-.006-.901l.002-.089.091-.167.181.074c.169.223.324.457.483.687l.06.068.071.053.035-.077c.005-.181.003-.36.005-.541l.014-.221.127-.124.043.119c.003.18.001.362.001.542M48.787 25.043c0-.151-.006-.303.003-.452l.062-.182.193.108c.185.25.354.511.532.766l.103.074.032-.126c.004-.226 0-.452.008-.678l.087-.071.087.072c.005.36.006.723.002 1.085l-.156.074c-.151-.166-.292-.341-.436-.514-.095-.113-.185-.23-.276-.346-.019.153-.041.307-.054.462-.009.121-.001.241-.009.361l-.062.05-.104-.052c-.008-.211-.005-.422-.005-.633h-.007M43.415 25.739c-.138 0-.275.004-.413-.001l-.107-.197.176-.205c.123-.134.251-.263.369-.399l.172-.25c-.104-.011-.207-.026-.311-.034l-.229-.01-.086-.125.088-.123c.182-.001.362.014.542.027l.163.02c.093-.073.155-.015.178.046l-.033.188c-.213.251-.439.494-.659.739l-.082.107.128.032c.199.005.399.001.598.009l.078.079-.064.091c-.169.009-.338.005-.508.006zM29.707 24.942c0-.091-.002-.181.002-.271.005-.157.183-.33.313-.266.191.095.342.055.517-.015.09-.034.185 0 .183.129-.002.091-.046.134-.141.132-.107-.003-.217-.012-.321.003-.104.014-.268-.085-.281.123-.013.209.149.141.257.149.091.008.185.002.276.003.106.002.129.076.108.151l-.109.106-.137.006c-.373.01-.373.01-.396.376l-.002.044-.097.12-.095-.127a4.352 4.352 0 0 1-.074-.438zM31.451 25.321l.034-.094.073.026c.107.077.22.151.319.238.172.147.314.021.456-.045.09-.042.056-.215-.049-.243-.158-.043-.322-.061-.479-.102-.195-.051-.26-.132-.263-.302-.004-.233.021-.225.266-.339.226-.106.401-.007.578.074l.154.237c-.104.148-.16-.039-.244-.057-.157-.037-.323-.045-.486-.054l-.072.092.05.153c.14.048.292.061.43.111a.773.773 0 0 1 .297.181c.112.122.062.337-.077.431-.307.207-.761.115-.955-.194zM19.834 25.744c-.282-.003-.471-.11-.611-.301l-.011-.121.155.008.132.123c.179.143.399.14.574-.005.078-.063.048-.214-.057-.246-.127-.038-.257-.064-.387-.093-.228-.051-.426-.206-.416-.33.011-.142.195-.252.424-.317.265-.076.456.008.615.2l.004.153-.121-.015c-.143-.196-.35-.15-.543-.142l-.116.094.09.164c.121.049.255.075.386.097.184.028.303.126.346.3.047.19-.032.291-.284.386z" fill="#231f20"/><path clip-path="url(#b)" d="M18.099 4.111c-.015.091-.016.151-.035.206-.083.231-.166.463-.261.69-.028.068-.054.147-.184.122-.652-.13-.627-.02-.264-.624.082-.139.194-.261.289-.392a.272.272 0 0 1 .318-.11z" fill="#00adee"/><path clip-path="url(#b)" d="M18.916 25.1c0 .105.01.213-.003.316-.013.107.069.276-.081.304l-.274-.199c-.16-.195-.296-.409-.451-.609l-.153-.067-.045.119c-.004.211.001.422-.006.633l-.07.116-.106-.14.021-.081c.082-.155.067-.309.02-.474-.036-.128.104-.271-.026-.407l.078-.179.136.048c.202.24.395.487.593.73l.149.146.03-.217c.005-.196 0-.393.009-.588l.088-.067.084.074c.008.18.004.361.004.542z" fill="#231f20"/><path clip-path="url(#b)" d="M17.583 7.684l.135.14c.069.159.125.324.182.488.037.11.064.223.101.333.021.06.125.121.009.175l-.248.051-.134-.112c-.13-.179-.256-.359-.379-.541-.079-.117-.239-.263-.139-.375.091-.102.295-.105.473-.159M20.856 7.874l-.008.128c-.161.26-.324.519-.49.777-.063.099-.159.119-.275.115-.115-.006-.168-.05-.157-.162l.029-.171c.081-.232.158-.465.256-.691.045-.103.112-.217.277-.118l.258.052z" fill="#00adee"/><path clip-path="url(#b)" d="M5.726 25.097l-.082-.131-.158-.284-.129.366.004.043.116.094c.082-.011.159-.054.249-.088m.453.561l-.039.069-.085.005-.144-.166-.177-.178a1.293 1.293 0 0 0-.5.008l-.156.254-.131.082-.043-.16c.156-.362.318-.724.488-1.08.045-.095.129-.122.206-.017l.129.181c.153.316.302.637.451.954zM44.969 25.106c-.091-.157-.162-.282-.238-.404l-.08.036-.042.17c-.063.189-.003.285.186.28zm-.292.272c-.236-.079-.34.084-.412.302l-.106.048-.061-.093c.147-.363.297-.728.461-1.084l.195-.15.155.139c.162.359.314.723.463 1.087l-.053.102-.114-.041-.054-.121c-.04-.155-.141-.212-.298-.188zM34.633 25.065c-.067-.142-.128-.267-.188-.39-.052.104-.097.213-.158.311l.006.143.206.055zm.419.588l-.043.069-.12-.023-.018-.039c-.063-.093-.107-.238-.193-.267-.138-.046-.303-.027-.452-.009l-.17.13-.153.211-.084.005-.02-.062c.14-.338.277-.675.426-1.009l.157-.211.142.007c.181.383.355.769.531 1.152zM.603 25.741c-.238-.005-.53-.262-.59-.551a.639.639 0 0 1 .404-.718c.288-.106.574-.038.751.188l.008.154-.122-.011a.465.465 0 0 0-.406-.156c-.254.016-.348.076-.428.316-.046.134.042.369.177.474.189.147.318.157.538.031l.217-.159.122.006-.024.074c-.104.282-.332.363-.647.352M8.739 25.192c.205.01.261-.054.195-.224l-.079-.156-.166-.015-.096.194c-.044.122.012.195.146.201m.679.445l-.047.088-.085.008-.069-.056c-.057-.097-.085-.238-.167-.281-.096-.051-.242.002-.359-.022-.245-.051-.303.116-.384.276l-.129.083-.018-.152c.114-.299.233-.596.36-.889a.957.957 0 0 1 .166-.258l.149-.012c.201.405.394.815.583 1.215M38.91 25.065c-.068-.14-.118-.348-.184-.353-.142-.011-.052.212-.166.281l-.003.044.032.118.21.01zm.471.598l-.049.068-.086-.005-.129-.172c-.002-.185-.116-.184-.245-.178h-.092c-.245-.028-.447.008-.51.293l-.14.049-.018-.118c.144-.339.286-.677.44-1.01.072-.156.213-.176.306-.044.076.106.127.232.183.353.107.227.209.454.313.682z" fill="#231f20"/><path clip-path="url(#b)" d="M20.943 9.342l-.167.202a3.82 3.82 0 0 1-1.27.52l-.087-.013.025-.1c.235-.236.476-.468.711-.705.099-.098.193-.111.326-.05.145.068.308.099.462.146" fill="#00adee"/><path clip-path="url(#b)" d="M2.684 25.098c0 .181.004.361-.003.542l-.071.092-.104-.105c-.013-.135.001-.271-.013-.405l-.105-.107-.136-.005c-.151.007-.352-.038-.437.039-.081.074-.039.277-.052.423l-.025.128-.074.03-.072-.039-.016-.131c-.002-.302-.006-.604.002-.904l.078-.171c.149-.014.096.111.106.189l.006.133.106.107c.089.018.183.008.275.008.312-.001.309-.002.355-.328l.093-.118.086.124c.01.165.004.331.004.497h-.003M14.562 25.057l.063.114.265.004.045-.193-.086-.247-.083-.03c-.076.122-.146.249-.204.352m.845.649l-.07.024-.079-.021c-.083-.386-.384-.337-.669-.335-.132 0-.191.036-.2.175l-.127.175-.083.006-.049-.11c.148-.337.296-.674.461-1.003l.208-.146c.124-.038.14.079.176.158.144.305.289.611.43.919.012.025.002.06.002.158" fill="#231f20"/><path clip-path="url(#b)" d="M20.571 5.084c-.383.009-.375.006-.463-.311-.055-.195-.135-.383-.213-.572-.026-.061-.059-.095.039-.115.155-.033.299-.101.418.09.148.236.328.455.483.688l-.057.147z" fill="#00adee"/><path clip-path="url(#b)" d="M17.01 17.403c-.336 0-.673.001-1.009-.002l-.113-.045.122-.041c.275-.003.551-.014.825.002.265.015.463-.063.587-.303l.107-.144c.097-.121.172-.136.29-.039.093.078.188.158.26.255.053.07.217.095.137.231-.063.11-.184.084-.289.085h-.917M23.613 24.941c0-.135-.006-.271.003-.406l.068-.121.111.133c.011.239.001.48.008.722.007.229.067.282.301.292l.184-.001c.166-.014.239-.083.246-.254.009-.227.002-.451.004-.676 0-.073-.007-.167.106-.147l.077.129c.009.18.006.361.004.541-.006.497-.402.726-.871.524-.186-.08-.253-.189-.242-.374.008-.12.002-.241.001-.362z" fill="#231f20"/><path clip-path="url(#b)" d="M19.563 3.273l-.096-.143-.064-.101.127-.026c.391.12.796.204 1.141.445.11.076.11.128.024.198l-.191.109c-.133.095-.245.082-.357-.037a4.94 4.94 0 0 0-.388-.378l-.202-.072z" fill="#00adee"/><path clip-path="url(#b)" d="M25.458 25.162v-.226c-.003-.259-.003-.258-.259-.285l-.174-.032-.093-.096.104-.053c.238-.031.476-.061.714-.082l.223.02.127.166-.141.075-.137.002c-.144-.016-.182.053-.179.185.006.271.002.543-.005.813l-.081.077-.089-.067c-.009-.165-.005-.331-.005-.497zM20.942 25.169v-.226c-.003-.264-.003-.264-.294-.292l-.128-.026-.028-.075.041-.069c.312-.034.624-.065.937-.092.102-.008.135.065.116.145l-.103.111-.181.006c-.146-.013-.178.062-.175.188.006.27.002.54-.005.809l-.079.079-.092-.063c-.008-.165-.004-.329-.004-.494h-.005M22.435 24.329c.276.297.595-.032.866.139l.113.051-.13.124-.089.01c-.309.041-.309.041-.311.323-.002.226-.001.452-.009.678l-.084.073-.086-.071a15.75 15.75 0 0 1-.006-.813c.002-.127-.023-.208-.174-.19l-.091-.001-.192-.071.193-.252" fill="#231f20"/><path clip-path="url(#b)" d="M17.731 3.786c-.142-.079-.285-.155-.423-.24l-.001-.099a2.861 2.861 0 0 1 1.141-.445l.08.032-.015.034a92.92 92.92 0 0 1-.708.697z" fill="#00adee"/><path clip-path="url(#b)" d="M45.752 25.171v-.226c-.005-.267-.005-.267-.291-.294-.07-.006-.177.014-.161-.096.015-.105.06-.17.214-.116.121.044.275-.009.415-.014.129-.005.258-.012.386-.003l.138.066-.08.131-.081.03c-.114.021-.279 0-.33.067-.061.076-.021.228-.022.347-.003.194 0 .389-.008.583l-.078.079-.092-.063c-.009-.163-.005-.328-.005-.492h-.005M33.207 25.168v-.227c-.003-.258-.004-.257-.298-.29l-.123-.03-.028-.165.097-.062c.293.104.583.123.877.002l.116.09-.052.155-.087.01c-.311.038-.312.038-.313.32-.002.225 0 .451-.008.677l-.079.079-.092-.064c-.008-.165-.004-.331-.004-.495zM9.708 24.475l.348-.043.164-.019c.097.024.19.067.285.104-.065.129-.179.153-.309.135-.189-.026-.235.06-.226.23.013.24.008.482-.001.723l-.084.129-.094-.118c-.009-.256-.006-.512-.004-.768.001-.114-.004-.2-.165-.202-.099 0-.298.089-.281-.104.017-.201.196-.085.367-.067M15.594 25.045c0-.18-.003-.359.003-.539l.051-.1.099.087c.02.161.026.322.034.486.008.178.012.356.018.534.178.014.355.027.533.043l.133.017.04.07-.03.073c-.272.01-.545.017-.817.015l-.06-.103c-.006-.193-.003-.389-.004-.583z" fill="#231f20"/><path clip-path="url(#b)" d="M19.008 3.531c.039-.106-.09-.282.089-.328.048-.013.154.147.216.239.09.133.162.277.247.414.073.119.034.209-.108.225l-.228.003c-.141-.013-.215-.092-.216-.233v-.32M18.919 9.356l-.001.091-.026.399c-.087-.121-.181-.237-.26-.362-.07-.113-.126-.233-.186-.353-.112-.225-.111-.224.139-.248l.221-.034.11.054c.002.151 0 .302 0 .453zM19.095 9.335c0-.092.006-.183-.001-.272-.011-.135.043-.196.182-.178.118.013.236.028.354.044-.049.117-.087.239-.149.348-.088.154-.192.297-.291.445l-.054.05-.037-.077c-.003-.12-.001-.241-.001-.36zM18.915 3.462v.279c-.009.337-.041.354-.398.264-.106-.027-.172-.02-.083-.146.084-.118.14-.254.218-.376.061-.097.138-.186.208-.279l.055.258" fill="#00adee"/><path clip-path="url(#b)" d="M22.048 25.131c0 .164.007.329-.004.491l-.098.111-.081-.13c-.005-.373-.002-.746.001-1.119l.033-.079.104.069.045.164c.006.164.002.328.002.492h-.002M3.051 25.038c0-.179-.003-.357.002-.535l.055-.097.1.09.027.08c.001.358.001.717-.005 1.074l-.08.077-.091-.063c-.008-.208-.005-.417-.005-.626zM10.891 25.097c0 .181.003.36-.004.541l-.069.095-.105-.103c-.007-.361-.005-.723.001-1.082l.091-.068.083.076c.008.179.004.36.003.541zM42.701 25.105c0 .18.003.36-.004.54l-.077.081-.093-.062a35.023 35.023 0 0 1-.002-1.123l.096-.058.077.081c.007.181.003.362.003.541M17.438 25.122c0 .181.003.36-.005.54l-.091.064-.08-.078c-.005-.36-.006-.72-.001-1.08l.073-.091.103.104c.01.181.004.36.004.54h-.003M46.854 25.122c0 .181.004.36-.004.539l-.091.065-.08-.077c-.006-.36-.006-.72-.002-1.08l.071-.092.104.104c.011.18.005.359.005.54h-.003" fill="#231f20"/><path clip-path="url(#b)" d="M19.415 9.778l-.031-.077c.127-.232.253-.465.397-.686l.196-.004.021.194c-.172.191-.361.368-.545.55zM19.557 3.269c.149.162.302.322.445.489.029.033.179.088.027.142-.083.029-.176.182-.27.046a3.302 3.302 0 0 1-.342-.607c-.046-.114.097-.036.145-.065zM18.547 9.701c-.199-.179-.401-.354-.594-.541l-.021-.145.166-.035.106.074c.089.229.309.393.339.651zM18.632 3.251l-.023.08c-.113.171-.222.345-.349.505l-.189.061-.068-.123c.187-.193.382-.378.578-.563z" fill="#00adee"/><path clip-path="url(#b)" d="M18.543 9.705l.071.031-.034.035-.033-.07z" fill="#00adee"/></svg>