<svg xmlns="http://www.w3.org/2000/svg" preserveAspectRatio="xMidYMid" width="76.125" height="35.82" viewBox="0 0 76.125 35.82"><defs><style>.cls-1{fill:#fff;fill-rule:evenodd}</style></defs><path d="M68.865 21.279C58.817 17.578 43.31 11.799 38.077.008c8.12 3.792 20.188 9.408 32.775 7.445l5.274 8.439s-3.901 2.972-7.261 5.387zM56.112 9.288l-.004.027-.849 4.038.947.213.851-4.054-.945-.224zm1.733.424l-.844 4.038.792.175.853-4.053-.801-.16zm1.631.368l-.849 4.034 1.093.244.852-4.053-1.096-.225zm8.37-.644l-.506 2.407-6.164-1.41-.008.032-.843 4.034 6.167 1.397-.432 2.055 6.411-3.28-4.625-5.235zM7.265 21.247C3.915 18.824.014 15.856.014 15.856l5.28-8.435C17.883 9.396 29.959 3.785 38.077.008 32.833 11.795 17.323 17.554 7.265 21.247zm7.705-10.838l-6.168 1.406-.501-2.416-4.631 5.235 6.408 3.289-.429-2.059 6.168-1.39-.843-4.033-.004-.032zm.604-.128l.846 4.053 1.091-.244-.839-4.033-1.098.224zm1.928-.432l.843 4.057.797-.181-.839-4.033-.801.157zm2.54-.55l-.008-.027-.946.224.848 4.053.945-.216-.839-4.034zm14.365 3.36c-2.24 7.658-13.287 18.317-13.287 18.317l-.64-1.166c6.883-6.16 11.364-13.986 12.967-17.482l.96.331zm4.321 23.146h-.962V12.496h.962v23.309zm16.315-5.995l-.639 1.166S43.359 20.317 41.119 12.659l.961-.331c1.602 3.496 6.081 11.322 12.963 17.482z" class="cls-1"/></svg>