<svg xmlns="http://www.w3.org/2000/svg" width="66" height="64"><defs><linearGradient id="a" gradientUnits="userSpaceOnUse" x1="18" y1="113" x2="131"><stop offset="0" stop-color="#00adef"/><stop offset="1" stop-color="#31ecbe"/></linearGradient></defs><path fill="url(#a)" d="M65.716 30.233a.995.995 0 0 1-1.413.058l-5.026-4.669v36.371h5.134c.552 0 1 .451 1 1.008 0 .557-.448 1.008-1 1.008H1.579c-.553 0-1-.451-1-1.008 0-.557.447-1.008 1-1.008h5.133v-36.61l-5.034 4.573a.996.996 0 0 1-1.413-.074 1.015 1.015 0 0 1 .073-1.424L32.495.243a.994.994 0 0 1 1.347.008l31.817 28.557c.406.378.431 1.015.057 1.425zm-8.438-6.469L33.157 2.356 8.711 23.566v38.427h48.567V23.764zm-24.285-2.326c9.886 0 17.93 8.11 17.93 18.076 0 8.38-5.693 15.425-13.379 17.464a.962.962 0 0 1-.496.152h-.001c-.018 0-.032-.009-.05-.01a17.74 17.74 0 0 1-4.004.471c-3.092 0-6.004-.794-8.545-2.189-.058.011-.111.035-.171.035h-.006a.99.99 0 0 1-.936-.717c-4.967-3.218-8.273-8.825-8.273-15.206 0-9.966 8.044-18.076 17.931-18.076zm0 34.136c1.045 0 2.065-.108 3.055-.303l.008-14.672c0-1.318-1.133-1.833-2.192-1.874a1.987 1.987 0 0 0-1.487.586c-.467.452-.677 1.026-.677 1.289v5.183c0 .425-.265.805-.662.949a.996.996 0 0 1-1.109-.308c-.505-.617-.965-.884-2.386-.809-1.269.066-2.227 1.012-2.227 2.201l-.034 5.742a15.727 15.727 0 0 0 7.711 2.016zm-9.703-3.351l.026-4.413c0-2.275 1.774-4.087 4.127-4.208.828-.041 1.573.001 2.257.243V40.6c0-.906.507-1.982 1.29-2.742.807-.783 1.832-1.196 2.952-1.147 2.421.095 4.113 1.694 4.113 3.889l-.007 14.132a16.068 16.068 0 0 0 10.875-15.218c0-8.855-7.146-16.06-15.93-16.06-8.784 0-15.931 7.205-15.931 16.06 0 5.174 2.449 9.77 6.228 12.709zm2.968-18.76c2.113 0 3.657-.55 4.249-1.094a.992.992 0 0 1 1.412.065c.373.41.343 1.048-.065 1.423-1.087 1-3.231 1.621-5.596 1.621-2.514 0-4.719-.679-5.754-1.775a1.015 1.015 0 0 1 .035-1.426.996.996 0 0 1 1.414.036c.522.554 2.092 1.15 4.305 1.15zm9.27-1.051c.529.556 2.104 1.156 4.31 1.156 2.115 0 3.657-.549 4.248-1.095a.997.997 0 0 1 1.413.064 1.014 1.014 0 0 1-.064 1.424c-1.084 1.001-3.23 1.623-5.597 1.623-2.508 0-4.713-.681-5.755-1.778a1.013 1.013 0 0 1 .032-1.425.994.994 0 0 1 1.413.031z"/></svg>