<svg xmlns="http://www.w3.org/2000/svg" width="22" height="22" viewBox="0 0 22 22"><path fill="#29AAE2" d="M5.065 4.665c3.233-2.805 8.072-2.848 11.35-.288l-2.598.095c-.335.013-.595.278-.582.6a.594.594 0 0 0 .604.557h.022l3.989-.142a.59.59 0 0 0 .582-.579v-.042V4.84l-.147-3.782A.596.596 0 0 0 17.659.5c-.335.014-.595.28-.582.601l.094 2.372c-1.623-1.273-3.622-2.011-5.76-2.114-2.647-.13-5.191.741-7.155 2.448C1.555 6.153.411 9.72 1.269 13.117a.597.597 0 0 0 .729.423c.322-.077.523-.39.442-.698-.751-2.985.251-6.119 2.625-8.177zM20.73 8.885a.607.607 0 0 0-.729-.425c-.322.078-.523.391-.443.699.756 2.985-.25 6.12-2.625 8.178-1.668 1.445-3.761 2.156-5.845 2.156-1.99 0-3.976-.646-5.577-1.925l2.63-.228a.585.585 0 0 0 .545-.63.592.592 0 0 0-.657-.523l-3.976.343a.586.586 0 0 0-.546.63l.358 3.812c.027.3.291.527.6.527.018 0 .036 0 .053-.004a.585.585 0 0 0 .545-.63l-.214-2.321c1.624 1.262 3.613 1.995 5.737 2.097a10.114 10.114 0 0 0 7.155-2.448c2.703-2.344 3.848-5.908 2.989-9.308z"/></svg>