<svg xmlns="http://www.w3.org/2000/svg" width="20" height="20" viewBox="0 -1.5 20 20"><path d="M18.384 1.578A5.584 5.584 0 0 0 14.47.013c-1.479 0-2.87.557-3.917 1.569l-.547.529-.556-.537A5.616 5.616 0 0 0 5.528 0 5.594 5.594 0 0 0 1.62 1.566 5.21 5.21 0 0 0 0 5.354c0 1.432.581 2.771 1.628 3.785l7.962 7.697a.582.582 0 0 0 .806.004l7.979-7.686C19.421 8.141 20 6.797 20 5.365a5.215 5.215 0 0 0-1.616-3.787zm-.814 6.793l-7.577 7.296-7.56-7.309c-.83-.803-1.288-1.869-1.288-3.004s.454-2.201 1.285-3a4.433 4.433 0 0 1 3.099-1.242c1.175 0 2.281.442 3.112 1.246l.958.927a.585.585 0 0 0 .81 0l.95-.919a4.447 4.447 0 0 1 3.107-1.246c1.171 0 2.272.442 3.104 1.242a4.145 4.145 0 0 1 1.285 3.004 4.136 4.136 0 0 1-1.285 3.005z"/></svg>