<svg xmlns="http://www.w3.org/2000/svg" preserveAspectRatio="xMidYMid" width="47" height="64" viewBox="0 0 47 64"><defs><style>.cls-1{fill:#fff;fill-rule:evenodd}</style></defs><path d="M-.009 63.994V-.008h47.017v64.002H-.009zm3.606-40.679a4.6 4.6 0 0 0 4.59 4.598c2.515 0 4.564-2.064 4.564-4.598a4.575 4.575 0 0 0-4.564-4.573c-2.53 0-4.59 2.052-4.59 4.573zM41.933 5.068H4.526v10.738h37.407V5.068zm.004 13.674H12.99l.003 8.895c.077.522.46 1.082 1.121 1.082.583 0 1.244-.434 2.071-1.372 1.292-1.453 2.68-1.608 2.868-1.262.058.103.04.338-.18.691-.416.655-.327 1.108-.184 1.372.235.428.749.645 1.535.645 1.237 0 3.136-.575 4.226-1.52.048.092.1.195.14.276.29.589.727 1.471 1.623 1.471.565 0 1.171-.371 1.858-1.133.488-.548.701-.574.738-.574.103 0 .301.28.433.464.32.449.757 1.055 1.572 1.055.635 0 1.344-.374 2.236-1.184.702-.633 1.017-.702 1.121-.702.117 0 .216.136.411.456.234.39.558.923 1.237.923.415 0 .867-.206 1.428-.655.643-.515 1.279-.776 1.892-.776 1.167 0 1.939.96 1.946.967l.852 1.082V18.742zm0 16.231H12.99v3.468l-1.223-.073a3.931 3.931 0 0 0-.209-.478l.106.059-.187-4.308L9.7 36.506c-.239-.047-.478-.099-.746-.099-.26 0-.528.052-.797.099l-3.734-1.853 2.038 3.138a2.547 2.547 0 0 0-.422 1.088l-4.058.659 4.164.857c.264.717.742 1.295 1.407 1.641l-1.168 2.66 2.042-2.366c.161.052.345.052.528.052h.268l1.403 3.164-.367-3.455c.268-.129.503-.295.712-.478l2.023.78v1.442c.077.53.463 1.099 1.124 1.099.588 0 1.245-.437 2.068-1.375 1.296-1.446 2.68-1.597 2.868-1.266.055.096.04.335-.18.692-.335.534-.393.997-.184 1.38.235.422.745.639 1.52.639 1.238 0 3.143-.577 4.238-1.526.047.089.099.195.139.279.29.585.724 1.472 1.623 1.472.566 0 1.172-.375 1.858-1.144.485-.534.698-.559.735-.559.103 0 .297.272.437.47.319.449.756 1.06 1.568 1.06.639 0 1.351-.383 2.243-1.195.695-.629 1.01-.696 1.117-.696.117 0 .216.137.415.46.234.39.554.92 1.23.92.415 0 .874-.214 1.435-.666.643-.519 1.282-.78 1.895-.78 1.168 0 1.936.953 1.943.96l.852 1.078V34.973zm-5.288 8.159c-.51.412-.753.456-.837.456-.118 0-.217-.136-.415-.459-.235-.387-.555-.92-1.23-.92-.485 0-1.043.298-1.759.941-.856.784-1.344.95-1.601.95-.302 0-.5-.25-.79-.659-.275-.39-.62-.872-1.215-.872-.441 0-.9.276-1.443.876-.665.747-1.029.824-1.15.824-.305 0-.558-.519-.764-.935-.242-.489-.466-.948-.954-.948-.136 0-.334.044-.536.242-.834.835-2.644 1.42-3.746 1.42-.496 0-.668-.118-.683-.147-.007-.019-.007-.147.158-.412.518-.835.349-1.402.206-1.663-.228-.404-.691-.64-1.271-.64-.995 0-2.174.648-3.151 1.736-.877 1.005-1.277 1.056-1.351 1.056-.106 0-.165-.224-.172-.224v-.997l.903.349-.903-.625v-3.59l.558-.358-.558-.032v-2.572h27.037v6.783a3.355 3.355 0 0 0-1.84-.57c-.837 0-1.674.331-2.493.99zm-24.801-2.899l1.145-.732v2.325l-1.41-.975c.107-.195.184-.405.265-.618zM36.653 26.92c-.507.405-.753.449-.834.449-.121 0-.224-.137-.419-.46-.235-.39-.554-.92-1.229-.92-.485 0-1.047.302-1.759.953-.856.772-1.341.934-1.598.934-.305 0-.503-.246-.793-.654-.276-.386-.621-.865-1.212-.865-.448 0-.896.272-1.45.89-.639.71-.992.817-1.146.817-.305 0-.562-.519-.768-.938-.238-.486-.462-.942-.951-.942a.748.748 0 0 0-.539.247c-.823.827-2.63 1.405-3.731 1.405-.507 0-.683-.122-.698-.151-.007-.018-.003-.147.154-.401.522-.835.353-1.402.21-1.663-.232-.412-.695-.647-1.278-.647-.999 0-2.17.647-3.14 1.74-.885.997-1.289 1.048-1.358 1.048-.107 0-.162-.205-.169-.205v-7.859h27.037v6.813c-.455-.297-1.083-.573-1.843-.573-.838 0-1.675.331-2.486.982zm4.325-12.07H5.481V6.024h35.497v8.826zm-29.182 8.465c0 2.008-1.619 3.642-3.609 3.642a3.643 3.643 0 0 1-3.636-3.642c0-1.994 1.631-3.617 3.636-3.617a3.617 3.617 0 0 1 3.609 3.617z" class="cls-1"/></svg>