<svg xmlns="http://www.w3.org/2000/svg" preserveAspectRatio="xMidYMid" width="75.031" height="75" viewBox="0 0 75.031 75"><defs><style>.cls-1{fill:#fff;fill-rule:evenodd}</style></defs><path d="M65.543 38.935h9.475c-.747 19.608-16.456 35.313-36.06 36.06v-8.678h-2.893v8.678C16.484 74.248.756 58.543.009 38.935h9.475v-2.894H.009C.756 16.465 16.484.732 36.065-.015v9.472h2.893V-.015c19.604.747 35.313 16.48 36.06 36.056h-9.475v2.894zm-27.39 19.744h11.282v4.482h5.467v-4.482h3.222v-3.226h-3.222V42.49h-6.273L38.153 55.085v3.594zm-20.55-13.335c-.783 1.088-1.221 2.527-1.314 4.294h5.397c.066-1.173.273-2.042.633-2.585.61-.938 1.771-1.411 3.476-1.411 1.248 0 2.206.301 2.879.895.668.594 1.001 1.334 1.001 2.217 0 1.091-.587 2.104-1.752 3.011-.763.587-2.429 1.568-5.002 2.918-2.968 1.552-4.845 3.023-5.639 4.407a7.764 7.764 0 0 0-1.271 4.071h19.483v-3.57H23.003a5.272 5.272 0 0 1 1.306-1.142c.524-.332 1.482-.857 2.89-1.572l2.245-1.165c1.897-.982 3.257-1.882 4.087-2.683 1.259-1.193 1.888-2.57 1.888-4.119 0-2.005-.887-3.624-2.67-4.852-1.784-1.236-4.177-1.846-7.188-1.846-3.809 0-6.464 1.04-7.958 3.132zm52.093-14.238l-1.126-4.192-30.632 8.216L21.31 23.288l-2.518 3.536 18.293 13.022 32.611-8.74zM49.435 55.453H42.29l7.145-8.908v8.908z" class="cls-1"/></svg>