<svg xmlns="http://www.w3.org/2000/svg" width="69" height="41"><defs><linearGradient id="a" x1="0%" x2="61.566%" y1="0%" y2="78.801%"><stop offset="0" stop-color="#0c90c2"/><stop offset="1" stop-color="#2dd2ab"/></linearGradient></defs><path fill="url(#a)" d="M68.052 20.93L59.034 7.198a2.575 2.575 0 0 0-2.16-1.168h-8.416V2.595a2.592 2.592 0 0 0-2.586-2.597H2.992A2.592 2.592 0 0 0 .406 2.595v22.953a2.591 2.591 0 0 0 2.586 2.597h3.42v5.446a2.596 2.596 0 0 0 2.587 2.597h2.763c.554 2.735 2.968 4.801 5.854 4.801s5.3-2.066 5.855-4.801h28.334c.555 2.735 2.968 4.801 5.854 4.801s5.3-2.066 5.854-4.801h2.381a2.596 2.596 0 0 0 2.586-2.597V22.359c0-.511-.148-1.006-.428-1.429zM21.385 36.188c-.51 1.611-1.997 2.79-3.769 2.79s-3.259-1.179-3.769-2.79a3.947 3.947 0 0 1-.204-1.199c0-.279.03-.55.084-.812.375-1.811 1.976-3.177 3.889-3.177 1.913 0 3.514 1.366 3.889 3.177.054.262.084.533.084.812 0 .42-.083.817-.204 1.199zm25.071-2.011H23.529c-.396-2.925-2.893-5.187-5.913-5.187-3.02 0-5.517 2.262-5.914 5.187H8.999a.586.586 0 0 1-.584-.586v-5.446h38.041v6.032zm0-8.042H2.992a.585.585 0 0 1-.584-.587v-3.434h44.048v4.021zm0-6.032H2.408V8.041h44.048v12.062zm0-14.073H2.408V2.595c0-.323.262-.586.584-.586h42.88c.321 0 .584.264.584.586V6.03zm19.948 16.084H56.049a.586.586 0 0 1-.583-.586v-6.869c0-.325.262-.587.583-.587h5.101l5.232 7.965c.015.023.011.053.022.077zm-4.976 14.074c-.51 1.611-1.997 2.79-3.769 2.79-1.771 0-3.258-1.179-3.768-2.79a3.947 3.947 0 0 1-.204-1.199c0-.279.03-.55.084-.812.375-1.811 1.975-3.177 3.888-3.177 1.913 0 3.514 1.366 3.889 3.177.054.262.083.533.083.812 0 .42-.082.817-.203 1.199zm4.466-2.011h-2.322c-.396-2.925-2.893-5.187-5.913-5.187-3.019 0-5.516 2.262-5.913 5.187h-3.288V8.041h8.416c.198 0 .379.098.488.263l2.468 3.759h-3.781a2.595 2.595 0 0 0-2.586 2.596v6.869a2.595 2.595 0 0 0 2.586 2.597h10.428v9.466a.586.586 0 0 1-.583.586z"/></svg>