<svg xmlns="http://www.w3.org/2000/svg" width="49" height="75"><defs><linearGradient id="a" gradientUnits="userSpaceOnUse" x1="18" y1="113" x2="131"><stop offset="0" stop-color="#00adef"/><stop offset="1" stop-color="#31ecbe"/></linearGradient></defs><path fill="url(#a)" d="M49.028 37.214L38.989 47.282a1.021 1.021 0 0 1-1.452.001 1.04 1.04 0 0 1-.003-1.456l8.29-8.312H20.962a1.029 1.029 0 0 1-1.024-1.032c0-.567.459-1.028 1.024-1.028l24.859.001-8.286-8.312a1.036 1.036 0 0 1 0-1.456c.19-.189.448-.294.727-.294.276 0 .54.107.726.294l10.038 10.068c.095.097.169.208.22.332.028.066.037.134.045.194l.007.049a.349.349 0 0 0 .01.038c.007.031.018.068.018.114 0 .281-.105.539-.298.731zM17.143 64.336L1.593 75.742a1.006 1.006 0 0 1-1.044.084 1.001 1.001 0 0 1-.548-.895V12.416c0-.32.152-.621.41-.81L15.962.199a1 1 0 0 1 1.592.811v62.515c0 .32-.153.621-.411.811zM5.099 10.655l-3.096 2.271v6.433l3.096-2.301v-6.403zm0 8.901l-3.096 2.302v6.287l3.096-2.28v-6.309zm0 8.8l-3.096 2.281v6.41l3.096-2.282v-6.409zm0 8.901l-3.08 2.27c-.005.004-.011.005-.016.009v6.307l3.096-2.239v-6.347zm0 8.823l-3.096 2.239v6.878l3.096-2.342V46.08zm0 9.291l-3.096 2.343v6.26l3.096-2.295v-6.308zm0 15.294v-6.49L2.003 66.47v6.483l3.099-2.273-.003-.015zm5.226-63.843L7.101 9.187v6.382l3.224-2.397v-6.35zm0 8.849l-3.224 2.397v6.322l3.224-2.374v-6.345zm0 8.836l-3.224 2.375v6.408l3.224-2.376v-6.407zm0 8.899l-3.224 2.376v6.374l3.224-2.332v-6.418zm0 8.894l-3.224 2.332v6.708l3.224-2.44v-6.6zm0 9.117l-3.224 2.439v6.338l3.224-2.391v-6.386zm0 8.883l-3.224 2.39v6.524l3.224-2.365V60.3zm5.227-57.312l-3.225 2.365v6.33l3.225-2.397V2.988zm0 8.797l-3.225 2.397v6.359l3.225-2.375v-6.381zm0 8.872l-3.225 2.376v6.405l3.225-2.377v-6.404zm0 8.896l-3.225 2.377v6.447l3.225-2.332v-6.492zm0 8.968l-3.225 2.332v6.532l3.225-2.439v-6.425zm0 8.941l-3.225 2.44v6.417l3.209-2.379.016-.007v-6.471zm0 8.962l-3.225 2.391v6.565l3.225-2.365v-6.591z"/></svg>