<svg xmlns="http://www.w3.org/2000/svg" preserveAspectRatio="xMidYMid" width="73" height="62" viewBox="0 0 73 62"><defs><style>.cls-1{fill:#fff;fill-rule:evenodd}</style></defs><path d="M56.653 61.988H20.319c-6.65 0-9.179-5.231-9.179-8.687v-13.61H-.01v-3.449h26.97v3.449H14.805v13.61c0 1.996 1.868 5.068 5.514 5.068h26.002c.045.035.084.077.128.112v-.112h-.128c-3.675-2.964-6.043-7.455-6.043-12.516 0-8.896 7.342-16.107 16.375-16.107.336 0 1.195-.051 1.195-.051V.004h15.043l.115 45.849c0 8.901-7.315 16.135-16.353 16.135zm.189-7.042c-5.011 0-9.091-4.02-9.091-8.957 0-2.947 1.497-5.715 4.006-7.407l-1-1.448c-2.995 2.021-4.784 5.328-4.784 8.855 0 5.904 4.876 10.709 10.869 10.709 5.421 0 9.887-3.959 10.684-9.093h1.728c-.225-.436-2.338-6.241-2.452-7.091-.106.85-1.916 5.832-2.444 7.091h1.391c-.775 4.166-4.464 7.341-8.907 7.341zm8.849-52.421l-4.647 5.587h1.836v6.353h5.258V8.112h1.833l-4.28-5.587zM21.206 24.896c-5.152 0-4.734-4.99-3.078-7.945 1.666-2.967 2.912-6.734 3.322-9.794.587 3.138 2.499 8.384 3.689 10.372 1.162 1.969 1.245 7.367-3.933 7.367zm-8.588 8.057c-5.179 0-4.761-5.001-3.075-7.972 1.66-2.951 2.909-6.741 3.327-9.77.583 3.11 2.487 8.376 3.653 10.345 1.191 1.988 1.273 7.397-3.905 7.397zm-8.171-9.285c-5.182 0-4.773-5.024-3.078-7.968 1.663-2.978 2.909-6.741 3.323-9.77.583 3.11 2.495 8.384 3.661 10.345 1.159 1.965 1.246 7.393-3.906 7.393z" class="cls-1"/></svg>