<svg xmlns="http://www.w3.org/2000/svg" preserveAspectRatio="xMidYMid" width="79" height="79" viewBox="0 0 79 79"><defs><style>.cls-1{fill:#fff;fill-rule:evenodd}</style></defs><path d="M56.235 37.052v-9.493h22.768v9.493H56.235zm0-15.733h22.768v4.884H56.235v-4.884zm17.413 3.796h3.754v-2.712h-3.754v2.712zM56.235 6.264h22.768v9.496H56.235V6.264zm0-6.233h22.768v4.882H56.235V.031zm17.413 3.794h3.754V1.113h-3.754v2.712zM41.837 31.049h13.33v1.495H40.596l.063 16.617h15.533v29.835H23.38V49.161h15.674l-.196-16.617-15.165.032v-1.527h13.925L23.024 16.307h1.965L38.76 30.126V16.92h1.696v13.454l13.818-13.986 1.961.094-14.398 14.567zm6.456 26.791h4.686v-4.745h-4.686v4.745zm-12.058-3.605c-5.957 0-10.792 4.895-10.792 10.932 0 6.036 4.835 10.931 10.792 10.931 5.962 0 10.797-4.895 10.797-10.931 0-6.037-4.835-10.932-10.797-10.932zM28.234 6.31h22.771v9.494H28.234V6.31zM28.222.009h22.772v4.884H28.222V.009zm17.863 3.8h3.754V1.097h-3.754v2.712zM-.014 27.559h22.768v9.493H-.014v-9.493zm0-6.24h22.768v4.884H-.014v-4.884zm17.412 3.796h3.754v-2.712h-3.754v2.712zM-.014 6.264h22.768v9.496H-.014V6.264zm0-6.233h22.768v4.882H-.014V.031zm17.412 3.778h3.754V1.097h-3.754v2.712z" class="cls-1"/></svg>