<svg xmlns="http://www.w3.org/2000/svg" preserveAspectRatio="xMidYMid" width="75" height="78" viewBox="0 0 75 78"><defs><style>.cls-1{fill:#fff;fill-rule:evenodd}</style></defs><path d="M61.06 63.507l2.098 3.826L46.355 70.2l9.658-14.005s1.658 2.177 2.788 3.826c6.521-3.915 11.133-12.446 12.277-18.789 0 0 2.079.439 3.903.959-1.219 6.791-5.136 16.181-13.921 21.316zm1.855-28.714a7.033 7.033 0 0 1-7.036-7.033 7.049 7.049 0 0 1 2.816-5.639h.027V-.003h8.124v21.917a7.031 7.031 0 0 1 3.113 5.846 7.035 7.035 0 0 1-7.044 7.033zM65.807 1.13h-5.951v5.936h5.951V1.13zM37.8 77.99H5.937a5.933 5.933 0 0 1-5.935-5.936V43.769a5.931 5.931 0 0 1 5.935-5.927H37.8c3.281 0 5.95 2.653 5.95 5.927v28.285c0 3.283-2.669 5.936-5.95 5.936zm-21.82-5.846h21.053v-5.666H15.98v5.666zM9.52 73.34c1.899 0 3.455-1.816 3.455-4.083 0-2.248-1.556-4.074-3.455-4.074-1.916 0-3.466 1.826-3.466 4.074 0 2.267 1.55 4.083 3.466 4.083zm31.429-26.855c0-3.273-2.656-5.945-5.936-5.945H8.65c-3.279 0-5.949 2.672-5.949 5.945v8.023c0 3.283 2.67 5.936 5.949 5.936h26.363a5.932 5.932 0 0 0 5.936-5.936v-8.023zm-12.306.171h6.633v5.333h-6.633v-5.333zm-9.604 0h6.633v5.333h-6.633v-5.333zm-9.602 0h6.626v5.333H9.437v-5.333zm17.632-31.633c-6.519 3.916-11.131 12.428-12.26 18.79 0 0-2.095-.439-3.915-.958 1.214-6.793 5.134-16.183 13.921-21.317l-2.08-3.826L39.52 4.854l-9.659 13.995s-1.649-2.177-2.792-3.826z" class="cls-1"/></svg>