<svg xmlns="http://www.w3.org/2000/svg" width="69" height="49"><defs><linearGradient id="a" gradientUnits="userSpaceOnUse" x1="18" y1="113" x2="131"><stop offset="0" stop-color="#00adef"/><stop offset="1" stop-color="#31ecbe"/></linearGradient></defs><path fill="url(#a)" d="M69.44 36.229a.993.993 0 0 1-1.408-.108c-9.486-11.144-20.964-17.138-33.195-17.334-12.009-.156-23.782 5.348-33.086 15.601a.995.995 0 0 1-1.411.064 1.012 1.012 0 0 1-.063-1.422c9.695-10.685 21.99-16.468 34.592-16.256 12.818.205 24.81 6.441 34.679 18.035a1.013 1.013 0 0 1-.108 1.42zM54.572 2.992v6.993h-1.688V.153h1.592L59.7 6.955V.153h1.686v9.832h-1.434l-5.38-6.993zM43.938 9.488a4.556 4.556 0 0 1-1.779-1.824c-.412-.77-.619-1.635-.619-2.595 0-.681.126-1.331.378-1.95a5.182 5.182 0 0 1 1.03-1.622 4.77 4.77 0 0 1 1.598-1.1 5.043 5.043 0 0 1 2.02-.408c.816 0 1.514.108 2.092.324.578.216 1.13.549 1.656 1l-1.088 1.311a4.82 4.82 0 0 0-1.242-.797c-.41-.174-.905-.261-1.485-.261-.585 0-1.122.158-1.61.474a3.275 3.275 0 0 0-1.142 1.277 3.793 3.793 0 0 0-.411 1.752c0 .672.135 1.273.407 1.803.273.531.662.948 1.167 1.251.506.304 1.085.456 1.738.456.921 0 1.707-.246 2.36-.74V5.995h-2.497V4.493h4.15v4.128c-1.183 1.023-2.539 1.535-4.068 1.535-.997 0-1.882-.223-2.655-.668zM37.656.153h1.715v9.832h-1.715V.153zm-6.685 3.696c.326.142.805.288 1.435.438 1.084.266 1.877.616 2.38 1.053.504.436.755 1.052.755 1.848 0 .905-.321 1.62-.962 2.145-.642.526-1.482.789-2.52.789-1.55 0-2.907-.524-4.067-1.57l1.034-1.234c.485.425.972.744 1.462.956.49.213 1.027.319 1.612.319.53 0 .951-.113 1.261-.339.311-.227.466-.534.466-.922 0-.247-.056-.452-.17-.614-.113-.162-.33-.318-.649-.466-.32-.149-.779-.294-1.377-.435a10.592 10.592 0 0 1-1.395-.415 4.179 4.179 0 0 1-.996-.552 2.003 2.003 0 0 1-.653-.82c-.138-.322-.208-.709-.208-1.161 0-.841.312-1.527.936-2.057.623-.531 1.422-.796 2.397-.796 1.347 0 2.526.412 3.537 1.234l-.919 1.31c-.902-.677-1.783-1.015-2.645-1.015-.49 0-.877.112-1.163.336-.286.224-.428.51-.428.857 0 .26.064.476.193.644.129.17.357.325.684.467zM19.313.153h7.23v1.529h-5.516v2.592h4.89v1.529h-4.89v2.653h5.584v1.529h-7.298V.153zm-3.502 8.412a4.854 4.854 0 0 1-1.646 1.039 5.714 5.714 0 0 1-2.102.381H8.425V.153h3.638c.753 0 1.453.126 2.102.377a4.837 4.837 0 0 1 1.646 1.031c.449.437.8.957 1.054 1.562.254.606.381 1.253.381 1.943 0 .686-.127 1.33-.381 1.934a4.72 4.72 0 0 1-1.054 1.565zm-1.296-5.896c-.623-.626-1.441-.939-2.452-.939h-1.924v6.678h1.924c1.016 0 1.834-.31 2.455-.931.622-.622.932-1.425.932-2.411 0-.973-.311-1.772-.935-2.397zm5.194 26.429c0-1.589.094-2.68.606-4.24.093-.284.307-.512.583-.621a35.956 35.956 0 0 1 13.267-2.526c5.077 0 10.098 1.048 14.925 3.115.272.117.479.35.565.636.44 1.47.44 2.194.44 3.636 0 8.44-6.816 15.305-15.193 15.305-8.377 0-15.193-6.865-15.193-15.305zm28.389 0c0-1.174 0-1.714-.229-2.604-8.407-3.478-17.579-3.671-25.796-.555-.31 1.077-.367 1.896-.367 3.159 0 7.328 5.92 13.291 13.196 13.291s13.196-5.963 13.196-13.291zm-18.784 2.449c0-3.112 2.503-5.635 5.591-5.635.67 0 1.31.125 1.906.343L34.9 31.547l4.85-2.797a5.65 5.65 0 0 1 .74 2.797c0 3.108-2.498 5.63-5.585 5.63-3.088 0-5.591-2.522-5.591-5.63zM8.13 36.349c14.733 14.627 38.254 14.187 53.544-.999a.992.992 0 0 1 1.413.01 1.012 1.012 0 0 1-.011 1.423c-8.222 8.168-18.716 12.273-29.08 12.273-9.902 0-19.685-3.745-27.268-11.272a1.014 1.014 0 0 1-.011-1.425.996.996 0 0 1 1.413-.01z"/></svg>