<svg xmlns="http://www.w3.org/2000/svg" preserveAspectRatio="xMidYMid" width="56.968" height="69.06" viewBox="0 0 56.968 69.06"><defs><style>.cls-1{fill:#fff;fill-rule:evenodd}</style></defs><path d="M42.852 18.421c-.685 1.384-1.017 2.651-2.877 2.651H27.547c-1.892 0-2.898-1.186-3.23-2.405-3.571 0-5.267.206-5.267 3.265v4.113h-8.167v-8.896c0-3.786 3.731-6.873 6.796-6.873h6.469c.858-2.906 3.571-2.571 5.948-2.571.693-1.711 1.354-4.282 1.354-4.282s-3.575-1.021-5.602-1.55C23.8 1.38 24.81.162 25.848.162c1.014 0 12.067-.158 13.77-.158 1.7 0 1.856 1.219.673 1.711-1.174.517-5.775 1.708-5.775 1.708l1.203 3.947c5.098 0 6.284.868 7.29 2.906h13.967v8.145H42.852zm-29.797 9.091a.738.738 0 0 1 .13 1.029L2.14 42.955a.728.728 0 0 1-1.022.13.736.736 0 0 1-.129-1.028l11.045-14.415a.729.729 0 0 1 1.021-.13zm1.867 15.053V28.171a.73.73 0 0 1 .728-.734.73.73 0 0 1 .728.734v14.394a.73.73 0 1 1-1.456 0zm14.846.674a.733.733 0 0 1-.576-.284L18.124 28.541a.737.737 0 0 1 .129-1.029.73.73 0 0 1 1.021.13l11.069 14.415a.736.736 0 0 1-.129 1.028.727.727 0 0 1-.446.154zm7.65 25.811H-.007V46.262h37.425V69.05zM6.963 47.808H1.701v5.307h5.262v-5.307zm0 7.095H1.701v5.327h5.262v-5.327zm0 7.132H1.701v5.303h5.262v-5.303zm7.23-14.227H8.911v5.307h5.282v-5.307zm0 7.095H8.911v5.327h5.282v-5.327zm0 7.132H8.911v5.303h5.282v-5.303zm7.222-14.227h-5.274v5.307h5.274v-5.307zm0 7.095h-5.274v5.327h5.274v-5.327zm0 7.132h-5.274v5.303h5.274v-5.303zm7.234-14.227h-5.266v5.307h5.266v-5.307zm0 7.095h-5.266v5.327h5.266v-5.327zm0 7.132h-5.266v5.303h5.266v-5.303zm7.238-14.227h-5.286v5.307h5.286v-5.307zm0 7.095h-5.286v5.327h5.286v-5.327zm0 7.132h-5.286v5.303h5.286v-5.303z" class="cls-1"/></svg>