<svg xmlns="http://www.w3.org/2000/svg" preserveAspectRatio="xMidYMid" width="88" height="64" viewBox="0 0 88 64"><defs><style>.cls-1{fill:#fff;fill-rule:evenodd}</style></defs><path d="M87.996 7.13l-.083 1.026-6.445-.523c-6.12 3.89-8.599 8.441-10.442 11.874l16.97 1.363-.082 1.027-17.425-1.4c-.749 1.366-1.421 2.46-2.284 3.174-8.318 6.883-15.475 7.316-15.776 7.331l-.19-.781c5.518-2.534 7.748-6.679 9.638-10.415L46.46 18.568c-.765 1.397-1.445 2.514-2.322 3.24-8.319 6.886-15.475 7.319-15.775 7.334l-.191-.781c5.551-2.551 7.775-6.73 9.673-10.485L22.43 16.638c-.78 1.431-1.468 2.572-2.36 3.31-8.316 6.883-15.472 7.316-15.773 7.332l-.191-.782c5.582-2.565 7.801-6.78 9.706-10.552L.127 14.847l.082-1.026 14.111 1.133c.494-.97.984-1.907 1.532-2.781 3.119-4.962 8.009-7.543 12.11-8.884L.001 1.018.084-.008l30.789 2.5c2.59-.577 4.413-.644 4.462-.646l.204.771c-.137.073-.261.148-.394.222l19.5 1.583c2.746-.638 4.707-.711 4.758-.712l.203.771c-.186.098-.355.201-.535.3l19.35 1.571c2.897-.702 4.996-.781 5.049-.782l.203.771c-.236.126-.453.255-.68.383l5.003.406zM33.594 3.746c-6.23 3.875-8.767 8.436-10.629 11.902l15.387 1.236c.506-.995 1.005-1.955 1.567-2.85 3.063-4.873 7.834-7.448 11.888-8.809L33.594 3.746zm23.94 1.944c-6.176 3.882-8.685 8.438-10.539 11.888l15.389 1.235c.517-1.018 1.026-2 1.601-2.914 3.008-4.788 7.665-7.358 11.673-8.738L57.534 5.69zM26.369 55.335c0 5.135-3.614 8.385-8.668 8.385H9.768V46.448h6.378c5.785 0 10.223 2.541 10.223 8.887zm-10.336 3.209h.389c2.081 0 3.681-.962 3.681-3.232 0-2.428-1.394-3.459-3.681-3.459h-.389v6.691zm18.775-2.474c0 1.351.046 2.542 1.716 2.542 1.668 0 1.716-1.191 1.716-2.542v-9.622h6.264v10.216c0 5.04-3.155 7.333-7.98 7.333-4.825 0-7.98-2.293-7.98-7.333V46.448h6.264v9.622zm23.831-9.622l6.153 17.272h-6.633l-.571-2.152h-4.734l-.503 2.152h-6.632l5.992-17.272h6.928zM56.49 57.467l-.732-3.047c-.181-.735-.297-1.489-.409-2.223h-.23l-1.143 5.27h2.514zm15.873.71h5.261v5.543H66.099V46.448h6.264v11.729z" class="cls-1"/></svg>