<svg xmlns="http://www.w3.org/2000/svg" preserveAspectRatio="xMidYMid" width="69.97" height="66.94" viewBox="0 0 69.97 66.94"><defs><style>.cls-1{fill:#f4f5f7;fill-rule:evenodd}</style></defs><path d="M63.661 66.941c-3.482 0-6.299-2.763-6.299-6.167 0-2.116 1.09-3.981 2.749-5.092V7.701h7.193V55.76c1.601 1.117 2.653 2.941 2.653 5.014 0 3.404-2.818 6.167-6.296 6.167zm2.493-58.109h-4.893v39.024h4.893V8.832zM25.809 50.567C11.579 50.567.002 39.223.002 25.279.002 11.337 11.579-.007 25.809-.007c14.235 0 25.811 11.344 25.811 25.286 0 13.944-11.576 25.288-25.811 25.288zm0-48.979c-13.333 0-24.183 10.628-24.183 23.691 0 13.065 10.85 23.693 24.183 23.693 13.337 0 24.187-10.628 24.187-23.693 0-13.063-10.85-23.691-24.187-23.691zm13.762 33.178l-4.505-3.005v4.791h-1.822v-5.918l-6.423-3.664v7.048l4.887 4.038-1.15 1.505-3.737-3.009v5.169h-1.922v-5.169l-4.126 3.009-.765-1.883 4.891-3.66V26.97l-6.423 3.664v6.292h-1.922v-4.787l-4.504 2.627-.772-1.875 4.512-2.631-4.512-2.164 1.154-1.508 5.272 2.635 6.427-3.754-6.805-4.042-5.276 2.912-.772-1.785 4.126-2.257-4.508-2.534 1.154-1.879 4.504 2.533.386-4.412h1.918l-.382 5.917 6.423 3.762v-7.422l-4.891-3.387.765-1.407 4.126 2.537V8.836h1.922v5.169l4.119-2.537.768 1.407-4.887 3.387v7.422l6.423-3.762v-5.917h1.822v4.79l4.887-2.911.772 1.879-4.505 2.534 4.123 2.634-.772 1.408-5.655-2.912-6.426 4.042 6.808 3.754 4.986-2.635 1.059 1.508-4.123 2.164 4.505 3.006-1.154 1.5zM12.913 60.669H8.771v-1.894h4.142v1.894zm4.963 3.434c1.341 0 1.305-1.188 1.305-2.342 0-.378-.016-1.006-.279-1.302-.449-.511-1.512-.495-2.192-.495v-1.809c.505-.031 1.062.016 1.532-.179.66-.301.748-.908.748-1.516 0-.94-.366-1.388-1.166-1.388-.506 0-1.13.183-1.166.975v.873h-2.28c-.136-2.292.943-3.661 3.43-3.661 2.455 0 3.549 1.22 3.549 3.181 0 1.072-.433 2.37-1.703 2.553v.032c1.146.132 2.002 1.107 1.966 3.001 0 2.42-1.114 3.89-3.796 3.89-3.375 0-3.637-2.342-3.601-3.629v-.725h2.276c.051 1.026-.171 2.541 1.377 2.541zm8.933-10.844c2.193 0 3.518.924 3.518 3.544v5.551c0 2.619-1.325 3.558-3.538 3.558-2.192 0-3.517-.939-3.517-3.558v-5.551c0-2.62 1.325-3.544 3.537-3.544zM26.773 64.1c.645 0 1.186-.363 1.114-1.746v-5.551c.072-1.369-.469-1.731-1.114-1.731-.628 0-1.134.362-1.062 1.731v5.551c-.072 1.383.434 1.746 1.062 1.746zm6.562-11.281c1.679 0 1.691 1.021 1.699 2.611.008 1.614-.234 2.309-1.699 2.284-1.484.025-1.739-.67-1.727-2.284.008-1.59.024-2.611 1.727-2.611zm-.597 3.255c0 .569.052.814.597.814.521 0 .565-.245.565-.814v-1.548c0-.44 0-.885-.565-.885-.597 0-.597.445-.597.885v1.548zm7.979-3.061c2.176.031 3.398 1.088 3.569 3.197.036.312.072.628.056.939h-2.408c-.103-.791-.016-2.272-1.217-2.272-1.914 0-1.759 2.156-1.759 3.114v3.423c0 1.021.087 2.686 1.759 2.686 1.341 0 1.185-2.043 1.237-2.834h2.456l-.052.709c-.124 2.257-.923 3.987-3.641 3.987-3.999 0-4.262-2.404-4.262-5.702v-1.758c.103-3.15.366-5.489 4.262-5.489z" class="cls-1"/></svg>