<svg xmlns="http://www.w3.org/2000/svg" width="71" height="72"><defs><linearGradient id="a" gradientUnits="userSpaceOnUse" x1="18" y1="113" x2="131"><stop offset="0" stop-color="#00adef"/><stop offset="1" stop-color="#31ecbe"/></linearGradient></defs><path fill="url(#a)" d="M71.492 60.456a1.004 1.004 0 0 1-.701.283c-.261 0-.523-.1-.719-.3l-9.746-9.931a.992.992 0 0 1 .018-1.411 1.009 1.009 0 0 1 1.419.018l9.747 9.931a.992.992 0 0 1-.018 1.41zm-9.306-14.17H9.97c-1.661 0-3.013-1.343-3.013-2.993V25.839c0-1.65 1.352-2.993 3.013-2.993h52.216c1.661 0 3.013 1.343 3.013 2.993v17.454c0 1.65-1.352 2.993-3.013 2.993zm1.004-20.447c0-.55-.45-.997-1.004-.997H9.97c-.554 0-1.004.447-1.004.997v17.454c0 .55.45.997 1.004.997h52.216c.554 0 1.004-.447 1.004-.997V25.839zm-4.142 14.766h-45.94a1.001 1.001 0 0 1-1.005-.998 1 1 0 0 1 1.005-.997h45.94a1 1 0 0 1 1.004.997 1 1 0 0 1-1.004.998zm0-4.301h-45.94a1.001 1.001 0 0 1-1.005-.998 1 1 0 0 1 1.005-.997h45.94a1 1 0 0 1 1.004.997 1 1 0 0 1-1.004.998zM48.45 14.444c-.78.751-1.744 1.352-2.866 1.785-1.118.431-2.339.649-3.63.649H36.13V-.01h5.824c1.29 0 2.511.216 3.629.642 1.122.43 2.087 1.027 2.867 1.775a8.11 8.11 0 0 1 1.843 2.691 8.485 8.485 0 0 1 .663 3.336c0 1.17-.223 2.287-.663 3.319a8.172 8.172 0 0 1-1.843 2.691zm-.212-8.481a6.086 6.086 0 0 0-1.33-2.015c-.564-.564-1.282-1.02-2.133-1.356-.855-.336-1.805-.507-2.821-.507h-3.638v12.709h3.638c1.017 0 1.967-.167 2.825-.497.849-.329 1.566-.78 2.13-1.344a6.078 6.078 0 0 0 1.328-2.019 6.558 6.558 0 0 0 .478-2.5c0-.871-.161-1.702-.477-2.471zM30.335 7.791c.54.26 1.017.577 1.419.939.419.38.758.858 1.008 1.423.25.565.377 1.192.377 1.866 0 .991-.272 1.898-.81 2.696a5.269 5.269 0 0 1-2.111 1.819 6.39 6.39 0 0 1-2.791.621c-1.325 0-2.532-.277-3.589-.822a7.942 7.942 0 0 1-2.677-2.235l-.294-.381 1.681-1.387.319.4c1.265 1.583 2.764 2.353 4.583 2.353.998 0 1.809-.286 2.479-.874.651-.573.968-1.289.968-2.19 0-.919-.377-1.617-1.154-2.133-.831-.552-1.948-.831-3.32-.831h-1.192l-.57-1.238 5.003-5.732h-7.793V-.01h11.012v1.511L27.98 7.077c.247.038.49.084.726.138.55.126 1.098.32 1.629.576zM11.323 49.088a.993.993 0 0 1 .037 1.41l-9.616 10.06a1.007 1.007 0 0 1-1.42.037.994.994 0 0 1-.037-1.41l9.616-10.061a1.01 1.01 0 0 1 1.42-.036zm5.294 4.541a1.008 1.008 0 0 1 1.37-.373c.482.274.65.883.376 1.361l-6.451 11.238a1.004 1.004 0 0 1-1.37.373.994.994 0 0 1-.375-1.36l6.45-11.239zm8.898 1.64a1 1 0 0 1 1.244-.679.995.995 0 0 1 .683 1.236L23.493 69.29a1.001 1.001 0 0 1-1.244.679.996.996 0 0 1-.683-1.236l3.949-13.464zm10.398-.309a1 1 0 0 1 1.004.997v15.041a1 1 0 0 1-1.004.997 1 1 0 0 1-1.004-.997V55.957a1 1 0 0 1 1.004-.997zm9.672-.374a1.003 1.003 0 0 1 1.235.696l3.949 14.243a.997.997 0 0 1-.701 1.226 1 1 0 0 1-1.235-.696l-3.949-14.243a.997.997 0 0 1 .701-1.226zm7.847-2.056a1.008 1.008 0 0 1 1.371.37l6.853 11.888a.995.995 0 0 1-.373 1.361 1.007 1.007 0 0 1-1.371-.37l-6.853-11.887a.995.995 0 0 1 .373-1.362z"/></svg>