<svg xmlns="http://www.w3.org/2000/svg" preserveAspectRatio="xMidYMid" width="71" height="71" viewBox="0 0 71 71"><defs><style>.cls-1{fill:#fff;fill-rule:evenodd}</style></defs><path d="M58.199 66.187h8.432v4.815H2.256v-4.815h2.962V27.57l-2.084 1.863L0 25.815 28.925.008l30.36 22.667c1.06.675 3.739 2.92 3.739 2.92C67.917 30.218 71 36.789 71 44.096c0 9.486-5.174 17.76-12.801 22.091zM46.08 64.635c1.403 0 2.773-.148 4.095-.425l.008-17.538c0-1.806-1.534-2.511-2.966-2.568-.744-.028-1.447.24-2.019.801-.667.653-.918 1.43-.918 1.767v6.951c0 .549-.339 1.038-.846 1.225a1.27 1.27 0 0 1-1.421-.398c-.681-.842-1.311-1.205-3.217-1.099-1.72.089-3.021 1.378-3.021 3.001l-.033 5.366c3.028 1.841 6.559 2.917 10.338 2.917zM29.173 6.199L9.962 23.339v42.848H33.96a25.377 25.377 0 0 1-12.8-22.091c0-13.947 11.168-25.294 24.898-25.305L29.173 6.199zm30.575 22.802s-1.268-1.37-3.662-2.733c-2.394-1.364-6.366-2.712-10.006-2.712-11.154 0-20.227 9.215-20.227 20.54a20.63 20.63 0 0 0 7.342 15.819l.022-3.571c0-3.025 2.343-5.43 5.448-5.591 1.144-.061 2.135 0 3.057.344v-4.425c0-1.203.667-2.631 1.698-3.64 1.067-1.041 2.532-1.604 3.895-1.526 3.196.126 5.426 2.25 5.426 5.166l-.007 16.798c7.888-2.803 13.573-10.419 13.573-19.374 0-5.97-2.536-11.34-6.559-15.095zm2.842 9.513c-1.436 1.334-4.278 2.163-7.423 2.163-3.33 0-6.249-.905-7.626-2.362a1.316 1.316 0 0 1 .04-1.838 1.26 1.26 0 0 1 1.811.039c.707.751 2.817 1.559 5.775 1.559 2.835 0 4.901-.741 5.696-1.477a1.26 1.26 0 0 1 1.807.081 1.313 1.313 0 0 1-.08 1.835zM37.083 40.54c-3.327 0-6.249-.907-7.626-2.364a1.315 1.315 0 0 1 .04-1.838 1.263 1.263 0 0 1 1.811.039c.71.751 2.82 1.562 5.775 1.562 2.835 0 4.901-.742 5.696-1.479a1.264 1.264 0 0 1 1.807.082 1.314 1.314 0 0 1-.08 1.836c-1.436 1.333-4.278 2.162-7.423 2.162z" class="cls-1"/></svg>