<svg xmlns="http://www.w3.org/2000/svg" preserveAspectRatio="xMidYMid" width="79" height="79" viewBox="0 0 79 79"><defs><style>.cls-1{fill:#fff;fill-rule:evenodd}</style></defs><path d="M39.498 79.001a39.332 39.332 0 0 1-25.184-9.074l14.883-15.566c.289-.305.465-.682.582-1.086 3.409 2.025 7.345 3.202 11.548 3.202 12.834 0 23.275-10.8 23.275-24.077 0-13.271-10.441-24.067-23.275-24.067-12.832 0-23.271 10.796-23.271 24.067 0 6.645 2.615 12.669 6.836 17.032-.172.103-.368.174-.511.325L9.576 65.239C3.619 58.324-.003 49.34-.003 39.501-.003 17.693 17.681.009 39.498.009c21.817 0 39.501 17.684 39.501 39.492 0 21.811-17.684 39.5-39.501 39.5zM21.258 32.4c0-11.506 9.003-20.865 20.069-20.865 11.068 0 20.072 9.359 20.072 20.865 0 11.511-9.004 20.875-20.072 20.875-11.066 0-20.069-9.364-20.069-20.875zm26.67-.866l-1.26 1.137a10.506 10.506 0 0 1 2.578 5.286l1.672-.285a12.196 12.196 0 0 0-2.99-6.138zm-2.097 18.223a12.433 12.433 0 0 0 4.297-5.303l-1.562-.662a10.75 10.75 0 0 1-3.714 4.578l.979 1.387zm-4.155-20.244l.491-1.624a13.145 13.145 0 0 0-6.807-.196l.396 1.647a11.51 11.51 0 0 1 5.92.173zm-3.274 22.589c.341 0 .68-.012 1.013-.035l-.127-1.696a11.233 11.233 0 0 1-5.819-1.098l-.745 1.521a12.796 12.796 0 0 0 5.678 1.308zm-9.007-21.113a12.267 12.267 0 0 0-3.365 5.942l1.653.388a10.557 10.557 0 0 1 2.901-5.117l-1.189-1.213zm-.337 14.363a10.445 10.445 0 0 1-1.651-5.639h-1.696c0 2.324.662 4.591 1.917 6.554l1.43-.915zm-4.12 4.936c.809-.845 2.291-.738 3.317.237 1.021.975 1.194 2.457.385 3.301L5.252 78.292c-.809.844-2.291.737-3.316-.242-1.022-.975-1.195-2.457-.386-3.301l23.388-24.461z" class="cls-1"/></svg>