<svg xmlns="http://www.w3.org/2000/svg" width="50" height="48"><defs><linearGradient id="a" gradientUnits="userSpaceOnUse" x1="18" y1="113" x2="131"><stop offset="0" stop-color="#00adef"/><stop offset="1" stop-color="#31ecbe"/></linearGradient></defs><path fill="url(#a)" d="M47.931 16.118l-6.684-2.042.589-1.914 3.308 1.011a23.21 23.21 0 0 0-18.69-11.148c-12.773-.62-23.671 9.193-24.307 21.9l-2.008-.1C.828 10.016 12.649-.666 26.554.026a25.224 25.224 0 0 1 20.438 12.318l1.075-3.485 1.923.588-2.059 6.671zm-27.258 9.884l-3.033 7.059-1.849-.786 8.32-19.367 1.852.002 4.731 11.091h.147v.343l3.355 7.865-1.85.783-2.983-6.99h-8.69zm4.361-10.148l-3.501 8.147h6.976l-3.475-8.147zM8.742 34.249l-.589 1.914-3.308-1.01a23.21 23.21 0 0 0 18.69 11.148 23.141 23.141 0 0 0 16.703-5.946c4.596-4.142 7.297-9.807 7.603-15.954l2.009.1c-.334 6.681-3.268 12.838-8.263 17.337-4.677 4.214-10.627 6.494-16.875 6.494A25.223 25.223 0 0 1 2.997 35.983l-1.073 3.483-1.923-.586 2.057-6.672 6.684 2.041z"/></svg>