<svg xmlns="http://www.w3.org/2000/svg" width="88" height="88" viewBox="0 0 88 88"><defs><linearGradient id="a" x1="0%" x2="61.566%" y1="0%" y2="78.801%"><stop offset="0%" stop-color="#00ADEF" stop-opacity=".8"/><stop offset="44%" stop-color="#1CD1DA" stop-opacity=".8"/><stop offset="100%" stop-color="#37F4C5" stop-opacity=".8"/></linearGradient></defs><rect fill="url(#a)" x="-.219" width="88.031" height="88" rx="8.003" ry="8.003"/><path fill="#FFF" d="M43.822 5.744l-12.8 38.621h13.311v20.98a15.511 15.511 0 0 0 14.036-9.951 1.586 1.586 0 0 1 2.072-.913 1.611 1.611 0 0 1 .908 2.083 18.682 18.682 0 0 1-17.016 12v13.08h37.105v-75.9H43.822zm28.055 17.4A11.852 11.852 0 0 1 60.9 30.685a11.732 11.732 0 0 1-10.973-7.5A1.6 1.6 0 1 1 52.908 22a8.543 8.543 0 0 0 7.992 5.467 8.638 8.638 0 0 0 8-5.494 1.59 1.59 0 0 1 2.072-.916 1.61 1.61 0 0 1 .905 2.082zM22.883 59.532L21 54.091l-1.879 5.44-5.732.116 4.565 3.484-1.654 5.514 4.7-3.29 4.7 3.29-1.659-5.513 4.568-3.484zm4.1-34.085a10.857 10.857 0 0 1-14.995-10.1 10.928 10.928 0 0 1 5.685-9.6c-.039 0-.078-.008-.114-.008a12.135 12.135 0 1 0 9.428 19.707z"/></svg>