<svg xmlns="http://www.w3.org/2000/svg" width="124" height="94"><defs><linearGradient id="a" x1="0%" x2="61.566%" y1="0%" y2="78.801%"><stop offset="0" stop-color="#0c90c2"/><stop offset="1" stop-color="#2dd2ab"/></linearGradient></defs><path fill="url(#a)" d="M116.013 74.411H58.151c-4.404 0-7.987-3.569-7.987-7.957V8.802c0-4.389 3.583-7.959 7.987-7.959h57.862c4.404 0 7.987 3.57 7.987 7.959v57.652c0 4.388-3.583 7.957-7.987 7.957zm5.688-65.609c0-3.125-2.551-5.666-5.688-5.666H58.151c-3.136 0-5.687 2.541-5.687 5.666v57.652c0 3.124 2.551 5.667 5.687 5.667h57.862c3.137 0 5.688-2.543 5.688-5.667V8.802zM87.082 61.203c-13.047 0-23.661-10.578-23.661-23.576 0-12.998 10.614-23.575 23.661-23.575s23.661 10.577 23.661 23.575-10.614 23.576-23.661 23.576zm21.382-22.43h-2.373a1.148 1.148 0 0 1-1.149-1.146c0-.63.515-1.145 1.149-1.145h2.373l-.197-1.542c-1.348-10.602-10.455-18.597-21.185-18.597-10.729 0-19.837 7.995-21.185 18.597l-.196 1.542h2.372a1.15 1.15 0 0 1 1.149 1.145c0 .633-.516 1.146-1.149 1.146h-2.372l.196 1.542c1.348 10.602 10.456 18.596 21.185 18.596 10.73 0 19.837-7.994 21.185-18.596l.197-1.542zm-15.003 3.364c-.634 0-1.15-.512-1.15-1.145v-6.729a1.15 1.15 0 0 1 2.299 0v6.729c0 .633-.515 1.145-1.149 1.145zm-12.757 0a1.147 1.147 0 0 1-1.149-1.145v-6.729a1.15 1.15 0 1 1 2.299 0v6.729c0 .633-.516 1.145-1.15 1.145zM41.851 91.559h80.999c.634 0 1.15.515 1.15 1.147 0 .631-.516 1.144-1.15 1.144H41.851c-12.104 0-21.951-9.811-21.951-21.871v-9.75l-1.327-.047C8.158 61.814 0 53.391 0 43.006V26.091c0-2.668 2.179-4.839 4.858-4.839h6.495V5.703a1.15 1.15 0 0 1 2.299 0v15.549h13.793V5.703a1.15 1.15 0 0 1 2.3 0v15.549h6.495c2.678 0 4.858 2.171 4.858 4.839v16.915c0 9.895-7.748 18.292-17.639 19.121l-1.26.104v9.748c0 10.796 8.816 19.58 19.652 19.58zm-3.052-48.553V26.091a2.557 2.557 0 0 0-2.559-2.549H4.858a2.557 2.557 0 0 0-2.559 2.549v16.915c0 9.32 7.61 16.903 16.964 16.903h2.572c9.354 0 16.964-7.583 16.964-16.903z"/></svg>