<svg xmlns="http://www.w3.org/2000/svg" preserveAspectRatio="xMidYMid" width="65" height="43" viewBox="0 0 65 43"><defs><style>.cls-1{fill:#fff;fill-rule:evenodd}</style></defs><path d="M62.838 4.491H52.035c-1.193 0-2.161-.977-2.161-2.187S50.842.116 52.035.116h10.803C64.031.116 65 1.094 65 2.304c0 1.21-.969 2.187-2.162 2.187zm-.208 29.768l-15.284 8.739v-6.406H24.872a2.16 2.16 0 0 1-2.016-1.397L11.169 4.599H2.251c-1.244 0-2.254-1.024-2.254-2.284 0-1.259 1.01-2.283 2.254-2.283h22.18c1.244 0 2.254 1.024 2.254 2.283 0 1.26-1.01 2.284-2.254 2.284h-8.626l10.548 27.618h20.993v-6.639l15.284 8.681zM43.304 4.369H32.501c-1.193 0-2.162-.977-2.162-2.187s.969-2.188 2.162-2.188h10.803c1.193 0 2.161.978 2.161 2.188 0 1.21-.968 2.187-2.161 2.187z" class="cls-1"/></svg>