<svg xmlns="http://www.w3.org/2000/svg" preserveAspectRatio="xMidYMid" width="67.062" height="63.06" viewBox="0 0 67.062 63.06"><defs><style>.cls-1{fill:#fff;fill-rule:evenodd}</style></defs><path d="M63.393 19.415a.968.968 0 0 1-1.374.198 1.012 1.012 0 0 1-.194-1.401c3.385-4.571 4.222-10.878 2.234-16.871a1.008 1.008 0 0 1 .617-1.27.98.98 0 0 1 1.245.629c2.194 6.622 1.248 13.617-2.528 18.715zm-5.6-3.289a.987.987 0 0 1-.594-.201 1.019 1.019 0 0 1-.19-1.404c2.519-3.389 2.998-8.223 1.251-12.615A1.01 1.01 0 0 1 58.8.601a.972.972 0 0 1 1.28.551c2.006 5.044 1.428 10.63-1.503 14.578a.974.974 0 0 1-.784.396zm-1.454 30.038l-2.917-8.524v8.552l2.551 16.878h-3.648l-3.948-14.989-4.063 14.989h-4.306l3.972-16.878.091-8.622-2.589 8.653h-3.043l3.091-12.939 5.091-.027.373-1.059a4.676 4.676 0 0 1-2.514-4.171c0-2.584 2.023-4.678 4.522-4.678s4.523 2.094 4.523 4.678c0 1.897-1.096 3.521-2.664 4.255l.315 1.002h4.935l3.079 12.88h-2.851zm-4.067-33.786a.954.954 0 0 1-.593-.204 1.01 1.01 0 0 1-.188-1.401c1.621-2.179 1.709-5.316.223-7.993a1.014 1.014 0 0 1 .37-1.365.983.983 0 0 1 1.339.377c1.871 3.374 1.727 7.374-.37 10.191a.965.965 0 0 1-.781.395zM20.965 6.082l-6.88-6.091h36.736l-7.322 6.091H20.965zm4.356 6.532a.98.98 0 0 1 1.292.521 1.012 1.012 0 0 1-.511 1.317 12.528 12.528 0 0 1-5.072 1.087c-3.797 0-7.491-1.781-10.192-5.104a1.008 1.008 0 0 1 .129-1.407.96.96 0 0 1 1.38.132c3.339 4.104 8.428 5.469 12.974 3.454zm.387 10.711c.514-.141 1.06.189 1.193.724a1 1 0 0 1-.711 1.216c-1.683.437-3.389.65-5.08.65-6.34 0-12.51-2.988-16.9-8.391a1.012 1.012 0 0 1 .129-1.408.963.963 0 0 1 1.38.133c5.078 6.244 12.725 8.959 19.989 7.076zm.012 10.271c.523-.12 1.04.266 1.136.811a.997.997 0 0 1-.795 1.158 28.183 28.183 0 0 1-5.019.453c-7.567 0-14.912-3.069-20.714-8.783a1.01 1.01 0 0 1-.024-1.413.96.96 0 0 1 1.387-.024c6.621 6.517 15.378 9.357 24.029 7.798zM1.567 39.643c7.212 5.119 15.81 7.1 24.209 5.565.549-.123 1.042.266 1.139.808a.996.996 0 0 1-.793 1.162c-1.97.359-3.949.535-5.92.535-6.953 0-13.801-2.203-19.757-6.43a1.007 1.007 0 0 1-.243-1.391.965.965 0 0 1 1.365-.249zM1.556 52.06c7.079 4.823 15.487 6.654 23.63 5.17.549-.114 1.042.263 1.139.808a.996.996 0 0 1-.793 1.162 33.073 33.073 0 0 1-5.905.533c-6.719 0-13.359-2.057-19.164-6.009a1.013 1.013 0 0 1-.27-1.389.971.971 0 0 1 1.363-.275z" class="cls-1"/></svg>