<svg xmlns="http://www.w3.org/2000/svg" width="59" height="51"><defs><linearGradient id="a" gradientUnits="userSpaceOnUse" x1="18" y1="113" x2="131"><stop offset="0" stop-color="#00adef"/><stop offset="1" stop-color="#31ecbe"/></linearGradient></defs><path fill="url(#a)" d="M50.658 19.99l5.72-2.355.77 1.847-5.72 2.355-.77-1.847zm-5.675-7.27l4.369-4.358 1.424 1.412-4.37 4.359-1.423-1.413zM29.349 44.256c-7.883 0-14.296-6.379-14.296-14.219 0-7.496 12.888-28.702 13.437-29.6.366-.598 1.355-.598 1.719 0 .548.898 13.437 22.104 13.437 29.6 0 7.84-6.414 14.219-14.297 14.219zm0-41.345C26.427 7.855 17.064 24.15 17.064 30.037c0 6.737 5.511 12.219 12.285 12.219 6.775 0 12.286-5.482 12.286-12.219 0-5.889-9.362-22.183-12.286-27.126zm6.284 28.272a.7.7 0 0 1 .843.491.698.698 0 0 1-.484.845l-.565.155.483.284a.695.695 0 0 1 .25.937.704.704 0 0 1-.943.257l-.462-.271.149.569a.69.69 0 0 1-.482.842.669.669 0 0 1-.845-.49l-.503-1.913-3.036-1.788v3.595l1.373 1.4a.698.698 0 0 1 0 .971.7.7 0 0 1-.978 0l-.395-.402v.549a.69.69 0 0 1-.688.69.69.69 0 0 1-.689-.69v-.549l-.395.402a.698.698 0 0 1-.975.003.7.7 0 0 1-.003-.972l1.373-1.402v-3.595l-3.035 1.788-.503 1.915a.694.694 0 0 1-.843.492.695.695 0 0 1-.485-.846l.15-.569-.46.27a.705.705 0 0 1-.943-.254.695.695 0 0 1 .247-.937l.485-.286-.565-.157a.689.689 0 0 1-.485-.843.698.698 0 0 1 .844-.491l1.868.512 3.054-1.8-3.054-1.797-1.868.511a.706.706 0 0 1-.844-.489.693.693 0 0 1 .483-.845l.567-.156-.485-.285a.697.697 0 0 1-.248-.939.704.704 0 0 1 .945-.254l.459.27-.149-.57a.69.69 0 0 1 .484-.843.7.7 0 0 1 .844.49l.502 1.915 3.035 1.788v-3.593l-1.373-1.402a.7.7 0 0 1 0-.969.696.696 0 0 1 .978-.001l.395.401v-.547a.69.69 0 0 1 .689-.691.69.69 0 0 1 .688.691v.549l.395-.403a.697.697 0 0 1 .978 0 .697.697 0 0 1 0 .97l-1.373 1.402v3.592l3.036-1.79.503-1.912a.695.695 0 0 1 .845-.49.693.693 0 0 1 .483.843l-.15.57.458-.27a.707.707 0 0 1 .947.254.696.696 0 0 1-.25.939l-.485.283.567.158c.362.099.58.477.484.845a.698.698 0 0 1-.849.485l-1.864-.507-3.054 1.797 3.054 1.8 1.87-.512zM8.236 50.345l4.369-4.358 1.423 1.412-4.368 4.357-1.424-1.411zm-.144-40.57l1.422-1.414 4.373 4.35-1.422 1.414-4.373-4.35zm-.334 12.062l-5.716-2.355.77-1.847 5.716 2.355-.77 1.847zm-1.559 8.912l-6.187-.002v-1.999l6.187.001v2zm2.153 9.462l-5.719 2.356-.77-1.848 5.719-2.355.77 1.847zM50.92 50.426l-1.422 1.413-4.375-4.349 1.422-1.414 4.375 4.35zm.333-12.062l5.718 2.355-.77 1.848-5.718-2.356.77-1.847zm1.559-9.616l6.189.003-.002 2-6.189-.004.002-1.999z"/></svg>