<svg xmlns="http://www.w3.org/2000/svg" width="24" height="24" viewBox="0 0 24 24"><path fill="#888" d="M11.999 24a.5.5 0 0 1-.501-.5v-8.766a.501.501 0 0 1 1.001 0V23.5a.5.5 0 0 1-.5.5zM11.999 9.655a.501.501 0 0 1-.501-.5V.5a.501.501 0 0 1 1.001 0v8.655a.5.5 0 0 1-.5.5z"/><path fill="#888" d="M12.001 6.77a.5.5 0 0 1-.354-.147L8.095 3.077a.5.5 0 0 1 .708-.707l3.553 3.547a.5.5 0 0 1-.355.853z"/><path fill="#888" d="M12.001 6.77a.5.5 0 0 1-.354-.854L15.2 2.369a.502.502 0 0 1 .708 0 .499.499 0 0 1 0 .707l-3.552 3.547a.501.501 0 0 1-.355.147zM15.551 21.777a.502.502 0 0 1-.354-.146l-3.552-3.547a.5.5 0 0 1 .708-.707l3.552 3.548a.499.499 0 0 1-.354.852z"/><path fill="#888" d="M8.445 21.777a.499.499 0 0 1-.354-.853l3.553-3.548a.5.5 0 1 1 .708.707L8.799 21.63a.496.496 0 0 1-.354.147zM2.022 18.244a.5.5 0 0 1-.25-.933l7.605-4.378a.5.5 0 1 1 .5.866l-7.604 4.379a.507.507 0 0 1-.251.066zM14.372 11.133a.5.5 0 0 1-.25-.933l7.606-4.38a.5.5 0 1 1 .5.866l-7.606 4.379a.488.488 0 0 1-.25.068z"/><path fill="#888" d="M16.974 9.64a.498.498 0 0 1-.484-.63l1.303-4.845a.5.5 0 1 1 .967.259l-1.303 4.844a.502.502 0 0 1-.483.372z"/><path fill="#888" d="M21.826 10.939a.484.484 0 0 1-.13-.017l-4.852-1.301a.499.499 0 1 1 .259-.965l4.853 1.301a.5.5 0 0 1-.13.982zM5.726 20.206a.5.5 0 0 1-.484-.63l1.303-4.844a.501.501 0 0 1 .967.26l-1.303 4.844a.5.5 0 0 1-.483.37z"/><path fill="#888" d="M7.028 15.361a.489.489 0 0 1-.13-.017l-4.853-1.301a.5.5 0 1 1 .259-.966l4.853 1.301a.5.5 0 0 1-.129.983zM21.999 18.209a.496.496 0 0 1-.248-.066l-7.623-4.351a.499.499 0 1 1 .497-.868l7.623 4.351a.5.5 0 0 1-.249.934zM9.552 11.104a.496.496 0 0 1-.248-.066l-7.552-4.31a.5.5 0 1 1 .497-.868L9.8 10.171a.499.499 0 0 1-.248.933z"/><path fill="#888" d="M2.172 10.973a.5.5 0 0 1-.131-.983l4.847-1.319a.502.502 0 0 1 .263.966l-4.848 1.319a.486.486 0 0 1-.131.017z"/><path fill="#888" d="M7.02 9.655a.501.501 0 0 1-.483-.369l-1.321-4.84a.5.5 0 0 1 .966-.262l1.321 4.84a.5.5 0 0 1-.483.631zM16.981 15.346a.501.501 0 0 1-.131-.983l4.848-1.319a.5.5 0 1 1 .263.965l-4.848 1.319a.462.462 0 0 1-.132.018z"/><path fill="#888" d="M18.303 20.185a.5.5 0 0 1-.482-.369l-1.322-4.839a.5.5 0 0 1 .967-.263l1.322 4.84a.5.5 0 0 1-.485.631zM12 15.311l-2.873-1.656v-3.312L12 8.688l2.872 1.656v3.312L12 15.311zm-1.871-2.232L12 14.158l1.871-1.079v-2.157L12 9.843l-1.871 1.078v2.158z"/></svg>