<svg xmlns="http://www.w3.org/2000/svg" width="88" height="88" viewBox="0 0 88 88"><defs><linearGradient id="a" x1="0%" x2="61.566%" y1="0%" y2="78.801%"><stop offset="0%" stop-color="#00ADEF" stop-opacity=".8"/><stop offset="44%" stop-color="#1CD1DA" stop-opacity=".8"/><stop offset="100%" stop-color="#37F4C5" stop-opacity=".8"/></linearGradient></defs><path fill="url(#a)" d="M7.989 0h72.022a8 8 0 0 1 8 8v72a8 8 0 0 1-8 8H7.989a8 8 0 0 1-8-8V8a8 8 0 0 1 8-8z"/><path fill="#FFF" fill-rule="evenodd" d="M31 15.653v71.358l19.928-14.669V.985zm7.74 53.124V60.89l4.307-3.271v7.954zm4.307-1.58v6.9L38.74 77.27V70.4zm-8.8-41.5l3.189-2.377v7.857l-3.189 2.357V25.7zm8.8-6.561v7.9l-4.312 3.184v-7.867zm-4.307 1.585V14.01l4.307-3.173v6.675zm8.944 22.128l-3.335 2.42V37.28l3.335-2.464v8.036zm0-9.668l-3.335 2.468v-7.943l3.335-2.467v7.946zm-4.636 3.428L38.735 39.8v-7.953l4.307-3.181v7.946zm0 1.632v7.97l-4.313 3.129v-7.911zm-5.608 12.04L34.244 52.6v-7.853l3.189-2.357v7.9zm-3.189 3.922l3.189-2.314v8.346l-3.189 2.42v-8.448zm4.49-3.256l4.307-3.126v8.159l-4.307 3.272v-8.3zm5.609-4.071l3.335-2.42v8l-3.335 2.529V46.88zm3.335-23.269L44.35 26.07v-7.9l3.335-2.49v7.93zM34.244 35.165l3.189-2.357v7.954l-3.189 2.357v-7.954zm0 29.134l3.189-2.424v7.871l-3.189 2.374V64.3zm10.1-7.668l3.335-2.531v8.025L44.343 64.6v-7.969zm3.335-42.579l-3.336 2.488V9.88l3.335-2.455v6.627zm-10.245.914v6.727l-3.189 2.38v-6.757zm-3.19 58.777l3.189-2.373v6.852l-3.189 2.35v-6.829zm10.1-.608v-6.907l3.335-2.479v6.931zm-3.433-44.876H65.55V15.787l15.437 27.94-15.437 27.8v-12.4H40.911V28.259z"/><path fill="rgba(255, 255, 255, 0.5)" d="M0 28h42v31H0z"/></svg>