<svg xmlns="http://www.w3.org/2000/svg" preserveAspectRatio="xMidYMid" width="65" height="65" viewBox="0 0 65 65"><defs><style>.cls-1{fill:#fff;fill-rule:evenodd}</style></defs><path d="M56.988 18.924V65.01H7.894V18.924H-.009L32.561-.012 65.01 18.924h-8.022zM44.774 37.11c-4.246 0-7.802 2.986-8.681 6.963H24.658v-5.495h-3.832v5.495h-4.55v-5.577h-3.832v9.4h23.649c.879 3.977 4.435 6.963 8.681 6.963 4.905 0 8.895-3.981 8.895-8.875 0-4.893-3.99-8.874-8.895-8.874zm0 13.926c-2.792 0-5.063-2.266-5.063-5.052 0-2.785 2.271-5.051 5.063-5.051s5.063 2.266 5.063 5.051c0 2.786-2.271 5.052-5.063 5.052z" class="cls-1"/></svg>