<svg xmlns="http://www.w3.org/2000/svg" width="46" height="45"><defs><linearGradient id="a" x1="0%" x2="61.566%" y1="0%" y2="78.801%"><stop offset="0" stop-color="#0c90c2"/><stop offset="1" stop-color="#2dd2ab"/></linearGradient></defs><path fill="url(#a)" d="M44.722 21.53h-6.854a.979.979 0 0 0-.979.977 2.939 2.939 0 0 1-2.937 2.935 2.94 2.94 0 0 1-2.937-2.935.978.978 0 0 0-.979-.977h-5.874v-5.967a4.9 4.9 0 0 0 3.916-4.792 4.902 4.902 0 0 0-3.916-4.793V.992a.979.979 0 0 0-.979-.979h-1.249a.978.978 0 1 0 0 1.955h.269v4.891c0 .54.439.978.98.978a2.94 2.94 0 0 1 2.937 2.934 2.939 2.939 0 0 1-2.937 2.934.98.98 0 0 0-.98.978v6.847H17.21a4.903 4.903 0 0 0-4.797-3.913 4.903 4.903 0 0 0-4.797 3.913H2.622V1.968h19.986a.978.978 0 1 0 0-1.955H1.643a.978.978 0 0 0-.979.979v43.033c0 .539.438.977.979.977h43.079a.978.978 0 0 0 .979-.977V22.507a.978.978 0 0 0-.979-.977zm-42.1 1.956h5.875a.98.98 0 0 0 .979-.979 2.938 2.938 0 0 1 5.874 0c0 .541.438.979.979.979h5.874v4.988a4.902 4.902 0 0 0-3.916 4.792 4.9 4.9 0 0 0 3.916 4.792v4.989H2.622V23.486zm41.121 19.561H24.162v-5.868a.978.978 0 0 0-.979-.978 2.94 2.94 0 0 1-2.938-2.935 2.94 2.94 0 0 1 2.938-2.935c.54 0 .979-.437.979-.976v-5.869h4.993a4.904 4.904 0 0 0 4.797 3.912 4.904 4.904 0 0 0 4.797-3.912h4.994v19.561z"/></svg>