<svg xmlns="http://www.w3.org/2000/svg" viewBox="0 38.4 94.8 61.6"><linearGradient id="a" gradientUnits="userSpaceOnUse" x1="-8.098" y1="79.158" x2="132.842" y2="-101.237" gradientTransform="matrix(.6365 0 0 -.6365 0 80.586)"><stop offset="0" stop-color="#0c90c2"/><stop offset="1" stop-color="#2dd2ab"/></linearGradient><path fill="url(#a)" d="M26 68.4c-.6-.1-1-.3-1.3-.4-.3-.1-.5-.3-.6-.4s-.2-.4-.2-.6c0-.3.1-.6.4-.8.3-.2.6-.3 1.1-.3.8 0 1.6.3 2.4 1l.8-1.2c-1-.8-2-1.1-3.2-1.1-.9 0-1.7.3-2.2.7-.6.5-.9 1.1-.9 1.8 0 .4.1.8.2 1.1s.3.6.6.8c.3.2.6.4.9.5.3.1.8.3 1.3.4.6.1 1 .3 1.3.4.3.1.5.3.6.4.1.1.1.3.1.6 0 .4-.1.6-.4.8-.3.2-.7.3-1.1.3-.5 0-1-.1-1.5-.3s-.9-.5-1.3-.9l-1 1.1c1.1 1 2.3 1.5 3.8 1.5 1 0 1.7-.3 2.3-.7.6-.5.9-1.1.9-2 0-.7-.3-1.3-.7-1.7-.6-.5-1.4-.8-2.3-1z"/><linearGradient id="b" gradientUnits="userSpaceOnUse" x1="1.218" y1="90.501" x2="138.718" y2="-85.491" gradientTransform="matrix(.6365 0 0 -.6365 0 80.586)"><stop offset="0" stop-color="#0c90c2"/><stop offset="1" stop-color="#2dd2ab"/></linearGradient><path fill="url(#b)" d="M38.2 69.8c0 .8-.2 1.5-.6 1.8-.4.4-1 .6-1.7.6s-1.3-.2-1.7-.6c-.4-.4-.6-1.1-.6-1.9v-5.1H32v5.2c0 1.3.3 2.2 1 2.9s1.6 1 2.8 1c1.2 0 2.2-.3 2.8-1 .6-.7 1-1.7 1-3v-5.1H38c.2 0 .2 5.2.2 5.2z"/><linearGradient id="c" gradientUnits="userSpaceOnUse" x1="10.039" y1="98.335" x2="140.712" y2="-68.918" gradientTransform="matrix(.6365 0 0 -.6365 0 80.586)"><stop offset="0" stop-color="#0c90c2"/><stop offset="1" stop-color="#2dd2ab"/></linearGradient><path fill="url(#c)" d="M47.2 64.6h-3.6v9h1.6v-2.9H47c.7 0 1.3-.1 1.8-.3.5-.3 1-.6 1.3-1 .3-.4.5-1 .5-1.7 0-.9-.3-1.7-.9-2.2-.7-.6-1.5-.9-2.5-.9zm1.2 4.2c-.4.3-.8.4-1.4.4h-1.8V66H47c.6 0 1.1.1 1.4.4.3.3.5.7.5 1.2s-.1.9-.5 1.2z"/><linearGradient id="d" gradientUnits="userSpaceOnUse" x1="12.433" y1="116.819" x2="153.894" y2="-64.243" gradientTransform="matrix(.6365 0 0 -.6365 0 80.586)"><stop offset="0" stop-color="#0c90c2"/><stop offset="1" stop-color="#2dd2ab"/></linearGradient><path fill="url(#d)" d="M55.3 69.8h4.5v-1.4h-4.5V66h5v-1.4h-6.6v9h6.7v-1.4h-5.1z"/><linearGradient id="e" gradientUnits="userSpaceOnUse" x1="20.731" y1="125.942" x2="158.617" y2="-50.544" gradientTransform="matrix(.6365 0 0 -.6365 0 80.586)"><stop offset="0" stop-color="#0c90c2"/><stop offset="1" stop-color="#2dd2ab"/></linearGradient><path fill="url(#e)" d="M70.7 69.2c.4-.4.6-1 .6-1.7 0-.9-.3-1.6-.9-2.1-.6-.5-1.4-.8-2.4-.8h-4v9h1.6v-3.1h2l2.2 3.1h1.8l-2.4-3.4c.6-.2 1.1-.6 1.5-1zm-5.3-.1v-3h2.3c.6 0 1 .1 1.4.4.3.3.5.6.5 1.1 0 .4-.2.8-.5 1.1s-.7.3-1.3.3l-2.4.1z"/><linearGradient id="f" gradientUnits="userSpaceOnUse" x1="21.745" y1="85.424" x2="130.935" y2="-54.333" gradientTransform="matrix(.6365 0 0 -.6365 0 80.586)"><stop offset="0" stop-color="#0c90c2"/><stop offset="1" stop-color="#2dd2ab"/></linearGradient><path fill="url(#f)" d="M81.5 50.4H13.4C6 50.4 0 56.4 0 63.8v10.8C0 82 6 88 13.4 88h68.1c7.4 0 13.4-6 13.4-13.4V63.8c-.1-7.4-6-13.4-13.4-13.4zm12.1 24.2c0 6.7-5.4 12.1-12.1 12.1H13.4c-6.7 0-12.1-5.4-12.1-12.1V63.8c0-6.7 5.4-12.1 12.1-12.1h68.1c6.7 0 12.1 5.4 12.1 12.1v10.8z"/><linearGradient id="g" gradientUnits="userSpaceOnUse" x1="-33.839" y1="215.812" x2="240.135" y2="-134.857" gradientTransform="matrix(.6365 0 0 -.6365 0 80.586)"><stop offset="0" stop-color="#0c90c2"/><stop offset="1" stop-color="#2dd2ab"/></linearGradient><path fill="url(#g)" d="M55.3 46.5c.1.1.2.1.3.1.3 0 .5-.1.6-.4l2.2-5.4c.1-.3 0-.7-.3-.8-.3-.1-.7 0-.8.3l-2.2 5.4c-.3.3-.2.7.2.8z"/><linearGradient id="h" gradientUnits="userSpaceOnUse" x1="3.774" y1="150.322" x2="187.871" y2="-85.312" gradientTransform="matrix(.6365 0 0 -.6365 0 80.586)"><stop offset="0" stop-color="#0c90c2"/><stop offset="1" stop-color="#2dd2ab"/></linearGradient><path fill="url(#h)" d="M46.9 45.4c.4 0 .6-.3.6-.6V39c0-.4-.3-.6-.6-.6-.4 0-.6.3-.6.6v5.9c0 .2.2.5.6.5z"/><linearGradient id="i" gradientUnits="userSpaceOnUse" x1="9.69" y1="121.808" x2="162.018" y2="-73.163" gradientTransform="matrix(.6365 0 0 -.6365 0 80.586)"><stop offset="0" stop-color="#0c90c2"/><stop offset="1" stop-color="#2dd2ab"/></linearGradient><path fill="url(#i)" d="M38.1 46.1c.1.3.3.4.6.4.1 0 .2 0 .3-.1.3-.1.5-.5.3-.8L37 40.2c-.1-.3-.5-.5-.8-.3-.3.1-.4.5-.3.8l2.2 5.4z"/><linearGradient id="j" gradientUnits="userSpaceOnUse" x1="-81.682" y1="157.212" x2="192.291" y2="-193.458" gradientTransform="matrix(.6365 0 0 -.6365 0 80.586)"><stop offset="0" stop-color="#0c90c2"/><stop offset="1" stop-color="#2dd2ab"/></linearGradient><path fill="url(#j)" d="M38.9 91.8c-.3-.1-.7 0-.8.3l-2.2 5.5c-.1.3 0 .7.3.8.1.1.2.1.3.1.3 0 .5-.1.6-.4l2.2-5.4c.1-.4-.1-.8-.4-.9z"/><linearGradient id="k" gradientUnits="userSpaceOnUse" x1="-32.863" y1="112.113" x2="151.234" y2="-123.52" gradientTransform="matrix(.6365 0 0 -.6365 0 80.586)"><stop offset="0" stop-color="#0c90c2"/><stop offset="1" stop-color="#2dd2ab"/></linearGradient><path fill="url(#k)" d="M47.2 92.9c-.4 0-.6.3-.6.6v5.9c0 .4.3.6.6.6.4 0 .6-.3.6-.6v-5.9c.1-.3-.2-.6-.6-.6z"/><linearGradient id="l" gradientUnits="userSpaceOnUse" x1="-8.201" y1="101.556" x2="144.127" y2="-93.415" gradientTransform="matrix(.6365 0 0 -.6365 0 80.586)"><stop offset="0" stop-color="#0c90c2"/><stop offset="1" stop-color="#2dd2ab"/></linearGradient><path fill="url(#l)" d="M56.1 92.2c-.1-.3-.5-.5-.8-.3-.3.1-.4.4-.3.8l2.2 5.4c.1.3.3.4.6.4.1 0 .2 0 .3-.1.3-.1.5-.5.3-.8l-2.3-5.4z"/></svg>