<svg xmlns="http://www.w3.org/2000/svg" width="60" height="60" viewBox="0 0 60 60"><linearGradient id="a" gradientUnits="userSpaceOnUse" y1="30" x2="60" y2="30"><stop offset="0" stop-color="#008abf"/><stop offset=".374" stop-color="#15a5af"/><stop offset=".748" stop-color="#24b9a3"/><stop offset="1" stop-color="#2ac09f"/></linearGradient><path fill-rule="evenodd" clip-rule="evenodd" fill="url(#a)" d="M48.887 31.099v-2L60 29.096v2l-11.113.003zm-6.312-15.237l7.852-7.861 1.414 1.413-7.853 7.86-1.413-1.412zm2.631 20.073c-2.494 6.506-8.716 10.509-15.3 10.51-1.943 0-3.917-.349-5.838-1.085h.001a16.255 16.255 0 0 1-9.086-8.623 16.258 16.258 0 0 1-.344-12.519c3.229-8.426 12.717-12.653 21.147-9.42a16.232 16.232 0 0 1 9.08 8.616 16.253 16.253 0 0 1 .34 12.521zM43.04 24.228a14.242 14.242 0 0 0-7.968-7.562 14.314 14.314 0 0 0-5.133-.953c-5.782 0-11.244 3.512-13.433 9.222a14.265 14.265 0 0 0 .303 10.988 14.264 14.264 0 0 0 7.975 7.571h.001c7.394 2.833 15.718-.877 18.553-8.273a14.272 14.272 0 0 0-.298-10.993zm-6.735 5.425h3.179V31.2h-3.179v2.4h-1.86v-6.722h5.376v1.636h-3.515v1.139zm-6.479 0h3.179V31.2h-3.179v2.4h-1.86v-6.722h5.376v1.636h-3.516v1.139zm-4.065 3.063a3.535 3.535 0 0 1-1.15.745 3.744 3.744 0 0 1-1.436.276 3.706 3.706 0 0 1-1.847-.466 3.393 3.393 0 0 1-1.296-1.264 3.442 3.442 0 0 1-.467-1.764 3.495 3.495 0 0 1 1.036-2.472 3.519 3.519 0 0 1 1.153-.746c.45-.185.93-.278 1.439-.278s.987.092 1.434.274a3.55 3.55 0 0 1 1.146.741c.315.311.565.681.747 1.112.182.43.273.886.273 1.368 0 .475-.093.927-.278 1.358a3.463 3.463 0 0 1-.754 1.116zm-1.344-3.755c-.324-.357-.738-.535-1.242-.535-.496 0-.904.176-1.223.528-.319.351-.479.781-.479 1.288 0 .497.162.924.487 1.281.325.357.736.536 1.233.536.503 0 .914-.176 1.233-.528.318-.352.478-.782.478-1.288a1.82 1.82 0 0 0-.487-1.282zM28.889.001l2-.001.005 11.11-2 .001-.005-11.11zM8.002 9.573l1.414-1.416 7.712 7.706-1.414 1.415-7.712-7.705zm2.901 21.534l-10.902.004-.001-2 10.902-.005.001 2.001zm6.232 13.034l-7.707 7.712-1.415-1.414 7.707-7.712 1.415 1.414zm13.772 15.858h-2l-.005-10.903h2l.005 10.903zm20.946-9.425l-1.414 1.414-7.86-7.856 1.414-1.414 7.86 7.856z"/></svg>