<svg xmlns="http://www.w3.org/2000/svg" width="25" height="24" viewBox="0 0 25 24"><path fill="#29AAE2" d="M22.465 15.213a.536.536 0 0 0-.535.535v2.044a2.141 2.141 0 0 1-2.138 2.139H5.208a2.141 2.141 0 0 1-2.138-2.139v-2.044a.535.535 0 1 0-1.07 0v2.044A3.212 3.212 0 0 0 5.208 21h14.585A3.211 3.211 0 0 0 23 17.792v-2.044a.536.536 0 0 0-.535-.535z"/><path fill="#29AAE2" d="M17.911 10.259a.535.535 0 0 0-.755-.043l-4.121 3.683V3.535a.536.536 0 0 0-1.07 0v10.364l-4.121-3.683a.535.535 0 1 0-.713.797l4.478 4.001a1.332 1.332 0 0 0 1.78 0l4.478-4.001a.534.534 0 0 0 .044-.754z"/></svg>