<svg xmlns="http://www.w3.org/2000/svg" width="46" height="46"><defs><linearGradient id="a" gradientUnits="userSpaceOnUse" x1="18" y1="113" x2="131"><stop offset="0" stop-color="#00adef"/><stop offset="1" stop-color="#31ecbe"/></linearGradient></defs><path fill="url(#a)" d="M19.753 12.227c0-2.13 1.746-3.863 3.891-3.863 2.146 0 3.891 1.733 3.891 3.863 0 2.131-1.745 3.864-3.891 3.864-2.145 0-3.891-1.733-3.891-3.864zm5.771 0a1.875 1.875 0 0 0-1.88-1.866c-1.036 0-1.88.837-1.88 1.866 0 1.03.844 1.867 1.88 1.867 1.037 0 1.88-.837 1.88-1.867zm19.458 33.774h-13.76a1.001 1.001 0 0 1-1.007-.999v-7.668c0-.553.449-.999 1.007-.999a1 1 0 0 1 1.006.999v6.668h11.748V22h-9.397a1.003 1.003 0 0 1-1.006-.999v-3.67c0-.55.449-.999 1.006-.999.557 0 1.006.449 1.006.999v2.67h8.391V1.997H2.012V16h12.089V7.996c0-.55.449-1 1.006-1 .558 0 1.007.45 1.007 1v12.005h12.757c.557 0 1.01.446 1.01 1 0 .55-.453.999-1.01.999H16.114v1.336c0 .55-.449.999-1.007.999a1.003 1.003 0 0 1-1.006-.999v-5.338H2.012v18.001h12.089v-2.667c0-.55.449-.999 1.006-.999.558 0 1.007.449 1.007.999v2.667h8.059c.557 0 1.006.449 1.006 1.003 0 .55-.449 1-1.006 1H1.006c-.557 0-1.006-.45-1.006-1V.998c0-.55.449-1 1.006-1h43.976c.558 0 1.007.45 1.007 1v44.004c0 .553-.449.999-1.007.999z"/></svg>