<svg xmlns="http://www.w3.org/2000/svg" width="68.902" height="62.006" viewBox="0 0 68.902 62.006"><linearGradient id="a" gradientUnits="userSpaceOnUse" y1="31.003" x2="68.902" y2="31.003"><stop offset="0" stop-color="#008abf"/><stop offset=".374" stop-color="#15a5af"/><stop offset=".748" stop-color="#24b9a3"/><stop offset="1" stop-color="#2ac09f"/></linearGradient><path fill-rule="evenodd" clip-rule="evenodd" fill="url(#a)" d="M68.871 29.602c-.121.464-.629.754-1.08.622l-2.37-.647-3.886 2.292 3.886 2.294 2.378-.652a.88.88 0 1 1 .459 1.7l-.72.199.614.36c.41.245.553.783.32 1.198a.894.894 0 0 1-1.2.326l-.587-.349.192.729a.885.885 0 0 1-.617 1.075.852.852 0 0 1-1.074-.627l-.643-2.436-3.864-2.281v4.582l1.75 1.786a.894.894 0 0 1 0 1.238.891.891 0 0 1-1.245 0l-.504-.516v.703c0 .485-.392.88-.873.88a.879.879 0 0 1-.875-.88v-.703l-.504.516a.892.892 0 0 1-1.243.002.896.896 0 0 1-.001-1.239l1.748-1.788v-4.582l-3.864 2.281-.642 2.44a.879.879 0 0 1-1.072.625.886.886 0 0 1-.617-1.076l.192-.726-.588.345c-.4.237-.97.086-1.201-.323a.886.886 0 0 1 .318-1.193l.616-.367-.721-.199a.881.881 0 0 1 .459-1.7l2.379.652 3.886-2.294-3.886-2.292-2.379.648c-.442.125-.953-.162-1.073-.623a.883.883 0 0 1 .613-1.075l.722-.199-.616-.364a.892.892 0 0 1-.319-1.196.895.895 0 0 1 1.204-.326l.586.345-.191-.726a.883.883 0 0 1 .615-1.075.888.888 0 0 1 1.076.625l.639 2.44 3.864 2.28V25.75l-1.748-1.787a.895.895 0 0 1 0-1.237.888.888 0 0 1 1.244 0l.504.513v-.7c0-.485.393-.88.875-.88.481 0 .873.395.873.88v.7l.505-.513c.326-.339.912-.339 1.244 0a.893.893 0 0 1 0 1.237l-1.75 1.787v4.582l3.864-2.283.643-2.438a.88.88 0 0 1 1.074-.625c.46.125.738.608.617 1.071l-.192.729.585-.343a.897.897 0 0 1 1.203.323.892.892 0 0 1-.32 1.198l-.616.362.722.2a.879.879 0 0 1 .612 1.076zm-10.068-16.22h-6.967v-1.995h8.968v7.074h-2.002v-5.079zm-14.264.02h-.012l-2.393-.028a.999.999 0 0 1-.989-1.009c.007-.551.411-1 1.013-.985l2.393.028a.999.999 0 0 1 .989 1.009 1 1 0 0 1-1.001.985zm-4.336-6.499a1.002 1.002 0 0 1-1.415-.019.993.993 0 0 1 .019-1.409l1.714-1.664a1.003 1.003 0 0 1 1.416.018.996.996 0 0 1-.018 1.41l-1.716 1.664zm-.352 8.259c-1.17 2.686-3.812 4.294-6.581 4.294a7.151 7.151 0 0 1-2.838-.588h-.001c-3.622-1.567-5.291-5.777-3.719-9.385 1.571-3.607 5.796-5.269 9.419-3.707 3.621 1.567 5.289 5.777 3.72 9.386zm-4.518-7.557c-2.61-1.129-5.654.072-6.785 2.671-1.132 2.599.07 5.633 2.68 6.761 2.61 1.126 5.655-.071 6.786-2.67 1.132-2.599-.071-5.633-2.681-6.762zM33.4 4.376h-.014a1 1 0 0 1-.988-1.01L32.43.984A1 1 0 0 1 33.431 0h.014a1 1 0 0 1 .988 1.01l-.032 2.382a1 1 0 0 1-1.001.984zm-6.627 2.677a1 1 0 0 1-.718-.301l-1.667-1.709a.995.995 0 0 1 .02-1.41 1.006 1.006 0 0 1 1.416.02l1.667 1.709a.995.995 0 0 1-.718 1.691zm-1.604 5.366a.999.999 0 0 1-1 .985h-.012l-2.391-.028a.999.999 0 0 1-.989-1.009.999.999 0 0 1 1-.985h.012l2.391.028a1 1 0 0 1 .989 1.009zM5.755 45.204h2.002v5.065h7.017v1.994H5.755v-7.059zm2.001-26.743H5.755v-7.074h9.019v1.995H7.756v5.079zm-.145 3.717c.604.991 5.9 9.782 5.9 13.131 0 3.712-3.03 6.731-6.756 6.731S0 39.02 0 35.309C0 31.96 5.296 23.17 5.9 22.178c.363-.595 1.348-.595 1.711 0zm-.855 17.867c2.621 0 4.754-2.124 4.754-4.736 0-1.843-2.641-7.009-4.754-10.654-2.113 3.647-4.754 8.812-4.754 10.654 0 2.612 2.132 4.736 4.754 4.736zm18.34-18.788a.996.996 0 0 1-.699-1.711l1.715-1.664a1.003 1.003 0 0 1 1.415.019.994.994 0 0 1-.019 1.409l-1.715 1.664a.988.988 0 0 1-.697.283zm7.789 3.528h-.014a1 1 0 0 1-.988-1.01l.032-2.383c.007-.552.477-1.02 1.014-.984a1 1 0 0 1 .988 1.01l-.032 2.383a.998.998 0 0 1-1 .984zm7.609-3.652l-1.668-1.709a.993.993 0 0 1 .02-1.41 1.004 1.004 0 0 1 1.415.02l1.669 1.709a.994.994 0 0 1-.02 1.409 1.002 1.002 0 0 1-1.416-.019zM29.962 46.119a17.435 17.435 0 0 1 2.094 1.742c.152-.055.308-.093.465-.129.217-.763.33-1.615.335-2.596.005-.909-.342-1.911-.687-2.431-.335-.506-.4-1.05-.18-1.495.194-.394.58-.648 1.034-.681.531-.062 3.815.711 5.262 1.716 1.705 1.189 1.837 3.623.318 5.791a17.279 17.279 0 0 1-1.798 2.141c.027.084.05.168.071.253.755.208 1.601.315 2.57.322.899-.006 1.918-.339 2.441-.683.5-.331 1.044-.397 1.493-.183.396.191.654.574.692 1.028.048.554-.724 3.824-1.724 5.248-.622.887-1.597 1.375-2.747 1.375h-.021c-.99-.005-2.071-.381-3.044-1.058a17.09 17.09 0 0 1-2.093-1.737l-.08.022c-.224.772-.342 1.637-.347 2.633-.007.909.34 1.912.686 2.432.454.688.309 1.228.183 1.489a1.24 1.24 0 0 1-1.025.688c-.016.002-.035.002-.055.002-.696 0-3.831-.756-5.216-1.719-1.706-1.188-1.839-3.623-.319-5.791a17.09 17.09 0 0 1 1.63-1.967c-.036-.098-.056-.199-.084-.3-.804-.246-1.708-.377-2.762-.384-.895.031-1.918.339-2.44.684-.356.234-.673.31-.933.31a1.237 1.237 0 0 1-1.253-1.148c-.046-.585.711-3.808 1.724-5.253 1.189-1.701 3.633-1.833 5.81-.321zm7.72 8.725c.643.446 1.32.695 1.907.698.462-.021.871-.174 1.117-.523.421-.601.812-1.756 1.067-2.693-.752.271-1.556.443-2.34.42a12.346 12.346 0 0 1-2.654-.291 3.568 3.568 0 0 1-.447.914c-.057.081-.129.147-.191.223.421.388.942.835 1.541 1.252zm-2.254-6.557c.084.058.15.131.227.195.401-.427.866-.963 1.306-1.59.734-1.046 1.031-2.417.176-3.013-.605-.42-1.764-.809-2.702-1.063.272.748.426 1.574.422 2.332a12.03 12.03 0 0 1-.306 2.706c.304.108.601.241.877.433zm-.738 3.94a1.653 1.653 0 0 0-.408-2.305 1.67 1.67 0 0 0-2.315.408 1.656 1.656 0 0 0 .411 2.305c.364.253.805.348 1.242.274a1.65 1.65 0 0 0 1.07-.682zm-4.957 6.425c.601.418 1.76.806 2.701 1.062a6.89 6.89 0 0 1-.421-2.332 12.15 12.15 0 0 1 .285-2.606 3.652 3.652 0 0 1-1.066-.508c-.045-.032-.079-.073-.123-.106-.385.418-.806.913-1.201 1.476-.734 1.047-1.03 2.419-.175 3.014zm-2.669-8.801c1.027.006 1.946.117 2.792.323a3.6 3.6 0 0 1 .47-.987v-.001c.03-.043.068-.074.099-.115a14.713 14.713 0 0 0-1.612-1.317c-1.05-.73-2.428-1.028-3.024-.174-.419.597-.809 1.753-1.066 2.69a7.32 7.32 0 0 1 2.341-.419zm31.739-4.647h2.002v7.059h-8.968v-1.994h6.967v-5.065z"/></svg>