<svg xmlns="http://www.w3.org/2000/svg" width="54" height="48"><defs><linearGradient id="a" gradientUnits="userSpaceOnUse" x1="18" y1="113" x2="131"><stop offset="0" stop-color="#00adef"/><stop offset="1" stop-color="#31ecbe"/></linearGradient></defs><path fill="url(#a)" d="M44.753 48.883v-24.19l.279-.293c2.551-2.67 5.663-4.928 7.883-11.915l1.956-6.16v42.558H44.753zm8.114-30.852c-1.991 4.078-4.274 5.547-6.111 7.474v21.361h6.111V18.031zM33.133 33.744l.433-.301c3.479-2.415 5.44-3.759 7.802-5.966l1.683-1.573v22.878h-9.918V33.744zm2.003 13.022h5.912v-16.3c-1.994 1.723-3.309 2.51-5.912 4.335v11.965zm-6.355-17.949c-.621.497-1.241.728-1.823.923-2.426.495-4.89-.67-6.839-3.175-.914-1.204-1.748-2.542-2.542-4.084a5.15 5.15 0 0 1-.833-.007c-.775 1.112-1.476 2.584-2.135 4.48-.478 1.44-.522 3.353-.102 4.536.295 1.034.004 1.747-.44 2.061a1.212 1.212 0 0 1-.869.361l-.548-.015c-.772-.155-5.481-3.008-7.248-5.206a4.822 4.822 0 0 1-.977-3.635c.236-1.826 1.41-3.638 3.307-5.102 1.428-1.078 2.888-1.969 3.857-2.468a7.091 7.091 0 0 1 .008-1.129c-1.186-.864-2.676-1.583-4.647-2.244-1.285-.43-3.246-.47-4.564-.09-.949.27-1.636.011-1.94-.293-.426-.43-.572-1.049-.365-1.528.375-1.051 2.939-5.451 5.145-7.166a4.742 4.742 0 0 1 3.6-.974c1.815.238 3.615 1.42 5.069 3.329a32.131 32.131 0 0 1 2.621 4.057 4.557 4.557 0 0 1 1.362-.016c.039.002.077.007.113.011.766-1.109 1.459-2.569 2.112-4.446.477-1.441.521-3.353.101-4.536-.297-1.042 0-1.758.449-2.068.42-.373.989-.494 1.438-.302 1.068.378 5.432 3.071 7.118 5.168a4.818 4.818 0 0 1 .977 3.635c-.235 1.827-1.41 3.638-3.308 5.102-1.413 1.156-2.913 2.015-4.149 2.654.025.35.003.687-.065 1.056v.019c1.183.837 2.586 1.495 4.274 2.004 1.306.439 3.269.477 4.586.098.951-.274 1.638-.011 1.941.295.408.411.559 1 .386 1.471-.328 1.357-2.995 5.694-5.07 7.224zM9.16 21.749c-1.396 1.082-2.277 2.392-2.426 3.606a2.597 2.597 0 0 0 .543 1.989c1.072 1.349 3.571 2.984 5.011 3.829-.245-1.697-.1-3.489.403-4.923.497-1.67 1.143-3.112 1.958-4.36a5.158 5.158 0 0 1-1.751-1.488 6.355 6.355 0 0 1-.506-.735c-.914.501-2.098 1.169-3.232 2.082zm3.055-13.118l-.013-.016C10.479 6.36 8.19 5.592 6.632 6.747c-1.354 1.09-2.975 3.563-3.843 5.021a12.158 12.158 0 0 1 1.721-.122c1.08 0 2.15.142 3.09.42 1.788.599 3.259 1.271 4.676 2.142a5.345 5.345 0 0 1 1.473-1.719c.231-.174.457-.316.679-.442-.442-.909-1.187-2.145-2.213-3.416zm5.423 4.914h-.001a4.64 4.64 0 0 0-.455-.022c-.648 0-1.41.136-1.987.644a3.437 3.437 0 0 0-.686 4.735 3.267 3.267 0 0 0 2.186 1.254 3.315 3.315 0 0 0 2.453-.703c.728-.57 1.149-1.288 1.324-2.26.057-.655.003-1.667-.627-2.391-.536-.716-1.367-1.181-2.207-1.257zm7.938-1.464c1.371-1.061 2.251-2.372 2.401-3.585.091-.744-.091-1.415-.543-1.991-1.071-1.347-3.571-2.983-5.012-3.828.246 1.696.102 3.488-.401 4.922-.493 1.656-1.154 3.138-2.004 4.486.583.345 1.08.793 1.469 1.324.289.298.495.57.661.854 1.047-.592 2.273-1.328 3.429-2.182zm.833 9.703c-1.708-.517-3.158-1.177-4.407-2.009a4.887 4.887 0 0 1-1.355 1.495 5.591 5.591 0 0 1-.779.498 22.836 22.836 0 0 0 2.131 3.253c1.075 1.406 2.377 2.291 3.583 2.442a2.57 2.57 0 0 0 1.976-.546c1.216-.979 2.851-3.357 3.77-4.846-1.617.253-3.43.153-4.919-.287zM9.995 44.509v4.273H1.879l-.165-2.002c2.697-.453 4.014-1 6.994-1.889l1.287-.382zm9.45-3.42l1.369-.542v8.235h-9.118v-4.45l.677-.234c3.537-1.221 3.837-1.726 7.072-3.009zm-5.746 5.677h5.111v-3.259c-2.167.854-2.53 1.368-5.111 2.265v.994zm16.336-10.858l1.496-.853v13.727h-9.117v-9.418l.595-.266c2.636-1.179 3.939-1.429 7.026-3.19zm-5.617 10.858h5.11v-8.257c-2.182 1.222-3.09 1.232-5.11 2.162v6.095z"/></svg>