<svg xmlns="http://www.w3.org/2000/svg" width="60.992" height="62.005" viewBox="0 0 60.992 62.005"><linearGradient id="a" gradientUnits="userSpaceOnUse" y1="31.003" x2="60.992" y2="31.003"><stop offset="0" stop-color="#008abf"/><stop offset=".374" stop-color="#15a5af"/><stop offset=".748" stop-color="#24b9a3"/><stop offset="1" stop-color="#2ac09f"/></linearGradient><path fill-rule="evenodd" clip-rule="evenodd" fill="url(#a)" d="M58.997 6.541l-.333-2.876-13.377 13.289-7.789-7.482-7.544 7.494-7.66-7.61-7.668 7.617L0 2.14 1.435.744 14.64 14.137 26.555 2.301l-2.789-.318L23.995 0l5.699.651.656 5.663-1.996.228-.333-2.876-4.308 4.279 6.24 6.2L41.876 2.301l-2.789-.318L39.316 0l5.698.651.656 5.663-1.994.228-.333-2.876-4.425 4.394 6.345 6.096L57.198 2.301l-2.79-.318.23-1.983 5.698.651.656 5.663-1.995.227zm-1.53 55.464H4.249V20.276h53.217v41.729zm-2.009-39.733H6.257V60.01h49.201V22.272zm-29.396 2.814c8.861 0 16.069 7.164 16.069 15.968 0 8.803-7.208 15.964-16.069 15.964-8.861 0-16.069-7.161-16.069-15.964 0-8.805 7.209-15.968 16.069-15.968zm0 29.936c7.753 0 14.061-6.266 14.061-13.968 0-7.705-6.308-13.972-14.061-13.972S12.001 33.35 12.001 41.054c.001 7.702 6.308 13.968 14.061 13.968zm-4.243-20.175a21.757 21.757 0 0 1 2.699 2.25c.265-.108.542-.191.829-.245.302-1.004.462-2.128.469-3.426.007-1.06-.362-2.36-.896-3.161-.503-.754-.35-1.335-.213-1.614a1.3 1.3 0 0 1 1.084-.719c.59-.038 4.592.83 6.415 2.096 2.008 1.394 2.15 4.282.338 6.866a21.239 21.239 0 0 1-2.317 2.726c.068.189.123.384.164.584.997.289 2.113.443 3.401.451h.034c1.179 0 2.472-.446 3.149-.89.756-.498 1.341-.346 1.622-.212.414.199.685.6.726 1.074.049.572-.833 4.564-2.105 6.376-.749 1.062-1.921 1.6-3.243 1.6-1.168 0-2.454-.419-3.671-1.266a21.45 21.45 0 0 1-2.677-2.231 4.46 4.46 0 0 1-.374.112c-.309 1.01-.473 2.144-.481 3.458-.008 1.058.361 2.359.898 3.164.501.752.349 1.332.213 1.611-.2.412-.605.682-1.083.722-.015.002-.033.002-.053.002-.735 0-4.591-.864-6.365-2.098-2.01-1.397-2.151-4.284-.335-6.865a21.222 21.222 0 0 1 2.119-2.53 4.253 4.253 0 0 1-.191-.625c-1.062-.341-2.253-.521-3.642-.528-1.184.022-2.503.443-3.182.89-.401.262-.752.345-1.036.345a1.298 1.298 0 0 1-1.316-1.205c-.048-.578.837-4.57 2.108-6.377 1.408-1.995 4.314-2.137 6.912-.335zm9.636 10.857c1.367.95 3.238 1.405 4.116.156.628-.892 1.175-2.663 1.484-3.892-1.015.428-2.192.682-3.23.682h-.046c-1.279-.008-2.422-.145-3.472-.402a4.28 4.28 0 0 1-.598 1.282 4.284 4.284 0 0 1-.364.446 18.773 18.773 0 0 0 2.11 1.728zm-2.369-7.782a18.98 18.98 0 0 0 1.811-2.171c.953-1.359 1.411-3.219.158-4.089-.9-.625-2.683-1.169-3.92-1.476.437 1.021.695 2.209.688 3.252-.007 1.301-.15 2.463-.422 3.529.435.13.857.311 1.241.578.162.112.301.246.444.377zm-1.023 4.464a2.277 2.277 0 0 0 .383-1.722 2.284 2.284 0 0 0-.954-1.485 2.313 2.313 0 0 0-1.734-.38 2.3 2.3 0 0 0-.922 4.156 2.329 2.329 0 0 0 3.227-.569zm-6.371 3.971c-.955 1.357-1.413 3.216-.159 4.087.899.625 2.683 1.169 3.92 1.476-.439-1.024-.697-2.214-.689-3.257.008-1.262.146-2.39.401-3.427a4.28 4.28 0 0 1-1.479-.647c-.116-.08-.209-.18-.314-.269a18.716 18.716 0 0 0-1.68 2.037zm-5.138-10.03c-.627.891-1.175 2.663-1.484 3.891 1.026-.433 2.233-.703 3.275-.684 1.347.008 2.551.155 3.651.442a4.26 4.26 0 0 1 .622-1.371c.078-.11.175-.201.261-.304a19.143 19.143 0 0 0-2.209-1.819c-1.367-.947-3.238-1.401-4.116-.155zm33.884 20.526H48.43V25.93h2.008v30.923z"/></svg>