<svg id="Layer_1" data-name="Layer 1" xmlns="http://www.w3.org/2000/svg" viewBox="0 0 88 88"><defs><style>.cls-1{fill:url(#Безымянный_градиент)}.cls-2{fill:none}.cls-3{fill:#fff}</style><linearGradient id="Безымянный_градиент" x1="7.47" y1="94.28" x2="80.53" y2=".78" gradientTransform="matrix(1 0 0 -1 0 91.53)" gradientUnits="userSpaceOnUse"><stop offset="0" stop-color="#00adef"/><stop offset="1" stop-color="#37f4c5"/></linearGradient></defs><title>Монтажная область 6sky_air</title><path class="cls-1" d="M88 82a6 6 0 0 1-6 6H6a6 6 0 0 1-6-6V6a6 6 0 0 1 6-6h76a6 6 0 0 1 6 6z"/><path class="cls-2" d="M.2-.3h88v87.8H.2z"/><path class="cls-3" d="M59.5 17.4c-1.1-2.1-2.3-3-7.7-3l-1.3-4.1a55.83 55.83 0 0 0 6.1-1.8c1.2-.5 1.1-1.8-.7-1.8s-13.5.2-14.5.2-2.2 1.3 0 1.8 5.9 1.6 5.9 1.6-.7 2.7-1.4 4.5c-2.5 0-5.4-.4-6.3 2.7h-6.8c-3.2 0-7.2 3.2-7.2 7.2V34h8.6v-4.3c0-3.2 1.8-3.4 5.6-3.4a3.33 3.33 0 0 0 3.4 2.5h13.1c2 0 2.3-1.3 3-2.8h14.9v-8.5c0-.1-10.4-.1-14.7-.1zM45.5 51.9c.2 0 .3-.1.5-.2a.78.78 0 0 0 .1-1.1l-11.7-15a.78.78 0 0 0-1.2 1l11.7 15.1a1.42 1.42 0 0 0 .6.2zM15.7 51.9a.71.71 0 0 0 .6-.3L28 36.5a.78.78 0 0 0-1.2-1L15.1 50.7a.79.79 0 0 0 .1 1.1 1.09 1.09 0 0 0 .5.1zM31.4 51.2V36.1a.8.8 0 0 0-1.6 0v15.1a.79.79 0 0 0 .8.8.86.86 0 0 0 .8-.8zM14.1 79h39.5V55.1H14.1zm32.3-22.3H52v5.6h-5.6zm0 7.5H52v5.6h-5.6zm0 7.4H52v5.6h-5.6zm-7.6-14.9h5.6v5.6h-5.6zm0 7.5h5.6v5.6h-5.6zm0 7.4h5.6v5.6h-5.6zm-7.7-14.9h5.6v5.6h-5.6zm0 7.5h5.6v5.6h-5.6zm0 7.4h5.6v5.6h-5.6zm-7.6-14.9h5.6v5.6h-5.6zm0 7.5h5.6v5.6h-5.6zm0 7.4h5.6v5.6h-5.6zm-7.6-14.9h5.6v5.6h-5.6zm0 7.5h5.6v5.6h-5.6zm0 7.4h5.6v5.6h-5.6z"/></svg>