<svg height="44" overflow="visible" viewBox="0 0 16.841 11" width="68" xmlns="http://www.w3.org/2000/svg" xmlns:xlink="http://www.w3.org/1999/xlink"><defs><path id="a" d="M0 0h16.841v11H0z"/><clipPath id="b"><use xlink:href="#a"/></clipPath></defs><path clip-path="url(#b)" d="M8.422 1.119h2.799a.56.56 0 1 0 0-1.119H8.422a.56.56 0 1 0 0 1.119M16.282.031h-2.799a.56.56 0 1 0 0 1.119h2.799a.56.56 0 1 0 0-1.119M12.268 8.242H6.829L4.096 1.178h2.235a.585.585 0 0 0 0-1.168H.584a.584.584 0 0 0 0 1.168h2.311l3.028 7.826a.558.558 0 0 0 .522.357h5.823V11l3.96-2.235-3.96-2.221zm1.12.214l.556.313-.556.313z" fill="#fff"/></svg>