<svg xmlns="http://www.w3.org/2000/svg" width="57" height="43"><defs><linearGradient id="a" x1="0%" y1="0%" y2="100%"><stop offset="0%" stop-color="#fd6c5e"/><stop offset="100%" stop-color="#db0223"/></linearGradient></defs><path fill="url(#a)" d="M54.523 42.703H3.228a2.34 2.34 0 0 1-2.343-2.329V3.022A2.34 2.34 0 0 1 3.228.691h51.295a2.34 2.34 0 0 1 2.343 2.331V40.374a2.339 2.339 0 0 1-2.343 2.329zm.344-37.039V3.022a.343.343 0 0 0-.344-.341H3.228a.343.343 0 0 0-.344.341V8.645h51.983V5.664zm0 4.972H2.884v22.123h51.983V10.636zm0 26.848v-2.735H2.884v5.625c0 .187.155.34.344.34h51.295c.19 0 .344-.153.344-.34v-2.89zM6.593 20.867c.18.189.29.448.29.706 0 .26-.11.517-.29.707-.19.177-.45.287-.71.287-.26 0-.519-.11-.709-.287-.18-.19-.29-.447-.29-.707 0-.258.11-.517.29-.706.369-.367 1.039-.367 1.419 0zm4.289-6.254a1 1 0 0 1 .999.994 1 1 0 0 1-1.999 0 1 1 0 0 1 1-.994zm0 11.933c.549 0 .999.446.999.994a1 1 0 0 1-1.999 0 1 1 0 0 1 1-.994zm4.708-5.679c.18.189.29.448.29.706 0 .26-.11.517-.29.707-.19.177-.45.287-.71.287-.26 0-.519-.11-.709-.287-.18-.19-.29-.447-.29-.707 0-.258.11-.517.29-.706.369-.367 1.039-.367 1.419 0zm4.289-6.254a1 1 0 0 1 .999.994 1 1 0 0 1-1.999 0 1 1 0 0 1 1-.994zm0 11.933c.549 0 .999.446.999.994a1 1 0 0 1-1.999 0 1 1 0 0 1 1-.994zm3.998-5.968c.55 0 1 .449 1 .995a1 1 0 0 1-1.999 0 1 1 0 0 1 .999-.995zm4.999-5.965a1 1 0 0 1 .999.994 1 1 0 0 1-1.999 0 1 1 0 0 1 1-.994zm0 11.933c.549 0 .999.446.999.994a1 1 0 0 1-1.999 0 1 1 0 0 1 1-.994zm3.998-5.968c.55 0 1 .449 1 .995a1 1 0 0 1-1.999 0 1 1 0 0 1 .999-.995zm4.999-5.965a1 1 0 0 1 .999.994 1 1 0 0 1-1.999 0 1 1 0 0 1 1-.994zm0 11.933c.549 0 .999.446.999.994a1 1 0 0 1-1.999 0 1 1 0 0 1 1-.994zm3.998-5.968c.55 0 1 .449 1 .995a1 1 0 0 1-1.999 0 1 1 0 0 1 .999-.995zm4.999-5.965a1 1 0 0 1 .999.994 1 1 0 0 1-1.999 0 1 1 0 0 1 1-.994zm0 11.933c.549 0 .999.446.999.994a1 1 0 0 1-1.999 0 1 1 0 0 1 1-.994zm3.998-5.968c.55 0 1 .449 1 .995a1 1 0 0 1-1.999 0 1 1 0 0 1 .999-.995z"/></svg>