<svg xmlns="http://www.w3.org/2000/svg" width="38" height="72"><defs><linearGradient id="a" gradientUnits="userSpaceOnUse" x1="18" y1="113" x2="131"><stop offset="0" stop-color="#00adef"/><stop offset="1" stop-color="#31ecbe"/></linearGradient></defs><path fill="url(#a)" d="M36.892 63.409c-1.81 1.816-5.998 2.491-15.453 2.491-9.915 0-9.915 4.589-9.915 6.097H9.522c0-5.374 4.01-8.098 11.917-8.098 8.509 0 12.706-.569 14.035-1.903.366-.366.521-.812.519-1.489-.004-1.261-.371-1.765-.648-2.035-1.408-1.376-5.686-1.29-12.774-1.151l-.506.009c-1.464.029-2.915.076-4.329.122-7.678.247-13.744.442-16.411-2.14C.446 54.461 0 53.362 0 52.044c0-1.604.502-2.909 1.492-3.879 2.435-2.388 7.643-2.731 17.018-2.546 1.649.047 2.85-.416 3.651-1.375 1.204-1.441 1.285-3.828 1.154-5.327-.454.003-.827-.002-1.218-.01l-.102-.002c-1.322-.036-2.492-.065-3.716.29a4.774 4.774 0 0 1-1.324.208c-2.757 0-2.757-2.958-2.757-4.547 0-4.582.618-6.478 1.068-7.862.237-.731.394-1.213.394-1.902 0-.589.031-1.164.064-1.739.045-.776.085-1.481.041-2.16l-.028-.457c-.069-1.1-.111-1.906 0-2.502h-1.563V-.001h17.419v18.235h-1.33c.236.618.324 1.439.353 2.516l.015.509c.016.533.033 1.135.062 1.82.048 1.238.151 2.073.558 2.938.147.318.31.601.476.884.335.582.713 1.241.94 2.113.018.072 1.729 7.288-.059 9.602-.406.525-.98.814-1.614.814a2.43 2.43 0 0 1-.416-.041c-2.733-.516-3.902-.553-5.259-.519.133 1.689.066 4.636-1.622 6.657-1.198 1.434-2.958 2.146-5.227 2.093-8.419-.165-13.669.103-15.577 1.973-.608.596-.891 1.375-.891 2.451 0 .776.227 1.358.715 1.831 2.058 1.991 8.321 1.788 14.954 1.576 1.422-.046 2.882-.093 4.355-.122l.506-.01c8.123-.16 12.204-.242 14.212 1.721.836.818 1.246 1.95 1.251 3.461.004 1.209-.357 2.159-1.103 2.908zM29.591 2H16.176v14.233h13.415V2zm-5.439 34.719l.51-.015c.486-.014.881-.026 1.278-.026 1.227 0 2.545.095 4.976.556.643-1.038.25-5.319-.362-7.672-.149-.585-.409-1.038-.711-1.562-.223-.39-.405-.707-.569-1.061-.614-1.308-.71-2.531-.76-3.773-.028-.724-.048-1.357-.064-1.912l-.021-.77c-.017-.704-.042-1.699-.099-2.187-2.863-.018-9.202-.025-10.339.099-.06.19-.163.799-.049 2.666.05.828.002 1.671-.04 2.416a26.224 26.224 0 0 0-.063 1.614c0 1.046-.243 1.788-.5 2.573-.406 1.246-.962 2.95-.962 7.191 0 1.373.118 2.158.35 2.333.179.134.757-.033.948-.087 1.536-.445 2.869-.412 4.283-.378l.327.005c.585.006 1.202.013 1.867-.01zM22.705 4.001a4.59 4.59 0 0 1 4.581 4.587c0 2.534-2.055 4.595-4.581 4.595a4.596 4.596 0 0 1-4.588-4.595 4.593 4.593 0 0 1 4.588-4.587zm0 6.633a2.044 2.044 0 0 0 2.038-2.046 2.04 2.04 0 0 0-2.038-2.037 2.043 2.043 0 0 0-2.045 2.037c0 1.128.917 2.046 2.045 2.046z"/></svg>