<svg xmlns="http://www.w3.org/2000/svg" preserveAspectRatio="xMidYMid" width="84" height="80" viewBox="0 0 84 80"><defs><style>.cls-1{fill:#fff;fill-rule:evenodd}</style></defs><path d="M83.13 36.365a12.742 12.742 0 0 0-13.198 3.4l-1.245 1.325-1.455-1.097a12.65 12.65 0 0 0-7.669-2.567c-6.976 0-12.652 5.597-12.652 12.476 0 .614.064 1.214.151 1.806l.274 1.845-1.828.409a12.557 12.557 0 0 0-8.438 6.477l-.963 1.852-1.827-1.028a12.82 12.82 0 0 0-6.275-1.652c-6.976 0-12.655 5.599-12.655 12.478 0 2.329.67 4.61 1.938 6.603.257.41.325.871.27 1.316h-4.135c-1.359-2.434-2.108-5.141-2.108-7.919 0-9.093 7.487-16.488 16.69-16.488 2.224 0 4.436.445 6.485 1.3a16.602 16.602 0 0 1 8.398-6.37 16.422 16.422 0 0 1-.011-.629c0-9.093 7.483-16.49 16.686-16.49 3.096 0 6.056.827 8.668 2.407 4.241-3.695 10.246-5.006 15.763-3.369v3.99a2 2 0 0 1-.864-.075zm-39.282-8.947c0 4.101-3.373 7.438-7.523 7.438-4.146 0-7.515-3.337-7.515-7.438 0-1.886.733-3.592 1.906-4.904h-4.055V-.004h50.571v22.518H41.937c1.173 1.312 1.911 3.018 1.911 4.904zm-7.523 3.423c1.922 0 3.488-1.536 3.488-3.423 0-1.888-1.566-3.424-3.488-3.424-1.919 0-3.48 1.536-3.48 3.424 0 1.887 1.561 3.423 3.48 3.423zM74.22 2.994H29.674v1.671H74.22V2.994zm0 4.669H29.674v2.069H74.22V7.663zm0 5.067H29.674v2.068H74.22V12.73zm0 6.786v-1.72H29.674v1.72H74.22zm-35.803 26.98c0 4.102-3.372 7.438-7.522 7.438-4.146 0-7.519-3.336-7.519-7.438 0-4.1 3.373-7.436 7.519-7.436 4.15 0 7.522 3.336 7.522 7.436zm-11.006 0c0 1.887 1.566 3.424 3.484 3.424 1.922 0 3.488-1.537 3.488-3.424s-1.566-3.422-3.488-3.422c-1.918 0-3.484 1.535-3.484 3.422zm-15.189-9.091c-5.493 0-9.96-4.419-9.96-9.85 0-5.434 4.467-9.855 9.96-9.855 5.498 0 9.969 4.421 9.969 9.855 0 5.431-4.471 9.85-9.969 9.85zm0-15.69c-3.266 0-5.925 2.62-5.925 5.84 0 3.217 2.659 5.835 5.925 5.835 3.27 0 5.934-2.618 5.934-5.835 0-3.22-2.664-5.84-5.934-5.84zm2.819 29.369c0 4.103-3.373 7.436-7.519 7.436-4.15 0-7.523-3.333-7.523-7.436 0-4.101 3.373-7.438 7.523-7.438 4.146 0 7.519 3.337 7.519 7.438zm-11.007 0c0 1.887 1.565 3.424 3.488 3.424 1.918 0 3.484-1.537 3.484-3.424S9.44 47.66 7.522 47.66c-1.923 0-3.488 1.537-3.488 3.424z" class="cls-1"/></svg>