<svg xmlns="http://www.w3.org/2000/svg" width="71" height="75"><defs><linearGradient id="a" gradientUnits="userSpaceOnUse" x1="18" y1="113" x2="131"><stop offset="0" stop-color="#00adef"/><stop offset="1" stop-color="#31ecbe"/></linearGradient></defs><path fill="url(#a)" d="M70.701 37.214L60.662 47.282a1.025 1.025 0 0 1-1.452.001 1.04 1.04 0 0 1-.004-1.456l8.29-8.312H42.635a1.029 1.029 0 0 1-1.024-1.032c0-.567.459-1.028 1.024-1.028l24.858.001-8.285-8.312a1.035 1.035 0 0 1-.001-1.456c.191-.189.449-.294.727-.294.276 0 .541.107.727.294l10.038 10.068c.094.097.169.208.22.332.028.066.037.134.045.194l.006.049a.349.349 0 0 0 .01.038c.008.031.019.068.019.114 0 .281-.106.539-.298.731zM23.265 75.742a1.006 1.006 0 0 1-1.044.084 1.002 1.002 0 0 1-.547-.895V12.416c0-.32.152-.621.41-.81L37.634.199a1.002 1.002 0 0 1 1.592.811v62.515c0 .32-.152.621-.41.811L23.265 75.742zm3.507-65.087l-3.097 2.271v6.433l3.097-2.301v-6.403zm0 8.901l-3.097 2.302v6.287l3.097-2.28v-6.309zm0 8.8l-3.097 2.281v6.41l3.097-2.282v-6.409zm0 8.901l-3.08 2.27c-.005.004-.011.005-.017.009v6.307l3.097-2.239v-6.347zm0 8.823l-3.097 2.239v6.878l3.097-2.342V46.08zm0 9.291l-3.097 2.343v6.26l3.097-2.295v-6.308zm0 15.294v-6.49l-3.097 2.295v6.483l3.1-2.273-.003-.015zm5.226-63.843l-3.224 2.365v6.382l3.224-2.397v-6.35zm0 8.849l-3.224 2.397v6.322l3.224-2.374v-6.345zm0 8.836l-3.224 2.375v6.408l3.224-2.376v-6.407zm0 8.899l-3.224 2.376v6.374l3.224-2.332v-6.418zm0 8.894l-3.224 2.332v6.708l3.224-2.44v-6.6zm0 9.117l-3.224 2.439v6.338l3.224-2.391v-6.386zm0 8.883l-3.224 2.39v6.524l3.224-2.365V60.3zm5.226-57.312L34 5.353v6.33l3.224-2.397V2.988zm0 8.797L34 14.182v6.359l3.224-2.375v-6.381zm0 8.872L34 23.033v6.405l3.224-2.377v-6.404zm0 8.896L34 31.93v6.447l3.224-2.332v-6.492zm0 8.968L34 40.853v6.532l3.224-2.439v-6.425zm0 8.941L34 49.902v6.417l3.208-2.379.016-.007v-6.471zm0 8.962L34 58.815v6.565l3.224-2.365v-6.591zm-23.356-2.968a5.082 5.082 0 0 1-2.206.512 3.665 3.665 0 0 1-1.462-.279 3.15 3.15 0 0 1-1.69-1.739 3.155 3.155 0 0 1 .033-2.43c.58-1.349 1.941-2.174 3.168-1.901.325.074.633.111.915.111 1.623 0 2.012-1.256 2.027-1.309.412-.986 1.514-1.416 2.426-1.022a1.84 1.84 0 0 1 .981 2.342c-.085.551-.746 3.982-4.192 5.715zm.627-3.252c.037.247.031.502-.074.747a1.38 1.38 0 0 1-1.823.724c-.122-.052-.223-.137-.323-.22-.019.086-.018.172-.054.255a1.385 1.385 0 0 1-1.821.729 1.406 1.406 0 0 1-.729-1.831c.291-.684 1.134-1.027 1.822-.732.126.055.224.143.325.227.018-.085.018-.171.052-.253.3-.689 1.139-1.023 1.823-.732.107.046.186.123.274.191a1.385 1.385 0 0 1 .072-.745c.032-.075.091-.127.134-.193-.415.214-.92.363-1.547.363-.355 0-.737-.045-1.135-.134a1.226 1.226 0 0 0-.277-.032c-.69 0-1.41.556-1.752 1.35a2.159 2.159 0 0 0-.023 1.659 2.16 2.16 0 0 0 1.156 1.191c.741.318 1.976.215 2.825-.21a6.552 6.552 0 0 0 2.497-2.207 1.36 1.36 0 0 1-.602.153c-.19 0-.375-.039-.55-.115-.103-.044-.182-.119-.27-.185zm-1.198-.164a.393.393 0 0 0-.507.207.392.392 0 0 0-.001.299c.038.094.11.166.202.205a.379.379 0 0 0 .51-.196.392.392 0 0 0-.204-.515zm-2.199.758a.387.387 0 0 0-.505.203.39.39 0 0 0 .203.515.397.397 0 0 0 .505-.203.393.393 0 0 0-.203-.515zm4.574-1.834a.378.378 0 0 0-.356-.241.388.388 0 1 0-.155.744.383.383 0 0 0 .508-.201.386.386 0 0 0 .003-.302zm1.01-2.644a.845.845 0 0 0-1.087.434c-.074.276-.286.675-.643 1.045.296-.084.614-.094.909.032.339.144.601.413.74.757.045.112.05.231.066.347a6.978 6.978 0 0 0 .409-1.389.491.491 0 0 1 .038-.136.835.835 0 0 0-.432-1.09zM15.53 25.483a1.44 1.44 0 0 1 0-2.879 1.44 1.44 0 1 1 0 2.879zm0-1.875a.434.434 0 1 0 0 .869.434.434 0 0 0 0-.869zm0-7.076a1.437 1.437 0 0 1 0-2.874 1.437 1.437 0 1 1 0 2.874zm0-1.87a.433.433 0 1 0 0 .866.433.433 0 1 0 0-.866zm-.548 14.633c.358.25.593.649.682 1.151.15.855-.161 1.98-.787 3.033l1.001.704a.504.504 0 0 1-.287.914c-.1 0-.2-.03-.287-.091l-1.005-.706c-.373.457-.775.862-1.197 1.159l.646 1.137a.501.501 0 1 1-.869.496l-.656-1.153c-.3.115-.595.183-.873.183-.356 0-.672-.096-.94-.284-.482-.339-.702-.943-.696-1.664L8.4 33.947a.502.502 0 0 1 .17-.99l1.281.222c.13-.495.372-1.013.676-1.526l-1.003-.701a.504.504 0 0 1-.124-.7.5.5 0 0 1 .697-.124l.995.696a5.866 5.866 0 0 1 1.327-1.198l-.63-1.104a.5.5 0 1 1 .868-.499l.662 1.159c.628-.209 1.22-.197 1.663.113zm-1.451.834a.489.489 0 0 1-.408.22l-.005-.002c-.487.283-1.026.743-1.52 1.449-.452.648-.72 1.302-.835 1.86a.509.509 0 0 1 .006.191c-.007.036-.038.055-.051.088-.059.514.03.915.267 1.081.217.153.605.126 1.06-.085a.472.472 0 0 1 .309-.169c.465-.286.973-.747 1.445-1.423.659-.942 1.004-2.009.879-2.718-.042-.238-.132-.407-.269-.502a.62.62 0 0 0-.361-.101c-.147 0-.323.038-.517.111zm-1.429 4.267a.957.957 0 0 1-.557-.171c-.597-.42-.561-1.431.081-2.351.623-.894 1.59-1.285 2.172-.885.598.429.559 1.439-.084 2.356-.452.648-1.07 1.051-1.612 1.051zm1.103-2.602c-.114.031-.459.225-.759.656-.306.438-.351.815-.321.94.156-.018.488-.217.77-.622.337-.481.358-.891.31-.974zm-4.446-3.878c-1.478 0-2.766-.93-2.996-2.163-.374-2.02-1.619-2.238-2.137-2.238a.984.984 0 0 0-.126.006c-1.067-.015-1.896-.821-1.896-1.836 0-.989.784-1.798 1.761-1.835a7.706 7.706 0 0 1 1.828-.207c1.329 0 3.287.315 5.062 1.815.826.698 1.66 1.987 1.66 3.291a3.165 3.165 0 0 1-3.156 3.167zm-5.187-7.083a.494.494 0 0 1-.138.019.832.832 0 0 0-.829.833c0 .455.362.826.81.836.018-.003.099-.01.211-.01.208 0 .588.035 1.012.188a1.367 1.367 0 0 1-.322-.858c0-.515.295-.947.713-1.186-.861.02-1.451.177-1.457.178zm2.131.626a.384.384 0 0 0-.386.382c0 .218.17.388.386.388.217 0 .386-.17.386-.388a.384.384 0 0 0-.386-.382zm3.907.767a6.57 6.57 0 0 0-3.046-1.445c.314.254.526.626.526 1.06 0 .118-.039.223-.066.331.211-.131.447-.226.713-.226.765 0 1.387.622 1.387 1.387 0 .139-.041.265-.078.391.086-.017.165-.052.256-.052a1.39 1.39 0 0 1 0 2.779 1.389 1.389 0 0 1-1.387-1.387c0-.139.041-.265.079-.392-.086.017-.166.052-.257.052a1.391 1.391 0 0 1-1.387-1.391c0-.116.04-.22.067-.327a1.349 1.349 0 0 1-.714.227c-.08 0-.149-.033-.225-.046.542.443 1.043 1.161 1.27 2.382.162.872 1.157 1.343 2.011 1.343 1.188 0 2.155-.97 2.155-2.163 0-.933-.656-1.976-1.304-2.523zm-2.259 1.107a.386.386 0 1 0 .773 0 .38.38 0 0 0-.387-.383.38.38 0 0 0-.386.383zm1.565 1.731a.38.38 0 0 0 .386.383.381.381 0 0 0 .386-.383.383.383 0 0 0-.386-.387.382.382 0 0 0-.386.387zM6.599 13.245a1.439 1.439 0 0 1 0-2.879 1.44 1.44 0 0 1 0 2.879zm0-1.875a.434.434 0 1 0 0 .869.434.434 0 0 0 0-.869zM2.87 38.715c0 .791-.643 1.435-1.435 1.435a1.438 1.438 0 0 1 0-2.875c.792 0 1.435.646 1.435 1.44zm-1.435-.436a.436.436 0 0 0-.434.436c0 .241.191.431.434.431.244 0 .435-.19.435-.431a.436.436 0 0 0-.435-.436zm1.018 11.397a1.436 1.436 0 0 1-1.435-1.435c0-.793.643-1.44 1.435-1.44a1.436 1.436 0 1 1 0 2.875zm0-1.87a.433.433 0 1 0 0 0zm-.119-17.123a1.44 1.44 0 0 1 1.435-1.439 1.439 1.439 0 1 1 0 2.879 1.44 1.44 0 0 1-1.435-1.44zm1.435.436a.435.435 0 1 0-.001-.87.435.435 0 0 0 .001.87zM1.535 61.562c-.104-.142-.218-.283-.288-.429-.22-.461-.259-.923-.114-1.335.193-.55.707-.932 1.412-1.124l-.134-1.326a.5.5 0 0 1 .447-.55.494.494 0 0 1 .549.448l.13 1.289c.016 0 .028-.004.044-.004.511 0 1.058.1 1.604.25l.407-1.154a.5.5 0 0 1 .639-.306.502.502 0 0 1 .305.641l-.403 1.142a5.876 5.876 0 0 1 1.52.953l.88-.894a.499.499 0 0 1 .708-.004.503.503 0 0 1 .005.71l-.922.937c.366.55.507 1.127.325 1.652-.182.518-.652.881-1.289 1.085l.132 1.311a.5.5 0 1 1-.996.1l-.125-1.242c-.058.002-.107.017-.167.017-.512 0-1.059-.102-1.607-.252l-.403 1.154a.503.503 0 0 1-.638.307.504.504 0 0 1-.307-.641l.405-1.158c-.534-.237-1.03-.517-1.431-.848l-.914.929a.497.497 0 0 1-.707.007.503.503 0 0 1-.005-.71l.938-.955zm.615-.863c.076.16.19.32.331.477.03.019.07.013.097.039.022.023.017.057.034.082.44.436 1.085.839 1.832 1.102.724.258 1.481.344 2.086.29a.492.492 0 0 1 .231-.093.5.5 0 0 1 .209.022c.382-.094.653-.262.734-.492.084-.24-.028-.561-.287-.896-.051-.023-.11-.021-.153-.063-.059-.058-.065-.138-.089-.212-.416-.412-1.045-.817-1.831-1.095l-.007-.002-.004-.002a5.374 5.374 0 0 0-1.752-.321c-.101 0-.187.014-.281.021a.494.494 0 0 1-.209.052c-.027 0-.046-.023-.072-.028-.496.085-.847.282-.942.552-.055.159-.031.349.073.567zm3.12-.794c.645.229 1.158.634 1.372 1.084.126.264.147.535.059.783-.161.455-.648.727-1.304.727-.312 0-.649-.061-.977-.177-.444-.157-.835-.405-1.102-.696-.339-.37-.457-.796-.324-1.171.228-.666 1.256-.909 2.276-.55zm-.516 1.47c.221.079.443.12.643.12.245 0 .356-.063.373-.081-.026-.047-.281-.367-.833-.562a1.977 1.977 0 0 0-.644-.119c-.241 0-.352.061-.368.078.025.049.28.369.829.564zm7.655 5.029a1.44 1.44 0 1 1 0 2.879 1.44 1.44 0 0 1 0-2.879zm0 1.875a.435.435 0 0 0 0-.871.434.434 0 0 0-.433.435c0 .241.194.436.433.436zm2.617-9.388a1.44 1.44 0 0 1 0 2.879 1.44 1.44 0 0 1 0-2.879zm0 1.875a.434.434 0 1 0 0-.869.434.434 0 0 0 0 .869z"/></svg>