<svg xmlns="http://www.w3.org/2000/svg" width="75" height="54"><defs><linearGradient id="a" gradientUnits="userSpaceOnUse" x1="18" y1="113" x2="131"><stop offset="0" stop-color="#00adef"/><stop offset="1" stop-color="#31ecbe"/></linearGradient></defs><path fill="url(#a)" d="M69.245 30.848c-1.549-.684-3.039-1.248-5.649-1.216-2.599.032-4.016.695-5.386 1.337l-.065.03-.152-1.173.065-.031c1.34-.627 2.858-1.338 5.533-1.37 2.675-.032 4.269.571 5.796 1.246 1.513.668 2.932 1.295 5.615 1.265l.004 1.208-.194.001c-2.63 0-4.122-.659-5.567-1.297zm0-5.758c-1.549-.684-3.039-1.244-5.649-1.215-2.599.031-4.016.694-5.386 1.335l-.065.031-.152-1.173.065-.031c1.34-.627 2.858-1.338 5.533-1.37 2.675-.033 4.269.571 5.796 1.246 1.513.668 2.932 1.297 5.615 1.265l.004 1.208-.194.001c-2.63 0-4.122-.659-5.567-1.297zm0-5.758c-1.549-.685-3.039-1.245-5.649-1.216-2.599.032-4.016.695-5.386 1.336l-.065.031-.152-1.174.065-.03c1.34-.627 2.858-1.338 5.533-1.37 2.675-.035 4.269.57 5.796 1.246 1.513.667 2.932 1.298 5.615 1.265l.004 1.208-.194.001c-2.63 0-4.122-.659-5.567-1.297zM43 50.678c-1.006.526-1.922.722-3.164.881-3.874.018-7.419-2.656-9.76-7.328-1.229-2.52-2.25-5.288-3.123-8.458a8.053 8.053 0 0 1-2.459-.495c-1.947 1.759-3.866 4.273-5.862 7.679-1.431 2.527-2.217 6.106-1.867 8.504.114 1.397-.387 2.192-.949 2.389-.222.148-.52.325-.972.237l-.003-.001-.694-.138c-1.036-.424-8.138-6.865-10.348-11.099-.917-1.858-1.048-3.884-.382-5.866.953-2.837 3.437-5.375 6.993-7.146 3.163-1.534 6.303-2.644 8.028-3.075.059-.99.273-2.056.601-2.989-1.877-2.16-4.4-4.111-7.92-6.126-2.269-1.299-5.829-2.078-8.463-1.856C1.26 15.91.518 15.385.3 15.056c-.363-.548-.408-1.235-.114-1.655C.716 12.34 6.72 5.305 11.202 3.05c1.841-.925 3.852-1.066 5.819-.398 2.814.951 5.326 3.446 7.074 7.022 1.585 3.252 2.724 6.464 3.294 8.487.937.006 1.922.079 2.853.431.176.034.335.122.464.196.061.035.115.066.172.09 1.952-1.761 3.876-4.279 5.875-7.691 1.431-2.527 2.217-6.106 1.867-8.505-.113-1.398.389-2.193.952-2.389.536-.341 1.195-.38 1.6-.093 1.122.56 8.061 6.884 10.241 11.06.917 1.858 1.048 3.884.382 5.866-.953 2.837-3.437 5.375-6.993 7.146-3.074 1.642-6.198 2.633-8.622 3.313-.072.745-.392 2.163-.708 2.818 1.911 2.148 4.344 3.994 7.43 5.638 2.279 1.302 5.837 2.083 8.473 1.86 1.394-.119 2.136.406 2.355.736.356.537.406 1.209.131 1.631-.476 1.39-6.551 8.393-10.861 10.41zM2.448 14.004c1.445-.074 2.993.052 4.509.348 1.798.352 3.552.943 5.038 1.724 3.158 1.807 5.626 3.648 7.959 5.94.922-1.376 2.084-2.41 3.457-3.076.72-.35 1.413-.561 2.086-.75-.376-1.81-1.33-4.728-2.969-7.856l-.004-.008c-2.468-5.029-6.719-7.341-10.337-5.624-3.674 1.926-9.1 7.949-10.123 9.29.098.024.227.033.384.012zm31.178 9.645a6.51 6.51 0 0 0-3.978-3.404 9.916 9.916 0 0 0-.894-.22c-1.307-.255-2.912-.274-4.338.556-3.401 1.724-4.813 5.796-3.232 9.278.828 1.666 2.235 2.901 3.956 3.467 1.717.566 3.585.411 5.256-.436 1.668-.846 2.832-2.155 3.558-4.001.406-1.392.69-3.459-.328-5.24zm-2.11 11.104c-.87.422-1.67.674-2.381.75.483 1.708 1.437 4.655 2.959 7.611 1.488 3.034 3.655 5.205 5.946 5.965 1.494.492 3.008.38 4.384-.33 3.521-1.846 8.845-7.606 10.01-9.082l-.166.016c-.156.015-.335.032-.538.042-3.133.161-6.781-.634-9.521-2.073-3.09-1.646-5.545-3.494-7.488-5.641-.839 1.221-1.94 2.164-3.205 2.742zM17.26 42.094c1.631-3.096 3.468-5.569 5.599-7.531-1.439-.91-2.508-2.086-3.182-3.505a11.17 11.17 0 0 1-.869-2.273c-.167.054-.344.109-.53.167-1.736.546-4.36 1.371-6.907 2.707-3.016 1.507-5.178 3.695-5.939 6.005-.496 1.504-.387 3.031.314 4.416 1.925 3.739 8.087 9.218 9.229 10.023a1.14 1.14 0 0 0 .018-.405c-.158-3.296.712-6.966 2.267-9.604zm20.901-30.219c-1.59 3.017-3.446 5.548-5.66 7.71 1.215.843 2.153 1.952 2.725 3.229.588.879.843 1.585 1.029 2.468 2.234-.714 5.068-1.686 7.807-2.978 3.003-1.502 5.165-3.69 5.926-5.999.496-1.505.387-3.032-.314-4.416-1.922-3.737-8.084-9.216-9.229-10.023a1.164 1.164 0 0 0-.018.405c.158 3.296-.712 6.965-2.266 9.604zm25.43 22.308c2.675-.03 4.269.571 5.796 1.246 1.513.668 2.932 1.293 5.615 1.266l.004 1.207-.194.002c-2.63 0-4.122-.66-5.567-1.297-1.549-.685-3.039-1.253-5.649-1.216-2.599.031-4.016.695-5.386 1.336l-.065.031-.152-1.174.065-.03c1.34-.627 2.858-1.338 5.533-1.371z"/></svg>