<svg xmlns="http://www.w3.org/2000/svg" viewBox="0 1.5 87.7 98.5"><linearGradient id="a" gradientUnits="userSpaceOnUse" x1="7.766" y1="97.02" x2="106.234" y2="-29.014" gradientTransform="matrix(.7692 0 0 -.7692 0 76.923)"><stop offset="0" stop-color="#0c90c2"/><stop offset="1" stop-color="#2dd2ab"/></linearGradient><path fill="url(#a)" d="M86.2 7c-1.8.1-2.8.2-4.6.5-.6.1-.9.2-1.5.3-1.8.4-2.8.6-4.6 1.2-.6.2-.9.2-1.5.4-1.8.5-2.8.8-4.6 1.2-.6.2-.9.2-1.5.4-1.8.5-2.8.6-4.6.9-.6.1-.9.2-1.5.2-1.8.2-2.8.3-4.6.1-.9-.1-1.2-.2-1.8-.2-1.8-.4-2.8-.7-4.6-1.5-.6-.2-.9-.4-1.5-.7-1.8-.8-2.8-1.4-4.6-2.4-.7-.4-1-.6-1.6-.9-1.8-1-2.8-1.5-4.6-2.4-.6-.3-.9-.5-1.5-.7-1.8-.8-2.8-1.2-4.6-1.5-.6-.2-.9-.2-1.5-.2-1.8-.2-2.8-.1-4.6.1-.6.1-.9.1-1.5.2-1.8.3-2.8.5-4.6.9-.6.2-.9.2-1.5.4-1.8.5-2.8.8-4.6 1.2-.6.2-.9.2-1.5.4-2.1.4-3.1.8-4.9 1.1-.6.2-.9.3-1.5.3-1.9.4-2.8.5-4.7.6C.9 6.9.6 7 0 7V94.5c.6 0 .9 0 1.5-.1 1.8-.1 2.8-.2 4.6-.5.6-.1.9-.2 1.5-.3 1.8-.4 2.8-.6 4.6-1.2.6-.2.9-.2 1.5-.4 1.8-.5 2.8-.8 4.6-1.2.6-.2.9-.2 1.5-.4 1.8-.5 2.8-.6 4.6-.9.6-.1.9-.2 1.5-.2 1.8-.2 2.8-.3 4.6-.1.6.1.9.2 1.5.2 1.8.4 2.8.7 4.6 1.5.6.2.9.4 1.5.7 1.8.8 2.8 1.4 4.6 2.4.6.3.9.5 1.5.8 1.8 1 2.8 1.5 4.6 2.4.6.3.9.5 1.5.7 1.8.8 2.8 1.2 4.6 1.5.6.2.9.2 1.5.2 1.8.2 2.8.1 4.6-.1.6-.1.9-.1 1.5-.2 1.8-.3 2.8-.5 4.6-.9.6-.2.9-.2 1.5-.4 1.8-.5 2.8-.8 4.6-1.2.6-.2.9-.2 1.5-.4 1.8-.5 2.8-.8 4.6-1.2.6-.2.9-.2 1.5-.3 1.8-.3 2.8-.5 4.6-.5.6 0 .9-.1 1.5-.1v-1.5-4.6-1.5-4.6-1.5V76v-1.5-4.6-1.5-4.6-1.5-4.6-1.5-4.6-1.5-4.6V44v-4.6-1.5-4.6-1.5-4.6-1.5-4.6-1.5V15v-1.5-4.6-1.5c.2-.5-.1-.5-.7-.4zM80 9.3v4.6c-1.8.4-2.8.6-4.6 1.2v-4.6c1.8-.5 2.8-.8 4.6-1.2zM43.1 51.1v4.6c-1.8-1-2.8-1.5-4.6-2.4v-4.6c1.8.9 2.7 1.4 4.6 2.4zm-4.6-4v-4.6c1.8.8 2.8 1.4 4.6 2.4v4.6c-1.9-.9-2.8-1.5-4.6-2.4zm6.1 4.9c1.8 1 2.8 1.5 4.6 2.4V59c-1.8-.8-2.8-1.4-4.6-2.4V52zm0-1.6v-4.6c1.8 1 2.8 1.5 4.6 2.4v4.6c-1.8-.8-2.7-1.4-4.6-2.4zm0-6.1v-4.6c1.8 1 2.8 1.5 4.6 2.4v4.6c-1.8-.9-2.7-1.4-4.6-2.4zm-1.5-.9c-1.8-1-2.8-1.5-4.6-2.4v-4.6c1.8.8 2.8 1.4 4.6 2.4v4.6zm-6.2-3.1c-1.8-.8-2.8-1.2-4.6-1.5v-4.6c1.8.4 2.8.7 4.6 1.5v4.6zm0 1.5v4.6c-1.8-.8-2.8-1.2-4.6-1.5v-4.6c1.9.4 2.8.7 4.6 1.5zm0 6.2v4.6c-1.8-.8-2.8-1.2-4.6-1.5v-4.6c1.9.4 2.8.7 4.6 1.5zm0 6.1v4.6c-1.8-.8-2.8-1.2-4.6-1.5v-4.6c1.9.4 2.8.7 4.6 1.5zm1.6.7c1.8.8 2.8 1.4 4.6 2.4v4.6c-1.8-1-2.8-1.5-4.6-2.4v-4.6zm6.1 3.3c1.8 1 2.8 1.5 4.6 2.4v4.6c-1.8-.8-2.8-1.4-4.6-2.4v-4.6zm6.2 3.1c1.8.8 2.8 1.2 4.6 1.5v4.6c-1.8-.4-2.8-.7-4.6-1.5v-4.6zm0-1.5v-4.6c1.8.8 2.8 1.2 4.6 1.5v4.6c-1.9-.4-2.8-.7-4.6-1.5zm0-6.2v-4.6c1.8.8 2.8 1.2 4.6 1.5V55c-1.9-.3-2.8-.7-4.6-1.5zm0-6.2v-4.6c1.8.8 2.8 1.2 4.6 1.5v4.6c-1.9-.3-2.8-.6-4.6-1.5zm0-6.1v-4.6c1.8.8 2.8 1.2 4.6 1.5v4.6c-1.9-.4-2.8-.7-4.6-1.5zm-1.6-.7c-1.8-.8-2.8-1.4-4.6-2.4v-4.6c1.8 1 2.8 1.5 4.6 2.4v4.6zm-6.1-3.2c-1.8-1-2.8-1.5-4.6-2.4v-4.6c1.8.8 2.8 1.4 4.6 2.4v4.6zm-6.2-3.2c-1.8-.8-2.8-1.2-4.6-1.5V28c1.8.4 2.8.7 4.6 1.5v4.6zm-6.1-1.8c-1.8-.2-2.8-.1-4.6.1v-4.6c1.8-.2 2.8-.3 4.6-.1v4.6zm0 1.6v4.6c-1.8-.2-2.8-.1-4.6.1V34c1.8-.2 2.7-.3 4.6-.1zm0 6.1v4.6c-1.8-.2-2.8-.1-4.6.1v-4.6c1.8-.1 2.7-.2 4.6-.1zm0 6.2v4.6c-1.8-.2-2.8-.1-4.6.1v-4.6c1.8-.2 2.7-.3 4.6-.1zm0 6.1v4.6c-1.8-.2-2.8-.1-4.6.1v-4.6c1.8-.1 2.7-.2 4.6-.1zm0 6.2v4.6c-1.8-.2-2.8-.1-4.6.1v-4.6c1.8-.2 2.7-.3 4.6-.1zm1.5.3c1.8.4 2.8.7 4.6 1.5v4.6c-1.8-.8-2.8-1.2-4.6-1.5v-4.6zm6.2 2.2c1.8.8 2.8 1.4 4.6 2.4V68c-1.8-1-2.8-1.5-4.6-2.4V61zm6.1 3.3c1.8 1 2.8 1.5 4.6 2.4v4.6c-1.8-.8-2.8-1.4-4.6-2.4v-4.6zm6.2 3c1.8.8 2.8 1.2 4.6 1.5v4.6c-1.8-.4-2.8-.7-4.6-1.5v-4.6zm6.1 1.8c1.8.2 2.8.1 4.6-.1v4.6c-1.8.2-2.8.3-4.6.1v-4.6zm0-1.5V63c1.8.2 2.8.1 4.6-.1v4.6c-1.8.2-2.7.3-4.6.1zm0-6.2v-4.6c1.8.2 2.8.1 4.6-.1v4.6c-1.8.3-2.7.4-4.6.1zm0-6.1v-4.6c1.8.2 2.8.1 4.6-.1v4.6c-1.8.2-2.7.3-4.6.1zm0-6.2v-4.6c1.8.2 2.8.1 4.6-.1V49c-1.8.3-2.7.3-4.6.1zm0-6.1v-4.6c1.8.2 2.8.1 4.6-.1v4.6c-1.8.2-2.7.3-4.6.1zm0-6.2v-4.6c1.8.2 2.8.1 4.6-.1v4.6c-1.8.3-2.7.3-4.6.1zm-1.5-.2c-1.8-.4-2.8-.7-4.6-1.5v-4.6c1.8.8 2.8 1.2 4.6 1.5v4.6zm-6.2-2.3c-1.8-.8-2.8-1.4-4.6-2.4v-4.6c1.8 1 2.8 1.5 4.6 2.4v4.6zm-6.1-3.2c-1.8-1-2.8-1.5-4.6-2.4v-4.6c1.8.8 2.8 1.4 4.6 2.4v4.6zM36.9 28c-1.8-.8-2.8-1.2-4.6-1.5v-4.6c1.8.4 2.8.7 4.6 1.5V28zm-6.1-1.8c-1.8-.2-2.8-.1-4.6.1v-4.6c1.8-.2 2.8-.3 4.6-.1v4.6zm-6.2.3c-1.8.3-2.8.5-4.6.9v-4.6c1.8-.5 2.8-.6 4.6-.9v4.6zm0 1.5v4.6c-1.8.3-2.8.5-4.6.9v-4.6c1.8-.4 2.8-.6 4.6-.9zm0 6.2v4.6c-1.8.3-2.8.5-4.6.9v-4.6c1.8-.4 2.8-.6 4.6-.9zm0 6.1v4.6c-1.8.3-2.8.5-4.6.9v-4.6c1.8-.4 2.8-.5 4.6-.9zm0 6.2v4.6c-1.8.3-2.8.5-4.6.9v-4.6c1.8-.4 2.8-.6 4.6-.9zm0 6.2v4.6c-1.8.3-2.8.5-4.6.9v-4.6c1.8-.5 2.8-.6 4.6-.9zm0 6.1v4.6c-1.8.3-2.8.5-4.6.9v-4.6c1.8-.4 2.8-.6 4.6-.9zm0 6.2v4.6c-1.8.3-2.8.5-4.6.9v-4.6c1.8-.5 2.8-.6 4.6-.9zm1.6-.3c1.8-.2 2.8-.3 4.6-.1v4.6c-1.8-.2-2.8-.1-4.6.1v-4.6zm6.1.3c1.8.4 2.8.7 4.6 1.5v4.6c-1.8-.8-2.8-1.2-4.6-1.5V65zm6.2 2.1c1.8.8 2.8 1.4 4.6 2.4v4.6c-1.8-1-2.8-1.5-4.6-2.4v-4.6zm6.1 3.3c1.8 1 2.8 1.5 4.6 2.4v4.6c-1.8-.8-2.8-1.4-4.6-2.4v-4.6zm6.2 3.1c1.8.8 2.8 1.2 4.6 1.5v4.6c-1.8-.4-2.8-.7-4.6-1.5v-4.6zm6.1 1.8c1.8.2 2.8.1 4.6-.1v4.6c-1.8.2-2.8.3-4.6.1v-4.6zm6.2-.3c1.8-.3 2.8-.5 4.6-.9v4.6c-1.8.5-2.8.6-4.6.9V75zm0-1.5v-4.6c1.8-.3 2.8-.5 4.6-.9v4.6c-1.9.4-2.8.6-4.6.9zm0-6.2v-4.6c1.8-.3 2.8-.5 4.6-.9v4.6c-1.9.5-2.8.6-4.6.9zm0-6.1v-4.6c1.8-.3 2.8-.5 4.6-.9v4.6c-1.9.4-2.8.6-4.6.9zm0-6.2v-4.6c1.8-.3 2.8-.5 4.6-.9v4.6c-1.9.5-2.8.6-4.6.9zm0-6.1v-4.6c1.8-.3 2.8-.5 4.6-.9V48c-1.9.4-2.8.6-4.6.9zm0-6.2v-4.6c1.8-.3 2.8-.5 4.6-.9v4.6c-1.9.5-2.8.6-4.6.9zm0-6.1V32c1.8-.3 2.8-.5 4.6-.9v4.6c-1.9.4-2.8.6-4.6.9zm0-6.2v-4.6c1.8-.3 2.8-.5 4.6-.9v4.6c-1.9.5-2.8.6-4.6.9zm-1.6.2c-1.8.2-2.8.3-4.6.1v-4.6c1.8.2 2.8.1 4.6-.1v4.6zm-6.1-.2c-1.8-.4-2.8-.7-4.6-1.5v-4.6c1.8.8 2.8 1.2 4.6 1.5v4.6zm-6.2-2.2c-1.8-.8-2.8-1.4-4.6-2.4v-4.6c1.8 1 2.8 1.5 4.6 2.4v4.6zM43.1 25c-1.8-1-2.8-1.5-4.6-2.4V18c1.8.8 2.8 1.4 4.6 2.4V25zm-6.2-3.2c-1.8-.8-2.8-1.2-4.6-1.5v-4.6c1.8.4 2.8.7 4.6 1.5v4.6zM30.8 20c-1.8-.2-2.8-.1-4.6.1v-4.6c1.8-.2 2.8-.3 4.6-.1V20zm-6.2.3c-1.8.3-2.8.5-4.6.9v-4.6c1.8-.5 2.8-.6 4.6-.9v4.6zm-6.2 1.4c-1.8.5-2.8.8-4.6 1.2v-4.6c1.8-.5 2.8-.8 4.6-1.2v4.6zm0 1.5v4.6c-1.8.5-2.8.8-4.6 1.2v-4.6c1.8-.5 2.8-.7 4.6-1.2zm0 6.1v4.6c-1.8.5-2.8.8-4.6 1.2v-4.6c1.8-.5 2.8-.7 4.6-1.2zm0 6.2v4.6c-1.8.5-2.8.8-4.6 1.2v-4.6c1.8-.5 2.8-.7 4.6-1.2zm0 6.2v4.6c-1.8.5-2.8.8-4.6 1.2v-4.6c1.8-.6 2.8-.8 4.6-1.2zm0 6.1v4.6c-1.8.5-2.8.8-4.6 1.2V49c1.8-.5 2.8-.7 4.6-1.2zm0 6.2v4.6c-1.8.5-2.8.8-4.6 1.2v-4.6c1.8-.5 2.8-.8 4.6-1.2zm0 6.1v4.6c-1.8.5-2.8.8-4.6 1.2v-4.6c1.8-.5 2.8-.7 4.6-1.2zm0 6.2v4.6c-1.8.5-2.8.8-4.6 1.2v-4.6c1.8-.5 2.8-.8 4.6-1.2zm.1 6.1V77c-1.8.5-2.8.8-4.6 1.2v-4.6c1.8-.5 2.7-.7 4.6-1.2zM20 72c1.8-.5 2.8-.6 4.6-.9v4.6c-1.8.3-2.8.5-4.6.9V72zm6.2-1.1c1.8-.2 2.8-.3 4.6-.1v4.6c-1.8-.2-2.8-.1-4.6.1v-4.6zm6.1.2c1.8.4 2.8.7 4.6 1.5v4.6c-1.8-.8-2.8-1.2-4.6-1.5v-4.6zm6.2 2.2c1.8.8 2.8 1.4 4.6 2.4v4.6c-1.8-1-2.8-1.5-4.6-2.4v-4.6zm6.1 3.3c1.8 1 2.8 1.5 4.6 2.4v4.6c-1.8-.8-2.8-1.4-4.6-2.4v-4.6zm6.2 3.1c1.8.8 2.8 1.2 4.6 1.5v4.6c-1.8-.4-2.8-.7-4.6-1.5v-4.6zm6.1 1.7c1.8.2 2.8.1 4.6-.1v4.6c-1.8.2-2.8.3-4.6.1v-4.6zm6.2-.2c1.8-.3 2.8-.5 4.6-.9v4.6c-1.8.5-2.8.6-4.6.9v-4.6zm6.1-1.3c1.8-.5 2.8-.8 4.6-1.2v4.6c-1.8.5-2.8.8-4.6 1.2v-4.6zm0-1.6v-4.6c1.8-.5 2.8-.8 4.6-1.2v4.6c-1.8.5-2.7.8-4.6 1.2zm0-6.1v-4.6c1.8-.5 2.8-.8 4.6-1.2V71c-1.8.4-2.7.7-4.6 1.2zm0-6.2v-4.6c1.8-.5 2.8-.8 4.6-1.2v4.6c-1.8.5-2.7.8-4.6 1.2zm0-6.1v-4.6c1.8-.5 2.8-.8 4.6-1.2v4.6c-1.8.4-2.7.7-4.6 1.2zm0-6.2v-4.6c1.8-.5 2.8-.8 4.6-1.2v4.6c-1.8.5-2.7.8-4.6 1.2zm0-6.1V43c1.8-.5 2.8-.8 4.6-1.2v4.6c-1.8.4-2.7.7-4.6 1.2zm0-6.2v-4.6c1.8-.5 2.8-.8 4.6-1.2v4.6c-1.8.5-2.7.8-4.6 1.2zm0-6.1v-4.6c1.8-.5 2.8-.8 4.6-1.2v4.6c-1.8.4-2.7.7-4.6 1.2zm0-6.2v-4.6c1.8-.5 2.8-.8 4.6-1.2v4.6c-1.8.4-2.7.8-4.6 1.2zm0-6.1v-4.6c1.8-.5 2.8-.8 4.6-1.2v4.6c-1.8.4-2.7.7-4.6 1.2zm-1.5.3c-1.8.5-2.8.6-4.6.9v-4.6c1.8-.3 2.8-.5 4.6-.9v4.6zm-6.2 1.1c-1.8.2-2.8.3-4.6.1v-4.6c1.8.2 2.8.1 4.6-.1v4.6zm-6.1-.1c-1.8-.4-2.8-.7-4.6-1.5v-4.6c1.8.8 2.8 1.2 4.6 1.5v4.6zM49.2 22c-1.8-.8-2.8-1.4-4.6-2.4V15c1.8 1 2.8 1.5 4.6 2.4V22zm-6.1-3.2c-1.8-1-2.8-1.5-4.6-2.4v-4.6c1.8.8 2.8 1.4 4.6 2.4v4.6zm-6.2-3.1c-1.8-.8-2.8-1.2-4.6-1.5V9.6c1.8.4 2.8.7 4.6 1.5v4.6zm-6.1-1.8c-1.8-.2-2.8-.1-4.6.1V9.4c1.8-.3 2.7-.4 4.6-.1v4.6zm-6.2.3c-1.8.3-2.8.5-4.6.9v-4.6c1.8-.5 2.8-.6 4.6-.9v4.6zm-6.2 1.3c-1.8.5-2.8.8-4.6 1.2v-4.6c1.8-.5 2.8-.8 4.6-1.2v4.6zm-6.1 1.7c-1.8.5-2.8.8-4.6 1.2v-4.6c1.8-.4 2.8-.6 4.6-1.2v4.6zm0 1.5v4.6c-1.8.5-2.8.8-4.6 1.2v-4.6c1.8-.5 2.8-.7 4.6-1.2zm0 6.2v4.6c-1.8.5-2.8.8-4.6 1.2v-4.6c1.8-.5 2.8-.8 4.6-1.2zm-.1 6.1v4.6c-1.8.5-2.8.8-4.6 1.2v-4.6c1.9-.5 2.9-.7 4.6-1.2zm0 6.2v4.6c-1.8.5-2.8.8-4.6 1.2v-4.6c1.9-.5 2.9-.7 4.6-1.2zm.1 6.1v4.6c-1.8.5-2.8.8-4.6 1.2v-4.6c1.8-.5 2.8-.7 4.6-1.2zm-.1 6.2v4.6c-1.8.5-2.8.8-4.6 1.2v-4.6c1.9-.5 2.9-.7 4.6-1.2zm.1 6.2v4.6c-1.8.5-2.8.8-4.6 1.2v-4.6c1.8-.6 2.8-.8 4.6-1.2zm0 6.1v4.6c-1.8.5-2.8.8-4.6 1.2V63c1.8-.5 2.8-.7 4.6-1.2zm-.1 6.2v4.6c-1.8.5-2.8.8-4.6 1.2v-4.6c1.9-.5 2.9-.8 4.6-1.2zm.1 6.1v4.6c-1.8.5-2.8.8-4.6 1.2v-4.6c1.8-.5 2.8-.7 4.6-1.2zm0 6.2v4.6c-1.8.5-2.8.8-4.6 1.2v-4.6c1.8-.5 2.8-.8 4.6-1.2zm1.5-.5c1.8-.5 2.8-.8 4.6-1.2v4.6c-1.8.5-2.8.8-4.6 1.2v-4.6zm6.2-1.6c1.8-.5 2.8-.6 4.6-.9v4.6c-1.8.3-2.8.5-4.6.9v-4.6zm6.2-1.2c1.8-.2 2.8-.3 4.6-.1v4.6c-1.8-.2-2.8-.1-4.6.1V77zm6.1.3c1.8.4 2.8.7 4.6 1.5v4.6c-1.8-.8-2.8-1.2-4.6-1.5v-4.6zm6.2 2.1c1.8.8 2.8 1.4 4.6 2.4v4.6c-1.8-1-2.8-1.5-4.6-2.4v-4.6zm6.1 3.3c1.8 1 2.8 1.5 4.6 2.4v4.6c-1.8-.8-2.8-1.4-4.6-2.4v-4.6zm6.2 3.1c1.8.8 2.8 1.2 4.6 1.5v4.6c-1.8-.4-2.8-.7-4.6-1.5v-4.6zm6.1 1.8c1.8.2 2.8.1 4.6-.1v4.6c-1.8.2-2.8.3-4.6.1v-4.6zm6.2-.3c1.8-.3 2.8-.5 4.6-.9V91c-1.8.5-2.8.6-4.6.9v-4.6zm6.1-1.3c1.8-.5 2.8-.8 4.6-1.2v4.6c-1.8.5-2.8.8-4.6 1.2V86zm6.2-1.7c1.8-.5 2.8-.8 4.6-1.2v4.6c-1.8.4-2.8.6-4.6 1.2v-4.6zm0-1.5v-4.6c1.8-.5 2.8-.8 4.6-1.2v4.6c-1.8.4-2.8.7-4.6 1.2zm0-6.1v-4.6c1.8-.5 2.8-.8 4.6-1.2v4.6c-1.8.4-2.8.7-4.6 1.2zm0-6.2v-4.6c1.8-.5 2.8-.8 4.6-1.2v4.6c-1.8.4-2.8.7-4.6 1.2zm0-6.2v-4.6c1.8-.5 2.8-.8 4.6-1.2v4.6c-1.8.5-2.8.8-4.6 1.2zm0-6.1v-4.6c1.8-.5 2.8-.8 4.6-1.2V57c-1.8.4-2.8.7-4.6 1.2zm0-6.2v-4.6c1.8-.5 2.8-.8 4.6-1.2v4.6c-1.8.5-2.8.8-4.6 1.2zm0-6.1v-4.6c1.8-.5 2.8-.8 4.6-1.2v4.6c-1.8.4-2.8.7-4.6 1.2zm0-6.2v-4.6c1.8-.5 2.8-.8 4.6-1.2v4.6c-1.8.5-2.8.8-4.6 1.2zm0-6.1V29c1.8-.5 2.8-.8 4.6-1.2v4.6c-1.8.4-2.8.7-4.6 1.2zm0-6.2v-4.6c1.8-.5 2.8-.8 4.6-1.2v4.6c-1.8.5-2.8.8-4.6 1.2zm0-6.1v-4.6c1.8-.5 2.8-.8 4.6-1.2v4.6c-1.8.4-2.8.7-4.6 1.2zM73.8 11v4.6c-1.8.5-2.8.8-4.6 1.2v-4.6c1.9-.5 2.8-.8 4.6-1.2zm-6.1 1.6v4.6c-1.8.5-2.8.6-4.6.9v-4.6c1.8-.3 2.7-.5 4.6-.9zm-6.2 1.1v4.6c-1.8.2-2.8.3-4.6.1v-4.6c1.9.2 2.8.1 4.6-.1zm-6.1-.2v4.6c-1.8-.4-2.8-.7-4.6-1.5V12c1.8.8 2.7 1.1 4.6 1.5zm-6.2-2.2v4.6c-1.8-.8-2.8-1.4-4.6-2.4V8.9c1.9 1 2.8 1.5 4.6 2.4zM43.1 8v4.6c-1.8-1-2.8-1.5-4.6-2.4V5.6c1.8.9 2.7 1.4 4.6 2.4zm-6.2-3.1v4.6c-1.8-.8-2.8-1.2-4.6-1.5V3.4c1.9.4 2.8.7 4.6 1.5zm-6.1-1.8v4.6c-1.8-.2-2.8-.1-4.6.1V3.2c1.8-.2 2.7-.2 4.6-.1zm-6.2.3V8c-1.8.3-2.8.5-4.6 1V4.4c1.8-.5 2.8-.7 4.6-1zm-6.2 1.3v4.6c-1.8.5-2.8.8-4.6 1.2V5.9c1.8-.5 2.8-.7 4.6-1.2zm-6.1 1.7V11c-1.8.5-2.8.8-4.6 1.2V7.6c1.8-.5 2.8-.7 4.6-1.2zm-10.8 2c1.8-.1 2.8-.2 4.6-.5v4.6c-1.9.3-2.8.5-4.6.5V8.4zm0 6.2c1.8-.1 2.8-.2 4.6-.5v4.6c-1.8.3-2.8.5-4.6.5v-4.6zm0 6.1c1.8-.1 2.8-.2 4.6-.5v4.6c-1.8.3-2.8.5-4.6.5v-4.6zm0 6.2c1.8-.1 2.8-.2 4.6-.5V31c-1.8.3-2.8.5-4.6.5v-4.6zm0 6.1c1.8-.1 2.8-.2 4.6-.5v4.6c-1.8.3-2.8.5-4.6.5V33zm0 6.2c1.8-.1 2.8-.2 4.6-.5v4.6c-1.8.3-2.8.5-4.6.5v-4.6zm0 6.1c1.8-.1 2.8-.2 4.6-.5v4.6c-1.8.3-2.8.5-4.6.5v-4.6zm0 6.2c1.8-.1 2.8-.2 4.6-.5v4.6c-1.8.3-2.8.5-4.6.5v-4.6zm0 6.2c1.8-.1 2.8-.2 4.6-.5v4.6c-1.8.3-2.8.5-4.6.5v-4.6zm0 6.1c1.8-.1 2.8-.2 4.6-.5v4.6c-1.8.3-2.8.5-4.6.5v-4.6zm0 6.2c1.8-.1 2.8-.2 4.6-.5v4.6c-1.8.3-2.8.5-4.6.5V70zm0 6.1c1.8-.1 2.8-.2 4.6-.5v4.6c-1.8.3-2.8.5-4.6.5v-4.6zm0 6.2c1.8-.1 2.8-.2 4.6-.5v4.6c-1.8.3-2.8.5-4.6.5v-4.6zm0 10.7v-4.6c1.8-.1 2.8-.2 4.6-.5v4.6c-1.8.3-2.8.4-4.6.5zm6.2-.9v-4.6c1.8-.4 2.8-.6 4.6-1.2v4.6c-1.8.6-2.8.8-4.6 1.2zm6.1-1.5V86c1.8-.5 2.8-.8 4.6-1.2v4.6c-1.8.4-2.8.6-4.6 1.2zM20 89v-4.6c1.8-.5 2.8-.6 4.6-.9v4.6c-1.8.2-2.8.4-4.6.9zm6.2-1.2v-4.6c1.8-.2 2.8-.3 4.6-.1v4.6c-1.9-.1-2.8 0-4.6.1zm6.1.2v-4.6c1.8.4 2.8.7 4.6 1.5v4.6c-1.8-.8-2.7-1.1-4.6-1.5zm6.2 2.2v-4.6c1.8.8 2.8 1.4 4.6 2.4v4.6c-1.9-.9-2.8-1.5-4.6-2.4zm6.1 3.3v-4.6c1.8 1 2.8 1.5 4.6 2.4v4.6c-1.8-.9-2.7-1.4-4.6-2.4zm6.2 3.1V92c1.8.8 2.8 1.2 4.6 1.5v4.6c-1.9-.4-2.8-.7-4.6-1.5zm6.1 1.7v-4.6c1.8.2 2.8.1 4.6-.1v4.6c-1.8.3-2.7.4-4.6.1zm6.2-.2v-4.6c1.8-.3 2.8-.5 4.6-.9v4.6c-1.9.5-2.8.6-4.6.9zm6.1-1.3v-4.6c1.8-.5 2.8-.8 4.6-1.2v4.6c-1.8.4-2.7.7-4.6 1.2zm6.2-1.7v-4.6c1.8-.5 2.8-.8 4.6-1.2v4.6c-1.8.4-2.8.8-4.6 1.2zm10.8-2c-1.8.1-2.8.2-4.6.5V89c1.8-.3 2.8-.5 4.6-.5v4.6zm0-6.1c-1.8.1-2.8.2-4.6.5v-4.6c1.8-.3 2.8-.5 4.6-.5V87zm0-6.2c-1.8.1-2.8.2-4.6.5v-4.6c1.8-.3 2.8-.5 4.6-.5v4.6zm0-6.1c-1.8.1-2.8.2-4.6.5v-4.6c1.8-.3 2.8-.5 4.6-.5v4.6zm0-6.2c-1.8.1-2.8.2-4.6.5v-4.6c1.8-.3 2.8-.5 4.6-.5v4.6zm0-6.2c-1.8.1-2.8.2-4.6.5v-4.6c1.8-.3 2.8-.5 4.6-.5v4.6zm0-6.1c-1.8.1-2.8.2-4.6.5v-4.6c1.8-.3 2.8-.5 4.6-.5v4.6zm0-6.2c-1.8.1-2.8.2-4.6.5v-4.6c1.8-.3 2.8-.5 4.6-.5V50zm0-6.1c-1.8.1-2.8.2-4.6.5v-4.6c1.8-.3 2.8-.5 4.6-.5v4.6zm0-6.2c-1.8.1-2.8.2-4.6.5v-4.6c1.8-.3 2.8-.5 4.6-.5v4.6zm0-6.1c-1.8.1-2.8.2-4.6.5v-4.6c1.8-.3 2.8-.5 4.6-.5v4.6zm0-6.2c-1.8.1-2.8.2-4.6.5v-4.6c1.8-.3 2.8-.5 4.6-.5v4.6zm0-6.1c-1.8.1-2.8.2-4.6.5v-4.6c1.8-.3 2.8-.5 4.6-.5v4.6zm0-6.2c-1.8.1-2.8.2-4.6.5V9c1.8-.3 2.8-.5 4.6-.5v4.6z"/></svg>