<svg xmlns="http://www.w3.org/2000/svg" preserveAspectRatio="xMidYMid" width="88" height="89" viewBox="0 0 88 89"><defs><style>.cls-1{fill:#fff;fill-rule:evenodd}</style></defs><path d="M87.187 27.162a1.088 1.088 0 0 1-1.325-.775c-1.034-3.967-1.296-4.975-1.355-5.196a.242.242 0 0 0-.01-.036c-.149-.576.192-1.201.771-1.351.579-.15.842-.221 1.233.81l.093-.02c.032.119.039.245.03.364.301.897.694 2.402 1.34 4.884.15.58-.197 1.169-.777 1.32zM67.674 5.437c0-1.904.406-3.73 1.154-5.449h2.091c.035.206.071.419-.024.624a11.445 11.445 0 0 0-1.049 4.825c0 6.413 5.234 11.633 11.668 11.633 1.701 0 3.34-.356 4.872-1.059.057-.028.117.007.176-.008v2.221c-1.609.632-3.292 1.011-5.048 1.011-7.632 0-13.84-6.191-13.84-13.798zm-.692 6.777l-9.116 3.52a1.063 1.063 0 0 1-.392.076c-.437 0-.847-.265-1.013-.692a1.08 1.08 0 0 1 .62-1.399l9.112-3.52a1.08 1.08 0 1 1 .789 2.015zM65.61 4.687c-.041 0-.083-.005-.126-.008l-9.707-1.126a1.087 1.087 0 0 1-.952-1.202c.068-.593.627-1.011 1.206-.948l9.702 1.126a1.082 1.082 0 0 1-.123 2.158zm.151 3.852c-.002 0-7.469.877-13.653 1.667-.048.004-.095.008-.141.008a1.083 1.083 0 0 1-.137-2.157c6.197-.79 13.677-1.667 13.677-1.667l.254 2.149zm-5.924 37.517L44.365 73.648V61.344h-6.918v13.111l-19.98 14.56V18.2l19.98-14.564v27.07h6.918V18.327l15.472 27.729zM25.225 61.467l2.181-1.64v-8.168l-2.181 1.565v8.243zm0-9.839l2.181-1.566v-7.887l-2.181 1.598v7.855zm0-9.467l2.181-1.596V32.67l-2.181 1.596v7.895zm-1.304-24.649l-3.199 2.332v6.713l3.199-2.363v-6.682zm0 8.302l-3.199 2.363v7.772l3.199-2.339v-7.796zm0 9.404l-3.199 2.339v7.903l3.199-2.343v-7.899zm0 9.507l-3.199 2.343v7.796l3.199-2.299v-7.84zm0 9.44l-3.199 2.295v8.389l3.199-2.402v-8.282zm0 9.905l-3.199 2.407v7.756l3.199-2.359V64.07zm0 9.417l-3.199 2.359v6.776l3.199-2.331v-6.804zm5.624-60.072l-4.32 3.149v6.67l4.32-3.193v-6.626zm0 8.242l-4.32 3.193v7.804l2.181-1.594v-.354h.485l1.654-1.209v-7.84zm0 39.687h-1.997l-2.323 1.747v7.823l4.32-3.181v-6.389zm0 8.002l-4.32 3.181v6.815l4.32-3.145v-6.851zm4.648-59.318l-3.344 2.438v6.611l3.344-2.469v-6.58zm0 8.196l-3.344 2.473v7.847l3.344-2.445v-7.875zm0 9.483l-3.344 2.446v.553h3.344v-2.999zm0 33.637h-3.344v5.429l3.344-2.462v-2.967zm0 4.58l-3.344 2.461v6.86l3.344-2.434v-6.887zm-21.689 5.034a4.764 4.764 0 0 1-2.078.481c-.513 0-.981-.086-1.387-.264a2.992 2.992 0 0 1-1.574-3.927c.551-1.273 1.851-2.067 3.015-1.794.301.066.585.102.846.102 1.451 0 1.81-1.059 1.846-1.181.396-.949 1.455-1.371 2.331-.98.43.182.763.521.937.956.165.415.169.865.01 1.277-.085.533-.717 3.721-3.946 5.33zm2.979-6.224a.716.716 0 0 0-.386-.395.72.72 0 0 0-.954.38c-.164.604-.995 1.865-2.817 1.865a5.06 5.06 0 0 1-1.072-.126 1.031 1.031 0 0 0-.248-.028c-.626 0-1.282.501-1.593 1.225a1.967 1.967 0 0 0 1.034 2.58c.678.284 1.814.193 2.595-.194 2.952-1.474 3.38-4.485 3.396-4.615l.037-.134a.73.73 0 0 0 .008-.558zm-1.974 2.908a.82.82 0 0 1-.434-1.082.83.83 0 0 1 1.088-.435.827.827 0 1 1-.654 1.517zm-2.028 1.194a.823.823 0 0 1-.434-1.083.833.833 0 0 1 1.088-.434.827.827 0 1 1-.654 1.517zm-2.056.711a.831.831 0 0 1-.434-1.09.834.834 0 0 1 1.088-.431.824.824 0 0 1 .435 1.086.833.833 0 0 1-1.089.435zm4.736-28.123c-.139.654-.448 1.364-.936 2.057a5.798 5.798 0 0 1-1.52 1.516l.571.996-.626.356-.586-1.022c-.32.133-.635.224-.931.224-.343 0-.648-.091-.906-.269-.5-.35-.721-.968-.686-1.705l-1.149-.195.123-.712 1.128.192c.152-.619.457-1.287.915-1.938a5.622 5.622 0 0 1 1.633-1.556l-.56-.977.626-.355.584 1.018c.646-.24 1.26-.246 1.711.068.473.331.69.902.686 1.583l1.132.195-.123.711-1.086-.187zm-1.199-1.46a.523.523 0 0 0-.308-.079c-.531 0-1.461.509-2.251 1.627-.974 1.388-.995 2.64-.585 2.925.424.3 1.59-.151 2.563-1.545.898-1.277 1.046-2.6.581-2.928zm-2.381 3.394c-.327-.23-.242-.913.192-1.533.435-.621 1.051-.929 1.38-.704.325.23.24.917-.194 1.534-.434.62-1.053.928-1.378.703zm3.457-8.199a.869.869 0 1 1 0-1.739.87.87 0 1 1 0 1.739zm0-8.31a.869.869 0 1 1 0-1.739.87.87 0 1 1 0 1.739zM7.707 37.933c-1.403 0-2.626-.881-2.846-2.047-.344-1.841-1.475-2.039-1.947-2.039l-.18.008c-.97 0-1.758-.786-1.758-1.754 0-.945.749-1.715 1.686-1.754a7.303 7.303 0 0 1 1.711-.191c1.251 0 3.092.293 4.761 1.692.783.663 1.572 1.872 1.572 3.098a2.997 2.997 0 0 1-2.999 2.987zm.763-5.299c-2.606-2.181-5.586-1.28-5.596-1.28l-.14.02a.73.73 0 0 0-.728.727c0 .395.315.715.708.727.02-.004.095-.008.2-.008.569 0 2.464.205 2.961 2.876.141.759 1.043 1.21 1.832 1.21a1.969 1.969 0 0 0 1.968-1.96c0-.85-.606-1.806-1.205-2.312zm-.252 3.426a.825.825 0 1 1 0-1.652.826.826 0 1 1 0 1.652zm-1.463-1.604a.825.825 0 1 1 0-1.652.826.826 0 0 1 0 1.652zm-1.901-1.383a.826.826 0 1 1 0-1.652.825.825 0 1 1 0 1.652zm.839-9.274a.871.871 0 1 1 0-1.743.87.87 0 1 1 0 1.743zM1.737 47.91a.871.871 0 0 1-.873.869.87.87 0 1 1 0-1.742c.484 0 .873.394.873.873zm.951 18.164a.87.87 0 0 1-.872.869.87.87 0 0 1 0-1.739.87.87 0 0 1 .872.87zm-.515-25.62c0-.482.39-.87.874-.87a.87.87 0 1 1 0 1.739.87.87 0 0 1-.874-.869zm9.596 19.416l-.555-1.021c-.313.17-.665.275-1.045.275-.787 0-1.754-.23-2.409-.573-1.316-.7-1.597-.526-1.621-.486-.034.039-.036.174-.03.209.008 1.387-1.05 2.438-2.351 2.438A2.354 2.354 0 0 1 1.4 58.365c0-.84.448-1.573 1.115-1.989l-.562-1.429.674-.261.553 1.408a2.35 2.35 0 0 1 .578-.08l.157.024c.18-.217.563-.905.149-3.529a1.626 1.626 0 0 1 .032-.641l-.966-.643.401-.601.886.59c.02-.026.033-.054.055-.08a2.181 2.181 0 0 1 1.637-.747c1.13 0 2.05.917 2.05 2.043-.05.443-.068 1.545.41 2.086.304.336.793.412 1.469.23.131-.036.27-.052.406-.052 1.136 0 1.929 1.178 1.929 2.233 0 .57-.224 1.085-.583 1.476l.613 1.128-.634.339zm-1.467-4.129c-1.077.277-1.947.083-2.508-.549-.868-.98-.686-2.64-.662-2.826-.004-.497-.462-.951-1.023-.951-.323 0-.648.146-.852.387a.673.673 0 0 0-.174.549c.348 2.217.241 3.62-.332 4.287a1.144 1.144 0 0 1-.87.419l-.154-.016a1.33 1.33 0 0 0-1.297 1.324c0 .727.597 1.319 1.328 1.319.732 0 1.329-.592 1.329-1.319-.008 0-.086-.549.261-.96.153-.182.442-.399.954-.399.499 0 1.136.209 1.942.636.508.269 1.3.454 1.925.454.646 0 1.173-.525 1.173-1.169-.002-.66-.547-1.368-1.04-1.186zm-.226 1.889a.7.7 0 0 1-.706-.708.708.708 0 0 1 1.415 0 .708.708 0 0 1-.709.708zm-3.973-4.406a.707.707 0 0 1 0-1.411c.395 0 .712.317.712.704a.708.708 0 0 1-.712.707zm-2.345 5.848a.708.708 0 1 1-.002-1.416.708.708 0 0 1 .002 1.416zM2.003 75.679l-.118-1.158.718-.07.116 1.148c.052-.002.095-.014.147-.014.627 0 1.311.122 1.977.355.896.316 1.679.803 2.206 1.375.606.656.818 1.36.598 1.98-.186.527-.676.892-1.349 1.074l.116 1.146-.717.071-.112-1.108c-.092.005-.171.026-.267.026a6.047 6.047 0 0 1-1.97-.355c-1.282-.455-2.293-1.233-2.702-2.083-.21-.438-.247-.881-.107-1.272.196-.559.724-.948 1.464-1.115zm-.427 1.944c.285.593 1.116 1.202 2.117 1.553.555.198 1.116.3 1.625.3.712 0 1.245-.205 1.358-.521.084-.241-.059-.593-.386-.944-.409-.443-1.061-.846-1.79-1.098a4.97 4.97 0 0 0-1.634-.301c-.711 0-1.243.205-1.355.521-.048.135-.026.301.065.49zm2.717-.276c.714.249 1.186.759 1.051 1.134-.133.379-.82.478-1.534.229-.71-.253-1.181-.762-1.047-1.138.129-.375.815-.478 1.53-.225zm6.827 6.057a.872.872 0 1 1 0 0zm2.444-6.974a.872.872 0 1 1 0 1.745.872.872 0 0 1 0-1.745zm43.018-52.386a1.084 1.084 0 0 1-.625-1.968c5.108-3.576 11.826-8.345 11.826-8.345l1.26 1.762s-6.725 4.777-11.837 8.353c-.19.135-.408.198-.624.198zm13.605-7.274a1.098 1.098 0 0 1 1.533-.107c.453.391.501 1.075.109 1.529l-6.417 7.35a1.087 1.087 0 0 1-1.532.106 1.082 1.082 0 0 1-.105-1.529l6.412-7.349zm3.071 2.367l1.923 1.011c-.002 0-3.664 6.935-6.506 12.47a1.082 1.082 0 0 1-.967.589 1.081 1.081 0 0 1-.967-1.577c2.85-5.543 6.517-12.493 6.517-12.493zm3.542 1.588a1.068 1.068 0 0 1 1.304-.807c.585.139.946.719.809 1.305l-2.232 9.483a1.084 1.084 0 0 1-1.304.806 1.084 1.084 0 0 1-.809-1.304l2.232-9.483zm6.109 14.904a1.084 1.084 0 0 1-1.074 1.094h-.012a1.085 1.085 0 0 1-1.086-1.07c-.074-6.227-.113-14.249-.113-14.249l2.172-.008s.04 8.013.113 14.233z" class="cls-1"/></svg>