<svg id="Layer_1" data-name="Layer 1" xmlns="http://www.w3.org/2000/svg" viewBox="0 0 88 88"><defs><style>.cls-1{fill:url(#Безымянный_градиент)}.cls-2{fill:#fff}</style><linearGradient id="Безымянный_градиент" x1="7.47" y1="-525.1" x2="80.53" y2="-618.61" gradientTransform="matrix(1 0 0 -1 0 -527.85)" gradientUnits="userSpaceOnUse"><stop offset="0" stop-color="#00adef"/><stop offset="1" stop-color="#37f4c5"/></linearGradient></defs><title>Монтажная область 21sky_air</title><path class="cls-1" d="M88 82a6 6 0 0 1-6 6H6a6 6 0 0 1-6-6V6a6 6 0 0 1 6-6h76a6 6 0 0 1 6 6z"/><path class="cls-2" d="M40 38.9l18.9-23.5H47.7L57.9-.3H44.2L35 22h9.8L40 38.9zM50.4 51.3H37.6L31 67.8h9.8L36 84.7l18.9-23.6H43.7l6.7-9.8zM33 49.7h2.5L32 40.5h-2.6l-3.6 9.2h2.5l.6-1.6h3.3zm-3.2-3.4l1-2.9 1 2.9zM36.3 40.5v5.2c0 1.2 0 2.3 1 3.2a4.21 4.21 0 0 0 3 1 4.8 4.8 0 0 0 3.1-1 4.25 4.25 0 0 0 1-3.2v-5.2H42v4.8c0 1.2-.1 2.5-1.6 2.5s-1.6-1.3-1.6-2.5v-4.8zM49.5 49.7v-7.2h2v-2h-6.4v2h2v7.2h2.4zM57 40.2a4.85 4.85 0 0 0-5.1 4.7A4.94 4.94 0 0 0 57 50a4.88 4.88 0 0 0 5.1-5.1c.1-2.7-2.4-4.7-5.1-4.7zm0 7.5a2.67 2.67 0 0 1-2.6-2.7 2.55 2.55 0 0 1 2.6-2.4 2.62 2.62 0 0 1 2.6 2.4 2.49 2.49 0 0 1-2.6 2.7z"/></svg>