<svg height="64" overflow="visible" viewBox="0 0 18.348 16.532" width="76" xmlns="http://www.w3.org/2000/svg" xmlns:xlink="http://www.w3.org/1999/xlink"><defs><path id="a" d="M0 .001h18.348v16.531H0z"/><clipPath id="b"><use xlink:href="#a"/></clipPath></defs><path clip-path="url(#b)" d="M9.172 15.961s3.055-6.146 3.345-6.661c.288-.507 5.313-2.201 5.545-2.448.346-.38-2.201-5.611-2.391-5.83-.192-.225-1.28-.732-2.041-.19-1.291.91-.669 1.975.063 2.612.263.225.896-.064 1.214.155.317.226.889 1.785.698 1.884-.189.092-.67-.86-1.75-.571-1.086.282-1.021 1.367-1.021 1.367s-1.623.319-2.23.319c-.601 0-.733-.126-.699-.798.028-.67 1.914-1.015 1.94-3.119C11.88.226 9.172.254 9.172.254S6.462.226 6.497 2.681C6.525 4.785 8.409 5.13 8.437 5.8c.035.672-.092.798-.698.798-.607 0-2.23-.319-2.23-.319s.062-1.085-1.016-1.367c-1.086-.289-1.567.663-1.757.571-.19-.099.388-1.658.706-1.884.317-.219.945.07 1.206-.155.734-.637 1.357-1.702.064-2.612-.762-.542-1.849-.035-2.039.19-.19.219-2.738 5.45-2.386 5.83.227.247 5.258 1.941 5.539 2.448.29.516 3.346 6.661 3.346 6.661z" fill="none" stroke="#fff" stroke-width=".508"/></svg>