<svg xmlns="http://www.w3.org/2000/svg" width="61" height="64"><defs><linearGradient id="a" gradientUnits="userSpaceOnUse" x1="18" y1="113" x2="131"><stop offset="0" stop-color="#00adef"/><stop offset="1" stop-color="#31ecbe"/></linearGradient></defs><path fill="url(#a)" d="M57.992 64.001H3.007a3.001 3.001 0 0 1-3.006-2.989V26.144a3.001 3.001 0 0 1 3.006-2.989h26.491V.989c0-.55.448-.996 1.001-.996a.999.999 0 0 1 1.002.996v22.166h26.491a3 3 0 0 1 3.005 2.989v34.868a3 3 0 0 1-3.005 2.989zm1.002-37.857a1 1 0 0 0-1.002-.996H3.007a1 1 0 0 0-1.002.996v9.09h56.989v-9.09zm0 11.083H2.005v23.785a1 1 0 0 0 1.002.996h54.985a1 1 0 0 0 1.002-.996V37.227zm-7.14 15.815H22.671a3 3 0 0 1-3.005-2.989v-4.482a3 3 0 0 1 3.005-2.989h29.183a3 3 0 0 1 3.006 2.989v4.482a3 3 0 0 1-3.006 2.989zm1.002-7.471a1 1 0 0 0-1.002-.997H22.671a1 1 0 0 0-1.002.997v4.482a1 1 0 0 0 1.002.997h29.183a1 1 0 0 0 1.002-.997v-4.482zm-41.457 7.471c-2.901 0-5.26-2.346-5.26-5.23 0-2.884 2.359-5.23 5.26-5.23s5.261 2.346 5.261 5.23c0 2.884-2.36 5.23-5.261 5.23zm0-8.468c-1.795 0-3.256 1.453-3.256 3.238s1.461 3.238 3.256 3.238c1.796 0 3.257-1.453 3.257-3.238s-1.461-3.238-3.257-3.238z"/></svg>