<svg xmlns="http://www.w3.org/2000/svg" width="88" height="88" viewBox="0 0 88 88"><defs><linearGradient id="a" x1="0%" x2="61.566%" y1="0%" y2="78.801%"><stop offset="0%" stop-color="#00ADEF" stop-opacity=".8"/><stop offset="44%" stop-color="#1CD1DA" stop-opacity=".8"/><stop offset="100%" stop-color="#37F4C5" stop-opacity=".8"/></linearGradient></defs><path fill="url(#a)" d="M6.989 0h72.022a8 8 0 0 1 8 8v72a8 8 0 0 1-8 8H6.989a8 8 0 0 1-8-8V8a8 8 0 0 1 8-8z"/><path fill="#FFF" fill-rule="evenodd" d="M43.5 27.369h10.8a2.188 2.188 0 0 0 0-4.375H43.5a2.188 2.188 0 0 0 0 4.375zm30.337-4.253h-10.8a2.188 2.188 0 0 0 0 4.375h10.8a2.188 2.188 0 0 0 .001-4.374zm-15.492 32.1H37.353L26.805 27.6h8.626a2.283 2.283 0 0 0 0-4.566h-22.18a2.283 2.283 0 0 0 0 4.566h8.918l11.687 30.6a2.16 2.16 0 0 0 2.016 1.4h22.474V66l15.285-8.74-15.285-8.683v6.639z"/></svg>