<svg xmlns="http://www.w3.org/2000/svg" preserveAspectRatio="xMidYMid" width="40.094" height="57.07" viewBox="0 0 40.094 57.07"><defs><style>.cls-1{fill:#fff;fill-rule:evenodd}</style></defs><path d="M36.725 53.617v3.435h-2.944v-3.435h-3.379v-2.993h3.379v-3.435h2.944v3.435h3.378v2.993h-3.378zM26.99 32.211H13.235l-2.637 6.778H.015L14.78-.01h10.889l14.434 38.999H29.478l-2.488-6.778zm-6.761-20.174h-.115L16.01 24.45h8.286l-4.067-12.413zM3.395 47.189h2.943v3.435h3.38v2.993h-3.38v3.435H3.395v-3.435H.015v-2.993h3.38v-3.435zm15.194 0h2.944v3.435h3.379v2.993h-3.379v3.435h-2.944v-3.435h-3.381v-2.993h3.381v-3.435z" class="cls-1"/></svg>