<svg xmlns="http://www.w3.org/2000/svg" width="68" height="62"><defs><linearGradient id="a" gradientUnits="userSpaceOnUse" x1="18" y1="113" x2="131"><stop offset="0" stop-color="#00adef"/><stop offset="1" stop-color="#31ecbe"/></linearGradient></defs><path fill="url(#a)" d="M68.872 29.587c-.121.464-.629.754-1.08.622l-2.37-.647-3.886 2.292 3.886 2.294 2.378-.652a.889.889 0 0 1 1.072.623.878.878 0 0 1-.613 1.076l-.72.199.614.361c.41.245.553.783.319 1.198a.895.895 0 0 1-1.2.326l-.587-.348.191.728a.885.885 0 0 1-.617 1.075.851.851 0 0 1-1.074-.626l-.643-2.437-3.864-2.281v4.583l1.749 1.786a.892.892 0 0 1 0 1.238.891.891 0 0 1-1.245 0l-.504-.516v.703c0 .485-.392.88-.873.88a.879.879 0 0 1-.875-.88v-.703l-.504.516a.893.893 0 0 1-1.243.003.894.894 0 0 1-.001-1.239l1.748-1.788V33.39l-3.864 2.281-.643 2.44a.878.878 0 0 1-1.072.625.885.885 0 0 1-.616-1.077l.191-.726-.587.345c-.4.237-.97.086-1.201-.324a.887.887 0 0 1 .317-1.193l.616-.367-.721-.199a.88.88 0 0 1 .459-1.699l2.379.652 3.886-2.294-3.886-2.292-2.379.648c-.442.125-.953-.161-1.073-.623a.882.882 0 0 1 .613-1.075l.722-.199-.616-.363a.891.891 0 0 1-.318-1.196.896.896 0 0 1 1.204-.326l.585.345-.191-.726a.882.882 0 0 1 .615-1.075.888.888 0 0 1 1.076.625l.64 2.44 3.864 2.281v-4.583l-1.748-1.787a.893.893 0 0 1 0-1.237.888.888 0 0 1 1.244 0l.504.514v-.7a.88.88 0 0 1 .875-.881c.481 0 .873.396.873.881v.7l.505-.514c.326-.339.912-.339 1.244 0a.89.89 0 0 1 0 1.237l-1.749 1.787v4.583l3.864-2.283.643-2.438a.88.88 0 0 1 1.074-.625.882.882 0 0 1 .617 1.071l-.191.729.584-.344a.897.897 0 0 1 1.203.324.893.893 0 0 1-.319 1.198l-.616.362.722.2c.462.127.74.608.613 1.075zm-10.068-16.22h-6.967v-1.995h8.969v7.074h-2.002v-5.079zm-14.264.021h-.012l-2.392-.029a1 1 0 0 1-.99-1.009c.007-.551.411-1 1.013-.985l2.393.028a.999.999 0 0 1 .989 1.009 1 1 0 0 1-1.001.986zm-4.336-6.499a1 1 0 0 1-.698.282.995.995 0 0 1-.698-1.711l1.714-1.664a1.003 1.003 0 0 1 1.416.018.997.997 0 0 1-.018 1.411l-1.716 1.664zm-.353 8.258c-1.169 2.686-3.812 4.294-6.581 4.294a7.151 7.151 0 0 1-2.838-.588h-.001c-3.622-1.567-5.291-5.777-3.719-9.384 1.571-3.608 5.796-5.27 9.419-3.707 3.622 1.566 5.29 5.776 3.72 9.385zm-4.517-7.556c-2.61-1.129-5.654.071-6.785 2.671-1.133 2.6.069 5.633 2.68 6.761 2.61 1.127 5.655-.071 6.786-2.669 1.131-2.601-.071-5.635-2.681-6.763zm-1.933-3.229h-.013a1 1 0 0 1-.988-1.01L32.432.97a1 1 0 0 1 1.014-.985 1 1 0 0 1 .987 1.011l-.031 2.382a1 1 0 0 1-1.001.984zm-6.627 2.677a.998.998 0 0 1-.718-.302l-1.667-1.709a.995.995 0 0 1 .02-1.41 1.005 1.005 0 0 1 1.416.02l1.667 1.709a.995.995 0 0 1-.718 1.692zm-1.604 5.366a.999.999 0 0 1-1 .985h-.012l-2.392-.028a1 1 0 0 1-.989-1.008 1 1 0 0 1 1.001-.986h.012l2.391.028a.999.999 0 0 1 .989 1.009zM5.756 45.19h2.001v5.065h7.018v1.994H5.756V45.19zm2.001-26.744H5.756v-7.074h9.019v1.995H7.757v5.079zm-.145 3.717c.604.992 5.9 9.782 5.9 13.131 0 3.712-3.03 6.731-6.756 6.731-3.725 0-6.755-3.019-6.755-6.731 0-3.349 5.296-12.139 5.9-13.131.363-.594 1.348-.594 1.711 0zM6.756 40.03c2.622 0 4.754-2.124 4.754-4.736 0-1.843-2.641-7.009-4.754-10.654-2.113 3.647-4.754 8.812-4.754 10.654 0 2.612 2.133 4.736 4.754 4.736zm18.341-18.787a.995.995 0 0 1-.698-1.712l1.715-1.664a1.003 1.003 0 0 1 1.415.019.995.995 0 0 1-.018 1.41l-1.716 1.664a.997.997 0 0 1-.698.283zm7.789 3.528h-.014a1 1 0 0 1-.988-1.011l.032-2.382c.007-.552.478-1.02 1.014-.985a1 1 0 0 1 .988 1.011l-.032 2.382a1 1 0 0 1-1 .985zm7.609-3.653l-1.669-1.709a.994.994 0 0 1 .02-1.41 1.005 1.005 0 0 1 1.415.02l1.668 1.709a.994.994 0 0 1-.019 1.409 1 1 0 0 1-1.415-.019zM29.962 46.105a17.356 17.356 0 0 1 2.094 1.742c.152-.055.308-.093.465-.129.217-.762.33-1.615.335-2.596.005-.909-.341-1.911-.687-2.432-.334-.506-.399-1.05-.18-1.495a1.238 1.238 0 0 1 1.034-.681c.531-.062 3.815.711 5.262 1.716 1.704 1.189 1.837 3.623.318 5.791a17.354 17.354 0 0 1-1.798 2.141c.027.083.05.168.071.253.755.207 1.6.315 2.57.322.899-.007 1.918-.339 2.441-.683.5-.332 1.044-.397 1.493-.183.396.191.654.574.692 1.027.048.554-.724 3.824-1.724 5.248-.622.887-1.597 1.375-2.748 1.375h-.02c-.99-.005-2.071-.381-3.044-1.059a17.092 17.092 0 0 1-2.094-1.737l-.079.022c-.224.772-.342 1.637-.348 2.633-.006.909.34 1.912.686 2.432.455.689.31 1.228.183 1.489a1.245 1.245 0 0 1-1.025.689l-.056.001c-.695 0-3.83-.755-5.216-1.718-1.705-1.188-1.839-3.623-.319-5.792a17.263 17.263 0 0 1 1.63-1.967c-.036-.098-.057-.199-.084-.299-.804-.246-1.708-.377-2.762-.384-.895.03-1.918.339-2.439.683-.357.235-.674.31-.934.31a1.234 1.234 0 0 1-1.252-1.148c-.047-.585.71-3.808 1.723-5.253 1.192-1.698 3.636-1.831 5.812-.318zm7.721 8.724c.642.447 1.32.695 1.907.698.462-.02.871-.174 1.117-.523.421-.601.812-1.756 1.067-2.693-.752.271-1.556.443-2.34.419a12.276 12.276 0 0 1-2.654-.291 3.611 3.611 0 0 1-.448.915c-.057.081-.128.147-.191.223.422.389.943.835 1.542 1.252zm-2.254-6.556c.084.058.15.131.227.195.401-.427.866-.963 1.306-1.59.734-1.046 1.03-2.418.176-3.013-.605-.421-1.763-.809-2.702-1.063.271.747.426 1.574.422 2.332a11.98 11.98 0 0 1-.306 2.706c.303.107.601.24.877.433zm-.738 3.939a1.654 1.654 0 0 0-.408-2.305 1.67 1.67 0 0 0-2.315.408 1.655 1.655 0 0 0 .411 2.304c.364.253.805.348 1.243.274a1.645 1.645 0 0 0 1.069-.681zm-4.957 6.426c.6.418 1.76.806 2.701 1.061a6.833 6.833 0 0 1-.421-2.332c.005-.952.106-1.809.285-2.606a3.644 3.644 0 0 1-1.067-.508c-.045-.031-.079-.072-.122-.105-.385.418-.806.913-1.201 1.476-.734 1.047-1.031 2.418-.175 3.014zm-2.669-8.801c1.026.006 1.945.117 2.792.322a3.61 3.61 0 0 1 .47-.986l.001-.001c.03-.043.068-.074.099-.115a14.485 14.485 0 0 0-1.612-1.317c-1.049-.731-2.427-1.028-3.024-.174-.419.597-.809 1.753-1.065 2.69.751-.27 1.6-.416 2.339-.419zm31.739-4.647h2.002v7.059h-8.969v-1.994h6.967V45.19z"/></svg>