<svg xmlns="http://www.w3.org/2000/svg" width="75" height="43"><defs><linearGradient id="a" gradientUnits="userSpaceOnUse" x1="18" y1="113" x2="131"><stop offset="0" stop-color="#00adef"/><stop offset="1" stop-color="#31ecbe"/></linearGradient></defs><path fill="url(#a)" d="M74.373 16.635L62.774 28.123c-.313.31-.726.481-1.163.481a1.65 1.65 0 0 1-1.657-1.638v-5.215C46.174 19.46 40.894 9.582 38.896 1.616A1.281 1.281 0 0 1 39.13.505c.491-.621 1.549-.646 2.062-.023 4.421 5.36 10.401 7.956 18.762 8.133V3.352a1.65 1.65 0 0 1 1.657-1.638c.437 0 .849.171 1.162.48l11.6 11.48c.398.394.62.919.62 1.479 0 .559-.22 1.086-.62 1.482zm-1.312-1.66L61.81 3.839v6.625h-.928c-8.484 0-14.761-2.258-19.548-7.073 2.309 7.087 7.606 14.952 19.679 16.662l.797.114v6.312l11.251-11.145a.247.247 0 0 0 .076-.18.245.245 0 0 0-.076-.179zM37.495 43.03a.923.923 0 0 1-.928-.919V21.919c0-.508.415-.919.928-.919.513 0 .928.411.928.919v20.192a.923.923 0 0 1-.928.919zM15.036 21.751v5.215c0 .46-.184.883-.519 1.193a1.671 1.671 0 0 1-1.138.445 1.64 1.64 0 0 1-1.164-.481L.616 16.634a2.067 2.067 0 0 1-.618-1.481c0-.559.22-1.085.619-1.48L12.216 2.195c.313-.31.726-.481 1.163-.481a1.65 1.65 0 0 1 1.657 1.638v5.263c8.361-.177 14.34-2.773 18.761-8.133.513-.623 1.571-.597 2.062.023.247.314.332.719.235 1.111-1.999 7.966-7.277 17.844-21.058 20.135zm-.928-11.287h-.928V3.839L1.929 14.974a.246.246 0 0 0-.075.18c0 .049.012.119.074.18L13.18 26.48v-6.313l.797-.114c12.072-1.71 17.37-9.575 19.678-16.662-4.787 4.814-11.064 7.073-19.547 7.073zm16.934 11.359a.929.929 0 0 1 1.846.191c-.041.386-1.085 9.539-9.121 16.978a.925.925 0 0 1-.633.247.928.928 0 0 1-.678-.291.913.913 0 0 1 .044-1.299c7.509-6.953 8.532-15.738 8.542-15.826zm11.58-.818a.932.932 0 0 1 1.02.818c.01.088 1.032 8.873 8.542 15.826a.913.913 0 0 1 .044 1.299.926.926 0 0 1-.678.291.925.925 0 0 1-.633-.247c-8.037-7.439-9.081-16.592-9.121-16.978a.922.922 0 0 1 .826-1.009z"/></svg>