<svg xmlns="http://www.w3.org/2000/svg" width="58.989" height="51.851" viewBox="0 0 58.989 51.851"><linearGradient id="a" gradientUnits="userSpaceOnUse" y1="25.925" x2="58.989" y2="25.925"><stop offset="0" stop-color="#008abf"/><stop offset=".374" stop-color="#15a5af"/><stop offset=".748" stop-color="#24b9a3"/><stop offset="1" stop-color="#2ac09f"/></linearGradient><path fill-rule="evenodd" clip-rule="evenodd" fill="url(#a)" d="M50.647 20.001l5.72-2.355.77 1.847-5.72 2.356-.77-1.848zm-5.676-7.269l4.37-4.358 1.424 1.413-4.37 4.358-1.424-1.413zM29.338 44.267c-7.883 0-14.297-6.379-14.297-14.219 0-7.497 12.889-28.702 13.437-29.601.366-.597 1.356-.597 1.719 0 .549.899 13.438 22.105 13.438 29.601 0 7.84-6.414 14.219-14.297 14.219zm0-41.344c-2.923 4.944-12.286 21.239-12.286 27.126 0 6.737 5.512 12.218 12.286 12.218s12.286-5.481 12.286-12.218c0-5.889-9.363-22.184-12.286-27.126zm6.283 28.272a.7.7 0 0 1 .843.49.697.697 0 0 1-.484.845l-.565.155.482.284a.695.695 0 0 1 .25.937.704.704 0 0 1-.943.257l-.462-.271.149.569a.69.69 0 0 1-.482.842.67.67 0 0 1-.845-.491l-.503-1.913-3.036-1.788v3.595l1.374 1.4a.7.7 0 0 1 0 .971.7.7 0 0 1-.979 0l-.395-.402v.549a.69.69 0 0 1-.687.69.69.69 0 0 1-.689-.69v-.549l-.395.402a.697.697 0 0 1-.975.002.7.7 0 0 1-.003-.972l1.373-1.401v-3.595l-3.035 1.788-.503 1.915a.693.693 0 0 1-.844.491.696.696 0 0 1-.485-.846l.15-.569-.459.271a.707.707 0 0 1-.944-.255.695.695 0 0 1 .248-.937l.485-.285-.566-.157a.69.69 0 0 1-.485-.843.696.696 0 0 1 .844-.49l1.868.511 3.055-1.799-3.055-1.797-1.868.511a.706.706 0 0 1-.844-.489.694.694 0 0 1 .483-.845l.567-.156-.485-.285a.697.697 0 0 1-.248-.939.703.703 0 0 1 .946-.254l.458.27-.149-.569a.692.692 0 0 1 .484-.844.701.701 0 0 1 .845.491l.502 1.915 3.035 1.788V25.11l-1.373-1.402a.7.7 0 0 1 0-.969.696.696 0 0 1 .978-.001l.395.401v-.547a.69.69 0 0 1 .689-.691.69.69 0 0 1 .687.691v.55l.396-.404a.697.697 0 0 1 .978 0 .699.699 0 0 1 0 .97l-1.374 1.402v3.593l3.036-1.79.504-1.913a.696.696 0 0 1 .845-.491.693.693 0 0 1 .483.843l-.15.57.458-.27a.707.707 0 0 1 .947.253.697.697 0 0 1-.25.939l-.485.283.568.159c.362.099.58.476.484.845a.698.698 0 0 1-.849.485l-1.864-.507-3.054 1.797 3.054 1.799 1.869-.51zM8.225 50.356l4.369-4.357 1.424 1.412-4.369 4.357-1.424-1.412zM8.08 9.787l1.422-1.414 4.373 4.35-1.422 1.414-4.373-4.35zm-.333 12.062l-5.716-2.356.77-1.847 5.716 2.355-.77 1.848zm-1.56 8.911L0 30.759V28.76l6.187.001v1.999zm2.153 9.462l-5.719 2.356-.77-1.848 5.719-2.355.77 1.847zm42.569 10.215l-1.422 1.413-4.375-4.349 1.422-1.414 4.375 4.35zm.333-12.062l5.718 2.355-.77 1.848-5.718-2.356.77-1.847zm1.559-9.616l6.188.003-.002 2-6.188-.004.002-1.999z"/></svg>