<svg xmlns="http://www.w3.org/2000/svg" width="62" height="63"><defs><linearGradient id="a" gradientUnits="userSpaceOnUse" x1="18" y1="113" x2="131"><stop offset="0" stop-color="#00adef"/><stop offset="1" stop-color="#31ecbe"/></linearGradient></defs><path fill="url(#a)" d="M60.993 29.525a.997.997 0 0 1-.995-1c0-14.627-11.857-26.527-26.431-26.527-14.347 0-26.052 11.538-26.409 25.855h4.529a1.001 1.001 0 0 1 .862 1.499L7.2 38.655a.992.992 0 0 1-1.725 0L.126 29.352a1.004 1.004 0 0 1 0-.999.997.997 0 0 1 .863-.5h4.177C5.524 12.434 18.122-.001 33.567-.001c15.672 0 28.422 12.797 28.422 28.526 0 .553-.445 1-.996 1zm-58.28.327l3.625 6.304 3.625-6.304h-7.25zm16.12 6.643h.003l9.333.033v-.206a13.807 13.807 0 0 1-7.866-12.496c0-7.634 6.187-13.845 13.791-13.845s13.791 6.211 13.791 13.845a13.846 13.846 0 0 1-7.633 12.365v.384l10.046.037c.468.002.871.33.97.789l4.301 20.076a.997.997 0 0 1-.913 1.399h-7.297a.999.999 0 0 1-.909-.59l-2.319-5.179v8.894a.997.997 0 0 1-.995.999H25.172a.997.997 0 0 1-.996-.999v-8.267l-1.713 4.386a.996.996 0 0 1-.927.635h-7.279a.996.996 0 0 1-.971-1.22l4.576-20.262a.996.996 0 0 1 .971-.778zm2.024 20.261l3.387-8.674a1.005 1.005 0 0 1 1.112-.618 1 1 0 0 1 .811.983v12.554H42.14V48.447c0-.472.327-.879.787-.977a.987.987 0 0 1 1.117.566l3.958 8.841h5.402l-3.915-18.27-10.236-.036a.999.999 0 0 1-.992-1v-2.015a1 1 0 0 1 .593-.914 11.84 11.84 0 0 0 7.039-10.816c0-6.532-5.294-11.846-11.799-11.846-6.506 0-11.799 5.314-11.799 11.846a11.81 11.81 0 0 0 7.253 10.925 1 1 0 0 1 .612.923v1.857c0 .265-.105.52-.292.708-.188.188-.466.254-.707.292l-9.534-.035-4.123 18.26h5.353z"/></svg>