<svg xmlns="http://www.w3.org/2000/svg" preserveAspectRatio="xMidYMid" width="68.188" height="72" viewBox="0 0 68.188 72"><defs><style>.cls-1{fill:#fff;fill-rule:evenodd}</style></defs><path d="M65.563 16.242H62.04c-.767 0-1.444-.35-1.926-.889l-1.48.842c.195.101.35.277.428.507a.905.905 0 0 1-.546 1.144l-13.201 4.658a.819.819 0 0 1-.286.051.88.88 0 0 1-.832-.609.906.906 0 0 1 .547-1.144l12.532-4.424a.905.905 0 0 1-.354-.577l-13.641.14h-.01a.891.891 0 0 1-.879-.894.891.891 0 0 1 .87-.91l14.662-.152h.01c.218 0 .42.082.574.219l.923-.525c-.002-.05-.028-.092-.028-.143V3.464c0-1.496 1.183-2.71 2.637-2.71h3.523c1.455 0 2.637 1.214 2.637 2.71v10.072c0 1.492-1.182 2.706-2.637 2.706zm.878-12.778c0-.5-.394-.906-.878-.906H62.04c-.483 0-.878.406-.878.906v10.072c0 .496.395.902.878.902h3.523a.892.892 0 0 0 .878-.902V3.464zM42.814 27.802c.006.23.224 5.704 5.886 8.87 4.283 2.401 8.42 2.813 10.399 2.862l.021-1.909 4.663 2.819-4.722 2.709.019-1.808c-2.164-.043-6.574-.485-11.222-3.088-6.582-3.681-6.797-10.139-6.803-10.412a.888.888 0 0 1 .857-.917c.007-.005.015-.005.023-.005.474 0 .864.391.879.879zm.608 9.799c4.789 4.76 12.068 5.431 12.141 5.439a.893.893 0 0 1 .803.972.888.888 0 0 1-.874.828c-.024 0-.05 0-.074-.004-.322-.028-7.969-.722-13.22-5.938-4.489-4.475-5.029-11.967-5.086-14.413l-2.002-.099 2.913-4.658 2.476 4.923-1.619-.08c.075 2.333.631 9.134 4.542 13.03zM29.69 32.423a24.492 24.492 0 0 1-10.702 4.636c-.817.137-1.594.195-2.329.195-5.918 0-9.125-3.939-9.273-4.127a.914.914 0 0 1 .125-1.265.868.868 0 0 1 1.236.125c.143.176 3.597 4.373 9.959 3.291 4.812-.803 8.324-3.083 9.916-4.293l-1.128-1.52 5.373-.714-2.106 5.114-1.071-1.442zm.986-10.071a.86.86 0 0 1-.631-.274l-4.071-4.286a.913.913 0 0 1 .018-1.273.857.857 0 0 1 1.242.015l4.072 4.287a.915.915 0 0 1-.017 1.273.863.863 0 0 1-.613.258zm-6.281-3.042l2.863 5.127a.91.91 0 0 1-.328 1.229.849.849 0 0 1-.436.122.877.877 0 0 1-.763-.453l-2.862-5.126a.912.912 0 0 1 .327-1.23.862.862 0 0 1 1.199.331zm-3.711 1.734l1.652 6.145a.905.905 0 0 1-.614 1.109.883.883 0 0 1-1.082-.633l-1.651-6.145a.905.905 0 0 1 .614-1.109.885.885 0 0 1 1.081.633zm-3.707.382l.164 6.485a.892.892 0 0 1-.857.926h-.023a.892.892 0 0 1-.879-.879l-.164-6.484c-.012-.5.371-.915.856-.926.423-.008.89.383.903.878zm-4.155-1.241c.467.14.735.64.598 1.121l-1.649 5.809a.884.884 0 0 1-.843.648.87.87 0 0 1-.246-.035.906.906 0 0 1-.598-1.121l1.649-5.809a.883.883 0 0 1 1.089-.613zm16.511-5.294H1.757C.79 14.891 0 14.079 0 13.087V1.8C0 .812.79-.003 1.757-.003h27.576c.967 0 1.758.815 1.758 1.803v11.287c0 .992-.791 1.804-1.758 1.804zm-3.706-3.577c.269.481.711 1.265.98 1.738.264.476.709.476.974 0 .269-.473.71-1.257.975-1.738.272-.476.052-.862-.487-.862h-1.954c-.539 0-.756.386-.488.862zm-24.409-.101c.004.555.444 1 .983 1h.007l19.947-.156a.996.996 0 0 0 .975-1.015.996.996 0 0 0-.983-1h-.008l-19.946.156a.995.995 0 0 0-.975 1.015zm25.99-7.906H3.743c-.967 0-1.786.812-1.816 1.804l-.032.906c-.035.991.732 1.799 1.699 1.799h23.47c.963 0 1.786-.808 1.816-1.799l.032-.906c.03-.992-.737-1.804-1.704-1.804zM1.521 22.691a.879.879 0 0 1-.606-.245.92.92 0 0 1-.032-1.277l4.016-4.342a.865.865 0 0 1 1.244-.034.92.92 0 0 1 .032 1.276L2.159 22.41a.865.865 0 0 1-.638.281zm7.533-3.439c.42.246.569.796.327 1.23l-2.694 4.849a.875.875 0 0 1-.763.457.891.891 0 0 1-.437-.118.914.914 0 0 1-.327-1.23l2.694-4.848a.867.867 0 0 1 1.2-.34zM3.702 31.911c1.459 1.793 5.974 6.814 11.392 7.416 6.638.777 12.778-3.314 12.841-3.354a.86.86 0 0 1 1.217.262.911.911 0 0 1-.253 1.245c-.248.168-5.65 3.744-12.119 3.744-.616 0-1.245-.031-1.877-.101-6.216-.694-11.135-6.27-12.647-8.167L.612 34.143.125 28.63l4.904 2.323-1.327.958zm14.762 34.784c2.251 0 2.477-2.311 2.477-3.502 0-2.706-1.748-2.776-2.761-2.776h-.621v-4.329h.621c.452 0 2.253-.145 2.253-2.815 0-2.241-1.211-2.675-1.944-2.675-1.183 0-2.169 1.156-2.11 2.675H11.45c.791-7.692 5.522-7.976 7.096-7.976 3.296 0 6.7 1.983 6.7 6.89 0 2.601-1.064 4.588-2.897 5.162v.109c1.633.578 3.52 2.413 3.52 6.493 0 4.802-2.899 8.05-7.521 8.05-6.533 0-7.207-6.86-7.293-8.843h4.93c-.029 1.226.335 3.537 2.479 3.537zm19.287-5.512h-9.578v-5.556h9.578v5.556zm20.245-2.534c0 6.781-3.067 12.626-10.133 12.626h-7.212V46.019h7.212c8.105 0 10.133 6.965 10.133 12.63zm-11.822-6.571v13.138h.62c5.459 0 5.516-5.271 5.516-6.567 0-1.41-.057-6.571-5.516-6.571h-.62zm1.936-23.503a.876.876 0 0 1-.717-.379.916.916 0 0 1 .207-1.257l11.731-8.569a.864.864 0 0 1 1.226.21.914.914 0 0 1-.206 1.257l-11.731 8.57a.854.854 0 0 1-.51.168zm13.249-8.718a.917.917 0 0 1 .24 1.253l-8.068 12.326a.874.874 0 0 1-.729.398.87.87 0 0 1-.489-.152.916.916 0 0 1-.241-1.253l8.068-12.326a.871.871 0 0 1 1.219-.246zM58.815 36.54a.92.92 0 0 1-.267-.043.91.91 0 0 1-.571-1.133l4.254-13.68a.887.887 0 0 1 1.104-.585.908.908 0 0 1 .572 1.132l-4.254 13.68a.884.884 0 0 1-.838.629zm6.445-15.336c.423-.071.884.394.889.894l.147 14.434c.004.5-.411.816-.879.909a.891.891 0 0 1-.88-.894l-.147-14.433c-.003-.496.385-.906.87-.91z" class="cls-1"/></svg>