<svg xmlns="http://www.w3.org/2000/svg" width="60" height="62"><defs><linearGradient id="a" gradientUnits="userSpaceOnUse" x1="18" y1="113" x2="131"><stop offset="0" stop-color="#00adef"/><stop offset="1" stop-color="#31ecbe"/></linearGradient></defs><path fill="url(#a)" d="M58.984 6.531l-.333-2.876-13.378 13.288-7.788-7.482-7.545 7.494-7.66-7.61-7.668 7.617L-.014 2.13 1.421.734l13.205 13.393L26.541 2.29l-2.789-.318.23-1.982 5.698.65.656 5.663-1.995.228-.333-2.876L23.7 7.934l6.24 6.2L41.863 2.29l-2.79-.318.23-1.982 5.698.65.656 5.663-1.995.228-.333-2.876-4.424 4.395 6.345 6.096L57.184 2.29l-2.789-.318.229-1.982 5.698.65.656 5.663-1.994.228zm-1.531 55.464H4.236V20.266h53.217v41.729zm-2.008-39.734H6.244v37.738h49.201V22.261zm-29.396 2.814c8.861 0 16.069 7.164 16.069 15.968 0 8.803-7.208 15.964-16.069 15.964-8.861 0-16.069-7.161-16.069-15.964 0-8.804 7.208-15.968 16.069-15.968zm0 29.937c7.753 0 14.061-6.266 14.061-13.969 0-7.704-6.308-13.972-14.061-13.972s-14.061 6.268-14.061 13.972c0 7.703 6.308 13.969 14.061 13.969zm-4.243-20.175a21.757 21.757 0 0 1 2.699 2.25c.264-.108.541-.191.828-.245.302-1.004.462-2.128.469-3.426.007-1.06-.362-2.36-.896-3.161-.503-.754-.349-1.336-.213-1.615.2-.411.606-.68 1.084-.719.59-.038 4.593.83 6.415 2.095 2.009 1.395 2.151 4.282.339 6.867a21.238 21.238 0 0 1-2.318 2.726c.068.19.124.384.165.585.997.289 2.112.443 3.401.451h.034c1.179 0 2.472-.446 3.149-.89.756-.497 1.341-.346 1.622-.212.414.199.685.6.725 1.074.049.572-.832 4.564-2.105 6.376-.749 1.063-1.921 1.6-3.243 1.6-1.168 0-2.454-.418-3.671-1.265a21.45 21.45 0 0 1-2.677-2.231c-.122.043-.248.08-.373.112-.309 1.01-.473 2.144-.481 3.458-.008 1.058.361 2.359.897 3.164.501.752.349 1.332.213 1.61-.2.412-.605.683-1.083.722-.015.002-.033.002-.053.002-.735 0-4.591-.863-6.365-2.097-2.01-1.397-2.151-4.285-.336-6.865a21.236 21.236 0 0 1 2.119-2.53 4.286 4.286 0 0 1-.19-.625c-1.063-.341-2.254-.52-3.642-.528-1.184.022-2.503.443-3.182.89-.4.262-.752.345-1.035.345a1.3 1.3 0 0 1-1.316-1.205c-.048-.578.838-4.571 2.108-6.377 1.407-1.996 4.314-2.138 6.912-.336zm9.635 10.856c1.367.951 3.238 1.406 4.117.156.627-.891 1.174-2.663 1.483-3.892-1.015.428-2.191.683-3.23.683h-.046c-1.279-.008-2.422-.146-3.472-.403-.13.451-.319.887-.598 1.283a4.26 4.26 0 0 1-.364.446 18.756 18.756 0 0 0 2.11 1.727zm-2.369-7.782a18.79 18.79 0 0 0 1.812-2.171c.953-1.359 1.41-3.219.158-4.089-.9-.624-2.683-1.168-3.92-1.475.437 1.021.695 2.209.689 3.252-.008 1.3-.15 2.463-.423 3.528.436.131.858.312 1.241.578.162.112.301.246.443.377zm-1.022 4.465a2.272 2.272 0 0 0 .382-1.722 2.288 2.288 0 0 0-.953-1.485 2.313 2.313 0 0 0-1.734-.38 2.298 2.298 0 0 0-.922 4.156 2.329 2.329 0 0 0 3.227-.569zm-6.372 3.97c-.955 1.358-1.412 3.217-.159 4.087.899.626 2.683 1.169 3.921 1.477-.439-1.024-.698-2.214-.69-3.257.008-1.262.146-2.389.402-3.426a4.304 4.304 0 0 1-1.48-.647c-.116-.081-.209-.18-.314-.269a18.58 18.58 0 0 0-1.68 2.035zM16.54 36.317c-.627.891-1.175 2.662-1.484 3.891 1.026-.433 2.233-.703 3.274-.684 1.347.008 2.551.155 3.651.442a4.26 4.26 0 0 1 .622-1.371c.078-.11.175-.201.261-.304a18.958 18.958 0 0 0-2.209-1.818c-1.366-.948-3.237-1.402-4.115-.156zm33.884 20.526h-2.008V25.919h2.008v30.924z"/></svg>