<svg xmlns="http://www.w3.org/2000/svg" width="24" height="24" viewBox="0 0 24 24"><path fill="#888" d="M8.014.707a.574.574 0 0 0-.883 0C5.317 2.906 1 8.672 1 11.617c0 3.587 2.948 6.506 6.573 6.506 3.624 0 6.573-2.918 6.573-6.506-.001-2.946-4.339-8.736-6.132-10.91zm-.441 16.287c-2.996 0-5.433-2.412-5.433-5.377 0-2.322 3.585-7.322 5.433-9.65 1.847 2.328 5.433 7.328 5.433 9.65-.001 2.965-2.438 5.377-5.433 5.377z"/><path fill="#888" d="M6.784 5.892a.573.573 0 0 0-.79.157C4.816 7.798 4.003 9.26 3.577 10.395a.563.563 0 0 0 .336.725.572.572 0 0 0 .733-.332c.271-.723.89-2.024 2.296-4.112a.562.562 0 0 0-.158-.784zM6.515 14.557a3.159 3.159 0 0 1-1.69-1.411.573.573 0 0 0-.777-.213.561.561 0 0 0-.216.769A4.297 4.297 0 0 0 6.13 15.62a.572.572 0 0 0 .729-.341.562.562 0 0 0-.344-.722zM18.958 11.824a.574.574 0 0 0-.883 0c-.414.502-4.042 4.963-4.042 7.238 0 2.447 2.011 4.438 4.484 4.438S23 21.509 23 19.062c0-2.275-3.629-6.736-4.042-7.238zm-.442 10.548c-1.844 0-3.344-1.485-3.344-3.31 0-1.502 2.427-4.79 3.344-5.969.922 1.185 3.344 4.47 3.344 5.969 0 1.825-1.5 3.31-3.344 3.31z"/><path fill="#888" d="M17.852 16.285a.574.574 0 0 0-.783.191c-.728 1.192-.994 1.898-1.089 2.281-.075.303.111.609.417.683s.615-.111.69-.413c.05-.202.244-.798.958-1.968a.56.56 0 0 0-.193-.774z"/></svg>