<svg xmlns="http://www.w3.org/2000/svg" preserveAspectRatio="xMidYMid" width="83.812" height="83.97" viewBox="0 0 83.812 83.97"><defs><style>.cls-1{fill:#fff;fill-rule:evenodd}</style></defs><path d="M83.826 72.769l-.355.608c-1.473 2.498-3.628 4.733-6.409 6.649-3.124 2.156-6.297 3.452-9.433 3.853l-.671.086-5.052-7.097a170.034 170.034 0 0 1-3.878-2.206c-3.46 1.284-7.191 2.018-11.102 2.018-17.414 0-31.532-13.894-31.532-31.037 0-17.146 14.118-31.045 31.532-31.045 17.41 0 31.529 13.899 31.529 31.045 0 2.109-.22 4.167-.627 6.158l.371.557c1.25 1.764 2.219 3.311 2.882 4.599l.111.362c.527 4.111.267 7.697-.77 10.67l3.404 4.78zM31.28 33.037l-.807-.77c-1.44 1.461-2.158 3.33-2.023 5.27.136 1.984 1.149 3.79 2.846 5.094l.686-.872c-1.441-1.104-2.299-2.632-2.419-4.296-.111-1.622.495-3.193 1.717-4.426zm8.551-4.717a7.168 7.168 0 0 0-5.575.703l.567.95a6.069 6.069 0 0 1 4.701-.597c1.668.471 3.045 1.595 3.886 3.165l.99-.51c-.981-1.841-2.606-3.161-4.569-3.711zm39.167 29.466c-.615-1.167-1.501-2.564-2.634-4.167-2.793-3.927-4.362-5.404-5.18-5.949-.938-.633-1.704-.621-2.617.007a4.99 4.99 0 0 0-.575.471l-.838.763-.758-.837c-1.592-1.76-3.105-1.936-4.996-.644l-1.816 1.257-.643-.432c-1.536-1.037-3.132-.88-5.031.423l-2.75 1.902-9.398-12.823c-2.39-3.35-4.018-4.057-4.964-4.057-.423 0-.83.138-1.241.424-.614.42-.954.915-1.069 1.563-.18.998.115 2.899 2.534 6.296l1.64 2.301 7.761 11.676 1.01 9.028c4.038 3.17 9.35 6.559 15.786 10.078l.375.33 4.41 6.201c2.562-.447 5.171-1.579 7.773-3.373 2.287-1.575 4.098-3.374 5.387-5.357l-3.248-4.568.216-.546c1.053-2.689 1.344-6.044.866-9.967zM54.424 4.262c-.862-.099-1.548.479-1.82 1.358-.043.161-.095.346-.115.55l-.411 3.523-1.205-.138.522-4.543c.088-.778.156-1.445.188-2.066l1.066.121-.108 1.3.056.008c.403-.852 1.205-1.331 2.023-1.237.14.012.239.04.343.075l-.128 1.135a1.984 1.984 0 0 0-.411-.086zm-9.058 2.113c.04 1.633 1.109 2.293 2.338 2.277.878-.007 1.405-.169 1.864-.365l.219.86c-.427.197-1.161.44-2.243.455-2.075.028-3.331-1.315-3.359-3.326-.02-2.003 1.157-3.597 3.124-3.621 2.199-.027 2.814 1.873 2.821 3.095.008.247-.016.444-.027.565l-4.737.06zm1.855-2.852c-1.241.016-1.767 1.147-1.855 1.991l3.583-.051c0-.77-.347-1.955-1.728-1.94zM40.908.173l1.214-.165 1.376 9.654-1.221.169L40.908.173zm-1.045 10.085L37.756.735l1.201-.256 2.107 9.52-1.201.259zm-3.879 1.17c-1.723.602-3.499-.18-4.209-2.167-.751-2.097.203-3.81 1.967-4.426 1.827-.629 3.531.251 4.217 2.164.831 2.321-.434 3.899-1.975 4.429zm.806-3.974c-.383-1.064-1.396-2.226-2.769-1.751-1.369.475-1.516 1.924-1.089 3.118.495 1.371 1.664 2.129 2.797 1.74 1.105-.389 1.564-1.697 1.061-3.107zm-7.207 2.561l1.605 3.17-1.086.533-2.071-4.096c-.351-.699-.666-1.3-.981-1.834l.957-.467.631 1.147.048-.028c-.128-.931.275-1.759 1.017-2.121.12-.059.22-.086.327-.118l.515 1.026c-.123.027-.243.07-.391.145-.77.381-1.029 1.225-.77 2.113.052.161.108.346.199.53zm-1.153 3.637c.288-.177.435-.303.559-.444l.539.738c-.152.208-.431.475-.83.719-.487.298-.982.377-1.405.251-.491-.125-.914-.557-1.333-1.221l-1.951-3.079-.886.55-.495-.782.886-.546-.659-1.04.823-.939.854 1.355 1.496-.92.491.783-1.488.914 1.923 3.044c.451.699.898.97 1.476.617zm-2.569 2.478l-.938.777-2.511-2.925c-.706-.817-1.6-1.241-2.486-.507-.614.514-.722 1.343-.443 1.995.056.145.168.322.304.479l2.622 3.052-.938.781-3.177-3.704c-.454-.526-.83-.946-1.225-1.339l.834-.691.775.798.016-.024c-.16-.692.036-1.657.89-2.368.71-.593 2.182-1.1 3.675.64l2.602 3.036zm-7.012 6.723c-1.141 1.41-3.073 1.661-4.732.342-1.76-1.395-1.868-3.35-.691-4.78 1.213-1.488 3.137-1.622 4.741-.349 1.947 1.543 1.708 3.542.682 4.787zm-1.436-3.798c-.89-.707-2.379-1.162-3.289-.051-.909 1.112-.263 2.42.743 3.213 1.149.915 2.55.95 3.3.031.738-.899.431-2.25-.754-3.193zm-6.704 4.654c-.786 1.316-.228 2.596.985 3.307 1.345.778 2.682.412 3.364-.726.359-.59.435-1.072.483-1.442l.898.283c-.024.354-.176 1.076-.643 1.842-1.033 1.728-2.909 2.152-4.684 1.119-1.792-1.041-2.363-3-1.237-4.866.367-.62.846-1.072 1.161-1.269l.678.708c-.299.164-.662.479-1.005 1.044zm-.85 7.159L8.39 35.31c1.588.475 2.566-.306 2.945-1.457.276-.825.287-1.363.248-1.861l.897.074c.056.468.044 1.234-.283 2.235-.642 1.948-2.338 2.69-4.274 2.074-1.939-.621-3.092-2.231-2.486-4.077.682-2.062 2.71-2.019 3.887-1.641.243.078.415.161.535.211zm-3.616 1.791c-.383 1.163.539 2.019 1.317 2.369l1.106-3.354c-.743-.256-1.996-.307-2.423.985zm.527 4.784l3.995.55-.168 1.198-3.859-.531c-1.073-.153-2.027.118-2.19 1.25-.112.789.37 1.48 1.013 1.778.148.075.347.13.558.157l4.019.554-.172 1.194-4.872-.668a23.142 23.142 0 0 0-1.819-.196l.151-1.06 1.113.082.004-.028c-.586-.412-1.101-1.26-.949-2.348.131-.911.886-2.25 3.176-1.932zm3.137 8.542l-6.748-.083.016-1.206 6.752.079-.02 1.21zm-8.648.047a.738.738 0 0 1-.754-.766c0-.456.339-.739.774-.73.419-.009.746.294.742.777-.007.424-.343.722-.762.719zm8.679 2.383l-9.896.37-.044-1.206 9.893-.365.047 1.201zM6.02 54.621c.155.031.371.023.578-.012l3.999-.652.207 1.19-4.864.797c-.686.114-1.249.212-1.792.346l-.171-1.061 1.081-.243-.004-.028c-.686-.22-1.432-.879-1.612-1.963-.156-.907.16-2.408 2.442-2.78l3.975-.649.203 1.19-3.839.633c-1.073.172-1.899.71-1.716 1.838.136.785.803 1.299 1.513 1.394zm.287 2.941c3.025-1.131 5.328.079 6.181 2.286.883 2.285-.303 4.563-2.961 5.557-2.793 1.044-5.271.027-6.169-2.29-.91-2.36.339-4.575 2.949-5.553zm-2.003 5.259c.718 1.85 2.805 2.124 4.741 1.402 1.875-.703 3.168-2.337 2.494-4.092-.691-1.772-2.734-2.153-4.725-1.402-1.748.647-3.224 2.23-2.51 4.092z" class="cls-1"/></svg>