<svg xmlns="http://www.w3.org/2000/svg" width="70" height="70"><defs><linearGradient id="a" gradientUnits="userSpaceOnUse" x1="18" y1="113" x2="131"><stop offset="0" stop-color="#00adef"/><stop offset="1" stop-color="#31ecbe"/></linearGradient></defs><path fill="url(#a)" d="M34.997 69.987C15.7 69.987.001 54.288.001 34.99.001 15.693 15.7-.007 34.997-.007c19.298 0 34.997 15.7 34.997 34.997 0 19.298-15.699 34.997-34.997 34.997zm0-68.069c-18.236 0-33.072 14.836-33.072 33.072 0 18.237 14.836 33.073 33.072 33.073 18.237 0 33.073-14.836 33.073-33.073 0-18.236-14.836-33.072-33.073-33.072zm19.552 45.89l-4.477-2.659.433 4.728-2.012.193-.566-6.194-11.918-7.072v14.118l4.943 3.608-1.181 1.711-3.762-2.748v5.325h-2.021v-5.324l-3.764 2.747-1.179-1.711 4.943-3.608V36.804L22.07 43.876l-.565 6.194-2.012-.193.432-4.728-4.477 2.659-1.023-1.822 4.465-2.646-4.179-1.971.854-1.912 5.498 2.592 11.893-7.061-11.893-7.056-5.499 2.592-.853-1.912 4.178-1.971-4.464-2.649 1.023-1.82 4.477 2.66-.432-4.729 2.012-.195.565 6.193 11.918 7.074V19.058l-4.943-3.609 1.179-1.711 3.764 2.745v-5.32h2.021v5.321l3.762-2.746 1.181 1.711-4.943 3.609V33.18l11.918-7.079.566-6.193 2.012.195-.433 4.729 4.477-2.66 1.021 1.82-4.462 2.65 4.178 1.97-.853 1.912-5.498-2.592-11.895 7.056 11.895 7.061 5.498-2.592.853 1.912-4.179 1.971 4.463 2.647-1.021 1.821z"/></svg>