<svg xmlns="http://www.w3.org/2000/svg" width="51" height="47"><defs><linearGradient id="a" gradientUnits="userSpaceOnUse" x1="18" y1="113" x2="131"><stop offset="0" stop-color="#00adef"/><stop offset="1" stop-color="#31ecbe"/></linearGradient></defs><path fill="url(#a)" d="M47.026 36.014l-4.112-8.913h2.881s.114-10.853.114-13.084c0-2.237-1.213-5.074-3.328-6.182l1.123-1.732s4.26 2.938 4.26 8.012v12.986h3.046l-3.984 8.913zm-2.49 4.285s-3.22 3.91-8.762 3.91H21.581v2.792l-9.752-3.663 9.752-3.744v2.637s11.856.1 14.301.1c2.442 0 5.543-1.109 6.755-3.037l1.899 1.005zm-8.823-7.295h-5.416l-1.268-3.423h-7.012l-1.344 3.423h-5.394l7.526-19.694h5.55l7.358 19.694zm-10.13-13.61h-.059l-2.092 6.268h4.223l-2.072-6.268zm3.851-14.621s-11.861-.102-14.303-.102c-2.443 0-5.545 1.112-6.759 3.047L6.479 6.702s3.216-3.908 8.765-3.908h14.19V.005l9.755 3.644-9.755 3.763V4.773zM5.218 19.909s-.114 10.849-.114 13.08c0 2.24 1.217 5.078 3.329 6.187L7.33 40.9s-4.281-2.935-4.281-8.009V19.909H.003l4.002-8.921 4.096 8.921H5.218z"/></svg>