<svg id="Layer_1" data-name="Layer 1" xmlns="http://www.w3.org/2000/svg" viewBox="0 0 88 88"><defs><style>.cls-1{fill:url(#Безымянный_градиент)}.cls-2{fill:#fff}</style><linearGradient id="Безымянный_градиент" x1="7.47" y1="-113.06" x2="80.53" y2="-206.57" gradientTransform="matrix(1 0 0 -1 0 -115.81)" gradientUnits="userSpaceOnUse"><stop offset="0" stop-color="#00adef"/><stop offset="1" stop-color="#37f4c5"/></linearGradient></defs><title>Монтажная область 8sky_air</title><path class="cls-1" d="M88 82a6 6 0 0 1-6 6H6a6 6 0 0 1-6-6V6a6 6 0 0 1 6-6h76a6 6 0 0 1 6 6z"/><path class="cls-2" d="M29.4 38.2a22.24 22.24 0 0 0 5.7-.7 1.08 1.08 0 1 0-.5-2.1A22.31 22.31 0 0 1 12 27.7a1.13 1.13 0 0 0-1.7 1.5 25.68 25.68 0 0 0 19.1 9zM29.3 49.2a36.57 36.57 0 0 0 5.7-.5 1.12 1.12 0 1 0-.4-2.2A31.49 31.49 0 0 1 7.4 38a1.21 1.21 0 0 0-1.6 0 1.21 1.21 0 0 0 0 1.6 34.19 34.19 0 0 0 23.5 9.6zM29.3 26.8a14.23 14.23 0 0 0 5.7-1.2 1.08 1.08 0 0 0-.8-2 12.55 12.55 0 0 1-14.7-3.8 1.13 1.13 0 0 0-1.7 1.5 15.08 15.08 0 0 0 11.5 5.5zM64.7 23.4a1.09 1.09 0 0 0 .9-.4 10.11 10.11 0 0 0 .4-11.2 1.1 1.1 0 0 0-1.9 1.1 7.66 7.66 0 0 1-.3 8.7 1 1 0 0 0 .2 1.5.91.91 0 0 0 .7.3zM80.1 10.6a1.11 1.11 0 1 0-2.1.7c2.2 6.6 1.3 13.4-2.5 18.4a1 1 0 0 0 .2 1.5.84.84 0 0 0 .7.2 1.09 1.09 0 0 0 .9-.4 21.85 21.85 0 0 0 2.8-20.4zM72.1 10.5a1.07 1.07 0 0 0-.6 1.4 14 14 0 0 1-1.4 13.8 1 1 0 0 0 .2 1.5.84.84 0 0 0 .7.2 1.09 1.09 0 0 0 .9-.4 16.18 16.18 0 0 0 1.7-16 1.17 1.17 0 0 0-1.5-.5zM34.7 59.3a36.84 36.84 0 0 1-27.4-6.1A1.08 1.08 0 1 0 6.1 55a39.47 39.47 0 0 0 22.3 7 37.93 37.93 0 0 0 6.7-.6 1.13 1.13 0 0 0 .9-1.3 1.15 1.15 0 0 0-1.3-.8zM34 72.4a37.24 37.24 0 0 1-26.7-5.6 1.08 1.08 0 0 0-1.2 1.8 39.75 39.75 0 0 0 21.7 6.6 37.93 37.93 0 0 0 6.7-.6 1.13 1.13 0 0 0 .9-1.3 1.3 1.3 0 0 0-1.4-.9zM63.4 46.3l-.4-1.1a5.12 5.12 0 1 0-7.2-4.7 5.35 5.35 0 0 0 2.8 4.6l-.4 1.1h-5.8L49 60.4h3.4l2.9-9.5-.1 9.4-4.5 18.5h4.9l4.6-16.4 4.5 16.4h4.1L66 60.4V51l3.3 9.3h3.2l-3.5-14zM54.7 16.5L63 9.8H21.5l7.8 6.7h25.4z"/></svg>