<svg xmlns="http://www.w3.org/2000/svg" width="47" height="54"><defs><linearGradient id="a" gradientUnits="userSpaceOnUse" x1="18" y1="113" x2="131"><stop offset="0" stop-color="#00adef"/><stop offset="1" stop-color="#31ecbe"/></linearGradient></defs><path fill="url(#a)" d="M43.656 53.999H3.988L-.004 43.455l1.866-.713 3.503 9.251h36.828l2.904-9.198 1.903.607-3.344 10.597zM30.637 30.18l.915 1.695c.091.17 2.253 4.226 2.253 8.786 0 4.093-2.618 4.705-4.179 4.705-2.739 0-4.225-1.295-4.544-3.959-.226-1.906.832-3.436 2.169-5.373.801-1.158 1.707-2.47 2.53-4.129l.856-1.725zm-3.572 10.989c.198 1.657.82 2.191 2.561 2.191 1.31 0 2.182-.46 2.182-2.699 0-2.333-.665-4.572-1.23-6.053-.577.965-1.155 1.799-1.686 2.569-1.14 1.651-1.963 2.843-1.827 3.992zm-8.712-8.024l.917 1.697c.092.172 2.257 4.233 2.257 8.793 0 4.098-2.614 4.71-4.172 4.71-2.744 0-4.232-1.297-4.55-3.963-.226-1.904.828-3.432 2.163-5.368.801-1.16 1.707-2.474 2.53-4.14l.855-1.729zm-3.565 10.999c.198 1.661.822 2.195 2.567 2.195 1.306 0 2.176-.46 2.176-2.704 0-2.334-.666-4.574-1.233-6.057-.579.969-1.156 1.806-1.689 2.579-1.137 1.648-1.958 2.839-1.821 3.987zM9.48 27.176V.045l.998-.039h27.338v28.173H9.48v-1.003zm15.163-1.003h11.176v-11.08H24.643v11.08zm0-13.086h11.176V2.012H24.643v11.075zM11.477 26.173h11.17v-11.08h-11.17v11.08zm0-13.086h11.17V2.012h-11.17v11.075z"/></svg>