<svg xmlns="http://www.w3.org/2000/svg" preserveAspectRatio="xMidYMid" width="70" height="51" viewBox="0 0 70 51"><defs><style>.cls-1{fill:#fff;fill-rule:evenodd}</style></defs><path d="M68.914 42.012c-3.118 0-3.17 3.023-3.17 3.422v5.107h-4.265V38.567h4.094v1.562c.122-.173.247-.323.365-.473a4.076 4.076 0 0 1 2.976-1.361c.315 0 .951.075 1.097.098v3.817c-.389-.174-.683-.198-1.097-.198zm-16.578 8.975c-4.875 0-7.041-3.027-7.041-6.445 0-3.374 2.166-6.421 7.041-6.421 4.88 0 7.046 3.047 7.046 6.421 0 3.418-2.166 6.445-7.046 6.445zm0-9.74c-1.705 0-2.631 1.334-2.631 3.295 0 1.985.926 3.323 2.631 3.323 1.71 0 2.635-1.338 2.635-3.323 0-1.961-.925-3.295-2.635-3.295zM37.354 13.766c0-8.699 6.032-13.758 12.978-13.758 2.268 0 4.864.592 7.022 2.079v7.555c-1.316-1.567-3.326-3.131-6.067-3.131-3.951 0-6.551 3.201-6.551 7.48 0 3.938 2.453 7.025 6.551 7.025 2.666 0 4.751-1.449 6.067-2.822v7.396c-2.305 1.602-4.717 1.938-6.911 1.938-7.606 0-13.089-5.431-13.089-13.762zm.384 21.502h4.263v3.299h2.392v3.122h-2.392v8.852h-4.263v-8.852h-1.539v-3.122h1.539v-3.299zm-9.484 15.719c-4.876 0-7.045-3.027-7.045-6.445 0-3.374 2.169-6.421 7.045-6.421 4.876 0 7.045 3.047 7.045 6.421 0 3.418-2.169 6.445-7.045 6.445zm0-9.74c-1.706 0-2.631 1.334-2.631 3.295 0 1.985.925 3.323 2.631 3.323 1.709 0 2.635-1.338 2.635-3.323 0-1.961-.926-3.295-2.635-3.295zm-6.403-14.465h-9.362V.75h9.362c10.53 0 13.161 7.175 13.161 13.016 0 6.989-3.986 13.016-13.161 13.016zM20.46 6.998h-.803v13.537h.803c7.093 0 7.169-5.427 7.169-6.769 0-1.453-.076-6.768-7.169-6.768zm-1.174 35.436v8.107h-4.267v-6.993c0-.372 0-1.859-1.338-1.859-.932 0-1.904.718-1.904 2.435v6.417H7.509v-6.993c0-.372 0-1.859-1.34-1.859-.925 0-1.903.718-1.903 2.435v6.417H.001V38.567h4.265v1.263c1.001-1.113 2.245-1.709 3.708-1.709 1.632 0 2.876.643 3.535 1.835.974-1.239 2.024-1.835 3.728-1.835 3.168 0 4.049 2.427 4.049 4.313z" class="cls-1"/></svg>