<svg xmlns="http://www.w3.org/2000/svg" width="68" height="68"><defs><linearGradient id="a" gradientUnits="userSpaceOnUse" x1="18" y1="113" x2="131"><stop offset="0" stop-color="#00adef"/><stop offset="1" stop-color="#31ecbe"/></linearGradient></defs><path fill="url(#a)" d="M65.749 3.999l.545 2.492-1.897-1.734-2.233 1.283 1.081-2.316-1.922-1.699 2.564.296 1.038-2.329.506 2.495 2.568.264-2.25 1.248zM53.636 25.166c2.925-6.273 2.194-12.423-1.587-17.001 8.421 0 13.054 13.864 1.587 17.001zM41.584 66.012h10.911a1 1 0 0 1 1.007.994 1 1 0 0 1-1.007.995H5.782l-.005.001-.005-.001H1.558a1 1 0 0 1-1.007-.995 1 1 0 0 1 1.007-.994H4.77V33.516l-3.097 2.688a1.014 1.014 0 0 1-1.421-.09.985.985 0 0 1 .091-1.404l21.749-18.88a1.018 1.018 0 0 1 1.277-.043l19.977 15.095c6.887 2.781 11.757 9.464 11.757 17.259 0 8.444-5.714 15.585-13.519 17.871zm-2.104-1.533l.007-14.354c0-1.393-1.216-1.938-2.354-1.984-.772-.031-1.289.321-1.603.621-.53.504-.728 1.103-.728 1.363v5.354a.995.995 0 0 1-.666.936 1.02 1.02 0 0 1-1.118-.304c-.54-.649-1.032-.923-2.546-.851-1.365.07-2.396 1.067-2.396 2.319l-.038 5.101a16.891 16.891 0 0 0 11.442 1.799zM22.801 17.863L6.781 31.77c0 .004.003.007.003.011v34.231h24.102a18.908 18.908 0 0 1-4.204-1.82.985.985 0 0 1-.335-.202c-5.378-3.288-8.98-9.153-8.98-15.849 0-10.281 8.464-18.645 18.868-18.645.721 0 1.43.049 2.131.128L22.801 17.863zm13.434 13.623c-9.294 0-16.854 7.471-16.854 16.655 0 5.393 2.618 10.181 6.653 13.227l.028-3.796c0-2.322 1.851-4.173 4.308-4.3.89-.04 1.687.003 2.419.27v-3.417c0-.922.528-2.02 1.345-2.797a4.202 4.202 0 0 1 3.078-1.175c2.526.101 4.289 1.734 4.289 3.972l-.007 13.829c6.724-2.189 11.596-8.445 11.596-15.813 0-9.184-7.561-16.655-16.855-16.655zm13.057 12.358c-1.137 1.023-3.385 1.659-5.867 1.659-2.629 0-4.938-.696-6.027-1.815a.988.988 0 0 1 .03-1.407c.4-.38 1.037-.368 1.424.029.562.579 2.234 1.203 4.573 1.203 2.241 0 3.881-.572 4.512-1.14a1.016 1.016 0 0 1 1.422.066.986.986 0 0 1-.067 1.405zm-20.18 1.553c-2.629 0-4.938-.696-6.026-1.815a.987.987 0 0 1 .029-1.407c.4-.38 1.036-.368 1.424.029.562.579 2.234 1.203 4.573 1.203 2.242 0 3.881-.572 4.511-1.139a1.017 1.017 0 0 1 1.423.064.987.987 0 0 1-.066 1.406c-1.136 1.024-3.385 1.659-5.868 1.659zm15.633-26.755l-1.894-1.733-2.232 1.282 1.08-2.315-1.922-1.699 2.564.3 1.041-2.333.507 2.495 2.564.264-2.247 1.248.539 2.491zm-17.43-11.14l-1.897-1.734-2.229 1.283 1.077-2.315-1.919-1.703 2.561.3 1.041-2.329.507 2.495 2.567.264-2.25 1.247.542 2.492zM6.982 10.416L5.085 8.683 2.852 9.966l1.081-2.312L2.01 5.952l2.565.299 1.041-2.333.507 2.502 2.564.261L6.44 7.929l.542 2.487zm55.657 22.021l1.041-2.334.506 2.5 2.568.264-2.25 1.247.546 2.488-1.901-1.73-2.233 1.279L62 33.839l-1.922-1.702 2.561.3z"/></svg>