<svg xmlns="http://www.w3.org/2000/svg" width="63" height="63"><defs><linearGradient id="a" gradientUnits="userSpaceOnUse" x1="18" y1="113" x2="131"><stop offset="0" stop-color="#00adef"/><stop offset="1" stop-color="#31ecbe"/></linearGradient></defs><path fill="url(#a)" d="M31.496 62.993C14.122 62.993-.013 48.865-.013 31.5-.013 14.132 14.122.003 31.496.003c17.376 0 31.512 14.129 31.512 31.497 0 17.365-14.136 31.493-31.512 31.493zm1.005-60.955v7.299a1.004 1.004 0 1 1-2.01 0V2.038C15.025 2.559 2.547 15.032 2.023 30.491h7.288a1.005 1.005 0 1 1 0 2.01H2.023c.52 15.46 13 27.935 28.468 28.457v-7.106a1.004 1.004 0 1 1 2.01 0v7.106c15.47-.522 27.951-12.997 28.471-28.457h-7.036a1.005 1.005 0 0 1 0-2.01h7.036C60.448 15.032 47.969 2.559 32.501 2.038zm17.914 20.606l-18.45 9.74a1 1 0 0 1-1.052-.07L16.741 22.228a1.005 1.005 0 1 1 1.166-1.637l13.668 9.727 17.901-9.451a1.005 1.005 0 0 1 .939 1.777zM21.239 45.228c1.797-.945 2.964-1.631 3.499-2.043.816-.636 1.225-1.343 1.225-2.108a1.98 1.98 0 0 0-.701-1.549c-.471-.415-1.141-.625-2.013-.625-1.194 0-2.004.331-2.433.986-.249.379-.395.987-.443 1.808h-3.776c.064-1.239.37-2.242.919-3.002 1.046-1.465 2.905-2.194 5.568-2.194 2.108 0 3.785.429 5.032 1.292 1.245.86 1.867 1.992 1.867 3.394 0 1.084-.44 2.048-1.323 2.881-.577.563-1.531 1.19-2.857 1.877l-1.572.813c-.984.501-1.657.868-2.021 1.101a3.701 3.701 0 0 0-.914.799h8.738v2.5H16.401a5.433 5.433 0 0 1 .891-2.851c.555-.969 1.87-1.995 3.947-3.079zm22.378-8.534v9.072h2.257v2.253h-2.257v3.139h-3.824v-3.139h-7.898v-2.511l7.334-8.814h4.388zm-3.824 9.072v-6.233l-4.999 6.233h4.999z"/></svg>