<svg xmlns="http://www.w3.org/2000/svg" preserveAspectRatio="xMidYMid" width="75.31" height="76.31" viewBox="0 0 75.31 76.31"><defs><style>.cls-1{fill:#fff;fill-rule:evenodd}</style></defs><path d="M38.885 18.528V-.005h36.427v18.533H38.885zm17.876 19.558l-1.175.219c-3.615-10.766-13.478-18.698-25.359-19.558v-.995c12.555.496 23.055 8.9 26.534 20.334zm-17.345.58c2.436 2.054 2.717 5.632.675 8.016l-23.68 27.629c-2.045 2.388-5.662 2.695-8.068.637l-6.308-5.272c-2.41-2.019-2.714-5.628-.671-8.016l23.678-27.632c2.048-2.38 5.662-2.657 8.1-.634l6.274 5.272zM17.338 65.1c.754.637 1.877.526 2.521-.192.644-.748.56-1.885-.194-2.499a1.8 1.8 0 0 0-2.527.199 1.747 1.747 0 0 0 .2 2.492zM7.057 71.013c.755.641 1.906.534 2.521-.219.644-.722.56-1.854-.194-2.495a1.819 1.819 0 0 0-2.526.222c-.642.749-.532 1.854.199 2.492zm-.616-9.764a1.778 1.778 0 0 0 .194 2.503c.756.637 1.906.55 2.522-.196a1.755 1.755 0 0 0-.194-2.499c-.76-.641-1.878-.526-2.522.192zm4.931-5.824a1.817 1.817 0 0 0-2.527.218 1.748 1.748 0 0 0 .2 2.496c.754.642 1.873.53 2.521-.223a1.747 1.747 0 0 0-.194-2.491zm1.538 5.962a1.825 1.825 0 0 0 2.522-.227c.642-.744.531-1.853-.223-2.491-.731-.641-1.879-.53-2.494.223-.647.714-.56 1.854.195 2.495zm18.362-26.86c-1.216-1.006-3.182-.852-4.19.33L13.493 50.729a2.914 2.914 0 0 0-.694 2.166 2.875 2.875 0 0 0 1.03 1.973 3.022 3.022 0 0 0 4.211-.327l13.558-15.864a2.905 2.905 0 0 0-.326-4.15zM19.074 55.413c-1.069 1.252-.495 3.436 1.31 4.98.966.806 2.127 1.267 3.184 1.267.83 0 1.534-.292 1.982-.822l13.591-15.837c1.07-1.267.494-3.44-1.311-4.953-1.718-1.459-4.14-1.686-5.168-.472L19.074 55.413zm18.18-14.693c1.381 1.156 1.932 2.856 1.206 3.712L24.87 60.27c-.356.423-.904.511-1.302.511-.837 0-1.813-.4-2.606-1.06-1.381-1.179-1.933-2.891-1.21-3.74l13.591-15.837c.355-.419.898-.507 1.292-.507.841 0 1.82.403 2.619 1.083zM17.365 53.97a2.13 2.13 0 0 1-1.597.717c-.499 0-.984-.172-1.367-.495a1.997 1.997 0 0 1-.716-1.374 2.057 2.057 0 0 1 .487-1.521L27.76 35.425a2.06 2.06 0 0 1 1.575-.718c.498 0 .983.177 1.363.496a2.02 2.02 0 0 1 .225 2.902L17.365 53.97zm13.368-24.76v-.527c6.413.273 11.797 4.569 13.585 10.428l-.616.111c-1.85-5.521-6.89-9.575-12.969-10.012zm.25-3.11v-.638c8.014.303 14.741 5.686 16.949 13.008l-.756.142c-2.29-6.884-8.629-11.956-16.193-12.512zm-.085-3.525v-.802c10.034.41 18.438 7.125 21.242 16.252l-.954.195c-2.914-8.6-10.789-14.95-20.288-15.645z" class="cls-1"/></svg>