<svg xmlns="http://www.w3.org/2000/svg" preserveAspectRatio="xMidYMid" width="77" height="79" viewBox="0 0 77 79"><defs><style>.cls-1{fill:#fff;fill-rule:evenodd}</style></defs><path d="M74.461 4.58l.615 2.848-2.15-1.983-2.525 1.467 1.225-2.647-2.174-1.945 2.899.342 1.177-2.667.571 2.86 2.907.299-2.545 1.426zm-13.704 24.2c3.312-7.171 2.485-14.204-1.796-19.44 9.526 0 14.768 15.855 1.796 19.44zM52.42 74.728h7.592v4.264H2.019v-4.264h2.67V40.507l-1.879 1.65-2.824-3.208 26.056-22.867 27.354 20.086c.953.598 3.367 2.589 3.367 2.589 4.411 4.095 7.188 9.919 7.188 16.394 0 8.404-4.663 15.737-11.531 19.577zm-10.921-1.377c1.264 0 2.501-.132 3.69-.376l.008-15.542c0-1.602-1.382-2.225-2.67-2.276a2.441 2.441 0 0 0-1.82.71c-.602.578-.831 1.266-.831 1.566v6.16a1.15 1.15 0 0 1-2.04.731c-.614-.745-1.181-1.065-2.898-.973-1.548.079-2.721 1.222-2.721 2.661l-.032 4.754a18.121 18.121 0 0 0 9.314 2.585zM26.27 21.568L8.962 36.757v37.971h21.621c-6.873-3.84-11.532-11.173-11.532-19.577 0-12.358 10.058-22.413 22.432-22.423L26.27 21.568zm27.544 20.206s-1.142-1.214-3.301-2.423c-2.158-1.208-5.733-2.402-9.014-2.402-10.05 0-18.222 8.165-18.222 18.202 0 5.633 2.576 10.676 6.612 14.018l.024-3.165c0-2.681 2.111-4.813 4.907-4.954 1.032-.053 1.922 0 2.756.306v-3.923c0-1.067.599-2.332 1.528-3.227.961-.922 2.281-1.419 3.51-1.35 2.878.11 4.887 1.992 4.887 4.577l-.008 14.885c7.108-2.484 12.232-9.231 12.232-17.167 0-5.293-2.288-10.049-5.911-13.377zm2.56 8.43c-1.292 1.182-3.856 1.916-6.687 1.916-2.997 0-5.632-.801-6.873-2.093a1.154 1.154 0 0 1 .04-1.629 1.148 1.148 0 0 1 1.63.034c.638.667 2.54 1.383 5.203 1.383 2.556 0 4.414-.657 5.131-1.31a1.146 1.146 0 0 1 1.626.073c.434.47.398 1.195-.07 1.626zM33.398 52c-2.997 0-5.632-.804-6.872-2.097a1.153 1.153 0 0 1 .031-1.628 1.157 1.157 0 0 1 1.635.035c.642.667 2.54 1.385 5.206 1.385 2.548 0 4.411-.657 5.128-1.31a1.15 1.15 0 1 1 1.555 1.697C38.79 51.266 36.226 52 33.398 52zm17.305-30.678l-2.147-1.981-2.524 1.465 1.22-2.646-2.173-1.946 2.902.342 1.178-2.665.571 2.856 2.902.301-2.544 1.426.615 2.848zM30.984 8.582l-2.146-1.98-2.524 1.465 1.22-2.645-2.174-1.948 2.903.342 1.177-2.665.572 2.857 2.902.3-2.544 1.426.614 2.848zM7.981 11.919L5.835 9.936l-2.524 1.467 1.224-2.648L2.361 6.81l2.899.343 1.178-2.667.571 2.859 2.906.299L7.367 9.07l.614 2.849zm62.96 25.176l1.178-2.665.574 2.855 2.903.301-2.544 1.426.614 2.849-2.146-1.983-2.525 1.467 1.225-2.648-2.178-1.945 2.899.343z" class="cls-1"/></svg>