<svg xmlns="http://www.w3.org/2000/svg" preserveAspectRatio="xMidYMid" width="76.968" height="81.03" viewBox="0 0 76.968 81.03"><defs><style>.cls-1{fill:#fff;fill-rule:evenodd}</style></defs><path d="M39.72 19.681V.01h37.241v19.671H39.72zM57.995 40.44l-1.201.232c-3.695-11.427-13.779-19.846-25.926-20.759v-1.055c12.836.526 23.571 9.446 27.127 21.582zm-17.732.616c2.49 2.179 2.777 5.978.69 8.508l-24.21 29.325c-2.091 2.535-5.788 2.861-8.248.677L2.046 73.97c-2.465-2.143-2.776-5.974-.686-8.509l24.207-29.328c2.094-2.527 5.789-2.82 8.281-.673l6.415 5.596zM17.691 69.113c.771.676 1.919.558 2.577-.204.658-.795.573-2.001-.198-2.653a1.794 1.794 0 0 0-2.583.212c-.656.795-.571 1.973.204 2.645zM7.18 75.388a1.78 1.78 0 0 0 2.577-.232c.659-.766.573-1.968-.198-2.649a1.815 1.815 0 0 0-2.583.236c-.656.795-.543 1.969.204 2.645zm-.63-10.363c-.662.795-.547 2.005.198 2.657.773.677 1.949.583 2.579-.208.658-.798.573-1.976-.198-2.652-.777-.681-1.921-.559-2.579.203zm5.041-6.182a1.81 1.81 0 0 0-2.583.233 1.903 1.903 0 0 0 .204 2.648c.772.681 1.915.563 2.577-.236a1.903 1.903 0 0 0-.198-2.645zm1.572 6.329a1.82 1.82 0 0 0 2.579-.24c.656-.791.543-1.968-.228-2.645-.747-.68-1.921-.563-2.549.236-.662.758-.573 1.969.198 2.649zm18.774-28.51c-1.243-1.067-3.254-.904-4.284.351L13.76 53.859a3.176 3.176 0 0 0-.71 2.299 3.087 3.087 0 0 0 1.053 2.094 3.017 3.017 0 0 0 1.982.746c.89 0 1.735-.395 2.324-1.092L32.27 41.067a3.116 3.116 0 0 0 .731-2.261 3.126 3.126 0 0 0-1.064-2.144zM19.465 58.831c-1.092 1.329-.505 3.647 1.34 5.286.988.856 2.175 1.344 3.255 1.344.849 0 1.569-.309 2.027-.872l13.894-16.81c1.095-1.345.506-3.651-1.34-5.257-1.756-1.548-4.232-1.789-5.283-.501l-13.893 16.81zm18.587-15.596c1.412 1.227 1.975 3.032 1.233 3.941l-13.894 16.81c-.363.448-.924.542-1.331.542-.856 0-1.853-.424-2.664-1.124-1.411-1.252-1.976-3.069-1.237-3.97l13.895-16.81c.363-.444.918-.538 1.32-.538.861 0 1.862.428 2.678 1.149zM17.719 57.299a2.146 2.146 0 0 1-1.634.762 2.149 2.149 0 0 1-2.129-1.985 2.24 2.24 0 0 1 .498-1.614l13.893-16.846a2.072 2.072 0 0 1 1.609-.762c.51 0 1.006.187 1.394.526.436.378.702.908.746 1.495a2.19 2.19 0 0 1-.516 1.585L17.719 57.299zm13.666-26.281v-.558c6.557.289 12.061 4.849 13.889 11.068l-.63.118c-1.891-5.86-7.044-10.163-13.259-10.628zm.256-3.301v-.676c8.194.322 15.071 6.035 17.329 13.806l-.773.152c-2.342-7.307-8.822-12.691-16.556-13.282zm-.087-3.741v-.851c10.259.436 18.851 7.563 21.718 17.25l-.976.208c-2.98-9.129-11.03-15.869-20.742-16.607z" class="cls-1"/></svg>