<svg xmlns="http://www.w3.org/2000/svg" width="68" height="45"><defs><linearGradient id="a" gradientUnits="userSpaceOnUse" x1="18" y1="113" x2="131"><stop offset="0" stop-color="#00adef"/><stop offset="1" stop-color="#31ecbe"/></linearGradient></defs><path fill="url(#a)" d="M52.408 40.085c-.861 2.338-.87 4.875-.87 4.903l-2.014.008c0-.028-.034-2.593-1.088-4.911H-.001V7.667h32.626c.781-3.839.691-7.235.68-7.576l-.001-.036 2.012-.075.001.034c.014.332.179 3.788 1.13 7.653h31.538v32.418H52.408zm-5.588-4.738c1.12.611 2.057 1.546 2.809 2.754h.022l.061.134c.08.133.17.254.245.394l.478.891.367-.824c.07-.159.154-.295.23-.445l.057-.15h.02c.65-1.238 1.469-2.198 2.456-2.828-.774-.542-1.534-1.342-2.21-2.504h-.019l-.279-.546v-.001l-.226-.445h-1.079a9.933 9.933 0 0 0-.239.443l-.279.549h-.039c-.647 1.097-1.438 1.97-2.375 2.578zm2.29-10.482h-9.895c-1.044 1.559-1.848 3.544-2.401 5.92h11.153c.92-2.147 1.11-4.65 1.143-5.92zM2.013 38.101h45.141c-1.04-1.118-2.38-1.667-4.056-1.667h-.002l-.131.001-.015-1.984.127-.001c1.517-.026 2.736-.579 3.69-1.681h-10.34c-.381 2.384-.381 4.179-.381 4.199l-2.014.008c0-.019-.017-1.832-.49-4.207H2.013v5.332zm0-7.316h31.05c-.686-2.395-1.674-4.38-2.948-5.92H2.013v5.92zm0-7.904h25.938c-1.686-1.142-3.695-1.719-5.999-1.719-.115.018-.151.002-.225.002l-.016-1.984.224-.002c2.395-.039 4.389-.767 6.042-2.211H2.013v5.914zm0-13.23v5.332h27.722c1.008-1.441 1.815-3.228 2.41-5.332H2.013zm32.676-.738l-.149-.553-.12.52c-.543 2.344-1.318 4.389-2.31 6.103l-.098.151-.943 1.42-.011.016-.314.397c-1.116 1.362-2.41 2.395-3.874 3.095 1.56.619 2.949 1.56 4.155 2.819h.011l.3.336.012.013 1.165 1.505.09.13c.972 1.471 1.743 3.216 2.327 5.191.482-1.971 1.125-3.714 1.94-5.191l.041-.063.96-1.51v-.001l.313-.41c1.06-1.33 2.29-2.322 3.685-2.973-1.267-.667-2.415-1.649-3.438-2.941h-.012l-.301-.41-.002-.002-.867-1.328-.151-.244c-.971-1.694-1.778-3.728-2.409-6.07zm31.282.738H36.999c.664 2.113 1.488 3.9 2.461 5.332h26.511V9.651zm0 7.316H41.143c1.471 1.352 3.16 2.014 5.116 2.014v1.984c-2.098 0-3.857.63-5.329 1.916h25.041v-5.914zm0 7.898H51.189c.126 1.309.475 3.801 1.409 5.92h13.373v-5.92zm0 7.904H53.778c.869 1.053 1.902 1.569 3.129 1.569v1.984c-1.442 0-2.587.585-3.469 1.779h12.533v-5.332z"/></svg>