<svg xmlns="http://www.w3.org/2000/svg" viewBox="0 0 53.4 51.78"><defs><style>.cls-1{fill:none}.cls-2{clip-path:url(#clip-path)}.cls-3{fill:url(#linear-gradient)}.cls-4{fill:#32b2d9}</style><clipPath id="clip-path"><path class="cls-1" d="M25.06 27.35c-2.07-1.7-4.48-1.72-6.24-2.88s-2.38-2.4-2.38-3.95a4.33 4.33 0 0 1 2.38-3.95c1.76-1.16 4.16-1.18 6.24-2.87a4.24 4.24 0 0 0 1.62-3.37c.56.71 7.88 10 16 10.2-8.12.21-15.43 9.49-16 10.21a4.23 4.23 0 0 0-1.62-3.37M43 0c-8.55 0-16.26 10.14-16.34 10.25H16.32C7.75 10.25 0 20.51 0 20.51s7.75 10.26 16.32 10.26h10.34C26.73 30.87 34.45 41 43 41h10.34a4.32 4.32 0 0 0-1.63-3.43c-2.08-1.69-4.48-1.71-6.24-2.87s-2.38-2.4-2.38-3.95c0-1.55.56-2.75 2.38-4s4.16-1.17 6.24-2.87a4.41 4.41 0 0 0 0-6.84c-2.08-1.7-4.48-1.72-6.24-2.87s-2.38-2.4-2.38-4c0-1.55.56-2.76 2.38-4S49.63 5 51.71 3.3A4.32 4.32 0 0 0 53.34 0z"/></clipPath><linearGradient id="linear-gradient" x1="-183.59" y1="487.97" x2="-182.59" y2="487.97" gradientTransform="matrix(-61.37 0 0 61.37 -11205.37 -29925.5)" gradientUnits="userSpaceOnUse"><stop offset="0" stop-color="#aedbec"/><stop offset=".08" stop-color="#a2d7ea"/><stop offset=".22" stop-color="#83cde5"/><stop offset=".4" stop-color="#51bcde"/><stop offset=".5" stop-color="#32b2d9"/><stop offset=".84" stop-color="#1873ad"/><stop offset="1" stop-color="#0d599b"/></linearGradient></defs><title>Ресурс 2</title><g id="Слой_2" data-name="Слой 2"><g id="Layer_1" data-name="Layer 1"><path class="cls-2 cls-3" d="M0 0h53.4v41.03H0z"/><path class="cls-4" d="M36.74 45.64a1.58 1.58 0 0 0-1.17.51 1.61 1.61 0 0 0-2.78 1.13v4.49h.89v-4.48a.73.73 0 1 1 1.45 0v4.49H36v-4.49a.73.73 0 1 1 1.45 0v4.49h.89v-4.49a1.63 1.63 0 0 0-1.61-1.65M16.54 48.26H16a.15.15 0 0 1-.15-.16v-1.42a.15.15 0 0 1 .15-.15h.54a.75.75 0 0 1 .76.73v.29a.75.75 0 0 1-.76.72m.91.62a1.63 1.63 0 0 0 .74-1.33v-.3a1.64 1.64 0 0 0-1.65-1.61H15v6.14h.89V49.3a.15.15 0 0 1 .15-.15h.44a.17.17 0 0 1 .2.14v.07l.6 2.26v.15h.92zM48.56 48.26H48a.16.16 0 0 1-.15-.16v-1.42a.16.16 0 0 1 .15-.15h.54a.75.75 0 0 1 .75.73v.29a.74.74 0 0 1-.75.72m.91.62a1.61 1.61 0 0 0 .73-1.33v-.3a1.63 1.63 0 0 0-1.64-1.61H47v6.14h.89V49.3a.15.15 0 0 1 .15-.15h.44a.17.17 0 0 1 .2.14v.07l.6 2.26v.15h.92zM22.58 46.52h1.58v-.89h-1.58a1.64 1.64 0 0 0-1.65 1.61v2.92a1.64 1.64 0 0 0 1.65 1.61h1.58v-.89h-1.58a.75.75 0 0 1-.75-.72v-.31a.74.74 0 0 1 .75-.71h1v-.89h-1a.74.74 0 0 1-.75-.72v-.3a.75.75 0 0 1 .75-.73M42.7 46.52h1.58v-.89H42.7a1.64 1.64 0 0 0-1.64 1.61v2.92a1.64 1.64 0 0 0 1.64 1.61h1.58v-.89H42.7a.76.76 0 0 1-.76-.72v-.31a.75.75 0 0 1 .76-.71h1v-.89h-1a.75.75 0 0 1-.76-.72v-.3a.76.76 0 0 1 .76-.73M4.66 51.78a1.6 1.6 0 0 1-1.58-1.61V50H4v.16a.72.72 0 0 0 .7.72.75.75 0 0 0 .75-.72v-.3a.74.74 0 0 0-.68-.72H4.6a1.62 1.62 0 0 1-1.52-1.6v-.29a1.63 1.63 0 0 1 1.64-1.61 1.6 1.6 0 0 1 1.58 1.61v.15h-.88v-.15a.72.72 0 0 0-.7-.72.74.74 0 0 0-.75.72v.29a.75.75 0 0 0 .69.72h.14a1.63 1.63 0 0 1 1.5 1.6v.3a1.63 1.63 0 0 1-1.64 1.61M10.2 51.78h.88v-5.11a.15.15 0 0 1 .16-.15h1v-.88H9v.88h1a.15.15 0 0 1 .16.15zM29.2 48.11a.16.16 0 0 1-.15.16h-1.14a.16.16 0 0 1-.16-.16v-.82a.76.76 0 0 1 .72-.76.75.75 0 0 1 .72.76zm-.72-2.47a1.63 1.63 0 0 0-1.61 1.65v4.49h.88V49.3a.16.16 0 0 1 .16-.15H29a.16.16 0 0 1 .15.15v2.47h.89v-4.48a1.64 1.64 0 0 0-1.62-1.65"/></g></g></svg>