<svg xmlns="http://www.w3.org/2000/svg" width="74" height="57"><defs><linearGradient id="a" gradientUnits="userSpaceOnUse" x1="18" y1="113" x2="131"><stop offset="0" stop-color="#00adef"/><stop offset="1" stop-color="#31ecbe"/></linearGradient></defs><path fill="url(#a)" d="M72.329 55.284c-1.114 1.164-2.529 1.747-4.25 1.747-1.72 0-3.132-.579-4.233-1.738-1.103-1.16-1.655-2.56-1.655-4.201 0-1.629.557-3.026 1.671-4.191 1.113-1.165 2.53-1.746 4.25-1.746 1.72 0 3.132.579 4.234 1.738 1.102 1.16 1.653 2.56 1.653 4.2.001 1.63-.557 3.027-1.67 4.191zm-.983-7.555c-.867-.918-1.955-1.378-3.267-1.378-1.312 0-2.395.456-3.25 1.37-.855.913-1.281 2.037-1.281 3.371 0 1.324.433 2.445 1.298 3.363.866.919 1.953 1.379 3.266 1.379 1.312 0 2.395-.457 3.249-1.37.854-.914 1.282-2.037 1.282-3.372.001-1.323-.432-2.444-1.297-3.363zm-15.635-8.83a.94.94 0 0 1-.561-.186.92.92 0 0 1-.181-1.294c4.752-6.231 5.848-14.586 2.861-21.806C53.151 4.305 40.073-1.119 28.673 3.521c-5.522 2.247-9.831 6.495-12.133 11.958a21.852 21.852 0 0 0-.056 16.964 22.158 22.158 0 0 0 2.855 4.975.92.92 0 0 1-.18 1.294.94.94 0 0 1-1.304-.179 24.028 24.028 0 0 1-3.093-5.389c-2.456-5.933-2.435-12.46.06-18.378 2.494-5.918 7.161-10.518 13.143-12.953 12.349-5.026 26.518.849 31.586 13.098 3.236 7.823 2.049 16.873-3.097 23.622a.933.933 0 0 1-.743.366zM5.209 56.834H3.886V46.549H0v-1.198h9.095v1.198H5.209v10.285zm11.048-4.889c0 1.236.312 2.191.935 2.863.623.673 1.491 1.009 2.605 1.009 1.092 0 1.946-.324 2.564-.969.617-.645.926-1.586.926-2.821V45.35h1.306v6.578c0 1.641-.436 2.898-1.306 3.774-.871.874-2.046 1.312-3.522 1.312-1.468 0-2.635-.435-3.507-1.304-.87-.869-1.306-2.097-1.306-3.683V45.35h1.306v6.595h-.001zm3.493-36.066l3.737 1.537a.92.92 0 0 1 .504 1.206.933.933 0 0 1-1.217.499l-3.737-1.536a.921.921 0 0 1-.504-1.207.934.934 0 0 1 1.217-.499zm3.025 13.06a.932.932 0 0 1 1.216.5.92.92 0 0 1-.505 1.206l-3.739 1.535a.931.931 0 0 1-1.216-.501.917.917 0 0 1 .505-1.204l3.739-1.536zm-5.892-4.538c0-.51.416-.923.931-.923h4.048c.514 0 .931.413.931.923a.927.927 0 0 1-.931.923h-4.048a.926.926 0 0 1-.931-.923zM22.904 9.89a.933.933 0 0 1 1.316 0l2.86 2.837a.92.92 0 0 1 0 1.306.935.935 0 0 1-1.316 0l-2.859-2.839a.914.914 0 0 1-.001-1.304zm6.539-4.338a.934.934 0 0 1 1.216.499l1.549 3.711a.92.92 0 0 1-.504 1.205.93.93 0 0 1-1.215-.499l-1.549-3.71a.92.92 0 0 1 .503-1.206zM39.78 46.5c.596.59.894 1.355.894 2.296 0 .919-.287 1.662-.861 2.231-.573.569-1.334.941-2.282 1.116l3.555 4.691h-1.604l-3.357-4.462h-3.307v4.462h-1.307V45.351h4.978c1.422 0 2.519.383 3.291 1.149zm-6.962.049v4.658h3.556c.882 0 1.598-.212 2.151-.639.55-.426.826-1.012.826-1.755 0-.711-.262-1.266-.786-1.666-.523-.398-1.249-.598-2.174-.598h-3.573zm3.293-37.207V5.327c0-.51.416-.923.931-.923.514 0 .93.414.93.923v4.015a.927.927 0 0 1-.93.923.926.926 0 0 1-.931-.923zm6.855 1.697a.934.934 0 0 1-.356-.071.92.92 0 0 1-.503-1.206l1.548-3.707a.934.934 0 0 1 1.217-.5.92.92 0 0 1 .503 1.206l-1.549 3.708a.93.93 0 0 1-.86.57zm10.062 20.496a.91.91 0 0 1-.359-.072l-12.324-5.112a3.908 3.908 0 0 1-1.683 1.318 3.98 3.98 0 0 1-1.501.295 3.973 3.973 0 0 1-3.674-2.441c-.831-2.008.14-4.311 2.163-5.135a3.978 3.978 0 0 1 3.04.011 3.923 3.923 0 0 1 2.137 2.136c.281.679.353 1.406.237 2.112l12.324 5.112a.921.921 0 0 1 .499 1.209.93.93 0 0 1-.859.567zm-13.924-8.299a2.08 2.08 0 0 0-1.134-1.133 2.102 2.102 0 0 0-1.613-.007 2.087 2.087 0 0 0-1.149 2.726 2.112 2.112 0 0 0 3.89.012v-.001l.001-.001a2.055 2.055 0 0 0 .005-1.596zm18.211.795a.926.926 0 0 1-.931.923h-.001l-4.046-.003a.926.926 0 0 1-.93-.923c0-.511.417-.924.931-.924h.001l4.046.003c.514.001.93.414.93.924zm-9.632-9.67a.928.928 0 0 1-.656-.27.918.918 0 0 1-.002-1.306l2.856-2.841a.937.937 0 0 1 1.316-.002c.364.36.365.945.002 1.306l-2.856 2.842a.935.935 0 0 1-.66.271zm8.097 2.017a.92.92 0 0 1-.503 1.206l-3.739 1.537a.93.93 0 0 1-1.216-.5.92.92 0 0 1 .503-1.206l3.74-1.537a.935.935 0 0 1 1.215.5zm-.643 29.99c.496.514.745 1.138.745 1.87 0 1.247-.612 2.132-1.836 2.658 1.653.492 2.48 1.427 2.48 2.805 0 .974-.38 1.739-1.141 2.296-.76.558-1.781.837-3.059.837h-5.144V45.351h4.928c1.356 0 2.365.338 3.027 1.017zm-6.665 9.301h3.886c.882 0 1.577-.182 2.084-.548.506-.367.761-.879.761-1.534 0-.635-.263-1.122-.786-1.461-.524-.339-1.287-.509-2.291-.509h-3.655v4.052h.001zm0-9.154v3.955h3.424c.804 0 1.449-.182 1.934-.543.486-.36.728-.873.728-1.541 0-.579-.224-1.036-.67-1.369-.447-.334-1.078-.501-1.893-.501h-3.523v-.001z"/></svg>