<svg id="Layer_1" data-name="Layer 1" xmlns="http://www.w3.org/2000/svg" viewBox="0 0 88 88"><defs><style>.cls-1{fill:url(#Безымянный_градиент)}.cls-2{fill:#fff}</style><linearGradient id="Безымянный_градиент" x1="7.47" y1="-527.08" x2="80.53" y2="-620.59" gradientTransform="matrix(1 0 0 -1 0 -529.83)" gradientUnits="userSpaceOnUse"><stop offset="0" stop-color="#00adef"/><stop offset="1" stop-color="#37f4c5"/></linearGradient></defs><title>Монтажная область 23sky_air</title><path class="cls-1" d="M88 82a6 6 0 0 1-6 6H6a6 6 0 0 1-6-6V6a6 6 0 0 1 6-6h76a6 6 0 0 1 6 6z"/><path class="cls-2" d="M42.6 7.7a27.1 27.1 0 1 0 27.1 27.1A27.06 27.06 0 0 0 42.6 7.7zm16.8 43.6a21.27 21.27 0 0 1-15.5 6.2h-.1c-13.1 0-22.3-8.9-22.3-21.5 0-11.5 8.4-19.9 19.9-19.9 10.4 0 18.6 7.8 18.6 17.7a16.62 16.62 0 0 1-16.6 16.6 14.94 14.94 0 0 1-14.9-14.9 13.4 13.4 0 0 1 13.4-13.4 12 12 0 0 1 12 12 10.76 10.76 0 0 1-10.8 10.8 9.71 9.71 0 0 1-9.7-9.7 8.81 8.81 0 0 1 8.8-8.8 7.85 7.85 0 0 1 7.9 7.9 7.23 7.23 0 0 1-7.2 7.2 6.49 6.49 0 0 1-6.5-6.5 5.91 5.91 0 0 1 5.9-5.9 5.22 5.22 0 0 1 3.9 1.7 4.68 4.68 0 0 1 1.4 3.7 4.55 4.55 0 0 1-4.6 4.4 3.67 3.67 0 0 1-3-1.3 3.76 3.76 0 0 1-.9-2.9 3.25 3.25 0 0 1 2.3-2.8 2.38 2.38 0 0 1 2.5 1 1 1 0 1 1-1.7 1.1h-.4a1.25 1.25 0 0 0-.8 1.1 1.69 1.69 0 0 0 .4 1.4 2 2 0 0 0 1.6.6 2.65 2.65 0 0 0 2.6-2.6 3.52 3.52 0 0 0-.9-2.3 3.41 3.41 0 0 0-2.5-1.1 3.9 3.9 0 0 0-3.9 3.9 4.48 4.48 0 0 0 4.5 4.5 5.16 5.16 0 0 0 5.2-5.2 5.93 5.93 0 0 0-6-5.9 6.81 6.81 0 0 0-6.8 6.8A7.81 7.81 0 0 0 43 43a8.81 8.81 0 0 0 8.8-8.8 10.14 10.14 0 0 0-10.1-10.1 11.39 11.39 0 0 0-11.4 11.4 12.93 12.93 0 0 0 12.9 12.9A14.45 14.45 0 0 0 58 33.9c0-9-7.1-15.8-16.6-15.8-10.4 0-17.9 7.5-17.9 17.9 0 11.5 8.4 19.5 20.4 19.5h.1a19.55 19.55 0 0 0 14.1-5.7 23.19 23.19 0 0 0 6.4-16.6c0-10.6-9.1-22-23.7-22a23.69 23.69 0 0 0-15.5 5.3 1 1 0 0 1-1.4-.1A1.07 1.07 0 0 1 24 15a25.5 25.5 0 0 1 16.7-5.8c15.8 0 25.6 12.5 25.6 24a24.74 24.74 0 0 1-6.9 18.1zM16.4 71.6c-.7-.2-1.5-.4-1.5-1.2 0-.5.3-1.1 1.4-1.1a4.42 4.42 0 0 1 2.4 1.1l1.3-2.7a6.51 6.51 0 0 0-4-1.3c-3.1 0-4.6 1.8-4.6 3.9 0 2.8 2.1 3.5 3.1 3.9 1.4.4 2.5.6 2.5 1.8 0 .8-.6 1.1-1.3 1.1a4.85 4.85 0 0 1-3.2-1.7l-1.7 2.8c1.9 1.5 3.2 2.1 4.9 2.1 3.1 0 4.9-1.7 4.9-4.3-.2-3.1-2.3-3.9-4.2-4.4zM21.6 73.4c0 4.2 2.8 6.9 6.7 6.9a6.07 6.07 0 0 0 3.5-1v-3.7a4.51 4.51 0 0 1-3.1 1.4 3.2 3.2 0 0 1-3.3-3.5c0-2.1 1.3-3.7 3.3-3.7a4.11 4.11 0 0 1 3.1 1.6v-3.8a6 6 0 0 0-3.6-1c-3.6-.1-6.6 2.4-6.6 6.8zM43.5 70.8c0-.6-.1-3.9-4.5-3.9h-5.4v13h3.6v-4.3l2.8 4.3h4.4l-3.7-5.2a3.91 3.91 0 0 0 2.8-3.9zm-5.4 1.9h-.9v-3h.9c1.3 0 1.7.8 1.7 1.5s-.4 1.5-1.7 1.5zM52 66.5a6.9 6.9 0 1 0 0 13.8 6.9 6.9 0 1 0 0-13.8zm0 10.6c-1.7 0-3.2-1.2-3.2-3.8s1.5-3.8 3.2-3.8 3.2 1.3 3.2 3.8-1.5 3.8-3.2 3.8zM64.4 66.9h-3.7v13h7.6v-3.1h-3.9v-9.9zM73.4 76.8v-9.9h-3.7v13h7.6v-3.1h-3.9z"/></svg>