<svg xmlns="http://www.w3.org/2000/svg" preserveAspectRatio="xMidYMid" width="64" height="73.97" viewBox="0 0 64 73.97"><defs><style>.cls-1{fill:#fff;fill-rule:evenodd}</style></defs><path d="M20.449 25.877c17.651-.791 22.465-2.374 31.555-6.597l10.965 8.708s-5.807 5.111-10.696 8.975c-14.443-1.321-25.138-5.018-31.824-11.086zm19.319.444l-.816.023v.032l.031 4.364.817-.036-.032-4.383zm2.443-.012l-1.278.056.031 4.364 1.274-.035-.027-4.385zm2.118-.002l-1.536.04.031 4.364 1.536-.019-.031-4.385zm7.405-2.644l.019 2.605-7.029.037v.031l.031 4.364 7.026-.046.016 2.227 6.193-4.933-6.256-4.285zM58.901 6.85h-4.342V4.377h.512c3.47 0 4.397-1.765 4.471-3.099h2.962v17.981h-3.603V6.85zM-.009 32.59V.011h14.951v24.152L8.014 32.59H-.009zM9.53 66.495c3.298-2.353 4.611-3.265 4.611-5.292 0-1.188-.774-2.555-2.524-2.555-2.528 0-2.603 2.05-2.626 3.365H5.513c0-5.853 4.326-6.364 5.952-6.364 3.501 0 6.279 2.031 6.279 5.681 0 3.088-2.036 4.655-3.81 5.843-2.419 1.676-3.685 2.486-4.095 3.319h7.929v3.136H5.31c.125-2.096.277-4.301 4.22-7.133zm48.109-13.854l6.358 21.307s-11.665.129-23.072-.044c-16.741-9.019-28.007-25.596-28.362-39.315 6.697 7.203 24.947 19.232 45.076 18.052zm-7.218 17.608l7.948-.399-2.512-7.093-1.536 2.116-5.706-4.048-.019.023-2.575 3.552 5.713 4.04-1.313 1.809zm-5.748-6.765l2.559-3.58-1.274-.855-2.547 3.572 1.262.863zm-1.724-1.215l2.56-3.582-1.071-.691-2.548 3.57 1.059.703zm-1.992-1.394l2.563-3.583-.68-.449-.02.023-2.547 3.568.684.441z" class="cls-1"/></svg>