<svg xmlns="http://www.w3.org/2000/svg" width="49.989" height="48.338" viewBox="0 0 49.989 48.338"><linearGradient id="a" gradientUnits="userSpaceOnUse" y1="24.169" x2="49.989" y2="24.169"><stop offset="0" stop-color="#008abf"/><stop offset=".374" stop-color="#15a5af"/><stop offset=".748" stop-color="#24b9a3"/><stop offset="1" stop-color="#2ac09f"/></linearGradient><path fill-rule="evenodd" clip-rule="evenodd" fill="url(#a)" d="M47.93 16.124l-6.683-2.042.589-1.914 3.307 1.01A23.212 23.212 0 0 0 26.453 2.03C13.68 1.411 2.782 11.224 2.146 23.931l-2.008-.1C.827 10.022 12.648-.66 26.553.032A25.22 25.22 0 0 1 46.991 12.35l1.075-3.484 1.923.588-2.059 6.67zm-27.258 9.884l-3.033 7.059-1.849-.787 8.32-19.367 1.851.002 4.732 11.091h.147v.344l3.355 7.865-1.851.783-2.982-6.99h-8.69zm4.361-10.148l-3.5 8.146h6.976l-3.476-8.146zM8.742 34.255l-.589 1.914-3.308-1.01a23.21 23.21 0 0 0 18.69 11.149 23.142 23.142 0 0 0 16.703-5.947c4.597-4.141 7.297-9.807 7.604-15.954l2.009.1c-.334 6.68-3.268 12.838-8.263 17.337-4.677 4.214-10.627 6.494-16.875 6.494a25.226 25.226 0 0 1-21.715-12.35l-1.074 3.483L0 38.886l2.057-6.672 6.685 2.041z"/></svg>