<svg xmlns="http://www.w3.org/2000/svg" width="70.013" height="49" viewBox="0 0 70.013 49"><linearGradient id="a" gradientUnits="userSpaceOnUse" y1="24.5" x2="70.013" y2="24.5"><stop offset="0" stop-color="#008abf"/><stop offset=".374" stop-color="#15a5af"/><stop offset=".748" stop-color="#24b9a3"/><stop offset="1" stop-color="#2ac09f"/></linearGradient><path fill-rule="evenodd" clip-rule="evenodd" fill="url(#a)" d="M69.969 14.544L57.441 29.089h12.572L52.342 49H0l12.866-14H.102l12.866-15H.156L16.659 0h53.346L57.161 14.544h12.808zM4.545 46.999h46.909l14.12-15.91h-9.855L52.35 35H15.572L4.545 46.999zm61.036-45h-47.99l-13.202 16h18.697v2h-7.493l-11.15 13h47.002l14.173-16.455H55.395l-3.051 3.455H41.963v-2h9.488l14.13-16zM38.982 27.587H26.066a.996.996 0 0 1-.993-1V15.882c0-.553.445-1 .993-1h1.285v-1.676c0-2.871 2.32-5.206 5.172-5.206s5.173 2.335 5.173 5.206v1.676h1.286c.549 0 .994.447.994 1v10.706a.996.996 0 0 1-.994.999zM35.71 13.206c0-1.768-1.429-3.206-3.186-3.206-1.756 0-3.185 1.438-3.185 3.206v1.676h6.371v-1.676zm2.279 3.675H27.06v8.706h10.929v-8.706zm-5.465 1.825a1.38 1.38 0 0 1 .994 2.332v1.726c0 .553-.445 1-.993 1a.996.996 0 0 1-.993-1v-1.726a1.38 1.38 0 0 1-.38-.95 1.376 1.376 0 0 1 1.372-1.382z"/></svg>