<svg height="36" overflow="visible" viewBox="0 0 101.264 18.155" width="201" xmlns="http://www.w3.org/2000/svg" xmlns:xlink="http://www.w3.org/1999/xlink"><path d="M20.092 13.83h-1.939l1.977-9.323h1.939zM25.92 4.507l2.326 6.484h.025l1.374-6.484h1.81l-1.976 9.323h-1.953L25.15 7.178h-.038L23.7 13.83h-1.811l1.977-9.323zM34.677 4.507l.501 7.062h.025l3.532-7.062h2.016l-5.137 9.323h-1.861l-1.156-9.323zM48.775 4.507l-.334 1.606h-4.943l-.411 1.927h4.532l-.347 1.604H42.74l-.553 2.581h5.15l-.334 1.605h-7.088l1.977-9.323z" fill="#005bab"/><defs><path id="a" d="M0 0h101.264v18.155H0z"/><clipPath id="b"><use xlink:href="#a"/></clipPath></defs><path clip-path="url(#b)" d="M50.417 13.83h-1.939l1.977-9.323h4.75c2.004 0 2.415 1.194 2.415 2.08 0 1.22-.796 2.415-1.952 2.775.488.243.809.461.809 1.231 0 .874-.385 1.938-.385 2.517 0 .257.09.385.27.463l-.051.257h-2.146a2.39 2.39 0 0 1-.025-.347c0-.951.347-1.85.347-2.504 0-.564-.295-.797-1.283-.797h-2.016zm1.104-5.214h2.286c1.284 0 1.811-.693 1.811-1.592 0-.449-.231-.911-1.143-.911h-2.414zM61.651 13.83h-1.94l1.645-7.717h-2.813l.334-1.606h7.563l-.334 1.606h-2.811zM74.401 4.507l-.334 1.606h-4.943l-.413 1.927h4.534l-.347 1.604h-4.532l-.553 2.581h5.148l-.333 1.605h-7.087l1.977-9.323zM76.044 13.83h-1.94l1.978-9.323h4.751c2.004 0 2.414 1.194 2.414 2.08 0 1.22-.797 2.415-1.951 2.775.486.243.809.461.809 1.231 0 .874-.386 1.938-.386 2.517 0 .257.091.385.27.463l-.051.257h-2.144a2.22 2.22 0 0 1-.027-.347c0-.951.348-1.85.348-2.504 0-.564-.295-.797-1.284-.797h-2.017zm1.104-5.214h2.284c1.285 0 1.812-.693 1.812-1.592 0-.449-.231-.911-1.144-.911h-2.414zM6.867 9.169C6.994 4.944 23.229.319 42.721.023 41.739.009 40.75 0 39.749 0 17.796 0 0 1.959 0 8.476c0 4.257 8.383 5.612 16.21 5.05-5.505-.599-9.44-1.134-9.343-4.357" fill="#005bab"/><path clip-path="url(#b)" d="M94.397 8.986c-.126 4.225-16.361 8.85-35.854 9.146.982.015 1.971.023 2.972.023 21.952 0 39.749-1.959 39.749-8.476 0-4.258-8.383-5.612-16.21-5.052 5.505.601 9.441 1.136 9.343 4.359" fill="#005bab"/></svg>