<svg xmlns="http://www.w3.org/2000/svg" preserveAspectRatio="xMidYMid" width="71" height="64.72" viewBox="0 0 71 64.72"><defs><style>.cls-1{fill:#fff;fill-rule:evenodd}</style></defs><path d="M68.949 33.351h-.011a2.061 2.061 0 0 1-2.042-2.066c0-.179-.105-17.942-14.574-27.512a2.065 2.065 0 0 1-.584-2.852 2.07 2.07 0 0 1 2.851-.584c16.361 10.822 16.42 30.156 16.412 30.97a2.05 2.05 0 0 1-2.052 2.044zm-8.756-1.645a2.057 2.057 0 0 1-2.045 1.903c-.055 0-.102 0-.157-.008a2.044 2.044 0 0 1-1.892-2.201c.025-.453.605-11.381-11.031-19.947a2.058 2.058 0 0 1-.438-2.878 2.051 2.051 0 0 1 2.873-.441c13.536 9.971 12.73 23.018 12.69 23.572zm-10.894.668a2.052 2.052 0 0 1-2.052 2.005h-.055a2.06 2.06 0 0 1-1.998-2.111c.004-.339.055-8.518-8.009-12.366a2.06 2.06 0 0 1-.97-2.743 2.059 2.059 0 0 1 2.738-.971c10.521 5.021 10.357 15.734 10.346 16.186zM27.344 35.87v2.191l12.07.048 4.754 22.122h-7.965l-4.616-10.292V64.73H11.942V49.939L7.957 60.096H-.005l5.009-22.119 11.298.044v-2.027a14.005 14.005 0 0 1-8.6-12.936c0-7.737 6.267-14.017 13.995-14.017 7.732 0 13.995 6.28 13.995 14.017 0 5.729-3.437 10.633-8.348 12.812z" class="cls-1"/></svg>