<svg xmlns="http://www.w3.org/2000/svg" width="160" height="100" viewBox="0 0 102.994 78.998"><path d="M112.92 68.96c-4.38 6.82-11.85 10.47-13.27 11.11l-25.67-3.43v2l25.69 3.43h.27l.25-.1c.46-.19 10.12-4.28 15.1-13.06zM67.97 75.84l-59.6-8c7.14-2 16.53-7.6 22.68-22.82s6.79-32 1.7-40.13c16.36 7.19 64.78 28.52 79.87 35.44 4.56 5.35 5.66 13.86 3 22.6h2.08c2.66-9.29 1.32-18.33-3.71-24.07l-.14-.16-.19-.09C95.77 30.39 28.78.96 28.11.66a9.36 9.36 0 0 0-5.48-.53C9.47 2.57 3.35 5.22 3.1 5.33l-.57.25L.02 68.84h1l67 9zM4.46 6.99a106.81 106.81 0 0 1 18.52-4.83 7.12 7.12 0 0 1 7.25 2.66c5.6 6.86 5.15 24.21-1 39.49C21.44 63.56 8.36 66.6 2.11 66.88z"/><path d="M67.97 71.64l-44-7.08c2.86-2.32 8.16-7.21 10.41-13.13 8.66 1.9 20.28 4.61 34.57 8.06 4.88 1.18 9.68 2.35 14.16 3.45h8.36c-6.47-1.6-14.15-3.49-22.05-5.39-14.78-3.57-26.72-6.35-35.48-8.26l-.89-.19-.28.86c-2.55 7.88-11.75 14.33-11.84 14.4l-2 1.41 2.45.4 46.58 7.51zM107.32 68.96h.06a32.19 32.19 0 0 1-8.54 7.64l-24.87-4v2l24.91 4 .35.06.31-.18a33.4 33.4 0 0 0 10.33-9.56z"/><path d="M150.65 54.36l9.21 11.59-9.21 11.6-1.56-1.24 7.42-9.36H72.14v29.04l9.35-7.42 1.24 1.57-11.59 9.2-11.59-9.2 1.24-1.57 9.35 7.42V64.95h86.37l-7.42-9.35 1.56-1.24"/></svg>