<svg xmlns="http://www.w3.org/2000/svg" preserveAspectRatio="xMidYMid" width="174" height="148" viewBox="0 0 174 148"><path d="M173.989 146v1.999H-.006V-.003H2V9.74h6.017V.164H58.16v109.877H8.017v-5.994H2V146h98.279v-7.158h-9.518V.997h74.202v137.845h-9.527V146h18.553zM10.023 102.051v5.992h46.131V2.159H10.023v99.892zm-2.006 0V11.737H2v90.314h6.017zM102.285 146h51.145v-7.158h-51.145V146zm60.672-9.155V2.994H92.766v133.851h70.191zm-7.521-12.821h-55.157v-17.98h55.157v17.98zm-2.006-15.981h-51.145v13.984h51.145v-13.984zm-18.093 4.684a2.878 2.878 0 0 1 2.884 2.873 2.879 2.879 0 0 1-2.884 2.872 2.88 2.88 0 0 1-2.884-2.872 2.879 2.879 0 0 1 2.884-2.873zm0 3.749a.878.878 0 0 0 .878-.876.877.877 0 0 0-1.756 0c0 .482.394.876.878.876zm7.767-3.749a2.878 2.878 0 0 1 2.884 2.873 2.879 2.879 0 0 1-2.884 2.872 2.88 2.88 0 0 1-2.884-2.872 2.879 2.879 0 0 1 2.884-2.873zm0 3.749a.879.879 0 0 0 .879-.876.878.878 0 0 0-1.757 0c0 .482.394.876.878.876zm-33.298-99.5h36.103v2h-36.103v-2zm-91.84 17.148h32.171v1.997H17.966v-1.997zm0-9.988h32.171v1.997H17.966v-1.997zm0-9.988h32.171v1.998H17.966v-1.998z" class="cls-1"/></svg>