<svg height="72" overflow="visible" viewBox="0 0 18.865 18.756" width="76" xmlns="http://www.w3.org/2000/svg" xmlns:xlink="http://www.w3.org/1999/xlink"><defs><path id="a" d="M0 0h18.865v18.756H0z"/><clipPath id="b"><use xlink:href="#a"/></clipPath></defs><path clip-path="url(#b)" d="M9.521.002l-3.18 9.543h3.307v5.184a3.851 3.851 0 0 0 3.486-2.459.396.396 0 0 1 .515-.227.4.4 0 0 1 .226.516 4.642 4.642 0 0 1-4.227 2.965v3.231h9.217V.002zM16.49 4.3a2.944 2.944 0 0 1-2.727 1.864 2.914 2.914 0 0 1-2.726-1.853.399.399 0 0 1 .741-.292 2.122 2.122 0 0 0 1.985 1.35c.872 0 1.67-.545 1.986-1.357a.397.397 0 1 1 .741.288M3.854 11.948l.466 1.344 1.425.029-1.136.862.412 1.361-1.167-.813-1.169.813.412-1.361-1.135-.862 1.425-.029zM4.314 5.073A2.7 2.7 0 0 1 3.027.002L3 0a2.999 2.999 0 1 0 2.34 4.87 2.69 2.69 0 0 1-1.026.203" fill="#fff"/></svg>