<svg xmlns="http://www.w3.org/2000/svg" width="52" height="54"><defs><linearGradient id="a" gradientUnits="userSpaceOnUse" x1="18" y1="113" x2="131"><stop offset="0" stop-color="#00adef"/><stop offset="1" stop-color="#31ecbe"/></linearGradient></defs><path fill="url(#a)" d="M44.64 17.436l5.041-2.054.678 1.611-5.041 2.054-.678-1.611zm-5.002-6.338l3.851-3.799 1.255 1.232-3.851 3.799-1.255-1.232zm-3.917 43.774h-2.235v-3.677l-3.124-6.19h2.534l1.706 4.009 1.709-4.009h2.534l-3.124 6.19v3.677zm-9.859-16.281c-6.947 0-12.599-5.562-12.599-12.397 0-6.535 11.358-25.022 11.841-25.806.322-.52 1.195-.52 1.515 0 .483.784 11.842 19.271 11.842 25.806 0 6.835-5.653 12.397-12.599 12.397zm0-36.044c-2.576 4.31-10.827 18.516-10.827 23.648 0 5.874 4.857 10.652 10.827 10.652 5.969 0 10.826-4.778 10.826-10.652 0-5.134-8.251-19.34-10.826-23.648zM7.128 8.531l1.253-1.233 3.854 3.792-1.253 1.233-3.854-3.792zm-.293 10.516l-5.037-2.054.678-1.611 5.037 2.054-.678 1.611zM5.46 26.815l-5.452-.001v-1.742l5.452.001v1.742zm1.897 8.249l-5.039 2.054-.679-1.611 5.04-2.053.678 1.61zm14.549 14.832c0 3.236-1.599 4.976-4.203 4.976h-3.69v-9.864h3.69c2.631 0 4.203 1.837 4.203 4.888zm-5.657-2.676v5.441h1.059c1.692-.043 2.363-.803 2.363-2.779 0-1.794-.838-2.662-2.363-2.662h-1.059zm14.261.567c0 1.061-.446 2.069-1.344 2.47v.026c.911.252 1.176 1.426 1.25 2.365.023.414.057 1.866.358 2.224h-2.208c-.191-.331-.228-1.299-.252-1.574-.06-.995-.204-2.02-1.25-2.02h-1.696v3.594h-2.235v-9.864h4.377c1.508 0 3 .789 3 2.779zm-5.142-.72v2.222h1.877c.67 0 1.032-.415 1.032-1.161 0-.729-.506-1.061-1.129-1.061h-1.78zm24.835-11.56l-.678 1.611-5.039-2.054.678-1.61 5.039 2.053zm-3.665-10.436l5.453.002-.002 1.744-5.453-.003.002-1.743z"/></svg>