<svg xmlns="http://www.w3.org/2000/svg" width="103" height="44"><defs><linearGradient id="a" x1="0%" x2="70.711%" y1="70.711%" y2="0%"><stop offset="0%" stop-color="#0c90c2"/><stop offset="100%" stop-color="#2dd2ab"/></linearGradient></defs><path fill-rule="evenodd" fill="url(#a)" d="M102 23H69.691l10.185 18.518A.998.998 0 0 1 79.001 43a1 1 0 0 1-.877-.518l-11-20A.999.999 0 0 1 68 21h22V2H13v19h20c.354 0 .681.187.86.491a.996.996 0 0 1 .016.991l-11 20a1 1 0 0 1-1.752-.964L31.309 23H0V0h103v23h-1zM11 2H2v19h9V2zm90 0h-9v19h9V2zM45.389 9.385a1.445 1.445 0 0 1 1.505-.077c.475.256.768.751.768 1.289v3.259l1.285 1.984h2.614l1.285-1.984v-3.259a1.47 1.47 0 0 1 .766-1.288 1.446 1.446 0 0 1 1.505.074A8.87 8.87 0 0 1 59 16.737c0 3.275-2.778 5.785-4.395 6.969l1.005 14.777c.003 1.523-.552 2.891-1.561 3.918A5.281 5.281 0 0 1 50.254 44c-2.955 0-5.359-2.43-5.359-5.417l1.008-14.877c-1.617-1.185-4.395-3.696-4.395-6.969a8.868 8.868 0 0 1 3.881-7.352zm1.504 29.265c.001 1.817 1.508 3.35 3.361 3.35.893 0 1.734-.355 2.367-1 .64-.652.991-1.52.991-2.45L52.57 23.28a1.003 1.003 0 0 1 .44-.897c.935-.631 3.99-2.903 3.99-5.646 0-1.922-.79-3.73-2.154-5.016v2.431c0 .193-.056.382-.161.545l-1.742 2.687a.999.999 0 0 1-.839.456h-3.701a.998.998 0 0 1-.838-.456l-1.742-2.687a1.006 1.006 0 0 1-.161-.545v-2.431a6.882 6.882 0 0 0-2.154 5.016c0 2.741 3.054 5.014 3.991 5.646a1 1 0 0 1 .438.896L46.893 38.65z"/></svg>