<svg xmlns="http://www.w3.org/2000/svg" width="73" height="79"><defs><linearGradient id="a" x1="0%" x2="70.711%" y1="70.711%" y2="0%"><stop offset="0%" stop-color="#0c90c2"/><stop offset="100%" stop-color="#2dd2ab"/></linearGradient></defs><path fill-rule="evenodd" fill="url(#a)" d="M72.837 75.937c-1.707.994-3.409 1.995-5.118 2.986-.074.042-.218.032-.297-.013a305.776 305.776 0 0 1-3.341-1.905c-.135-.078-.23-.083-.368-.002-1.099.644-2.206 1.276-3.306 1.919-.131.077-.222.071-.349-.003-1.693-.986-3.388-1.968-5.086-2.945-.139-.08-.181-.167-.18-.323.013-1.949.022-3.898.024-5.847 0-.172.064-.258.206-.339 1.056-.605 2.106-1.222 3.165-1.822.205-.116.291-.239.288-.488-.015-1.27-.005-2.541-.009-3.811-.001-.15.029-.247.174-.33a760.978 760.978 0 0 0 5.024-2.907c.163-.094.279-.092.439.001a718.69 718.69 0 0 0 5.024 2.906c.151.087.192.183.19.344-.008.647-.003 1.295-.003 1.942 0 .648.006 1.295-.005 1.942-.002.167.051.259.196.341 1.088.614 2.17 1.24 3.259 1.853.147.083.195.176.194.341a445.785 445.785 0 0 0 .04 5.871c.002.138-.04.218-.161.289zm-14.373-2.47c.01-1.034.004-2.069.004-3.104 0-.082-.009-.164-.016-.286-.467.27-.894.511-1.312.767-.05.03-.077.135-.077.205-.005 1.124-.006 2.247.003 3.37a.336.336 0 0 0 .138.243 254.75 254.75 0 0 0 2.905 1.685c.058.033.162.051.214.022.429-.238.851-.488 1.307-.753-.108-.067-.174-.111-.244-.15-.88-.505-1.755-1.019-2.645-1.506-.221-.12-.28-.26-.277-.493zm8.6-8.949c-.001-.063-.089-.145-.156-.185-.954-.558-1.912-1.106-2.865-1.665-.121-.071-.208-.066-.326.004-.834.489-1.66.996-2.516 1.444-.397.208-.569.443-.515.895.044.369.009.748.009 1.161.122-.064.2-.102.275-.146.914-.529 1.83-1.055 2.739-1.592.129-.075.218-.073.346.001.917.539 1.84 1.07 2.762 1.602.067.039.137.074.254.138 0-.592.006-1.125-.007-1.657zm-.191 4.141c-.947-.536-1.89-1.077-2.83-1.625-.132-.076-.225-.063-.349.011-.935.554-1.874 1.105-2.815 1.649-.136.078-.189.162-.188.323.009 1.035.012 2.07.006 3.105-.001.158.048.248.184.326.944.539 1.885 1.085 2.824 1.634.126.073.223.078.353.001a308.95 308.95 0 0 1 2.844-1.649c.13-.074.177-.159.174-.306-.007-.518-.002-1.035-.002-1.553 0-.517-.009-1.035.004-1.552.004-.178-.053-.278-.205-.364zm3.858 4.105c-.005-.575 0-1.149-.007-1.722 0-.072-.02-.18-.068-.209-.432-.26-.871-.507-1.342-.777v.313c0 1.059-.003 2.119.003 3.177.001.156-.037.249-.18.326-.376.202-.741.424-1.111.638l-1.881 1.09c.473.271.896.519 1.327.752.059.032.172.012.236-.025.962-.556 1.923-1.116 2.877-1.687a.39.39 0 0 0 .162-.278c.008-.532-.012-1.066-.016-1.598zm-5.893-.865c-.283.112-.537.294-.799.453-.106.064-.186.081-.303.009a42.08 42.08 0 0 0-1.316-.765c-.118-.066-.172-.137-.169-.28.009-.501.008-1.003 0-1.504-.002-.14.042-.217.165-.286.436-.243.862-.506 1.301-.743a.393.393 0 0 1 .322-.004c.44.236.872.488 1.297.752a.37.37 0 0 1 .152.256c.021.266.007.533.007.8 0 .049-.008.099.002.146.119.582-.11.95-.659 1.166zm-10.819-9.258a.998.998 0 0 1-1.404.166l-4.138-3.268c-3.027 2.79-7.051 4.508-11.478 4.508-4.663 0-8.892-1.894-11.966-4.953l-4.619 3.733a.998.998 0 0 1-1.406-.152 1.004 1.004 0 0 1 .15-1.409l4.545-3.673A16.975 16.975 0 0 1 20 47.005c0-9.006 7.01-16.384 15.844-16.984V24.95a1.001 1.001 0 1 1 2 0v5.055c8.98.446 16.155 7.888 16.155 17a16.98 16.98 0 0 1-4.119 11.09l3.973 3.138c.434.343.508.972.166 1.408zm-2.02-15.636c0-3.725-1.366-7.131-3.611-9.76l-12.082 19.38-8.013-8.034a1.004 1.004 0 0 1 0-1.418.999.999 0 0 1 1.414 0l6.236 6.252 11.001-17.646c-2.65-2.363-6.128-3.812-9.945-3.812C28.728 31.967 22 38.713 22 47.005s6.728 15.037 14.999 15.037c8.272 0 15-6.745 15-15.037zm-5.954-31.11c-1.707.994-3.409 1.995-5.118 2.986-.074.043-.218.032-.297-.012a305.855 305.855 0 0 1-3.341-1.906c-.135-.078-.23-.083-.368-.001-1.099.643-2.206 1.275-3.306 1.918-.131.077-.223.071-.349-.003-1.693-.985-3.388-1.968-5.086-2.944-.139-.081-.181-.168-.18-.323.013-1.949.022-3.899.024-5.848 0-.172.064-.258.206-.339 1.056-.604 2.106-1.222 3.165-1.822.205-.116.291-.239.288-.488-.015-1.27-.005-2.54-.01-3.811 0-.149.03-.247.175-.33A760.978 760.978 0 0 0 36.872.065c.163-.094.279-.092.439.001 1.671.975 3.346 1.945 5.024 2.907.151.086.192.182.19.344-.008.646-.003 1.294-.003 1.941 0 .648.006 1.295-.004 1.942-.003.167.05.259.195.341 1.088.614 2.17 1.24 3.259 1.854.147.082.195.175.194.34a445.785 445.785 0 0 0 .04 5.872c.002.138-.04.217-.161.288zm-14.373-2.47c.01-1.034.004-2.069.003-3.103 0-.082-.008-.165-.014-.287-.468.27-.895.512-1.313.767-.05.03-.077.135-.077.205-.005 1.124-.006 2.247.003 3.37 0 .083.067.201.138.243a254.75 254.75 0 0 0 2.905 1.685c.058.034.161.051.214.022.429-.238.851-.488 1.307-.753-.109-.066-.175-.11-.244-.15-.88-.505-1.755-1.018-2.645-1.505-.221-.121-.28-.261-.277-.494zm8.6-8.949c-.001-.063-.089-.145-.156-.185-.954-.557-1.912-1.106-2.865-1.665-.121-.07-.208-.065-.326.004-.834.489-1.66.997-2.516 1.445-.397.207-.569.443-.515.894.044.37.009.749.009 1.162.122-.065.2-.103.275-.146.914-.529 1.83-1.055 2.739-1.592.129-.076.218-.074.346.001.917.538 1.84 1.069 2.762 1.601.067.039.137.074.254.138 0-.592.006-1.125-.007-1.657zm-.191 4.141c-.947-.536-1.89-1.077-2.83-1.624-.132-.077-.225-.064-.349.01-.936.555-1.874 1.105-2.815 1.649-.136.079-.189.162-.188.323.01 1.035.012 2.07.006 3.105-.001.158.048.248.184.326.944.539 1.885 1.085 2.824 1.634.126.074.223.078.353.001.945-.555 1.893-1.104 2.844-1.648.13-.074.177-.16.174-.307-.007-.517-.002-1.035-.002-1.552 0-.518-.009-1.035.004-1.553.004-.177-.053-.278-.205-.364zm3.858 4.105c-.005-.574 0-1.148-.007-1.722 0-.072-.02-.179-.069-.208-.431-.261-.87-.508-1.341-.778v.314c0 1.058-.003 2.118.003 3.176.001.156-.037.249-.18.326-.376.203-.741.424-1.111.638l-1.881 1.09c.473.271.896.52 1.327.752.059.032.172.012.236-.025.962-.556 1.923-1.116 2.877-1.686a.393.393 0 0 0 .162-.279c.008-.532-.012-1.066-.016-1.598zm-5.894-.864c-.282.111-.536.293-.798.452-.106.064-.186.081-.303.009a46.456 46.456 0 0 0-1.316-.765c-.118-.066-.172-.137-.17-.28.01-.501.009-1.003.001-1.504-.002-.14.043-.217.165-.286.436-.242.862-.506 1.301-.743a.397.397 0 0 1 .322-.004c.44.236.872.489 1.297.752a.379.379 0 0 1 .152.256c.02.266.008.534.008.801 0 .048-.009.098.001.145.119.583-.11.95-.66 1.167zM18.046 75.937c-1.706.994-3.409 1.995-5.118 2.986-.074.042-.218.032-.297-.013a305.776 305.776 0 0 1-3.341-1.905c-.135-.078-.23-.083-.368-.002-1.099.644-2.206 1.276-3.305 1.919-.131.077-.223.071-.35-.003-1.693-.986-3.387-1.968-5.086-2.945-.139-.08-.181-.167-.18-.323.013-1.949.022-3.898.024-5.847 0-.172.064-.258.206-.339 1.057-.605 2.106-1.222 3.165-1.822.205-.116.291-.239.289-.488-.016-1.27-.006-2.541-.01-3.811-.001-.15.03-.247.174-.33a736.223 736.223 0 0 0 5.025-2.907c.162-.094.278-.092.438.001a696.58 696.58 0 0 0 5.025 2.906c.15.087.191.183.189.344-.008.647-.003 1.295-.003 1.942 0 .648.006 1.295-.004 1.942-.003.167.05.259.195.341 1.088.614 2.171 1.24 3.259 1.853.147.083.195.176.194.341-.001 1.157.006 2.314.013 3.47.005.801.013 1.601.027 2.401.002.138-.04.218-.161.289zm-14.373-2.47c.01-1.034.004-2.069.004-3.104 0-.082-.009-.164-.015-.286-.468.27-.895.511-1.313.767-.05.03-.076.135-.077.205-.004 1.124-.006 2.247.003 3.37a.336.336 0 0 0 .138.243 254.75 254.75 0 0 0 2.905 1.685c.058.033.162.051.214.022.429-.238.851-.488 1.307-.753-.108-.067-.174-.111-.244-.15-.88-.505-1.755-1.019-2.645-1.506-.221-.12-.279-.26-.277-.493zm8.6-8.949c-.001-.063-.089-.145-.156-.185-.954-.558-1.911-1.106-2.864-1.665-.122-.071-.209-.066-.327.004-.834.489-1.659.996-2.516 1.444-.397.208-.569.443-.515.895.045.369.009.748.009 1.161.122-.064.2-.102.275-.146.914-.529 1.83-1.055 2.74-1.592.129-.075.217-.073.345.001.917.539 1.84 1.07 2.762 1.602.067.039.137.074.255.138 0-.592.005-1.125-.008-1.657zm-.191 4.141c-.947-.536-1.89-1.077-2.83-1.625-.132-.076-.225-.063-.349.011-.935.554-1.873 1.105-2.815 1.649-.136.078-.189.162-.187.323.009 1.035.011 2.07.005 3.105-.001.158.048.248.184.326.944.539 1.886 1.085 2.824 1.634.127.073.224.078.353.001a308.95 308.95 0 0 1 2.844-1.649c.13-.074.177-.159.174-.306-.007-.518-.002-1.035-.002-1.553 0-.517-.009-1.035.004-1.552.005-.178-.053-.278-.205-.364zm3.858 4.105c-.005-.575 0-1.149-.007-1.722 0-.072-.02-.18-.068-.209-.431-.26-.871-.507-1.342-.777v.313c0 1.059-.003 2.119.003 3.177.001.156-.036.249-.18.326-.376.202-.741.424-1.11.638l-1.882 1.09c.473.271.896.519 1.327.752.059.032.172.012.236-.025a211.97 211.97 0 0 0 2.877-1.687.39.39 0 0 0 .162-.278c.008-.532-.012-1.066-.016-1.598zm-5.893-.865c-.282.112-.537.294-.799.453-.106.064-.185.081-.302.009a43.313 43.313 0 0 0-1.317-.765c-.118-.066-.172-.137-.169-.28.009-.501.008-1.003 0-1.504-.002-.14.043-.217.165-.286.437-.243.862-.506 1.301-.743a.393.393 0 0 1 .322-.004c.44.236.872.488 1.297.752a.372.372 0 0 1 .153.256c.02.266.007.533.007.8 0 .049-.009.099.001.146.119.582-.109.95-.659 1.166z"/></svg>