<svg xmlns="http://www.w3.org/2000/svg" width="115" height="65"><defs><linearGradient id="a" x1="0%" x2="70.711%" y1="70.711%" y2="0%"><stop offset="0%" stop-color="#0c90c2"/><stop offset="100%" stop-color="#2dd2ab"/></linearGradient></defs><path fill-rule="evenodd" fill="url(#a)" d="M114.956 53c-.01.07-.017.139-.042.207-.024.066-.062.123-.1.181-.025.041-.036.087-.068.125l-9.343 11.041c-.009.01-.022.014-.032.023a.99.99 0 0 1-.25.19c-.029.016-.052.041-.082.054a.98.98 0 0 1-.402.088H.993v-.001l-.001.001a.997.997 0 0 1-.363-.074c-.046-.018-.083-.048-.126-.072-.053-.031-.11-.051-.158-.092-.011-.009-.016-.023-.026-.033-.053-.048-.09-.107-.131-.166-.035-.049-.075-.094-.1-.147-.024-.054-.033-.113-.048-.171-.018-.07-.039-.137-.042-.209-.001-.014-.008-.026-.008-.04 0-.048.021-.09.027-.136.01-.071.017-.139.042-.207.025-.067.063-.122.1-.182.025-.04.036-.086.068-.124l9.344-11.04c.01-.012.024-.016.033-.027.048-.052.107-.089.165-.13.05-.035.094-.075.148-.1.054-.025.115-.033.174-.049.068-.018.134-.038.205-.041.015-.001.027-.008.042-.008H113.98c.049 0 .091.021.139.027.069.01.136.017.202.041.068.025.125.063.185.102.04.025.085.035.123.067.011.009.015.023.026.033.052.048.089.107.13.165.035.05.075.094.1.148.025.053.033.113.048.171.018.07.039.137.042.209.001.014.008.026.008.04 0 .048-.021.089-.027.136zm-104.152.867l-7.646 9.034h8.885l7.645-9.034h-8.884zm11.515 0l-7.645 9.034h8.886l7.644-9.034h-8.885zm11.516 0l-7.645 9.034h8.885l7.645-9.034h-8.885zm11.516 0l-7.645 9.034h8.885l7.645-9.034h-8.885zm11.516 0l-7.645 9.034h8.884l7.646-9.034h-8.885zm11.515 0l-7.645 9.034h8.886l7.644-9.034h-8.885zm11.516 0l-7.644 9.034h8.885l7.645-9.034h-8.886zm11.517 0l-7.646 9.034h8.885l7.645-9.034h-8.884zm11.515 0l-7.645 9.034h8.886l7.644-9.034h-8.885zm-7.271-30.863c-4.058 0-7.359-3.302-7.359-7.36 0-3.711 5.859-12.504 6.527-13.495l.832-1.233.832 1.233c.668.991 6.526 9.784 6.526 13.495 0 4.058-3.301 7.36-7.358 7.36zm0-18.464c-2.016 3.147-5.352 8.833-5.352 11.104 0 2.951 2.4 5.352 5.352 5.352a5.358 5.358 0 0 0 5.351-5.352c0-2.272-3.336-7.957-5.351-11.104zm-35.59 32.433c-4.058 0-7.359-3.303-7.359-7.362 0-3.709 5.858-12.502 6.527-13.494l.832-1.233.832 1.233c.668.992 6.526 9.785 6.526 13.494 0 4.059-3.302 7.362-7.358 7.362zm0-18.464c-2.016 3.147-5.353 8.832-5.353 11.102a5.359 5.359 0 0 0 5.353 5.354 5.358 5.358 0 0 0 5.351-5.354c0-2.272-3.337-7.955-5.351-11.102zm-34.284 4.83c-4.056 0-7.357-3.303-7.357-7.361 0-3.711 5.857-12.503 6.526-13.494l.831-1.233.832 1.233c.669.991 6.526 9.783 6.526 13.494 0 4.058-3.301 7.361-7.358 7.361zm0-18.463c-2.014 3.146-5.351 8.831-5.351 11.102a5.358 5.358 0 0 0 5.351 5.353 5.358 5.358 0 0 0 5.352-5.353c0-2.271-3.337-7.956-5.352-11.102z"/></svg>