<svg xmlns="http://www.w3.org/2000/svg" width="112" height="63"><defs><linearGradient id="a" x1="0%" x2="70.711%" y1="70.711%" y2="0%"><stop offset="0%" stop-color="#0c90c2"/><stop offset="100%" stop-color="#2dd2ab"/></linearGradient></defs><path fill-rule="evenodd" fill="url(#a)" d="M1.408 62.907l53.914-23.164 55.255 23.168a1.007 1.007 0 0 0 1.318-.534 1 1 0 0 0-.537-1.31l-10.784-4.521V38.614h2.934V28.99h-6.665a52.157 52.157 0 0 0-1.047-2.003c-1.498-2.747-3.197-5.861-2.615-8.805.315-1.598 1.538-5.317 6.053-5.317 2.374 0 5.028 2.191 5.028 5.125 0 3.178-1.832 5-5.028 5-.556 0-1.006.447-1.006 1 0 .552.45 1 1.006 1 4.276 0 7.04-2.749 7.04-7 0-3.796-3.29-7.125-7.04-7.125-4.106 0-7.183 2.656-8.027 6.932-.721 3.65 1.243 7.251 2.821 10.144.197.361.383.706.565 1.049h-5.23c-1.679-2.502-3.538-6.102-3.538-9.833 0-3.198 1.92-5.171 4.35-7.669 2.442-2.509 5.21-5.355 6.827-10.181a.998.998 0 0 0-.635-1.265 1.004 1.004 0 0 0-1.272.632c-1.473 4.395-4.073 7.067-6.366 9.423-2.528 2.599-4.916 5.053-4.916 9.06 0 3.684 1.554 7.179 3.17 9.833h-4.675c-1.304-1.829-3.691-5.754-3.691-10 0-5.045 2.997-8.142 5.642-10.876 1.196-1.236 2.326-2.404 3.026-3.629a.996.996 0 0 0-.377-1.364 1.008 1.008 0 0 0-1.371.375c-.577 1.008-1.573 2.038-2.727 3.232-2.765 2.856-6.205 6.412-6.205 12.262 0 4.023 1.845 7.721 3.288 10h-5.299v9.624h4.526v8.936l-23.412-9.816-.395-.164L.61 61.071a.998.998 0 0 0-.524 1.314c.22.508.815.739 1.322.522zm75.197-26.293V30.99h24.892v5.624H76.605zm4.526 2h17.432v17.088l-17.432-7.309v-9.779z"/></svg>