<svg xmlns="http://www.w3.org/2000/svg" width="112" height="51"><defs><linearGradient id="a" x1="0%" x2="70.711%" y1="70.711%" y2="0%"><stop offset="0%" stop-color="#0c90c2"/><stop offset="100%" stop-color="#2dd2ab"/></linearGradient></defs><path fill-rule="evenodd" fill="url(#a)" d="M111.923.618A.996.996 0 0 0 111 0H1a.996.996 0 0 0-1 1v49a.996.996 0 0 0 1 1h110a.996.996 0 0 0 1-1V1c0-.13-.027-.26-.077-.382zM110 41H2V10h108v31zm-9.129 2l-5.585 5.586L89.7 43h11.171zm-15.714 0l-5.586 5.586L73.985 43h11.172zm-15.714 0l-5.586 5.586L58.271 43h11.172zm-15.715 0l-5.585 5.586L42.557 43h11.171zm-15.713 0l-5.586 5.586L26.843 43h11.172zM22.3 43l-5.586 5.586L11.129 43H22.3zM11.129 8l5.585-5.586L22.3 8H11.129zm15.714 0l5.586-5.586L38.015 8H26.843zm15.714 0l5.586-5.586L53.728 8H42.557zm15.714 0l5.586-5.586L69.443 8H58.271zm15.714 0l5.586-5.586L85.157 8H73.985zM89.7 8l5.586-5.586L100.871 8H89.7zm8-6h10.886l-5.443 5.444L97.7 2zM87.429 7.444L81.985 2h10.887l-5.443 5.444zm-15.715 0L66.271 2h10.886l-5.443 5.444zM56 7.444L50.557 2h10.886L56 7.444zm-15.714 0L34.843 2h10.886l-5.443 5.444zm-15.715 0L19.128 2h10.887l-5.444 5.444zm-15.714 0L3.414 2H14.3L8.857 7.444zM6.586 8H2V3.414L6.586 8zM2 43h4.586L2 47.586V43zm6.857.556L14.3 49H3.414l5.443-5.444zm15.714 0L30.015 49H19.128l5.443-5.444zm15.715 0L45.729 49H34.843l5.443-5.444zm15.714 0L61.443 49H50.557L56 43.556zm15.714 0L77.157 49H66.271l5.443-5.444zm15.715 0L92.872 49H81.985l5.444-5.444zm15.714 0L108.586 49H97.7l5.443-5.444zm2.271-.556H110v4.586L105.414 43zM110 8h-4.586L110 3.414V8z"/></svg>