<svg xmlns="http://www.w3.org/2000/svg" preserveAspectRatio="xMidYMid" width="46" height="53" viewBox="0 0 46 53"><defs><style>.cls-1{fill:#fff;fill-rule:evenodd}</style></defs><path d="M35.142 44.331l3.427 7.232a1.003 1.003 0 0 1-.902 1.433.996.996 0 0 1-.903-.571l-3.541-7.472c-2.939.832-6.347 1.269-10.223 1.269-3.542 0-6.693-.367-9.454-1.063l-4.353 7.349a1 1 0 0 1-1.371.35 1.01 1.01 0 0 1-.348-1.379l4.091-6.904C4.038 42.034 0 36.598 0 28.642 0 15.529 12.467.006 23 .006s23 15.523 23 28.636c0 7.706-3.783 13.05-10.858 15.689zM23 2.017c-9.42 0-21 14.681-21 26.625 0 12.87 11.42 15.571 21 15.571s21-2.701 21-15.571C44 16.698 32.42 2.017 23 2.017zm14.271 32.408c-.233.145-5.815 3.51-14.271 3.51S8.962 34.57 8.728 34.425a1.006 1.006 0 0 1-.332-1.378.997.997 0 0 1 1.374-.338c.053.032 5.366 3.216 13.23 3.216 7.864 0 13.177-3.184 13.23-3.216a1.004 1.004 0 0 1 1.041 1.716z" class="cls-1"/></svg>