<svg id="inverter-dc" data-name="inverter-dc" xmlns="http://www.w3.org/2000/svg" viewBox="0 0 54.12 15.15"><defs><style>.cls-1{fill:#231f20}.cls-2{fill:#eb212e}</style></defs><title>Монтажная область 4dc-inverter</title><path class="cls-1" d="M0 14.91V1.64h5.11a9.68 9.68 0 0 1 3.16.49 6.53 6.53 0 0 1 2.36 1.36 6 6 0 0 1 1.45 2.09 6.85 6.85 0 0 1 .51 2.67 6.76 6.76 0 0 1-.51 2.65 6.09 6.09 0 0 1-1.47 2.1 6.67 6.67 0 0 1-2.39 1.39 9.57 9.57 0 0 1-3.19.5zm3.67-3.23h1.5a3.82 3.82 0 0 0 2.67-.9 3.22 3.22 0 0 0 1-2.51 3.21 3.21 0 0 0-1-2.49 3.79 3.79 0 0 0-2.66-.91H3.67z"/><path class="cls-2" d="M23.13 4.11L21.12 0l-.4 2.08 1.52.88.89 1.15z"/><path class="cls-2" d="M24.71 12.19A9.27 9.27 0 0 1 23 13.83a7 7 0 0 1-2.24 1 7.77 7.77 0 0 1-2.34.28 8 8 0 0 1-2.27-.38A6.92 6.92 0 0 1 12.51 12a7 7 0 0 1-.93-2 7.24 7.24 0 0 1-.24-2.18 7.06 7.06 0 0 1 .4-2.12 6.9 6.9 0 0 1 1-1.87A6.14 6.14 0 0 1 14.3 2.4a6.7 6.7 0 0 1 1.89-.82 7 7 0 0 1 4 .15 5.62 5.62 0 0 1 1.71 1 6.12 6.12 0 0 1 1.27 1.44 5.53 5.53 0 0 0-3.11-2 6.34 6.34 0 0 0-3.56.28 5.18 5.18 0 0 0-2.6 2.16 5.44 5.44 0 0 0-.62 1.55 5.36 5.36 0 0 0-.1 1.64 5 5 0 0 0 1.18 2.9 4.42 4.42 0 0 0 2.54 1.46 5.27 5.27 0 0 0 2.9-.29 3.7 3.7 0 0 0 1.13-.7A6 6 0 0 0 21.8 10z"/><path class="cls-2" d="M22.72 5.16a5.68 5.68 0 0 0-1-1 4.32 4.32 0 0 0-1.37-.64 4.76 4.76 0 0 0-1.43-.17 4.92 4.92 0 0 0-1.39.23 4.24 4.24 0 0 0-2.24 1.68 4.3 4.3 0 0 0-.57 1.25 4.44 4.44 0 0 0-.15 1.33 4.33 4.33 0 0 0 .24 1.3 4.23 4.23 0 0 0 .62 1.15 3.77 3.77 0 0 0 1 .88 4.11 4.11 0 0 0 1.16.51 4.3 4.3 0 0 0 2.43-.09A3.44 3.44 0 0 0 21 11a3.76 3.76 0 0 0 .78-.88 3.39 3.39 0 0 1-1.9 1.2 3.89 3.89 0 0 1-2.18-.17 3.18 3.18 0 0 1-1.59-1.33 3.33 3.33 0 0 1-.38-1 3.29 3.29 0 0 1-.06-1 3 3 0 0 1 .72-1.78 2.71 2.71 0 0 1 1.56-.9 3.23 3.23 0 0 1 1.78.18 2.27 2.27 0 0 1 .69.43 3.67 3.67 0 0 1 .55.69z"/><path class="cls-1" d="M25 9.89V7h.81v2.89zM27.39 9.89V7h.76l1.2 1.54V7h.8v2.89h-.71l-1.25-1.6v1.6zM31.45 7h.91L33 8.81 33.68 7h.89l-1.18 2.91h-.75zM35.87 9.89V7h2.35v.69h-1.54v.41h1.4v.64h-1.4v.46h1.57v.69zM39.77 9.89V7h1.38a1.28 1.28 0 0 1 .95.32.94.94 0 0 1 .26.7.92.92 0 0 1-.16.54 1 1 0 0 1-.44.34l.7 1h-.93l-.6-.9h-.35v.89zm.81-1.52h.53a.49.49 0 0 0 .32-.09.31.31 0 0 0 .12-.28.3.3 0 0 0-.11-.25.52.52 0 0 0-.32-.09h-.53zM43.63 7.68V7h2.57v.71h-.88v2.18h-.81V7.68zM47.54 9.89V7h2.35v.69h-1.55v.41h1.4v.64h-1.4v.46h1.56v.69zM51.43 9.89V7h1.38a1.28 1.28 0 0 1 .95.32A1 1 0 0 1 54 8a.92.92 0 0 1-.16.54 1 1 0 0 1-.44.34l.7 1h-.93L52.59 9h-.35v.89zm.81-1.52h.53a.49.49 0 0 0 .32-.09.31.31 0 0 0 .12-.28.3.3 0 0 0-.12-.25.52.52 0 0 0-.32-.09h-.53z"/></svg>