<svg xmlns="http://www.w3.org/2000/svg" preserveAspectRatio="xMidYMid" width="172" height="86" viewBox="0 0 172 86"><defs><style>.cls-1,.cls-2{fill:#000;fill-rule:evenodd}.cls-2{fill:#1881c0}</style></defs><path d="M171.748 40.864c-1.623 0-2.876.481-3.761 1.443-.885.963-1.326 2.396-1.326 4.3v6.015h-4.745V36.337h4.745v3.282c1.081-2.492 2.861-3.687 5.338-3.585v4.83h-.251zm-24.13 5.226c.229 1.033.697 1.823 1.405 2.37.707.547 1.603.82 2.685.82 1.477 0 2.83-.557 4.057-1.671l2.717 2.34c-1.686 2.025-3.965 3.038-6.837 3.038-2.539 0-4.63-.785-6.274-2.355-1.644-1.569-2.466-3.61-2.466-6.122 0-2.37.781-4.375 2.341-6.016 1.561-1.64 3.537-2.46 5.931-2.46 2.642 0 4.662.85 6.056 2.551 1.394 1.701 2.092 3.798 2.092 6.29 0 .243-.021.648-.063 1.215h-11.644zm5.947-5.408c-.614-.628-1.41-.942-2.388-.942-.958 0-1.753.309-2.388.927-.635.617-1.046 1.463-1.232 2.536h7.148c-.147-1.053-.526-1.893-1.14-2.521zm-15.872 6.563c0 1.053.509 1.579 1.53 1.579.831 0 1.611-.192 2.341-.577v3.706c-1.082.629-2.332.942-3.746.942-1.561 0-2.762-.369-3.606-1.108-.843-.739-1.264-2-1.264-3.783v-7.718h-1.998v-3.949h1.998v-4.162h4.745v4.162h3.933v3.949h-3.933v6.959zm-11.566-4.938c-.884.963-1.326 2.396-1.326 4.3v6.015h-4.745V36.337h4.745v3.282c1.081-2.492 2.861-3.687 5.338-3.585v4.83h-.25c-1.624 0-2.877.481-3.762 1.443zm-20.369 3.783c.229 1.033.697 1.823 1.405 2.37.708.547 1.603.82 2.685.82 1.477 0 2.83-.557 4.058-1.671l2.716 2.34c-1.686 2.025-3.965 3.038-6.836 3.038-2.54 0-4.631-.785-6.275-2.355-1.644-1.569-2.466-3.61-2.466-6.122 0-2.37.781-4.375 2.341-6.016 1.561-1.64 3.537-2.46 5.931-2.46 2.642 0 4.662.85 6.056 2.551 1.394 1.701 2.092 3.798 2.092 6.29 0 .243-.021.648-.063 1.215h-11.644zm5.947-5.408c-.614-.628-1.41-.942-2.388-.942-.958 0-1.753.309-2.388.927-.635.617-1.046 1.463-1.232 2.536h7.148c-.147-1.053-.526-1.893-1.14-2.521zM90.089 52.744l-6.586-16.407h5.025l3.746 10.908 3.778-10.908h4.931l-6.586 16.407h-4.308zm-12.393-9.207c0-1.073-.25-1.893-.749-2.46-.5-.567-1.207-.851-2.123-.851-.916 0-1.639.284-2.169.851-.531.567-.796 1.387-.796 2.46v9.085h-4.745V36.337h4.745v2.309c1.394-1.742 3.028-2.612 4.901-2.612 1.789 0 3.184.536 4.183 1.609.999 1.075 1.498 2.553 1.498 4.437v10.542h-4.745v-9.085zM58.28 31.355h4.807v21.267H58.28V31.355zM33.87 48.672c1.165 0 2.174-.202 3.028-.607.853-.405 1.758-1.033 2.716-1.884l3.059 3.19c-1.186 1.236-2.472 2.148-3.855 2.735-1.385.587-3.086.881-5.104.881-3.205 0-5.874-1.058-8.007-3.175-2.133-2.116-3.2-4.725-3.2-7.824 0-3.078 1.072-5.681 3.216-7.808 2.143-2.127 4.869-3.191 8.178-3.191 1.894 0 3.485.3 4.776.897 1.29.598 2.518 1.453 3.683 2.567l-2.871 3.221c-.937-.831-1.816-1.433-2.638-1.808-.822-.375-1.816-.562-2.981-.562-1.832 0-3.346.643-4.542 1.929-1.197 1.287-1.795 2.872-1.795 4.755 0 1.864.598 3.443 1.795 4.74 1.196 1.296 2.71 1.944 4.542 1.944zm-25.348 3.95H.001V31.355h8.521c3.413 0 6.202 1.007 8.367 3.022 2.164 2.016 3.246 4.553 3.246 7.611 0 3.038-1.088 5.571-3.262 7.596-2.175 2.026-4.959 3.038-8.351 3.038zm4.761-15.252c-1.217-1.195-2.805-1.792-4.761-1.792H4.808v12.821h3.714c1.977 0 3.57-.593 4.777-1.777 1.206-1.186 1.81-2.73 1.81-4.634 0-1.883-.608-3.423-1.826-4.618z" class="cls-1"/><path d="M79.935 3.599a39.017 39.017 0 0 0-20.656 5.875C66.491 4.143 75.454.982 85.167.982c19.389 0 35.791 12.59 41.237 29.919h-9.288c-4.775-15.788-19.61-27.302-37.181-27.302zm35.106 31.094c-1.561-5.049-8.283-10.352-11.169-11.501-.23-.092 2.585-1.96 2.401-2.126-5.559-4.995-12.973-8.049-21.106-8.049-12.546 0-23.379 7.269-28.33 17.717H45.92c4.742-14.02 18.193-24.162 34.015-24.162 17.277 0 31.738 12.089 35.106 28.121zM46.242 53.884h9.598c4.365 11.689 15.863 20.058 29.327 20.058 7.703 0 14.757-2.745 20.206-7.278a36.027 36.027 0 0 1-25.438 10.447c-15.469 0-28.68-9.691-33.693-23.227zm33.693 26.2c17.127 0 31.652-10.942 36.798-26.116H127c-4.744 18.397-21.673 32.008-41.833 32.008-19.317 0-35.667-12.496-41.174-29.725 5.774 13.977 19.687 23.833 35.942 23.833z" class="cls-2"/></svg>