<svg xmlns="http://www.w3.org/2000/svg" width="57" height="72" viewBox="0 0 57 72"><path fill-rule="evenodd" fill="#FFF" d="M49.394 71.386H7.606c-3.722 0-6.75-3.03-6.75-6.754V6.984c0-3.727 3.028-6.757 6.75-6.757h41.788c3.722 0 6.75 3.03 6.75 6.757v57.648c0 3.724-3.028 6.754-6.75 6.754zM7.606 69.883h41.788a5.255 5.255 0 0 0 5.25-5.251v-2.176H2.356v2.176a5.255 5.255 0 0 0 5.25 5.251zm47.038-8.929v-50.23H2.356v50.23h52.288zm-5.25-59.225H7.606a5.257 5.257 0 0 0-5.25 5.255v2.237h52.288V6.984a5.257 5.257 0 0 0-5.25-5.255zM28.5 64.333c.829 0 1.499.674 1.499 1.503a1.5 1.5 0 1 1-2.999 0c0-.829.67-1.503 1.5-1.503z"/></svg>