<svg height="46.483" viewBox="0 0 36.565 46.483" width="36.565" xmlns="http://www.w3.org/2000/svg"><path d="M31.824 0H4.741A4.747 4.747 0 0 0 0 4.742v37a4.747 4.747 0 0 0 4.741 4.741h27.083a4.747 4.747 0 0 0 4.741-4.741v-37A4.747 4.747 0 0 0 31.824 0zM1.482 7.421h33.601V38H1.482zm3.259-5.938h27.083a3.262 3.262 0 0 1 3.259 3.258v1.196H1.482V4.742a3.263 3.263 0 0 1 3.259-3.259zM31.824 45H4.741a3.263 3.263 0 0 1-3.259-3.259v-2.259h33.601v2.259A3.262 3.262 0 0 1 31.824 45z" fill="#fff"/><circle cx="18.283" cy="42.2" fill="#fff" r="1"/></svg>