<svg height="39.482" viewBox="0 0 22.564 39.482" width="22.564" xmlns="http://www.w3.org/2000/svg"><path d="M17.823 0H4.741A4.747 4.747 0 0 0 0 4.742v29.999a4.747 4.747 0 0 0 4.741 4.741h13.082a4.747 4.747 0 0 0 4.741-4.741V4.742A4.746 4.746 0 0 0 17.823 0zM1.482 7.421h19.6V31h-19.6zm3.259-5.938h13.082a3.262 3.262 0 0 1 3.259 3.258v1.196h-19.6V4.742a3.263 3.263 0 0 1 3.259-3.259zM17.823 38H4.741a3.263 3.263 0 0 1-3.259-3.259v-2.259h19.6v2.259A3.263 3.263 0 0 1 17.823 38z" fill="#fff"/><circle cx="11.282" cy="35.199" fill="#fff" r="1"/></svg>