<svg xmlns="http://www.w3.org/2000/svg" width="33" height="63" viewBox="0 0 33 63"><path fill-rule="evenodd" fill="#FFF" d="M28.487 62.704H4.512a3.755 3.755 0 0 1-3.75-3.753V4.664A3.756 3.756 0 0 1 4.512.912h23.975a3.755 3.755 0 0 1 3.75 3.752v54.287a3.755 3.755 0 0 1-3.75 3.753zM4.512 61.203h23.975a2.254 2.254 0 0 0 2.25-2.252v-4.003H2.262v4.003a2.254 2.254 0 0 0 2.25 2.252zm26.225-7.757V9.153H2.262v44.293h28.475zm-2.25-51.035H4.512a2.255 2.255 0 0 0-2.25 2.253v2.988h28.475V4.664a2.255 2.255 0 0 0-2.25-2.253zM16.499 56.479c.721 0 1.304.583 1.304 1.305a1.304 1.304 0 1 1-1.304-1.305z"/></svg>