<?xml version="1.0" encoding="utf-8"?>
<!-- Generator: Adobe Illustrator 22.0.1, SVG Export Plug-In . SVG Version: 6.00 Build 0)  -->
<svg version="1.1" id="Слой_1" xmlns="http://www.w3.org/2000/svg" xmlns:xlink="http://www.w3.org/1999/xlink" x="0px" y="0px"
	 viewBox="0 0 85.9 75" style="enable-background:new 0 0 85.9 75;" xml:space="preserve">
<style type="text/css">
	.st0{fill:url(#SVGID_1_);}
	.st1{fill:url(#SVGID_2_);}
	.st2{fill:url(#SVGID_3_);}
	.st3{fill:url(#SVGID_4_);}
	.st4{fill:url(#SVGID_5_);}
	.st5{fill:#FFFFFF;}
	.st6{fill:url(#SVGID_6_);}
	.st7{fill:url(#SVGID_7_);}
	.st8{fill:url(#SVGID_8_);}
	.st9{fill:url(#SVGID_9_);}
	.st10{fill:url(#SVGID_10_);}
	.st11{fill:url(#SVGID_11_);}
	.st12{fill:url(#SVGID_12_);}
	.st13{fill:url(#SVGID_13_);}
	.st14{fill:url(#SVGID_14_);}
	.st15{fill:url(#SVGID_15_);}
	.st16{fill:url(#SVGID_16_);}
	.st17{fill:url(#SVGID_17_);}
	.st18{fill:url(#SVGID_18_);}
	.st19{fill:url(#SVGID_19_);}
	.st20{fill:url(#SVGID_20_);}
	.st21{fill:url(#SVGID_21_);}
	.st22{fill:url(#SVGID_22_);}
	.st23{fill:url(#SVGID_23_);}
	.st24{fill:url(#SVGID_24_);}
	.st25{fill:url(#SVGID_25_);}
	.st26{fill:url(#SVGID_26_);}
	.st27{fill:url(#SVGID_27_);}
	.st28{fill:url(#SVGID_28_);}
	.st29{fill:url(#SVGID_29_);}
	.st30{fill:url(#SVGID_30_);}
	.st31{fill:url(#SVGID_31_);}
	.st32{fill:url(#SVGID_32_);}
	.st33{clip-path:url(#SVGID_35_);fill:url(#SVGID_36_);}
	.st34{fill:url(#SVGID_37_);}
	.st35{clip-path:url(#SVGID_40_);fill:url(#SVGID_41_);}
	.st36{fill:url(#SVGID_42_);}
	.st37{fill:url(#SVGID_43_);}
	.st38{fill:url(#SVGID_44_);}
	.st39{fill:url(#SVGID_45_);}
	.st40{fill:url(#SVGID_46_);}
	.st41{fill:url(#SVGID_47_);}
	.st42{fill:url(#SVGID_48_);}
	.st43{fill:url(#SVGID_49_);}
	.st44{fill:url(#SVGID_50_);}
	.st45{fill:url(#SVGID_51_);}
	.st46{fill:url(#SVGID_52_);}
	.st47{fill:url(#SVGID_53_);}
	.st48{fill:url(#SVGID_54_);}
	.st49{fill:url(#SVGID_55_);}
	.st50{fill:url(#SVGID_56_);}
	.st51{fill:url(#SVGID_57_);}
	.st52{fill:url(#SVGID_58_);}
	.st53{fill:url(#SVGID_59_);}
	.st54{fill:url(#SVGID_60_);}
	.st55{fill:url(#SVGID_61_);}
	.st56{fill:url(#SVGID_62_);}
	.st57{fill:url(#SVGID_63_);}
	.st58{fill:url(#SVGID_64_);}
	.st59{fill:url(#SVGID_65_);}
	.st60{fill:url(#SVGID_66_);}
	.st61{fill:url(#SVGID_67_);}
	.st62{fill:url(#SVGID_68_);}
	.st63{fill:url(#SVGID_69_);}
	.st64{fill:url(#SVGID_70_);}
	.st65{fill:url(#SVGID_71_);}
	.st66{fill:url(#SVGID_72_);}
	.st67{fill:url(#SVGID_73_);}
	.st68{fill:url(#SVGID_74_);}
	.st69{fill:url(#SVGID_75_);}
	.st70{fill:url(#SVGID_76_);}
	.st71{fill:url(#SVGID_77_);}
	.st72{fill:url(#SVGID_78_);}
	.st73{fill:url(#SVGID_79_);}
	.st74{fill:url(#SVGID_80_);}
	.st75{fill:url(#SVGID_81_);}
	.st76{fill:url(#SVGID_82_);}
	.st77{fill:url(#SVGID_83_);}
	.st78{fill:url(#SVGID_84_);}
	.st79{fill:url(#SVGID_85_);}
	.st80{fill:url(#SVGID_86_);}
	.st81{fill:url(#SVGID_87_);}
	.st82{fill:url(#SVGID_88_);}
	.st83{fill:url(#SVGID_89_);}
	.st84{fill:url(#SVGID_90_);}
	.st85{fill:url(#SVGID_91_);}
	.st86{fill:url(#SVGID_92_);}
	.st87{fill:url(#SVGID_93_);}
	.st88{fill:url(#SVGID_94_);}
	.st89{fill:url(#SVGID_95_);}
	.st90{fill:url(#SVGID_96_);}
	.st91{fill:url(#SVGID_97_);}
	.st92{fill:url(#SVGID_98_);}
	.st93{fill:url(#SVGID_99_);}
	.st94{fill:url(#SVGID_100_);}
	.st95{fill:url(#SVGID_101_);}
	.st96{fill:url(#SVGID_102_);}
	.st97{fill:url(#SVGID_103_);}
	.st98{fill:url(#SVGID_104_);}
	.st99{fill:url(#SVGID_105_);}
	.st100{fill:url(#SVGID_106_);}
	.st101{fill:url(#SVGID_107_);}
	.st102{fill:url(#SVGID_108_);}
	.st103{fill:url(#SVGID_109_);}
	.st104{fill:url(#SVGID_110_);}
	.st105{fill:url(#SVGID_111_);}
	.st106{fill:url(#SVGID_112_);}
	.st107{fill:url(#SVGID_113_);}
	.st108{fill:url(#SVGID_114_);}
	.st109{fill:url(#SVGID_115_);}
	.st110{fill:url(#SVGID_116_);}
	.st111{fill:url(#SVGID_117_);}
	.st112{fill:url(#SVGID_118_);}
	.st113{fill:url(#SVGID_119_);}
	.st114{fill:url(#SVGID_120_);}
	.st115{fill:url(#SVGID_121_);}
	.st116{fill:url(#SVGID_122_);}
	.st117{fill:url(#SVGID_123_);}
	.st118{fill:url(#SVGID_124_);}
	.st119{fill:url(#SVGID_125_);}
	.st120{fill:url(#SVGID_126_);}
	.st121{fill:url(#SVGID_127_);}
	.st122{fill:url(#SVGID_128_);}
	.st123{fill:url(#SVGID_129_);}
	.st124{fill:url(#SVGID_130_);}
	.st125{fill:url(#SVGID_131_);}
	.st126{fill:url(#SVGID_132_);}
	.st127{fill:url(#SVGID_133_);}
	.st128{fill:url(#SVGID_134_);}
	.st129{fill:url(#SVGID_135_);}
	.st130{fill:url(#SVGID_136_);}
	.st131{fill:url(#SVGID_137_);}
	.st132{fill:url(#SVGID_138_);}
	.st133{fill:url(#SVGID_139_);}
</style>
<g>
	<g>
		<linearGradient id="SVGID_1_" gradientUnits="userSpaceOnUse" x1="0.3765" y1="10.8701" x2="74.8329" y2="77.0212">
			<stop  offset="0" style="stop-color:#0C90C2"/>
			<stop  offset="1" style="stop-color:#2DD2AB"/>
		</linearGradient>
		<path class="st0" d="M17.3,72.6c-1.5,1.2-3.6,1-4.9-0.4L3.1,61.1c-1.2-1.4-1-3.6,0.4-4.8l51.6-43.4c1.5-1.2,3.7-1,4.9,0.4
			l9.5,11.4c1.1,1.3,0.9,3.2-0.4,4.2L17.3,72.6z M4.4,60.8L13,71c1,1.2,2.7,1.3,3.9,0.3l50.8-42.7c1.2-1,1.3-2.7,0.3-3.9l-8.6-10.2
			c-1-1.2-2.7-1.3-3.9-0.3L4.7,56.9C3.6,57.8,3.4,59.6,4.4,60.8z M26.4,60.5c-0.1,0-0.2,0-0.2,0c-0.8-0.1-1.4-0.4-1.9-1
			c-0.5-0.6-0.7-1.3-0.7-2.1c0-0.3,0.1-0.7,0.3-1c-0.3,0.1-0.6,0.1-1,0.1c-0.7-0.1-1.4-0.4-1.9-1v0c-0.7-0.9-0.8-2.1-0.4-3
			c-0.3,0.1-0.6,0.1-1,0.1c-0.7-0.1-1.4-0.4-1.9-1v0c-1-1.2-0.8-3,0.3-4c1.2-1,3-0.8,4,0.3c0.5,0.6,0.7,1.3,0.7,2.1
			c0,0.3-0.1,0.7-0.3,1c1-0.3,2.2,0,2.9,0.9c0.5,0.6,0.7,1.3,0.7,2.1c0,0.3-0.1,0.7-0.3,1c0.3-0.1,0.7-0.1,1-0.1
			c0.8,0.1,1.4,0.4,1.9,1c0.5,0.6,0.7,1.3,0.7,2.1c-0.1,0.8-0.4,1.4-1,1.9C27.7,60.3,27.1,60.5,26.4,60.5z M26.4,56.1
			c-0.4,0-0.7,0.1-1,0.4c-0.3,0.3-0.5,0.7-0.6,1.1s0.1,0.9,0.4,1.2c0.3,0.3,0.7,0.5,1.1,0.6c0.4,0,0.9-0.1,1.2-0.4
			c0.7-0.6,0.8-1.6,0.2-2.3c-0.3-0.3-0.7-0.5-1.1-0.6C26.5,56.1,26.5,56.1,26.4,56.1z M21.9,54.8c0.3,0.3,0.7,0.5,1.1,0.6
			c0.4,0,0.9-0.1,1.2-0.4c0.3-0.3,0.5-0.7,0.6-1.1c0-0.4-0.1-0.9-0.4-1.2c-0.6-0.7-1.6-0.8-2.3-0.2S21.3,54.1,21.9,54.8L21.9,54.8z
			 M18.6,50.9c0.6,0.7,1.6,0.8,2.3,0.2c0.3-0.3,0.5-0.7,0.6-1.1c0-0.4-0.1-0.9-0.4-1.2c-0.6-0.7-1.6-0.8-2.3-0.2
			C18.1,49.2,18,50.2,18.6,50.9L18.6,50.9z M31,54.2c-2.1,0-4.1-0.9-5.5-2.6c-2.6-3-2.2-7.6,0.9-10.1c3-2.6,7.6-2.2,10.1,0.9
			c1.2,1.5,1.8,3.3,1.7,5.2c-0.2,1.9-1.1,3.7-2.5,4.9C34.3,53.7,32.7,54.2,31,54.2z M31,41.1c-1.4,0-2.7,0.5-3.8,1.4
			c-2.5,2.1-2.9,5.9-0.7,8.4c2.1,2.5,5.9,2.9,8.4,0.7h0c1.2-1,2-2.5,2.1-4.1c0.1-1.6-0.4-3.2-1.4-4.4C34.4,41.8,32.7,41.1,31,41.1z
			 M42.2,47c-1.1,0-2.1-0.5-2.9-1.3c-1.3-1.6-1.1-4,0.5-5.3c0.8-0.6,1.7-0.9,2.7-0.9c1,0.1,1.9,0.6,2.6,1.3c1.3,1.6,1.1,4-0.5,5.3h0
			C43.9,46.7,43,47,42.2,47z M42.2,40.6c-0.6,0-1.2,0.2-1.6,0.6c-1.1,0.9-1.2,2.5-0.3,3.6c0.9,1.1,2.5,1.2,3.6,0.3l0,0
			c1.1-0.9,1.2-2.5,0.3-3.6c-0.4-0.5-1.1-0.8-1.7-0.9C42.3,40.6,42.3,40.6,42.2,40.6z M50,41.3L40,29.4l14.5-12.2l10,11.8L50,41.3z
			 M41.7,29.6l8.4,10l12.7-10.6l-8.4-10L41.7,29.6z M36.8,40.5c-1.1,0-2.1-0.5-2.9-1.3l0,0c-0.6-0.8-1-1.7-0.9-2.7
			c0.1-1,0.6-1.9,1.3-2.6c0.8-0.6,1.7-1,2.7-0.9c1,0.1,1.9,0.6,2.6,1.3c0.6,0.8,1,1.7,0.9,2.7S40,39,39.2,39.7
			C38.5,40.3,37.7,40.5,36.8,40.5z M36.8,34.2c-0.6,0-1.2,0.2-1.6,0.6c-0.5,0.4-0.8,1.1-0.9,1.7s0.2,1.3,0.6,1.9l0,0
			c0.9,1.1,2.5,1.2,3.6,0.3c0.5-0.4,0.8-1.1,0.9-1.7c0.1-0.7-0.2-1.3-0.6-1.9c-0.4-0.5-1.1-0.8-1.7-0.9
			C36.9,34.2,36.9,34.2,36.8,34.2z"/>
	</g>
	<linearGradient id="SVGID_2_" gradientUnits="userSpaceOnUse" x1="-5.0738" y1="14.9671" x2="71.4417" y2="82.9476">
		<stop  offset="0" style="stop-color:#0C90C2"/>
		<stop  offset="1" style="stop-color:#2DD2AB"/>
	</linearGradient>
	<path class="st1" d="M27.1,42.3c-2.6,2.2-2.9,6.1-0.7,8.7c2.2,2.6,6.1,2.9,8.7,0.8c2.6-2.2,2.9-6.1,0.7-8.7
		C33.6,40.5,29.7,40.1,27.1,42.3z"/>
	<linearGradient id="SVGID_3_" gradientUnits="userSpaceOnUse" x1="29.9591" y1="-24.4641" x2="106.4745" y2="43.5164">
		<stop  offset="0" style="stop-color:#0C90C2"/>
		<stop  offset="1" style="stop-color:#2DD2AB"/>
	</linearGradient>
	<path class="st2" d="M65.3,6.2l-0.2,1.8c0,0,0,0,0,0c3,0.3,5.7,1.7,7.6,4s2.9,5.2,2.6,8.2c0,0,0,0,0,0.1l1.8,0.2c0,0,0,0,0-0.1
		c0.3-3.5-0.8-6.8-3-9.5S68.8,6.5,65.3,6.2z"/>
	<linearGradient id="SVGID_4_" gradientUnits="userSpaceOnUse" x1="27.4126" y1="-21.5979" x2="103.9281" y2="46.3825">
		<stop  offset="0" style="stop-color:#0C90C2"/>
		<stop  offset="1" style="stop-color:#2DD2AB"/>
	</linearGradient>
	<path class="st3" d="M64.9,10.9l-0.2,1.8h0c1.7,0.1,3.3,1,4.4,2.3c1.1,1.3,1.6,3,1.5,4.7c0,0,0,0,0,0.1l1.8,0.2c0,0,0,0,0-0.1
		c0.2-2.2-0.5-4.3-1.9-6C69.1,12.2,67.1,11.1,64.9,10.9z"/>
	<linearGradient id="SVGID_5_" gradientUnits="userSpaceOnUse" x1="32.513" y1="-27.3387" x2="109.0284" y2="40.6418">
		<stop  offset="0" style="stop-color:#0C90C2"/>
		<stop  offset="1" style="stop-color:#2DD2AB"/>
	</linearGradient>
	<path class="st4" d="M78,7.5c-3.1-3.7-7.5-6-12.3-6.4c0,0,0,0,0,0l-0.2,2.5c0,0,0,0,0,0c4.2,0.4,7.9,2.3,10.6,5.5
		c2.7,3.2,4,7.2,3.6,11.4l2.5,0.2C82.6,15.9,81.2,11.2,78,7.5z"/>
</g>
<circle class="st5" cx="31" cy="47.1" r="3.8"/>
<g>
	<linearGradient id="SVGID_6_" gradientUnits="userSpaceOnUse" x1="-11.5888" y1="19.6023" x2="61.9112" y2="94.1023">
		<stop  offset="0" style="stop-color:#0C90C2"/>
		<stop  offset="1" style="stop-color:#2DD2AB"/>
	</linearGradient>
	<path class="st6" d="M35.3,64.4v-1h1.1v1H35.3z M35.4,72v-6.2h0.9V72H35.4z"/>
	<linearGradient id="SVGID_7_" gradientUnits="userSpaceOnUse" x1="-8.94" y1="16.989" x2="64.56" y2="91.489">
		<stop  offset="0" style="stop-color:#0C90C2"/>
		<stop  offset="1" style="stop-color:#2DD2AB"/>
	</linearGradient>
	<path class="st7" d="M38.6,72v-8.4h3.6c1,0,1.8,0.3,2.4,0.8c0.4,0.4,0.6,1,0.6,1.7c0,0.7-0.2,1.2-0.6,1.6s-1,0.7-1.7,0.8l2.6,3.4
		h-1.2l-2.4-3.3h-2.4V72H38.6z M39.5,67.9h2.6c0.6,0,1.2-0.2,1.6-0.5c0.4-0.3,0.6-0.7,0.6-1.3c0-0.5-0.2-0.9-0.6-1.2
		s-0.9-0.4-1.6-0.4h-2.6V67.9z"/>
	<linearGradient id="SVGID_8_" gradientUnits="userSpaceOnUse" x1="-5.1677" y1="13.2674" x2="68.3323" y2="87.7674">
		<stop  offset="0" style="stop-color:#0C90C2"/>
		<stop  offset="1" style="stop-color:#2DD2AB"/>
	</linearGradient>
	<path class="st8" d="M47.7,69.3c0.1,0.6,0.3,1.1,0.7,1.5s0.9,0.6,1.5,0.6c0.7,0,1.4-0.3,2-0.9l0.6,0.5c-0.7,0.8-1.5,1.2-2.6,1.2
		c-0.9,0-1.6-0.3-2.2-0.9c-0.6-0.6-0.9-1.4-0.9-2.3c0-0.9,0.3-1.7,0.9-2.3s1.3-0.9,2.1-0.9c0.9,0,1.6,0.3,2.1,0.9
		c0.5,0.6,0.8,1.4,0.8,2.4c0,0.1,0,0.2,0,0.3H47.7z M47.7,68.5h4c-0.1-0.6-0.3-1.1-0.6-1.5c-0.3-0.4-0.8-0.6-1.4-0.6
		c-0.5,0-1,0.2-1.4,0.6C47.9,67.4,47.7,67.9,47.7,68.5z"/>
	<linearGradient id="SVGID_9_" gradientUnits="userSpaceOnUse" x1="-0.7893" y1="8.9478" x2="72.7107" y2="83.4478">
		<stop  offset="0" style="stop-color:#0C90C2"/>
		<stop  offset="1" style="stop-color:#2DD2AB"/>
	</linearGradient>
	<path class="st9" d="M54.2,72v-6.2h0.9v1c0.5-0.8,1.2-1.2,2-1.2c0.9,0,1.6,0.4,2,1.2c0.5-0.8,1.3-1.2,2.2-1.2
		c0.7,0,1.3,0.2,1.7,0.7s0.6,1.1,0.6,1.8V72h-0.9v-3.6c0-0.6-0.1-1.1-0.4-1.4s-0.7-0.5-1.2-0.5c-0.5,0-0.9,0.2-1.2,0.5
		c-0.3,0.3-0.5,0.8-0.5,1.4V72h-0.9v-3.6c0-0.6-0.1-1-0.4-1.4c-0.3-0.3-0.7-0.5-1.2-0.5S56,66.7,55.6,67c-0.3,0.4-0.5,0.8-0.5,1.4
		V72H54.2z"/>
	<linearGradient id="SVGID_10_" gradientUnits="userSpaceOnUse" x1="4.3408" y1="3.8866" x2="77.8408" y2="78.3866">
		<stop  offset="0" style="stop-color:#0C90C2"/>
		<stop  offset="1" style="stop-color:#2DD2AB"/>
	</linearGradient>
	<path class="st10" d="M70.8,71.2c-0.6,0.6-1.4,1-2.3,1s-1.7-0.3-2.3-0.9c-0.6-0.6-0.9-1.4-0.9-2.3c0-0.9,0.3-1.7,0.9-2.3
		s1.4-1,2.3-1s1.7,0.3,2.3,0.9c0.6,0.6,0.9,1.4,0.9,2.3C71.7,69.8,71.4,70.5,70.8,71.2z M68.5,71.3c0.7,0,1.2-0.2,1.6-0.7
		c0.4-0.5,0.6-1,0.6-1.7c0-0.7-0.2-1.2-0.7-1.7c-0.4-0.5-1-0.7-1.6-0.7c-0.7,0-1.2,0.2-1.6,0.7c-0.4,0.5-0.6,1-0.6,1.7
		c0,0.7,0.2,1.2,0.7,1.7C67.3,71.1,67.8,71.3,68.5,71.3z"/>
	<linearGradient id="SVGID_11_" gradientUnits="userSpaceOnUse" x1="7.9252" y1="0.3502" x2="81.4252" y2="74.8502">
		<stop  offset="0" style="stop-color:#0C90C2"/>
		<stop  offset="1" style="stop-color:#2DD2AB"/>
	</linearGradient>
	<path class="st11" d="M75.5,72.1c-0.5,0-1-0.1-1.3-0.4c-0.3-0.3-0.5-0.7-0.5-1.3v-3.7h-0.9v-0.8h0.9v-1.9h0.9v1.9h2v0.8h-2v3.6
		c0,0.7,0.3,1,1,1c0.3,0,0.6-0.1,0.9-0.2v0.8C76.2,72,75.9,72.1,75.5,72.1z"/>
	<linearGradient id="SVGID_12_" gradientUnits="userSpaceOnUse" x1="10.6002" y1="-2.2888" x2="84.1002" y2="72.2112">
		<stop  offset="0" style="stop-color:#0C90C2"/>
		<stop  offset="1" style="stop-color:#2DD2AB"/>
	</linearGradient>
	<path class="st12" d="M78.8,69.3c0.1,0.6,0.3,1.1,0.7,1.5s0.9,0.6,1.5,0.6c0.7,0,1.4-0.3,2-0.9l0.6,0.5c-0.7,0.8-1.5,1.2-2.6,1.2
		c-0.9,0-1.6-0.3-2.2-0.9c-0.6-0.6-0.9-1.4-0.9-2.3c0-0.9,0.3-1.7,0.9-2.3s1.3-0.9,2.1-0.9c0.9,0,1.6,0.3,2.1,0.9
		c0.5,0.6,0.8,1.4,0.8,2.4c0,0.1,0,0.2,0,0.3H78.8z M78.8,68.5h4c-0.1-0.6-0.3-1.1-0.6-1.5c-0.3-0.4-0.8-0.6-1.4-0.6
		c-0.5,0-1,0.2-1.4,0.6C79.1,67.4,78.8,67.9,78.8,68.5z"/>
</g>
</svg>
