<svg xmlns="http://www.w3.org/2000/svg" width="149" height="113"><defs><linearGradient id="a" x1="0%" x2="70.711%" y1="70.711%" y2="0%"><stop offset="0%" stop-color="#fe6c5f"/><stop offset="100%" stop-color="#dc0224"/></linearGradient></defs><path fill-rule="evenodd" fill="url(#a)" d="M146.998 55.277V41.356h-11.204c-3.203 0-5.809-2.599-5.809-5.797V18.184c0-3.196 2.606-5.796 5.809-5.796h11.204V.026h2.001v55.251h-2.001zm-11.204-40.892a3.808 3.808 0 0 0-3.808 3.799v17.375a3.81 3.81 0 0 0 3.808 3.8h11.204V14.385h-11.204zM54.61 109.918l7.943-2.897.686 1.878-11.292 4.114-3.291-11.538 1.927-.549 2.283 8.014c25.215-49.345 73.274-67.973 73.762-68.155l.936-.354.708 1.868-.935.353c-.482.183-47.885 18.578-72.727 67.266zM3.439 97.822l8.427-.553.13 1.996-11.995.786.085-11.999 2.004.013-.062 8.339C52.326 43.357 123.31 37.89 124.027 37.841l.999-.07.137 1.995-.998.069c-.71.05-70.977 5.479-120.726 57.987zm118.388-62.313c-.689-.071-68.178-6.965-100.547 4.308l7.861 3.413-.801 1.832-11.023-4.785.725-1.379-.005-.012.014-.005 4.848-9.23 1.775.927-3.827 7.278c32.905-11.307 100.497-4.405 101.189-4.334l.995.104-.208 1.988-.996-.105z"/></svg>