<svg xmlns="http://www.w3.org/2000/svg" width="211" height="91"><defs><linearGradient id="a" x1="0%" x2="70.711%" y1="70.711%" y2="0%"><stop offset="0%" stop-color="#fe6c5f"/><stop offset="100%" stop-color="#dc0224"/></linearGradient></defs><path fill-rule="evenodd" fill="url(#a)" d="M194.646 19.909v3.977c0 .55-.448.995-1.002.995h-14.023a.998.998 0 0 1-1.002-.995v-3.977H32.376v3.977c0 .55-.449.995-1.002.995H17.351a.998.998 0 0 1-1.002-.995v-3.977H-.001v-1.99h16.35v-2.98a1 1 0 0 1 1.002-.997h61.086V.982c0-.55.449-.993 1.002-.993h52.086a.997.997 0 0 1 1.002.993v12.96h61.117a.999.999 0 0 1 1.002.997v2.98h16.35v1.99h-16.35zM18.353 22.892h12.02v-2.983h-12.02v2.983zm60.084-6.961H18.353v1.988h60.084v-1.988zm52.087-.992V1.977H80.44v15.942h50.084v-2.98zm62.119.992h-60.116v1.988h60.116v-1.988zm0 3.978h-12.02v2.983h12.02v-2.983zM19.498 30.703l.143-.981 1.983.281-.143.987c-.053.368-4.881 36.59 24.636 54.731l-2.29-8.177 1.932-.531 3.22 11.508-1.528.306-.006.008-.012-.006-10.249 2.045-.396-1.953 8.104-1.612C14.433 68.441 19.443 31.086 19.498 30.703zm6.869.343l-.2-.974 1.96-.398.203.972c.046.223 4.838 21.882 29.782 31.282l-3.779-7.662 1.802-.872 5.289 10.729-1.441.574-.006.016-.021-.007-9.693 3.872-.75-1.845 7.623-3.042c-25.779-9.857-30.721-32.415-30.769-32.645zm129.331 23.247l-3.81 7.647c25.268-9.411 30.066-31.071 30.112-31.295l.203-.972 1.962.401-.202.973c-.049.234-5.044 22.807-31.104 32.657l7.611 3.072-.757 1.844-9.675-3.91-.024.009-.007-.02-1.438-.581 5.331-10.705 1.798.88zM166.73 77.57l-2.333 8.164c29.866-18.151 24.959-54.373 24.905-54.743l-.145-.985 1.983-.286.144.982c.056.384 5.119 37.764-25.668 56.625l8.095 1.654-.406 1.95-10.235-2.096-.015.008-.007-.013-1.527-.312 3.279-11.489 1.93.541z"/></svg>