<svg xmlns="http://www.w3.org/2000/svg" width="164" height="100"><defs><linearGradient id="a" x1="0%" x2="70.711%" y1="70.711%" y2="0%"><stop offset="0%" stop-color="#fe6c5f"/><stop offset="100%" stop-color="#dc0224"/></linearGradient></defs><path fill-rule="evenodd" fill="url(#a)" d="M164 99.994h-39.923v-1.991h8.997V17.305c0-5.486 4.463-9.932 9.969-9.932h9.494a3.523 3.523 0 0 1 3.529 3.515v87.115H164v1.991zm-9.934-88.753a1.88 1.88 0 0 0-1.883-1.877h-9.14c-4.401 0-7.97 3.555-7.97 7.941v80.698h18.993V11.241zm-30.179 23.517c-.601-.115-60.181-11.235-119.858 10.692l7.791 3.342-.793 1.827-11.028-4.728 5.537-10.615 1.777.917-3.829 7.335c60.17-22.051 120.18-10.841 120.784-10.727l.982.192-.382 1.954-.981-.189zm-.476-6.507c-.374-.158-37.382-15.571-86.184-19.579l5.667 6.219-1.483 1.339-8.069-8.858 9.453-7.376 1.235 1.57-6.578 5.128c49.108 4.041 86.363 19.563 86.739 19.722l.919.391-.78 1.833-.919-.389zM51.197 71.087c23.687-26.256 71.726-31.438 72.217-31.488l.994-.099.203 1.981-.994.103c-.482.045-47.61 5.139-70.81 30.698l8.244-.997.239 1.978-11.92 1.443-.575-11.95 1.998-.098.404 8.429z"/></svg>