<svg xmlns="http://www.w3.org/2000/svg" width="273" height="92"><defs><linearGradient id="a" x1="0%" x2="70.711%" y1="70.711%" y2="0%"><stop offset="0%" stop-color="#fe6c5f"/><stop offset="100%" stop-color="#dc0224"/></linearGradient></defs><path fill-rule="evenodd" fill="url(#a)" d="M262.741 59.978l-.738-1.701 7.261-3.11c-55.507-20.382-110.929-10.037-111.488-9.928l-.912.175-.355-1.815.913-.177c.562-.108 56.367-10.536 112.324 9.948l-3.551-6.796 1.652-.854 5.15 9.861-10.256 4.397zm-29.637-33.201l5.27-5.777c-45.388 3.725-79.807 18.047-80.154 18.193l-.856.362-.725-1.705.855-.362c.35-.149 34.997-14.57 80.669-18.326l-6.116-4.764 1.148-1.458 8.792 6.852-7.504 8.231-1.379-1.246zm-92.849 59.638h32.62v1.865h-32.793v-.006h-1.689v-6.501h-.07V35.317h.07V12.719h-34.935c-4.687 0-8.847-2.495-8.847-7.937V1.87H60.555V.006h34.056v-.007h45.644v35.318h4.403c5.448 0 6.692 4.543 6.692 9.226v37.23h-11.095v4.642zM138.393 1.87h-41.92v2.912c0 4.127 3.169 6.073 6.985 6.073h34.935V1.87zm11.09 78.043v-35.37c0-3.811-.694-7.366-4.825-7.366h-4.403v42.736h9.228zM87.93 8.641l.931.025-.048 1.864-.93-.024c-.546-.017-53.663-1.202-77.994 12.405l7.777 1.861-.435 1.814L6.353 23.98l.437-1.375-.02-.033.037-.022 2.932-9.241 1.777.564-2.313 7.283C34.042 7.432 85.697 8.583 87.93 8.641zm1.946 4.117l.913-.183.365 1.827-.912.184c-.159.032-16.095 3.317-34.36 14.277C39.335 38.791 17.491 57.218 6.57 88.798l6.952-3.708.875 1.647L4.525 92 0 81.761l1.704-.757 3.134 7.098c11.124-32.083 33.325-50.794 50.146-60.874 18.533-11.108 34.73-14.439 34.892-14.47zM62.968 84.142c-4.841-24.702 3.089-41.914 10.717-52.077 8.46-11.272 18.104-16.394 18.511-16.608l.824-.43.862 1.651-.823.431c-.097.051-9.729 5.179-17.934 16.142-7.387 9.87-15.063 26.612-10.299 50.69l4.176-6.742 1.583.983-5.894 9.516-9.051-6.575 1.093-1.514 6.235 4.533zm95.06-32.561l-.925-.095.189-1.842.925.093c.456.047 45.135 4.862 67.164 29.257l.376-7.83 1.858.089-.535 11.104-11.086-1.341.223-1.837 7.666.925c-21.577-23.748-65.407-28.48-65.855-28.523z"/></svg>