<svg xmlns="http://www.w3.org/2000/svg" width="155" height="88"><defs><linearGradient id="a" x1="0%" x2="70.711%" y1="70.711%" y2="0%"><stop offset="0%" stop-color="#fe6c5f"/><stop offset="100%" stop-color="#dc0224"/></linearGradient></defs><path fill-rule="evenodd" fill="url(#a)" d="M155 78.372l-8.333 8.646-8.013-8.944 1.488-1.335 5.662 6.32c.479-23.517-7.694-41.58-24.357-53.678-12.742-9.252-25.89-11.348-26.022-11.371l-.987-.149.302-1.976.988.15c.555.086 13.762 2.192 26.892 11.728 11.881 8.625 25.745 25.168 25.2 55.177l5.741-5.959L155 78.372zM110.569 3.918a4.11 4.11 0 0 1-4.105 4.105H48.708a4.11 4.11 0 0 1-4.106-4.105V2.025H30.297V.026h94.577v1.999h-14.305v1.893zM46.601 2.025v1.893c0 1.161.945 2.106 2.107 2.106h57.756a2.109 2.109 0 0 0 2.106-2.106V2.025H46.601zM31.973 27.767c12.923-9.539 25.922-11.646 26.469-11.732l.987-.152.307 1.975-.986.152c-.13.023-13.126 2.138-25.656 11.415C16.746 41.524 8.728 59.571 9.198 83.054l5.66-6.312 1.488 1.337-8.018 8.939-8.329-8.649 1.44-1.391 5.742 5.967c-.536-30.01 13.103-46.553 24.792-55.178zM51.898 57.04c.069-27.28 19.386-40.709 19.586-40.844l.827-.56 1.121 1.653-.826.56c-.191.133-18.77 13.099-18.707 39.473l5.849-6.279 1.462 1.368-8.186 8.781-1.053-1.134h-.021l-.001-.025-7.088-7.644 1.466-1.364 5.571 6.015zm30.89-40.847c.203.134 19.835 13.559 19.908 40.84l5.567-6.009 1.465 1.365-7.084 7.639-.001.031-.027-.001-1.052 1.134-8.185-8.781 1.463-1.368 5.852 6.285c.07-26.418-18.82-39.341-19.015-39.471l-.831-.556 1.108-1.664.832.556z"/></svg>