<svg xmlns="http://www.w3.org/2000/svg" width="117" height="112"><defs><linearGradient id="a" x1="0%" x2="70.711%" y1="70.711%" y2="0%"><stop offset="0%" stop-color="#FE6C5F"/><stop offset="100%" stop-color="#DC0224"/></linearGradient></defs><path fill-rule="evenodd" fill="url(#a)" d="M0 8.939V.969h117v7.97H0zM115 2.96H2v3.987h113V2.96zM15.511 98.061C31.656 80.102 42.4 48.645 42.4 18.903h2c0 30.141-10.906 62.063-27.308 80.388l13.407-1.352.201 1.983-16.839 1.697-1.702-16.783 1.99-.2 1.362 13.425zm41.972 10.11V19.106h2v89.046l9.52-9.546 1.418 1.404-11.931 11.966-12.01-11.889 1.411-1.412 9.592 9.496zM74.6 18.903c0 29.744 10.744 61.204 26.89 79.161l1.36-13.428 1.991.2-1.7 16.783-16.843-1.697.201-1.983 13.407 1.351C83.505 80.967 72.6 49.044 72.6 18.903h2z"/></svg>