<svg xmlns="http://www.w3.org/2000/svg" width="116" height="108"><defs><linearGradient id="a" x1="0%" x2="70.711%" y1="70.711%" y2="0%"><stop offset="0%" stop-color="#FE6C5F"/><stop offset="100%" stop-color="#DC0224"/></linearGradient></defs><path fill-rule="evenodd" fill="url(#a)" d="M114.314 74.813l-5.686-8.676C104.92 84.238 91.96 99.085 74.474 105.11a52.182 52.182 0 0 1-17.022 2.87c-7.828 0-15.619-1.782-22.874-5.318C22.02 96.544 12.603 85.92 8.064 72.748l1.896-.654c4.365 12.666 13.42 22.882 25.497 28.766 12.074 5.884 25.699 6.719 38.362 2.355 16.776-5.781 29.195-20.015 32.794-37.368l-8.493 5.564-1.098-1.679 11.446-7.497 7.522 11.479-1.676 1.099zM29.442 35.049c3.451-1.337 7.362-2.853 14.266-2.923 6.915-.068 11 1.217 14.933 2.657 3.816 1.396 7.418 2.704 14.142 2.642 6.465-.067 10.079-1.439 13.574-2.767l.425-.162.711 1.876-.424.161c-3.489 1.325-7.443 2.827-14.265 2.897-.17.003-.338.004-.503.004-6.781 0-10.622-1.405-14.339-2.765-3.907-1.429-7.675-2.613-14.234-2.537-6.539.065-10.108 1.449-13.561 2.788l-.164.063-.725-1.87.164-.064zm0 12.149c3.451-1.338 7.362-2.854 14.266-2.923 6.915-.077 11 1.217 14.933 2.656 3.813 1.393 7.408 2.7 14.142 2.643 6.465-.067 10.079-1.44 13.574-2.768l.425-.162.711 1.877-.424.16c-3.489 1.325-7.443 2.827-14.265 2.897-.168.003-.334.003-.498.003-6.786.001-10.629-1.405-14.349-2.763-3.902-1.428-7.67-2.619-14.229-2.538-6.539.065-10.108 1.449-13.561 2.788l-.164.063-.725-1.87.164-.063zm29.199 24.03c3.816 1.394 7.418 2.726 14.142 2.641 6.469-.067 10.085-1.44 13.581-2.769l.418-.16.711 1.877-.416.158c-3.49 1.326-7.446 2.83-14.273 2.9l-.503.003c-6.781 0-10.622-1.404-14.339-2.763-3.909-1.43-7.689-2.618-14.234-2.538-6.539.066-10.108 1.45-13.561 2.789l-.164.063-.725-1.87.164-.065c3.451-1.336 7.362-2.852 14.266-2.923 6.883-.087 10.998 1.218 14.933 2.657zM29.442 59.346c3.451-1.338 7.362-2.854 14.266-2.923 6.883-.091 10.998 1.218 14.933 2.655 3.816 1.397 7.418 2.706 14.142 2.643 6.469-.067 10.085-1.44 13.581-2.769l.418-.16.711 1.876-.416.158c-3.49 1.327-7.446 2.829-14.273 2.901-.17.002-.338.002-.503.002-6.781 0-10.622-1.403-14.339-2.763-3.909-1.43-7.689-2.62-14.234-2.537-6.539.066-10.108 1.449-13.561 2.787l-.164.065-.725-1.872.164-.063zM80.529 7.778C68.455 1.895 54.83 1.058 42.167 5.423 25.391 11.203 12.972 25.437 9.374 42.79l8.492-5.563 1.099 1.678-11.446 7.499-7.523-11.481 1.676-1.098L7.359 42.5C11.066 24.399 24.026 9.552 41.513 3.527 54.685-1.014 68.852-.142 81.408 5.975c12.558 6.12 21.975 16.744 26.514 29.914l-1.896.654c-4.364-12.665-13.42-22.88-25.497-28.765z"/></svg>