<svg xmlns="http://www.w3.org/2000/svg" width="112" height="112"><defs><linearGradient id="a" x1="0%" x2="70.711%" y1="70.711%" y2="0%"><stop offset="0%" stop-color="#00ADEF"/><stop offset="100%" stop-color="#31ECBE"/></linearGradient></defs><path fill-rule="evenodd" fill="url(#a)" d="M21.214 65.173L14.727 57l6.487-8.173 1.566 1.245L18.073 56H54V20.073l-5.929 4.707-1.244-1.566L55 16.727l8.173 6.487-1.244 1.566L56 20.073V56h35.927l-4.707-5.928 1.566-1.245L95.273 57l-6.487 8.173-1.566-1.244L91.927 58H56v35.926l5.929-4.706 1.244 1.566L55 97.274l-8.173-6.488 1.244-1.566L54 93.926V58H18.073l4.707 5.929-1.566 1.244zM112 71v27h-2v14H0V98.52l20.375-16.302 1.25 1.564L2 99.48V110h106V98h-2V71h2V43h-2V15.999h2V4H55v2H28V4H2v68H0V2h28V0h27v2h55v13.999h2V43h-2v28h2z"/></svg>