<svg xmlns="http://www.w3.org/2000/svg" width="117" height="100"><defs><linearGradient id="a" x1="0%" x2="70.711%" y1="70.711%" y2="0%"><stop offset="0%" stop-color="#00ADEF"/><stop offset="100%" stop-color="#31ECBE"/></linearGradient></defs><path fill-rule="evenodd" fill="url(#a)" d="M66.384 34c-.382 2.63-1.897 10.023-6.884 10.906v23.118c23.203.524 28 18.978 28 23.976 0 5.353-2.199 7.614-2.293 7.707l-.293.293H32.086l-.293-.293C31.699 99.614 29.5 97.353 29.5 92c0-3.892 4.912-23.417 28-23.973V44.906c-4.987-.883-6.502-8.276-6.884-10.906H0v-7.999h12.5v-1.5h2v1.5h28v-1.5h2v1.5h28v-1.5h2v1.5h28v-1.5h2v1.5H117V34H66.384zm-33.4 64h51.033c.364-.529 1.063-1.813 1.35-4H31.633c.287 2.182.984 3.464 1.351 4zM31.5 92h54c0-4.647-4.582-22-27-22-22.307 0-27 18.38-27 22zm27-49c3.948 0 5.415-6.389 5.85-9h-11.7c.435 2.611 1.902 9 5.85 9zM115 28.001H2V32h113v-3.999zm-12.5-17.619h2v2.824h-2v-2.824zm2 12.236h-2v-2.823h2v2.823zm-2-7.529h2v2.823h-2v-2.823zm-30-4.707h2v2.824h-2v-2.824zm2 12.236h-2v-2.823h2v2.823zm-2-7.529h2v2.823h-2v-2.823zm-30-4.707h2v2.824h-2v-2.824zm2 12.236h-2v-2.823h2v2.823zm-2-7.529h2v2.823h-2v-2.823zm-30-4.707h2v2.824h-2v-2.824zm2 12.236h-2v-2.823h2v2.823zm-2-7.529h2v2.823h-2v-2.823zm92-6.589h-2V8h-28v.5h-2V8h-28v.5h-2V8h-28v.5h-2V8H0V0h117v8h-12.5v.5zM2 2v4h3.586l4-4H2zm10.414 0l-4 4h7.172l4-4h-7.172zm10 0l-4 4h7.172l4-4h-7.172zm10 0l-4 4h7.172l4-4h-7.172zm10 0l-4 4h7.172l4-4h-7.172zm10 0l-4 4h7.172l4-4h-7.172zm10 0l-4 4h7.172l4-4h-7.172zm10 0l-4 4h7.172l4-4h-7.172zm10 0l-4 4h7.172l4-4h-7.172zm10 0l-4 4h7.172l4-4h-7.172zM115 6V2h-2.586l-4 4H115zm-9.414 0l4-4h-7.172l-4 4h7.172z"/></svg>