<svg xmlns="http://www.w3.org/2000/svg" width="117" height="108"><defs><linearGradient id="a" x1="0%" x2="70.711%" y1="70.711%" y2="0%"><stop offset="0%" stop-color="#FE6C5F"/><stop offset="100%" stop-color="#DC0224"/></linearGradient></defs><path fill-rule="evenodd" fill="url(#a)" d="M115 106.3V.981h2V106.3h-2zm-10-89.269h2V106.3h-2V17.031zM95 35.084h2V106.3h-2V35.084zM85 54.142h2V106.3h-2V54.142zM75.924 73.22h2v33.08h-2V73.22zM0 75.206V34.082h27.545L56 1.312v106.664l-28.455-32.77H0zm27-39.118H2V73.2h25V36.088zm2 37.74l25 28.789V6.67L29 35.46v38.368z"/></svg>