<svg xmlns="http://www.w3.org/2000/svg" width="96" height="116"><defs><linearGradient id="a" x1="0%" x2="70.711%" y1="70.711%" y2="0%"><stop offset="0%" stop-color="#FE6C5F"/><stop offset="100%" stop-color="#DC0224"/></linearGradient></defs><path fill-rule="evenodd" fill="url(#a)" d="M96 0H0v8.001h4V113.508l.4.3C6.351 115.27 8.854 116 11.971 116c2.131 0 4.55-.342 7.271-1.023l.939-.233-.204-.946c-.178-.835-.354-1.685-.525-2.548.286-.44 1.072-1.449 2.29-1.449 1.546 0 2.409 1.641 2.415 1.654.029.056.069.104.106.152.015.02.026.042.043.062.079.089.172.158.274.214.009.005.015.015.025.019.016.008.035.007.052.014.09.039.184.064.282.076.025.003.048.009.073.01.014 0 .027.006.041.006.034 0 .067-.021.102-.024.098-.012.192-.029.283-.068.02-.008.041-.005.061-.014.036-.018.059-.05.092-.072a.994.994 0 0 0 .16-.124.994.994 0 0 0 .124-.16c.022-.033.053-.055.071-.091.008-.017.869-1.654 2.414-1.654 1.546 0 2.41 1.641 2.415 1.654.032.063.075.116.118.169.008.012.014.023.023.033a.962.962 0 0 0 .291.23c.004.003.007.007.012.009.009.005.019.004.028.007.102.049.21.08.323.091l.045.006c.019.001.037.008.056.008.043 0 .085-.025.128-.031a.955.955 0 0 0 .244-.058c.024-.009.051-.005.074-.017.041-.021.066-.055.103-.08a1.12 1.12 0 0 0 .14-.109c.053-.052.095-.109.135-.169.02-.031.05-.051.067-.084.008-.018.872-1.659 2.418-1.659 1.545 0 2.409 1.641 2.415 1.654.028.056.068.104.105.152.015.02.026.042.043.062.079.089.172.158.274.214.01.005.015.015.025.019.017.008.035.007.053.014a1 1 0 0 0 .281.076c.025.002.048.009.073.01.014 0 .027.006.041.006.035 0 .068-.021.103-.024.098-.012.191-.029.282-.067.02-.009.042-.006.061-.015.037-.018.06-.05.093-.072a.9.9 0 0 0 .158-.124c.05-.05.088-.103.126-.16.021-.033.053-.055.071-.091.007-.017.869-1.654 2.414-1.654 1.546 0 2.409 1.641 2.415 1.654.031.062.074.114.116.167.009.011.015.025.025.036a.98.98 0 0 0 .29.228c.004.002.007.008.012.01.009.005.019.004.029.008.102.049.21.079.323.09.015.001.029.005.044.006.019.001.037.008.056.008.043 0 .085-.025.128-.031a.973.973 0 0 0 .245-.058c.024-.01.05-.005.073-.017.041-.021.066-.055.102-.079a.937.937 0 0 0 .141-.11.982.982 0 0 0 .135-.169c.02-.031.05-.051.067-.084.009-.018.872-1.659 2.418-1.659 1.545 0 2.408 1.641 2.414 1.654.032.063.075.116.117.169.009.012.014.023.023.033a.974.974 0 0 0 .291.23c.005.003.007.007.012.009.009.005.019.004.028.007.103.049.211.08.325.091.014.001.028.005.043.006.019.001.037.008.056.008.044 0 .085-.025.128-.031a.973.973 0 0 0 .245-.058c.024-.01.05-.005.074-.017.04-.021.065-.055.102-.079a.982.982 0 0 0 .14-.11.936.936 0 0 0 .135-.169c.02-.031.05-.051.067-.084.009-.018.872-1.659 2.418-1.659 1.546 0 2.409 1.641 2.415 1.654.029.056.068.104.106.152.015.02.025.042.042.062.079.089.173.158.275.214.009.005.014.015.024.019.017.008.036.007.053.014.09.039.184.064.281.076.025.003.049.009.074.01.014 0 .027.006.041.006.034 0 .067-.021.102-.024.098-.012.192-.029.282-.067.02-.009.042-.006.062-.015.036-.018.059-.05.093-.072a.978.978 0 0 0 .157-.123.967.967 0 0 0 .126-.162c.022-.032.053-.054.071-.09.008-.017.869-1.654 2.414-1.654 1.546 0 2.409 1.641 2.415 1.654a.963.963 0 0 0 .118.169c.008.012.013.023.023.033a.958.958 0 0 0 .29.23c.005.003.008.007.013.009.008.005.018.004.027.007.103.049.211.08.324.091.015.001.029.005.044.006.019.001.038.008.057.008.043 0 .085-.025.128-.031a.965.965 0 0 0 .244-.058c.024-.009.05-.005.074-.017.04-.021.066-.055.102-.08a.99.99 0 0 0 .14-.109.988.988 0 0 0 .136-.169c.02-.031.049-.051.066-.084.009-.018.872-1.659 2.418-1.659 1.546 0 2.409 1.641 2.415 1.654.029.056.069.104.106.152.015.02.026.042.043.062.079.089.172.158.274.214.009.005.015.015.025.019.016.008.035.007.052.014.09.039.184.064.281.076.025.002.049.009.074.01.014 0 .027.006.041.006.034 0 .068-.021.102-.024.098-.012.192-.029.283-.067.02-.009.041-.006.061-.015.037-.018.059-.05.093-.072a.938.938 0 0 0 .158-.124.947.947 0 0 0 .125-.16c.022-.033.053-.055.071-.091.008-.017.869-1.654 2.414-1.654.888 0 1.542.539 1.946 1.002a185.258 185.258 0 0 1-.613 2.995l-.204.946.939.233c2.722.681 5.139 1.023 7.271 1.023 3.117 0 5.62-.73 7.571-2.192l.4-.3V8.001h4V0zM6 8.001h36.751c-1.206 5.348-2.86 12.127-5.459 21.001h-.003v.01a475.512 475.512 0 0 1-5.237 16.675c-4.599 13.795-10.917 21.568-14.475 25.318h-.144v.15a65.026 65.026 0 0 1-1.697 1.707l-.443.436c-.85.849-1.383 1.409-1.72 1.967-1.435-.761-3.699-2.011-5.573-3.26-.809-.539-1.462-1-2-1.394V8.001zm9 71.004c0-2.585 0-2.585 1.707-4.293l.425-.418.301-.294v25.679C15.92 89.845 15 80.954 15 79.005zm-9 33.483V74.892c.521.329 1.171.698 2 1.113a75.178 75.178 0 0 1 5.001 2.719l-.001.281c0 2.959 1.886 20.189 4.82 34.256-5.312 1.201-9.193.949-11.82-.773zm15.742-4.687c-.928 0-1.694.294-2.309.69V71.95a56.903 56.903 0 0 0 4.619-5.696v42.237a4.208 4.208 0 0 0-2.31-.69zm6.618 0c-.927 0-1.693.294-2.308.689V63.266a72.09 72.09 0 0 0 4.618-8.592v53.817a4.205 4.205 0 0 0-2.31-.69zm6.62 0c-.928 0-1.694.294-2.31.69V50.004h-.049a88.09 88.09 0 0 0 1.327-3.684c1.24-3.72 2.344-7.164 3.341-10.382v72.553a4.207 4.207 0 0 0-2.309-.69zm6.618 0c-.928 0-1.693.294-2.309.689V29.296c2.046-7 3.504-12.697 4.618-17.413v96.608a4.205 4.205 0 0 0-2.309-.69zm6.619 0c-.928 0-1.694.294-2.31.69V8.001h4.618V108.49a4.209 4.209 0 0 0-2.308-.689zm6.618 0c-.928 0-1.694.294-2.31.69V13.69c1.15 4.746 2.639 10.415 4.687 17.312h-.068v77.489a4.202 4.202 0 0 0-2.309-.69zm6.618 0c-.928 0-1.693.294-2.308.689V37.328a508.897 508.897 0 0 0 2.907 8.992 86.748 86.748 0 0 0 1.723 4.684h-.012v57.487a4.208 4.208 0 0 0-2.31-.69zm6.619 0c-.928 0-1.694.294-2.309.69V55.603c1.532 3.248 3.117 6.042 4.648 8.402h-.029v44.486a4.208 4.208 0 0 0-2.31-.69zm6.618 0c-.927 0-1.693.294-2.308.689V66.855A56.113 56.113 0 0 0 77 72.412v36.079a4.208 4.208 0 0 0-2.31-.69zM79 96.785V74.424l.293.288C81 76.42 81 76.42 81 79.005c0 1.756-.747 9.144-2 17.78zm-.82 16.476c.094-.453.187-.909.28-1.369a.992.992 0 0 0 .53-.884H79v-1.899c2.461-13.111 4-27.431 4-30.104l-.001-.281A75.178 75.178 0 0 1 88 76.005a23.172 23.172 0 0 0 2-1.113v37.596c-2.628 1.722-6.508 1.974-11.82.773zM90 70.611c-.538.394-1.191.855-2 1.394-1.874 1.249-4.137 2.499-5.573 3.26-.337-.558-.87-1.118-1.72-1.967l-.443-.436c-2.66-2.593-10.752-10.486-16.316-27.175-5.895-17.688-8.829-29.392-10.699-37.686H90v62.61zm4-64.61H2v-4h92v4z"/></svg>