<svg xmlns="http://www.w3.org/2000/svg" width="21" height="22"><path fill-rule="evenodd" fill="#BBB" d="M20.028 16.134l-4.424-4.478c-.947-.96-2.615-.96-3.562 0l-.202.205-1.933-1.957.203-.205a2.578 2.578 0 0 0 0-3.607L5.686 1.614c-.947-.961-2.615-.961-3.562 0l-1.118 1.13a2.58 2.58 0 0 0 0 3.608L5.43 10.83c.474.48 1.106.745 1.781.745.675 0 1.308-.265 1.781-.745l.203-.205 1.932 1.957-.203.205a2.578 2.578 0 0 0 0 3.607l4.424 4.479c.474.48 1.106.745 1.781.745.675 0 1.308-.265 1.781-.745l1.118-1.131a2.58 2.58 0 0 0 0-3.608zM8.28 10.109c-.569.576-1.569.576-2.138 0L1.719 5.631a1.547 1.547 0 0 1 0-2.165l1.118-1.131a1.488 1.488 0 0 1 1.068-.446c.405 0 .784.158 1.069.446l4.423 4.478a1.547 1.547 0 0 1 0 2.165l-.202.205-2.289-2.318a.5.5 0 0 0-.712 0 .514.514 0 0 0 0 .721l2.288 2.318-.202.205zm11.035 8.912l-1.117 1.13c-.569.576-1.569.576-2.137 0l-4.424-4.478a1.547 1.547 0 0 1 0-2.165l.203-.205 2.949 2.987a.504.504 0 0 0 .713 0 .515.515 0 0 0 0-.722l-2.95-2.986.203-.205a1.488 1.488 0 0 1 1.068-.446c.406 0 .784.158 1.069.446l4.423 4.479a1.547 1.547 0 0 1 0 2.165z"/></svg>