<svg xmlns="http://www.w3.org/2000/svg" width="71" height="55"><path fill-rule="evenodd" fill="#231F20" d="M70.597 42.891a4.903 4.903 0 0 1-2.666 2.696l-11.138 4.58a1.02 1.02 0 0 1-.316.214l-9.112 3.815a10.324 10.324 0 0 1-7.23.278l-21.373-7.066c-.856-.283-13.782 2.76-14.608 3.124l-.849.374a1.046 1.046 0 0 1-.836-1.916l.848-.372c1.297-.573 14.753-3.641 16.099-3.197l21.371 7.067a8.245 8.245 0 0 0 5.776-.222l5.37-2.248c.098-.109.217-.201.361-.261l14.835-6.1a2.842 2.842 0 0 0 1.539-1.557 2.845 2.845 0 0 0-.013-2.189l-.007-.011a2.85 2.85 0 0 0-3.553-1.57l-15.722 5.52a6.753 6.753 0 0 1-4.453.001l-13.712-4.81a4.1 4.1 0 0 1-2.589-4.89 4.046 4.046 0 0 1 2.32-2.699 4.039 4.039 0 0 1 2.922-.114l11.965 4.105a2.222 2.222 0 0 0 2.747-1.213 2.2 2.2 0 0 0 .003-1.769 2.192 2.192 0 0 0-1.238-1.193l-18.861-7.26a7.2 7.2 0 0 0-.384-.141c-3.089-1.065-6.619-.572-9.445 1.317L1.62 34.888a1.04 1.04 0 0 1-1.445-.289 1.047 1.047 0 0 1 .289-1.451l17.027-9.704c3.364-2.248 7.579-2.83 11.277-1.556.183.065.331.117.466.171l3.516 1.353V12.791l-2.862 1.902a1.04 1.04 0 0 1-1.444-.295 1.049 1.049 0 0 1 .293-1.45l17.03-11.315a1.037 1.037 0 0 1 1.15 0l3.01 2V1.044c0-.577.467-1.046 1.043-1.046h6.254c.576 0 1.043.469 1.043 1.046v8.131l5.68 3.773c.48.321.611.969.294 1.45a1.042 1.042 0 0 1-1.445.295l-2.862-1.902v18.166a4.138 4.138 0 0 1 2.616.139l.036.014a4.13 4.13 0 0 1 2.266 2.243c.381.91.429 1.905.142 2.838a4.94 4.94 0 0 1 5.565 2.872l.015.033a4.925 4.925 0 0 1 .023 3.795zM32.75 33.222a1.979 1.979 0 0 0-2.116 1.464 1.999 1.999 0 0 0 1.262 2.382l.854.299v-4.145zm9.213-6.263l6.119 2.355a4.268 4.268 0 0 1 2.637 3.013v-9.336h-8.756v3.968zm14.219-24.87h-4.17v2.929l4.17 2.769V2.089zm-9.841 1.672l-11.506 7.647v12.807l5.044 1.942v-4.212c0-.578.466-1.048 1.042-1.048h10.841c.576 0 1.042.47 1.042 1.048v12.134c0 .576-.466 1.045-1.042 1.045h-1.304c-.907 2.006-3.225 3.015-5.307 2.299l-10.316-3.541v4.215l10.772 3.78a4.706 4.706 0 0 0 3.078 0l9.164-3.219V15.296l.001-.001v-3.887L46.341 3.761zM62.93 34.164a2.054 2.054 0 0 0-1.113-1.109c-.011-.004-.021-.007-.031-.012a2.06 2.06 0 0 0-1.852.171v4.711l2.469-.866.534-1.302a2.07 2.07 0 0 0-.007-1.593z"/></svg>