<svg xmlns="http://www.w3.org/2000/svg" width="102.994" height="78.998" viewBox="0 0 102.994 78.998"><linearGradient id="a" gradientUnits="userSpaceOnUse" x1="-200.846" y1="292.482" x2="-137.318" y2="211.169" gradientTransform="matrix(1 0 0 -1 214.4 307.658)"><stop offset="0" stop-color="#0c90c2"/><stop offset="1" stop-color="#2dd2ab"/></linearGradient><path d="M102.153 76.845c-.561.619-1.279.928-2.155.928-.87 0-1.58-.308-2.129-.925-.549-.616-.824-1.372-.824-2.267 0-.905.28-1.673.841-2.307.561-.632 1.28-.949 2.155-.949.87 0 1.579.315 2.128.945.549.629.825 1.4.825 2.311.001.89-.28 1.644-.841 2.264zm-1.159-3.562c-.264-.349-.596-.523-.996-.523-.411 0-.739.171-.983.514-.244.342-.365.768-.365 1.277 0 .508.132.933.397 1.275.264.343.596.514.996.514.411 0 .738-.171.982-.514.244-.342.366-.767.366-1.275 0-.498-.133-.921-.397-1.268zm-10.303 4.35l9.237-12.614h1.789l-9.246 12.614h-1.78zm1.674-6.307c-.87 0-1.581-.311-2.133-.933s-.828-1.386-.828-2.29c0-.896.28-1.658.841-2.284.561-.626 1.28-.94 2.156-.94.87 0 1.581.312 2.133.935.552.624.829 1.387.829 2.289 0 .898-.281 1.66-.842 2.285-.562.625-1.28.938-2.156.938zm.996-4.491c-.264-.349-.596-.523-.996-.523-.411 0-.739.171-.983.514-.244.342-.365.768-.365 1.276s.13.933.392 1.275c.261.343.592.514.992.514.411 0 .74-.171.987-.514.247-.342.37-.767.37-1.275 0-.497-.132-.919-.397-1.267zm-10.097 7.397a9.626 9.626 0 0 1-3.252 2.79c-1.303.693-2.717 1.039-4.242 1.039s-2.934-.343-4.225-1.03a9.54 9.54 0 0 1-3.226-2.774c-.861-1.162-1.532-2.513-2.014-4.053a16.261 16.261 0 0 1-.723-4.886c0-1.694.244-3.311.732-4.852.488-1.539 1.164-2.89 2.03-4.052a9.684 9.684 0 0 1 3.252-2.783c1.303-.693 2.716-1.039 4.242-1.039 1.525 0 2.933.341 4.224 1.021a9.475 9.475 0 0 1 3.227 2.765c.86 1.163 1.532 2.514 2.013 4.053.482 1.54.723 3.169.723 4.886 0 1.695-.244 3.312-.732 4.852-.486 1.542-1.163 2.896-2.029 4.063zm.258-13.06c-.396-1.334-.946-2.513-1.652-3.538a8.188 8.188 0 0 0-2.65-2.464 6.726 6.726 0 0 0-3.45-.927c-.998 0-1.939.197-2.822.592a7.091 7.091 0 0 0-2.306 1.64 10.904 10.904 0 0 0-1.704 2.438 12.27 12.27 0 0 0-1.084 3.032 15.626 15.626 0 0 0-.361 3.374c0 1.432.198 2.811.594 4.139.396 1.328.946 2.507 1.651 3.538a8.171 8.171 0 0 0 2.65 2.473 6.73 6.73 0 0 0 3.451.928c1.239 0 2.386-.306 3.441-.919s1.93-1.431 2.624-2.456c.694-1.024 1.237-2.204 1.627-3.538a14.76 14.76 0 0 0 .585-4.165 14.564 14.564 0 0 0-.594-4.147zM55.196 38.545l1.248-1.568 7.213 5.714V.703h2.006V42.69l7.212-5.714 1.248 1.568-9.462 7.495-9.465-7.494zm6.873 16.9l-1.153 1.408c-.998-.87-1.982-1.523-2.951-1.958a7.565 7.565 0 0 0-3.141-.653c-2.421 0-4.371 1.125-5.85 3.375-1.48 2.249-2.22 5.183-2.22 8.801v.601c1.813-3.057 4.383-4.586 7.709-4.586 1.492 0 2.882.313 4.173.936 1.291.625 2.335 1.52 3.132 2.688s1.196 2.473 1.196 3.915c0 1.523-.378 2.903-1.135 4.139-.758 1.236-1.796 2.204-3.115 2.902-1.319.699-2.782 1.048-4.388 1.048a9.191 9.191 0 0 1-3.501-.669c-1.096-.447-2.022-1.048-2.779-1.803a9.863 9.863 0 0 1-2.375-3.786c-.505-1.448-.757-3.409-.757-5.883 0-2.473.408-4.717 1.221-6.732.815-2.014 1.991-3.617 3.528-4.809 1.537-1.19 3.303-1.786 5.3-1.786 1.342 0 2.572.24 3.691.721 1.119.482 2.257 1.192 3.415 2.131zM49.491 74.627c1.331 1.18 2.988 1.769 4.973 1.769 1.95 0 3.536-.616 4.758-1.846 1.222-1.231 1.833-2.756 1.833-4.577 0-1.706-.632-3.12-1.893-4.242-1.262-1.122-2.863-1.683-4.801-1.683a7.25 7.25 0 0 0-2.779.533c-.867.355-1.595.818-2.186 1.391a6.423 6.423 0 0 0-1.393 1.975 5.414 5.414 0 0 0-.507 2.267c-.001 1.763.664 3.235 1.995 4.413zm-34.346-9.362l5.775 5.764L0 78.998l7.987-20.876 5.739 5.728 33.281-33.216-44.418-.001L32.978 0l1.426 1.407L7.398 28.631l44.451.001-36.704 36.633zM3.473 75.532l13.841-5.272-8.556-8.54-5.285 13.812z" fill="url(#a)"/></svg>