<svg height="52.011" viewBox="0 0 55.457 52.011" width="55.457" xmlns="http://www.w3.org/2000/svg"><path d="M50.229 0h-45C2.345 0 0 2.232 0 4.976v33.505c0 2.743 2.345 4.976 5.229 4.976h17.114c-.851.982-1.724 1.85-2.466 2.585-1.464 1.45-2.348 2.325-2.348 3.229a2.737 2.737 0 0 0 2.728 2.741h14.028a2.737 2.737 0 0 0 2.728-2.741c0-.833-.804-1.657-2.021-2.905-.809-.829-1.766-1.813-2.567-2.908h17.804c2.883 0 5.229-2.232 5.229-4.976V4.976C55.457 2.232 53.112 0 50.229 0zm-45 1.457h45c2.08 0 3.771 1.579 3.771 3.519V33.5H1.457V4.976c0-1.94 1.692-3.519 3.772-3.519zM33.93 47.4c.65.667 1.54 1.58 1.599 1.87 0 .694-.558 1.259-1.244 1.259H20.256a1.25 1.25 0 0 1-1.245-1.245c.055-.352 1.083-1.37 1.909-2.188.994-.983 2.212-2.203 3.339-3.639h6.394c.96 1.542 2.23 2.869 3.277 3.943zM50.229 42H31.075c-.042-.001-.083-.006-.125 0h-7.054c-.039 0-.078-.006-.117 0H5.229c-2.08 0-3.771-1.578-3.771-3.519v-3.523H54v3.523C54 40.421 52.308 42 50.229 42z" fill="#fff"/><circle cx="27.27" cy="38.603" fill="#fff" r="1"/></svg>