<svg xmlns="http://www.w3.org/2000/svg" width="85" height="79" viewBox="0 0 85 79"><path fill-rule="evenodd" fill="#FFF" d="M75.5 66.767H48.582C54.878 72.33 56 74.356 56 75.893a3.002 3.002 0 0 1-3 3.003H32c-1.657 0-3-1.346-3-3.003 0-1.529 1.601-3.91 7.435-9.126H9.5c-4.97 0-9-4.035-9-9.007V9.728C.5 4.752 4.53.721 9.5.721h66c4.97 0 9 4.031 9 9.007V57.76c0 4.972-4.03 9.007-9 9.007zm-45 9.126c0 .828.673 1.502 1.5 1.502h21c.827 0 1.5-.674 1.5-1.502 0-1.4-2.49-4.185-8.058-9.005h-7.88c-5.351 4.683-8.062 7.713-8.062 9.005zM83 9.728c0-4.14-3.365-7.506-7.5-7.506h-66C5.365 2.222 2 5.588 2 9.728v42.754h81V9.728zM2 53.979v3.781c0 4.137 3.365 7.504 7.5 7.504h66c4.135 0 7.5-3.367 7.5-7.504v-3.781H2zm40.5 7.092a1.5 1.5 0 1 1 0-3 1.5 1.5 0 0 1 0 3z"/></svg>