<svg xmlns="http://www.w3.org/2000/svg" width="88" height="88" viewBox="0 0 88 88"><defs><style>.cls-1{fill:none;stroke:#f5f5f5;stroke-width:1px}.cls-2,.cls-3{fill-rule:evenodd}.cls-3{fill:red}</style></defs><circle id="Ellipse_2_copy_6" data-name="Ellipse 2 copy 6" class="cls-1" cx="46" cy="43" r="44"/><path class="cls-2" d="M36 60.949V44.875h2v-4.018h-2v-5.023h-2v5.023h-2v4.018h2v16.074h2zm6.059 0h2v-3.014H46v-4.018h-1.94V35.834h-2v18.083H40v4.018h2.06v3.014zm9.94 0v-13.06h2v-4.018H52v-8.037h-2v8.037h-2v4.018h2v13.06h2zm6-25.115v16.073H56v4.018h2v5.023h2v-5.022h2v-4.019h-2V35.834h-2zM56 19.682v2.009h11v43.276H27V21.691h11v-2.009H25v47.294h44V19.682H56z"/><path id="Shape_29_copy" data-name="Shape 29 copy" class="cls-3" d="M45.055 27.4l-1.61-1.617-2.813 7.4L48 30.364l-1.532-1.539 7.945-9.065h-9.5l4.83-5.437-1.492-1.338-7.8 8.784h9.135z"/></svg>