<svg xmlns="http://www.w3.org/2000/svg" width="262" height="107" viewBox="0 0 262 107"><path fill-rule="evenodd" fill="#FFF" d="M118.798 90.445l-8.455-52.733H99.339l1.017 8.118c-.352 14.062-4.689 26.741-12.078 36.171l-6.026-44.289H71.33C67.702 76.509 55.116 86.186 37.176 90.74c21.028.942 32.001-10.415 37.776-24.975l3.804 25.347c-5.806 4.102-12.611 6.743-20.213 7.505C32.782 101.185 7.296 85.743.002 60.737c2.41 25.939 24.5 46.268 51.392 46.268 26.056 0 47.612-19.086 51.115-43.874l3.402 27.314h12.887zm142.625-26.738c-.803-8.778-7.514-12.26-15.699-11.973-6.29.239-13.258 3.57-15.7 11.766l4.288 1.302c3.666-9.426 18.668-8.978 18.988.73v1.523c-1.801-.994-4.456-1.52-8.336-1.404-9.453 0-15.059 5.734-15.448 12.798-.389 7.072 4.469 12.799 14.049 12.799 4.538 0 7.664-1.288 9.735-3.374v2.763h8.123v-26.93zM246.91 71.75c2.492 0 4.746.339 6.39 1.491v9.52c-1.531 1.096-3.785 1.851-6.986 2.029-5.041 0-8.537-2.923-8.537-6.52 0-3.602 4.093-6.52 9.133-6.52zm-42.208-19.938c10.546 0 19.102 8.055 19.102 19.9 0 .755-.038 1.496-.12 2.231h-28.059c1.733 6.202 6.24 9.056 13.773 8.801 5.159-.2 7.934-2.387 9.378-4.659h4.312c-1.538 7.345-6.585 12.932-16.835 13.04-12.819 0-20.659-8.422-20.659-19.413 0-10.988 8.556-19.9 19.108-19.9zm.534 7.504c5.248 0 7.821 3.259 9.139 7.803h-18.273c1.319-4.544 3.892-7.803 9.134-7.803zM9.066 70.089s-11.393-16.652-1.632-39.13C13.655 16.634 24.747 6.022 39.919 1.836c25.159-6.942 52.189 6.288 61.153 31.596 0 0-14.275-24.744-46.741-22.91-30.143 1.712-51.09 29.672-45.265 59.567zm152.913-10.631c3.133 0 5.951 1.422 7.947 3.694v16.214c-1.996 2.27-4.814 3.69-7.947 3.69-6.032 0-10.928-5.278-10.928-11.799 0-6.513 4.896-11.799 10.928-11.799zm7.947-21.998h9.598v52.985h-9.598V86.85c-3.289 2.943-7.426 4.716-11.826 4.716-9.899 0-17.407-8.95-16.766-19.989.634-11.037 8.072-19.988 19.07-19.988 3.578 0 6.842 1.171 9.522 3.186V37.46zm-45.145 14.129h9.434v38.856h-9.434V51.589zm0-14.129h9.434v9.635h-9.434V37.46z"/></svg>