<svg xmlns="http://www.w3.org/2000/svg" width="90" height="86"><path fill-rule="evenodd" fill="#2C2728" d="M78.367 15.677v27.456H43.196V9.231h35.171v3.253L88.444-.014l1.57 1.246-11.647 14.445zm-2.01 2.493L61.054 37.152 52.24 25.126l1.625-1.173 7.265 9.911 15.227-18.887v-3.75H45.206v29.914h31.151V18.17zM-.014 52.106h34.166v33.903H-.014V52.106zm2.01 31.909h30.147V54.102H1.996v29.913zM-.014 9.231h34.166v33.902H-.014V9.231zm2.01 31.91h30.147V11.227H1.996v29.914zm76.371 44.868H43.196V52.106h35.171v33.903zm-2.01-31.907H45.206v29.913h31.151V54.102z"/></svg>