<svg xmlns="http://www.w3.org/2000/svg" width="88" height="60"><defs><linearGradient id="a" x1="86.603%" x2="0%" y1="50%" y2="0%"><stop offset="0%" stop-color="#DC0224"/><stop offset="100%" stop-color="#FE6C5F"/></linearGradient></defs><path fill="url(#a)" d="M50.607 42.927H33.932c3.423 3.112 4.148 4.426 4.148 5.569a2.504 2.504 0 0 1-2.505 2.496h-14.03a2.504 2.504 0 0 1-2.505-2.496c0-1.03.773-2.432 4.173-5.569H6.514C2.922 42.927 0 40.017 0 36.439V6.501C0 2.924 2.922.014 6.514.014h44.093c3.591 0 6.513 2.91 6.513 6.487V36.439c0 3.578-2.922 6.488-6.513 6.488zm-29.563 5.569a.5.5 0 0 0 .501.499h14.03a.5.5 0 0 0 .501-.499c0-.508-.884-1.872-5.069-5.489h-4.89c-4.704 4.114-5.073 5.24-5.073 5.489zM55.116 6.501c0-2.476-2.023-4.491-4.509-4.491H6.514c-2.487 0-4.51 2.015-4.51 4.491v25.928h53.112V6.501zm0 27.925H2.004v2.013c0 2.477 2.023 4.492 4.51 4.492h44.093c2.486 0 4.509-2.015 4.509-4.492v-2.013zM28.56 39.139a1.502 1.502 0 0 1-1.503-1.496c0-.826.674-1.498 1.503-1.498.829 0 1.503.672 1.503 1.498 0 .824-.674 1.496-1.503 1.496z"/><path transform="translate(69 -9)" fill="url(#a)" d="M15.943 51.983H3.062C1.374 51.983 0 50.64 0 48.991V12.18c0-1.649 1.374-2.991 3.062-2.991h12.881c1.688 0 3.061 1.342 3.061 2.991v36.811c0 1.649-1.373 2.992-3.061 2.992zm1.021-39.803a1.01 1.01 0 0 0-1.021-.996H3.062a1.01 1.01 0 0 0-1.021.996v2.052h14.923V12.18zm0 4.048H2.041v11.484h14.923V16.228zm0 13.479H2.041v19.284c0 .551.458.998 1.021.998h12.881a1.01 1.01 0 0 0 1.021-.998V29.707zm-7.461 6.164c-.928 0-1.679-.734-1.679-1.642 0-.905.751-1.64 1.679-1.64.927 0 1.678.735 1.678 1.64 0 .908-.751 1.642-1.678 1.642zm.03-32.512c1.166.006 2.181.514 2.939 1.465a.985.985 0 0 1-.18 1.399 1.04 1.04 0 0 1-1.432-.173c-.376-.477-.797-.697-1.326-.697-.524 0-.966.229-1.432.743-.349.393-1.03.439-1.438.087a.979.979 0 0 1-.088-1.409c.861-.952 1.829-1.415 2.957-1.415zm4.649.454c-.413.318-1.098.241-1.43-.18-.861-1.083-1.943-1.634-3.214-1.634-1.232 0-2.288.536-3.327 1.685a1.031 1.031 0 0 1-1.441.086.984.984 0 0 1-.088-1.408C6.138.755 7.68.006 9.534.006c1.91 0 3.579.831 4.831 2.405a.986.986 0 0 1-.183 1.402z"/></svg>