<svg xmlns="http://www.w3.org/2000/svg" width="168" height="128"><defs><linearGradient id="a" x1="0%" x2="61.566%" y1="0%" y2="78.801%"><stop offset="0%" stop-color="#00ADEF" stop-opacity=".81"/><stop offset="39%" stop-color="#19CDD7" stop-opacity=".81"/><stop offset="100%" stop-color="#31ECBE" stop-opacity=".81"/></linearGradient></defs><path fill-rule="evenodd" fill="#00AFED" d="M158 117v2h10v9H12v-9h10v-2h6v2h21v-6H24a1 1 0 0 1-1-1V74.8H1a1 1 0 0 1-1-1v-15a1 1 0 0 1 1-1h22V21.3a1 1 0 0 1 1-1h31V16h-9V2h-2a1 1 0 1 1 0-2h50a1 1 0 1 1 0 2h-2v14h-9v4.3h60c.015 0 .027.007.041.008a.986.986 0 0 1 .339.069l.011.002c.088.038.17.088.246.15l19 15.701c.23.189.363.472.363.77v59c0 .295-.13.575-.356.764l-18.999 16c-.048.04-.104.061-.157.091-.042.024-.078.054-.124.071A.994.994 0 0 1 143 113H92v6h60v-2h6zM23 59.8H2v13h21v-13zm121 50.05l17-14.315V37.471l-17-14.047v86.426zM33 22.3h-8V111h8V22.3zM90 14V4H48v10h42zm-33 2v15h24V16H57zm77 95h8V22.3h-8V111zm-2 0V22.3H83V32a1 1 0 0 1-1 1H56a1 1 0 0 1-1-1v-9.7H35V111h14v-3H38v-2h91v2H92v3h40zm-41 10a1 1 0 0 1-1-1v-12H51v12a1 1 0 0 1-1 1H14v5h152v-5H91zM38 96h91v2H38v-2zm0-10h91v2H38v-2zm0-10h91v2H38v-2zm0-10h91v2H38v-2zm0-10h91v2H38v-2zm0-10h91v2H38v-2zm0-10h91v2H38v-2zm48-10h43v2H86v-2zm-48 0h14v2H38v-2z"/><path fill="url(#a)" d="M158 117v2h10v9H12v-9h10v-2h6v2h21v-6H24a1 1 0 0 1-1-1V74.8H1a1 1 0 0 1-1-1v-15a1 1 0 0 1 1-1h22V21.3a1 1 0 0 1 1-1h31V16h-9V2h-2a1 1 0 1 1 0-2h50a1 1 0 1 1 0 2h-2v14h-9v4.3h60c.015 0 .027.007.041.008a.986.986 0 0 1 .339.069l.011.002c.088.038.17.088.246.15l19 15.701c.23.189.363.472.363.77v59c0 .295-.13.575-.356.764l-18.999 16c-.048.04-.104.061-.157.091-.042.024-.078.054-.124.071A.994.994 0 0 1 143 113H92v6h60v-2h6zM23 59.8H2v13h21v-13zm121 50.05l17-14.315V37.471l-17-14.047v86.426zM33 22.3h-8V111h8V22.3zM90 14V4H48v10h42zm-33 2v15h24V16H57zm77 95h8V22.3h-8V111zm-2 0V22.3H83V32a1 1 0 0 1-1 1H56a1 1 0 0 1-1-1v-9.7H35V111h14v-3H38v-2h91v2H92v3h40zm-41 10a1 1 0 0 1-1-1v-12H51v12a1 1 0 0 1-1 1H14v5h152v-5H91zM38 96h91v2H38v-2zm0-10h91v2H38v-2zm0-10h91v2H38v-2zm0-10h91v2H38v-2zm0-10h91v2H38v-2zm0-10h91v2H38v-2zm0-10h91v2H38v-2zm48-10h43v2H86v-2zm-48 0h14v2H38v-2z"/></svg>