<svg xmlns="http://www.w3.org/2000/svg" width="57" height="47" viewBox="0 0 57 47"><defs><linearGradient id="a" x1="0%" x2="61.566%" y1="0%" y2="78.801%"><stop offset="0%" stop-color="#00ADEF"/><stop offset="39%" stop-color="#19CDD7"/><stop offset="100%" stop-color="#31ECBE"/></linearGradient></defs><path fill-rule="evenodd" fill="#F54F4F" d="M51 47H7c-5.537 0-7-5.233-7-8V1a1 1 0 0 1 1-1h45a1 1 0 0 1 1 1v6h9a1 1 0 0 1 1 1v31c0 4.71-2.468 8-6 8zm-6-8V2H2v37c.001.243.084 6 5 6h39.87C45.696 43.58 45 41.492 45 39zM55 9h-8v30c0 3.532 1.644 6 4 6s4-2.468 4-6V9zM6 40a1 1 0 0 1 1-1h13a1 1 0 1 1 0 2H7a1 1 0 0 1-1-1zm21-7h13a1 1 0 1 1 0 2H27a1 1 0 1 1 0-2zm0 6h13a1 1 0 1 1 0 2H27a1 1 0 1 1 0-2zM7 33h13a1 1 0 1 1 0 2H7a1 1 0 1 1 0-2zm33-4H7a1 1 0 1 1 0-2h33a1 1 0 1 1 0 2zm0-7H7a1 1 0 1 1 0-2h33a1 1 0 1 1 0 2zm0-6H7a1 1 0 0 1-1-1V8a1 1 0 0 1 1-1h33a1 1 0 0 1 1 1v7a1 1 0 0 1-1 1zm-1-7H8v5h31V9z"/><path fill="url(#a)" d="M51 47H7c-5.537 0-7-5.233-7-8V1a1 1 0 0 1 1-1h45a1 1 0 0 1 1 1v6h9a1 1 0 0 1 1 1v31c0 4.71-2.468 8-6 8zm-6-8V2H2v37c.001.243.084 6 5 6h39.87C45.696 43.58 45 41.492 45 39zM55 9h-8v30c0 3.532 1.644 6 4 6s4-2.468 4-6V9zM6 40a1 1 0 0 1 1-1h13a1 1 0 1 1 0 2H7a1 1 0 0 1-1-1zm21-7h13a1 1 0 1 1 0 2H27a1 1 0 1 1 0-2zm0 6h13a1 1 0 1 1 0 2H27a1 1 0 1 1 0-2zM7 33h13a1 1 0 1 1 0 2H7a1 1 0 1 1 0-2zm33-4H7a1 1 0 1 1 0-2h33a1 1 0 1 1 0 2zm0-7H7a1 1 0 1 1 0-2h33a1 1 0 1 1 0 2zm0-6H7a1 1 0 0 1-1-1V8a1 1 0 0 1 1-1h33a1 1 0 0 1 1 1v7a1 1 0 0 1-1 1zm-1-7H8v5h31V9z"/></svg>