<svg xmlns="http://www.w3.org/2000/svg" viewBox="0 28.2 73 71.8"><linearGradient id="a" gradientUnits="userSpaceOnUse" x1="2.296" y1="82.436" x2="62.602" y2="5.247" gradientTransform="matrix(1.1364 0 0 -1.1364 0 113.636)"><stop offset="0" stop-color="#0c90c2"/><stop offset="1" stop-color="#2dd2ab"/></linearGradient><path fill="url(#a)" d="M37.2 28.2c-1.7 0-3.5.1-5.2.3l-4.2.6 4 1.6C42.4 34.9 49.3 45 49.3 56.6c-.1 15.5-12.5 28-27.8 28C16.7 84.5 12 83.3 8 81l-3.8-2 2.2 3.6C13 93.5 24.4 100 37 100c19.8 0 36-16.1 36-35.9S56.9 28.2 37.2 28.2zm0 69.5C26.7 97.7 17 93 10.7 84.9c3.4 1.4 7 2 10.8 2 16.6-.1 30-13.6 30-30.2 0-11-5.9-20.9-15.2-26.1h.9c18.5 0 33.6 15.1 33.6 33.6S55.7 97.7 37.2 97.7z"/><linearGradient id="b" gradientUnits="userSpaceOnUse" x1="-10.942" y1="71.077" x2="52.437" y2="-10.046" gradientTransform="matrix(1.1364 0 0 -1.1364 0 113.636)"><stop offset="0" stop-color="#0c90c2"/><stop offset="1" stop-color="#2dd2ab"/></linearGradient><path fill="url(#b)" d="M10.2 71.7l1.1 2.4 1-2.4s1.4-3.2 3-5c1.5-1.7 4.3-2.7 4.3-2.7l2.8-1-2.8-1.1c-.9-.3-3.5-1.5-4.7-2.6-1.3-1.1-2.7-4-3.3-5L10.5 52l-.9 2.4c-.3.9-1.5 3.5-2.6 4.8s-3.9 2.7-4.8 3.2l-2.2 1 2.4.9c.9.3 3.6 1.6 5 2.8 1.4 1.4 2.7 4.5 2.8 4.6zM8.6 60.6c.8-.9 1.6-2.2 2.2-3.3.7 1.3 1.7 2.7 2.6 3.5.8.8 2 1.5 3.1 2-1 .6-2.2 1.4-3 2.3-.9 1-1.7 2.4-2.4 3.5-.7-1-1.5-2.4-2.4-3.2-.9-.9-2.4-1.7-3.5-2.4 1.2-.6 2.5-1.5 3.4-2.4z"/><linearGradient id="c" gradientUnits="userSpaceOnUse" x1="4.857" y1="81.954" x2="62.837" y2="7.743" gradientTransform="matrix(1.1364 0 0 -1.1364 0 113.636)"><stop offset="0" stop-color="#0c90c2"/><stop offset="1" stop-color="#2dd2ab"/></linearGradient><path fill="url(#c)" d="M15.6 47.5l5.2-2.3 5.6 2.2v-5.6l3.3-4.5-4.8-1.6-3.9-4.9-3.2 4.8-5.2 1.4 3.2 4.4-.2 6.1zm3.6-10l1.9-2.8 2.4 3 2.6.9-1.9 2.6v3l-3.4-1.3-2.8 1.2.1-3.3-1.7-2.4 2.8-.9z"/></svg>