<svg id="Слой_1" xmlns="http://www.w3.org/2000/svg" viewBox="0 0 107.4 106.3"><style>.st0{fill:url(#SVGID_1_)}</style><linearGradient id="SVGID_1_" gradientUnits="userSpaceOnUse" x1="21.087" y1="10.724" x2="86.916" y2="94.982"><stop offset="0" stop-color="#0c90c2"/><stop offset="1" stop-color="#2dd2ab"/></linearGradient><path class="st0" d="M54.2 0c-2.6 0-5.2.2-7.8.6l-3.7.5 3.5 1.4C62.6 8.9 73.1 24.4 73.1 42c0 23.4-19 42.5-42.5 42.5-7.2 0-14.3-1.8-20.6-5.3l-3.3-1.8 1.9 3.2c9.7 16.1 26.7 25.7 45.5 25.7 29.3 0 53.1-23.8 53.1-53.1.2-29.4-23.7-53.2-53-53.2zm0 104.3c-16.8 0-32.2-8-41.8-21.7 5.7 2.6 11.9 3.9 18.2 3.9 24.5 0 44.5-19.9 44.5-44.5 0-17.1-9.6-32.4-24.8-39.9 1.3-.1 2.6-.1 3.9-.1 28.2 0 51.1 22.9 51.1 51.1.1 28.2-22.9 51.2-51.1 51.2zM14.4 64.2l1 2.1.9-2.1s2-4.9 4.5-7.7c2.4-2.7 6.8-4.3 6.9-4.3l2.5-.9-2.5-1s-5-2-7.2-4.1c-2.3-2.2-5-7.6-5.1-7.6l-1-2-.8 2.1s-1.9 5-4.1 7.3c-2.2 2.3-7.4 4.9-7.4 4.9l-2 1 2.1.8c.1 0 5.2 2.1 7.7 4.4 2.3 2.3 4.5 7.1 4.5 7.1zm-3.5-16.8c1.5-1.6 2.9-4.2 3.7-6 1.1 1.9 2.8 4.8 4.5 6.3 1.5 1.4 4 2.8 5.7 3.6-1.7.8-3.9 2.1-5.5 3.9-1.7 1.9-3.1 4.5-4 6.3-.9-1.7-2.5-4.2-4.1-5.8-1.7-1.6-4.5-3.1-6.4-4 1.8-1 4.5-2.7 6.1-4.3zm11.7-20.2l7.2-3.1 7.7 3-.1-7.5 4.5-6.2-6.6-2.2L30 4.4l-4.4 6.5-7.2 2 4.4 6.1-.2 8.2zM21.8 14l5.1-1.4 3.3-4.9 4 5.1 4.6 1.6-3.3 4.5.1 5.3-5.7-2.2-5 2.2.1-5.9-3.2-4.3z"/></svg>