<svg xmlns="http://www.w3.org/2000/svg" width="83.992" height="83.992" viewBox="160.908 176.324 83.992 83.992"><linearGradient id="a" gradientUnits="userSpaceOnUse" x1="177.059" y1="185.24" x2="228.749" y2="251.4"><stop offset="0" stop-color="#0c90c2"/><stop offset="1" stop-color="#2dd2ab"/></linearGradient><path d="M202.903 260.316c-23.156 0-41.995-18.839-41.995-41.995 0-23.157 18.839-41.997 41.995-41.997 23.157 0 41.997 18.84 41.997 41.997.001 23.156-18.839 41.995-41.997 41.995zm-39.987-41.995c0 22.049 17.938 39.988 39.988 39.988 10.665 0 20.361-4.205 27.538-11.033l-16.983-16.983c-1.24 1.112-2.837 1.825-4.547 1.825a6.95 6.95 0 0 1-6.942-6.942c0-1.769.685-3.368 1.778-4.595l-9.602-9.602-.065.027v22.087c0 3.698-3.243 6.942-6.942 6.942a6.95 6.95 0 0 1-6.942-6.942 6.95 6.95 0 0 1 6.942-6.942h4.935v-17.244l-18.123-18.123c-6.831 7.176-11.035 16.872-11.035 27.537zm31.163-10.246l.539.539 19.226-7.867v-4.757l-19.766 8.085v4zm2.079 2.079l9.127 9.127a6.876 6.876 0 0 1 3.625-1.049h4.934v-15.315l-17.686 7.237zm7.818 15.022a4.94 4.94 0 0 0 4.935 4.934c1.218 0 2.287-.5 3.127-1.238L205.165 222c-.731.861-1.189 1.96-1.189 3.176zm9.869-1.981v-2.954h-4.934c-.775 0-1.498.195-2.151.515l6.525 6.525c.348-.676.561-1.399.561-2.104v-1.982zm-21.773 9.898v-4.934h-4.935a4.94 4.94 0 0 0-4.934 4.935 4.94 4.94 0 0 0 4.934 4.934c2.824-.001 4.935-2.606 4.935-4.935zm10.831-54.762c-10.664 0-20.359 4.205-27.535 11.033l16.704 16.704v-2.666c0-.408.246-.774.623-.929l21.773-8.906a1.005 1.005 0 0 1 1.384.929v30.68c0 1.293-.414 2.521-1.089 3.584l17.097 17.097c6.828-7.177 11.033-16.871 11.033-27.536 0-22.051-17.939-39.99-39.99-39.99z" fill-rule="evenodd" clip-rule="evenodd" fill="url(#a)"/></svg>