<svg xmlns="http://www.w3.org/2000/svg" width="120" height="120"><defs><linearGradient id="a" x1="0%" x2="61.566%" y1="0%" y2="78.801%"><stop offset="0%" stop-color="#00ADEF" stop-opacity=".81"/><stop offset="39%" stop-color="#19CDD7" stop-opacity=".81"/><stop offset="100%" stop-color="#31ECBE" stop-opacity=".81"/></linearGradient></defs><path fill-rule="evenodd" fill="#00AFED" d="M59.996 119.993c-33.083 0-59.997-26.915-59.997-59.997 0-33.084 26.914-60 59.997-60 33.084 0 60 26.916 60 60 0 33.082-26.916 59.997-60 59.997zM2.002 59.996c0 31.978 26.016 57.994 57.994 57.994 15.631 0 29.826-6.227 40.266-16.315l-17.82-17.82c-4.804 6.29-12.802 10.654-22.65 10.654-16.477 0-27.186-12.961-27.186-24.906 0-8.101.755-11.122 4.05-16.476 1.18-1.918 3.544-5.122 6.325-8.732L18.316 19.73C8.228 30.17 2.002 44.365 2.002 59.996zm80.15 20.736c2.087-3.401 3.234-7.255 3.234-11.129 0-8.494-1.448-11.195-3.126-14.321l-.207-.388c-1.204-2.252-13.436-17.471-22.266-28.263-2.831 3.442-9.017 11.01-14.141 17.596l36.506 36.505zM44.41 45.823c-2.671 3.47-4.925 6.529-6.048 8.353-3.087 5.017-3.753 7.756-3.753 15.427 0 5.525 2.488 11.18 6.827 15.515 4.767 4.764 11.286 7.387 18.356 7.387 7.164 0 13.751-2.508 18.546-7.062a23.47 23.47 0 0 0 2.67-3.022L44.41 45.823zM59.996 1.999c-15.63 0-29.824 6.226-40.264 16.315L44.219 42.8c6.905-8.869 15.573-19.323 15.573-19.323S81.988 50.523 83.82 53.95c1.849 3.462 3.57 6.307 3.57 15.653 0 4.457-1.345 8.806-3.777 12.591l18.066 18.064c10.088-10.439 16.314-24.633 16.314-40.262 0-31.98-26.017-57.997-57.997-57.997zm-1.518 85.923c-11.914 0-19.918-9.707-19.918-18.772 0-5.829.554-8.069 2.967-11.991a1 1 0 1 1 1.705 1.051c-2.195 3.568-2.669 5.511-2.669 10.94 0 8.098 7.199 16.769 17.915 16.769a1.001 1.001 0 1 1 0 2.003z"/><path fill="url(#a)" d="M59.996 119.993c-33.083 0-59.997-26.915-59.997-59.997 0-33.084 26.914-60 59.997-60 33.084 0 60 26.916 60 60 0 33.082-26.916 59.997-60 59.997zM2.002 59.996c0 31.978 26.016 57.994 57.994 57.994 15.631 0 29.826-6.227 40.266-16.315l-17.82-17.82c-4.804 6.29-12.802 10.654-22.65 10.654-16.477 0-27.186-12.961-27.186-24.906 0-8.101.755-11.122 4.05-16.476 1.18-1.918 3.544-5.122 6.325-8.732L18.316 19.73C8.228 30.17 2.002 44.365 2.002 59.996zm80.15 20.736c2.087-3.401 3.234-7.255 3.234-11.129 0-8.494-1.448-11.195-3.126-14.321l-.207-.388c-1.204-2.252-13.436-17.471-22.266-28.263-2.831 3.442-9.017 11.01-14.141 17.596l36.506 36.505zM44.41 45.823c-2.671 3.47-4.925 6.529-6.048 8.353-3.087 5.017-3.753 7.756-3.753 15.427 0 5.525 2.488 11.18 6.827 15.515 4.767 4.764 11.286 7.387 18.356 7.387 7.164 0 13.751-2.508 18.546-7.062a23.47 23.47 0 0 0 2.67-3.022L44.41 45.823zM59.996 1.999c-15.63 0-29.824 6.226-40.264 16.315L44.219 42.8c6.905-8.869 15.573-19.323 15.573-19.323S81.988 50.523 83.82 53.95c1.849 3.462 3.57 6.307 3.57 15.653 0 4.457-1.345 8.806-3.777 12.591l18.066 18.064c10.088-10.439 16.314-24.633 16.314-40.262 0-31.98-26.017-57.997-57.997-57.997zm-1.518 85.923c-11.914 0-19.918-9.707-19.918-18.772 0-5.829.554-8.069 2.967-11.991a1 1 0 1 1 1.705 1.051c-2.195 3.568-2.669 5.511-2.669 10.94 0 8.098 7.199 16.769 17.915 16.769a1.001 1.001 0 1 1 0 2.003z"/></svg>