<svg xmlns="http://www.w3.org/2000/svg" width="50" height="50" viewBox="0 0 50 50"><defs><linearGradient id="a" x1="0%" x2="61.566%" y1="0%" y2="78.801%"><stop offset="0%" stop-color="#00ADEF"/><stop offset="39%" stop-color="#19CDD7"/><stop offset="100%" stop-color="#31ECBE"/></linearGradient></defs><path fill-rule="evenodd" fill="#F54F4F" d="M25 50C11.215 50 0 38.785 0 25S11.215 0 25 0s25 11.215 25 25-11.215 25-25 25zm0-48C12.317 2 2 12.317 2 25s10.317 23 23 23 23-10.317 23-23S37.683 2 25 2zm0 36c-7.168 0-13-5.832-13-13a13.02 13.02 0 0 1 8.667-12.26.997.997 0 0 1 1.275.61.998.998 0 0 1-.609 1.275A11.02 11.02 0 0 0 14 25c0 6.065 4.935 11 11 11s11-4.935 11-11a11.02 11.02 0 0 0-7.332-10.374.997.997 0 0 1-.609-1.275.997.997 0 0 1 1.275-.61A13.021 13.021 0 0 1 38 25c0 7.168-5.832 13-13 13zm0-15a1 1 0 0 1-1-1V11a1 1 0 1 1 2 0v11a1 1 0 0 1-1 1z"/><path fill="url(#a)" d="M25 50C11.215 50 0 38.785 0 25S11.215 0 25 0s25 11.215 25 25-11.215 25-25 25zm0-48C12.317 2 2 12.317 2 25s10.317 23 23 23 23-10.317 23-23S37.683 2 25 2zm0 36c-7.168 0-13-5.832-13-13a13.02 13.02 0 0 1 8.667-12.26.997.997 0 0 1 1.275.61.998.998 0 0 1-.609 1.275A11.02 11.02 0 0 0 14 25c0 6.065 4.935 11 11 11s11-4.935 11-11a11.02 11.02 0 0 0-7.332-10.374.997.997 0 0 1-.609-1.275.997.997 0 0 1 1.275-.61A13.021 13.021 0 0 1 38 25c0 7.168-5.832 13-13 13zm0-15a1 1 0 0 1-1-1V11a1 1 0 1 1 2 0v11a1 1 0 0 1-1 1z"/></svg>