<svg xmlns="http://www.w3.org/2000/svg" preserveAspectRatio="xMidYMid" width="130" height="98" viewBox="0 0 130 98"><defs><style>.cls-1,.cls-2{fill:#000;fill-rule:evenodd}.cls-2{fill:#1881c0}</style></defs><path d="M110.089 69.694H19.91c-10.979 0-19.911-8.958-19.911-19.969v-1.797c0-11.01 8.932-19.968 19.911-19.968h90.179c10.979 0 19.911 8.958 19.911 19.968v1.797c0 11.011-8.932 19.969-19.911 19.969zm17.912-21.766c0-9.921-8.019-17.963-17.912-17.963H19.91c-9.894 0-17.913 8.042-17.913 17.963v1.797c0 9.922 8.019 17.964 17.913 17.964h90.179c9.893 0 17.912-8.042 17.912-17.964v-1.797zm-19.356-5.004v.547h3.196v3.232h-3.143v10.579h-3.949V46.703h-1.638v-3.257h1.638v-.887c0-1.511.371-2.639 1.116-3.387.728-.729 1.794-1.094 3.196-1.094 1.057 0 1.992.13 2.807.39v3.284c-.624-.225-1.222-.339-1.793-.339-.953 0-1.43.504-1.43 1.511zm-10.298 0v.547h3.196v3.232h-3.144v10.579H94.45V46.703h-1.638v-3.257h1.638v-.887c0-1.511.372-2.639 1.116-3.387.728-.729 1.794-1.094 3.196-1.094 1.057 0 1.992.13 2.807.39v3.284c-.624-.225-1.222-.339-1.793-.339-.953 0-1.429.504-1.429 1.511zM83.615 57.595c-2.149 0-3.936-.699-5.365-2.098-1.43-1.398-2.144-3.122-2.144-5.173 0-2.031.723-3.751 2.169-5.158 1.446-1.408 3.244-2.112 5.392-2.112 2.147 0 3.936.7 5.366 2.099 1.428 1.397 2.143 3.122 2.143 5.171 0 2.033-.724 3.753-2.17 5.16-1.446 1.408-3.244 2.111-5.391 2.111zm2.637-9.993c-.684-.756-1.563-1.134-2.637-1.134-1.092 0-1.966.369-2.624 1.108-.659.738-.987 1.654-.987 2.748 0 1.06.341 1.969 1.025 2.724.684.756 1.564 1.134 2.638 1.134 1.091 0 1.966-.369 2.624-1.108.658-.738.988-1.654.988-2.75 0-1.059-.343-1.967-1.027-2.722zm19.297-24.653a.995.995 0 0 1-.839-.457 45.378 45.378 0 0 0-4.951-6.336 1 1 0 1 1 1.458-1.372 47.286 47.286 0 0 1 5.169 6.618 1.003 1.003 0 0 1-.837 1.547zM94.367 10.995a.994.994 0 0 1-.595-.198 45.022 45.022 0 0 0-6.84-4.21 1.003 1.003 0 0 1-.45-1.343.995.995 0 0 1 1.339-.452 47.054 47.054 0 0 1 7.143 4.396c.443.331.535.96.206 1.403a.999.999 0 0 1-.803.404zM79.733 3.709a.986.986 0 0 1-.277-.039 44.703 44.703 0 0 0-7.878-1.53 1 1 0 0 1-.892-1.099c.056-.551.559-.939 1.096-.895a46.78 46.78 0 0 1 8.228 1.598 1.002 1.002 0 0 1-.277 1.965zM63.553 2.03c-2.674.2-5.339.643-7.92 1.314a1 1 0 0 1-1.218-.718 1.004 1.004 0 0 1 .717-1.222 46.952 46.952 0 0 1 8.27-1.373.995.995 0 0 1 1.072.924 1.002 1.002 0 0 1-.921 1.075zM48.079 6.056a45.04 45.04 0 0 0-6.952 4.022 1 1 0 0 1-1.392-.244 1.005 1.005 0 0 1 .243-1.396 46.973 46.973 0 0 1 7.261-4.2.998.998 0 0 1 1.327.488 1.003 1.003 0 0 1-.487 1.33zM29.877 21.473a.999.999 0 0 1-1.391.258 1.007 1.007 0 0 1-.256-1.395 47.455 47.455 0 0 1 5.346-6.473.996.996 0 0 1 1.413-.008c.392.39.396 1.025.008 1.417a45.49 45.49 0 0 0-5.12 6.201zm-.679 54.049a45.303 45.303 0 0 0 4.951 6.336 1.006 1.006 0 0 1-.045 1.417.999.999 0 0 1-1.413-.045 47.367 47.367 0 0 1-5.17-6.618 1.003 1.003 0 0 1 .295-1.386.997.997 0 0 1 1.382.296zm10.938 11.695a45.013 45.013 0 0 0 6.839 4.21 1.002 1.002 0 0 1-.888 1.795 47.113 47.113 0 0 1-7.144-4.396 1.002 1.002 0 0 1 1.193-1.609zm14.315 7.127a44.63 44.63 0 0 0 7.878 1.53 1.002 1.002 0 0 1-.203 1.994 46.7 46.7 0 0 1-8.229-1.598 1.003 1.003 0 0 1 .554-1.926zm15.904 1.64a44.85 44.85 0 0 0 7.919-1.314 1.002 1.002 0 0 1 .502 1.94 46.979 46.979 0 0 1-8.271 1.373 1.002 1.002 0 0 1-.15-1.999zm15.474-4.026a44.95 44.95 0 0 0 6.951-4.022 1 1 0 0 1 1.393.244 1.006 1.006 0 0 1-.243 1.397 47.058 47.058 0 0 1-7.262 4.199.999.999 0 0 1-1.326-.488 1.002 1.002 0 0 1 .487-1.33zm18.201-15.417a1.002 1.002 0 0 1 1.391-.258c.454.315.569.939.257 1.395a47.529 47.529 0 0 1-5.346 6.473.995.995 0 0 1-1.414.008 1.003 1.003 0 0 1-.007-1.417 45.483 45.483 0 0 0 5.119-6.201z" class="cls-1"/><path d="M49.983 67.776H19.981c-9.939 0-17.995-8.097-17.995-18.086v-1.809c0-9.99 8.056-18.087 17.995-18.087h30.002c9.938 0 17.995 8.097 17.995 18.087v1.809c0 9.989-8.057 18.086-17.995 18.086zm-17.842-22.69c-1.436-1.408-3.233-2.113-5.39-2.113-2.158 0-3.964.709-5.417 2.126-1.453 1.417-2.179 3.148-2.179 5.194 0 2.064.717 3.801 2.154 5.208 1.435 1.408 3.231 2.112 5.39 2.112 2.157 0 3.963-.708 5.416-2.125 1.453-1.417 2.179-3.148 2.179-5.195 0-2.064-.718-3.8-2.153-5.207zm17.778 3.108c0-1.626-.418-2.903-1.253-3.83-.836-.927-2.001-1.391-3.498-1.391-1.566 0-2.933.753-4.098 2.257v-1.994h-3.968v14.062h3.968v-7.845c0-.926.222-1.634.665-2.124.444-.49 1.048-.735 1.815-.735.765 0 1.357.245 1.775.735.417.49.626 1.198.626 2.124v7.845h3.968v-9.104zm-23.168 5.983c-1.08 0-1.963-.381-2.65-1.142-.687-.76-1.031-1.675-1.031-2.742 0-1.102.331-2.024.992-2.767.661-.744 1.54-1.116 2.637-1.116 1.078 0 1.962.381 2.649 1.142.687.76 1.031 1.675 1.031 2.741 0 1.103-.331 2.025-.992 2.768-.662.744-1.54 1.116-2.636 1.116z" class="cls-2"/></svg>