<svg xmlns="http://www.w3.org/2000/svg" width="88" height="88" viewBox="0 0 88 88"><defs><style>.cls-1{fill:none;stroke:#f5f5f5;stroke-width:1px}.cls-2,.cls-3{fill-rule:evenodd}.cls-3{fill:red}</style></defs><circle id="Ellipse_2_copy_3" data-name="Ellipse 2 copy 3" class="cls-1" cx="44" cy="44" r="44"/><path class="cls-2" d="M61 34H26a13.015 13.015 0 0 0-13 13v1a13.015 13.015 0 0 0 13 13h35a13.015 13.015 0 0 0 13-13v-1a13.015 13.015 0 0 0-13-13zm11 14a11.013 11.013 0 0 1-11 11H26a11.013 11.013 0 0 1-11-11v-1a11.012 11.012 0 0 1 11-11h35a11.012 11.012 0 0 1 11 11v1zm-51 7.117h18V39.883H21v15.234zm2-13.234h14v11.235H23V41.883zm24.519-.864A6.481 6.481 0 1 0 54 47.5a6.488 6.488 0 0 0-6.481-6.481zm0 10.962A4.481 4.481 0 1 1 52 47.5a4.486 4.486 0 0 1-4.481 4.481zm15-10.962A6.481 6.481 0 1 0 69 47.5a6.488 6.488 0 0 0-6.481-6.481zm0 10.962A4.481 4.481 0 1 1 67 47.5a4.486 4.486 0 0 1-4.481 4.481z"/><path class="cls-3" d="M61 17H49v8h5v9h2v-9h5v-8zm-2 6h-8v-4h8v4z"/></svg>