<svg xmlns="http://www.w3.org/2000/svg" width="127" height="117"><defs><linearGradient id="a" x1="0%" x2="61.566%" y1="0%" y2="78.801%"><stop offset="0%" stop-color="#00ADEF" stop-opacity=".81"/><stop offset="39%" stop-color="#19CDD7" stop-opacity=".81"/><stop offset="100%" stop-color="#31ECBE" stop-opacity=".81"/></linearGradient></defs><path fill-rule="evenodd" fill="#00AFED" d="M118.314 62.228c5.13 4.495 8.379 11.085 8.379 18.424 0 13.511-10.996 24.502-24.512 24.502a24.367 24.367 0 0 1-11.505-2.875v13.876h-2.001v-15.07C82.049 96.694 77.67 89.176 77.67 80.652c0-8.525 4.379-16.042 11.005-20.433V40.148h-7.004a1 1 0 0 1-1-1V23.147a1 1 0 0 1 1-1h7.004V.145h2.001v22.002h7.003a1 1 0 0 1 1 1v16.001a1 1 0 0 1-1 1h-7.003v18.877a24.367 24.367 0 0 1 11.505-2.875 24.383 24.383 0 0 1 14.548 4.797l7.08-13.269a1.002 1.002 0 0 1 1.766.942l-7.261 13.608zm-21.635-24.08V24.147H82.672v14.001h14.007zm4.885 55.476c-.163.304-.47.503-.814.527l-.07.002c-.318 0-.62-.152-.809-.412L91.868 82.74a1 1 0 0 1 1.618-1.176l7.063 9.709 15.227-28.54a22.396 22.396 0 0 0-13.595-4.583c-12.412 0-22.511 10.095-22.511 22.502 0 12.407 10.099 22.502 22.511 22.502 12.412 0 22.511-10.095 22.511-22.502 0-6.572-2.835-12.494-7.344-16.612l-15.784 29.584zM57.66 52.149h-7.003v64.006h-2.001V52.149h-7.003a1 1 0 0 1-1.001-1V35.148a1 1 0 0 1 1.001-1h7.003V.145h2.001v34.003h7.003a1 1 0 0 1 1.001 1v16.001a1 1 0 0 1-1.001 1zm-1-16.001H42.653v14.001H56.66V36.148zM17.641 65.151h-7.003v51.004H8.637V65.151H1.634A1 1 0 0 1 .633 64.15V48.149a1 1 0 0 1 1.001-1h7.003V.145h2.001v47.004h7.003a1 1 0 0 1 1.001 1V64.15a1 1 0 0 1-1.001 1.001zm-1-16.002H2.634V63.15h14.007V49.149z"/><path fill="url(#a)" d="M118.314 62.228c5.13 4.495 8.379 11.085 8.379 18.424 0 13.511-10.996 24.502-24.512 24.502a24.367 24.367 0 0 1-11.505-2.875v13.876h-2.001v-15.07C82.049 96.694 77.67 89.176 77.67 80.652c0-8.525 4.379-16.042 11.005-20.433V40.148h-7.004a1 1 0 0 1-1-1V23.147a1 1 0 0 1 1-1h7.004V.145h2.001v22.002h7.003a1 1 0 0 1 1 1v16.001a1 1 0 0 1-1 1h-7.003v18.877a24.367 24.367 0 0 1 11.505-2.875 24.383 24.383 0 0 1 14.548 4.797l7.08-13.269a1.002 1.002 0 0 1 1.766.942l-7.261 13.608zm-21.635-24.08V24.147H82.672v14.001h14.007zm4.885 55.476c-.163.304-.47.503-.814.527l-.07.002c-.318 0-.62-.152-.809-.412L91.868 82.74a1 1 0 0 1 1.618-1.176l7.063 9.709 15.227-28.54a22.396 22.396 0 0 0-13.595-4.583c-12.412 0-22.511 10.095-22.511 22.502 0 12.407 10.099 22.502 22.511 22.502 12.412 0 22.511-10.095 22.511-22.502 0-6.572-2.835-12.494-7.344-16.612l-15.784 29.584zM57.66 52.149h-7.003v64.006h-2.001V52.149h-7.003a1 1 0 0 1-1.001-1V35.148a1 1 0 0 1 1.001-1h7.003V.145h2.001v34.003h7.003a1 1 0 0 1 1.001 1v16.001a1 1 0 0 1-1.001 1zm-1-16.001H42.653v14.001H56.66V36.148zM17.641 65.151h-7.003v51.004H8.637V65.151H1.634A1 1 0 0 1 .633 64.15V48.149a1 1 0 0 1 1.001-1h7.003V.145h2.001v47.004h7.003a1 1 0 0 1 1.001 1V64.15a1 1 0 0 1-1.001 1.001zm-1-16.002H2.634V63.15h14.007V49.149z"/></svg>