<svg xmlns="http://www.w3.org/2000/svg" viewBox="0 0 485.55 226.05"><defs><style>.cls-1{fill:#f6f6f6}.cls-2{fill:#888}.cls-3{fill:#fff}.cls-4{fill:#00afed}</style></defs><g id="layer_2" data-name="layer 2"><g id="layer_1-2" data-name="layer 1"><path class="cls-1" d="M32.59 117h.25v100.21h-.25zM45.89 84h.25v133.21h-.25zM59.19 62h.25v155.21h-.25zM72.5 52h.25v165.21h-.25zM85.8 41h.25v176.21h-.25zM99.1 29h.25v188.21h-.25zM112.4 29h.25v188.21h-.25zM125.71 18h.25v199.21h-.25z"/><path class="cls-1" d="M25.35 217h453.52v.25H25.35z"/><path class="cls-1" d="M139.01 18h.25v199.21h-.25zM152.31 8h.25v209.21h-.25zM165.61 8h.25v209.21h-.25zM178.92 1h.25v216.21h-.25zM192.22 0h.25v217.21h-.25zM205.52 0h.25v217.21h-.25zM218.83 0h.25v217.21h-.25zM232.13 0h.25v217.21h-.25zM245.43 0h.25v217.21h-.25zM258.74 0h.25v217.21h-.25zM272.04 0h.25v217.21h-.25zM285.34 0h.25v217.21h-.25zM298.64 0h.25v217.21h-.25zM311.95 0h.25v217.21h-.25zM325.25 0h.25v217.21h-.25zM338.55 0h.25v217.21h-.25zM351.85 0h.25v217.21h-.25zM365.16 0h.25v217.21h-.25zM378.46 0h.25v217.21h-.25zM391.76 0h.25v217.21h-.25zM405.07 0h.25v217.21h-.25zM418.37 0h.25v217.21h-.25zM431.67 0h.25v217.21h-.25zM444.97 0h.25v217.21h-.25zM458.28 0h.25v217.21h-.25zM471.58 0h.25v217.21h-.25zM39.05 95h.25v122.21h-.25zM52.37 84h.25v133.21h-.25zM65.69 62h.25v155.21h-.25zM79.01 52h.25v165.21h-.25zM92.33 41h.25v176.21h-.25zM105.65 29h.25v188.21h-.25zM118.97 29h.25v188.21h-.25zM132.29 18h.25v199.21h-.25zM145.61 8h.25v209.21h-.25zM158.93 8h.25v209.21h-.25zM172.25 8h.25v209.21h-.25zM185.57 0h.25v217.21h-.25zM198.9 0h.25v217.21h-.25zM212.22 0h.25v217.21h-.25zM225.54 0h.25v217.21h-.25zM238.86 0h.25v217.21h-.25zM252.18 0h.25v217.21h-.25zM265.5 0h.25v217.21h-.25zM278.82 0h.25v217.21h-.25zM292.14 0h.25v217.21h-.25zM305.46 0h.25v217.21h-.25zM318.78 0h.25v217.21h-.25zM332.1 0h.25v217.21h-.25zM345.42 0h.25v217.21h-.25zM358.74 0h.25v217.21h-.25zM372.06 0h.25v217.21h-.25zM385.38 0h.25v217.21h-.25zM398.7 0h.25v217.21h-.25zM412.02 0h.25v217.21h-.25zM425.34 0h.25v217.21h-.25zM438.66 0h.25v217.21h-.25zM451.98 0h.25v217.21h-.25zM465.3 0h.25v217.21h-.25zM478.62 0h.25v217.21h-.25z"/><path class="cls-2" d="M.6 212.77v-4h3.13v4h-.3V209H.9v3.76zM4.75 210.75a2.17 2.17 0 0 1 .26-1 2 2 0 0 1 1.76-1 2.29 2.29 0 0 1 .48 0 1.72 1.72 0 0 1 .41.14 2.48 2.48 0 0 1 .34.2l.32.27-.19.2a2.35 2.35 0 0 0-.62-.44 1.71 1.71 0 0 0-.75-.16 1.64 1.64 0 0 0-.67.14 1.67 1.67 0 0 0-.54.38 1.77 1.77 0 0 0-.36.58 2 2 0 0 0-.13.72 1.93 1.93 0 0 0 .13.71 1.79 1.79 0 0 0 .36.58 1.67 1.67 0 0 0 1.22.52 1.7 1.7 0 0 0 .74-.16 2.43 2.43 0 0 0 .65-.47l.2.2a2.71 2.71 0 0 1-.73.53 2 2 0 0 1-.88.18 2 2 0 0 1-1.75-1 2.19 2.19 0 0 1-.25-1.12zM10.7 210.75a2.64 2.64 0 0 1 .12-.8 2.25 2.25 0 0 1 .33-.67 1.59 1.59 0 0 1 .53-.46 1.51 1.51 0 0 1 1.39 0 1.54 1.54 0 0 1 .53.45 2.24 2.24 0 0 1 .33.67 2.68 2.68 0 0 1 .12.8 2.64 2.64 0 0 1-.12.8 2.26 2.26 0 0 1-.33.67 1.58 1.58 0 0 1-.53.46 1.5 1.5 0 0 1-1.39 0 1.57 1.57 0 0 1-.53-.46 2.24 2.24 0 0 1-.33-.67 2.68 2.68 0 0 1-.12-.79zm.31 0a2.37 2.37 0 0 0 .1.68 2.09 2.09 0 0 0 .27.58 1.34 1.34 0 0 0 .43.41 1.13 1.13 0 0 0 1.13 0 1.3 1.3 0 0 0 .43-.4 2.06 2.06 0 0 0 .27-.58 2.42 2.42 0 0 0 .1-.68 2.38 2.38 0 0 0-.1-.68 2 2 0 0 0-.27-.58 1.35 1.35 0 0 0-.43-.4 1.13 1.13 0 0 0-1-.05 1.17 1.17 0 0 0-.38.27 1.81 1.81 0 0 0-.28.4 2 2 0 0 0-.18.5 2.57 2.57 0 0 0-.1.53zM14.8 210.75a2.64 2.64 0 0 1 .12-.8 2.25 2.25 0 0 1 .33-.67 1.59 1.59 0 0 1 .53-.46 1.51 1.51 0 0 1 1.39 0 1.54 1.54 0 0 1 .53.45 2.24 2.24 0 0 1 .33.67 2.68 2.68 0 0 1 .12.8 2.64 2.64 0 0 1-.12.8 2.26 2.26 0 0 1-.33.67 1.58 1.58 0 0 1-.53.46 1.5 1.5 0 0 1-1.39 0 1.57 1.57 0 0 1-.53-.46 2.24 2.24 0 0 1-.33-.67 2.68 2.68 0 0 1-.12-.79zm.31 0a2.37 2.37 0 0 0 .1.68 2.09 2.09 0 0 0 .27.58 1.34 1.34 0 0 0 .43.41 1.13 1.13 0 0 0 1.13 0 1.3 1.3 0 0 0 .43-.4 2.06 2.06 0 0 0 .27-.58 2.42 2.42 0 0 0 .1-.68 2.38 2.38 0 0 0-.1-.68 2 2 0 0 0-.27-.58 1.35 1.35 0 0 0-.43-.4 1.13 1.13 0 0 0-1-.05 1.17 1.17 0 0 0-.38.27 1.81 1.81 0 0 0-.28.4 2 2 0 0 0-.18.5 2.57 2.57 0 0 0-.09.53zM18.79 212.77v-.22l1.51-1.36a4.31 4.31 0 0 0 .7-.76 1.13 1.13 0 0 0 .2-.62.81.81 0 0 0-.27-.63.93.93 0 0 0-.64-.24 1.13 1.13 0 0 0-.64.18 2.1 2.1 0 0 0-.54.57l-.23-.15a3 3 0 0 1 .28-.36 1.8 1.8 0 0 1 .31-.27 1.21 1.21 0 0 1 .38-.18 1.78 1.78 0 0 1 .47-.06 1.2 1.2 0 0 1 .86.32 1.05 1.05 0 0 1 .34.8 1.31 1.31 0 0 1-.05.39 1.39 1.39 0 0 1-.19.37 3.13 3.13 0 0 1-.31.37q-.18.18-.46.44l-1.24 1.13h2.29v.28zM.6 201.95v-4h3.13v4h-.3v-3.76H.9v3.76zM4.75 199.92a2.17 2.17 0 0 1 .26-1 2 2 0 0 1 1.76-1 2.29 2.29 0 0 1 .48 0 1.72 1.72 0 0 1 .41.14 2.48 2.48 0 0 1 .34.2l.32.27-.19.2a2.35 2.35 0 0 0-.62-.44 1.71 1.71 0 0 0-.75-.16 1.64 1.64 0 0 0-.67.14 1.67 1.67 0 0 0-.54.38 1.77 1.77 0 0 0-.36.58 2 2 0 0 0-.13.72 1.93 1.93 0 0 0 .13.71 1.79 1.79 0 0 0 .36.58 1.67 1.67 0 0 0 1.22.52 1.7 1.7 0 0 0 .74-.16 2.43 2.43 0 0 0 .65-.47l.2.2a2.71 2.71 0 0 1-.73.53 2 2 0 0 1-.88.18A2 2 0 0 1 5 201a2.19 2.19 0 0 1-.25-1.08zM10.7 199.92a2.64 2.64 0 0 1 .12-.8 2.25 2.25 0 0 1 .33-.67 1.59 1.59 0 0 1 .53-.46 1.51 1.51 0 0 1 1.39 0 1.54 1.54 0 0 1 .53.45 2.24 2.24 0 0 1 .33.67 2.68 2.68 0 0 1 .12.8 2.64 2.64 0 0 1-.12.8 2.26 2.26 0 0 1-.33.67 1.58 1.58 0 0 1-.53.46 1.5 1.5 0 0 1-1.39 0 1.57 1.57 0 0 1-.53-.46 2.24 2.24 0 0 1-.33-.67 2.68 2.68 0 0 1-.12-.79zm.31 0a2.37 2.37 0 0 0 .1.68 2.09 2.09 0 0 0 .27.58 1.34 1.34 0 0 0 .43.41 1.13 1.13 0 0 0 1.13 0 1.3 1.3 0 0 0 .43-.4 2.06 2.06 0 0 0 .27-.58 2.42 2.42 0 0 0 .1-.68 2.38 2.38 0 0 0-.1-.68 2 2 0 0 0-.27-.58 1.35 1.35 0 0 0-.43-.4 1.13 1.13 0 0 0-1-.05 1.17 1.17 0 0 0-.38.27 1.81 1.81 0 0 0-.28.4 2 2 0 0 0-.18.5 2.57 2.57 0 0 0-.1.53zM14.8 199.92a2.64 2.64 0 0 1 .12-.8 2.25 2.25 0 0 1 .33-.67 1.59 1.59 0 0 1 .53-.46 1.51 1.51 0 0 1 1.39 0 1.54 1.54 0 0 1 .53.45 2.24 2.24 0 0 1 .33.67 2.68 2.68 0 0 1 .12.8 2.64 2.64 0 0 1-.12.8 2.26 2.26 0 0 1-.33.67 1.58 1.58 0 0 1-.53.46 1.5 1.5 0 0 1-1.39 0 1.57 1.57 0 0 1-.53-.46 2.24 2.24 0 0 1-.33-.67 2.68 2.68 0 0 1-.12-.79zm.31 0a2.37 2.37 0 0 0 .1.68 2.09 2.09 0 0 0 .27.58 1.34 1.34 0 0 0 .43.41 1.13 1.13 0 0 0 1.13 0 1.3 1.3 0 0 0 .43-.4 2.06 2.06 0 0 0 .27-.58 2.42 2.42 0 0 0 .1-.68 2.38 2.38 0 0 0-.1-.68 2 2 0 0 0-.27-.58 1.35 1.35 0 0 0-.43-.4 1.13 1.13 0 0 0-1-.05 1.17 1.17 0 0 0-.38.27 1.81 1.81 0 0 0-.28.4 2 2 0 0 0-.18.5 2.57 2.57 0 0 0-.09.53zM18.83 201.29l.23-.19a1.55 1.55 0 0 0 1.26.65 1 1 0 0 0 .71-.25.83.83 0 0 0 .29-.65.74.74 0 0 0-.35-.65 1.61 1.61 0 0 0-.91-.23h-.22l-.08-.17 1.39-1.61H19v-.28h2.53v.21l-1.37 1.57a2.59 2.59 0 0 1 .41.06 1.84 1.84 0 0 1 .38.14 1.41 1.41 0 0 1 .33.22.93.93 0 0 1 .22.32 1 1 0 0 1 .08.42 1.08 1.08 0 0 1-.18.62 1.2 1.2 0 0 1-.48.42 1.46 1.46 0 0 1-.65.15 1.81 1.81 0 0 1-.85-.19 1.89 1.89 0 0 1-.59-.56zM.6 191.13v-4h3.13v4h-.3v-3.76H.9v3.76zM4.75 189.1a2.17 2.17 0 0 1 .26-1 2 2 0 0 1 1.76-1 2.29 2.29 0 0 1 .48 0 1.72 1.72 0 0 1 .41.14 2.48 2.48 0 0 1 .34.2l.32.27-.19.2a2.35 2.35 0 0 0-.62-.44 1.71 1.71 0 0 0-.75-.16 1.64 1.64 0 0 0-.67.14 1.67 1.67 0 0 0-.54.38 1.77 1.77 0 0 0-.36.58 2 2 0 0 0-.13.72 1.93 1.93 0 0 0 .13.71 1.79 1.79 0 0 0 .36.58 1.67 1.67 0 0 0 1.22.52 1.7 1.7 0 0 0 .74-.16 2.43 2.43 0 0 0 .65-.47l.2.2a2.71 2.71 0 0 1-.73.53 2 2 0 0 1-.88.18 2 2 0 0 1-1.75-1 2.19 2.19 0 0 1-.25-1.12zM10.7 189.1a2.64 2.64 0 0 1 .12-.8 2.25 2.25 0 0 1 .33-.67 1.59 1.59 0 0 1 .53-.46 1.51 1.51 0 0 1 1.39 0 1.54 1.54 0 0 1 .53.45 2.24 2.24 0 0 1 .33.67 2.68 2.68 0 0 1 .12.8 2.64 2.64 0 0 1-.12.8 2.26 2.26 0 0 1-.33.67 1.58 1.58 0 0 1-.53.46 1.5 1.5 0 0 1-1.39 0 1.57 1.57 0 0 1-.53-.46 2.24 2.24 0 0 1-.33-.67 2.68 2.68 0 0 1-.12-.79zm.31 0a2.37 2.37 0 0 0 .1.68 2.09 2.09 0 0 0 .27.58 1.34 1.34 0 0 0 .43.41 1.13 1.13 0 0 0 1.13 0 1.3 1.3 0 0 0 .43-.4 2.06 2.06 0 0 0 .27-.58 2.42 2.42 0 0 0 .1-.68 2.38 2.38 0 0 0-.1-.68 2 2 0 0 0-.27-.58 1.35 1.35 0 0 0-.43-.4 1.13 1.13 0 0 0-1-.05 1.17 1.17 0 0 0-.38.27 1.81 1.81 0 0 0-.28.4 2 2 0 0 0-.18.5 2.57 2.57 0 0 0-.1.53zM14.8 189.1a2.64 2.64 0 0 1 .12-.8 2.25 2.25 0 0 1 .33-.67 1.59 1.59 0 0 1 .53-.46 1.51 1.51 0 0 1 1.39 0 1.54 1.54 0 0 1 .53.45 2.24 2.24 0 0 1 .33.67 2.68 2.68 0 0 1 .12.8 2.64 2.64 0 0 1-.12.8 2.26 2.26 0 0 1-.33.67 1.58 1.58 0 0 1-.53.46 1.5 1.5 0 0 1-1.39 0 1.57 1.57 0 0 1-.53-.46 2.24 2.24 0 0 1-.33-.67 2.68 2.68 0 0 1-.12-.79zm.31 0a2.37 2.37 0 0 0 .1.68 2.09 2.09 0 0 0 .27.58 1.34 1.34 0 0 0 .43.41 1.13 1.13 0 0 0 1.13 0 1.3 1.3 0 0 0 .43-.4 2.06 2.06 0 0 0 .27-.58 2.42 2.42 0 0 0 .1-.68 2.38 2.38 0 0 0-.1-.68 2 2 0 0 0-.27-.58 1.35 1.35 0 0 0-.43-.4 1.13 1.13 0 0 0-1-.05 1.17 1.17 0 0 0-.38.27 1.81 1.81 0 0 0-.28.4 2 2 0 0 0-.18.5 2.57 2.57 0 0 0-.09.53zM18.85 190.54l.21-.21a1.73 1.73 0 0 0 1.21.59 1.08 1.08 0 0 0 .78-.29 1 1 0 0 0 .31-.73.87.87 0 0 0-.31-.69 1.18 1.18 0 0 0-.8-.27 1.89 1.89 0 0 0-.91.25l-.23-.15.12-2h2.27v.28h-2l-.1 1.52a2 2 0 0 1 .9-.22 1.46 1.46 0 0 1 1 .34 1.12 1.12 0 0 1 .4.88 1.21 1.21 0 0 1-.4.93 1.44 1.44 0 0 1-1 .37 1.7 1.7 0 0 1-.76-.18 2.36 2.36 0 0 1-.69-.42zM.6 180.3v-4h3.13v4h-.3v-3.76H.9v3.76zM4.75 178.28a2.17 2.17 0 0 1 .26-1 2 2 0 0 1 1.76-1 2.29 2.29 0 0 1 .48 0 1.72 1.72 0 0 1 .41.14 2.48 2.48 0 0 1 .34.2l.32.27-.19.2a2.35 2.35 0 0 0-.62-.44 1.71 1.71 0 0 0-.75-.16 1.64 1.64 0 0 0-.67.14 1.67 1.67 0 0 0-.54.38 1.77 1.77 0 0 0-.36.58 2 2 0 0 0-.13.72 1.93 1.93 0 0 0 .13.71 1.79 1.79 0 0 0 .36.58 1.67 1.67 0 0 0 1.22.52 1.7 1.7 0 0 0 .74-.16 2.43 2.43 0 0 0 .65-.47l.2.2a2.71 2.71 0 0 1-.73.53 2 2 0 0 1-.88.18 2 2 0 0 1-1.75-1 2.19 2.19 0 0 1-.25-1.12zM10.7 178.28a2.64 2.64 0 0 1 .12-.8 2.25 2.25 0 0 1 .33-.67 1.59 1.59 0 0 1 .53-.46 1.51 1.51 0 0 1 1.39 0 1.54 1.54 0 0 1 .53.45 2.24 2.24 0 0 1 .33.67 2.68 2.68 0 0 1 .12.8 2.64 2.64 0 0 1-.12.8 2.26 2.26 0 0 1-.33.67 1.58 1.58 0 0 1-.53.46 1.5 1.5 0 0 1-1.39 0 1.57 1.57 0 0 1-.53-.46 2.24 2.24 0 0 1-.33-.67 2.68 2.68 0 0 1-.12-.79zm.31 0a2.37 2.37 0 0 0 .1.68 2.09 2.09 0 0 0 .27.58 1.34 1.34 0 0 0 .43.41 1.13 1.13 0 0 0 1.13 0 1.3 1.3 0 0 0 .43-.4 2.06 2.06 0 0 0 .27-.58 2.42 2.42 0 0 0 .1-.68 2.38 2.38 0 0 0-.1-.68 2 2 0 0 0-.27-.58 1.35 1.35 0 0 0-.43-.4 1.13 1.13 0 0 0-1-.05 1.17 1.17 0 0 0-.38.27 1.81 1.81 0 0 0-.28.4 2 2 0 0 0-.18.5 2.57 2.57 0 0 0-.1.53zM14.8 178.28a2.64 2.64 0 0 1 .12-.8 2.25 2.25 0 0 1 .33-.67 1.59 1.59 0 0 1 .53-.46 1.51 1.51 0 0 1 1.39 0 1.54 1.54 0 0 1 .53.45 2.24 2.24 0 0 1 .33.67 2.68 2.68 0 0 1 .12.8 2.64 2.64 0 0 1-.12.8 2.26 2.26 0 0 1-.33.67 1.58 1.58 0 0 1-.53.46 1.5 1.5 0 0 1-1.39 0 1.57 1.57 0 0 1-.53-.46 2.24 2.24 0 0 1-.33-.67 2.68 2.68 0 0 1-.12-.79zm.31 0a2.37 2.37 0 0 0 .1.68 2.09 2.09 0 0 0 .27.58 1.34 1.34 0 0 0 .43.41A1.13 1.13 0 0 0 17 180a1.3 1.3 0 0 0 .43-.4 2.06 2.06 0 0 0 .27-.58 2.42 2.42 0 0 0 .1-.68 2.38 2.38 0 0 0-.1-.68 2 2 0 0 0-.27-.58 1.35 1.35 0 0 0-.43-.4 1.13 1.13 0 0 0-1-.05 1.17 1.17 0 0 0-.38.27 1.81 1.81 0 0 0-.28.4 2 2 0 0 0-.18.5 2.57 2.57 0 0 0-.05.48zM19 179.35a3 3 0 0 1-.12-1 2.93 2.93 0 0 1 .2-1.11 1.85 1.85 0 0 1 .58-.79 1.38 1.38 0 0 1 .87-.29 1.51 1.51 0 0 1 .6.12 2.42 2.42 0 0 1 .56.35l-.19.23a2 2 0 0 0-.48-.32 1.24 1.24 0 0 0-.51-.11 1.1 1.1 0 0 0-1 .55 2.59 2.59 0 0 0-.36 1.45v.1a1.4 1.4 0 0 1 1.26-.75 1.56 1.56 0 0 1 .68.15 1.3 1.3 0 0 1 .51.44 1.12 1.12 0 0 1 .2.64 1.28 1.28 0 0 1-.19.68 1.29 1.29 0 0 1-.51.48 1.58 1.58 0 0 1-1.29.06 1.36 1.36 0 0 1-.46-.3 1.62 1.62 0 0 1-.35-.58zm.3-.26a.93.93 0 0 0 .33.72 1.18 1.18 0 0 0 .81.29 1 1 0 0 0 .78-.3 1 1 0 0 0 .3-.75.89.89 0 0 0-.31-.7 1.14 1.14 0 0 0-.79-.28 1.18 1.18 0 0 0-.46.09 1.13 1.13 0 0 0-.36.23 1.05 1.05 0 0 0-.23.32.89.89 0 0 0-.06.38zM.6 169.48v-4h3.13v4h-.3v-3.76H.9v3.76zM4.75 167.46a2.17 2.17 0 0 1 .26-1 2 2 0 0 1 1.76-1 2.29 2.29 0 0 1 .48 0 1.72 1.72 0 0 1 .41.14 2.48 2.48 0 0 1 .34.2l.32.27-.19.2a2.35 2.35 0 0 0-.62-.44 1.71 1.71 0 0 0-.75-.16 1.64 1.64 0 0 0-.67.14 1.67 1.67 0 0 0-.54.38 1.77 1.77 0 0 0-.36.58 2 2 0 0 0-.13.72 1.93 1.93 0 0 0 .13.71 1.79 1.79 0 0 0 .36.58 1.67 1.67 0 0 0 1.22.52 1.7 1.7 0 0 0 .74-.16 2.43 2.43 0 0 0 .65-.47l.2.2a2.71 2.71 0 0 1-.73.53 2 2 0 0 1-.88.18 2 2 0 0 1-1.75-1 2.19 2.19 0 0 1-.25-1.12zM10.7 167.46a2.64 2.64 0 0 1 .12-.8 2.25 2.25 0 0 1 .33-.67 1.59 1.59 0 0 1 .53-.46 1.51 1.51 0 0 1 1.39 0 1.54 1.54 0 0 1 .53.45 2.24 2.24 0 0 1 .33.67 2.68 2.68 0 0 1 .12.8 2.64 2.64 0 0 1-.12.8 2.26 2.26 0 0 1-.33.67 1.58 1.58 0 0 1-.53.46 1.5 1.5 0 0 1-1.39 0 1.57 1.57 0 0 1-.53-.46 2.24 2.24 0 0 1-.33-.67 2.68 2.68 0 0 1-.12-.79zm.31 0a2.37 2.37 0 0 0 .1.68 2.09 2.09 0 0 0 .27.58 1.34 1.34 0 0 0 .43.41 1.13 1.13 0 0 0 1.13 0 1.3 1.3 0 0 0 .43-.4 2.06 2.06 0 0 0 .27-.58 2.42 2.42 0 0 0 .1-.68 2.38 2.38 0 0 0-.1-.68 2 2 0 0 0-.27-.58 1.35 1.35 0 0 0-.43-.4 1.13 1.13 0 0 0-1-.05 1.17 1.17 0 0 0-.38.27 1.81 1.81 0 0 0-.28.4 2 2 0 0 0-.18.5 2.57 2.57 0 0 0-.1.53zM14.8 167.46a2.64 2.64 0 0 1 .12-.8 2.25 2.25 0 0 1 .33-.67 1.59 1.59 0 0 1 .53-.46 1.51 1.51 0 0 1 1.39 0 1.54 1.54 0 0 1 .53.45 2.24 2.24 0 0 1 .33.67 2.68 2.68 0 0 1 .12.8 2.64 2.64 0 0 1-.12.8 2.26 2.26 0 0 1-.33.67 1.58 1.58 0 0 1-.53.46 1.5 1.5 0 0 1-1.39 0 1.57 1.57 0 0 1-.53-.46 2.24 2.24 0 0 1-.33-.67 2.68 2.68 0 0 1-.12-.79zm.31 0a2.37 2.37 0 0 0 .1.68 2.09 2.09 0 0 0 .27.58 1.34 1.34 0 0 0 .43.41 1.13 1.13 0 0 0 1.13 0 1.3 1.3 0 0 0 .43-.4 2.06 2.06 0 0 0 .27-.58 2.42 2.42 0 0 0 .1-.68 2.38 2.38 0 0 0-.1-.68 2 2 0 0 0-.27-.58 1.35 1.35 0 0 0-.43-.4 1.13 1.13 0 0 0-1-.05 1.17 1.17 0 0 0-.38.27 1.81 1.81 0 0 0-.28.4 2 2 0 0 0-.18.5 2.57 2.57 0 0 0-.09.53zM18.84 168.39a.86.86 0 0 1 .25-.61 1.51 1.51 0 0 1 .65-.39 1.44 1.44 0 0 1-.54-.37.84.84 0 0 1-.21-.58.86.86 0 0 1 .19-.55 1.25 1.25 0 0 1 .5-.38 1.73 1.73 0 0 1 1.32 0 1.25 1.25 0 0 1 .5.38.88.88 0 0 1 .2.56.82.82 0 0 1-.21.57 1.46 1.46 0 0 1-.54.37 1.5 1.5 0 0 1 .65.39.87.87 0 0 1 .25.61 1 1 0 0 1-.2.59 1.28 1.28 0 0 1-.54.4 2 2 0 0 1-.76.14 1.74 1.74 0 0 1-1.07-.32 1 1 0 0 1-.44-.81zm.31 0a.74.74 0 0 0 .33.61 1.62 1.62 0 0 0 1.73 0 .75.75 0 0 0 .32-.62.73.73 0 0 0-.35-.62 1.56 1.56 0 0 0-1.69 0 .75.75 0 0 0-.34.66zm.14-2a.72.72 0 0 0 .31.6 1.2 1.2 0 0 0 .75.23 1.18 1.18 0 0 0 .75-.24.73.73 0 0 0 .31-.61.67.67 0 0 0-.3-.56 1.36 1.36 0 0 0-1.5 0 .69.69 0 0 0-.32.64zM.6 158.66v-4h3.13v4h-.3v-3.76H.9v3.76zM4.75 156.64a2.17 2.17 0 0 1 .26-1 2 2 0 0 1 1.76-1 2.29 2.29 0 0 1 .48 0 1.72 1.72 0 0 1 .41.14 2.48 2.48 0 0 1 .34.2l.32.27-.19.2a2.35 2.35 0 0 0-.62-.44 1.71 1.71 0 0 0-.75-.16 1.64 1.64 0 0 0-.67.14 1.67 1.67 0 0 0-.54.38 1.77 1.77 0 0 0-.36.58 2 2 0 0 0-.13.72 1.93 1.93 0 0 0 .13.71 1.79 1.79 0 0 0 .36.58 1.67 1.67 0 0 0 1.22.52 1.7 1.7 0 0 0 .74-.16 2.43 2.43 0 0 0 .65-.47l.2.2a2.71 2.71 0 0 1-.73.53 2 2 0 0 1-.88.18 2 2 0 0 1-1.75-1 2.19 2.19 0 0 1-.25-1.12zM10.7 156.64a2.64 2.64 0 0 1 .12-.8 2.25 2.25 0 0 1 .33-.67 1.59 1.59 0 0 1 .53-.46 1.51 1.51 0 0 1 1.39 0 1.54 1.54 0 0 1 .53.45 2.24 2.24 0 0 1 .33.67 2.68 2.68 0 0 1 .12.8 2.64 2.64 0 0 1-.12.8 2.26 2.26 0 0 1-.33.67 1.58 1.58 0 0 1-.53.46 1.5 1.5 0 0 1-1.39 0 1.57 1.57 0 0 1-.53-.46 2.24 2.24 0 0 1-.33-.67 2.68 2.68 0 0 1-.12-.79zm.31 0a2.37 2.37 0 0 0 .1.68 2.09 2.09 0 0 0 .27.58 1.34 1.34 0 0 0 .43.41 1.13 1.13 0 0 0 1.13 0 1.3 1.3 0 0 0 .43-.4 2.06 2.06 0 0 0 .27-.58 2.42 2.42 0 0 0 .1-.68 2.38 2.38 0 0 0-.1-.68 2 2 0 0 0-.27-.58 1.35 1.35 0 0 0-.43-.4 1.13 1.13 0 0 0-1-.05 1.17 1.17 0 0 0-.38.27 1.81 1.81 0 0 0-.28.4 2 2 0 0 0-.18.5 2.57 2.57 0 0 0-.1.53zM14.59 154.93l.92-.34h.23v4.07h-.29v-3.76l-.78.26zM16.73 156.64a2.64 2.64 0 0 1 .12-.8 2.25 2.25 0 0 1 .33-.67 1.59 1.59 0 0 1 .53-.46 1.51 1.51 0 0 1 1.39 0 1.54 1.54 0 0 1 .53.45 2.24 2.24 0 0 1 .33.67 2.68 2.68 0 0 1 .12.8 2.64 2.64 0 0 1-.12.8 2.26 2.26 0 0 1-.33.67 1.58 1.58 0 0 1-.53.46 1.5 1.5 0 0 1-1.39 0 1.57 1.57 0 0 1-.53-.46 2.24 2.24 0 0 1-.33-.67 2.68 2.68 0 0 1-.12-.79zm.31 0a2.37 2.37 0 0 0 .1.68 2.09 2.09 0 0 0 .27.58 1.34 1.34 0 0 0 .43.41 1.13 1.13 0 0 0 1.13 0 1.3 1.3 0 0 0 .43-.4 2.06 2.06 0 0 0 .27-.58 2.42 2.42 0 0 0 .1-.68 2.38 2.38 0 0 0-.1-.68 2 2 0 0 0-.27-.58 1.35 1.35 0 0 0-.4-.39 1.13 1.13 0 0 0-1-.05 1.17 1.17 0 0 0-.38.27 1.81 1.81 0 0 0-.28.4 2 2 0 0 0-.18.5 2.57 2.57 0 0 0-.16.52zM.6 147.84v-4h3.13v4h-.3v-3.76H.9v3.76zM4.75 145.82a2.17 2.17 0 0 1 .26-1 2 2 0 0 1 1.76-1 2.29 2.29 0 0 1 .48 0 1.72 1.72 0 0 1 .41.14 2.48 2.48 0 0 1 .34.2l.32.27-.19.2a2.35 2.35 0 0 0-.62-.44 1.71 1.71 0 0 0-.75-.16 1.64 1.64 0 0 0-.67.14 1.67 1.67 0 0 0-.54.38 1.77 1.77 0 0 0-.36.58 2 2 0 0 0-.13.72 1.93 1.93 0 0 0 .13.71 1.79 1.79 0 0 0 .36.58 1.67 1.67 0 0 0 1.22.52 1.7 1.7 0 0 0 .74-.16 2.43 2.43 0 0 0 .65-.47l.2.2a2.71 2.71 0 0 1-.73.53 2 2 0 0 1-.88.18 2 2 0 0 1-1.75-1 2.19 2.19 0 0 1-.25-1.12zM10.7 145.82a2.64 2.64 0 0 1 .12-.8 2.25 2.25 0 0 1 .33-.67 1.59 1.59 0 0 1 .53-.46 1.51 1.51 0 0 1 1.39 0 1.54 1.54 0 0 1 .53.45 2.24 2.24 0 0 1 .33.67 2.68 2.68 0 0 1 .12.8 2.64 2.64 0 0 1-.12.8 2.26 2.26 0 0 1-.33.67 1.58 1.58 0 0 1-.53.46 1.5 1.5 0 0 1-1.39 0 1.57 1.57 0 0 1-.53-.46 2.24 2.24 0 0 1-.33-.67 2.68 2.68 0 0 1-.12-.79zm.31 0a2.37 2.37 0 0 0 .1.68 2.09 2.09 0 0 0 .27.58 1.34 1.34 0 0 0 .43.41 1.13 1.13 0 0 0 1.13 0 1.3 1.3 0 0 0 .43-.4 2.06 2.06 0 0 0 .27-.58 2.42 2.42 0 0 0 .1-.68 2.38 2.38 0 0 0-.1-.68 2 2 0 0 0-.27-.58 1.35 1.35 0 0 0-.43-.4 1.13 1.13 0 0 0-1-.05 1.17 1.17 0 0 0-.38.27 1.81 1.81 0 0 0-.28.4 2 2 0 0 0-.18.5 2.57 2.57 0 0 0-.1.53zM14.59 144.11l.92-.34h.23v4.07h-.29v-3.76l-.78.26zM16.63 147.84v-.22l1.51-1.36a4.31 4.31 0 0 0 .7-.76 1.13 1.13 0 0 0 .2-.62.81.81 0 0 0-.27-.63.93.93 0 0 0-.64-.24 1.13 1.13 0 0 0-.64.18 2.1 2.1 0 0 0-.54.57l-.23-.15a3 3 0 0 1 .28-.36 1.8 1.8 0 0 1 .31-.27 1.21 1.21 0 0 1 .38-.18 1.78 1.78 0 0 1 .47-.06 1.2 1.2 0 0 1 .86.32 1.05 1.05 0 0 1 .34.8 1.31 1.31 0 0 1-.05.39 1.39 1.39 0 0 1-.19.37 3.13 3.13 0 0 1-.31.37q-.18.18-.46.44l-1.24 1.13h2.29v.28zM.6 137v-4h3.13v4h-.3v-3.76H.9V137zM4.75 135a2.17 2.17 0 0 1 .25-1 2 2 0 0 1 1.76-1 2.29 2.29 0 0 1 .48 0 1.72 1.72 0 0 1 .41.14 2.48 2.48 0 0 1 .34.2l.32.27-.19.2a2.35 2.35 0 0 0-.62-.44 1.71 1.71 0 0 0-.75-.16 1.64 1.64 0 0 0-.67.14 1.67 1.67 0 0 0-.54.38 1.77 1.77 0 0 0-.36.58 2 2 0 0 0-.13.72 1.93 1.93 0 0 0 .13.71 1.79 1.79 0 0 0 .36.58 1.67 1.67 0 0 0 1.22.52 1.7 1.7 0 0 0 .74-.16 2.43 2.43 0 0 0 .65-.47l.2.2a2.71 2.71 0 0 1-.73.53 2 2 0 0 1-.88.18 2 2 0 0 1-1.75-1 2.19 2.19 0 0 1-.24-1.12zM10.7 135a2.64 2.64 0 0 1 .12-.8 2.25 2.25 0 0 1 .33-.67 1.59 1.59 0 0 1 .53-.46 1.51 1.51 0 0 1 1.39 0 1.54 1.54 0 0 1 .53.45 2.24 2.24 0 0 1 .33.67 2.68 2.68 0 0 1 .12.8 2.64 2.64 0 0 1-.12.8 2.26 2.26 0 0 1-.33.67 1.58 1.58 0 0 1-.53.46 1.5 1.5 0 0 1-1.39 0 1.57 1.57 0 0 1-.53-.46 2.24 2.24 0 0 1-.33-.67 2.68 2.68 0 0 1-.12-.79zm.31 0a2.37 2.37 0 0 0 .1.68 2.09 2.09 0 0 0 .27.58 1.34 1.34 0 0 0 .43.41 1.13 1.13 0 0 0 1.13 0 1.3 1.3 0 0 0 .43-.4 2.06 2.06 0 0 0 .27-.58 2.42 2.42 0 0 0 .1-.68 2.38 2.38 0 0 0-.1-.68 2 2 0 0 0-.27-.58 1.35 1.35 0 0 0-.43-.4 1.13 1.13 0 0 0-1-.05 1.17 1.17 0 0 0-.38.27 1.81 1.81 0 0 0-.28.4 2 2 0 0 0-.18.5 2.57 2.57 0 0 0-.1.53zM14.59 133.29l.92-.34h.23V137h-.29v-3.76l-.78.26zM16.85 136.07a3 3 0 0 1-.12-1 2.93 2.93 0 0 1 .2-1.11 1.85 1.85 0 0 1 .58-.79 1.38 1.38 0 0 1 .87-.29 1.51 1.51 0 0 1 .6.12 2.42 2.42 0 0 1 .56.35l-.19.23a2 2 0 0 0-.48-.32 1.24 1.24 0 0 0-.51-.11 1.1 1.1 0 0 0-1 .55 2.59 2.59 0 0 0-.36 1.45v.1a1.4 1.4 0 0 1 1.26-.75 1.56 1.56 0 0 1 .68.15 1.3 1.3 0 0 1 .51.44 1.12 1.12 0 0 1 .2.64 1.28 1.28 0 0 1-.19.68 1.29 1.29 0 0 1-.51.48 1.58 1.58 0 0 1-1.29.06 1.36 1.36 0 0 1-.46-.3 1.62 1.62 0 0 1-.35-.58zm.3-.26a.93.93 0 0 0 .33.72 1.18 1.18 0 0 0 .81.29 1 1 0 0 0 .78-.3 1 1 0 0 0 .3-.75.89.89 0 0 0-.31-.7 1.14 1.14 0 0 0-.79-.28 1.18 1.18 0 0 0-.46.09 1.13 1.13 0 0 0-.36.23 1.05 1.05 0 0 0-.23.32.89.89 0 0 0-.07.38zM.6 126.2v-4h3.13v4h-.3v-3.76H.9v3.76zM4.75 124.18a2.17 2.17 0 0 1 .26-1 2 2 0 0 1 1.76-1 2.29 2.29 0 0 1 .48 0 1.72 1.72 0 0 1 .41.14 2.48 2.48 0 0 1 .34.2l.32.27-.19.2a2.35 2.35 0 0 0-.62-.44 1.71 1.71 0 0 0-.75-.16 1.64 1.64 0 0 0-.67.14 1.67 1.67 0 0 0-.54.38 1.77 1.77 0 0 0-.36.58 2 2 0 0 0-.13.72 1.93 1.93 0 0 0 .13.71 1.79 1.79 0 0 0 .36.58 1.67 1.67 0 0 0 1.22.52 1.7 1.7 0 0 0 .74-.16 2.43 2.43 0 0 0 .65-.47l.2.2a2.71 2.71 0 0 1-.73.53 2 2 0 0 1-.88.18 2 2 0 0 1-1.75-1 2.19 2.19 0 0 1-.25-1.12zM10.7 124.18a2.64 2.64 0 0 1 .12-.8 2.25 2.25 0 0 1 .33-.67 1.59 1.59 0 0 1 .53-.46 1.51 1.51 0 0 1 1.39 0 1.54 1.54 0 0 1 .53.45 2.24 2.24 0 0 1 .33.67 2.68 2.68 0 0 1 .12.8 2.64 2.64 0 0 1-.12.8 2.26 2.26 0 0 1-.33.67 1.58 1.58 0 0 1-.53.46 1.5 1.5 0 0 1-1.39 0 1.57 1.57 0 0 1-.53-.46 2.24 2.24 0 0 1-.33-.67 2.68 2.68 0 0 1-.12-.79zm.31 0a2.37 2.37 0 0 0 .1.68 2.09 2.09 0 0 0 .27.58 1.34 1.34 0 0 0 .43.41 1.13 1.13 0 0 0 1.13 0 1.3 1.3 0 0 0 .43-.4 2.06 2.06 0 0 0 .27-.58 2.42 2.42 0 0 0 .1-.68 2.38 2.38 0 0 0-.1-.68 2 2 0 0 0-.27-.58 1.35 1.35 0 0 0-.43-.4 1.13 1.13 0 0 0-1-.05 1.17 1.17 0 0 0-.38.27 1.81 1.81 0 0 0-.28.4 2 2 0 0 0-.18.5 2.57 2.57 0 0 0-.1.53zM14.69 126.2v-.2l1.51-1.36a4.31 4.31 0 0 0 .7-.76 1.13 1.13 0 0 0 .2-.62.81.81 0 0 0-.27-.63.93.93 0 0 0-.64-.24 1.13 1.13 0 0 0-.64.18 2.1 2.1 0 0 0-.54.57l-.23-.15a3 3 0 0 1 .28-.36 1.8 1.8 0 0 1 .31-.27 1.21 1.21 0 0 1 .38-.18 1.78 1.78 0 0 1 .47-.06 1.2 1.2 0 0 1 .86.32 1.05 1.05 0 0 1 .34.8 1.31 1.31 0 0 1-.05.39 1.39 1.39 0 0 1-.19.37 3.13 3.13 0 0 1-.31.37q-.18.18-.46.44l-1.24 1.13h2.29v.28zM18.2 124.18a2.64 2.64 0 0 1 .12-.8 2.25 2.25 0 0 1 .33-.67 1.59 1.59 0 0 1 .53-.46 1.51 1.51 0 0 1 1.39 0 1.54 1.54 0 0 1 .53.45 2.24 2.24 0 0 1 .33.67 2.68 2.68 0 0 1 .12.8 2.64 2.64 0 0 1-.12.8 2.26 2.26 0 0 1-.33.67 1.58 1.58 0 0 1-.53.46 1.5 1.5 0 0 1-1.39 0 1.57 1.57 0 0 1-.53-.46 2.24 2.24 0 0 1-.33-.67 2.68 2.68 0 0 1-.12-.79zm.31 0a2.37 2.37 0 0 0 .1.68 2.09 2.09 0 0 0 .27.58 1.34 1.34 0 0 0 .43.41 1.13 1.13 0 0 0 1.13 0 1.3 1.3 0 0 0 .43-.4 2.06 2.06 0 0 0 .27-.58 2.42 2.42 0 0 0 .1-.68 2.38 2.38 0 0 0-.1-.68 2 2 0 0 0-.27-.58 1.35 1.35 0 0 0-.43-.4 1.13 1.13 0 0 0-1-.05 1.17 1.17 0 0 0-.38.27 1.81 1.81 0 0 0-.28.4 2 2 0 0 0-.18.5 2.57 2.57 0 0 0-.09.53zM.6 115.38v-4h3.13v4h-.3v-3.76H.9v3.76zM4.75 113.36a2.17 2.17 0 0 1 .26-1 2 2 0 0 1 1.76-1 2.29 2.29 0 0 1 .48 0 1.72 1.72 0 0 1 .41.14 2.48 2.48 0 0 1 .34.2l.32.27-.19.2a2.35 2.35 0 0 0-.62-.44 1.71 1.71 0 0 0-.75-.16 1.64 1.64 0 0 0-.67.14 1.67 1.67 0 0 0-.54.38 1.77 1.77 0 0 0-.36.58 2 2 0 0 0-.13.72 1.93 1.93 0 0 0 .13.71 1.79 1.79 0 0 0 .36.58 1.67 1.67 0 0 0 1.22.52 1.7 1.7 0 0 0 .74-.16 2.43 2.43 0 0 0 .65-.47l.2.2a2.71 2.71 0 0 1-.73.53 2 2 0 0 1-.88.18 2 2 0 0 1-1.75-1 2.19 2.19 0 0 1-.25-1.12zM10.7 113.36a2.64 2.64 0 0 1 .12-.8 2.25 2.25 0 0 1 .33-.67 1.59 1.59 0 0 1 .53-.46 1.51 1.51 0 0 1 1.39 0 1.54 1.54 0 0 1 .53.45 2.24 2.24 0 0 1 .33.67 2.68 2.68 0 0 1 .12.8 2.64 2.64 0 0 1-.12.8 2.26 2.26 0 0 1-.33.67 1.58 1.58 0 0 1-.53.46 1.5 1.5 0 0 1-1.39 0 1.57 1.57 0 0 1-.53-.46 2.24 2.24 0 0 1-.33-.67 2.68 2.68 0 0 1-.12-.79zm.31 0a2.37 2.37 0 0 0 .1.68 2.09 2.09 0 0 0 .27.58 1.34 1.34 0 0 0 .43.41 1.13 1.13 0 0 0 1.13 0 1.3 1.3 0 0 0 .43-.4 2.06 2.06 0 0 0 .27-.58 2.42 2.42 0 0 0 .1-.68 2.38 2.38 0 0 0-.1-.68 2 2 0 0 0-.27-.58 1.35 1.35 0 0 0-.43-.4 1.13 1.13 0 0 0-1-.05 1.17 1.17 0 0 0-.38.27 1.81 1.81 0 0 0-.28.4 2 2 0 0 0-.18.5 2.57 2.57 0 0 0-.1.53zM14.69 115.38v-.22l1.51-1.36a4.31 4.31 0 0 0 .7-.76 1.13 1.13 0 0 0 .2-.62.81.81 0 0 0-.27-.63.93.93 0 0 0-.64-.24 1.13 1.13 0 0 0-.64.18 2.1 2.1 0 0 0-.54.57l-.23-.15a3 3 0 0 1 .28-.36 1.8 1.8 0 0 1 .31-.27 1.21 1.21 0 0 1 .38-.18 1.78 1.78 0 0 1 .47-.06 1.2 1.2 0 0 1 .86.32 1.05 1.05 0 0 1 .34.8 1.31 1.31 0 0 1-.05.39 1.39 1.39 0 0 1-.19.37 3.13 3.13 0 0 1-.31.37q-.18.18-.46.44l-1.24 1.13h2.29v.28zM18.16 114.8l.21-.21a1.73 1.73 0 0 0 1.21.59 1.08 1.08 0 0 0 .78-.29 1 1 0 0 0 .31-.73.87.87 0 0 0-.31-.69 1.18 1.18 0 0 0-.8-.27 1.89 1.89 0 0 0-.91.25l-.23-.15.12-2h2.26v.28h-2l-.1 1.52a2 2 0 0 1 .9-.22 1.46 1.46 0 0 1 1 .34 1.12 1.12 0 0 1 .4.88 1.21 1.21 0 0 1-.4.93 1.44 1.44 0 0 1-1 .37 1.7 1.7 0 0 1-.76-.18 2.36 2.36 0 0 1-.68-.42zM.6 104.56v-4h3.13v4h-.3v-3.76H.9v3.76zM4.75 102.54a2.17 2.17 0 0 1 .26-1 2 2 0 0 1 1.76-1 2.29 2.29 0 0 1 .48 0 1.72 1.72 0 0 1 .41.14 2.48 2.48 0 0 1 .34.2l.32.27-.19.2a2.35 2.35 0 0 0-.62-.44 1.71 1.71 0 0 0-.75-.16 1.64 1.64 0 0 0-.67.14 1.67 1.67 0 0 0-.54.38 1.77 1.77 0 0 0-.36.58 2 2 0 0 0-.13.72 1.93 1.93 0 0 0 .13.71 1.79 1.79 0 0 0 .36.58 1.67 1.67 0 0 0 1.22.52 1.7 1.7 0 0 0 .74-.16 2.43 2.43 0 0 0 .65-.47l.2.2a2.71 2.71 0 0 1-.73.53 2 2 0 0 1-.88.18 2 2 0 0 1-1.75-1 2.19 2.19 0 0 1-.25-1.12zM10.7 102.54a2.64 2.64 0 0 1 .12-.8 2.25 2.25 0 0 1 .33-.67 1.59 1.59 0 0 1 .53-.46 1.51 1.51 0 0 1 1.39 0 1.54 1.54 0 0 1 .53.45 2.24 2.24 0 0 1 .33.67 2.68 2.68 0 0 1 .12.8 2.64 2.64 0 0 1-.12.8 2.26 2.26 0 0 1-.33.67 1.58 1.58 0 0 1-.53.46 1.5 1.5 0 0 1-1.39 0 1.57 1.57 0 0 1-.53-.46 2.24 2.24 0 0 1-.33-.67 2.68 2.68 0 0 1-.12-.79zm.31 0a2.37 2.37 0 0 0 .1.68 2.09 2.09 0 0 0 .27.58 1.34 1.34 0 0 0 .43.41 1.13 1.13 0 0 0 1.13 0 1.3 1.3 0 0 0 .43-.4 2.06 2.06 0 0 0 .27-.58 2.42 2.42 0 0 0 .1-.68 2.38 2.38 0 0 0-.1-.68 2 2 0 0 0-.27-.58 1.35 1.35 0 0 0-.43-.4 1.13 1.13 0 0 0-1-.05 1.17 1.17 0 0 0-.38.27 1.81 1.81 0 0 0-.28.4 2 2 0 0 0-.18.5 2.57 2.57 0 0 0-.1.53zM14.73 103.9l.23-.19a1.55 1.55 0 0 0 1.26.65 1 1 0 0 0 .71-.25.83.83 0 0 0 .29-.65.74.74 0 0 0-.35-.65 1.61 1.61 0 0 0-.91-.23h-.22l-.08-.17 1.39-1.61h-2.11v-.28h2.53v.21l-1.37 1.57a2.59 2.59 0 0 1 .41.06 1.84 1.84 0 0 1 .38.14 1.41 1.41 0 0 1 .33.22.93.93 0 0 1 .22.32 1 1 0 0 1 .08.42 1.08 1.08 0 0 1-.18.62 1.2 1.2 0 0 1-.48.42 1.46 1.46 0 0 1-.65.15 1.81 1.81 0 0 1-.85-.19 1.89 1.89 0 0 1-.63-.56zM18.32 102.54a2.64 2.64 0 0 1 .12-.8 2.25 2.25 0 0 1 .33-.67 1.59 1.59 0 0 1 .53-.46 1.51 1.51 0 0 1 1.39 0 1.54 1.54 0 0 1 .53.45 2.24 2.24 0 0 1 .33.67 2.68 2.68 0 0 1 .12.8 2.64 2.64 0 0 1-.12.8 2.26 2.26 0 0 1-.33.67 1.58 1.58 0 0 1-.53.46 1.5 1.5 0 0 1-1.39 0 1.57 1.57 0 0 1-.53-.46 2.24 2.24 0 0 1-.33-.67 2.68 2.68 0 0 1-.12-.79zm.31 0a2.37 2.37 0 0 0 .1.68 2.09 2.09 0 0 0 .27.58 1.34 1.34 0 0 0 .43.41 1.13 1.13 0 0 0 1.13 0 1.3 1.3 0 0 0 .43-.4 2.06 2.06 0 0 0 .27-.58 2.42 2.42 0 0 0 .1-.68 2.38 2.38 0 0 0-.1-.68 2 2 0 0 0-.27-.58 1.35 1.35 0 0 0-.43-.4 1.13 1.13 0 0 0-1-.05 1.17 1.17 0 0 0-.38.27 1.81 1.81 0 0 0-.28.4 2 2 0 0 0-.18.5 2.57 2.57 0 0 0-.09.53zM.6 93.74v-4h3.13v4h-.3V90H.9v3.76zM4.75 91.72a2.17 2.17 0 0 1 .26-1 2 2 0 0 1 1.76-1 2.29 2.29 0 0 1 .48 0 1.72 1.72 0 0 1 .41.14A2.48 2.48 0 0 1 8 90l.32.27-.19.2a2.35 2.35 0 0 0-.62-.44 1.71 1.71 0 0 0-.75-.16 1.64 1.64 0 0 0-.67.14 1.67 1.67 0 0 0-.54.38 1.77 1.77 0 0 0-.36.58 2 2 0 0 0-.13.72 1.93 1.93 0 0 0 .13.71 1.79 1.79 0 0 0 .36.58 1.67 1.67 0 0 0 1.22.52 1.7 1.7 0 0 0 .74-.16 2.43 2.43 0 0 0 .65-.47l.2.2a2.71 2.71 0 0 1-.73.53 2 2 0 0 1-.88.18 2 2 0 0 1-1.75-1 2.19 2.19 0 0 1-.25-1.06zM10.7 91.72a2.64 2.64 0 0 1 .12-.8 2.25 2.25 0 0 1 .33-.67 1.59 1.59 0 0 1 .53-.46 1.51 1.51 0 0 1 1.39 0 1.54 1.54 0 0 1 .53.45 2.24 2.24 0 0 1 .33.67 2.68 2.68 0 0 1 .12.8 2.64 2.64 0 0 1-.12.8 2.26 2.26 0 0 1-.33.67 1.58 1.58 0 0 1-.53.46 1.5 1.5 0 0 1-1.39 0 1.57 1.57 0 0 1-.53-.46 2.24 2.24 0 0 1-.33-.67 2.68 2.68 0 0 1-.12-.79zm.31 0a2.37 2.37 0 0 0 .1.68 2.09 2.09 0 0 0 .27.58 1.34 1.34 0 0 0 .43.41 1.13 1.13 0 0 0 1.13 0 1.3 1.3 0 0 0 .43-.4 2.06 2.06 0 0 0 .27-.58 2.42 2.42 0 0 0 .1-.68 2.38 2.38 0 0 0-.1-.68 2 2 0 0 0-.27-.58 1.35 1.35 0 0 0-.43-.4 1.13 1.13 0 0 0-1-.05 1.17 1.17 0 0 0-.38.27 1.81 1.81 0 0 0-.28.4 2 2 0 0 0-.18.5 2.57 2.57 0 0 0-.1.53zM14.7 92.53l2.3-2.86h.27v2.83h.66v.26h-.66v1H17v-1h-2.2zm.36 0H17V90.1zM18.63 91.72a2.64 2.64 0 0 1 .12-.8 2.25 2.25 0 0 1 .33-.67 1.59 1.59 0 0 1 .53-.46 1.51 1.51 0 0 1 1.39 0 1.54 1.54 0 0 1 .53.45 2.24 2.24 0 0 1 .33.67 2.68 2.68 0 0 1 .12.8 2.64 2.64 0 0 1-.12.8 2.26 2.26 0 0 1-.33.67 1.58 1.58 0 0 1-.53.46 1.5 1.5 0 0 1-1.39 0 1.57 1.57 0 0 1-.53-.46 2.24 2.24 0 0 1-.33-.67 2.68 2.68 0 0 1-.12-.79zm.31 0a2.37 2.37 0 0 0 .1.68 2.09 2.09 0 0 0 .27.58 1.34 1.34 0 0 0 .43.41 1.13 1.13 0 0 0 1.13 0 1.3 1.3 0 0 0 .43-.4 2.06 2.06 0 0 0 .27-.58 2.42 2.42 0 0 0 .1-.68 2.38 2.38 0 0 0-.1-.68 2 2 0 0 0-.27-.58 1.35 1.35 0 0 0-.43-.4 1.13 1.13 0 0 0-1-.05 1.17 1.17 0 0 0-.38.27 1.81 1.81 0 0 0-.28.4 2 2 0 0 0-.18.5 2.57 2.57 0 0 0-.09.53zM.6 82.92v-4h3.13v4h-.3v-3.76H.9v3.76zM4.75 80.9a2.17 2.17 0 0 1 .26-1 2 2 0 0 1 1.76-1 2.29 2.29 0 0 1 .48 0 1.72 1.72 0 0 1 .41.14 2.48 2.48 0 0 1 .34.2l.32.27-.19.2a2.35 2.35 0 0 0-.62-.44 1.71 1.71 0 0 0-.75-.16 1.64 1.64 0 0 0-.67.14 1.67 1.67 0 0 0-.54.38 1.77 1.77 0 0 0-.36.58 2 2 0 0 0-.13.72 1.93 1.93 0 0 0 .13.71 1.79 1.79 0 0 0 .36.58 1.67 1.67 0 0 0 1.22.52 1.7 1.7 0 0 0 .74-.16 2.43 2.43 0 0 0 .65-.47l.2.2a2.71 2.71 0 0 1-.73.53 2 2 0 0 1-.88.18A2 2 0 0 1 5 82a2.19 2.19 0 0 1-.25-1.1zM10.7 80.9a2.64 2.64 0 0 1 .12-.8 2.25 2.25 0 0 1 .33-.67 1.59 1.59 0 0 1 .53-.46 1.51 1.51 0 0 1 1.39 0 1.54 1.54 0 0 1 .53.45 2.24 2.24 0 0 1 .33.67 2.68 2.68 0 0 1 .12.8 2.64 2.64 0 0 1-.12.8 2.26 2.26 0 0 1-.33.67 1.58 1.58 0 0 1-.53.46 1.5 1.5 0 0 1-1.39 0 1.57 1.57 0 0 1-.53-.46 2.24 2.24 0 0 1-.33-.67 2.68 2.68 0 0 1-.12-.79zm.31 0a2.37 2.37 0 0 0 .1.68 2.09 2.09 0 0 0 .27.58 1.34 1.34 0 0 0 .43.41 1.13 1.13 0 0 0 1.13 0 1.3 1.3 0 0 0 .43-.4 2.06 2.06 0 0 0 .27-.58 2.42 2.42 0 0 0 .1-.68 2.38 2.38 0 0 0-.1-.68 2 2 0 0 0-.27-.58 1.35 1.35 0 0 0-.43-.4 1.13 1.13 0 0 0-1-.05 1.17 1.17 0 0 0-.38.27 1.81 1.81 0 0 0-.28.4 2 2 0 0 0-.18.5 2.57 2.57 0 0 0-.1.53zM14.75 82.34l.21-.21a1.73 1.73 0 0 0 1.21.59 1.08 1.08 0 0 0 .78-.29 1 1 0 0 0 .31-.73.87.87 0 0 0-.26-.7 1.18 1.18 0 0 0-.8-.27 1.89 1.89 0 0 0-.91.25l-.29-.14.12-2h2.27v.28h-2l-.1 1.52a2 2 0 0 1 .9-.22 1.46 1.46 0 0 1 1 .34 1.12 1.12 0 0 1 .4.88 1.21 1.21 0 0 1-.4.93 1.44 1.44 0 0 1-1 .37 1.7 1.7 0 0 1-.76-.18 2.36 2.36 0 0 1-.68-.42zM18.29 80.9a2.64 2.64 0 0 1 .12-.8 2.25 2.25 0 0 1 .33-.67 1.59 1.59 0 0 1 .53-.46 1.51 1.51 0 0 1 1.39 0 1.54 1.54 0 0 1 .53.45 2.24 2.24 0 0 1 .33.67 2.68 2.68 0 0 1 .12.8 2.64 2.64 0 0 1-.12.8 2.26 2.26 0 0 1-.33.67 1.58 1.58 0 0 1-.53.46 1.5 1.5 0 0 1-1.39 0 1.57 1.57 0 0 1-.53-.46 2.24 2.24 0 0 1-.33-.67 2.68 2.68 0 0 1-.12-.79zm.31 0a2.37 2.37 0 0 0 .1.68 2.09 2.09 0 0 0 .27.58 1.34 1.34 0 0 0 .43.41 1.13 1.13 0 0 0 1.13 0 1.3 1.3 0 0 0 .43-.4 2.06 2.06 0 0 0 .27-.58 2.42 2.42 0 0 0 .1-.68 2.38 2.38 0 0 0-.1-.68 2 2 0 0 0-.27-.58 1.35 1.35 0 0 0-.43-.4 1.13 1.13 0 0 0-1-.05 1.17 1.17 0 0 0-.38.27 1.81 1.81 0 0 0-.28.4 2 2 0 0 0-.18.5 2.57 2.57 0 0 0-.09.53zM.6 72.1v-4h3.13v4h-.3v-3.76H.9v3.76zM4.75 70.08A2.17 2.17 0 0 1 5 69a2 2 0 0 1 1.76-1 2.29 2.29 0 0 1 .48 0 1.72 1.72 0 0 1 .41.14 2.48 2.48 0 0 1 .34.2l.32.27-.19.2a2.35 2.35 0 0 0-.62-.44 1.71 1.71 0 0 0-.75-.16 1.64 1.64 0 0 0-.67.14 1.67 1.67 0 0 0-.54.38 1.77 1.77 0 0 0-.36.58 2 2 0 0 0-.13.72 1.93 1.93 0 0 0 .13.71 1.79 1.79 0 0 0 .36.58 1.67 1.67 0 0 0 1.22.52 1.7 1.7 0 0 0 .74-.16 2.43 2.43 0 0 0 .65-.47l.2.2a2.71 2.71 0 0 1-.73.53 2 2 0 0 1-.88.18 2 2 0 0 1-1.75-1 2.19 2.19 0 0 1-.24-1.04zM10.7 70.08a2.64 2.64 0 0 1 .12-.8 2.25 2.25 0 0 1 .33-.67 1.59 1.59 0 0 1 .53-.46 1.51 1.51 0 0 1 1.39 0 1.54 1.54 0 0 1 .53.45 2.24 2.24 0 0 1 .33.67 2.68 2.68 0 0 1 .12.8 2.64 2.64 0 0 1-.12.8 2.26 2.26 0 0 1-.33.67 1.58 1.58 0 0 1-.53.46 1.5 1.5 0 0 1-1.39 0 1.57 1.57 0 0 1-.53-.46 2.24 2.24 0 0 1-.33-.67 2.68 2.68 0 0 1-.12-.79zm.31 0a2.37 2.37 0 0 0 .1.68 2.09 2.09 0 0 0 .27.58 1.34 1.34 0 0 0 .43.41 1.13 1.13 0 0 0 1.13 0 1.3 1.3 0 0 0 .43-.4 2.06 2.06 0 0 0 .27-.58 2.42 2.42 0 0 0 .1-.68 2.38 2.38 0 0 0-.1-.68 2 2 0 0 0-.27-.58 1.35 1.35 0 0 0-.43-.4 1.13 1.13 0 0 0-1-.05 1.17 1.17 0 0 0-.38.27 1.81 1.81 0 0 0-.28.4 2 2 0 0 0-.18.5 2.57 2.57 0 0 0-.1.53zM14.91 71.14a3 3 0 0 1-.12-1 2.93 2.93 0 0 1 .2-1.11 1.85 1.85 0 0 1 .58-.79 1.38 1.38 0 0 1 .87-.29 1.51 1.51 0 0 1 .6.12 2.42 2.42 0 0 1 .56.35l-.19.23a2 2 0 0 0-.48-.32 1.24 1.24 0 0 0-.51-.11 1.1 1.1 0 0 0-1 .55 2.59 2.59 0 0 0-.36 1.45v.1a1.4 1.4 0 0 1 1.26-.75 1.56 1.56 0 0 1 .68.15 1.3 1.3 0 0 1 .51.44 1.12 1.12 0 0 1 .2.64 1.28 1.28 0 0 1-.19.68 1.29 1.29 0 0 1-.51.48 1.58 1.58 0 0 1-1.29.06 1.36 1.36 0 0 1-.46-.3 1.62 1.62 0 0 1-.35-.58zm.3-.26a.93.93 0 0 0 .33.72 1.18 1.18 0 0 0 .81.29 1 1 0 0 0 .78-.3 1 1 0 0 0 .3-.75.89.89 0 0 0-.31-.7 1.14 1.14 0 0 0-.79-.28 1.18 1.18 0 0 0-.46.09 1.13 1.13 0 0 0-.36.23 1.05 1.05 0 0 0-.23.32.89.89 0 0 0-.07.38zM18.46 71.52l.21-.21a1.73 1.73 0 0 0 1.21.59 1.08 1.08 0 0 0 .78-.29 1 1 0 0 0 .31-.73.87.87 0 0 0-.31-.69 1.18 1.18 0 0 0-.8-.27 1.89 1.89 0 0 0-.91.25l-.24-.17.12-2h2.27v.28h-2l-.1 1.58a2 2 0 0 1 .9-.22 1.46 1.46 0 0 1 1 .34 1.12 1.12 0 0 1 .4.88 1.21 1.21 0 0 1-.4.93 1.44 1.44 0 0 1-1 .37 1.7 1.7 0 0 1-.76-.18 2.36 2.36 0 0 1-.68-.46zM.6 61.28v-4h3.13v4h-.3v-3.76H.9v3.76zM4.75 59.26a2.17 2.17 0 0 1 .26-1 2 2 0 0 1 1.76-1 2.29 2.29 0 0 1 .48 0 1.72 1.72 0 0 1 .41.14 2.48 2.48 0 0 1 .34.2l.32.27-.19.2a2.35 2.35 0 0 0-.62-.44 1.71 1.71 0 0 0-.75-.16 1.64 1.64 0 0 0-.67.14 1.67 1.67 0 0 0-.54.38 1.77 1.77 0 0 0-.36.58 2 2 0 0 0-.13.72 1.93 1.93 0 0 0 .14.71 1.79 1.79 0 0 0 .36.58 1.67 1.67 0 0 0 1.22.52 1.7 1.7 0 0 0 .74-.16 2.43 2.43 0 0 0 .65-.47l.2.2a2.71 2.71 0 0 1-.73.53 2 2 0 0 1-.88.18 2 2 0 0 1-1.75-1 2.19 2.19 0 0 1-.26-1.12zM10.7 59.26a2.64 2.64 0 0 1 .12-.8 2.25 2.25 0 0 1 .33-.67 1.59 1.59 0 0 1 .53-.46 1.51 1.51 0 0 1 1.39 0 1.54 1.54 0 0 1 .53.45 2.24 2.24 0 0 1 .33.67 2.68 2.68 0 0 1 .12.8 2.64 2.64 0 0 1-.12.8 2.26 2.26 0 0 1-.33.67 1.58 1.58 0 0 1-.53.46 1.5 1.5 0 0 1-1.39 0 1.57 1.57 0 0 1-.53-.46 2.24 2.24 0 0 1-.33-.67 2.68 2.68 0 0 1-.12-.79zm.31 0a2.37 2.37 0 0 0 .1.68 2.09 2.09 0 0 0 .27.58 1.34 1.34 0 0 0 .43.41 1.13 1.13 0 0 0 1.13 0 1.3 1.3 0 0 0 .43-.4 2.06 2.06 0 0 0 .27-.58 2.42 2.42 0 0 0 .1-.68 2.38 2.38 0 0 0-.1-.68 2 2 0 0 0-.27-.58 1.35 1.35 0 0 0-.43-.4 1.13 1.13 0 0 0-1-.05 1.17 1.17 0 0 0-.38.27 1.81 1.81 0 0 0-.28.4 2 2 0 0 0-.18.5 2.57 2.57 0 0 0-.1.53zM14.74 60.19a.86.86 0 0 1 .25-.61 1.51 1.51 0 0 1 .65-.39 1.44 1.44 0 0 1-.54-.37.84.84 0 0 1-.21-.58.86.86 0 0 1 .19-.55 1.25 1.25 0 0 1 .5-.38 1.73 1.73 0 0 1 1.32 0 1.25 1.25 0 0 1 .5.38.88.88 0 0 1 .2.56.82.82 0 0 1-.21.57 1.46 1.46 0 0 1-.54.37 1.5 1.5 0 0 1 .65.39.87.87 0 0 1 .25.61 1 1 0 0 1-.2.59 1.28 1.28 0 0 1-.54.4 2 2 0 0 1-.76.14 1.74 1.74 0 0 1-1.08-.32 1 1 0 0 1-.43-.81zm.31 0a.74.74 0 0 0 .33.61 1.62 1.62 0 0 0 1.73 0 .75.75 0 0 0 .32-.62.73.73 0 0 0-.35-.62 1.56 1.56 0 0 0-1.69 0 .75.75 0 0 0-.39.65zm.14-2a.72.72 0 0 0 .31.6 1.2 1.2 0 0 0 .75.23 1.18 1.18 0 0 0 .75-.24.73.73 0 0 0 .31-.61.67.67 0 0 0-.3-.56 1.36 1.36 0 0 0-1.5 0 .69.69 0 0 0-.32.64zM18.43 59.26a2.64 2.64 0 0 1 .12-.8 2.25 2.25 0 0 1 .33-.67 1.59 1.59 0 0 1 .53-.46 1.51 1.51 0 0 1 1.39 0 1.54 1.54 0 0 1 .53.45 2.24 2.24 0 0 1 .33.67 2.68 2.68 0 0 1 .12.8 2.64 2.64 0 0 1-.12.8 2.26 2.26 0 0 1-.33.67 1.58 1.58 0 0 1-.53.46 1.5 1.5 0 0 1-1.39 0 1.57 1.57 0 0 1-.53-.46 2.24 2.24 0 0 1-.33-.67 2.68 2.68 0 0 1-.12-.79zm.31 0a2.37 2.37 0 0 0 .1.68 2.09 2.09 0 0 0 .27.58 1.34 1.34 0 0 0 .43.41 1.13 1.13 0 0 0 1.13 0 1.3 1.3 0 0 0 .43-.4 2.06 2.06 0 0 0 .27-.58 2.42 2.42 0 0 0 .1-.68 2.38 2.38 0 0 0-.1-.68 2 2 0 0 0-.27-.59 1.35 1.35 0 0 0-.43-.4 1.13 1.13 0 0 0-1-.05 1.17 1.17 0 0 0-.38.27 1.81 1.81 0 0 0-.28.4 2 2 0 0 0-.18.5 2.57 2.57 0 0 0-.08.54zM.6 50.46v-4h3.13v4h-.3V46.7H.9v3.76zM4.75 48.44a2.17 2.17 0 0 1 .26-1 2 2 0 0 1 1.76-1 2.29 2.29 0 0 1 .48 0 1.72 1.72 0 0 1 .41.14 2.48 2.48 0 0 1 .34.2l.32.27-.19.2a2.35 2.35 0 0 0-.62-.44 1.71 1.71 0 0 0-.75-.16 1.64 1.64 0 0 0-.67.14 1.67 1.67 0 0 0-.54.38 1.77 1.77 0 0 0-.36.58 2 2 0 0 0-.13.72 1.93 1.93 0 0 0 .13.71 1.79 1.79 0 0 0 .36.58 1.67 1.67 0 0 0 1.22.52 1.7 1.7 0 0 0 .74-.16 2.43 2.43 0 0 0 .65-.47l.2.2a2.71 2.71 0 0 1-.73.53 2 2 0 0 1-.88.18A2 2 0 0 1 5 49.5a2.19 2.19 0 0 1-.25-1.06zM10.49 46.73l.92-.34h.23v4.07h-.29V46.7l-.78.26zM12.63 48.44a2.64 2.64 0 0 1 .12-.8 2.25 2.25 0 0 1 .33-.67 1.59 1.59 0 0 1 .53-.46 1.51 1.51 0 0 1 1.39 0 1.54 1.54 0 0 1 .53.45 2.24 2.24 0 0 1 .33.67 2.68 2.68 0 0 1 .12.8 2.64 2.64 0 0 1-.12.8 2.26 2.26 0 0 1-.33.67 1.58 1.58 0 0 1-.53.46 1.5 1.5 0 0 1-1.39 0 1.57 1.57 0 0 1-.53-.46 2.24 2.24 0 0 1-.33-.67 2.68 2.68 0 0 1-.12-.79zm.31 0a2.37 2.37 0 0 0 .1.68 2.09 2.09 0 0 0 .27.58 1.34 1.34 0 0 0 .43.41 1.13 1.13 0 0 0 1.13 0 1.3 1.3 0 0 0 .43-.4 2.06 2.06 0 0 0 .27-.58 2.42 2.42 0 0 0 .1-.68 2.38 2.38 0 0 0-.1-.68 2 2 0 0 0-.27-.58 1.35 1.35 0 0 0-.43-.4 1.13 1.13 0 0 0-1-.05 1.17 1.17 0 0 0-.38.27 1.81 1.81 0 0 0-.28.4 2 2 0 0 0-.18.5 2.57 2.57 0 0 0-.09.53zM16.73 48.44a2.64 2.64 0 0 1 .12-.8 2.25 2.25 0 0 1 .33-.67 1.59 1.59 0 0 1 .53-.46 1.51 1.51 0 0 1 1.39 0 1.54 1.54 0 0 1 .53.45 2.24 2.24 0 0 1 .33.67 2.68 2.68 0 0 1 .12.8 2.64 2.64 0 0 1-.12.8 2.26 2.26 0 0 1-.33.67 1.58 1.58 0 0 1-.53.46 1.5 1.5 0 0 1-1.39 0 1.57 1.57 0 0 1-.53-.46 2.24 2.24 0 0 1-.33-.67 2.68 2.68 0 0 1-.12-.79zm.31 0a2.37 2.37 0 0 0 .1.68 2.09 2.09 0 0 0 .27.58 1.34 1.34 0 0 0 .43.41 1.13 1.13 0 0 0 1.13 0 1.3 1.3 0 0 0 .43-.4 2.06 2.06 0 0 0 .27-.58 2.42 2.42 0 0 0 .1-.68 2.38 2.38 0 0 0-.1-.68 2 2 0 0 0-.27-.58 1.35 1.35 0 0 0-.43-.4 1.13 1.13 0 0 0-1-.05 1.17 1.17 0 0 0-.38.27 1.81 1.81 0 0 0-.28.4 2 2 0 0 0-.18.5 2.57 2.57 0 0 0-.13.53zM.6 39.64v-4h3.13v4h-.3v-3.76H.9v3.76zM4.75 37.62a2.17 2.17 0 0 1 .26-1 2 2 0 0 1 1.76-1 2.29 2.29 0 0 1 .48 0 1.72 1.72 0 0 1 .41.14 2.48 2.48 0 0 1 .34.2l.32.27-.19.2a2.35 2.35 0 0 0-.62-.43 1.71 1.71 0 0 0-.75-.16 1.64 1.64 0 0 0-.67.14 1.67 1.67 0 0 0-.54.38 1.77 1.77 0 0 0-.36.58 2 2 0 0 0-.13.72 1.93 1.93 0 0 0 .13.71 1.79 1.79 0 0 0 .36.58 1.67 1.67 0 0 0 1.22.52 1.7 1.7 0 0 0 .74-.16 2.43 2.43 0 0 0 .65-.47l.2.2a2.71 2.71 0 0 1-.73.53 2 2 0 0 1-.88.18 2 2 0 0 1-1.75-1 2.19 2.19 0 0 1-.25-1.13zM10.49 35.91l.92-.34h.23v4.07h-.29v-3.76l-.78.26zM12.53 39.64v-.22L14 38.06a4.31 4.31 0 0 0 .7-.76 1.13 1.13 0 0 0 .2-.62.81.81 0 0 0-.27-.63.93.93 0 0 0-.63-.25 1.13 1.13 0 0 0-.64.18 2.1 2.1 0 0 0-.54.57l-.23-.15a3 3 0 0 1 .28-.36 1.8 1.8 0 0 1 .31-.27 1.21 1.21 0 0 1 .38-.18 1.78 1.78 0 0 1 .47-.06 1.2 1.2 0 0 1 .86.32 1.05 1.05 0 0 1 .34.8 1.31 1.31 0 0 1-.05.39 1.39 1.39 0 0 1-.19.37 3.13 3.13 0 0 1-.31.37q-.18.18-.46.44L13 39.36h2.29v.28zM16 39.05l.21-.21a1.73 1.73 0 0 0 1.21.59 1.08 1.08 0 0 0 .78-.29 1 1 0 0 0 .31-.73.87.87 0 0 0-.31-.69 1.18 1.18 0 0 0-.8-.27 1.89 1.89 0 0 0-.91.25l-.23-.15.12-2h2.27v.28h-2l-.1 1.52a2 2 0 0 1 .9-.22 1.46 1.46 0 0 1 1 .34 1.12 1.12 0 0 1 .4.88 1.21 1.21 0 0 1-.4.93 1.44 1.44 0 0 1-1 .37 1.7 1.7 0 0 1-.76-.18 2.36 2.36 0 0 1-.69-.42zM.6 18v-4h3.13v4h-.3v-3.77H.9V18zM4.75 16a2.17 2.17 0 0 1 .26-1 2 2 0 0 1 1.76-1 2.29 2.29 0 0 1 .48 0 1.72 1.72 0 0 1 .41.14 2.48 2.48 0 0 1 .34.2l.32.27-.19.2a2.35 2.35 0 0 0-.62-.44 1.71 1.71 0 0 0-.75-.16 1.64 1.64 0 0 0-.67.14 1.67 1.67 0 0 0-.54.38 1.77 1.77 0 0 0-.36.58 2 2 0 0 0-.13.72 1.93 1.93 0 0 0 .13.71 1.79 1.79 0 0 0 .36.58 1.67 1.67 0 0 0 1.22.52 1.7 1.7 0 0 0 .74-.16 2.43 2.43 0 0 0 .65-.47l.2.2a2.71 2.71 0 0 1-.73.53 2 2 0 0 1-.88.18A2 2 0 0 1 5 17a2.19 2.19 0 0 1-.25-1zM10.59 18v-.22l1.51-1.36a4.31 4.31 0 0 0 .7-.76A1.13 1.13 0 0 0 13 15a.81.81 0 0 0-.27-.63.93.93 0 0 0-.64-.24 1.13 1.13 0 0 0-.64.18 2.1 2.1 0 0 0-.54.57l-.23-.15a3 3 0 0 1 .32-.33 1.8 1.8 0 0 1 .31-.27 1.21 1.21 0 0 1 .38-.18 1.78 1.78 0 0 1 .47-.06 1.2 1.2 0 0 1 .86.32 1.05 1.05 0 0 1 .34.8 1.31 1.31 0 0 1-.05.39 1.39 1.39 0 0 1-.19.37 3.13 3.13 0 0 1-.31.37q-.18.18-.46.44l-1.24 1.13h2.29V18zM14.1 16a2.64 2.64 0 0 1 .12-.8 2.25 2.25 0 0 1 .33-.67 1.59 1.59 0 0 1 .53-.46 1.51 1.51 0 0 1 1.39 0 1.54 1.54 0 0 1 .53.45 2.24 2.24 0 0 1 .33.67 2.68 2.68 0 0 1 .12.8 2.64 2.64 0 0 1-.12.8 2.26 2.26 0 0 1-.33.67 1.58 1.58 0 0 1-.53.46 1.5 1.5 0 0 1-1.39 0 1.57 1.57 0 0 1-.53-.46 2.24 2.24 0 0 1-.33-.67 2.68 2.68 0 0 1-.12-.79zm.31 0a2.37 2.37 0 0 0 .1.68 2.09 2.09 0 0 0 .27.58 1.34 1.34 0 0 0 .43.41 1.13 1.13 0 0 0 1.13 0 1.3 1.3 0 0 0 .43-.4 2.06 2.06 0 0 0 .27-.58 2.42 2.42 0 0 0 .1-.68 2.38 2.38 0 0 0-.1-.68 2 2 0 0 0-.27-.58 1.35 1.35 0 0 0-.43-.4 1.13 1.13 0 0 0-1-.05 1.17 1.17 0 0 0-.38.27 1.81 1.81 0 0 0-.28.4 2 2 0 0 0-.18.5 2.57 2.57 0 0 0-.08.53zM18.2 16a2.64 2.64 0 0 1 .12-.8 2.25 2.25 0 0 1 .33-.67 1.59 1.59 0 0 1 .53-.46 1.51 1.51 0 0 1 1.39 0 1.54 1.54 0 0 1 .53.45 2.24 2.24 0 0 1 .33.67 2.68 2.68 0 0 1 .12.8 2.64 2.64 0 0 1-.12.8 2.26 2.26 0 0 1-.33.67 1.58 1.58 0 0 1-.53.46 1.5 1.5 0 0 1-1.39 0 1.57 1.57 0 0 1-.53-.46 2.24 2.24 0 0 1-.33-.67 2.68 2.68 0 0 1-.12-.79zm.31 0a2.37 2.37 0 0 0 .1.68 2.09 2.09 0 0 0 .27.58 1.34 1.34 0 0 0 .43.41 1.13 1.13 0 0 0 1.13 0 1.3 1.3 0 0 0 .43-.4 2.06 2.06 0 0 0 .27-.58 2.42 2.42 0 0 0 .1-.68 2.38 2.38 0 0 0-.1-.68 2 2 0 0 0-.27-.58 1.35 1.35 0 0 0-.43-.4 1.13 1.13 0 0 0-1-.05 1.17 1.17 0 0 0-.38.27 1.81 1.81 0 0 0-.28.4 2 2 0 0 0-.18.5 2.57 2.57 0 0 0-.09.53zM.6 7.17v-4h3.13v4h-.3V3.41H.9v3.76zM4.75 5.15a2.17 2.17 0 0 1 .26-1 2 2 0 0 1 1.76-1 2.29 2.29 0 0 1 .48 0 1.72 1.72 0 0 1 .41.14 2.48 2.48 0 0 1 .34.2l.32.27-.19.2a2.35 2.35 0 0 0-.62-.44 1.71 1.71 0 0 0-.75-.16 1.64 1.64 0 0 0-.67.14 1.67 1.67 0 0 0-.54.38 1.77 1.77 0 0 0-.36.58 2 2 0 0 0-.13.72 1.93 1.93 0 0 0 .13.71 1.79 1.79 0 0 0 .36.58A1.67 1.67 0 0 0 6.77 7a1.7 1.7 0 0 0 .74-.16 2.43 2.43 0 0 0 .65-.47l.2.2a2.71 2.71 0 0 1-.73.53 2 2 0 0 1-.88.18A2 2 0 0 1 5 6.21a2.19 2.19 0 0 1-.25-1.06zM10.59 7.17V7l1.51-1.41a4.31 4.31 0 0 0 .7-.76 1.13 1.13 0 0 0 .2-.62.81.81 0 0 0-.27-.63.93.93 0 0 0-.64-.24 1.13 1.13 0 0 0-.64.18 2.1 2.1 0 0 0-.54.57l-.23-.15a3 3 0 0 1 .32-.36 1.8 1.8 0 0 1 .31-.27 1.21 1.21 0 0 1 .38-.18 1.78 1.78 0 0 1 .47-.06 1.2 1.2 0 0 1 .86.32 1.05 1.05 0 0 1 .34.8 1.31 1.31 0 0 1-.05.39 1.39 1.39 0 0 1-.19.37 3.13 3.13 0 0 1-.31.37q-.18.18-.46.44l-1.28 1.13h2.29v.28zM14.06 6.59l.21-.21a1.73 1.73 0 0 0 1.21.62 1.08 1.08 0 0 0 .78-.29 1 1 0 0 0 .31-.73.87.87 0 0 0-.31-.69 1.18 1.18 0 0 0-.8-.27 1.89 1.89 0 0 0-.91.25l-.23-.15.12-2h2.26v.28h-2l-.1 1.52a2 2 0 0 1 .9-.22 1.46 1.46 0 0 1 1 .34 1.12 1.12 0 0 1 .4.88 1.21 1.21 0 0 1-.4.93 1.44 1.44 0 0 1-1 .37 1.7 1.7 0 0 1-.76-.18 2.36 2.36 0 0 1-.68-.45zM17.6 5.15a2.64 2.64 0 0 1 .12-.8 2.25 2.25 0 0 1 .28-.66 1.59 1.59 0 0 1 .53-.46 1.51 1.51 0 0 1 1.39 0 1.54 1.54 0 0 1 .53.45 2.24 2.24 0 0 1 .33.67 2.68 2.68 0 0 1 .12.8 2.64 2.64 0 0 1-.12.8 2.26 2.26 0 0 1-.33.67 1.58 1.58 0 0 1-.53.46 1.5 1.5 0 0 1-1.39 0 1.57 1.57 0 0 1-.53-.46 2.24 2.24 0 0 1-.29-.62 2.68 2.68 0 0 1-.11-.85zm.31 0a2.37 2.37 0 0 0 .1.68 2.09 2.09 0 0 0 .27.58 1.34 1.34 0 0 0 .43.41 1.13 1.13 0 0 0 1.13 0 1.3 1.3 0 0 0 .43-.4 2.06 2.06 0 0 0 .27-.58 2.42 2.42 0 0 0 .1-.68 2.38 2.38 0 0 0-.1-.68 2 2 0 0 0-.27-.58 1.35 1.35 0 0 0-.43-.4 1.13 1.13 0 0 0-1-.05 1.17 1.17 0 0 0-.38.27 1.81 1.81 0 0 0-.28.4 2 2 0 0 0-.18.5 2.57 2.57 0 0 0-.09.53zM.6 28.82v-4h3.13v4h-.3v-3.76H.9v3.76zM4.75 26.8a2.17 2.17 0 0 1 .26-1 2 2 0 0 1 1.76-1 2.29 2.29 0 0 1 .48 0 1.72 1.72 0 0 1 .41.14 2.48 2.48 0 0 1 .34.2l.32.27-.19.2a2.35 2.35 0 0 0-.62-.44 1.71 1.71 0 0 0-.74-.17 1.64 1.64 0 0 0-.67.14 1.67 1.67 0 0 0-.54.38 1.77 1.77 0 0 0-.36.58 2 2 0 0 0-.13.72 1.93 1.93 0 0 0 .13.71 1.79 1.79 0 0 0 .36.58 1.67 1.67 0 0 0 1.22.52 1.7 1.7 0 0 0 .74-.16 2.43 2.43 0 0 0 .65-.47l.2.2a2.71 2.71 0 0 1-.73.53 2 2 0 0 1-.88.18 2 2 0 0 1-1.75-1 2.19 2.19 0 0 1-.26-1.11zM10.49 25.09l.92-.34h.23v4.07h-.29v-3.76l-.78.26zM12.75 27.86a3 3 0 0 1-.12-1 2.93 2.93 0 0 1 .2-1.11 1.85 1.85 0 0 1 .57-.75 1.38 1.38 0 0 1 .87-.29 1.51 1.51 0 0 1 .6.12 2.42 2.42 0 0 1 .56.35l-.19.23a2 2 0 0 0-.48-.32 1.24 1.24 0 0 0-.51-.11 1.1 1.1 0 0 0-1 .55 2.59 2.59 0 0 0-.32 1.47v.1a1.4 1.4 0 0 1 1.26-.75 1.56 1.56 0 0 1 .68.15 1.3 1.3 0 0 1 .51.44 1.12 1.12 0 0 1 .2.64 1.28 1.28 0 0 1-.19.68 1.29 1.29 0 0 1-.51.48 1.58 1.58 0 0 1-1.29.06 1.36 1.36 0 0 1-.46-.3 1.62 1.62 0 0 1-.38-.64zm.3-.26a.93.93 0 0 0 .33.72 1.18 1.18 0 0 0 .81.29 1 1 0 0 0 .78-.3 1 1 0 0 0 .3-.75.89.89 0 0 0-.31-.7 1.14 1.14 0 0 0-.79-.28 1.18 1.18 0 0 0-.46.09 1.13 1.13 0 0 0-.36.23 1.05 1.05 0 0 0-.23.32.89.89 0 0 0-.12.38zM16.33 26.8a2.64 2.64 0 0 1 .12-.8 2.25 2.25 0 0 1 .33-.67 1.59 1.59 0 0 1 .53-.46 1.51 1.51 0 0 1 1.39 0 1.54 1.54 0 0 1 .53.45 2.24 2.24 0 0 1 .33.67 2.68 2.68 0 0 1 .12.8 2.64 2.64 0 0 1-.12.8 2.26 2.26 0 0 1-.33.67 1.58 1.58 0 0 1-.53.46 1.5 1.5 0 0 1-1.39 0 1.57 1.57 0 0 1-.53-.46 2.24 2.24 0 0 1-.33-.67 2.68 2.68 0 0 1-.12-.79zm.31 0a2.37 2.37 0 0 0 .1.68 2.09 2.09 0 0 0 .27.58 1.34 1.34 0 0 0 .43.41 1.13 1.13 0 0 0 1.13 0 1.3 1.3 0 0 0 .43-.4 2.06 2.06 0 0 0 .27-.58 2.42 2.42 0 0 0 .1-.68 2.38 2.38 0 0 0-.1-.68 2 2 0 0 0-.27-.58 1.35 1.35 0 0 0-.43-.4 1.13 1.13 0 0 0-1-.05 1.17 1.17 0 0 0-.38.27 1.81 1.81 0 0 0-.28.4 2 2 0 0 0-.18.5 2.57 2.57 0 0 0-.08.53zM24.75 224.13a2.38 2.38 0 0 1 .11-.72 2 2 0 0 1 .3-.6 1.43 1.43 0 0 1 .48-.41 1.31 1.31 0 0 1 .63-.15 1.33 1.33 0 0 1 .63.15 1.4 1.4 0 0 1 .48.41 2 2 0 0 1 .3.6 2.48 2.48 0 0 1 0 1.45 2 2 0 0 1-.3.6 1.42 1.42 0 0 1-.48.42 1.36 1.36 0 0 1-1.26 0 1.41 1.41 0 0 1-.48-.41 2 2 0 0 1-.3-.6 2.44 2.44 0 0 1-.11-.74zm.28 0a2.13 2.13 0 0 0 .09.62 1.86 1.86 0 0 0 .25.53 1.2 1.2 0 0 0 .39.37 1 1 0 0 0 1 0 1.18 1.18 0 0 0 .39-.37 1.87 1.87 0 0 0 .24-.53 2.21 2.21 0 0 0 .09-.62 2.17 2.17 0 0 0-.09-.62 1.85 1.85 0 0 0-.25-.53 1.22 1.22 0 0 0-.39-.37 1 1 0 0 0-.51-.14 1 1 0 0 0-.42.09 1 1 0 0 0-.34.24 1.6 1.6 0 0 0-.25.36 1.8 1.8 0 0 0-.16.45 2.34 2.34 0 0 0-.07.52zM36.33 222.58l.84-.31h.21V226h-.26v-3.4l-.71.24zM38.27 224.13a2.38 2.38 0 0 1 .11-.72 2 2 0 0 1 .3-.6 1.43 1.43 0 0 1 .48-.41 1.31 1.31 0 0 1 .63-.15 1.33 1.33 0 0 1 .63.15 1.4 1.4 0 0 1 .48.41 2 2 0 0 1 .3.6 2.48 2.48 0 0 1 0 1.45 2 2 0 0 1-.3.6 1.42 1.42 0 0 1-.48.42 1.36 1.36 0 0 1-1.26 0 1.41 1.41 0 0 1-.48-.41 2 2 0 0 1-.3-.6 2.44 2.44 0 0 1-.11-.74zm.28 0a2.13 2.13 0 0 0 .09.62 1.86 1.86 0 0 0 .25.53 1.2 1.2 0 0 0 .39.37 1 1 0 0 0 1 0 1.18 1.18 0 0 0 .39-.37 1.87 1.87 0 0 0 .24-.53 2.21 2.21 0 0 0 .09-.62 2.17 2.17 0 0 0-.09-.62 1.85 1.85 0 0 0-.25-.53 1.22 1.22 0 0 0-.39-.37 1 1 0 0 0-.51-.14 1 1 0 0 0-.42.09 1 1 0 0 0-.34.24 1.6 1.6 0 0 0-.25.36 1.8 1.8 0 0 0-.16.45 2.34 2.34 0 0 0-.04.52zM46.62 226v-.2l1.38-1.25a3.93 3.93 0 0 0 .63-.69 1 1 0 0 0 .18-.57.73.73 0 0 0-.24-.57.84.84 0 0 0-.58-.22 1 1 0 0 0-.58.17 1.93 1.93 0 0 0-.49.51l-.2-.14a2.87 2.87 0 0 1 .25-.33 1.61 1.61 0 0 1 .28-.24 1.11 1.11 0 0 1 .35-.16 1.62 1.62 0 0 1 .43-.05 1.08 1.08 0 0 1 .78.29 1 1 0 0 1 .31.72 1.19 1.19 0 0 1 0 .35 1.23 1.23 0 0 1-.17.33 2.9 2.9 0 0 1-.28.34l-.42.4-1.12 1h2.07v.31zM49.8 224.16a2.38 2.38 0 0 1 .11-.72 2 2 0 0 1 .3-.6 1.43 1.43 0 0 1 .48-.41 1.31 1.31 0 0 1 .63-.15 1.33 1.33 0 0 1 .63.15 1.4 1.4 0 0 1 .48.41 2 2 0 0 1 .3.6 2.48 2.48 0 0 1 0 1.45 2 2 0 0 1-.3.6 1.42 1.42 0 0 1-.48.42 1.36 1.36 0 0 1-1.26 0 1.41 1.41 0 0 1-.48-.41 2 2 0 0 1-.3-.6 2.44 2.44 0 0 1-.11-.74zm.28 0a2.13 2.13 0 0 0 .09.62 1.86 1.86 0 0 0 .25.53 1.2 1.2 0 0 0 .39.37 1 1 0 0 0 1 0 1.18 1.18 0 0 0 .39-.37 1.87 1.87 0 0 0 .24-.53 2.21 2.21 0 0 0 .09-.62 2.17 2.17 0 0 0-.09-.62 1.85 1.85 0 0 0-.25-.53 1.22 1.22 0 0 0-.39-.37 1 1 0 0 0-.51-.14 1 1 0 0 0-.42.09 1 1 0 0 0-.34.24 1.6 1.6 0 0 0-.25.36 1.8 1.8 0 0 0-.16.45 2.34 2.34 0 0 0-.04.52zM60.17 225.39l.21-.17a1.41 1.41 0 0 0 1.14.59.94.94 0 0 0 .64-.23.75.75 0 0 0 .26-.59.67.67 0 0 0-.32-.59 1.46 1.46 0 0 0-.82-.21h-.2L61 224l1.26-1.46h-1.9v-.25h2.29v.19l-1.24 1.42a2.36 2.36 0 0 1 .37.05 1.64 1.64 0 0 1 .35.12 1.25 1.25 0 0 1 .3.2.84.84 0 0 1 .2.29.94.94 0 0 1 .08.38 1 1 0 0 1-.17.56 1.09 1.09 0 0 1-.44.38 1.35 1.35 0 0 1-.59.13 1.65 1.65 0 0 1-.77-.18 1.71 1.71 0 0 1-.57-.44zM63.42 224.16a2.38 2.38 0 0 1 .11-.72 2 2 0 0 1 .3-.6 1.43 1.43 0 0 1 .48-.41 1.31 1.31 0 0 1 .63-.15 1.33 1.33 0 0 1 .63.15 1.4 1.4 0 0 1 .48.41 2 2 0 0 1 .3.6 2.48 2.48 0 0 1 0 1.45 2 2 0 0 1-.3.6 1.42 1.42 0 0 1-.48.42 1.36 1.36 0 0 1-1.26 0 1.41 1.41 0 0 1-.48-.41 2 2 0 0 1-.3-.6 2.44 2.44 0 0 1-.11-.74zm.28 0a2.13 2.13 0 0 0 .09.62 1.86 1.86 0 0 0 .25.53 1.2 1.2 0 0 0 .39.37 1 1 0 0 0 1 0 1.18 1.18 0 0 0 .39-.37 1.87 1.87 0 0 0 .24-.53 2.21 2.21 0 0 0 .09-.62 2.17 2.17 0 0 0-.09-.62 1.85 1.85 0 0 0-.25-.53 1.22 1.22 0 0 0-.39-.37 1 1 0 0 0-.51-.14 1 1 0 0 0-.42.09 1 1 0 0 0-.34.24 1.6 1.6 0 0 0-.25.36 1.8 1.8 0 0 0-.16.45 2.34 2.34 0 0 0-.04.52zM73.76 224.89l2.09-2.59h.25v2.56h.6v.24h-.6v.9h-.26v-.89h-2zm.33 0h1.75v-2.17zM77.32 224.16a2.38 2.38 0 0 1 .11-.72 2 2 0 0 1 .3-.6 1.43 1.43 0 0 1 .48-.41 1.31 1.31 0 0 1 .63-.15 1.33 1.33 0 0 1 .63.15 1.4 1.4 0 0 1 .48.41 2 2 0 0 1 .3.6 2.48 2.48 0 0 1 0 1.45 2 2 0 0 1-.3.6 1.42 1.42 0 0 1-.48.42 1.36 1.36 0 0 1-1.26 0 1.41 1.41 0 0 1-.48-.41 2 2 0 0 1-.3-.6 2.44 2.44 0 0 1-.11-.74zm.28 0a2.13 2.13 0 0 0 .09.62 1.86 1.86 0 0 0 .25.53 1.2 1.2 0 0 0 .39.37 1 1 0 0 0 1 0 1.18 1.18 0 0 0 .39-.37 1.87 1.87 0 0 0 .24-.53 2.21 2.21 0 0 0 .09-.62 2.17 2.17 0 0 0-.09-.62 1.85 1.85 0 0 0-.25-.53 1.22 1.22 0 0 0-.39-.37 1 1 0 0 0-.51-.14 1 1 0 0 0-.42.09 1 1 0 0 0-.34.24 1.6 1.6 0 0 0-.25.36 1.8 1.8 0 0 0-.16.45 2.34 2.34 0 0 0-.04.52zM87.7 225.46l.19-.19a1.57 1.57 0 0 0 1.1.54 1 1 0 0 0 .71-.27.88.88 0 0 0 .28-.66.79.79 0 0 0-.28-.62 1.07 1.07 0 0 0-.7-.26 1.72 1.72 0 0 0-.83.23l-.21-.14.11-1.78h2.03v.25h-1.82l-.09 1.44a1.84 1.84 0 0 1 .81-.2 1.32 1.32 0 0 1 .9.31 1 1 0 0 1 .36.8 1.1 1.1 0 0 1-.36.85 1.3 1.3 0 0 1-.92.33 1.54 1.54 0 0 1-.69-.16 2.18 2.18 0 0 1-.59-.47zM90.91 224.16a2.38 2.38 0 0 1 .11-.72 2 2 0 0 1 .3-.6 1.43 1.43 0 0 1 .48-.41 1.31 1.31 0 0 1 .63-.15 1.33 1.33 0 0 1 .63.15 1.4 1.4 0 0 1 .48.41 2 2 0 0 1 .3.6 2.48 2.48 0 0 1 0 1.45 2 2 0 0 1-.3.6 1.42 1.42 0 0 1-.48.42 1.36 1.36 0 0 1-1.26 0 1.41 1.41 0 0 1-.48-.41 2 2 0 0 1-.3-.6 2.44 2.44 0 0 1-.11-.74zm.28 0a2.13 2.13 0 0 0 .09.62 1.86 1.86 0 0 0 .25.53 1.2 1.2 0 0 0 .39.37 1 1 0 0 0 1 0 1.18 1.18 0 0 0 .39-.37 1.87 1.87 0 0 0 .24-.53 2.21 2.21 0 0 0 .09-.62 2.17 2.17 0 0 0-.09-.62 1.85 1.85 0 0 0-.25-.53 1.22 1.22 0 0 0-.39-.37 1 1 0 0 0-.51-.14 1 1 0 0 0-.42.09 1 1 0 0 0-.34.24 1.6 1.6 0 0 0-.25.36 1.8 1.8 0 0 0-.16.45 2.34 2.34 0 0 0-.04.52zM101.45 225.12a2.75 2.75 0 0 1-.11-.87 2.65 2.65 0 0 1 .18-1 1.67 1.67 0 0 1 .52-.71 1.24 1.24 0 0 1 .79-.27 1.36 1.36 0 0 1 .55.11 2.17 2.17 0 0 1 .51.32l-.17.21a1.79 1.79 0 0 0-.44-.29 1.13 1.13 0 0 0-.47-.1 1 1 0 0 0-.87.5 2.34 2.34 0 0 0-.33 1.31v.09a1.26 1.26 0 0 1 1.14-.68 1.4 1.4 0 0 1 .62.14 1.17 1.17 0 0 1 .46.4 1 1 0 0 1 .18.58 1.16 1.16 0 0 1-.17.62 1.18 1.18 0 0 1-.46.43 1.43 1.43 0 0 1-1.17.06 1.24 1.24 0 0 1-.41-.27 1.47 1.47 0 0 1-.35-.58zm.27-.24a.84.84 0 0 0 .3.66 1.07 1.07 0 0 0 .74.26 1 1 0 0 0 .71-.27.93.93 0 0 0 .27-.68.81.81 0 0 0-.28-.63 1 1 0 0 0-.71-.25 1.08 1.08 0 0 0-.41.08 1 1 0 0 0-.32.21 1 1 0 0 0-.21.29.8.8 0 0 0-.09.33zM104.69 224.16a2.38 2.38 0 0 1 .11-.72 2 2 0 0 1 .3-.6 1.43 1.43 0 0 1 .48-.41 1.31 1.31 0 0 1 .63-.15 1.33 1.33 0 0 1 .63.15 1.4 1.4 0 0 1 .48.41 2 2 0 0 1 .3.6 2.48 2.48 0 0 1 0 1.45 2 2 0 0 1-.3.6 1.42 1.42 0 0 1-.48.42 1.36 1.36 0 0 1-1.26 0 1.41 1.41 0 0 1-.48-.41 2 2 0 0 1-.3-.6 2.44 2.44 0 0 1-.11-.74zm.28 0a2.13 2.13 0 0 0 .09.62 1.86 1.86 0 0 0 .25.53 1.2 1.2 0 0 0 .39.37 1 1 0 0 0 1 0 1.18 1.18 0 0 0 .39-.37 1.87 1.87 0 0 0 .24-.53 2.21 2.21 0 0 0 .09-.62 2.17 2.17 0 0 0-.09-.62 1.85 1.85 0 0 0-.25-.53 1.22 1.22 0 0 0-.39-.37 1 1 0 0 0-.51-.14 1 1 0 0 0-.42.09 1 1 0 0 0-.34.24 1.6 1.6 0 0 0-.25.36 1.8 1.8 0 0 0-.16.45 2.34 2.34 0 0 0-.01.52zM115.14 222.58v-.25h2.43v.19L115.9 226h-.3l1.67-3.41zM118.19 224.16a2.38 2.38 0 0 1 .11-.72 2 2 0 0 1 .3-.6 1.43 1.43 0 0 1 .48-.41 1.31 1.31 0 0 1 .63-.15 1.33 1.33 0 0 1 .63.15 1.4 1.4 0 0 1 .48.41 2 2 0 0 1 .3.6 2.48 2.48 0 0 1 0 1.45 2 2 0 0 1-.3.6 1.42 1.42 0 0 1-.48.42 1.36 1.36 0 0 1-1.26 0 1.41 1.41 0 0 1-.48-.41 2 2 0 0 1-.3-.6 2.44 2.44 0 0 1-.11-.74zm.28 0a2.13 2.13 0 0 0 .09.62 1.86 1.86 0 0 0 .25.53 1.2 1.2 0 0 0 .39.37 1 1 0 0 0 1 0 1.18 1.18 0 0 0 .39-.37 1.87 1.87 0 0 0 .24-.53 2.21 2.21 0 0 0 .09-.62 2.17 2.17 0 0 0-.09-.62 1.85 1.85 0 0 0-.25-.53 1.22 1.22 0 0 0-.39-.37 1 1 0 0 0-.51-.14 1 1 0 0 0-.42.09 1 1 0 0 0-.34.24 1.6 1.6 0 0 0-.25.36 1.8 1.8 0 0 0-.16.45 2.34 2.34 0 0 0-.03.52zM128.57 225a.78.78 0 0 1 .22-.55 1.37 1.37 0 0 1 .58-.36 1.3 1.3 0 0 1-.49-.34.76.76 0 0 1-.19-.52.78.78 0 0 1 .18-.5 1.13 1.13 0 0 1 .46-.34 1.57 1.57 0 0 1 1.2 0 1.14 1.14 0 0 1 .46.34.79.79 0 0 1 .18.5.75.75 0 0 1-.19.52 1.31 1.31 0 0 1-.49.34 1.36 1.36 0 0 1 .59.36.79.79 0 0 1 .22.56.86.86 0 0 1-.18.54 1.15 1.15 0 0 1-.49.37 1.79 1.79 0 0 1-.69.13 1.57 1.57 0 0 1-1-.29.9.9 0 0 1-.37-.76zm.28 0a.67.67 0 0 0 .3.55 1.47 1.47 0 0 0 1.57 0 .68.68 0 0 0 .28-.55.67.67 0 0 0-.31-.56 1.29 1.29 0 0 0-.77-.22 1.27 1.27 0 0 0-.77.23.68.68 0 0 0-.3.55zm.13-1.78a.65.65 0 0 0 .28.54 1.18 1.18 0 0 0 1.35 0 .66.66 0 0 0 .28-.55.61.61 0 0 0-.27-.51 1.23 1.23 0 0 0-1.36 0 .62.62 0 0 0-.26.54zM131.92 224.16a2.38 2.38 0 0 1 .11-.72 2 2 0 0 1 .3-.6 1.43 1.43 0 0 1 .48-.41 1.31 1.31 0 0 1 .63-.15 1.33 1.33 0 0 1 .63.15 1.4 1.4 0 0 1 .48.41 2 2 0 0 1 .3.6 2.48 2.48 0 0 1 0 1.45 2 2 0 0 1-.3.6 1.42 1.42 0 0 1-.48.42 1.36 1.36 0 0 1-1.26 0 1.41 1.41 0 0 1-.48-.41 2 2 0 0 1-.3-.6 2.44 2.44 0 0 1-.11-.74zm.28 0a2.13 2.13 0 0 0 .09.62 1.86 1.86 0 0 0 .25.53 1.2 1.2 0 0 0 .39.37 1 1 0 0 0 1 0 1.18 1.18 0 0 0 .39-.37 1.87 1.87 0 0 0 .24-.53 2.21 2.21 0 0 0 .09-.62 2.17 2.17 0 0 0-.09-.62 1.85 1.85 0 0 0-.25-.53 1.22 1.22 0 0 0-.39-.37 1 1 0 0 0-.51-.14 1 1 0 0 0-.42.09 1 1 0 0 0-.34.24 1.6 1.6 0 0 0-.25.36 1.8 1.8 0 0 0-.16.45 2.34 2.34 0 0 0-.04.52zM142.35 223.49a1.18 1.18 0 0 1 .36-.87 1.37 1.37 0 0 1 1.86 0 1.45 1.45 0 0 1 .34.57 2.73 2.73 0 0 1 .12.87 2.56 2.56 0 0 1-.19 1 1.67 1.67 0 0 1-.54.71 1.25 1.25 0 0 1-.76.25 1.39 1.39 0 0 1-.58-.12 2.26 2.26 0 0 1-.52-.34l.17-.21a1.41 1.41 0 0 0 .94.42 1 1 0 0 0 .87-.49 2.19 2.19 0 0 0 .34-1.27v-.12a1.24 1.24 0 0 1-1.14.71 1.31 1.31 0 0 1-.91-.32 1 1 0 0 1-.36-.79zm.28 0a.82.82 0 0 0 .28.64 1 1 0 0 0 .71.25 1.11 1.11 0 0 0 .42-.08 1 1 0 0 0 .32-.21 1 1 0 0 0 .2-.3.88.88 0 0 0-.22-1 1.06 1.06 0 0 0-.74-.27 1 1 0 0 0-.4.08.88.88 0 0 0-.31.22 1 1 0 0 0-.19.31 1 1 0 0 0-.07.36zM145.7 224.16a2.38 2.38 0 0 1 .11-.72 2 2 0 0 1 .3-.6 1.43 1.43 0 0 1 .48-.41 1.31 1.31 0 0 1 .63-.15 1.33 1.33 0 0 1 .63.15 1.4 1.4 0 0 1 .48.41 2 2 0 0 1 .3.6 2.48 2.48 0 0 1 0 1.45 2 2 0 0 1-.3.6 1.42 1.42 0 0 1-.48.42 1.36 1.36 0 0 1-1.26 0 1.41 1.41 0 0 1-.48-.41 2 2 0 0 1-.3-.6 2.44 2.44 0 0 1-.11-.74zm.28 0a2.13 2.13 0 0 0 .09.62 1.86 1.86 0 0 0 .25.53 1.2 1.2 0 0 0 .39.37 1 1 0 0 0 1 0 1.18 1.18 0 0 0 .39-.37 1.87 1.87 0 0 0 .24-.53 2.21 2.21 0 0 0 .09-.62 2.17 2.17 0 0 0-.09-.62 1.85 1.85 0 0 0-.25-.53 1.22 1.22 0 0 0-.39-.37 1 1 0 0 0-.51-.14 1 1 0 0 0-.42.09 1 1 0 0 0-.34.24 1.6 1.6 0 0 0-.25.36 1.8 1.8 0 0 0-.16.45 2.34 2.34 0 0 0-.02.52zM154.6 222.61l.84-.31h.21v3.7h-.26v-3.4l-.71.24zM156.54 224.16a2.38 2.38 0 0 1 .11-.72 2 2 0 0 1 .3-.6 1.43 1.43 0 0 1 .48-.41 1.31 1.31 0 0 1 .63-.15 1.33 1.33 0 0 1 .63.15 1.4 1.4 0 0 1 .48.41 2 2 0 0 1 .3.6 2.48 2.48 0 0 1 0 1.45 2 2 0 0 1-.3.6 1.42 1.42 0 0 1-.48.42 1.36 1.36 0 0 1-1.26 0 1.41 1.41 0 0 1-.48-.41 2 2 0 0 1-.3-.6 2.44 2.44 0 0 1-.11-.74zm.28 0a2.13 2.13 0 0 0 .09.62 1.86 1.86 0 0 0 .25.53 1.2 1.2 0 0 0 .39.37 1 1 0 0 0 1 0 1.18 1.18 0 0 0 .39-.37 1.87 1.87 0 0 0 .24-.53 2.21 2.21 0 0 0 .09-.62 2.17 2.17 0 0 0-.09-.62 1.85 1.85 0 0 0-.18-.54 1.22 1.22 0 0 0-.39-.37 1 1 0 0 0-.51-.14 1 1 0 0 0-.42.09 1 1 0 0 0-.34.24 1.6 1.6 0 0 0-.25.36 1.8 1.8 0 0 0-.16.45 2.34 2.34 0 0 0-.11.53zM160.25 224.16a2.38 2.38 0 0 1 .11-.72 2 2 0 0 1 .3-.6 1.43 1.43 0 0 1 .48-.41 1.31 1.31 0 0 1 .63-.15 1.33 1.33 0 0 1 .63.15 1.4 1.4 0 0 1 .48.41 2 2 0 0 1 .3.6 2.48 2.48 0 0 1 0 1.45 2 2 0 0 1-.3.6 1.42 1.42 0 0 1-.48.42 1.36 1.36 0 0 1-1.26 0 1.41 1.41 0 0 1-.48-.41 2 2 0 0 1-.3-.6 2.44 2.44 0 0 1-.11-.74zm.28 0a2.13 2.13 0 0 0 .09.62 1.86 1.86 0 0 0 .25.53 1.2 1.2 0 0 0 .39.37 1 1 0 0 0 1 0 1.18 1.18 0 0 0 .39-.37 1.87 1.87 0 0 0 .24-.53 2.21 2.21 0 0 0 .09-.62 2.17 2.17 0 0 0-.09-.62 1.85 1.85 0 0 0-.25-.53 1.22 1.22 0 0 0-.39-.37 1 1 0 0 0-.51-.14 1 1 0 0 0-.42.09 1 1 0 0 0-.34.24 1.6 1.6 0 0 0-.25.36 1.8 1.8 0 0 0-.16.45 2.34 2.34 0 0 0-.03.52zM167.81 222.61l.84-.31h.21v3.7h-.26v-3.4l-.71.24zM169.57 222.61l.84-.31h.21v3.7h-.26v-3.4l-.71.24zM171.5 224.16a2.38 2.38 0 0 1 .11-.72 2 2 0 0 1 .3-.6 1.43 1.43 0 0 1 .48-.41 1.31 1.31 0 0 1 .63-.15 1.33 1.33 0 0 1 .63.15 1.4 1.4 0 0 1 .48.41 2 2 0 0 1 .3.6 2.48 2.48 0 0 1 0 1.45 2 2 0 0 1-.3.6 1.42 1.42 0 0 1-.48.42 1.36 1.36 0 0 1-1.26 0 1.41 1.41 0 0 1-.48-.41 2 2 0 0 1-.3-.6 2.44 2.44 0 0 1-.11-.74zm.28 0a2.13 2.13 0 0 0 .09.62 1.86 1.86 0 0 0 .25.53 1.2 1.2 0 0 0 .39.37 1 1 0 0 0 1 0 1.18 1.18 0 0 0 .39-.37 1.87 1.87 0 0 0 .24-.53 2.21 2.21 0 0 0 .09-.62 2.17 2.17 0 0 0-.09-.62 1.85 1.85 0 0 0-.25-.53 1.22 1.22 0 0 0-.39-.37 1 1 0 0 0-.51-.14 1 1 0 0 0-.42.09 1 1 0 0 0-.34.24 1.6 1.6 0 0 0-.25.36 1.8 1.8 0 0 0-.16.45 2.34 2.34 0 0 0-.03.52zM179.07 222.61l.84-.31h.21v3.7h-.26v-3.4l-.71.24zM180.91 226v-.2l1.37-1.24a3.93 3.93 0 0 0 .63-.69 1 1 0 0 0 .18-.57.73.73 0 0 0-.24-.57.84.84 0 0 0-.58-.22 1 1 0 0 0-.58.17 1.93 1.93 0 0 0-.49.51l-.2-.14a2.87 2.87 0 0 1 .25-.33 1.61 1.61 0 0 1 .28-.24 1.11 1.11 0 0 1 .35-.16 1.62 1.62 0 0 1 .43-.05 1.08 1.08 0 0 1 .78.29 1 1 0 0 1 .31.72 1.19 1.19 0 0 1 0 .35 1.23 1.23 0 0 1-.17.33 2.9 2.9 0 0 1-.28.34l-.42.4-1.12 1h2.07v.3zM184.09 224.16a2.38 2.38 0 0 1 .11-.72 2 2 0 0 1 .3-.6 1.43 1.43 0 0 1 .48-.41 1.31 1.31 0 0 1 .63-.15 1.33 1.33 0 0 1 .63.15 1.4 1.4 0 0 1 .48.41 2 2 0 0 1 .3.6 2.48 2.48 0 0 1 0 1.45 2 2 0 0 1-.3.6 1.42 1.42 0 0 1-.48.42 1.36 1.36 0 0 1-1.26 0 1.41 1.41 0 0 1-.48-.41 2 2 0 0 1-.3-.6 2.44 2.44 0 0 1-.11-.74zm.28 0a2.13 2.13 0 0 0 .09.62 1.86 1.86 0 0 0 .25.53 1.2 1.2 0 0 0 .39.37 1 1 0 0 0 1 0 1.18 1.18 0 0 0 .39-.37 1.87 1.87 0 0 0 .24-.53 2.21 2.21 0 0 0 .09-.62 2.17 2.17 0 0 0-.09-.62 1.85 1.85 0 0 0-.25-.53 1.22 1.22 0 0 0-.39-.37 1 1 0 0 0-.51-.14 1 1 0 0 0-.42.09 1 1 0 0 0-.34.24 1.6 1.6 0 0 0-.25.36 1.8 1.8 0 0 0-.16.45 2.34 2.34 0 0 0-.04.52zM191.65 222.61l.84-.31h.21v3.7h-.26v-3.4l-.71.24zM193.52 225.39l.21-.17a1.41 1.41 0 0 0 1.14.59.94.94 0 0 0 .64-.23.75.75 0 0 0 .26-.59.67.67 0 0 0-.32-.59 1.46 1.46 0 0 0-.82-.21h-.2l-.07-.15 1.26-1.46h-1.92v-.25h2.3v.19l-1.24 1.42a2.36 2.36 0 0 1 .37.05 1.64 1.64 0 0 1 .35.12 1.25 1.25 0 0 1 .3.2.84.84 0 0 1 .2.29.94.94 0 0 1 .08.38 1 1 0 0 1-.17.56 1.09 1.09 0 0 1-.44.38 1.35 1.35 0 0 1-.59.13 1.65 1.65 0 0 1-.77-.18 1.71 1.71 0 0 1-.57-.48zM196.77 224.16a2.38 2.38 0 0 1 .11-.72 2 2 0 0 1 .3-.6 1.43 1.43 0 0 1 .48-.41 1.31 1.31 0 0 1 .63-.15 1.33 1.33 0 0 1 .63.15 1.4 1.4 0 0 1 .48.41 2 2 0 0 1 .3.6 2.48 2.48 0 0 1 0 1.45 2 2 0 0 1-.3.6 1.42 1.42 0 0 1-.48.42 1.36 1.36 0 0 1-1.26 0 1.41 1.41 0 0 1-.48-.41 2 2 0 0 1-.3-.6 2.44 2.44 0 0 1-.11-.74zm.28 0a2.13 2.13 0 0 0 .09.62 1.86 1.86 0 0 0 .25.53 1.2 1.2 0 0 0 .39.37 1 1 0 0 0 1 0 1.18 1.18 0 0 0 .39-.37 1.87 1.87 0 0 0 .24-.53 2.21 2.21 0 0 0 .09-.62 2.17 2.17 0 0 0-.09-.62 1.85 1.85 0 0 0-.25-.53 1.22 1.22 0 0 0-.39-.37 1 1 0 0 0-.51-.14 1 1 0 0 0-.42.09 1 1 0 0 0-.34.24 1.6 1.6 0 0 0-.25.36 1.8 1.8 0 0 0-.16.45 2.34 2.34 0 0 0-.04.52zM204.33 222.61l.84-.31h.21v3.7h-.26v-3.4l-.71.24zM206.18 224.89l2.09-2.59h.25v2.56h.6v.24h-.6v.9h-.26v-.89h-2zm.33 0h1.75v-2.17zM209.74 224.16a2.38 2.38 0 0 1 .11-.72 2 2 0 0 1 .3-.6 1.43 1.43 0 0 1 .48-.41 1.31 1.31 0 0 1 .63-.15 1.33 1.33 0 0 1 .63.15 1.4 1.4 0 0 1 .48.41 2 2 0 0 1 .3.6 2.48 2.48 0 0 1 0 1.45 2 2 0 0 1-.3.6 1.42 1.42 0 0 1-.48.42 1.36 1.36 0 0 1-1.26 0 1.41 1.41 0 0 1-.48-.41 2 2 0 0 1-.3-.6 2.44 2.44 0 0 1-.11-.74zm.28 0a2.13 2.13 0 0 0 .09.62 1.86 1.86 0 0 0 .25.53 1.2 1.2 0 0 0 .39.37 1 1 0 0 0 1 0 1.18 1.18 0 0 0 .39-.37 1.87 1.87 0 0 0 .24-.53 2.21 2.21 0 0 0 .09-.62 2.17 2.17 0 0 0-.09-.62 1.85 1.85 0 0 0-.25-.53 1.22 1.22 0 0 0-.39-.37 1 1 0 0 0-.51-.14 1 1 0 0 0-.42.09 1 1 0 0 0-.34.24 1.6 1.6 0 0 0-.25.36 1.8 1.8 0 0 0-.16.45 2.34 2.34 0 0 0-.06.52zM217.3 222.61l.84-.31h.21v3.7h-.26v-3.4l-.71.24zM219.2 225.46l.19-.19a1.57 1.57 0 0 0 1.1.54 1 1 0 0 0 .71-.27.88.88 0 0 0 .28-.66.79.79 0 0 0-.28-.62 1.07 1.07 0 0 0-.72-.24 1.72 1.72 0 0 0-.83.23l-.21-.14.11-1.78h2.06v.25h-1.82l-.09 1.38a1.84 1.84 0 0 1 .81-.2 1.32 1.32 0 0 1 .9.31 1 1 0 0 1 .36.8 1.1 1.1 0 0 1-.36.85 1.3 1.3 0 0 1-.92.33 1.54 1.54 0 0 1-.69-.16 2.18 2.18 0 0 1-.6-.43zM222.4 224.16a2.38 2.38 0 0 1 .11-.72 2 2 0 0 1 .3-.6 1.43 1.43 0 0 1 .48-.41 1.31 1.31 0 0 1 .63-.15 1.33 1.33 0 0 1 .63.15 1.4 1.4 0 0 1 .48.41 2 2 0 0 1 .3.6 2.48 2.48 0 0 1 0 1.45 2 2 0 0 1-.3.6 1.42 1.42 0 0 1-.48.42 1.36 1.36 0 0 1-1.26 0 1.41 1.41 0 0 1-.48-.41 2 2 0 0 1-.3-.6 2.44 2.44 0 0 1-.11-.74zm.28 0a2.13 2.13 0 0 0 .09.62 1.86 1.86 0 0 0 .25.53 1.2 1.2 0 0 0 .39.37 1 1 0 0 0 1 0 1.18 1.18 0 0 0 .39-.37 1.87 1.87 0 0 0 .24-.53 2.21 2.21 0 0 0 .09-.62 2.17 2.17 0 0 0-.09-.62 1.85 1.85 0 0 0-.25-.53 1.22 1.22 0 0 0-.39-.37 1 1 0 0 0-.51-.14 1 1 0 0 0-.42.09 1 1 0 0 0-.34.24 1.6 1.6 0 0 0-.25.36 1.8 1.8 0 0 0-.16.45 2.34 2.34 0 0 0-.03.52zM230 222.61l.84-.31h.16v3.7h-.26v-3.4l-.71.24zM232 225.12a2.75 2.75 0 0 1-.11-.87 2.65 2.65 0 0 1 .18-1 1.67 1.67 0 0 1 .52-.71 1.24 1.24 0 0 1 .79-.27 1.36 1.36 0 0 1 .55.11 2.17 2.17 0 0 1 .51.32l-.17.21a1.79 1.79 0 0 0-.44-.29 1.13 1.13 0 0 0-.47-.1 1 1 0 0 0-.87.5 2.34 2.34 0 0 0-.33 1.31v.09a1.26 1.26 0 0 1 1.14-.68 1.4 1.4 0 0 1 .62.14 1.17 1.17 0 0 1 .46.4 1 1 0 0 1 .18.58 1.16 1.16 0 0 1-.17.62 1.18 1.18 0 0 1-.46.43 1.43 1.43 0 0 1-1.17.06 1.24 1.24 0 0 1-.41-.27 1.47 1.47 0 0 1-.35-.58zm.27-.24a.84.84 0 0 0 .3.66 1.07 1.07 0 0 0 .74.26 1 1 0 0 0 .71-.27.93.93 0 0 0 .27-.68.81.81 0 0 0-.28-.63 1 1 0 0 0-.71-.25 1.08 1.08 0 0 0-.41.08 1 1 0 0 0-.32.21 1 1 0 0 0-.21.29.8.8 0 0 0-.08.33zM235.25 224.16a2.38 2.38 0 0 1 .11-.72 2 2 0 0 1 .3-.6 1.43 1.43 0 0 1 .48-.41 1.31 1.31 0 0 1 .63-.15 1.33 1.33 0 0 1 .63.15 1.4 1.4 0 0 1 .48.41 2 2 0 0 1 .3.6 2.49 2.49 0 0 1 0 1.45 2 2 0 0 1-.3.6 1.41 1.41 0 0 1-.48.42 1.36 1.36 0 0 1-1.26 0 1.41 1.41 0 0 1-.48-.41 2 2 0 0 1-.3-.6 2.44 2.44 0 0 1-.11-.74zm.28 0a2.13 2.13 0 0 0 .09.62 1.86 1.86 0 0 0 .25.53 1.2 1.2 0 0 0 .39.37 1 1 0 0 0 1 0 1.18 1.18 0 0 0 .39-.37 1.87 1.87 0 0 0 .24-.53 2.25 2.25 0 0 0 .09-.62 2.17 2.17 0 0 0-.09-.62 1.85 1.85 0 0 0-.25-.53 1.21 1.21 0 0 0-.39-.37 1 1 0 0 0-.51-.14 1 1 0 0 0-.42.09 1 1 0 0 0-.34.24 1.6 1.6 0 0 0-.25.36 1.8 1.8 0 0 0-.16.45 2.34 2.34 0 0 0-.03.52zM242.82 222.61l.84-.31h.21v3.7h-.26v-3.4l-.71.24zM244.77 222.58v-.25h2.43v.19l-1.67 3.48h-.3l1.67-3.41zM247.82 224.16a2.38 2.38 0 0 1 .11-.72 2 2 0 0 1 .3-.6 1.42 1.42 0 0 1 .48-.41 1.31 1.31 0 0 1 .63-.15 1.33 1.33 0 0 1 .63.15 1.41 1.41 0 0 1 .48.41 2 2 0 0 1 .3.6 2.43 2.43 0 0 1 .11.73 2.39 2.39 0 0 1-.11.72 2 2 0 0 1-.3.6 1.41 1.41 0 0 1-.48.42 1.36 1.36 0 0 1-1.26 0 1.4 1.4 0 0 1-.48-.41 2 2 0 0 1-.3-.6 2.4 2.4 0 0 1-.11-.74zm.28 0a2.15 2.15 0 0 0 .09.62 1.91 1.91 0 0 0 .25.53 1.22 1.22 0 0 0 .39.37 1 1 0 0 0 .51.14 1 1 0 0 0 .51-.14 1.19 1.19 0 0 0 .39-.37 1.9 1.9 0 0 0 .24-.53 2.21 2.21 0 0 0 .09-.62 2.13 2.13 0 0 0-.09-.62 1.83 1.83 0 0 0-.25-.53 1.21 1.21 0 0 0-.39-.37 1 1 0 0 0-.51-.14 1 1 0 0 0-.42.09 1 1 0 0 0-.34.24 1.59 1.59 0 0 0-.25.36 1.84 1.84 0 0 0-.16.45 2.3 2.3 0 0 0-.05.52zM255.39 222.61l.84-.31h.21v3.7h-.26v-3.4l-.71.24zM257.27 225a.77.77 0 0 1 .22-.55 1.36 1.36 0 0 1 .58-.36 1.3 1.3 0 0 1-.49-.34.76.76 0 0 1-.19-.52.78.78 0 0 1 .18-.5 1.13 1.13 0 0 1 .46-.34 1.57 1.57 0 0 1 1.2 0 1.13 1.13 0 0 1 .46.34.79.79 0 0 1 .18.5.75.75 0 0 1-.19.52 1.32 1.32 0 0 1-.49.34 1.36 1.36 0 0 1 .59.36.79.79 0 0 1 .22.56.86.86 0 0 1-.18.54 1.16 1.16 0 0 1-.49.37 1.78 1.78 0 0 1-.69.13 1.57 1.57 0 0 1-1-.29.9.9 0 0 1-.37-.76zm.28 0a.67.67 0 0 0 .29.55 1.26 1.26 0 0 0 .78.22 1.24 1.24 0 0 0 .78-.23.68.68 0 0 0 .29-.56.67.67 0 0 0-.31-.56 1.41 1.41 0 0 0-1.53 0 .67.67 0 0 0-.3.58zm.13-1.78a.66.66 0 0 0 .28.54 1.18 1.18 0 0 0 1.35 0 .67.67 0 0 0 .28-.55.61.61 0 0 0-.28-.51 1.23 1.23 0 0 0-1.36 0 .62.62 0 0 0-.27.54zM260.62 224.16a2.38 2.38 0 0 1 .11-.72 2 2 0 0 1 .3-.6 1.42 1.42 0 0 1 .48-.41 1.31 1.31 0 0 1 .63-.15 1.33 1.33 0 0 1 .63.15 1.41 1.41 0 0 1 .48.41 2 2 0 0 1 .3.6 2.43 2.43 0 0 1 .11.73 2.39 2.39 0 0 1-.11.72 2 2 0 0 1-.3.6 1.41 1.41 0 0 1-.48.42 1.36 1.36 0 0 1-1.26 0 1.4 1.4 0 0 1-.48-.41 2 2 0 0 1-.3-.6 2.4 2.4 0 0 1-.11-.74zm.28 0a2.15 2.15 0 0 0 .09.62 1.91 1.91 0 0 0 .25.53 1.22 1.22 0 0 0 .39.37 1 1 0 0 0 .51.14 1 1 0 0 0 .51-.14 1.19 1.19 0 0 0 .39-.37 1.9 1.9 0 0 0 .24-.53 2.21 2.21 0 0 0 .09-.62 2.13 2.13 0 0 0-.09-.62 1.83 1.83 0 0 0-.28-.54 1.21 1.21 0 0 0-.39-.37 1 1 0 0 0-.51-.14 1 1 0 0 0-.42.09 1 1 0 0 0-.34.24 1.59 1.59 0 0 0-.25.36 1.84 1.84 0 0 0-.16.45 2.3 2.3 0 0 0-.03.53zM268.17 222.61l.84-.31h.21v3.7H269v-3.4l-.71.24zM270.11 223.49a1.18 1.18 0 0 1 .36-.87 1.37 1.37 0 0 1 1.86 0 1.45 1.45 0 0 1 .34.57 2.7 2.7 0 0 1 .12.87 2.57 2.57 0 0 1-.19 1 1.67 1.67 0 0 1-.54.71 1.25 1.25 0 0 1-.76.25 1.39 1.39 0 0 1-.58-.12 2.26 2.26 0 0 1-.52-.34l.17-.21a1.41 1.41 0 0 0 .93.42 1 1 0 0 0 .87-.49 2.19 2.19 0 0 0 .34-1.27v-.12a1.24 1.24 0 0 1-1.14.71 1.31 1.31 0 0 1-.91-.32 1 1 0 0 1-.35-.79zm.28 0a.82.82 0 0 0 .28.64 1 1 0 0 0 .71.25 1.1 1.1 0 0 0 .42-.08.94.94 0 0 0 .32-.21 1 1 0 0 0 .2-.3.88.88 0 0 0-.22-1 1.06 1.06 0 0 0-.74-.27 1 1 0 0 0-.41.08.88.88 0 0 0-.31.22 1 1 0 0 0-.26.69zM273.47 224.16a2.38 2.38 0 0 1 .11-.72 2 2 0 0 1 .3-.6 1.42 1.42 0 0 1 .48-.41 1.31 1.31 0 0 1 .63-.15 1.33 1.33 0 0 1 .63.15 1.41 1.41 0 0 1 .48.41 2 2 0 0 1 .3.6 2.43 2.43 0 0 1 .11.73 2.39 2.39 0 0 1-.11.72 2 2 0 0 1-.3.6 1.41 1.41 0 0 1-.48.42 1.36 1.36 0 0 1-1.26 0 1.4 1.4 0 0 1-.48-.41 2 2 0 0 1-.3-.6 2.4 2.4 0 0 1-.11-.74zm.28 0a2.15 2.15 0 0 0 .09.62 1.91 1.91 0 0 0 .25.53 1.22 1.22 0 0 0 .39.37 1 1 0 0 0 .51.14 1 1 0 0 0 .51-.14 1.19 1.19 0 0 0 .39-.37 1.9 1.9 0 0 0 .24-.53 2.21 2.21 0 0 0 .09-.62 2.13 2.13 0 0 0-.09-.62 1.83 1.83 0 0 0-.25-.53 1.21 1.21 0 0 0-.39-.37 1 1 0 0 0-.51-.14 1 1 0 0 0-.42.09 1 1 0 0 0-.34.24 1.59 1.59 0 0 0-.25.36 1.84 1.84 0 0 0-.16.45 2.3 2.3 0 0 0-.06.52zM281.12 226v-.2l1.37-1.24a3.9 3.9 0 0 0 .63-.69 1 1 0 0 0 .18-.57.73.73 0 0 0-.24-.57.84.84 0 0 0-.58-.22 1 1 0 0 0-.58.17 1.93 1.93 0 0 0-.49.51l-.2-.14a2.87 2.87 0 0 1 .25-.33 1.65 1.65 0 0 1 .28-.24 1.11 1.11 0 0 1 .35-.16 1.62 1.62 0 0 1 .43-.05 1.08 1.08 0 0 1 .78.29 1 1 0 0 1 .31.72 1.19 1.19 0 0 1 0 .35 1.23 1.23 0 0 1-.17.33 2.9 2.9 0 0 1-.28.34l-.42.4-1.12 1h2.07v.3zM284.3 224.16a2.38 2.38 0 0 1 .11-.72 2 2 0 0 1 .3-.6 1.42 1.42 0 0 1 .48-.41 1.31 1.31 0 0 1 .63-.15 1.33 1.33 0 0 1 .63.15 1.41 1.41 0 0 1 .48.41 2 2 0 0 1 .3.6 2.43 2.43 0 0 1 .11.73 2.39 2.39 0 0 1-.11.72 2 2 0 0 1-.3.6 1.41 1.41 0 0 1-.48.42 1.36 1.36 0 0 1-1.26 0 1.4 1.4 0 0 1-.48-.41 2 2 0 0 1-.3-.6 2.4 2.4 0 0 1-.11-.74zm.28 0a2.15 2.15 0 0 0 .09.62 1.91 1.91 0 0 0 .25.53 1.22 1.22 0 0 0 .39.37 1 1 0 0 0 .51.14 1 1 0 0 0 .51-.14 1.19 1.19 0 0 0 .39-.37 1.9 1.9 0 0 0 .24-.53 2.21 2.21 0 0 0 .09-.62 2.13 2.13 0 0 0-.09-.62 1.83 1.83 0 0 0-.25-.53 1.21 1.21 0 0 0-.39-.37 1 1 0 0 0-.51-.14 1 1 0 0 0-.42.09 1 1 0 0 0-.34.24 1.59 1.59 0 0 0-.25.36 1.84 1.84 0 0 0-.16.45 2.3 2.3 0 0 0-.06.52zM288 224.16a2.38 2.38 0 0 1 .11-.72 2 2 0 0 1 .3-.6 1.42 1.42 0 0 1 .48-.41 1.31 1.31 0 0 1 .63-.15 1.33 1.33 0 0 1 .63.15 1.41 1.41 0 0 1 .48.41 2 2 0 0 1 .3.6 2.43 2.43 0 0 1 .11.73 2.39 2.39 0 0 1-.11.72 2 2 0 0 1-.3.6 1.41 1.41 0 0 1-.48.42 1.36 1.36 0 0 1-1.26 0 1.4 1.4 0 0 1-.48-.41 2 2 0 0 1-.3-.6 2.4 2.4 0 0 1-.11-.74zm.28 0a2.15 2.15 0 0 0 .09.62 1.91 1.91 0 0 0 .25.53 1.22 1.22 0 0 0 .39.37 1 1 0 0 0 .51.14 1 1 0 0 0 .51-.14 1.19 1.19 0 0 0 .39-.37 1.9 1.9 0 0 0 .24-.53 2.21 2.21 0 0 0 .09-.62 2.13 2.13 0 0 0-.09-.62 1.83 1.83 0 0 0-.25-.53 1.21 1.21 0 0 0-.39-.37 1 1 0 0 0-.51-.14 1 1 0 0 0-.42.09 1 1 0 0 0-.34.24 1.59 1.59 0 0 0-.25.36 1.84 1.84 0 0 0-.16.45 2.3 2.3 0 0 0-.04.52zM295.66 226v-.2l1.37-1.24a3.9 3.9 0 0 0 .63-.69 1 1 0 0 0 .18-.57.73.73 0 0 0-.24-.57.84.84 0 0 0-.58-.22 1 1 0 0 0-.58.17 1.93 1.93 0 0 0-.49.51l-.2-.14a2.87 2.87 0 0 1 .25-.33 1.65 1.65 0 0 1 .28-.24 1.11 1.11 0 0 1 .35-.16 1.62 1.62 0 0 1 .43-.05 1.08 1.08 0 0 1 .78.29 1 1 0 0 1 .31.72 1.19 1.19 0 0 1 0 .35 1.23 1.23 0 0 1-.17.33 2.9 2.9 0 0 1-.28.34l-.42.4-1.12 1h2.07v.3zM298.66 222.61l.84-.31h.21v3.7h-.26v-3.4l-.71.24zM300.6 224.16a2.38 2.38 0 0 1 .11-.72 2 2 0 0 1 .3-.6 1.42 1.42 0 0 1 .48-.41 1.31 1.31 0 0 1 .63-.15 1.33 1.33 0 0 1 .63.15 1.41 1.41 0 0 1 .48.41 2 2 0 0 1 .3.6 2.43 2.43 0 0 1 .11.73 2.39 2.39 0 0 1-.11.72 2 2 0 0 1-.3.6 1.41 1.41 0 0 1-.48.42 1.36 1.36 0 0 1-1.26 0 1.4 1.4 0 0 1-.48-.41 2 2 0 0 1-.3-.6 2.4 2.4 0 0 1-.11-.74zm.28 0a2.15 2.15 0 0 0 .09.62 1.91 1.91 0 0 0 .25.53 1.22 1.22 0 0 0 .39.37 1 1 0 0 0 .51.14 1 1 0 0 0 .51-.14 1.19 1.19 0 0 0 .39-.37 1.9 1.9 0 0 0 .24-.53 2.21 2.21 0 0 0 .09-.62 2.13 2.13 0 0 0-.09-.62 1.83 1.83 0 0 0-.26-.54 1.21 1.21 0 0 0-.39-.37 1 1 0 0 0-.51-.14 1 1 0 0 0-.42.09 1 1 0 0 0-.34.24 1.59 1.59 0 0 0-.25.36 1.84 1.84 0 0 0-.16.45 2.3 2.3 0 0 0-.05.53zM308.25 226v-.2l1.37-1.24a3.9 3.9 0 0 0 .63-.69 1 1 0 0 0 .18-.57.73.73 0 0 0-.24-.57.84.84 0 0 0-.58-.22 1 1 0 0 0-.58.17 1.93 1.93 0 0 0-.49.51l-.2-.14a2.87 2.87 0 0 1 .25-.33 1.65 1.65 0 0 1 .28-.24 1.11 1.11 0 0 1 .35-.16 1.62 1.62 0 0 1 .43-.05 1.08 1.08 0 0 1 .78.29 1 1 0 0 1 .31.72 1.19 1.19 0 0 1 0 .35 1.23 1.23 0 0 1-.17.33 2.9 2.9 0 0 1-.28.34l-.42.4-1.12 1h2.07v.3zM311.33 226v-.2l1.37-1.24a3.9 3.9 0 0 0 .63-.69 1 1 0 0 0 .18-.57.73.73 0 0 0-.24-.57.84.84 0 0 0-.58-.22 1 1 0 0 0-.58.17 1.93 1.93 0 0 0-.49.51l-.2-.14a2.87 2.87 0 0 1 .25-.33 1.65 1.65 0 0 1 .28-.24 1.11 1.11 0 0 1 .35-.16 1.62 1.62 0 0 1 .43-.05 1.08 1.08 0 0 1 .78.29 1 1 0 0 1 .31.72 1.19 1.19 0 0 1 0 .35 1.23 1.23 0 0 1-.17.33 2.9 2.9 0 0 1-.28.34l-.42.4-1.12 1h2.07v.3zM314.51 224.16a2.38 2.38 0 0 1 .11-.72 2 2 0 0 1 .3-.6 1.42 1.42 0 0 1 .48-.41 1.31 1.31 0 0 1 .63-.15 1.33 1.33 0 0 1 .63.15 1.41 1.41 0 0 1 .48.41 2 2 0 0 1 .3.6 2.43 2.43 0 0 1 .11.73 2.39 2.39 0 0 1-.11.72 2 2 0 0 1-.3.6 1.41 1.41 0 0 1-.48.42 1.36 1.36 0 0 1-1.26 0 1.4 1.4 0 0 1-.48-.41 2 2 0 0 1-.3-.6 2.4 2.4 0 0 1-.11-.74zm.28 0a2.15 2.15 0 0 0 .09.62 1.91 1.91 0 0 0 .25.53 1.22 1.22 0 0 0 .39.37 1 1 0 0 0 .51.14 1 1 0 0 0 .51-.14 1.19 1.19 0 0 0 .39-.37 1.9 1.9 0 0 0 .24-.53 2.21 2.21 0 0 0 .09-.62 2.13 2.13 0 0 0-.09-.62 1.83 1.83 0 0 0-.25-.53 1.21 1.21 0 0 0-.39-.37 1 1 0 0 0-.51-.14 1 1 0 0 0-.42.09 1 1 0 0 0-.34.24 1.59 1.59 0 0 0-.25.36 1.84 1.84 0 0 0-.16.45 2.3 2.3 0 0 0-.05.52zM322.16 226v-.2l1.37-1.24a3.9 3.9 0 0 0 .63-.69 1 1 0 0 0 .18-.57.73.73 0 0 0-.24-.57.84.84 0 0 0-.58-.22 1 1 0 0 0-.58.17 1.93 1.93 0 0 0-.49.51l-.2-.14a2.87 2.87 0 0 1 .25-.33 1.65 1.65 0 0 1 .28-.24 1.11 1.11 0 0 1 .35-.16 1.62 1.62 0 0 1 .43-.05 1.08 1.08 0 0 1 .78.29 1 1 0 0 1 .31.72 1.19 1.19 0 0 1 0 .35 1.23 1.23 0 0 1-.17.33 2.9 2.9 0 0 1-.28.34l-.42.4-1.12 1h2.07v.3zM325.28 225.39l.21-.17a1.41 1.41 0 0 0 1.14.59.94.94 0 0 0 .64-.23.75.75 0 0 0 .26-.59.67.67 0 0 0-.32-.59 1.45 1.45 0 0 0-.82-.21h-.2l-.07-.15 1.26-1.46h-1.92v-.25h2.29v.19l-1.24 1.42a2.36 2.36 0 0 1 .37.05 1.6 1.6 0 0 1 .35.12 1.24 1.24 0 0 1 .3.2.84.84 0 0 1 .2.29 1 1 0 0 1 .08.38 1 1 0 0 1-.17.56 1.09 1.09 0 0 1-.44.38 1.35 1.35 0 0 1-.59.13 1.65 1.65 0 0 1-.77-.18 1.73 1.73 0 0 1-.56-.48zM328.53 224.16a2.38 2.38 0 0 1 .11-.72 2 2 0 0 1 .3-.6 1.42 1.42 0 0 1 .48-.41 1.31 1.31 0 0 1 .63-.15 1.33 1.33 0 0 1 .63.15 1.41 1.41 0 0 1 .48.41 2 2 0 0 1 .3.6 2.43 2.43 0 0 1 .11.73 2.39 2.39 0 0 1-.11.72 2 2 0 0 1-.3.6 1.41 1.41 0 0 1-.48.42 1.36 1.36 0 0 1-1.26 0 1.4 1.4 0 0 1-.48-.41 2 2 0 0 1-.3-.6 2.4 2.4 0 0 1-.11-.74zm.28 0a2.15 2.15 0 0 0 .09.62 1.91 1.91 0 0 0 .25.53 1.22 1.22 0 0 0 .39.37 1 1 0 0 0 .51.14 1 1 0 0 0 .51-.14 1.19 1.19 0 0 0 .39-.37 1.9 1.9 0 0 0 .24-.53 2.21 2.21 0 0 0 .09-.62 2.13 2.13 0 0 0-.09-.62 1.83 1.83 0 0 0-.25-.53 1.21 1.21 0 0 0-.39-.37 1 1 0 0 0-.51-.14 1 1 0 0 0-.42.09 1 1 0 0 0-.34.24 1.59 1.59 0 0 0-.25.36 1.84 1.84 0 0 0-.16.45 2.3 2.3 0 0 0-.06.52zM336.18 226v-.2l1.37-1.24a3.9 3.9 0 0 0 .63-.69 1 1 0 0 0 .18-.57.73.73 0 0 0-.24-.57.84.84 0 0 0-.58-.22 1 1 0 0 0-.58.17 1.93 1.93 0 0 0-.49.51l-.2-.14a2.87 2.87 0 0 1 .25-.33 1.65 1.65 0 0 1 .28-.24 1.11 1.11 0 0 1 .35-.16 1.62 1.62 0 0 1 .43-.05 1.08 1.08 0 0 1 .78.29 1 1 0 0 1 .31.72 1.19 1.19 0 0 1 0 .35 1.23 1.23 0 0 1-.17.33 2.9 2.9 0 0 1-.28.34l-.42.4-1.12 1h2.07v.3zM339.27 224.89l2.09-2.59h.25v2.56h.59v.24h-.59v.9h-.26v-.89h-2zm.33 0h1.75v-2.17zM342.83 224.16a2.38 2.38 0 0 1 .11-.72 2 2 0 0 1 .3-.6 1.42 1.42 0 0 1 .48-.41 1.31 1.31 0 0 1 .63-.15 1.33 1.33 0 0 1 .63.15 1.41 1.41 0 0 1 .48.41 2 2 0 0 1 .3.6 2.43 2.43 0 0 1 .11.73 2.39 2.39 0 0 1-.11.72 2 2 0 0 1-.3.6 1.41 1.41 0 0 1-.48.42 1.36 1.36 0 0 1-1.26 0 1.4 1.4 0 0 1-.48-.41 2 2 0 0 1-.3-.6 2.4 2.4 0 0 1-.11-.74zm.28 0a2.15 2.15 0 0 0 .09.62 1.91 1.91 0 0 0 .25.53 1.22 1.22 0 0 0 .39.37 1 1 0 0 0 .51.14 1 1 0 0 0 .51-.14 1.19 1.19 0 0 0 .39-.37 1.9 1.9 0 0 0 .24-.53 2.21 2.21 0 0 0 .09-.62 2.13 2.13 0 0 0-.09-.62 1.83 1.83 0 0 0-.25-.53 1.21 1.21 0 0 0-.39-.37 1 1 0 0 0-.51-.14 1 1 0 0 0-.42.09 1 1 0 0 0-.34.24 1.59 1.59 0 0 0-.25.36 1.84 1.84 0 0 0-.16.45 2.3 2.3 0 0 0-.05.52zM350.49 226v-.2l1.37-1.24a3.9 3.9 0 0 0 .63-.69 1 1 0 0 0 .18-.57.73.73 0 0 0-.24-.57.84.84 0 0 0-.58-.22 1 1 0 0 0-.58.17 1.93 1.93 0 0 0-.49.51l-.2-.14a2.87 2.87 0 0 1 .25-.33 1.65 1.65 0 0 1 .28-.24 1.11 1.11 0 0 1 .35-.16 1.62 1.62 0 0 1 .43-.05 1.08 1.08 0 0 1 .78.29 1 1 0 0 1 .31.72 1.19 1.19 0 0 1 0 .35 1.23 1.23 0 0 1-.17.33 2.9 2.9 0 0 1-.28.34l-.42.4-1.12 1H353v.3zM353.63 225.46l.19-.19a1.57 1.57 0 0 0 1.1.54 1 1 0 0 0 .71-.27.88.88 0 0 0 .28-.66.79.79 0 0 0-.28-.62 1.07 1.07 0 0 0-.72-.24 1.72 1.72 0 0 0-.83.23l-.21-.14.11-1.78H356v.25h-1.8l-.09 1.38a1.84 1.84 0 0 1 .81-.2 1.33 1.33 0 0 1 .9.31 1 1 0 0 1 .36.8 1.1 1.1 0 0 1-.36.85 1.3 1.3 0 0 1-.92.33 1.54 1.54 0 0 1-.69-.16 2.17 2.17 0 0 1-.58-.43zM356.83 224.16a2.38 2.38 0 0 1 .11-.72 2 2 0 0 1 .3-.6 1.42 1.42 0 0 1 .48-.41 1.31 1.31 0 0 1 .63-.15 1.33 1.33 0 0 1 .63.15 1.41 1.41 0 0 1 .48.41 2 2 0 0 1 .3.6 2.43 2.43 0 0 1 .11.73 2.39 2.39 0 0 1-.11.72 2 2 0 0 1-.3.6 1.41 1.41 0 0 1-.48.42 1.36 1.36 0 0 1-1.26 0 1.4 1.4 0 0 1-.48-.41 2 2 0 0 1-.3-.6 2.4 2.4 0 0 1-.11-.74zm.28 0a2.15 2.15 0 0 0 .09.62 1.91 1.91 0 0 0 .25.53 1.22 1.22 0 0 0 .39.37 1 1 0 0 0 .51.14 1 1 0 0 0 .51-.14 1.19 1.19 0 0 0 .39-.37 1.9 1.9 0 0 0 .24-.53 2.21 2.21 0 0 0 .09-.62 2.13 2.13 0 0 0-.09-.62 1.83 1.83 0 0 0-.25-.53 1.21 1.21 0 0 0-.39-.37 1 1 0 0 0-.51-.14 1 1 0 0 0-.42.09 1 1 0 0 0-.34.24 1.59 1.59 0 0 0-.25.36 1.84 1.84 0 0 0-.16.45 2.3 2.3 0 0 0-.06.52zM364.48 226v-.2l1.37-1.24a3.9 3.9 0 0 0 .63-.69 1 1 0 0 0 .18-.57.73.73 0 0 0-.24-.57.84.84 0 0 0-.58-.22 1 1 0 0 0-.58.17 1.93 1.93 0 0 0-.49.51l-.2-.14a2.87 2.87 0 0 1 .25-.33 1.65 1.65 0 0 1 .28-.24 1.11 1.11 0 0 1 .35-.16 1.62 1.62 0 0 1 .43-.05 1.08 1.08 0 0 1 .78.29 1 1 0 0 1 .31.72 1.19 1.19 0 0 1 0 .35 1.23 1.23 0 0 1-.17.33 2.9 2.9 0 0 1-.28.34l-.42.4-1.12 1H367v.3zM367.77 225.12a2.73 2.73 0 0 1-.11-.87 2.65 2.65 0 0 1 .18-1 1.68 1.68 0 0 1 .52-.71 1.25 1.25 0 0 1 .79-.27 1.36 1.36 0 0 1 .55.11 2.17 2.17 0 0 1 .51.32l-.17.21a1.8 1.8 0 0 0-.44-.29 1.12 1.12 0 0 0-.47-.1 1 1 0 0 0-.87.5 2.34 2.34 0 0 0-.33 1.31v.09a1.27 1.27 0 0 1 1.14-.68 1.4 1.4 0 0 1 .62.14 1.16 1.16 0 0 1 .46.4 1 1 0 0 1 .18.58 1.16 1.16 0 0 1-.17.62 1.17 1.17 0 0 1-.46.43 1.43 1.43 0 0 1-1.17.06 1.23 1.23 0 0 1-.41-.27 1.46 1.46 0 0 1-.35-.58zm.27-.24a.84.84 0 0 0 .3.66 1.07 1.07 0 0 0 .74.26 1 1 0 0 0 .71-.27.93.93 0 0 0 .27-.68.81.81 0 0 0-.28-.63 1 1 0 0 0-.71-.25 1.08 1.08 0 0 0-.41.08 1 1 0 0 0-.32.21 1 1 0 0 0-.21.29.81.81 0 0 0-.13.33zM371 224.16a2.38 2.38 0 0 1 .11-.72 2 2 0 0 1 .3-.6 1.42 1.42 0 0 1 .48-.41 1.31 1.31 0 0 1 .63-.15 1.33 1.33 0 0 1 .63.15 1.41 1.41 0 0 1 .48.41 2 2 0 0 1 .3.6 2.43 2.43 0 0 1 .11.73 2.39 2.39 0 0 1-.11.72 2 2 0 0 1-.3.6 1.41 1.41 0 0 1-.48.42 1.36 1.36 0 0 1-1.26 0 1.4 1.4 0 0 1-.48-.41 2 2 0 0 1-.3-.6 2.4 2.4 0 0 1-.11-.74zm.28 0a2.15 2.15 0 0 0 .09.62 1.91 1.91 0 0 0 .25.53 1.22 1.22 0 0 0 .39.37 1 1 0 0 0 .51.14 1 1 0 0 0 .51-.14 1.19 1.19 0 0 0 .39-.37 1.9 1.9 0 0 0 .24-.53 2.21 2.21 0 0 0 .09-.62 2.13 2.13 0 0 0-.09-.62 1.83 1.83 0 0 0-.25-.53 1.21 1.21 0 0 0-.39-.37 1 1 0 0 0-.51-.14 1 1 0 0 0-.42.09 1 1 0 0 0-.34.24 1.59 1.59 0 0 0-.25.36 1.84 1.84 0 0 0-.16.45 2.3 2.3 0 0 0-.04.52zM378.67 226v-.2l1.37-1.24a3.9 3.9 0 0 0 .63-.69 1 1 0 0 0 .18-.57.73.73 0 0 0-.24-.57.84.84 0 0 0-.58-.22 1 1 0 0 0-.58.17 1.93 1.93 0 0 0-.49.51l-.2-.14a2.87 2.87 0 0 1 .25-.33 1.65 1.65 0 0 1 .28-.24 1.11 1.11 0 0 1 .35-.16 1.62 1.62 0 0 1 .43-.05 1.08 1.08 0 0 1 .78.29 1 1 0 0 1 .31.72 1.19 1.19 0 0 1 0 .35 1.23 1.23 0 0 1-.17.33 2.9 2.9 0 0 1-.28.34l-.42.4-1.12 1h2.07v.3zM381.86 222.58v-.25h2.43v.19l-1.67 3.48h-.3l1.67-3.41zM384.92 224.16a2.38 2.38 0 0 1 .11-.72 2 2 0 0 1 .3-.6 1.42 1.42 0 0 1 .48-.41 1.31 1.31 0 0 1 .63-.15 1.33 1.33 0 0 1 .63.15 1.41 1.41 0 0 1 .48.41 2 2 0 0 1 .3.6 2.43 2.43 0 0 1 .11.73 2.39 2.39 0 0 1-.11.72 2 2 0 0 1-.3.6 1.41 1.41 0 0 1-.48.42 1.36 1.36 0 0 1-1.26 0 1.4 1.4 0 0 1-.48-.41 2 2 0 0 1-.3-.6 2.4 2.4 0 0 1-.11-.74zm.28 0a2.15 2.15 0 0 0 .09.62 1.91 1.91 0 0 0 .25.53 1.22 1.22 0 0 0 .39.37 1 1 0 0 0 .51.14 1 1 0 0 0 .51-.14 1.19 1.19 0 0 0 .39-.37 1.9 1.9 0 0 0 .24-.53 2.21 2.21 0 0 0 .09-.62 2.13 2.13 0 0 0-.09-.62 1.83 1.83 0 0 0-.25-.53 1.21 1.21 0 0 0-.39-.37 1 1 0 0 0-.51-.14 1 1 0 0 0-.42.09 1 1 0 0 0-.34.24 1.59 1.59 0 0 0-.25.36 1.84 1.84 0 0 0-.16.45 2.3 2.3 0 0 0-.06.52zM392.57 226v-.2l1.37-1.24a3.9 3.9 0 0 0 .63-.69 1 1 0 0 0 .18-.57.73.73 0 0 0-.24-.57.84.84 0 0 0-.58-.22 1 1 0 0 0-.58.17 1.93 1.93 0 0 0-.49.51l-.2-.14a2.87 2.87 0 0 1 .25-.33 1.65 1.65 0 0 1 .28-.24 1.11 1.11 0 0 1 .35-.16 1.62 1.62 0 0 1 .43-.05 1.08 1.08 0 0 1 .78.29 1 1 0 0 1 .31.72 1.19 1.19 0 0 1 0 .35 1.23 1.23 0 0 1-.17.33 2.9 2.9 0 0 1-.28.34l-.42.4-1.12 1h2.07v.3zM395.7 225a.77.77 0 0 1 .22-.55 1.36 1.36 0 0 1 .58-.36 1.3 1.3 0 0 1-.49-.34.76.76 0 0 1-.19-.52.78.78 0 0 1 .18-.5 1.13 1.13 0 0 1 .46-.34 1.57 1.57 0 0 1 1.2 0 1.13 1.13 0 0 1 .46.34.79.79 0 0 1 .18.5.75.75 0 0 1-.19.52 1.32 1.32 0 0 1-.49.34 1.36 1.36 0 0 1 .59.36.79.79 0 0 1 .22.56.86.86 0 0 1-.18.54 1.16 1.16 0 0 1-.49.37 1.78 1.78 0 0 1-.69.13 1.57 1.57 0 0 1-1-.29.9.9 0 0 1-.37-.76zm.28 0a.67.67 0 0 0 .29.55 1.26 1.26 0 0 0 .78.22 1.24 1.24 0 0 0 .78-.23.68.68 0 0 0 .29-.56.67.67 0 0 0-.31-.56 1.41 1.41 0 0 0-1.53 0 .67.67 0 0 0-.28.58zm.13-1.78a.66.66 0 0 0 .28.54 1.18 1.18 0 0 0 1.35 0 .67.67 0 0 0 .28-.55.61.61 0 0 0-.28-.51 1.23 1.23 0 0 0-1.36 0 .62.62 0 0 0-.28.54zM399 224.16a2.38 2.38 0 0 1 .11-.72 2 2 0 0 1 .3-.6 1.42 1.42 0 0 1 .48-.41 1.31 1.31 0 0 1 .63-.15 1.33 1.33 0 0 1 .63.15 1.41 1.41 0 0 1 .48.41 2 2 0 0 1 .3.6 2.43 2.43 0 0 1 .11.73 2.39 2.39 0 0 1-.11.72 2 2 0 0 1-.3.6 1.41 1.41 0 0 1-.48.42 1.36 1.36 0 0 1-1.26 0 1.4 1.4 0 0 1-.48-.41 2 2 0 0 1-.3-.6 2.4 2.4 0 0 1-.11-.74zm.28 0a2.15 2.15 0 0 0 .09.62 1.91 1.91 0 0 0 .25.53 1.22 1.22 0 0 0 .39.37 1 1 0 0 0 .51.14 1 1 0 0 0 .51-.14 1.19 1.19 0 0 0 .39-.37 1.9 1.9 0 0 0 .24-.53 2.21 2.21 0 0 0 .09-.62 2.13 2.13 0 0 0-.09-.62 1.83 1.83 0 0 0-.25-.53 1.21 1.21 0 0 0-.39-.37 1 1 0 0 0-.51-.14 1 1 0 0 0-.42.09 1 1 0 0 0-.34.24 1.59 1.59 0 0 0-.25.36 1.84 1.84 0 0 0-.16.45 2.3 2.3 0 0 0-.01.52zM406.69 226v-.2l1.37-1.24a3.9 3.9 0 0 0 .63-.69 1 1 0 0 0 .18-.57.73.73 0 0 0-.24-.57.84.84 0 0 0-.58-.22 1 1 0 0 0-.58.17 1.93 1.93 0 0 0-.49.51l-.2-.14a2.87 2.87 0 0 1 .25-.33 1.65 1.65 0 0 1 .28-.24 1.11 1.11 0 0 1 .35-.16 1.62 1.62 0 0 1 .43-.05 1.08 1.08 0 0 1 .78.29 1 1 0 0 1 .31.72 1.19 1.19 0 0 1 0 .35 1.23 1.23 0 0 1-.17.33 2.9 2.9 0 0 1-.28.34l-.42.4-1.12 1h2.07v.3zM409.88 223.49a1.18 1.18 0 0 1 .36-.87 1.37 1.37 0 0 1 1.86 0 1.45 1.45 0 0 1 .34.57 2.7 2.7 0 0 1 .12.87 2.57 2.57 0 0 1-.19 1 1.67 1.67 0 0 1-.54.71 1.25 1.25 0 0 1-.76.25 1.39 1.39 0 0 1-.58-.12 2.26 2.26 0 0 1-.52-.34l.17-.21a1.41 1.41 0 0 0 .93.42 1 1 0 0 0 .87-.49 2.19 2.19 0 0 0 .34-1.27v-.12a1.24 1.24 0 0 1-1.14.71 1.31 1.31 0 0 1-.91-.32 1 1 0 0 1-.35-.79zm.28 0a.82.82 0 0 0 .28.64 1 1 0 0 0 .71.25 1.1 1.1 0 0 0 .42-.08.94.94 0 0 0 .32-.21 1 1 0 0 0 .2-.3.88.88 0 0 0-.22-1 1.06 1.06 0 0 0-.74-.27 1 1 0 0 0-.41.08.88.88 0 0 0-.31.22 1 1 0 0 0-.26.69zM413.23 224.16a2.38 2.38 0 0 1 .11-.72 2 2 0 0 1 .3-.6 1.42 1.42 0 0 1 .48-.41 1.31 1.31 0 0 1 .63-.15 1.33 1.33 0 0 1 .63.15 1.41 1.41 0 0 1 .48.41 2 2 0 0 1 .3.6 2.43 2.43 0 0 1 .11.73 2.39 2.39 0 0 1-.11.72 2 2 0 0 1-.3.6 1.41 1.41 0 0 1-.48.42 1.36 1.36 0 0 1-1.26 0 1.4 1.4 0 0 1-.48-.41 2 2 0 0 1-.3-.6 2.4 2.4 0 0 1-.11-.74zm.28 0a2.15 2.15 0 0 0 .09.62 1.91 1.91 0 0 0 .25.53 1.22 1.22 0 0 0 .39.37 1 1 0 0 0 .51.14 1 1 0 0 0 .51-.14 1.19 1.19 0 0 0 .39-.37 1.9 1.9 0 0 0 .24-.53 2.21 2.21 0 0 0 .09-.62 2.13 2.13 0 0 0-.09-.62 1.83 1.83 0 0 0-.25-.53 1.21 1.21 0 0 0-.39-.37 1 1 0 0 0-.51-.14 1 1 0 0 0-.42.09 1 1 0 0 0-.34.24 1.59 1.59 0 0 0-.25.36 1.84 1.84 0 0 0-.16.45 2.3 2.3 0 0 0-.06.52zM420.92 225.39l.21-.17a1.41 1.41 0 0 0 1.14.59.94.94 0 0 0 .64-.23.75.75 0 0 0 .26-.59.67.67 0 0 0-.32-.59 1.45 1.45 0 0 0-.82-.21h-.2l-.07-.15 1.26-1.46h-1.92v-.25h2.29v.19l-1.24 1.42a2.36 2.36 0 0 1 .37.05 1.6 1.6 0 0 1 .35.12 1.24 1.24 0 0 1 .3.2.84.84 0 0 1 .2.29 1 1 0 0 1 .08.38 1 1 0 0 1-.17.56 1.09 1.09 0 0 1-.44.38 1.35 1.35 0 0 1-.59.13 1.65 1.65 0 0 1-.77-.18 1.73 1.73 0 0 1-.56-.48zM424.16 224.16a2.38 2.38 0 0 1 .11-.72 2 2 0 0 1 .3-.6 1.42 1.42 0 0 1 .48-.41 1.31 1.31 0 0 1 .63-.15 1.33 1.33 0 0 1 .63.15 1.41 1.41 0 0 1 .48.41 2 2 0 0 1 .3.6 2.43 2.43 0 0 1 .11.73 2.39 2.39 0 0 1-.11.72 2 2 0 0 1-.3.6 1.41 1.41 0 0 1-.48.42 1.36 1.36 0 0 1-1.26 0 1.4 1.4 0 0 1-.48-.41 2 2 0 0 1-.3-.6 2.4 2.4 0 0 1-.11-.74zm.28 0a2.15 2.15 0 0 0 .09.62 1.91 1.91 0 0 0 .25.53 1.22 1.22 0 0 0 .39.37 1 1 0 0 0 .51.14 1 1 0 0 0 .51-.14 1.19 1.19 0 0 0 .39-.37 1.9 1.9 0 0 0 .24-.53 2.21 2.21 0 0 0 .09-.62 2.13 2.13 0 0 0-.09-.62 1.83 1.83 0 0 0-.25-.53 1.21 1.21 0 0 0-.39-.37 1 1 0 0 0-.51-.14 1 1 0 0 0-.42.09 1 1 0 0 0-.34.24 1.59 1.59 0 0 0-.25.36 1.84 1.84 0 0 0-.16.45 2.3 2.3 0 0 0-.05.52zM427.88 224.16a2.38 2.38 0 0 1 .11-.72 2 2 0 0 1 .3-.6 1.42 1.42 0 0 1 .48-.41 1.31 1.31 0 0 1 .63-.15 1.33 1.33 0 0 1 .63.15 1.41 1.41 0 0 1 .48.41 2 2 0 0 1 .3.6 2.43 2.43 0 0 1 .11.73 2.39 2.39 0 0 1-.11.72 2 2 0 0 1-.3.6 1.41 1.41 0 0 1-.48.42 1.36 1.36 0 0 1-1.26 0 1.4 1.4 0 0 1-.48-.41 2 2 0 0 1-.3-.6 2.4 2.4 0 0 1-.11-.74zm.28 0a2.15 2.15 0 0 0 .09.62 1.91 1.91 0 0 0 .25.53 1.22 1.22 0 0 0 .39.37 1 1 0 0 0 .51.14 1 1 0 0 0 .51-.14 1.19 1.19 0 0 0 .39-.37 1.9 1.9 0 0 0 .24-.53 2.21 2.21 0 0 0 .09-.62 2.13 2.13 0 0 0-.09-.62 1.83 1.83 0 0 0-.25-.53 1.21 1.21 0 0 0-.39-.37 1 1 0 0 0-.51-.14 1 1 0 0 0-.42.09 1 1 0 0 0-.34.24 1.59 1.59 0 0 0-.25.36 1.84 1.84 0 0 0-.16.45 2.3 2.3 0 0 0-.06.52zM435.57 225.39l.21-.17a1.41 1.41 0 0 0 1.14.59.94.94 0 0 0 .64-.23.75.75 0 0 0 .26-.59.67.67 0 0 0-.32-.59 1.45 1.45 0 0 0-.82-.21h-.2l-.07-.15 1.26-1.46h-1.92v-.25H438v.19l-1.24 1.42a2.36 2.36 0 0 1 .37.05 1.6 1.6 0 0 1 .35.12 1.24 1.24 0 0 1 .3.2.84.84 0 0 1 .2.29 1 1 0 0 1 .08.38 1 1 0 0 1-.17.56 1.09 1.09 0 0 1-.44.38 1.35 1.35 0 0 1-.59.13 1.65 1.65 0 0 1-.77-.18 1.73 1.73 0 0 1-.52-.48zM438.63 222.61l.84-.31h.21v3.7h-.26v-3.4l-.71.24zM440.56 224.16a2.38 2.38 0 0 1 .11-.72 2 2 0 0 1 .3-.6 1.42 1.42 0 0 1 .48-.41 1.31 1.31 0 0 1 .63-.15 1.33 1.33 0 0 1 .63.15 1.41 1.41 0 0 1 .48.41 2 2 0 0 1 .3.6 2.43 2.43 0 0 1 .11.73 2.39 2.39 0 0 1-.11.72 2 2 0 0 1-.3.6 1.41 1.41 0 0 1-.48.42 1.36 1.36 0 0 1-1.26 0 1.4 1.4 0 0 1-.48-.41 2 2 0 0 1-.3-.6 2.4 2.4 0 0 1-.11-.74zm.28 0a2.15 2.15 0 0 0 .09.62 1.91 1.91 0 0 0 .25.53 1.22 1.22 0 0 0 .39.37 1 1 0 0 0 .51.14 1 1 0 0 0 .51-.14 1.19 1.19 0 0 0 .39-.37 1.9 1.9 0 0 0 .24-.53 2.21 2.21 0 0 0 .09-.62 2.13 2.13 0 0 0-.09-.62 1.83 1.83 0 0 0-.22-.54 1.21 1.21 0 0 0-.39-.37 1 1 0 0 0-.51-.14 1 1 0 0 0-.42.09 1 1 0 0 0-.34.24 1.59 1.59 0 0 0-.25.36 1.84 1.84 0 0 0-.16.45 2.3 2.3 0 0 0-.08.53zM448.26 225.39l.21-.17a1.41 1.41 0 0 0 1.14.59.94.94 0 0 0 .64-.23.75.75 0 0 0 .26-.59.67.67 0 0 0-.32-.59 1.45 1.45 0 0 0-.82-.21h-.2l-.07-.15 1.26-1.46h-1.92v-.25h2.29v.19l-1.24 1.42a2.36 2.36 0 0 1 .37.05 1.6 1.6 0 0 1 .35.12 1.24 1.24 0 0 1 .3.2.84.84 0 0 1 .2.29 1 1 0 0 1 .08.38 1 1 0 0 1-.17.56 1.09 1.09 0 0 1-.44.38 1.35 1.35 0 0 1-.59.13 1.65 1.65 0 0 1-.77-.18 1.73 1.73 0 0 1-.56-.48zM451.41 226v-.2l1.37-1.24a3.9 3.9 0 0 0 .63-.69 1 1 0 0 0 .18-.57.73.73 0 0 0-.24-.57.84.84 0 0 0-.58-.22 1 1 0 0 0-.58.17 1.93 1.93 0 0 0-.49.51l-.2-.14a2.87 2.87 0 0 1 .25-.33 1.65 1.65 0 0 1 .28-.24 1.11 1.11 0 0 1 .35-.16 1.62 1.62 0 0 1 .43-.05 1.08 1.08 0 0 1 .78.29 1 1 0 0 1 .31.72 1.19 1.19 0 0 1 0 .35 1.23 1.23 0 0 1-.17.33 2.9 2.9 0 0 1-.28.34l-.42.4-1.12 1h2.07v.3zM454.59 224.16a2.38 2.38 0 0 1 .11-.72 2 2 0 0 1 .3-.6 1.42 1.42 0 0 1 .48-.41 1.31 1.31 0 0 1 .63-.15 1.33 1.33 0 0 1 .63.15 1.41 1.41 0 0 1 .48.41 2 2 0 0 1 .3.6 2.43 2.43 0 0 1 .11.73 2.39 2.39 0 0 1-.11.72 2 2 0 0 1-.3.6 1.41 1.41 0 0 1-.48.42 1.36 1.36 0 0 1-1.26 0 1.4 1.4 0 0 1-.48-.41 2 2 0 0 1-.3-.6 2.4 2.4 0 0 1-.11-.74zm.28 0a2.15 2.15 0 0 0 .09.62 1.91 1.91 0 0 0 .25.53 1.22 1.22 0 0 0 .39.37 1 1 0 0 0 .51.14 1 1 0 0 0 .51-.14 1.19 1.19 0 0 0 .39-.37 1.9 1.9 0 0 0 .24-.53 2.21 2.21 0 0 0 .09-.62 2.13 2.13 0 0 0-.09-.62 1.83 1.83 0 0 0-.25-.54 1.21 1.21 0 0 0-.39-.37 1 1 0 0 0-.51-.14 1 1 0 0 0-.42.09 1 1 0 0 0-.34.24 1.59 1.59 0 0 0-.25.36 1.84 1.84 0 0 0-.16.45 2.3 2.3 0 0 0-.06.53zM462.27 225.39l.21-.17a1.41 1.41 0 0 0 1.14.59.94.94 0 0 0 .64-.23.75.75 0 0 0 .26-.59.67.67 0 0 0-.32-.59 1.45 1.45 0 0 0-.82-.21h-.2l-.07-.15 1.26-1.46h-1.92v-.25h2.29v.19l-1.24 1.42a2.36 2.36 0 0 1 .37.05 1.6 1.6 0 0 1 .35.12 1.24 1.24 0 0 1 .3.2.84.84 0 0 1 .2.29 1 1 0 0 1 .08.38 1 1 0 0 1-.17.56 1.09 1.09 0 0 1-.44.38 1.35 1.35 0 0 1-.59.13 1.65 1.65 0 0 1-.77-.18 1.73 1.73 0 0 1-.56-.48zM465.46 225.39l.21-.17a1.41 1.41 0 0 0 1.14.59.94.94 0 0 0 .64-.23.75.75 0 0 0 .26-.59.67.67 0 0 0-.32-.59 1.45 1.45 0 0 0-.82-.21h-.2l-.07-.15 1.26-1.46h-1.92v-.25h2.29v.19l-1.24 1.42a2.36 2.36 0 0 1 .37.05 1.6 1.6 0 0 1 .35.12 1.24 1.24 0 0 1 .3.2.84.84 0 0 1 .2.29 1 1 0 0 1 .08.38 1 1 0 0 1-.17.56 1.09 1.09 0 0 1-.44.38 1.35 1.35 0 0 1-.59.13 1.65 1.65 0 0 1-.77-.18 1.73 1.73 0 0 1-.56-.48zM468.71 224.16a2.38 2.38 0 0 1 .11-.72 2 2 0 0 1 .3-.6 1.42 1.42 0 0 1 .48-.41 1.31 1.31 0 0 1 .63-.15 1.33 1.33 0 0 1 .63.15 1.41 1.41 0 0 1 .48.41 2 2 0 0 1 .3.6 2.43 2.43 0 0 1 .11.73 2.39 2.39 0 0 1-.11.72 2 2 0 0 1-.3.6 1.41 1.41 0 0 1-.48.42 1.36 1.36 0 0 1-1.26 0 1.4 1.4 0 0 1-.48-.41 2 2 0 0 1-.3-.6 2.4 2.4 0 0 1-.11-.74zm.28 0a2.15 2.15 0 0 0 .09.62 1.91 1.91 0 0 0 .25.53 1.22 1.22 0 0 0 .39.37 1 1 0 0 0 .51.14 1 1 0 0 0 .51-.14 1.19 1.19 0 0 0 .39-.37 1.9 1.9 0 0 0 .24-.53 2.21 2.21 0 0 0 .09-.62 2.13 2.13 0 0 0-.09-.62 1.83 1.83 0 0 0-.25-.53 1.21 1.21 0 0 0-.39-.37 1 1 0 0 0-.51-.14 1 1 0 0 0-.42.09 1 1 0 0 0-.34.24 1.59 1.59 0 0 0-.25.36 1.84 1.84 0 0 0-.16.45 2.3 2.3 0 0 0-.05.52zM476.4 225.39l.21-.17a1.41 1.41 0 0 0 1.14.59.94.94 0 0 0 .64-.23.75.75 0 0 0 .26-.59.67.67 0 0 0-.32-.59 1.45 1.45 0 0 0-.82-.21h-.2l-.07-.15 1.26-1.46h-1.92v-.25h2.29v.19l-1.24 1.42a2.36 2.36 0 0 1 .37.05 1.6 1.6 0 0 1 .35.12 1.24 1.24 0 0 1 .3.2.84.84 0 0 1 .2.29 1 1 0 0 1 .08.38 1 1 0 0 1-.17.56 1.09 1.09 0 0 1-.44.38 1.35 1.35 0 0 1-.59.13 1.65 1.65 0 0 1-.77-.18 1.73 1.73 0 0 1-.56-.48zM479.56 224.89l2.09-2.59h.25v2.56h.59v.24h-.59v.9h-.26v-.89h-2zm.33 0h1.75v-2.17zM483.12 224.16a2.38 2.38 0 0 1 .11-.72 2 2 0 0 1 .3-.6 1.42 1.42 0 0 1 .48-.41 1.31 1.31 0 0 1 .63-.15 1.33 1.33 0 0 1 .63.15 1.41 1.41 0 0 1 .48.41 2 2 0 0 1 .3.6 2.43 2.43 0 0 1 .11.73 2.39 2.39 0 0 1-.11.72 2 2 0 0 1-.3.6 1.41 1.41 0 0 1-.48.42 1.36 1.36 0 0 1-1.26 0 1.4 1.4 0 0 1-.48-.41 2 2 0 0 1-.3-.6 2.4 2.4 0 0 1-.11-.74zm.28 0a2.15 2.15 0 0 0 .09.62 1.91 1.91 0 0 0 .25.53 1.22 1.22 0 0 0 .39.37 1 1 0 0 0 .51.14 1 1 0 0 0 .51-.14 1.19 1.19 0 0 0 .39-.37 1.9 1.9 0 0 0 .24-.53 2.21 2.21 0 0 0 .09-.62 2.13 2.13 0 0 0-.09-.62 1.83 1.83 0 0 0-.25-.53 1.21 1.21 0 0 0-.39-.37 1 1 0 0 0-.51-.14 1 1 0 0 0-.42.09 1 1 0 0 0-.34.24 1.59 1.59 0 0 0-.25.36 1.84 1.84 0 0 0-.16.45 2.3 2.3 0 0 0-.06.52z" transform="translate(-.6)"/><path class="cls-3" d="M179.58 3.49h305.3v3.85h-305.3z"/><path class="cls-4" d="M484.88 7.34v.12H179.46v-4.1H485v4.1h-.12v-.12h-.12V3.61H179.71v3.6h305.17v.13h-.12.12"/><path class="cls-4" d="M228.77 3.49h205.47v3.85H228.77z"/><path class="cls-3" d="M147.11 14.35h241.24v3.85H147.11z"/><path class="cls-4" d="M388.35 18.2v.13H146.98v-4.1h241.49v4.1h-.12v-.13h-.13v-3.72H147.23v3.6h241.12v.12h-.13.13"/><path class="cls-4" d="M185.97 14.35h162.36v3.85H185.97z"/><path class="cls-3" d="M129.79 25.22H335.9v3.85H129.79z"/><path class="cls-4" d="M335.9 29.07v.12H129.66v-4.1h206.36v4.1h-.12v-.12h-.13v-3.73H129.91v3.6H335.9v.13h-.13.13"/><path class="cls-4" d="M162.99 25.22h138.72v3.85H162.99z"/><path class="cls-3" d="M103.23 36.08h155.86v3.85H103.23z"/><path class="cls-4" d="M259.1 39.93v.12H103.11v-4.09h156.11v4.09h-.12v-.12h-.13V36.2H103.36v3.61H259.1v.12h-.13.13"/><path class="cls-4" d="M128.34 36.08h104.9v3.85h-104.9z"/><path class="cls-3" d="M87.23 46.95h123.75v3.85H87.23z"/><path class="cls-4" d="M210.98 50.79v.13H87.11v-4.1H211.1v4.1h-.12v-.13h-.12v-3.72H87.36v3.6h123.62v.12h-.12.12"/><path class="cls-4" d="M107.17 46.95h83.29v3.85h-83.29z"/><path class="cls-3" d="M72.68 57.81h95.12v3.85H72.68z"/><path class="cls-4" d="M167.8 61.66v.12H72.56v-4.09h95.36v4.09h-.12v-.12h-.13v-3.73H72.8v3.6h95v.13h-.13.13"/><path class="cls-4" d="M88 57.81h64.02v3.85H88z"/><path class="cls-3" d="M63.42 68.67h74.67v3.85H63.42z"/><path class="cls-4" d="M138.08 72.52v.13H63.29v-4.1h74.92v4.1h-.13v-.13h-.12V68.8H63.54v3.6h74.54v.12h-.12.12"/><path class="cls-4" d="M75.44 68.67h50.25v3.85H75.44z"/><path class="cls-3" d="M60.53 79.54h67.69v3.85H60.53z"/><path class="cls-4" d="M128.22 83.39v.12H60.41v-4.1h67.93v4.1h-.12v-.12h-.12v-3.73H60.65v3.6h67.57v.13h-.12.12"/><path class="cls-4" d="M71.43 79.54h45.56v3.85H71.43z"/><path class="cls-3" d="M50.04 90.4h47.99v3.85H50.04z"/><path class="cls-4" d="M98.03 94.25v.12H49.91v-4.09h48.24v4.09h-.12v-.12h-.13v-3.72H50.16v3.6h47.87v.12h-.13.13"/><path class="cls-4" d="M57.77 90.4h32.3v3.85h-32.3z"/><path class="cls-3" d="M45.33 101.27h40.79v3.85H45.33z"/><path class="cls-4" d="M86.12 105.11v.13H45.2v-4.1h41.04v4.1h-.12v-.13H86v-3.72H45.45v3.6h40.67v.12H86h.12"/><path class="cls-4" d="M51.9 101.27h27.46v3.85H51.9z"/><path class="cls-3" d="M42.25 112.13h34.03v3.85H42.25z"/><path class="cls-4" d="M76.28 115.98v.12H42.13V112H76.4v4.1h-.12v-.12h-.13v-3.73H42.38v3.6h33.9v.13h-.13.13"/><path class="cls-4" d="M47.73 112.13h22.9v3.85h-22.9z"/><path class="cls-3" d="M38.91 122.99h27.84v3.85H38.91z"/><path class="cls-4" d="M66.75 126.84v.13H38.79v-4.1h28.09v4.1h-.13v-.13h-.12v-3.72h-27.6v3.6h27.72v.12h-.12.12"/><path class="cls-4" d="M43.4 122.99h18.74v3.85H43.4z"/><path class="cls-3" d="M36.63 133.86h21.71v3.85H36.63z"/><path class="cls-4" d="M58.33 137.71v.12H36.5v-4.1h21.96v4.1h-.13v-.12h-.12v-3.73H36.75v3.6h21.58v.13h-.12.12"/><path class="cls-4" d="M40.12 133.86h14.61v3.85H40.12z"/><path class="cls-3" d="M34.47 144.72h16.9v3.85h-16.9z"/><path class="cls-4" d="M51.37 148.57v.12H34.35v-4.09h17.14v4.09h-.12v-.12h-.13v-3.73H34.6v3.61h16.77v.12h-.13.13"/><path class="cls-4" d="M37.2 144.72h11.37v3.85H37.2z"/><path class="cls-3" d="M32.71 155.59h13.35v3.85H32.71z"/><path class="cls-4" d="M46.06 159.44v.12H32.59v-4.1h13.6v4.1h-.13v-.12h-.12v-3.73H32.83v3.6h13.23v.13h-.12.12"/><path class="cls-4" d="M34.86 155.59h8.99v3.85h-8.99z"/><path class="cls-3" d="M30.52 166.45h10.13v3.85H30.52z"/><path class="cls-4" d="M40.65 170.3v.12H30.39v-4.09h10.38v4.09h-.12v-.12h-.13v-3.73h-9.88v3.61h10.01v.12h-.13.13"/><path class="cls-4" d="M32.15 166.45h6.82v3.85h-6.82z"/><path class="cls-3" d="M30.5 177.31h8.92v3.85H30.5z"/><path class="cls-4" d="M39.41 181.16v.13h-9.04v-4.1h9.17v4.1h-.13v-.13h-.12v-3.72h-8.67v3.6h8.79v.12h-.12.12"/><path class="cls-4" d="M31.93 177.31h6v3.85h-6z"/><path class="cls-3" d="M29.02 188.18h7.31v3.85h-7.31z"/><path class="cls-4" d="M36.32 192.03v.12h-7.43v-4.1h7.56v4.1h-.13v-.12h-.12v-3.73h-7.06v3.6h7.18v.13h-.12.12"/><path class="cls-4" d="M30.19 188.18h4.92v3.85h-4.92z"/><path class="cls-3" d="M27.55 199.04h4.77v3.85h-4.77z"/><path class="cls-4" d="M32.32 202.89v.12h-4.89v-4.09h5.01v4.09h-.12v-.12h-.12v-3.72h-4.52v3.6h4.64v.12h-.12.12"/><path class="cls-4" d="M28.32 199.04h3.21v3.85h-3.21z"/><path class="cls-3" d="M27.35 209.91h2.1v3.85h-2.1z"/><path class="cls-4" d="M29.45 213.75v.13h-2.22v-4.1h2.35v4.1h-.13v-.13h-.12v-3.72h-1.85v3.6h1.97v.12h-.12.12"/><path class="cls-4" d="M27.69 209.91h1.41v3.85h-1.41z"/></g></g></svg>