<svg xmlns="http://www.w3.org/2000/svg" preserveAspectRatio="xMidYMid" width="21" height="19" viewBox="0 0 21 19"><path fill="#999" fill-rule="evenodd" d="M20.815 14.446c-.747-1.369-4.02-2.239-6.909-2.405a36.39 36.39 0 0 1-.798-.895C10.624 8.268 9.619 4.085 9.243 1.87A24.394 24.394 0 0 0 9.108.719C9.075.488 9.004.004 8.509.004a.56.56 0 0 0-.42.193c-.176.204-.15.423-.119.676.035.292.088.68.164 1.124.211 2.25.311 6.534-1.397 9.937-.178.355-.356.696-.532 1.02-3.196.943-5.776 2.624-6.153 4.018a1.39 1.39 0 0 0 .335 1.362c.411.436.897.656 1.443.656 1.512 0 3.236-1.706 5.123-5.072a15.959 15.959 0 0 1 2.482-.464c.314-.032.822-.099 1.135-.148a15.44 15.44 0 0 1 2.837-.155c2.317 2.441 4.211 3.679 5.631 3.679.762-.001 1.393-.376 1.776-1.061a1.33 1.33 0 0 0 .001-1.323zm-.976.547c.048.089.048.136.001.221-.185.332-.448.486-.826.486h-.001c-.887 0-2.252-.851-3.885-2.412 2.528.322 4.379 1.098 4.711 1.705zm-14.49-.564c-1.35 2.162-2.643 3.429-3.519 3.429-.237 0-.439-.097-.637-.307-.081-.084-.099-.158-.066-.279.195-.718 1.831-1.948 4.222-2.843zm2.312-1.841l.07-.14c.837-1.668 1.357-3.669 1.548-5.962.769 2.18 1.771 3.994 2.988 5.406l.109.126c-.703.017-1.365.076-1.978.172a28.07 28.07 0 0 1-1.077.141c-.542.054-1.098.14-1.66.257z"/></svg>