<svg xmlns="http://www.w3.org/2000/svg" width="88" height="88" viewBox="0 0 88 88"><defs><style>.cls-1{fill:none;stroke:#f5f5f5;stroke-width:1px}.cls-2{fill:red}.cls-2,.cls-3{fill-rule:evenodd}</style></defs><circle id="Ellipse_2_copy" data-name="Ellipse 2 copy" class="cls-1" cx="44" cy="44" r="44"/><path class="cls-2" d="M78.986 31.909H62.93l4.789-6.01-1.572-1.245-6.51 8.173L66.147 41l1.572-1.244-4.658-5.847h15.925v-2zM20.26 46.9l4.79 6.011H8.994v2h15.925l-4.659 5.845L21.833 62l6.511-8.173-6.511-8.173z"/><path id="Shape_23_copy" data-name="Shape 23 copy" class="cls-3" d="M35.067 63h17.064v-7H35.067v7zm2.008-5h13.05v3H37.074v-3zm-6.063 9h25.174V21H31.012v46zm2.008-44h21.16v42H33.019V23zm14.093 6h-7.027v2h7.027v-2z"/></svg>