<svg xmlns="http://www.w3.org/2000/svg" width="22" height="22"><path fill-rule="evenodd" fill="#BBB" d="M4.822 1.854L6.41 6.62c-.12.086-.255.178-.363.252-.893.61-2.004 1.369-2.004 2.483 0 1.801 3.259 5.175 3.292 5.209.033.033 3.406 3.293 5.207 3.293 1.114 0 1.873-1.112 2.483-2.005.074-.108.166-.244.252-.363l4.765 1.589v1.218c-.251.659-2.517 2.562-4 2.562-1.076 0-4.961-.376-9.792-5.208-4.831-4.834-5.207-8.72-5.207-9.795 0-1.483 1.902-3.75 2.561-4.001h1.218M5.543.853h-2c-1 0-3.5 3.001-3.5 5.002 0 2 1 6.001 5.5 10.502 4.499 4.5 8.499 5.501 10.499 5.501s5-2.501 5-3.501v-2l-6-2.001c-.5 0-1.5 2.501-2.5 2.501-.999 0-3.499-2-4.499-3.001-1-1-3-3.501-3-4.501 0-1 2.499-2 2.499-2.5L5.543.853z"/></svg>