<svg version="1.2" baseProfile="tiny" xmlns="http://www.w3.org/2000/svg" width="18" height="14" viewBox="0 0 18 14"><path fill-rule="evenodd" fill="#FFF" d="M16.813 0H1.188C.533 0 0 .523 0 1.167v11.666C0 13.477.533 14 1.188 14h15.625c.654 0 1.187-.523 1.187-1.167V1.167C18 .523 17.467 0 16.813 0zm.169 12.833c0 .09-.078.167-.17.167H1.188a.171.171 0 0 1-.17-.167v-1.664l3.699-2.767c.128-.096.398-.107.535-.023l2.903 1.798c.525.325 1.262.226 1.678-.227l3.531-3.836c.021-.023.037-.03.049-.031.009.001.025.01.045.034l3.525 4.446v2.27zm0-3.897L14.26 5.502a1.086 1.086 0 0 0-.811-.418 1.09 1.09 0 0 0-.84.358L9.078 9.278c-.085.093-.274.118-.381.052L5.793 7.533c-.497-.308-1.226-.276-1.693.073L1.018 9.912V1.167c0-.09.078-.167.17-.167h15.625c.092 0 .17.077.17.167v7.769zM7.521 3.229c-.994 0-1.803.795-1.803 1.771s.809 1.771 1.803 1.771S9.324 5.976 9.324 5s-.808-1.771-1.803-1.771zm0 2.543c-.433 0-.785-.346-.785-.771s.352-.771.785-.771c.433 0 .785.346.785.771s-.351.771-.785.771z"/></svg>