<svg xmlns="http://www.w3.org/2000/svg" width="52" height="49" viewBox="0 0 52 49"><defs><linearGradient id="a" x1="0%" x2="61.566%" y1="0%" y2="78.801%"><stop offset="0%" stop-color="#00ADEF"/><stop offset="39%" stop-color="#19CDD7"/><stop offset="100%" stop-color="#31ECBE"/></linearGradient></defs><path fill-rule="evenodd" fill="#F54F4F" d="M51 36H27v3.519l9.625 7.7a1 1 0 0 1-1.25 1.562L27 42.081V48a1 1 0 1 1-2 0v-5.919l-8.375 6.7a.998.998 0 0 1-1.406-.156 1 1 0 0 1 .156-1.406l9.625-7.7V36H1a1 1 0 0 1-1-1V5a1 1 0 0 1 1-1h24V1a1 1 0 1 1 2 0v3h24a1 1 0 0 1 1 1v30a1 1 0 0 1-1 1zM50 6H2v28h48V6zM26 9c6.065 0 11 4.935 11 11s-4.935 11-11 11-11-4.935-11-11S19.935 9 26 9zm0 20c4.963 0 9-4.037 9-9s-4.037-9-9-9-9 4.037-9 9 4.037 9 9 9z"/><path fill="url(#a)" d="M51 36H27v3.519l9.625 7.7a1 1 0 0 1-1.25 1.562L27 42.081V48a1 1 0 1 1-2 0v-5.919l-8.375 6.7a.998.998 0 0 1-1.406-.156 1 1 0 0 1 .156-1.406l9.625-7.7V36H1a1 1 0 0 1-1-1V5a1 1 0 0 1 1-1h24V1a1 1 0 1 1 2 0v3h24a1 1 0 0 1 1 1v30a1 1 0 0 1-1 1zM50 6H2v28h48V6zM26 9c6.065 0 11 4.935 11 11s-4.935 11-11 11-11-4.935-11-11S19.935 9 26 9zm0 20c4.963 0 9-4.037 9-9s-4.037-9-9-9-9 4.037-9 9 4.037 9 9 9z"/></svg>