<svg xmlns="http://www.w3.org/2000/svg" width="88" height="88" viewBox="0 0 88 88"><defs><style>.cls-1{fill:none;stroke:#f5f5f5;stroke-width:1px}.cls-2,.cls-3{fill-rule:evenodd}.cls-3{fill:red}</style></defs><circle id="Ellipse_2_copy_8" data-name="Ellipse 2 copy 8" class="cls-1" cx="44" cy="44" r="44"/><path class="cls-2" d="M71 27h-7v-3a1 1 0 0 0-.424-.817C63.26 22.959 60.023 21 44.148 21c-15.851 0-19.34 1.936-19.686 2.157A1 1 0 0 0 24 24v3h-6a1 1 0 0 0-1 1v9c0 6.008 6.511 8.375 8.1 8.865 1.858 4.483 6.6 8.842 17.9 9.116V59h-6v4h-5v7h24v-7h-5v-4h-6v-4.021c9.929-.167 15.892-3.174 18.054-9.141C65.051 45.272 72 42.878 72 37v-9a1 1 0 0 0-1-1zM54 65v3H34v-3h20zm-5-4v2H39v-2h10zM19 37v-8h5v11a16.529 16.529 0 0 0 .353 3.446C22.3 42.551 19 40.561 19 37zm25.131 16C29.146 53 26 45.931 26 40V24.659C27.367 24.181 31.975 23 44.148 23 56.428 23 60.76 24.166 62 24.631V40a16.572 16.572 0 0 1-.534 4.468.993.993 0 0 0-.137.447C59.911 49.281 55.717 53 44.131 53zM70 37c0 3.663-3.989 5.663-6.3 6.516A19.457 19.457 0 0 0 64 40V29h6v8z"/><path id="Shape_30_copy_2" data-name="Shape 30 copy 2" class="cls-3" d="M43.988 26.256s-5.505 6.639-6.717 8.608a7.388 7.388 0 0 0-1.171 4.783 7.651 7.651 0 0 0 7.892 7.23c4.743 0 8.012-3.484 8.012-7.23a7.711 7.711 0 0 0-1.04-4.547c-.532-.993-6.976-8.844-6.976-8.844zm0 18.621a5.657 5.657 0 0 1-5.892-5.23c0-2.094.167-2.577.879-3.735.7-1.134 3.175-4.243 5.01-6.5 2.522 3.1 4.894 6.094 5.215 6.632l.061.115A5.832 5.832 0 0 1 50 39.647c0 3.23-3.121 5.23-6.012 5.23z"/></svg>