<svg xmlns="http://www.w3.org/2000/svg" width="75" height="75"><defs><linearGradient id="a" x1="0%" x2="61.566%" y1="0%" y2="78.801%"><stop offset="0" stop-color="#0c90c2"/><stop offset="1" stop-color="#2dd2ab"/></linearGradient></defs><path fill="url(#a)" d="M73.973 72.985a.995.995 0 0 1 0 1.992H61.917a.995.995 0 0 1 0-1.992h4.698l-5.372-6.689c-6.375 5.279-14.547 8.455-23.446 8.455-8.767 0-16.823-3.086-23.155-8.225l-5.188 6.459h4.698a.996.996 0 0 1 0 1.992H2.097a.995.995 0 0 1 0-1.992h4.806l6.225-7.751C5.658 58.477.955 48.71.955 37.86.955 17.517 17.482.968 37.797.968c20.315 0 36.842 16.549 36.842 36.892 0 10.716-4.59 20.375-11.9 27.122l6.428 8.003h4.806zM72.541 37.86c0-19.184-15.586-34.791-34.744-34.791S3.052 18.676 3.052 37.86c0 19.183 15.587 34.791 34.745 34.791 19.158 0 34.744-15.608 34.744-34.791zM52.433 60.391a4.395 4.395 0 0 1-1.753-.368c-4.278-1.847-9.082-12.295-10.356-15.215a6.916 6.916 0 0 1-2.372.426c-.849 0-1.66-.162-2.413-.442-1.269 2.908-6.078 13.376-10.36 15.224a4.378 4.378 0 0 1-1.753.366c-4.415 0-8.337-6.587-8.903-7.58-.72-1.047-6.052-9.118-1.869-12.754 3.608-3.135 15.594-2.841 18.41-2.726a6.968 6.968 0 0 1 2.467-4.436c-1.987-2.948-7.886-12.158-7.192-16.64.854-5.502 10.519-5.277 11.798-5.22 1.27-.061 10.946-.288 11.801 5.22.711 4.592-5.501 14.151-7.334 16.85a6.95 6.95 0 0 1 2.238 4.231c2.895-.116 14.775-.39 18.363 2.729 4.185 3.636-1.148 11.705-1.869 12.754-.565.992-4.488 7.581-8.903 7.581zM31.081 39.315c-4.163-.178-14.433-.102-17.124 2.237-2.448 2.126.868 8.191 2.224 10.148.009.012.009.028.018.042.008.014.022.02.029.034 1.26 2.22 5.175 7.7 8.165 6.411 3.239-1.398 7.706-10.454 9.392-14.354a6.967 6.967 0 0 1-2.704-4.518zm16.841-22.756c-.495-3.198-7.193-3.606-9.738-3.493-.016.001-.029-.006-.046-.006-.016 0-.029.007-.045.006-2.542-.113-9.243.295-9.738 3.493-.524 3.379 4.439 11.589 6.925 15.272a6.892 6.892 0 0 1 5.627.133c2.452-3.614 7.546-11.985 7.015-15.405zm-9.97 16.727c-.891 0-1.716.256-2.44.668h-.001l-.004.003c-1.5.858-2.526 2.457-2.526 4.307a4.98 4.98 0 0 0 4.971 4.978 4.98 4.98 0 0 0 4.972-4.978 4.98 4.98 0 0 0-4.972-4.978zm23.95 8.273c-2.682-2.331-12.888-2.412-17.079-2.238a6.964 6.964 0 0 1-2.74 4.539c1.694 3.913 6.151 12.939 9.383 14.334 2.976 1.283 6.993-4.338 8.166-6.411.008-.013.021-.021.03-.034.008-.012.008-.028.017-.041 1.451-2.1 4.677-8.015 2.223-10.149z"/></svg>