<svg xmlns="http://www.w3.org/2000/svg" preserveAspectRatio="xMidYMid" width="48" height="59.78" viewBox="0 0 48 59.78"><defs><style>.cls-1{fill:#fff;fill-rule:evenodd}</style></defs><path d="M24.312 59.722a1.008 1.008 0 0 1-.624 0C22.721 59.406 0 51.765 0 33.258V11.801c0-1.299.987-2.402 2.296-2.567C13.564 7.813 19.997 2.782 22.239.684a2.586 2.586 0 0 1 3.522 0c2.242 2.098 8.674 7.129 19.943 8.55C47.013 9.399 48 10.502 48 11.801v21.457c0 18.507-22.721 26.148-23.688 26.464zM46 11.801c0-.304-.23-.552-.547-.593-11.851-1.494-18.678-6.843-21.062-9.073a.572.572 0 0 0-.782 0c-2.384 2.23-9.211 7.579-21.062 9.073-.317.041-.547.289-.547.593v21.457C2 49.2 21.291 56.742 24 57.723c2.709-.981 22-8.523 22-24.465V11.801zm-23.381 26.04a.994.994 0 0 1-.72.362c-.018.002-.036.002-.054.002a.995.995 0 0 1-.701-.286l-6.482-6.341a.991.991 0 0 1-.012-1.406 1.003 1.003 0 0 1 1.414-.012l5.7 5.576 11.045-13.442c.35-.424.981-.489 1.407-.142a.993.993 0 0 1 .142 1.401L22.619 37.841z" class="cls-1"/></svg>