<svg xmlns="http://www.w3.org/2000/svg" width="98" height="61" viewBox="0 0 98 61"><defs><style>.cls-1{fill:red}.cls-1,.cls-2{fill-rule:evenodd}</style></defs><path class="cls-1" d="M48 45H33v2h15v-2zm0-27H33v2h15v-2zm50 0h-7v2h5v24h-5v2h7V18z"/><path class="cls-2" d="M28.921 46H4v11h24.921V46zm-2 9H6v-7h20.921v7zM0 0v61h33V0H0zm31 59H2V2h29v57zM20 12h-6.971v2H20v-2zm26-1v38h46V11H46zm44 36H48V13h42v34zM52 15h-2v30h2V15zm4 0h-2v30h2V15zm4 0h-2v30h2V15zm4 0h-2v30h2V15zm4 0h-2v30h2V15zm4 0h-2v30h2V15zm4 0h-2v30h2V15zm4 0h-2v30h2V15zm4 0h-2v30h2V15zm4 0h-2v30h2V15z"/></svg>