<svg xmlns="http://www.w3.org/2000/svg" width="57" height="56"><defs><linearGradient id="a" x1="0%" x2="61.566%" y1="0%" y2="78.801%"><stop offset="0" stop-color="#0c90c2"/><stop offset="1" stop-color="#2dd2ab"/></linearGradient></defs><path fill="url(#a)" d="M54.862 54.247A5.94 5.94 0 0 1 50.632 56c-1.598 0-3.1-.622-4.23-1.752l-11.759-11.76a.973.973 0 0 1-.283-.683c0-.254.103-.503.282-.683l2.865-2.864-3.148-3.149-.353.307a20.16 20.16 0 0 1-13.22 4.925c-5.396 0-10.464-2.096-14.269-5.901a20.052 20.052 0 0 1-5.91-14.27A20.049 20.049 0 0 1 6.517 5.9c7.868-7.868 20.67-7.868 28.538 0a20.049 20.049 0 0 1 5.91 14.27c0 4.868-1.752 9.563-4.934 13.221l-.306.353 3.147 3.147 2.864-2.864a.972.972 0 0 1 1.366 0l11.759 11.76a5.943 5.943 0 0 1 1.753 4.23 5.945 5.945 0 0 1-1.752 4.23zM39.034 20.17c0-4.875-1.899-9.457-5.345-12.904-3.441-3.442-8.024-5.337-12.903-5.337-4.88 0-9.462 1.895-12.903 5.337A18.126 18.126 0 0 0 2.538 20.17a18.13 18.13 0 0 0 5.345 12.904c3.441 3.441 8.023 5.337 12.903 5.337 4.879 0 9.462-1.896 12.903-5.337a18.134 18.134 0 0 0 5.345-12.904zm3.385 15.906l-5.728 5.729 2.794 2.794 5.729-5.729-2.795-2.794zm11.077 11.077l-6.917-6.917-5.728 5.729 6.917 6.917a4.023 4.023 0 0 0 2.864 1.186 4.023 4.023 0 0 0 2.864-1.186 4.026 4.026 0 0 0 1.186-2.865 4.025 4.025 0 0 0-1.186-2.864zm-32.71-13.167a13.729 13.729 0 0 1-9.775-4.042h.001c-5.39-5.389-5.39-14.159 0-19.549a13.725 13.725 0 0 1 9.774-4.042c3.696 0 7.167 1.435 9.774 4.042 5.389 5.39 5.389 14.16 0 19.549a13.728 13.728 0 0 1-9.774 4.042zm8.408-22.225a11.807 11.807 0 0 0-8.408-3.478c-3.18 0-6.166 1.235-8.409 3.478A11.812 11.812 0 0 0 8.9 20.17c0 3.18 1.235 6.166 3.477 8.409a11.814 11.814 0 0 0 8.409 3.477 11.81 11.81 0 0 0 8.408-3.477c4.637-4.637 4.637-12.181 0-16.818zm-4.667 4.667a5.254 5.254 0 0 0-3.741-1.548c-1.415 0-2.744.55-3.742 1.548a.962.962 0 0 1-1.366 0 .968.968 0 0 1 0-1.366 7.203 7.203 0 0 1 5.108-2.112 7.2 7.2 0 0 1 5.107 2.112.966.966 0 0 1-1.366 1.366z"/></svg>