<svg xmlns="http://www.w3.org/2000/svg" preserveAspectRatio="xMidYMid" width="23" height="22" viewBox="0 0 23 22"><path fill="#3eb5f1" fill-rule="evenodd" d="M0 9.152c0 5.05 4.108 9.155 9.153 9.155 2.324 0 4.45-.874 6.067-2.307l5.834 5.835a.553.553 0 0 0 .784-.78L16 15.221a9.126 9.126 0 0 0 2.306-6.069c0-5.051-4.108-9.155-9.153-9.155C4.108-.003 0 4.101 0 9.152zm17.203 0c0 4.437-3.613 8.051-8.05 8.051-4.437 0-8.05-3.614-8.05-8.051 0-4.438 3.613-8.05 8.05-8.05 4.437 0 8.05 3.609 8.05 8.05z"/></svg>