<svg xmlns="http://www.w3.org/2000/svg" width="88" height="88" viewBox="0 0 88 88"><defs><style>.cls-1{fill:none;stroke:#f5f5f5;stroke-width:1px}.cls-2,.cls-3{fill-rule:evenodd}.cls-3{fill:red}</style></defs><circle id="Ellipse_2_copy_5" data-name="Ellipse 2 copy 5" class="cls-1" cx="44" cy="44" r="44"/><path class="cls-2" d="M66.2 20.329c-.27-.1-6.773-2.354-21.807-2.354s-21.563 2.258-21.834 2.353a1 1 0 0 0-.669.94v31.441c0 7.352 7.475 13.149 22.218 17.234a1.033 1.033 0 0 0 .544 0c15.158-4.2 22.218-9.675 22.218-17.234V21.268a1 1 0 0 0-.67-.939zm-1.353 32.38c0 2.356 0 9.5-20.47 15.236C30.8 64.139 23.91 59.014 23.91 52.709v-30.7c1.994-.549 8.506-2.036 20.487-2.036s18.466 1.486 20.454 2.035v30.7z"/><path id="Shape_28_copy" data-name="Shape 28 copy" class="cls-3" d="M41.856 51.218h5.063v-14.25h-5.063v14.25zm-.118-15.537h5.284v-3.692h-5.284v3.692z"/></svg>