<?xml version="1.0" encoding="utf-8"?>
<!-- Generator: Adobe Illustrator 22.0.1, SVG Export Plug-In . SVG Version: 6.00 Build 0)  -->
<svg version="1.1" id="Слой_1" xmlns="http://www.w3.org/2000/svg" xmlns:xlink="http://www.w3.org/1999/xlink" x="0px" y="0px"
	 viewBox="0 0 97.2 61" style="enable-background:new 0 0 97.2 61;" xml:space="preserve">
<style type="text/css">
	.st0{fill:url(#SVGID_1_);}
	.st1{fill:url(#SVGID_2_);}
	.st2{fill:url(#SVGID_3_);}
	.st3{fill:url(#SVGID_4_);}
	.st4{fill:url(#SVGID_5_);}
	.st5{fill:#FFFFFF;}
	.st6{fill:url(#SVGID_6_);}
	.st7{fill:url(#SVGID_7_);}
	.st8{fill:url(#SVGID_8_);}
	.st9{fill:url(#SVGID_9_);}
	.st10{fill:url(#SVGID_10_);}
	.st11{fill:url(#SVGID_11_);}
	.st12{fill:url(#SVGID_12_);}
	.st13{fill:url(#SVGID_13_);}
	.st14{fill:url(#SVGID_14_);}
	.st15{fill:url(#SVGID_15_);}
	.st16{fill:url(#SVGID_16_);}
	.st17{fill:url(#SVGID_17_);}
	.st18{fill:url(#SVGID_18_);}
	.st19{fill:url(#SVGID_19_);}
	.st20{fill:url(#SVGID_20_);}
	.st21{fill:url(#SVGID_21_);}
	.st22{fill:url(#SVGID_22_);}
	.st23{fill:url(#SVGID_23_);}
	.st24{fill:url(#SVGID_24_);}
	.st25{fill:url(#SVGID_25_);}
	.st26{fill:url(#SVGID_26_);}
	.st27{fill:url(#SVGID_27_);}
	.st28{fill:url(#SVGID_28_);}
	.st29{fill:url(#SVGID_29_);}
	.st30{fill:url(#SVGID_30_);}
	.st31{fill:url(#SVGID_31_);}
	.st32{fill:url(#SVGID_32_);}
	.st33{clip-path:url(#SVGID_35_);fill:url(#SVGID_36_);}
	.st34{fill:url(#SVGID_37_);}
	.st35{clip-path:url(#SVGID_40_);fill:url(#SVGID_41_);}
	.st36{fill:url(#SVGID_42_);}
	.st37{fill:url(#SVGID_43_);}
	.st38{fill:url(#SVGID_44_);}
	.st39{fill:url(#SVGID_45_);}
	.st40{fill:url(#SVGID_46_);}
	.st41{fill:url(#SVGID_47_);}
	.st42{fill:url(#SVGID_48_);}
	.st43{fill:url(#SVGID_49_);}
	.st44{fill:url(#SVGID_50_);}
	.st45{fill:url(#SVGID_51_);}
	.st46{fill:url(#SVGID_52_);}
	.st47{fill:url(#SVGID_53_);}
	.st48{fill:url(#SVGID_54_);}
	.st49{fill:url(#SVGID_55_);}
	.st50{fill:url(#SVGID_56_);}
	.st51{fill:url(#SVGID_57_);}
	.st52{fill:url(#SVGID_58_);}
	.st53{fill:url(#SVGID_59_);}
	.st54{fill:url(#SVGID_60_);}
	.st55{fill:url(#SVGID_61_);}
	.st56{fill:url(#SVGID_62_);}
	.st57{fill:url(#SVGID_63_);}
	.st58{fill:url(#SVGID_64_);}
	.st59{fill:url(#SVGID_65_);}
	.st60{fill:url(#SVGID_66_);}
	.st61{fill:url(#SVGID_67_);}
	.st62{fill:url(#SVGID_68_);}
	.st63{fill:url(#SVGID_69_);}
	.st64{fill:url(#SVGID_70_);}
	.st65{fill:url(#SVGID_71_);}
	.st66{fill:url(#SVGID_72_);}
	.st67{fill:url(#SVGID_73_);}
	.st68{fill:url(#SVGID_74_);}
	.st69{fill:url(#SVGID_75_);}
	.st70{fill:url(#SVGID_76_);}
	.st71{fill:url(#SVGID_77_);}
	.st72{fill:url(#SVGID_78_);}
	.st73{fill:url(#SVGID_79_);}
	.st74{fill:url(#SVGID_80_);}
	.st75{fill:url(#SVGID_81_);}
	.st76{fill:url(#SVGID_82_);}
	.st77{fill:url(#SVGID_83_);}
	.st78{fill:url(#SVGID_84_);}
	.st79{fill:url(#SVGID_85_);}
	.st80{fill:url(#SVGID_86_);}
	.st81{fill:url(#SVGID_87_);}
	.st82{fill:url(#SVGID_88_);}
	.st83{fill:url(#SVGID_89_);}
	.st84{fill:url(#SVGID_90_);}
	.st85{fill:url(#SVGID_91_);}
	.st86{fill:url(#SVGID_92_);}
	.st87{fill:url(#SVGID_93_);}
	.st88{fill:url(#SVGID_94_);}
	.st89{fill:url(#SVGID_95_);}
	.st90{fill:url(#SVGID_96_);}
	.st91{fill:url(#SVGID_97_);}
	.st92{fill:url(#SVGID_98_);}
	.st93{fill:url(#SVGID_99_);}
	.st94{fill:url(#SVGID_100_);}
	.st95{fill:url(#SVGID_101_);}
	.st96{fill:url(#SVGID_102_);}
	.st97{fill:url(#SVGID_103_);}
	.st98{fill:url(#SVGID_104_);}
	.st99{fill:url(#SVGID_105_);}
	.st100{fill:url(#SVGID_106_);}
	.st101{fill:url(#SVGID_107_);}
	.st102{fill:url(#SVGID_108_);}
	.st103{fill:url(#SVGID_109_);}
	.st104{fill:url(#SVGID_110_);}
	.st105{fill:url(#SVGID_111_);}
	.st106{fill:url(#SVGID_112_);}
	.st107{fill:url(#SVGID_113_);}
	.st108{fill:url(#SVGID_114_);}
	.st109{fill:url(#SVGID_115_);}
	.st110{fill:url(#SVGID_116_);}
	.st111{fill:url(#SVGID_117_);}
	.st112{fill:url(#SVGID_118_);}
	.st113{fill:url(#SVGID_119_);}
	.st114{fill:url(#SVGID_120_);}
	.st115{fill:url(#SVGID_121_);}
	.st116{fill:url(#SVGID_122_);}
	.st117{fill:url(#SVGID_123_);}
	.st118{fill:url(#SVGID_124_);}
	.st119{fill:url(#SVGID_125_);}
	.st120{fill:url(#SVGID_126_);}
	.st121{fill:url(#SVGID_127_);}
	.st122{fill:url(#SVGID_128_);}
	.st123{fill:url(#SVGID_129_);}
	.st124{fill:url(#SVGID_130_);}
	.st125{fill:url(#SVGID_131_);}
	.st126{fill:url(#SVGID_132_);}
	.st127{fill:url(#SVGID_133_);}
	.st128{fill:url(#SVGID_134_);}
	.st129{fill:url(#SVGID_135_);}
	.st130{fill:url(#SVGID_136_);}
	.st131{fill:url(#SVGID_137_);}
	.st132{fill:url(#SVGID_138_);}
	.st133{fill:url(#SVGID_139_);}
</style>
<g>
	<linearGradient id="SVGID_1_" gradientUnits="userSpaceOnUse" x1="4.0195" y1="13.9247" x2="56.7606" y2="47.0129">
		<stop  offset="0" style="stop-color:#0C90C2"/>
		<stop  offset="1" style="stop-color:#2DD2AB"/>
	</linearGradient>
	<path class="st0" d="M1.6,54.7l0.1-0.8C3.3,42.4,3,31.5,1,21.3L1,20.8L59.4,6.4l0.2,0.3c2.9,5.3,3.6,11.2,2,17.7l0,0.2l-0.2,0.1
		L1.6,54.7z M2,21.5c1.9,9.9,2.1,20.6,0.7,31.6L60.8,24c1.4-6.1,0.8-11.7-1.8-16.6L2,21.5z"/>
</g>
<linearGradient id="SVGID_2_" gradientUnits="userSpaceOnUse" x1="0.6077" y1="19.3631" x2="53.3488" y2="52.4512">
	<stop  offset="0" style="stop-color:#0C90C2"/>
	<stop  offset="1" style="stop-color:#2DD2AB"/>
</linearGradient>
<path class="st1" d="M8.8,22.7c0.1,1-0.7,2.1-1.8,2.4c-1.1,0.3-2-0.3-2.1-1.4c-0.1-1.1,0.8-2.2,1.9-2.5C7.8,21.1,8.7,21.7,8.8,22.7z
	"/>
<linearGradient id="SVGID_3_" gradientUnits="userSpaceOnUse" x1="3.3499" y1="14.9921" x2="56.091" y2="48.0802">
	<stop  offset="0" style="stop-color:#0C90C2"/>
	<stop  offset="1" style="stop-color:#2DD2AB"/>
</linearGradient>
<path class="st2" d="M15.3,20.9c0.1,1-0.6,2-1.6,2.3c-1,0.3-1.8-0.3-1.9-1.3c-0.1-1,0.7-2,1.7-2.3C14.4,19.3,15.2,19.9,15.3,20.9z"
	/>
<linearGradient id="SVGID_4_" gradientUnits="userSpaceOnUse" x1="5.8112" y1="11.0688" x2="58.5524" y2="44.1569">
	<stop  offset="0" style="stop-color:#0C90C2"/>
	<stop  offset="1" style="stop-color:#2DD2AB"/>
</linearGradient>
<path class="st3" d="M21.2,19.3c0.1,0.9-0.6,1.9-1.4,2.1c-0.9,0.3-1.7-0.3-1.7-1.3c-0.1-1,0.6-1.9,1.5-2.1
	C20.4,17.8,21.1,18.4,21.2,19.3z"/>
<linearGradient id="SVGID_5_" gradientUnits="userSpaceOnUse" x1="8.0328" y1="7.5277" x2="60.7739" y2="40.6158">
	<stop  offset="0" style="stop-color:#0C90C2"/>
	<stop  offset="1" style="stop-color:#2DD2AB"/>
</linearGradient>
<path class="st4" d="M26.5,17.8c0.1,0.9-0.5,1.8-1.3,2c-0.8,0.2-1.5-0.3-1.6-1.2c-0.1-0.9,0.5-1.8,1.3-2
	C25.8,16.4,26.4,16.9,26.5,17.8z"/>
<linearGradient id="SVGID_6_" gradientUnits="userSpaceOnUse" x1="10.048" y1="4.3155" x2="62.7891" y2="37.4037">
	<stop  offset="0" style="stop-color:#0C90C2"/>
	<stop  offset="1" style="stop-color:#2DD2AB"/>
</linearGradient>
<path class="st6" d="M31.3,16.5c0.1,0.8-0.4,1.7-1.1,1.9c-0.7,0.2-1.4-0.3-1.4-1.2c-0.1-0.9,0.5-1.7,1.2-1.9
	C30.7,15.1,31.3,15.7,31.3,16.5z"/>
<linearGradient id="SVGID_7_" gradientUnits="userSpaceOnUse" x1="11.8843" y1="1.3885" x2="64.6255" y2="34.4766">
	<stop  offset="0" style="stop-color:#0C90C2"/>
	<stop  offset="1" style="stop-color:#2DD2AB"/>
</linearGradient>
<path class="st7" d="M35.8,15.3c0.1,0.8-0.4,1.6-1,1.8c-0.7,0.2-1.3-0.3-1.3-1.2c-0.1-0.8,0.4-1.6,1.1-1.8
	C35.1,14,35.7,14.5,35.8,15.3z"/>
<linearGradient id="SVGID_8_" gradientUnits="userSpaceOnUse" x1="13.5646" y1="-1.2897" x2="66.3057" y2="31.7984">
	<stop  offset="0" style="stop-color:#0C90C2"/>
	<stop  offset="1" style="stop-color:#2DD2AB"/>
</linearGradient>
<path class="st8" d="M39.8,14.2c0.1,0.8-0.3,1.5-0.9,1.7c-0.6,0.2-1.2-0.3-1.2-1.1c-0.1-0.8,0.4-1.6,1-1.7
	C39.2,12.9,39.7,13.4,39.8,14.2z"/>
<linearGradient id="SVGID_9_" gradientUnits="userSpaceOnUse" x1="15.1078" y1="-3.7496" x2="67.849" y2="29.3385">
	<stop  offset="0" style="stop-color:#0C90C2"/>
	<stop  offset="1" style="stop-color:#2DD2AB"/>
</linearGradient>
<path class="st9" d="M43.5,13.2c0.1,0.7-0.3,1.5-0.9,1.6c-0.6,0.2-1.1-0.3-1.1-1.1c-0.1-0.8,0.3-1.5,0.9-1.6
	C42.9,11.9,43.4,12.4,43.5,13.2z"/>
<linearGradient id="SVGID_10_" gradientUnits="userSpaceOnUse" x1="16.5302" y1="-6.0168" x2="69.2713" y2="27.0713">
	<stop  offset="0" style="stop-color:#0C90C2"/>
	<stop  offset="1" style="stop-color:#2DD2AB"/>
</linearGradient>
<path class="st10" d="M46.9,12.2c0.1,0.7-0.3,1.4-0.8,1.6c-0.5,0.1-1-0.3-1.1-1c-0.1-0.7,0.3-1.4,0.8-1.6
	C46.4,11,46.9,11.5,46.9,12.2z"/>
<linearGradient id="SVGID_11_" gradientUnits="userSpaceOnUse" x1="17.8453" y1="-8.1131" x2="70.5865" y2="24.975">
	<stop  offset="0" style="stop-color:#0C90C2"/>
	<stop  offset="1" style="stop-color:#2DD2AB"/>
</linearGradient>
<path class="st11" d="M50.1,11.4c0.1,0.7-0.2,1.3-0.7,1.5c-0.5,0.1-0.9-0.3-1-1c-0.1-0.7,0.3-1.4,0.7-1.5
	C49.6,10.2,50,10.7,50.1,11.4z"/>
<linearGradient id="SVGID_12_" gradientUnits="userSpaceOnUse" x1="19.0649" y1="-10.0571" x2="71.8061" y2="23.031">
	<stop  offset="0" style="stop-color:#0C90C2"/>
	<stop  offset="1" style="stop-color:#2DD2AB"/>
</linearGradient>
<path class="st12" d="M53,10.5c0.1,0.7-0.2,1.3-0.7,1.4c-0.4,0.1-0.9-0.3-0.9-1c-0.1-0.7,0.2-1.3,0.7-1.4C52.6,9.4,53,9.9,53,10.5z"
	/>
<linearGradient id="SVGID_13_" gradientUnits="userSpaceOnUse" x1="20.1991" y1="-11.8648" x2="72.9402" y2="21.2233">
	<stop  offset="0" style="stop-color:#0C90C2"/>
	<stop  offset="1" style="stop-color:#2DD2AB"/>
</linearGradient>
<path class="st13" d="M55.8,9.8c0.1,0.6-0.2,1.2-0.6,1.4c-0.4,0.1-0.8-0.3-0.9-1c-0.1-0.6,0.2-1.3,0.6-1.4
	C55.3,8.7,55.7,9.2,55.8,9.8z"/>
<linearGradient id="SVGID_14_" gradientUnits="userSpaceOnUse" x1="21.2564" y1="-13.5502" x2="73.9975" y2="19.538">
	<stop  offset="0" style="stop-color:#0C90C2"/>
	<stop  offset="1" style="stop-color:#2DD2AB"/>
</linearGradient>
<path class="st14" d="M58.3,9.1c0.1,0.6-0.2,1.2-0.6,1.3c-0.4,0.1-0.8-0.3-0.8-0.9c-0.1-0.6,0.2-1.2,0.6-1.3
	C57.9,8.1,58.3,8.5,58.3,9.1z"/>
<linearGradient id="SVGID_15_" gradientUnits="userSpaceOnUse" x1="-3.3396" y1="25.6548" x2="49.4016" y2="58.7429">
	<stop  offset="0" style="stop-color:#0C90C2"/>
	<stop  offset="1" style="stop-color:#2DD2AB"/>
</linearGradient>
<path class="st15" d="M9.3,31.7c0.1,1.1-0.7,2.2-1.8,2.6c-1.1,0.4-2-0.2-2.1-1.3c-0.1-1.1,0.8-2.3,1.9-2.6C8.3,30,9.2,30.6,9.3,31.7
	z"/>
<linearGradient id="SVGID_16_" gradientUnits="userSpaceOnUse" x1="-0.3586" y1="20.9033" x2="52.3825" y2="53.9914">
	<stop  offset="0" style="stop-color:#0C90C2"/>
	<stop  offset="1" style="stop-color:#2DD2AB"/>
</linearGradient>
<path class="st16" d="M15.9,29.4c0.1,1-0.6,2.1-1.6,2.4c-1,0.4-1.8-0.2-1.9-1.2c-0.1-1,0.7-2.1,1.7-2.5C15,27.8,15.8,28.4,15.9,29.4
	z"/>
<linearGradient id="SVGID_17_" gradientUnits="userSpaceOnUse" x1="2.3145" y1="16.6424" x2="55.0557" y2="49.7305">
	<stop  offset="0" style="stop-color:#0C90C2"/>
	<stop  offset="1" style="stop-color:#2DD2AB"/>
</linearGradient>
<path class="st17" d="M21.8,27.3c0.1,0.9-0.6,2-1.4,2.3c-0.9,0.3-1.7-0.2-1.7-1.2c-0.1-1,0.6-2,1.5-2.3C21,25.8,21.7,26.4,21.8,27.3
	z"/>
<linearGradient id="SVGID_18_" gradientUnits="userSpaceOnUse" x1="4.7252" y1="12.7999" x2="57.4663" y2="45.888">
	<stop  offset="0" style="stop-color:#0C90C2"/>
	<stop  offset="1" style="stop-color:#2DD2AB"/>
</linearGradient>
<path class="st18" d="M27.1,25.5c0.1,0.9-0.5,1.9-1.3,2.1c-0.8,0.3-1.5-0.2-1.6-1.2c-0.1-0.9,0.5-1.9,1.3-2.2
	C26.4,24,27,24.6,27.1,25.5z"/>
<linearGradient id="SVGID_19_" gradientUnits="userSpaceOnUse" x1="6.9103" y1="9.317" x2="59.6514" y2="42.4051">
	<stop  offset="0" style="stop-color:#0C90C2"/>
	<stop  offset="1" style="stop-color:#2DD2AB"/>
</linearGradient>
<path class="st19" d="M32,23.8c0.1,0.9-0.4,1.8-1.1,2c-0.7,0.3-1.4-0.2-1.4-1.1c-0.1-0.9,0.5-1.8,1.2-2C31.3,22.4,31.9,22.9,32,23.8
	z"/>
<linearGradient id="SVGID_20_" gradientUnits="userSpaceOnUse" x1="8.9" y1="6.1455" x2="61.6411" y2="39.2336">
	<stop  offset="0" style="stop-color:#0C90C2"/>
	<stop  offset="1" style="stop-color:#2DD2AB"/>
</linearGradient>
<path class="st20" d="M36.4,22.2c0.1,0.8-0.4,1.7-1,1.9c-0.7,0.2-1.3-0.2-1.3-1.1c-0.1-0.8,0.4-1.7,1.1-1.9
	C35.7,20.9,36.3,21.4,36.4,22.2z"/>
<linearGradient id="SVGID_21_" gradientUnits="userSpaceOnUse" x1="10.7194" y1="3.2454" x2="63.4605" y2="36.3335">
	<stop  offset="0" style="stop-color:#0C90C2"/>
	<stop  offset="1" style="stop-color:#2DD2AB"/>
</linearGradient>
<path class="st21" d="M40.4,20.8c0.1,0.8-0.3,1.6-0.9,1.8c-0.6,0.2-1.2-0.3-1.2-1.1c-0.1-0.8,0.4-1.6,1-1.8
	C39.8,19.6,40.3,20,40.4,20.8z"/>
<linearGradient id="SVGID_22_" gradientUnits="userSpaceOnUse" x1="12.3895" y1="0.5833" x2="65.1306" y2="33.6714">
	<stop  offset="0" style="stop-color:#0C90C2"/>
	<stop  offset="1" style="stop-color:#2DD2AB"/>
</linearGradient>
<path class="st22" d="M44.1,19.5c0.1,0.8-0.3,1.5-0.9,1.7c-0.6,0.2-1.1-0.3-1.1-1c-0.1-0.8,0.3-1.5,0.9-1.7
	C43.6,18.3,44.1,18.8,44.1,19.5z"/>
<linearGradient id="SVGID_23_" gradientUnits="userSpaceOnUse" x1="13.928" y1="-1.8689" x2="66.6691" y2="31.2192">
	<stop  offset="0" style="stop-color:#0C90C2"/>
	<stop  offset="1" style="stop-color:#2DD2AB"/>
</linearGradient>
<path class="st23" d="M47.5,18.3c0.1,0.7-0.3,1.5-0.8,1.6c-0.5,0.2-1-0.3-1.1-1c-0.1-0.7,0.3-1.5,0.8-1.6
	C47,17.2,47.5,17.6,47.5,18.3z"/>
<linearGradient id="SVGID_24_" gradientUnits="userSpaceOnUse" x1="15.3498" y1="-4.1352" x2="68.0909" y2="28.9529">
	<stop  offset="0" style="stop-color:#0C90C2"/>
	<stop  offset="1" style="stop-color:#2DD2AB"/>
</linearGradient>
<path class="st24" d="M50.7,17.2c0.1,0.7-0.2,1.4-0.7,1.6c-0.5,0.2-0.9-0.3-1-1c-0.1-0.7,0.3-1.4,0.7-1.6
	C50.2,16.1,50.6,16.5,50.7,17.2z"/>
<linearGradient id="SVGID_25_" gradientUnits="userSpaceOnUse" x1="16.6677" y1="-6.2359" x2="69.4088" y2="26.8522">
	<stop  offset="0" style="stop-color:#0C90C2"/>
	<stop  offset="1" style="stop-color:#2DD2AB"/>
</linearGradient>
<path class="st25" d="M53.7,16.2c0.1,0.7-0.2,1.3-0.7,1.5c-0.4,0.2-0.9-0.3-0.9-0.9c-0.1-0.7,0.2-1.4,0.7-1.5
	C53.2,15.1,53.6,15.5,53.7,16.2z"/>
<linearGradient id="SVGID_26_" gradientUnits="userSpaceOnUse" x1="17.8927" y1="-8.1885" x2="70.6338" y2="24.8996">
	<stop  offset="0" style="stop-color:#0C90C2"/>
	<stop  offset="1" style="stop-color:#2DD2AB"/>
</linearGradient>
<path class="st26" d="M56.4,15.2c0.1,0.6-0.2,1.3-0.6,1.4c-0.4,0.1-0.8-0.3-0.9-0.9c-0.1-0.7,0.2-1.3,0.6-1.4
	C55.9,14.2,56.3,14.6,56.4,15.2z"/>
<linearGradient id="SVGID_27_" gradientUnits="userSpaceOnUse" x1="19.0343" y1="-10.0082" x2="71.7754" y2="23.08">
	<stop  offset="0" style="stop-color:#0C90C2"/>
	<stop  offset="1" style="stop-color:#2DD2AB"/>
</linearGradient>
<path class="st27" d="M58.9,14.4c0.1,0.6-0.2,1.2-0.6,1.4c-0.4,0.1-0.7-0.3-0.8-0.9c-0.1-0.6,0.2-1.2,0.6-1.4
	C58.5,13.3,58.9,13.7,58.9,14.4z"/>
<linearGradient id="SVGID_28_" gradientUnits="userSpaceOnUse" x1="-7.775" y1="32.7247" x2="44.9661" y2="65.8128">
	<stop  offset="0" style="stop-color:#0C90C2"/>
	<stop  offset="1" style="stop-color:#2DD2AB"/>
</linearGradient>
<path class="st28" d="M9.9,41.7c0.1,1.1-0.7,2.4-1.8,2.8C7,45.1,6,44.6,6,43.4c-0.1-1.1,0.8-2.4,1.9-2.9C8.9,40.1,9.9,40.6,9.9,41.7
	z"/>
<linearGradient id="SVGID_29_" gradientUnits="userSpaceOnUse" x1="-4.5214" y1="27.5386" x2="48.2197" y2="60.6267">
	<stop  offset="0" style="stop-color:#0C90C2"/>
	<stop  offset="1" style="stop-color:#2DD2AB"/>
</linearGradient>
<path class="st29" d="M16.5,38.9c0.1,1-0.6,2.2-1.6,2.6c-1,0.4-1.8-0.1-1.9-1.1c-0.1-1.1,0.7-2.2,1.7-2.6
	C15.6,37.3,16.5,37.8,16.5,38.9z"/>
<linearGradient id="SVGID_30_" gradientUnits="userSpaceOnUse" x1="-1.6068" y1="22.8929" x2="51.1343" y2="55.981">
	<stop  offset="0" style="stop-color:#0C90C2"/>
	<stop  offset="1" style="stop-color:#2DD2AB"/>
</linearGradient>
<path class="st30" d="M22.4,36.3c0.1,1-0.6,2.1-1.4,2.5c-0.9,0.4-1.7-0.1-1.7-1.1c-0.1-1,0.6-2.1,1.5-2.5
	C21.6,34.8,22.4,35.3,22.4,36.3z"/>
<linearGradient id="SVGID_31_" gradientUnits="userSpaceOnUse" x1="1.0191" y1="18.7073" x2="53.7602" y2="51.7954">
	<stop  offset="0" style="stop-color:#0C90C2"/>
	<stop  offset="1" style="stop-color:#2DD2AB"/>
</linearGradient>
<path class="st31" d="M27.8,34c0.1,0.9-0.5,1.9-1.3,2.3c-0.8,0.4-1.5-0.1-1.6-1.1c-0.1-0.9,0.5-2,1.3-2.3C27,32.6,27.7,33.1,27.8,34
	z"/>
<linearGradient id="SVGID_32_" gradientUnits="userSpaceOnUse" x1="3.3972" y1="14.9167" x2="56.1383" y2="48.0049">
	<stop  offset="0" style="stop-color:#0C90C2"/>
	<stop  offset="1" style="stop-color:#2DD2AB"/>
</linearGradient>
<path class="st32" d="M32.6,31.9c0.1,0.9-0.4,1.8-1.1,2.2c-0.7,0.3-1.4-0.1-1.4-1c-0.1-0.9,0.5-1.9,1.2-2.2
	C31.9,30.5,32.6,31,32.6,31.9z"/>
<linearGradient id="SVGID_34_" gradientUnits="userSpaceOnUse" x1="5.5609" y1="11.4678" x2="58.3021" y2="44.5559">
	<stop  offset="0" style="stop-color:#0C90C2"/>
	<stop  offset="1" style="stop-color:#2DD2AB"/>
</linearGradient>
<path style="fill:url(#SVGID_34_);" d="M37.1,30c0.1,0.8-0.4,1.7-1,2c-0.7,0.3-1.3-0.2-1.3-1c-0.1-0.9,0.4-1.8,1.1-2
	C36.4,28.7,37,29.1,37.1,30z"/>
<linearGradient id="SVGID_35_" gradientUnits="userSpaceOnUse" x1="7.5381" y1="8.3162" x2="60.2793" y2="41.4043">
	<stop  offset="0" style="stop-color:#0C90C2"/>
	<stop  offset="1" style="stop-color:#2DD2AB"/>
</linearGradient>
<path style="fill:url(#SVGID_35_);" d="M41.1,28.2c0.1,0.8-0.3,1.7-0.9,1.9c-0.6,0.3-1.2-0.2-1.2-1c-0.1-0.8,0.4-1.7,1-1.9
	C40.5,27,41,27.4,41.1,28.2z"/>
<linearGradient id="SVGID_36_" gradientUnits="userSpaceOnUse" x1="9.3519" y1="5.4251" x2="62.093" y2="38.5132">
	<stop  offset="0" style="stop-color:#0C90C2"/>
	<stop  offset="1" style="stop-color:#2DD2AB"/>
</linearGradient>
<path style="fill:url(#SVGID_36_);" d="M44.8,26.6c0.1,0.8-0.3,1.6-0.9,1.8c-0.6,0.2-1.1-0.2-1.1-1c-0.1-0.8,0.3-1.6,0.9-1.8
	C44.2,25.4,44.7,25.9,44.8,26.6z"/>
<linearGradient id="SVGID_37_" gradientUnits="userSpaceOnUse" x1="11.0217" y1="2.7636" x2="63.7628" y2="35.8517">
	<stop  offset="0" style="stop-color:#0C90C2"/>
	<stop  offset="1" style="stop-color:#2DD2AB"/>
</linearGradient>
<path class="st34" d="M48.2,25.1c0.1,0.7-0.3,1.5-0.8,1.7c-0.5,0.2-1-0.2-1.1-0.9c-0.1-0.7,0.3-1.5,0.8-1.7
	C47.7,24,48.2,24.4,48.2,25.1z"/>
<linearGradient id="SVGID_39_" gradientUnits="userSpaceOnUse" x1="12.564" y1="0.3052" x2="65.3051" y2="33.3933">
	<stop  offset="0" style="stop-color:#0C90C2"/>
	<stop  offset="1" style="stop-color:#2DD2AB"/>
</linearGradient>
<path style="fill:url(#SVGID_39_);" d="M51.4,23.8c0.1,0.7-0.2,1.4-0.7,1.7c-0.5,0.2-0.9-0.2-1-0.9c-0.1-0.7,0.3-1.5,0.7-1.7
	C50.9,22.7,51.3,23.1,51.4,23.8z"/>
<linearGradient id="SVGID_40_" gradientUnits="userSpaceOnUse" x1="13.9929" y1="-1.9724" x2="66.734" y2="31.1157">
	<stop  offset="0" style="stop-color:#0C90C2"/>
	<stop  offset="1" style="stop-color:#2DD2AB"/>
</linearGradient>
<path style="fill:url(#SVGID_40_);" d="M54.3,22.5c0.1,0.7-0.2,1.4-0.6,1.6c-0.4,0.2-0.9-0.2-0.9-0.9c-0.1-0.7,0.2-1.4,0.7-1.6
	C53.8,21.4,54.3,21.8,54.3,22.5z"/>
<linearGradient id="SVGID_41_" gradientUnits="userSpaceOnUse" x1="15.3204" y1="-4.0884" x2="68.0615" y2="28.9997">
	<stop  offset="0" style="stop-color:#0C90C2"/>
	<stop  offset="1" style="stop-color:#2DD2AB"/>
</linearGradient>
<path style="fill:url(#SVGID_41_);" d="M57.1,21.3c0.1,0.7-0.2,1.3-0.6,1.5c-0.4,0.2-0.8-0.2-0.9-0.9c-0.1-0.7,0.2-1.3,0.6-1.5
	C56.6,20.3,57,20.7,57.1,21.3z"/>
<linearGradient id="SVGID_42_" gradientUnits="userSpaceOnUse" x1="16.557" y1="-6.0595" x2="69.2981" y2="27.0287">
	<stop  offset="0" style="stop-color:#0C90C2"/>
	<stop  offset="1" style="stop-color:#2DD2AB"/>
</linearGradient>
<path class="st36" d="M59.6,20.2c0.1,0.6-0.2,1.3-0.5,1.4c-0.4,0.2-0.7-0.2-0.8-0.9c-0.1-0.6,0.2-1.3,0.6-1.4
	C59.2,19.2,59.5,19.6,59.6,20.2z"/>
<linearGradient id="SVGID_43_" gradientUnits="userSpaceOnUse" x1="0.1006" y1="20.1713" x2="52.8418" y2="53.2594">
	<stop  offset="0" style="stop-color:#0C90C2"/>
	<stop  offset="1" style="stop-color:#2DD2AB"/>
</linearGradient>
<path class="st37" d="M12.2,26c0.1,1-0.7,2.1-1.7,2.5c-1,0.3-1.9-0.2-2-1.3c-0.1-1.1,0.7-2.2,1.8-2.5C11.3,24.4,12.1,25,12.2,26z"/>
<linearGradient id="SVGID_44_" gradientUnits="userSpaceOnUse" x1="2.8125" y1="15.8486" x2="55.5537" y2="48.9367">
	<stop  offset="0" style="stop-color:#0C90C2"/>
	<stop  offset="1" style="stop-color:#2DD2AB"/>
</linearGradient>
<path class="st38" d="M18.4,24.1c0.1,1-0.6,2-1.5,2.3c-0.9,0.3-1.7-0.3-1.8-1.3c-0.1-1,0.6-2,1.6-2.3C17.6,22.6,18.4,23.1,18.4,24.1
	z"/>
<linearGradient id="SVGID_45_" gradientUnits="userSpaceOnUse" x1="5.2522" y1="11.9599" x2="57.9933" y2="45.048">
	<stop  offset="0" style="stop-color:#0C90C2"/>
	<stop  offset="1" style="stop-color:#2DD2AB"/>
</linearGradient>
<path class="st39" d="M24.1,22.3c0.1,0.9-0.5,1.9-1.4,2.1c-0.8,0.3-1.6-0.3-1.6-1.2c-0.1-0.9,0.6-1.9,1.4-2.2
	C23.3,20.9,24,21.4,24.1,22.3z"/>
<linearGradient id="SVGID_46_" gradientUnits="userSpaceOnUse" x1="7.4586" y1="8.4429" x2="60.1998" y2="41.531">
	<stop  offset="0" style="stop-color:#0C90C2"/>
	<stop  offset="1" style="stop-color:#2DD2AB"/>
</linearGradient>
<path class="st40" d="M29.1,20.8c0.1,0.9-0.5,1.8-1.2,2c-0.8,0.2-1.4-0.3-1.5-1.2c-0.1-0.9,0.5-1.8,1.3-2
	C28.4,19.4,29.1,19.9,29.1,20.8z"/>
<linearGradient id="SVGID_47_" gradientUnits="userSpaceOnUse" x1="9.4638" y1="5.2468" x2="62.2049" y2="38.3349">
	<stop  offset="0" style="stop-color:#0C90C2"/>
	<stop  offset="1" style="stop-color:#2DD2AB"/>
</linearGradient>
<path class="st41" d="M33.8,19.3c0.1,0.8-0.4,1.7-1.1,1.9c-0.7,0.2-1.3-0.3-1.4-1.1c-0.1-0.9,0.4-1.7,1.1-1.9
	C33.1,18,33.7,18.5,33.8,19.3z"/>
<linearGradient id="SVGID_48_" gradientUnits="userSpaceOnUse" x1="11.294" y1="2.3294" x2="64.0352" y2="35.4175">
	<stop  offset="0" style="stop-color:#0C90C2"/>
	<stop  offset="1" style="stop-color:#2DD2AB"/>
</linearGradient>
<path class="st42" d="M38,18c0.1,0.8-0.4,1.6-1,1.8c-0.6,0.2-1.2-0.3-1.3-1.1c-0.1-0.8,0.4-1.6,1-1.8C37.4,16.7,37.9,17.2,38,18z"/>
<linearGradient id="SVGID_49_" gradientUnits="userSpaceOnUse" x1="12.9713" y1="-0.344" x2="65.7124" y2="32.7441">
	<stop  offset="0" style="stop-color:#0C90C2"/>
	<stop  offset="1" style="stop-color:#2DD2AB"/>
</linearGradient>
<path class="st43" d="M41.9,16.8c0.1,0.8-0.3,1.5-0.9,1.7c-0.6,0.2-1.1-0.3-1.2-1.1c-0.1-0.8,0.3-1.6,0.9-1.7
	C41.3,15.6,41.8,16.1,41.9,16.8z"/>
<linearGradient id="SVGID_50_" gradientUnits="userSpaceOnUse" x1="14.5139" y1="-2.8029" x2="67.2551" y2="30.2852">
	<stop  offset="0" style="stop-color:#0C90C2"/>
	<stop  offset="1" style="stop-color:#2DD2AB"/>
</linearGradient>
<path class="st44" d="M45.5,15.7c0.1,0.7-0.3,1.5-0.8,1.6c-0.5,0.2-1-0.3-1.1-1c-0.1-0.7,0.3-1.5,0.8-1.6
	C44.9,14.5,45.4,15,45.5,15.7z"/>
<linearGradient id="SVGID_51_" gradientUnits="userSpaceOnUse" x1="15.9376" y1="-5.0722" x2="68.6787" y2="28.0159">
	<stop  offset="0" style="stop-color:#0C90C2"/>
	<stop  offset="1" style="stop-color:#2DD2AB"/>
</linearGradient>
<path class="st45" d="M48.8,14.7c0.1,0.7-0.3,1.4-0.7,1.6c-0.5,0.2-1-0.3-1-1c-0.1-0.7,0.3-1.4,0.8-1.6C48.2,13.5,48.7,14,48.8,14.7
	z"/>
<linearGradient id="SVGID_52_" gradientUnits="userSpaceOnUse" x1="17.2555" y1="-7.1729" x2="69.9966" y2="25.9152">
	<stop  offset="0" style="stop-color:#0C90C2"/>
	<stop  offset="1" style="stop-color:#2DD2AB"/>
</linearGradient>
<path class="st46" d="M51.8,13.7c0.1,0.7-0.2,1.3-0.7,1.5c-0.5,0.1-0.9-0.3-1-1c-0.1-0.7,0.2-1.4,0.7-1.5
	C51.3,12.6,51.7,13.1,51.8,13.7z"/>
<linearGradient id="SVGID_53_" gradientUnits="userSpaceOnUse" x1="18.479" y1="-9.1231" x2="71.2201" y2="23.965">
	<stop  offset="0" style="stop-color:#0C90C2"/>
	<stop  offset="1" style="stop-color:#2DD2AB"/>
</linearGradient>
<path class="st47" d="M54.7,12.9c0.1,0.7-0.2,1.3-0.6,1.4c-0.4,0.1-0.8-0.3-0.9-1c-0.1-0.7,0.2-1.3,0.6-1.4
	C54.2,11.8,54.6,12.2,54.7,12.9z"/>
<linearGradient id="SVGID_54_" gradientUnits="userSpaceOnUse" x1="19.6179" y1="-10.9385" x2="72.3591" y2="22.1496">
	<stop  offset="0" style="stop-color:#0C90C2"/>
	<stop  offset="1" style="stop-color:#2DD2AB"/>
</linearGradient>
<path class="st48" d="M57.3,12c0.1,0.6-0.2,1.2-0.6,1.4c-0.4,0.1-0.8-0.3-0.8-0.9c-0.1-0.6,0.2-1.3,0.6-1.4
	C56.9,11,57.2,11.4,57.3,12z"/>
<linearGradient id="SVGID_55_" gradientUnits="userSpaceOnUse" x1="20.6808" y1="-12.6326" x2="73.4219" y2="20.4555">
	<stop  offset="0" style="stop-color:#0C90C2"/>
	<stop  offset="1" style="stop-color:#2DD2AB"/>
</linearGradient>
<path class="st49" d="M59.8,11.3c0.1,0.6-0.2,1.2-0.5,1.3c-0.4,0.1-0.7-0.3-0.8-0.9c-0.1-0.6,0.2-1.2,0.5-1.3
	C59.4,10.3,59.7,10.7,59.8,11.3z"/>
<linearGradient id="SVGID_56_" gradientUnits="userSpaceOnUse" x1="-3.9067" y1="26.5587" x2="48.8345" y2="59.6469">
	<stop  offset="0" style="stop-color:#0C90C2"/>
	<stop  offset="1" style="stop-color:#2DD2AB"/>
</linearGradient>
<path class="st50" d="M12.8,35.1c0.1,1-0.7,2.2-1.7,2.6c-1,0.4-1.9-0.1-2-1.2c-0.1-1.1,0.7-2.3,1.8-2.6
	C11.9,33.6,12.7,34.1,12.8,35.1z"/>
<linearGradient id="SVGID_57_" gradientUnits="userSpaceOnUse" x1="-0.9572" y1="21.8574" x2="51.7839" y2="54.9455">
	<stop  offset="0" style="stop-color:#0C90C2"/>
	<stop  offset="1" style="stop-color:#2DD2AB"/>
</linearGradient>
<path class="st51" d="M19,32.7c0.1,1-0.6,2.1-1.5,2.5c-0.9,0.4-1.8-0.1-1.8-1.2c-0.1-1,0.6-2.1,1.6-2.5C18.2,31.2,19,31.7,19,32.7z"
	/>
<linearGradient id="SVGID_58_" gradientUnits="userSpaceOnUse" x1="1.6937" y1="17.632" x2="54.4348" y2="50.7201">
	<stop  offset="0" style="stop-color:#0C90C2"/>
	<stop  offset="1" style="stop-color:#2DD2AB"/>
</linearGradient>
<path class="st52" d="M24.7,30.5c0.1,0.9-0.5,2-1.4,2.3c-0.8,0.3-1.6-0.2-1.7-1.1c-0.1-1,0.6-2,1.4-2.3
	C23.9,29.1,24.6,29.6,24.7,30.5z"/>
<linearGradient id="SVGID_59_" gradientUnits="userSpaceOnUse" x1="4.0892" y1="13.8136" x2="56.8303" y2="46.9018">
	<stop  offset="0" style="stop-color:#0C90C2"/>
	<stop  offset="1" style="stop-color:#2DD2AB"/>
</linearGradient>
<path class="st53" d="M29.8,28.5c0.1,0.9-0.5,1.9-1.2,2.2c-0.8,0.3-1.4-0.2-1.5-1.1c-0.1-0.9,0.5-1.9,1.3-2.2
	C29,27.2,29.7,27.7,29.8,28.5z"/>
<linearGradient id="SVGID_60_" gradientUnits="userSpaceOnUse" x1="6.2645" y1="10.3463" x2="59.0056" y2="43.4344">
	<stop  offset="0" style="stop-color:#0C90C2"/>
	<stop  offset="1" style="stop-color:#2DD2AB"/>
</linearGradient>
<path class="st54" d="M34.4,26.7c0.1,0.8-0.4,1.8-1.1,2c-0.7,0.3-1.3-0.2-1.4-1.1c-0.1-0.9,0.4-1.8,1.1-2
	C33.7,25.4,34.3,25.9,34.4,26.7z"/>
<linearGradient id="SVGID_61_" gradientUnits="userSpaceOnUse" x1="8.2486" y1="7.1837" x2="60.9898" y2="40.2718">
	<stop  offset="0" style="stop-color:#0C90C2"/>
	<stop  offset="1" style="stop-color:#2DD2AB"/>
</linearGradient>
<path class="st55" d="M38.6,25.1c0.1,0.8-0.4,1.7-1,1.9c-0.6,0.3-1.2-0.2-1.3-1c-0.1-0.8,0.4-1.7,1-1.9C38,23.8,38.6,24.3,38.6,25.1
	z"/>
<linearGradient id="SVGID_62_" gradientUnits="userSpaceOnUse" x1="10.0657" y1="4.2873" x2="62.8069" y2="37.3754">
	<stop  offset="0" style="stop-color:#0C90C2"/>
	<stop  offset="1" style="stop-color:#2DD2AB"/>
</linearGradient>
<path class="st56" d="M42.5,23.6c0.1,0.8-0.3,1.6-0.9,1.8c-0.6,0.2-1.1-0.2-1.2-1c-0.1-0.8,0.3-1.6,0.9-1.8
	C41.9,22.4,42.5,22.8,42.5,23.6z"/>
<linearGradient id="SVGID_63_" gradientUnits="userSpaceOnUse" x1="11.7361" y1="1.6248" x2="64.4772" y2="34.713">
	<stop  offset="0" style="stop-color:#0C90C2"/>
	<stop  offset="1" style="stop-color:#2DD2AB"/>
</linearGradient>
<path class="st57" d="M46.1,22.2c0.1,0.7-0.3,1.5-0.8,1.7c-0.5,0.2-1-0.2-1.1-1c-0.1-0.8,0.3-1.5,0.8-1.7C45.5,21,46,21.5,46.1,22.2
	z"/>
<linearGradient id="SVGID_64_" gradientUnits="userSpaceOnUse" x1="13.2767" y1="-0.8309" x2="66.0179" y2="32.2572">
	<stop  offset="0" style="stop-color:#0C90C2"/>
	<stop  offset="1" style="stop-color:#2DD2AB"/>
</linearGradient>
<path class="st58" d="M49.4,20.9c0.1,0.7-0.3,1.4-0.7,1.6c-0.5,0.2-1-0.2-1-1c-0.1-0.7,0.3-1.5,0.8-1.6
	C48.9,19.8,49.3,20.2,49.4,20.9z"/>
<linearGradient id="SVGID_65_" gradientUnits="userSpaceOnUse" x1="14.7022" y1="-3.1031" x2="67.4434" y2="29.985">
	<stop  offset="0" style="stop-color:#0C90C2"/>
	<stop  offset="1" style="stop-color:#2DD2AB"/>
</linearGradient>
<path class="st59" d="M52.4,19.7c0.1,0.7-0.2,1.4-0.7,1.6c-0.5,0.2-0.9-0.2-1-0.9c-0.1-0.7,0.2-1.4,0.7-1.6
	C52,18.6,52.4,19.1,52.4,19.7z"/>
<linearGradient id="SVGID_66_" gradientUnits="userSpaceOnUse" x1="16.025" y1="-5.2116" x2="68.7662" y2="27.8765">
	<stop  offset="0" style="stop-color:#0C90C2"/>
	<stop  offset="1" style="stop-color:#2DD2AB"/>
</linearGradient>
<path class="st60" d="M55.3,18.6c0.1,0.7-0.2,1.3-0.6,1.5c-0.4,0.2-0.8-0.2-0.9-0.9c-0.1-0.7,0.2-1.3,0.6-1.5
	C54.8,17.6,55.2,18,55.3,18.6z"/>
<linearGradient id="SVGID_67_" gradientUnits="userSpaceOnUse" x1="17.2558" y1="-7.1734" x2="69.997" y2="25.9147">
	<stop  offset="0" style="stop-color:#0C90C2"/>
	<stop  offset="1" style="stop-color:#2DD2AB"/>
</linearGradient>
<path class="st61" d="M57.9,17.6c0.1,0.6-0.2,1.3-0.6,1.4c-0.4,0.2-0.8-0.2-0.8-0.9c-0.1-0.6,0.2-1.3,0.6-1.4
	C57.5,16.6,57.8,17,57.9,17.6z"/>
<linearGradient id="SVGID_68_" gradientUnits="userSpaceOnUse" x1="18.4039" y1="-9.0035" x2="71.1451" y2="24.0846">
	<stop  offset="0" style="stop-color:#0C90C2"/>
	<stop  offset="1" style="stop-color:#2DD2AB"/>
</linearGradient>
<path class="st62" d="M60.4,16.7c0.1,0.6-0.2,1.2-0.5,1.4c-0.4,0.1-0.7-0.2-0.8-0.9c-0.1-0.6,0.2-1.2,0.5-1.4
	C60,15.7,60.3,16,60.4,16.7z"/>
<linearGradient id="SVGID_69_" gradientUnits="userSpaceOnUse" x1="-8.304" y1="33.5679" x2="44.4372" y2="66.656">
	<stop  offset="0" style="stop-color:#0C90C2"/>
	<stop  offset="1" style="stop-color:#2DD2AB"/>
</linearGradient>
<path class="st63" d="M13.4,45.1c0.1,1.1-0.7,2.3-1.7,2.8c-1,0.5-2,0-2-1.1c-0.1-1.1,0.7-2.4,1.8-2.9C12.5,43.6,13.4,44.1,13.4,45.1
	z"/>
<linearGradient id="SVGID_70_" gradientUnits="userSpaceOnUse" x1="-5.0895" y1="28.4441" x2="47.6516" y2="61.5322">
	<stop  offset="0" style="stop-color:#0C90C2"/>
	<stop  offset="1" style="stop-color:#2DD2AB"/>
</linearGradient>
<path class="st64" d="M19.7,42.2c0.1,1-0.6,2.2-1.5,2.6c-0.9,0.5-1.8,0-1.8-1c-0.1-1,0.6-2.2,1.6-2.6C18.8,40.7,19.6,41.1,19.7,42.2
	z"/>
<linearGradient id="SVGID_71_" gradientUnits="userSpaceOnUse" x1="-2.2034" y1="23.8438" x2="50.5378" y2="56.9319">
	<stop  offset="0" style="stop-color:#0C90C2"/>
	<stop  offset="1" style="stop-color:#2DD2AB"/>
</linearGradient>
<path class="st65" d="M25.4,39.5c0.1,1-0.5,2-1.4,2.5c-0.8,0.4-1.6,0-1.7-1c-0.1-1,0.6-2.1,1.4-2.5C24.6,38.1,25.3,38.5,25.4,39.5z"
	/>
<linearGradient id="SVGID_72_" gradientUnits="userSpaceOnUse" x1="0.4022" y1="19.6905" x2="53.1434" y2="52.7786">
	<stop  offset="0" style="stop-color:#0C90C2"/>
	<stop  offset="1" style="stop-color:#2DD2AB"/>
</linearGradient>
<path class="st66" d="M30.5,37c0.1,0.9-0.5,1.9-1.2,2.3c-0.8,0.4-1.4-0.1-1.5-1c-0.1-0.9,0.5-2,1.3-2.3C29.7,35.7,30.4,36.1,30.5,37
	z"/>
<linearGradient id="SVGID_73_" gradientUnits="userSpaceOnUse" x1="2.7664" y1="15.9222" x2="55.5075" y2="49.0103">
	<stop  offset="0" style="stop-color:#0C90C2"/>
	<stop  offset="1" style="stop-color:#2DD2AB"/>
</linearGradient>
<path class="st67" d="M35.1,34.8c0.1,0.9-0.4,1.8-1.1,2.2c-0.7,0.3-1.3-0.1-1.4-1c-0.1-0.9,0.4-1.9,1.1-2.2
	C34.4,33.5,35,34,35.1,34.8z"/>
<linearGradient id="SVGID_74_" gradientUnits="userSpaceOnUse" x1="4.9211" y1="12.4877" x2="57.6622" y2="45.5758">
	<stop  offset="0" style="stop-color:#0C90C2"/>
	<stop  offset="1" style="stop-color:#2DD2AB"/>
</linearGradient>
<path class="st68" d="M39.3,32.8c0.1,0.8-0.4,1.7-1,2c-0.6,0.3-1.2-0.1-1.3-1c-0.1-0.8,0.4-1.8,1-2C38.7,31.6,39.3,32,39.3,32.8z"/>
<linearGradient id="SVGID_75_" gradientUnits="userSpaceOnUse" x1="6.8931" y1="9.3444" x2="59.6342" y2="42.4325">
	<stop  offset="0" style="stop-color:#0C90C2"/>
	<stop  offset="1" style="stop-color:#2DD2AB"/>
</linearGradient>
<path class="st69" d="M43.2,31c0.1,0.8-0.3,1.6-0.9,1.9c-0.6,0.3-1.1-0.1-1.2-0.9c-0.1-0.8,0.3-1.7,0.9-1.9
	C42.6,29.8,43.2,30.2,43.2,31z"/>
<linearGradient id="SVGID_76_" gradientUnits="userSpaceOnUse" x1="8.7046" y1="6.4569" x2="61.4457" y2="39.545">
	<stop  offset="0" style="stop-color:#0C90C2"/>
	<stop  offset="1" style="stop-color:#2DD2AB"/>
</linearGradient>
<path class="st70" d="M46.8,29.3c0.1,0.8-0.3,1.6-0.8,1.8c-0.5,0.3-1-0.1-1.1-0.9c-0.1-0.8,0.3-1.6,0.8-1.8
	C46.2,28.1,46.7,28.5,46.8,29.3z"/>
<linearGradient id="SVGID_77_" gradientUnits="userSpaceOnUse" x1="10.3745" y1="3.7952" x2="63.1156" y2="36.8833">
	<stop  offset="0" style="stop-color:#0C90C2"/>
	<stop  offset="1" style="stop-color:#2DD2AB"/>
</linearGradient>
<path class="st71" d="M50.1,27.7c0.1,0.7-0.3,1.5-0.7,1.7c-0.5,0.2-1-0.2-1-0.9c-0.1-0.7,0.3-1.5,0.8-1.7C49.6,26.6,50,27,50.1,27.7
	z"/>
<linearGradient id="SVGID_78_" gradientUnits="userSpaceOnUse" x1="11.9187" y1="1.3337" x2="64.6598" y2="34.4218">
	<stop  offset="0" style="stop-color:#0C90C2"/>
	<stop  offset="1" style="stop-color:#2DD2AB"/>
</linearGradient>
<path class="st72" d="M53.1,26.3c0.1,0.7-0.2,1.4-0.7,1.7c-0.5,0.2-0.9-0.2-1-0.9c-0.1-0.7,0.2-1.5,0.7-1.7
	C52.6,25.2,53.1,25.6,53.1,26.3z"/>
<linearGradient id="SVGID_79_" gradientUnits="userSpaceOnUse" x1="13.351" y1="-0.9493" x2="66.0921" y2="32.1388">
	<stop  offset="0" style="stop-color:#0C90C2"/>
	<stop  offset="1" style="stop-color:#2DD2AB"/>
</linearGradient>
<path class="st73" d="M56,24.9c0.1,0.7-0.2,1.4-0.6,1.6c-0.4,0.2-0.8-0.2-0.9-0.9c-0.1-0.7,0.2-1.4,0.6-1.6
	C55.5,23.9,55.9,24.3,56,24.9z"/>
<linearGradient id="SVGID_80_" gradientUnits="userSpaceOnUse" x1="14.683" y1="-3.0725" x2="67.4242" y2="30.0156">
	<stop  offset="0" style="stop-color:#0C90C2"/>
	<stop  offset="1" style="stop-color:#2DD2AB"/>
</linearGradient>
<path class="st74" d="M58.6,23.7c0.1,0.6-0.2,1.3-0.6,1.5c-0.4,0.2-0.8-0.2-0.8-0.8c-0.1-0.7,0.2-1.3,0.6-1.5
	C58.2,22.7,58.5,23.1,58.6,23.7z"/>
<linearGradient id="SVGID_81_" gradientUnits="userSpaceOnUse" x1="15.925" y1="-5.0522" x2="68.6662" y2="28.0359">
	<stop  offset="0" style="stop-color:#0C90C2"/>
	<stop  offset="1" style="stop-color:#2DD2AB"/>
</linearGradient>
<path class="st75" d="M61.1,22.5c0.1,0.6-0.2,1.3-0.5,1.4c-0.4,0.2-0.7-0.2-0.8-0.8c-0.1-0.6,0.2-1.3,0.5-1.5
	C60.6,21.5,61,21.9,61.1,22.5z"/>
<g>
	<linearGradient id="SVGID_82_" gradientUnits="userSpaceOnUse" x1="9.3923" y1="4.8867" x2="62.3025" y2="38.0809">
		<stop  offset="0" style="stop-color:#0C90C2"/>
		<stop  offset="1" style="stop-color:#2DD2AB"/>
	</linearGradient>
	<path class="st76" d="M80.9,49.2c-2.7,0-5.6-0.4-8.8-1.2c-3.5-0.9-6.7-2.1-9.6-3.6c-1.2-0.6-2.5-1.3-3.7-2c-1-0.6-2.1-1.1-3.1-1.7
		c-2.2-1.1-4.8-2.4-7.8-3c-2.7-0.6-5.1-0.5-7.6,0.3c-0.1,0-0.3,0.1-0.4,0.1l-0.1,0l-2,0.8l1.2-1.2l0.5-0.5c0.2-0.1,0.5-0.2,0.7-0.3
		c0.6-0.3,1.2-0.6,1.9-0.8c2.2-0.7,4.5-0.8,7.2-0.5c3.5,0.5,6.7,1.9,9.4,3.1c1,0.4,1.9,0.9,2.9,1.4c1.8,0.9,3.7,1.8,5.6,2.6
		c4,1.7,7.6,2.8,11.2,3.5c2.7,0.5,5,0.6,7.2,0.3c2.6-0.3,4.8-1.1,6.9-2.5c0.1-0.1,2.6-1.5,2.6-1.5l-1.7,2c-1,1.1-2.2,1.9-3.2,2.5
		c-2.4,1.3-5.1,2.1-8.4,2.2C81.6,49.2,81.2,49.2,80.9,49.2z M44.7,36.4c1.1,0,2.2,0.1,3.4,0.4c3,0.7,5.7,1.9,8,3.1
		c1,0.5,2.1,1.1,3.1,1.7c1.2,0.7,2.5,1.3,3.7,2c2.9,1.5,5.9,2.6,9.4,3.5c3.5,0.9,6.6,1.3,9.5,1.2c2.6-0.1,4.8-0.6,6.8-1.5
		c-0.9,0.3-1.9,0.5-2.9,0.6c-2.2,0.3-4.6,0.2-7.4-0.4c-3.7-0.7-7.4-1.8-11.4-3.5c-1.9-0.8-3.8-1.7-5.6-2.6c-0.9-0.5-1.9-0.9-2.9-1.4
		c-2.8-1.3-5.8-2.6-9.2-3C47.6,36.3,46.1,36.3,44.7,36.4z"/>
</g>
<g>
	<linearGradient id="SVGID_83_" gradientUnits="userSpaceOnUse" x1="11.0083" y1="-6.6138" x2="65.4001" y2="27.5098">
		<stop  offset="0" style="stop-color:#0C90C2"/>
		<stop  offset="1" style="stop-color:#2DD2AB"/>
	</linearGradient>
	<path class="st77" d="M80.9,43c-0.8,0-1.6,0-2.5-0.1c-3.3-0.3-6.6-1.2-9.9-2.7c-3.2-1.4-6.2-3.1-8.9-5.2c-0.1-0.1-1.7-1.7-1.7-1.7
		l2.6,0.9c0.4,0.2,0.9,0.4,1.3,0.6c3.9,1.6,7.4,2.8,10.7,3.7c2.5,0.6,4.7,1.1,6.9,1.3c2.2,0.2,4.2,0.3,6.1,0.1
		c2.4-0.2,4.3-0.7,6.1-1.4c0.5-0.2,0.9-0.4,1.4-0.7c0.2-0.1,0.4-0.2,0.7-0.3l0.8-0.4l0.8-0.5l1.3-0.8l-1.5,2
		c-0.5,0.7-1.2,1.2-1.8,1.7c-2.4,1.7-5.2,2.8-8.4,3.3C83.5,42.9,82.2,43,80.9,43z M62.9,36.2c1.9,1.2,3.9,2.3,6,3.2
		c3.2,1.4,6.4,2.3,9.7,2.6c2,0.2,4,0.1,6.1-0.2c2.6-0.4,4.8-1.2,6.9-2.4c-1.7,0.7-3.7,1.1-6,1.3c-2,0.2-4,0.2-6.2-0.1
		c-2.2-0.2-4.5-0.7-7-1.3C69.3,38.6,66.3,37.6,62.9,36.2z"/>
</g>
<g>
	<linearGradient id="SVGID_84_" gradientUnits="userSpaceOnUse" x1="-0.9571" y1="21.3395" x2="52.5802" y2="54.9272">
		<stop  offset="0" style="stop-color:#0C90C2"/>
		<stop  offset="1" style="stop-color:#2DD2AB"/>
	</linearGradient>
	<path class="st78" d="M62.8,50.9L60.4,50c-0.5-0.2-1-0.4-1.6-0.6l-1.4-0.6c-1.7-0.6-3.4-1.3-5.1-1.9c-2.9-1-5.8-1.8-8.7-2.3
		c-2.8-0.5-5.1-0.7-7.2-0.6c-3.4,0.1-6.2,0.6-8.8,1.7c-0.6,0.2-1.1,0.5-1.7,0.8c-0.3,0.1-0.5,0.3-0.8,0.4c-0.1,0.1-0.2,0.1-0.4,0.2
		l-0.1,0.1l-0.9,0.4l-0.6,0.3l0.9-1.4c1.3-1.5,2.9-2.6,5.1-3.7c2.4-1.1,5-1.7,8.2-1.9c3-0.2,6.1,0.2,9.5,1.1c3.8,1,7.4,2.6,11,4.9
		c0.8,0.5,1.7,1.1,2.5,1.7C60.7,48.8,62.8,50.9,62.8,50.9z M36.9,43.1c2.1,0,4.2,0.2,6.8,0.7c3,0.5,6,1.3,8.9,2.3
		c1.7,0.6,3.5,1.3,5.1,1.9l0.4,0.2c-0.3-0.2-0.5-0.3-0.8-0.5c-3.6-2.3-7.1-3.8-10.8-4.8c-3.4-0.9-6.4-1.2-9.3-1.1
		c-3,0.2-5.6,0.8-7.8,1.9c-0.8,0.4-1.5,0.7-2.1,1.1c2.6-1,5.5-1.6,8.9-1.7C36.5,43.1,36.7,43.1,36.9,43.1z"/>
</g>
<path d="M39.8,37.7C39.8,37.7,39.7,37.7,39.8,37.7C39.7,37.7,39.8,37.7,39.8,37.7L39.8,37.7z"/>
<path d="M93.7,44.2L93.7,44.2L93.7,44.2z"/>
<linearGradient id="SVGID_85_" gradientUnits="userSpaceOnUse" x1="-2.9764" y1="25.0759" x2="32.3852" y2="47.2607">
	<stop  offset="0" style="stop-color:#0C90C2"/>
	<stop  offset="1" style="stop-color:#2DD2AB"/>
</linearGradient>
<path class="st79" d="M27.8,44.4C27.8,44.4,27.8,44.4,27.8,44.4C27.8,44.4,27.8,44.4,27.8,44.4z"/>
</svg>
