<svg xmlns="http://www.w3.org/2000/svg" preserveAspectRatio="xMidYMid" width="173" height="104" viewBox="0 0 173 104"><defs><style>.cls-1{fill:url(#linear-gradient-1);fill-rule:evenodd}</style><linearGradient id="linear-gradient-1" gradientUnits="userSpaceOnUse" x1="34.5" y1="104" x2="138.5"><stop offset="0" stop-color="#00adef"/><stop offset="1" stop-color="#31ecbe"/></linearGradient></defs><path d="M170.996 36.764V21.086h-54.568c-7.451 0-13.513-6.077-13.513-13.544V2.021H86.02V.013h86.978V36.764h-2.002zm0-34.743h-66.078v5.521c0 6.361 5.163 11.536 11.51 11.536h54.568V2.021zM94.545 14.283l1.001.028-.052 2.006-1-.026c-.586-.019-57.697-1.293-83.859 13.352l8.36 2.002-.468 1.953-11.695-2.804.469-1.481-.022-.035.041-.025 3.152-9.945 1.911.606-2.487 7.841c26.706-14.773 82.247-13.534 84.649-13.472zm2.092 4.433l.982-.198.393 1.966-.982.198c-.17.034-17.305 3.57-36.944 15.368-17.791 10.686-41.278 30.519-53.022 64.51l7.476-3.99.94 1.773-10.614 5.663L0 92.987l1.832-.815 3.371 7.64C17.164 65.279 41.035 45.14 59.121 34.29c19.926-11.955 37.342-15.542 37.516-15.574zm-28.9 76.858c-5.207-26.593 3.289-45.138 11.491-56.077C88.325 27.363 98.694 21.85 99.131 21.62l.887-.463.927 1.777-.886.465c-.103.054-10.46 5.573-19.282 17.373-7.939 10.618-16.158 28.64-11.055 54.531l4.471-7.228 1.702 1.059-6.338 10.242-9.731-7.076 1.175-1.629 6.736 4.903z" class="cls-1"/></svg>