<svg xmlns="http://www.w3.org/2000/svg" preserveAspectRatio="xMidYMid" width="149" height="113" viewBox="0 0 149 113"><defs><style>.cls-1{fill:url(#linear-gradient-1);fill-rule:evenodd}</style><linearGradient id="linear-gradient-1" gradientUnits="userSpaceOnUse" x1="18" y1="113" x2="131"><stop offset="0" stop-color="#00adef"/><stop offset="1" stop-color="#31ecbe"/></linearGradient></defs><path d="M146.998 55.256V41.332h-11.204c-3.203 0-5.809-2.599-5.809-5.799V18.159c0-3.198 2.606-5.799 5.809-5.799h11.204V-.003h2.001v55.259h-2.001zm-11.204-40.898a3.809 3.809 0 0 0-3.808 3.801v17.374a3.81 3.81 0 0 0 3.808 3.802h11.204V14.358h-11.204zM54.61 109.901l7.943-2.896.686 1.878-11.292 4.114-3.291-11.54 1.927-.548 2.283 8.014c25.215-49.35 73.274-67.979 73.762-68.162l.936-.352.708 1.865-.935.355c-.482.182-47.885 18.578-72.727 67.272zM3.439 97.804l8.427-.553.13 1.996-11.995.786.085-11.999 2.004.013-.062 8.339c50.298-53.053 121.282-58.52 121.999-58.57l.999-.068.137 1.994-.998.069c-.71.049-70.978 5.48-120.726 57.993zm118.388-62.318c-.689-.072-68.179-6.967-100.547 4.308l7.861 3.412-.801 1.833-11.023-4.786.725-1.379-.005-.012.013-.005 4.849-9.23 1.775.926-3.826 7.28c32.905-11.309 100.496-4.407 101.189-4.334l.994.103-.208 1.987-.996-.103z" class="cls-1"/></svg>