<svg xmlns="http://www.w3.org/2000/svg" preserveAspectRatio="xMidYMid" width="211" height="91" viewBox="0 0 211 91"><defs><style>.cls-1{fill:url(#linear-gradient-1);fill-rule:evenodd}</style><linearGradient id="linear-gradient-1" gradientUnits="userSpaceOnUse" x1="60" y1="91" x2="151"><stop offset="0" stop-color="#00adef"/><stop offset="1" stop-color="#31ecbe"/></linearGradient></defs><path d="M194.646 19.925v3.981a.998.998 0 0 1-1.002.995h-14.023a1 1 0 0 1-1.002-.995v-3.981H32.376v3.981a.998.998 0 0 1-1.002.995H17.351a1 1 0 0 1-1.002-.995v-3.981H-.001v-1.99h16.35V14.95a1 1 0 0 1 1.002-.996h61.086V.985a.998.998 0 0 1 1.002-.995h52.086a.997.997 0 0 1 1.002.995v12.969h61.117a.999.999 0 0 1 1.002.996v2.985h16.35v1.99h-16.35zM18.353 22.91h12.02v-2.985h-12.02v2.985zm60.084-6.965H18.353v1.99h60.084v-1.99zm52.087-.995V1.979H80.44v15.956h50.084V14.95zm62.119.995h-60.116v1.99h60.116v-1.99zm0 3.98h-12.02v2.985h12.02v-2.985zM19.499 30.73l.142-.985 1.983.283-.143.986c-.053.369-4.881 36.618 24.636 54.773l-2.29-8.183 1.932-.532 3.22 11.517-1.528.305-.006.01-.012-.007-10.249 2.045-.396-1.953 8.105-1.614c-30.46-18.881-25.45-56.263-25.394-56.645zm6.868.341l-.2-.974 1.96-.399.203.973c.046.223 4.838 21.897 29.782 31.305l-3.779-7.667 1.802-.874 5.289 10.736-1.441.575-.006.018-.02-.007-9.694 3.874-.75-1.848 7.623-3.043c-25.779-9.864-30.721-32.437-30.769-32.669zm129.331 23.264l-3.81 7.652C177.156 52.569 181.955 30.894 182 30.67l.204-.974 1.961.402-.202.974c-.049.233-5.044 22.824-31.104 32.681l7.611 3.074-.757 1.845-9.675-3.911-.024.008-.007-.02-1.438-.581 5.331-10.714 1.798.881zm11.032 23.293l-2.333 8.172c29.866-18.166 24.959-54.414 24.905-54.785l-.145-.985 1.983-.287.145.984c.055.383 5.118 37.79-25.669 56.666l8.095 1.656-.406 1.951-10.235-2.098-.015.008-.007-.012-1.527-.312 3.279-11.499 1.93.541z" class="cls-1"/></svg>