<svg xmlns="http://www.w3.org/2000/svg" preserveAspectRatio="xMidYMid" width="164" height="100" viewBox="0 0 164 100"><defs><style>.cls-1{fill:url(#linear-gradient-1);fill-rule:evenodd}</style><linearGradient id="linear-gradient-1" gradientUnits="userSpaceOnUse" x1="32" y1="100" x2="132"><stop offset="0" stop-color="#00adef"/><stop offset="1" stop-color="#31ecbe"/></linearGradient></defs><path d="M164 100.008H124.078v-1.991h8.996V17.31c0-5.487 4.463-9.934 9.969-9.934h9.494a3.523 3.523 0 0 1 3.529 3.517v87.124H164v1.991zm-9.934-88.763a1.88 1.88 0 0 0-1.883-1.877h-9.14c-4.401 0-7.97 3.557-7.97 7.942v80.707h18.993V11.245zm-30.179 23.519c-.601-.116-60.18-11.235-119.857 10.693l7.79 3.342-.793 1.83-11.028-4.732 5.537-10.614 1.777.917-3.829 7.336c60.17-22.055 120.18-10.843 120.784-10.727l.982.191-.382 1.954-.981-.19zm-.476-6.508c-.373-.157-37.382-15.572-86.183-19.58l5.666 6.218-1.483 1.34-8.069-8.859 9.453-7.376 1.235 1.569-6.577 5.129c49.107 4.042 86.362 19.566 86.738 19.725l.919.39-.78 1.833-.919-.389zM51.197 71.097c23.687-26.258 71.726-31.44 72.217-31.491l.994-.1.204 1.982-.995.102c-.482.047-47.61 5.14-70.81 30.702l8.244-.997.239 1.979-11.92 1.441-.575-11.95 1.998-.097.404 8.429z" class="cls-1"/></svg>