<svg xmlns="http://www.w3.org/2000/svg" width="33" height="21"><path fill-rule="evenodd" fill="#BBB" d="M16.053 19.775h1.915s.579-.066.874-.397c.272-.303.263-.873.263-.873s-.037-2.668 1.155-3.062c1.176-.387 2.686 2.579 4.286 3.72 1.21.863 2.129.674 2.129.674l4.279-.062s2.238-.143 1.177-1.971c-.087-.149-.618-1.351-3.182-3.822-2.683-2.586-2.323-2.168.909-6.641 1.968-2.725 2.755-4.388 2.509-5.1-.234-.679-1.682-.499-1.682-.499l-4.818.031s-.357-.051-.622.114c-.259.161-.425.537-.425.537s-.762 2.107-1.779 3.9c-2.145 3.783-3.003 3.984-3.354 3.748-.815-.548-.611-2.199-.611-3.372 0-3.667.535-5.196-1.043-5.591-.524-.131-.91-.218-2.249-.232-1.719-.018-3.174.005-3.997.425-.548.278-.971.899-.714.935.319.044 1.04.202 1.422.742.494.698.477 2.264.477 2.264s.283 4.316-.663 4.852c-.649.367-1.54-.383-3.453-3.815-.979-1.758-1.719-3.702-1.719-3.702s-.143-.363-.397-.557c-.309-.236-.74-.31-.74-.31l-4.578.031s-.687.02-.94.33c-.224.276-.018.847-.018.847s3.584 8.708 7.642 13.096c3.722 4.024 7.947 3.76 7.947 3.76z"/></svg>