<svg xmlns="http://www.w3.org/2000/svg" width="38" height="25"><path fill-rule="evenodd" fill="#BBB" d="M33.19 13.782v4.185h-2.93v-4.185h-4.109v-2.984h4.109V6.613h2.93v4.185h4.109v2.984H33.19zM3.647 21.305C-.92 16.59-.87 8.989 3.759 4.337 8.234-.16 15.324-.226 19.919 4.032l-3.431 3.495.005-.006c-2.528-2.518-6.71-2.405-9.306.245-2.729 2.785-2.759 7.337-.066 10.161 2.693 2.823 7.397 2.851 9.921.046.7-.779 1.096-1.701 1.29-2.707h-6.295v-4.785h11.088c.616 4.02-.127 8.075-2.711 10.902-4.28 4.684-12.199 4.637-16.767-.078z"/></svg>