<svg xmlns="http://www.w3.org/2000/svg" preserveAspectRatio="xMidYMid" width="16" height="13" viewBox="0 0 16 13"><path fill="#BBB" d="M15.558.238a6.547 6.547 0 0 1-2.085.797A3.282 3.282 0 0 0 7.88 4.027 9.318 9.318 0 0 1 1.114.599 3.28 3.28 0 0 0 2.13 4.98a3.276 3.276 0 0 1-1.486-.412v.041a3.288 3.288 0 0 0 2.632 3.22 3.368 3.368 0 0 1-.865.114c-.212 0-.416-.021-.618-.06a3.288 3.288 0 0 0 3.066 2.281 6.593 6.593 0 0 1-4.076 1.404c-.265 0-.527-.015-.783-.044a9.3 9.3 0 0 0 5.031 1.474c6.038 0 9.339-5.002 9.339-9.34l-.011-.425A6.603 6.603 0 0 0 16 1.536a6.588 6.588 0 0 1-1.885.518A3.306 3.306 0 0 0 15.558.238z"/></svg>