<svg xmlns="http://www.w3.org/2000/svg" preserveAspectRatio="xMidYMid" width="11.187" height="17.28" viewBox="0 0 11.187 17.28"><path fill="#BBB" d="M10.895 10.479c-.577.55-1.27.948-2.04 1.225-.728.263-1.525.395-2.314.483.119.121.175.18.249.249 1.072 1.002 2.148 1.998 3.217 3.003.364.343.439.767.239 1.165-.219.435-.709.72-1.19.691-.305-.021-.543-.162-.754-.359-.809-.757-1.633-1.5-2.425-2.271-.231-.225-.342-.182-.545.013-.814.779-1.641 1.545-2.473 2.309-.373.342-.817.403-1.251.208-.46-.207-.753-.644-.731-1.084.016-.297.173-.524.393-.727 1.06-.986 2.118-1.972 3.176-2.959.07-.066.136-.135.237-.237-1.442-.139-2.743-.47-3.857-1.28-.139-.101-.281-.198-.407-.311-.488-.434-.537-.934-.151-1.447.33-.44.884-.558 1.46-.305.111.049.217.11.319.175 2.076 1.327 4.928 1.363 7.011.061a1.95 1.95 0 0 1 .683-.329c.498-.119.961.051 1.228.455.305.462.301.914-.074 1.272zM5.563 8.758C2.988 8.751.877 6.766.893 4.369.907 1.945 3.02-.008 5.619-.001c2.605.007 4.695 1.988 4.682 4.436-.013 2.392-2.138 4.332-4.738 4.323zM5.6 2.236c-1.288-.001-2.317.963-2.307 2.165.01 1.185 1.038 2.126 2.319 2.122 1.277-.005 2.294-.958 2.29-2.148C7.897 3.184 6.878 2.237 5.6 2.236z" class="cls-1"/></svg>