<svg id="sound" xmlns="http://www.w3.org/2000/svg" width="271" height="271" viewBox="0 0 271 271"><defs><style>.cls-1{fill:#f5f5f5;stroke:#fff;stroke-width:1px}.cls-2{fill:red}.cls-2,.cls-3{fill-rule:evenodd}</style></defs><circle id="base" class="cls-1" cx="135.5" cy="135.5" r="135"/><path class="cls-2" d="M1363 5686.51a1 1 0 0 0-1 1V5718a1 1 0 0 0 2 0v-30.49a1 1 0 0 0-1-1zm-15.69-18.29a1 1 0 0 0-1 1V5718a1 1 0 0 0 2 0v-48.78a1 1 0 0 0-1-1zm-15.68-18.29a1 1 0 0 0-1 1V5718a1 1 0 0 0 2 0v-67.07a1 1 0 0 0-1-1zm-15.69-18.3a1 1 0 0 0-1 1V5718a1 1 0 0 0 2 0v-85.37a1 1 0 0 0-1-1zm-15.68-16.27a1 1 0 0 0-1 1V5718a1 1 0 0 0 2 0v-101.64a1 1 0 0 0-1-1z" transform="translate(-1145 -5523)"/><path id="Shape_19_copy" data-name="Shape 19 copy" class="cls-3" d="M1266.72 5591.14a1.03 1.03 0 0 0-1.11.28l-33.38 38.31H1199a1 1 0 0 0-1 1v48.62a1 1 0 0 0 1 1h33.23l33.38 38.31a1.017 1.017 0 0 0 .76.34 1.12 1.12 0 0 0 .35-.06 1.007 1.007 0 0 0 .65-.94v-125.92a1.007 1.007 0 0 0-.65-.94zm-66.72 40.59h31.68v46.62H1200v-46.62zm65.37 83.6l-31.69-36.35v-47.88l31.69-36.35v120.58z" transform="translate(-1145 -5523)"/></svg>