<svg xmlns="http://www.w3.org/2000/svg" width="118" height="105" viewBox="0 0 118 105"><path fill-rule="evenodd" fill="#FFF" d="M116.198 104.184a1 1 0 0 1-.999-1.002V70.149a1 1 0 1 1 1.998 0v33.033a1 1 0 0 1-.999 1.002zm-9.07 0a1 1 0 0 1-.999-1.002V51.098a1 1 0 1 1 1.998 0v52.084a1 1 0 0 1-.999 1.002zm-9.994 0a1 1 0 0 1-.999-1.002V32.067a1 1 0 0 1 .999-1.003c.553 0 1 .449 1 1.003v71.115a1 1 0 0 1-1 1.002zm-9.993 0a1 1 0 0 1-.999-1.002V14.037a1 1 0 1 1 1.999 0v89.145a1 1 0 0 1-1 1.002zm-9.993 0a1 1 0 0 1-.999-1.002V1.016a1 1 0 1 1 1.998 0v102.166a1 1 0 0 1-.999 1.002zm-21.559-1.066a.998.998 0 0 1-1.103-.279L27.802 72.131H1.275a1 1 0 0 1-.999-1.002V32.067a1 1 0 0 1 .999-1.003h26.527L54.486.357a.998.998 0 0 1 1.752.659V102.18a1 1 0 0 1-.649.938zm-28.331-70.05H2.275v37.06h24.983v-37.06zM54.24 3.691l-24.984 28.75v38.313L54.24 99.505V3.691z"/></svg>