<svg xmlns="http://www.w3.org/2000/svg" viewBox="0 0 266.25 304.67"><defs><style>.cls-1,.cls-3{fill:none;stroke:#838486}.cls-1{stroke-width:.75px}.cls-2{fill:#838486}.cls-3{stroke-width:.24px}.cls-4{fill:#cf4c45}.cls-5{fill:#595b5d}</style></defs><title>Ресурс 1</title><g id="Слой_2" data-name="Слой 2"><g id="Layer_2" data-name="Layer 2"><path class="cls-1" d="M265.97 295.37H11.14V9.1"/><path class="cls-2" d="M10.15 303.22a1.81 1.81 0 0 1 .08-.55 1.55 1.55 0 0 1 .23-.46 1.11 1.11 0 0 1 .37-.32 1 1 0 0 1 .48-.12 1 1 0 0 1 .48.12 1.07 1.07 0 0 1 .37.31 1.54 1.54 0 0 1 .23.46 1.85 1.85 0 0 1 .08.56 1.81 1.81 0 0 1-.08.55 1.56 1.56 0 0 1-.23.46 1.1 1.1 0 0 1-.37.32 1 1 0 0 1-1 0 1.09 1.09 0 0 1-.37-.32 1.54 1.54 0 0 1-.23-.46 1.85 1.85 0 0 1-.04-.55zm.22 0a1.64 1.64 0 0 0 .07.47 1.43 1.43 0 0 0 .19.4.93.93 0 0 0 .3.28.78.78 0 0 0 .78 0 .9.9 0 0 0 .3-.28 1.41 1.41 0 0 0 .18-.4 1.69 1.69 0 0 0 .07-.47 1.65 1.65 0 0 0-.07-.47 1.41 1.41 0 0 0-.19-.4.94.94 0 0 0-.3-.28.76.76 0 0 0-.39-.11.78.78 0 0 0-.31.04.81.81 0 0 0-.26.19 1.23 1.23 0 0 0-.19.28 1.4 1.4 0 0 0-.12.34 1.78 1.78 0 0 0-.06.41zM23 304.62v-.15l1-.95a3 3 0 0 0 .49-.53.78.78 0 0 0 .14-.43.56.56 0 0 0-.19-.43.64.64 0 0 0-.44-.13.78.78 0 0 0-.45.13 1.47 1.47 0 0 0-.37.39l-.16-.1a2.08 2.08 0 0 1 .19-.25 1.21 1.21 0 0 1 .21-.19.85.85 0 0 1 .27-.12 1.26 1.26 0 0 1 .33 0 .83.83 0 0 1 .59.22.73.73 0 0 1 .24.55.91.91 0 0 1 0 .27.93.93 0 0 1-.13.26 2.21 2.21 0 0 1-.21.26l-.32.31-.86.78h1.58v.19zM26.58 303.22a1.81 1.81 0 0 1 .08-.55 1.55 1.55 0 0 1 .23-.46 1.11 1.11 0 0 1 .37-.32 1 1 0 0 1 .48-.12 1 1 0 0 1 .48.12 1.07 1.07 0 0 1 .37.31 1.54 1.54 0 0 1 .23.46 1.85 1.85 0 0 1 .08.56 1.81 1.81 0 0 1-.08.55 1.56 1.56 0 0 1-.23.46 1.1 1.1 0 0 1-.37.32 1 1 0 0 1-1 0 1.09 1.09 0 0 1-.37-.32 1.54 1.54 0 0 1-.23-.46 1.85 1.85 0 0 1-.04-.55zm.22 0a1.64 1.64 0 0 0 .07.47 1.43 1.43 0 0 0 .19.4.93.93 0 0 0 .3.28.78.78 0 0 0 .78 0 .9.9 0 0 0 .3-.28 1.41 1.41 0 0 0 .18-.4 1.69 1.69 0 0 0 .07-.47 1.65 1.65 0 0 0-.07-.47 1.41 1.41 0 0 0-.19-.4.94.94 0 0 0-.3-.28.76.76 0 0 0-.39-.11.78.78 0 0 0-.32.07.81.81 0 0 0-.26.19 1.23 1.23 0 0 0-.19.28 1.4 1.4 0 0 0-.12.34 1.78 1.78 0 0 0-.05.38zM29.42 303.22a1.81 1.81 0 0 1 .08-.55 1.55 1.55 0 0 1 .23-.46 1.11 1.11 0 0 1 .37-.32 1 1 0 0 1 .48-.12 1 1 0 0 1 .48.12 1.07 1.07 0 0 1 .37.31 1.54 1.54 0 0 1 .23.46 1.85 1.85 0 0 1 .08.56 1.81 1.81 0 0 1-.08.55 1.56 1.56 0 0 1-.23.46 1.1 1.1 0 0 1-.37.32 1 1 0 0 1-1 0 1.09 1.09 0 0 1-.37-.32 1.54 1.54 0 0 1-.23-.46 1.85 1.85 0 0 1-.04-.55zm.22 0a1.64 1.64 0 0 0 .07.47 1.43 1.43 0 0 0 .19.4.93.93 0 0 0 .3.28.78.78 0 0 0 .78 0 .9.9 0 0 0 .3-.28 1.41 1.41 0 0 0 .18-.4 1.69 1.69 0 0 0 .07-.47 1.65 1.65 0 0 0-.07-.47 1.41 1.41 0 0 0-.19-.4.94.94 0 0 0-.3-.28.76.76 0 0 0-.39-.11.78.78 0 0 0-.32.07.81.81 0 0 0-.26.19 1.23 1.23 0 0 0-.19.28 1.4 1.4 0 0 0-.12.34 1.78 1.78 0 0 0-.05.38zM32.26 303.22a1.81 1.81 0 0 1 .08-.55 1.55 1.55 0 0 1 .23-.46 1.11 1.11 0 0 1 .37-.32 1 1 0 0 1 .48-.12 1 1 0 0 1 .48.12 1.07 1.07 0 0 1 .37.31 1.54 1.54 0 0 1 .23.46 1.85 1.85 0 0 1 .08.56 1.81 1.81 0 0 1-.08.55 1.56 1.56 0 0 1-.23.46 1.1 1.1 0 0 1-.37.32 1 1 0 0 1-1 0 1.09 1.09 0 0 1-.37-.32 1.54 1.54 0 0 1-.23-.46 1.85 1.85 0 0 1-.04-.55zm.22 0a1.64 1.64 0 0 0 .07.47 1.43 1.43 0 0 0 .19.4.93.93 0 0 0 .3.28.78.78 0 0 0 .78 0 .9.9 0 0 0 .3-.28 1.41 1.41 0 0 0 .18-.4 1.69 1.69 0 0 0 .07-.47 1.65 1.65 0 0 0-.07-.47 1.41 1.41 0 0 0-.19-.4.94.94 0 0 0-.3-.28.76.76 0 0 0-.39-.11.78.78 0 0 0-.32.07.81.81 0 0 0-.26.19 1.23 1.23 0 0 0-.19.28 1.4 1.4 0 0 0-.12.34 1.78 1.78 0 0 0-.05.38zM.14 287.9a1.81 1.81 0 0 1 .08-.55 1.55 1.55 0 0 1 .23-.46 1.11 1.11 0 0 1 .37-.32 1 1 0 0 1 .48-.12 1 1 0 0 1 .48.12 1.07 1.07 0 0 1 .37.31 1.54 1.54 0 0 1 .23.46 1.85 1.85 0 0 1 .08.56 1.81 1.81 0 0 1-.08.55 1.56 1.56 0 0 1-.23.46 1.1 1.1 0 0 1-.37.32 1 1 0 0 1-.48.12 1 1 0 0 1-.48-.12 1.09 1.09 0 0 1-.37-.32 1.54 1.54 0 0 1-.23-.46 1.85 1.85 0 0 1-.08-.55zm.22 0a1.64 1.64 0 0 0 .07.47 1.43 1.43 0 0 0 .19.4.93.93 0 0 0 .3.28.78.78 0 0 0 .78 0 .9.9 0 0 0 .3-.28 1.41 1.41 0 0 0 .18-.4 1.69 1.69 0 0 0 .07-.47 1.65 1.65 0 0 0-.07-.47A1.41 1.41 0 0 0 2 287a.94.94 0 0 0-.3-.28.76.76 0 0 0-.39-.11.78.78 0 0 0-.32.07.81.81 0 0 0-.26.19 1.23 1.23 0 0 0-.19.28 1.4 1.4 0 0 0-.12.34 1.78 1.78 0 0 0-.06.41zM2.87 289.3v-.15l1-.95a3 3 0 0 0 .49-.53.78.78 0 0 0 .14-.43.56.56 0 0 0-.19-.43.64.64 0 0 0-.45-.17.78.78 0 0 0-.45.13 1.47 1.47 0 0 0-.37.39l-.16-.1a2.08 2.08 0 0 1 .19-.25 1.21 1.21 0 0 1 .21-.19.85.85 0 0 1 .27-.12 1.26 1.26 0 0 1 .33 0 .83.83 0 0 1 .59.22.73.73 0 0 1 .24.55.91.91 0 0 1 0 .27.93.93 0 0 1-.13.26 2.21 2.21 0 0 1-.21.26l-.32.31-.86.78h1.59v.19zM.14 278.58a1.81 1.81 0 0 1 .08-.58 1.55 1.55 0 0 1 .23-.46 1.11 1.11 0 0 1 .37-.32 1 1 0 0 1 .48-.12 1 1 0 0 1 .48.12 1.07 1.07 0 0 1 .37.31 1.54 1.54 0 0 1 .23.46 1.85 1.85 0 0 1 .08.56 1.81 1.81 0 0 1-.08.55 1.56 1.56 0 0 1-.23.46 1.1 1.1 0 0 1-.37.32 1 1 0 0 1-.48.12 1 1 0 0 1-.48-.12 1.09 1.09 0 0 1-.37-.31 1.54 1.54 0 0 1-.23-.46 1.85 1.85 0 0 1-.08-.53zm.22 0a1.64 1.64 0 0 0 .07.47 1.43 1.43 0 0 0 .19.4.93.93 0 0 0 .3.28.78.78 0 0 0 .78 0 .9.9 0 0 0 .3-.28 1.41 1.41 0 0 0 .18-.4 1.69 1.69 0 0 0 .07-.47 1.65 1.65 0 0 0-.07-.47 1.41 1.41 0 0 0-.19-.4.94.94 0 0 0-.3-.28.76.76 0 0 0-.39-.11.78.78 0 0 0-.32.07.81.81 0 0 0-.26.19 1.23 1.23 0 0 0-.19.28 1.4 1.4 0 0 0-.12.34 1.78 1.78 0 0 0-.05.38zM2.9 279.53l.16-.13a1.07 1.07 0 0 0 .87.45.72.72 0 0 0 .49-.18.58.58 0 0 0 .2-.45.51.51 0 0 0-.24-.45 1.12 1.12 0 0 0-.63-.16H3.6l-.05-.12 1-1.11H3v-.19h1.79v.15l-.95 1.08h.28a1.24 1.24 0 0 1 .27.09 1 1 0 0 1 .23.15.65.65 0 0 1 .16.22.72.72 0 0 1 .06.29.75.75 0 0 1-.13.43.84.84 0 0 1-.33.29 1 1 0 0 1-.45.1 1.26 1.26 0 0 1-.59-.13 1.31 1.31 0 0 1-.44-.33zM.14 269.85a1.81 1.81 0 0 1 .08-.55 1.55 1.55 0 0 1 .23-.46 1.11 1.11 0 0 1 .37-.32 1 1 0 0 1 .48-.12 1 1 0 0 1 .48.12 1.07 1.07 0 0 1 .37.31 1.54 1.54 0 0 1 .23.46 1.85 1.85 0 0 1 .08.56 1.81 1.81 0 0 1-.08.55 1.56 1.56 0 0 1-.23.46 1.1 1.1 0 0 1-.37.32 1 1 0 0 1-.48.12 1 1 0 0 1-.48-.12 1.09 1.09 0 0 1-.37-.32 1.54 1.54 0 0 1-.23-.46 1.85 1.85 0 0 1-.08-.55zm.22 0a1.64 1.64 0 0 0 .07.47 1.43 1.43 0 0 0 .19.4.93.93 0 0 0 .3.28.78.78 0 0 0 .78 0 .9.9 0 0 0 .3-.28 1.41 1.41 0 0 0 .18-.4 1.69 1.69 0 0 0 .07-.47 1.65 1.65 0 0 0-.07-.47A1.41 1.41 0 0 0 2 269a.94.94 0 0 0-.3-.28.76.76 0 0 0-.39-.11.78.78 0 0 0-.32.07.81.81 0 0 0-.26.19 1.23 1.23 0 0 0-.19.28 1.4 1.4 0 0 0-.12.34 1.78 1.78 0 0 0-.06.36zM2.91 270.41l1.6-2h.19v2h.46v.18H4.7v.68h-.2v-.68H3zm.25 0H4.5v-1.66zM.14 261a1.81 1.81 0 0 1 .08-.55 1.55 1.55 0 0 1 .23-.45 1.11 1.11 0 0 1 .37-.32 1 1 0 0 1 .48-.12 1 1 0 0 1 .48.12 1.07 1.07 0 0 1 .37.31 1.54 1.54 0 0 1 .23.46 1.85 1.85 0 0 1 .08.56 1.81 1.81 0 0 1-.08.55 1.56 1.56 0 0 1-.23.46 1.1 1.1 0 0 1-.37.32 1 1 0 0 1-.48.12 1 1 0 0 1-.48-.12 1.09 1.09 0 0 1-.37-.34 1.54 1.54 0 0 1-.23-.46 1.85 1.85 0 0 1-.08-.54zm.22 0a1.64 1.64 0 0 0 .07.47 1.43 1.43 0 0 0 .19.4.93.93 0 0 0 .3.28.78.78 0 0 0 .78 0 .9.9 0 0 0 .3-.28 1.41 1.41 0 0 0 .18-.4 1.69 1.69 0 0 0 .07-.47 1.65 1.65 0 0 0-.07-.47 1.41 1.41 0 0 0-.19-.4.94.94 0 0 0-.3-.28.76.76 0 0 0-.39-.11.78.78 0 0 0-.32.07.81.81 0 0 0-.26.19 1.23 1.23 0 0 0-.19.28 1.4 1.4 0 0 0-.12.34 1.78 1.78 0 0 0-.05.38zM3.06 261.75a2.09 2.09 0 0 1-.09-.67 2 2 0 0 1 .14-.77 1.28 1.28 0 0 1 .4-.55 1 1 0 0 1 .6-.2 1 1 0 0 1 .42.08 1.69 1.69 0 0 1 .39.24l-.13.16a1.38 1.38 0 0 0-.33-.22.85.85 0 0 0-.36-.07.76.76 0 0 0-.66.38 1.8 1.8 0 0 0-.25 1v.07a1 1 0 0 1 .88-.52 1.07 1.07 0 0 1 .47.11.9.9 0 0 1 .36.31.77.77 0 0 1 .14.45.89.89 0 0 1-.13.47.9.9 0 0 1-.35.33 1.09 1.09 0 0 1-.9 0 1 1 0 0 1-.32-.21 1.13 1.13 0 0 1-.28-.39zm.21-.18a.64.64 0 0 0 .23.5.82.82 0 0 0 .56.2.73.73 0 0 0 .54-.21.71.71 0 0 0 .21-.52.62.62 0 0 0-.21-.48.79.79 0 0 0-.54-.19.83.83 0 0 0-.32.06.76.76 0 0 0-.25.16.72.72 0 0 0-.16.22.63.63 0 0 0-.06.26zM.14 252.41a1.81 1.81 0 0 1 .08-.55 1.55 1.55 0 0 1 .23-.46 1.11 1.11 0 0 1 .37-.32 1 1 0 0 1 .48-.08 1 1 0 0 1 .48.12 1.07 1.07 0 0 1 .37.31 1.54 1.54 0 0 1 .23.46 1.85 1.85 0 0 1 .08.56 1.81 1.81 0 0 1-.08.55 1.56 1.56 0 0 1-.23.46 1.1 1.1 0 0 1-.37.32 1 1 0 0 1-.48.12 1 1 0 0 1-.48-.12 1.09 1.09 0 0 1-.37-.32 1.54 1.54 0 0 1-.23-.46 1.85 1.85 0 0 1-.08-.59zm.22 0a1.64 1.64 0 0 0 .07.47 1.43 1.43 0 0 0 .19.4.93.93 0 0 0 .3.28.78.78 0 0 0 .78 0 .9.9 0 0 0 .3-.28 1.41 1.41 0 0 0 .18-.4 1.69 1.69 0 0 0 .07-.47 1.65 1.65 0 0 0-.07-.47 1.41 1.41 0 0 0-.19-.4.94.94 0 0 0-.3-.28.76.76 0 0 0-.39-.11.78.78 0 0 0-.32.07.81.81 0 0 0-.26.19 1.23 1.23 0 0 0-.19.28 1.4 1.4 0 0 0-.13.31 1.78 1.78 0 0 0-.04.41zM2.94 253.05a.6.6 0 0 1 .17-.42 1 1 0 0 1 .45-.27 1 1 0 0 1-.38-.26.58.58 0 0 1-.15-.4.6.6 0 0 1 .13-.38.87.87 0 0 1 .35-.26 1.2 1.2 0 0 1 .92 0 .87.87 0 0 1 .35.26.6.6 0 0 1 .14.39.57.57 0 0 1-.15.4 1 1 0 0 1-.38.26 1 1 0 0 1 .45.27.61.61 0 0 1 .17.43.66.66 0 0 1-.14.41.89.89 0 0 1-.37.28 1.37 1.37 0 0 1-.53.1 1.2 1.2 0 0 1-.74-.22.68.68 0 0 1-.29-.59zm.21 0a.51.51 0 0 0 .23.42 1 1 0 0 0 .6.17 1 1 0 0 0 .6-.17.52.52 0 0 0 .22-.43.51.51 0 0 0-.24-.43 1 1 0 0 0-.58-.17 1 1 0 0 0-.58.17.52.52 0 0 0-.24.46zm.1-1.36a.5.5 0 0 0 .21.41.82.82 0 0 0 .52.16.82.82 0 0 0 .52-.16.51.51 0 0 0 .21-.42.47.47 0 0 0-.21-.39.85.85 0 0 0-.52-.15.84.84 0 0 0-.52.16.48.48 0 0 0-.21.41zM.14 243.8a1.81 1.81 0 0 1 .08-.55 1.55 1.55 0 0 1 .23-.46 1.11 1.11 0 0 1 .37-.32 1 1 0 0 1 .48-.12 1 1 0 0 1 .48.12 1.07 1.07 0 0 1 .37.31 1.54 1.54 0 0 1 .23.46 1.85 1.85 0 0 1 .08.56 1.81 1.81 0 0 1-.08.55 1.56 1.56 0 0 1-.23.46 1.1 1.1 0 0 1-.37.32 1 1 0 0 1-.48.12 1 1 0 0 1-.48-.12 1.09 1.09 0 0 1-.37-.32 1.54 1.54 0 0 1-.23-.46 1.85 1.85 0 0 1-.08-.55zm.22 0a1.64 1.64 0 0 0 .07.47 1.43 1.43 0 0 0 .19.4.93.93 0 0 0 .3.28.78.78 0 0 0 .78 0 .9.9 0 0 0 .3-.28 1.41 1.41 0 0 0 .18-.4 1.69 1.69 0 0 0 .07-.47 1.65 1.65 0 0 0-.07-.47 1.41 1.41 0 0 0-.19-.4.94.94 0 0 0-.3-.28.76.76 0 0 0-.39-.11.78.78 0 0 0-.32.07.81.81 0 0 0-.26.19 1.23 1.23 0 0 0-.19.28 1.4 1.4 0 0 0-.12.34 1.78 1.78 0 0 0-.05.38zM3 243.29a.9.9 0 0 1 .28-.67 1 1 0 0 1 .71-.27 1 1 0 0 1 .71.28 1.11 1.11 0 0 1 .26.43 2.09 2.09 0 0 1 .09.67 2 2 0 0 1-.15.78 1.28 1.28 0 0 1-.41.54 1 1 0 0 1-.58.19 1.06 1.06 0 0 1-.44-.09 1.77 1.77 0 0 1-.4-.26l.13-.16a1.07 1.07 0 0 0 .71.32.78.78 0 0 0 .67-.38 1.68 1.68 0 0 0 .26-1v-.1a1 1 0 0 1-.87.54 1 1 0 0 1-.69-.25.8.8 0 0 1-.28-.57zm.22 0a.63.63 0 0 0 .21.49.79.79 0 0 0 .57.22.83.83 0 0 0 .32-.06.73.73 0 0 0 .25-.16.76.76 0 0 0 .15-.23.67.67 0 0 0-.17-.77.81.81 0 0 0-.57-.21.77.77 0 0 0-.31.06.67.67 0 0 0-.24.17.77.77 0 0 0-.15.24.78.78 0 0 0-.08.25zM0 233.7l.64-.24H.8v2.82H.6v-2.6l-.54.18zM1.41 236.28v-.15l1-.95a3 3 0 0 0 .49-.53.78.78 0 0 0 .14-.43.56.56 0 0 0-.19-.43.64.64 0 0 0-.45-.17.78.78 0 0 0-.45.13 1.47 1.47 0 0 0-.37.39l-.16-.1a2.08 2.08 0 0 1 .19-.25 1.21 1.21 0 0 1 .21-.19.85.85 0 0 1 .27-.12 1.26 1.26 0 0 1 .33 0 .83.83 0 0 1 .59.22.73.73 0 0 1 .24.55.91.91 0 0 1 0 .27.93.93 0 0 1-.13.26 2.21 2.21 0 0 1-.21.26l-.32.31-.86.78h1.59v.19zM0 225l.64-.24H.8v2.82H.6v-2.6l-.54.18zM1.45 227.15l.15-.15a1.2 1.2 0 0 0 .84.41.75.75 0 0 0 .54-.2.67.67 0 0 0 .21-.51.6.6 0 0 0-.22-.48.82.82 0 0 0-.55-.19 1.32 1.32 0 0 0-.63.18l-.16-.1.08-1.36h1.57v.19H1.89L1.82 226a1.4 1.4 0 0 1 .62-.15 1 1 0 0 1 .69.24.77.77 0 0 1 .28.61.84.84 0 0 1-.28.65 1 1 0 0 1-.7.25 1.18 1.18 0 0 1-.53-.13 1.66 1.66 0 0 1-.45-.32zM0 216.55l.64-.24H.8v2.82H.6v-2.6l-.54.18zM1.56 218.47a2.09 2.09 0 0 1-.09-.67 2 2 0 0 1 .14-.77 1.28 1.28 0 0 1 .4-.55 1 1 0 0 1 .6-.2 1 1 0 0 1 .42.08 1.69 1.69 0 0 1 .39.24l-.13.16a1.38 1.38 0 0 0-.33-.22.85.85 0 0 0-.36-.07.76.76 0 0 0-.66.38 1.8 1.8 0 0 0-.25 1v.07a1 1 0 0 1 .88-.52 1.07 1.07 0 0 1 .47.11.9.9 0 0 1 .36.31.77.77 0 0 1 .14.45.89.89 0 0 1-.13.47.9.9 0 0 1-.35.33 1.09 1.09 0 0 1-.9 0 1 1 0 0 1-.32-.21 1.13 1.13 0 0 1-.28-.39zm.21-.18a.64.64 0 0 0 .23.5.82.82 0 0 0 .56.2.73.73 0 0 0 .54-.21.71.71 0 0 0 .21-.52.62.62 0 0 0-.21-.48.79.79 0 0 0-.54-.19.83.83 0 0 0-.32.06.76.76 0 0 0-.25.16.72.72 0 0 0-.16.22.63.63 0 0 0-.06.26zM0 207.88l.64-.24H.8v2.82H.6v-2.6l-.54.14zM1.44 209.71a.6.6 0 0 1 .17-.42 1 1 0 0 1 .45-.27 1 1 0 0 1-.38-.26.58.58 0 0 1-.15-.4.6.6 0 0 1 .13-.38.87.87 0 0 1 .35-.26 1.2 1.2 0 0 1 .92 0 .87.87 0 0 1 .35.26.6.6 0 0 1 .14.39.57.57 0 0 1-.15.4 1 1 0 0 1-.38.26 1 1 0 0 1 .45.27.61.61 0 0 1 .17.43.66.66 0 0 1-.14.41.89.89 0 0 1-.37.28 1.37 1.37 0 0 1-.53.1 1.2 1.2 0 0 1-.74-.22.68.68 0 0 1-.29-.59zm.21 0a.51.51 0 0 0 .23.42 1 1 0 0 0 .6.17 1 1 0 0 0 .6-.17.52.52 0 0 0 .22-.43.51.51 0 0 0-.24-.43 1 1 0 0 0-.58-.17 1 1 0 0 0-.58.17.52.52 0 0 0-.24.46zm.1-1.36a.5.5 0 0 0 .21.41.82.82 0 0 0 .52.16.82.82 0 0 0 .52-.16.51.51 0 0 0 .21-.42A.47.47 0 0 0 3 208a.85.85 0 0 0-.52-.15.84.84 0 0 0-.48.15.48.48 0 0 0-.25.37zM.07 201.86v-.15l1-.95a3 3 0 0 0 .49-.53.78.78 0 0 0 .14-.43.56.56 0 0 0-.19-.43.64.64 0 0 0-.45-.17.78.78 0 0 0-.45.13 1.47 1.47 0 0 0-.37.39l-.16-.1a2.08 2.08 0 0 1 .19-.25 1.21 1.21 0 0 1 .21-.19.85.85 0 0 1 .27-.12 1.26 1.26 0 0 1 .33 0 .83.83 0 0 1 .59.22.73.73 0 0 1 .24.55.91.91 0 0 1 0 .27.93.93 0 0 1-.13.26 2.21 2.21 0 0 1-.21.26l-.32.31-.86.78H2v.19zM2.5 200.46a1.81 1.81 0 0 1 .08-.55 1.55 1.55 0 0 1 .23-.46 1.11 1.11 0 0 1 .37-.32 1 1 0 0 1 .48-.12 1 1 0 0 1 .48.12 1.07 1.07 0 0 1 .37.31 1.54 1.54 0 0 1 .23.46 1.85 1.85 0 0 1 .08.56 1.81 1.81 0 0 1-.08.55 1.56 1.56 0 0 1-.23.46 1.1 1.1 0 0 1-.37.32 1 1 0 0 1-1 0 1.09 1.09 0 0 1-.37-.32 1.54 1.54 0 0 1-.23-.46 1.85 1.85 0 0 1-.04-.55zm.22 0a1.64 1.64 0 0 0 .07.47 1.43 1.43 0 0 0 .19.4.93.93 0 0 0 .3.28.78.78 0 0 0 .78 0 .9.9 0 0 0 .3-.28 1.41 1.41 0 0 0 .18-.4 1.69 1.69 0 0 0 .07-.47 1.65 1.65 0 0 0-.07-.47 1.41 1.41 0 0 0-.19-.4.94.94 0 0 0-.3-.28.76.76 0 0 0-.39-.11.78.78 0 0 0-.32.07.81.81 0 0 0-.26.19 1.23 1.23 0 0 0-.19.28 1.4 1.4 0 0 0-.12.34 1.78 1.78 0 0 0-.05.38zM.07 192.82v-.15l1-.95a3 3 0 0 0 .49-.53.78.78 0 0 0 .14-.43.56.56 0 0 0-.19-.43.64.64 0 0 0-.45-.17.78.78 0 0 0-.45.13 1.47 1.47 0 0 0-.37.39l-.16-.1a2.08 2.08 0 0 1 .19-.25 1.21 1.21 0 0 1 .21-.19.85.85 0 0 1 .32-.14 1.26 1.26 0 0 1 .33 0 .83.83 0 0 1 .59.22.73.73 0 0 1 .24.55.91.91 0 0 1 0 .27.93.93 0 0 1-.13.26 2.21 2.21 0 0 1-.21.26l-.32.31-.86.78H2v.19zM2.31 192l1.6-2h.19v2h.46v.18H4.1v.68h-.2v-.68H2.38zm.25 0H3.9v-1.7zM.07 184.21v-.15l1-.95a3 3 0 0 0 .49-.53.78.78 0 0 0 .14-.43.56.56 0 0 0-.19-.43.64.64 0 0 0-.45-.17.78.78 0 0 0-.45.13 1.47 1.47 0 0 0-.37.39L.13 182a2.08 2.08 0 0 1 .19-.25 1.21 1.21 0 0 1 .21-.19.85.85 0 0 1 .27-.12 1.26 1.26 0 0 1 .33 0 .83.83 0 0 1 .59.22.73.73 0 0 1 .24.55.91.91 0 0 1 0 .27.93.93 0 0 1-.13.26 2.21 2.21 0 0 1-.21.26l-.32.31-.9.69H2v.19zM2.47 183.8l.15-.15a1.2 1.2 0 0 0 .84.41.75.75 0 0 0 .54-.2.67.67 0 0 0 .21-.51.6.6 0 0 0-.22-.48.82.82 0 0 0-.55-.19 1.32 1.32 0 0 0-.63.18l-.16-.1.08-1.36H4.3v.19H2.91l-.07 1.05a1.4 1.4 0 0 1 .62-.15 1 1 0 0 1 .69.24.77.77 0 0 1 .28.61.84.84 0 0 1-.28.65 1 1 0 0 1-.7.25 1.18 1.18 0 0 1-.53-.13 1.66 1.66 0 0 1-.45-.31zM.07 175.29v-.15l1-.95a3 3 0 0 0 .49-.53.78.78 0 0 0 .14-.43.56.56 0 0 0-.19-.43.64.64 0 0 0-.45-.17.78.78 0 0 0-.45.13 1.47 1.47 0 0 0-.37.39l-.16-.1a2.08 2.08 0 0 1 .19-.25 1.21 1.21 0 0 1 .21-.19.85.85 0 0 1 .27-.12 1.26 1.26 0 0 1 .33 0 .83.83 0 0 1 .59.22.73.73 0 0 1 .24.55.91.91 0 0 1 0 .27.93.93 0 0 1-.13.26 2.21 2.21 0 0 1-.21.26l-.32.31-.86.78H2v.19zM2.5 173.38a.9.9 0 0 1 .28-.67 1 1 0 0 1 .71-.27 1 1 0 0 1 .71.28 1.11 1.11 0 0 1 .26.43 2.09 2.09 0 0 1 .09.67 2 2 0 0 1-.15.78 1.28 1.28 0 0 1-.41.54 1 1 0 0 1-.58.19 1.06 1.06 0 0 1-.44-.09 1.77 1.77 0 0 1-.4-.26l.13-.16a1.07 1.07 0 0 0 .71.32.78.78 0 0 0 .67-.38 1.68 1.68 0 0 0 .26-1v-.1a1 1 0 0 1-.87.54 1 1 0 0 1-.69-.25.8.8 0 0 1-.28-.57zm.22 0a.63.63 0 0 0 .21.49.79.79 0 0 0 .55.19.83.83 0 0 0 .32-.06.73.73 0 0 0 .25-.16.76.76 0 0 0 .15-.23.67.67 0 0 0-.17-.77.81.81 0 0 0-.57-.21.77.77 0 0 0-.31.06.67.67 0 0 0-.24.17.77.77 0 0 0-.15.24.78.78 0 0 0-.04.28zM.1 166.29l.16-.13a1.08 1.08 0 0 0 .87.45.72.72 0 0 0 .49-.18.58.58 0 0 0 .2-.45.51.51 0 0 0-.24-.45 1.12 1.12 0 0 0-.63-.16H.8l-.05-.12 1-1.11H.24v-.19H2v.15l-1 1.08h.28a1.24 1.24 0 0 1 .27.09 1 1 0 0 1 .23.15.65.65 0 0 1 .16.22.72.72 0 0 1 .06.36.75.75 0 0 1-.13.43.84.84 0 0 1-.33.29 1 1 0 0 1-.45.1 1.26 1.26 0 0 1-.59-.13 1.31 1.31 0 0 1-.4-.4zM2.44 164.16l.64-.24h.16v2.82H3v-2.6l-.54.18zM.1 157.56l.16-.13a1.08 1.08 0 0 0 .87.45.72.72 0 0 0 .49-.18.58.58 0 0 0 .2-.45.51.51 0 0 0-.24-.45 1.12 1.12 0 0 0-.63-.16H.8l-.05-.12 1-1.11H.24v-.19H2v.15l-1 1.08h.28a1.24 1.24 0 0 1 .27.09 1 1 0 0 1 .23.15.65.65 0 0 1 .22.31.72.72 0 0 1 .06.29.75.75 0 0 1-.13.43.84.84 0 0 1-.33.29 1 1 0 0 1-.45.1 1.26 1.26 0 0 1-.59-.13 1.31 1.31 0 0 1-.46-.42zM2.54 157.56l.16-.13a1.08 1.08 0 0 0 .87.45.72.72 0 0 0 .49-.18.58.58 0 0 0 .2-.45.51.51 0 0 0-.26-.45 1.12 1.12 0 0 0-.63-.16h-.13l-.05-.12 1-1.11H2.68v-.19h1.75v.15l-.95 1.08h.28a1.24 1.24 0 0 1 .27.09 1 1 0 0 1 .23.15.65.65 0 0 1 .16.22.72.72 0 0 1 .06.29.75.75 0 0 1-.13.43.84.84 0 0 1-.35.37 1 1 0 0 1-.45.1 1.26 1.26 0 0 1-.59-.13 1.31 1.31 0 0 1-.42-.41zM.1 148.83l.16-.13a1.08 1.08 0 0 0 .87.45.72.72 0 0 0 .49-.18.58.58 0 0 0 .2-.45.51.51 0 0 0-.24-.45 1.12 1.12 0 0 0-.63-.16H.8l-.05-.12 1-1.11H.24v-.19H2v.15l-1 1.07h.28a1.24 1.24 0 0 1 .27.09 1 1 0 0 1 .23.15.65.65 0 0 1 .16.22.72.72 0 0 1 .06.29.75.75 0 0 1-.13.43.84.84 0 0 1-.33.29 1 1 0 0 1-.45.1 1.26 1.26 0 0 1-.59-.13 1.31 1.31 0 0 1-.4-.32zM2.66 148.62a2.09 2.09 0 0 1-.09-.67 2 2 0 0 1 .14-.77 1.28 1.28 0 0 1 .4-.55 1 1 0 0 1 .6-.2 1 1 0 0 1 .42.08 1.69 1.69 0 0 1 .39.24l-.13.16a1.38 1.38 0 0 0-.33-.22.85.85 0 0 0-.36-.07.76.76 0 0 0-.7.38 1.8 1.8 0 0 0-.25 1v.07a1 1 0 0 1 .88-.52 1.07 1.07 0 0 1 .47.11.9.9 0 0 1 .36.31.77.77 0 0 1 .14.45.89.89 0 0 1-.13.47.9.9 0 0 1-.35.33 1.09 1.09 0 0 1-.9 0 1 1 0 0 1-.32-.21 1.13 1.13 0 0 1-.24-.39zm.21-.18a.64.64 0 0 0 .23.5.82.82 0 0 0 .56.2.73.73 0 0 0 .54-.21.71.71 0 0 0 .21-.52.62.62 0 0 0-.21-.48.79.79 0 0 0-.54-.19.83.83 0 0 0-.32.06.76.76 0 0 0-.25.16.72.72 0 0 0-.16.22.63.63 0 0 0-.06.26zM.1 140.16l.16-.16a1.08 1.08 0 0 0 .87.45.72.72 0 0 0 .49-.18.58.58 0 0 0 .2-.45.51.51 0 0 0-.24-.45 1.12 1.12 0 0 0-.63-.16H.8l-.05-.12 1-1.11H.24v-.19H2v.21l-1 1h.28a1.24 1.24 0 0 1 .27.09 1 1 0 0 1 .23.15.65.65 0 0 1 .16.22.72.72 0 0 1 .06.29.75.75 0 0 1-.13.43.84.84 0 0 1-.33.29 1 1 0 0 1-.45.1 1.26 1.26 0 0 1-.59-.13 1.31 1.31 0 0 1-.4-.28zM2.49 138v-.19h1.86v.19l-1.28 2.65h-.23L4.12 138zM.07 131l1.6-2h.19v2h.46v.18h-.46v.68h-.2v-.68H.14zm.25 0h1.34v-1.7zM2.57 129.24l.64-.24h.16v2.82h-.2v-2.6l-.54.18zM.07 122.44l1.6-2h.19v2h.46v.18h-.46v.68h-.2v-.68H.14zm.25 0h1.34v-1.66zM2.75 122.82l.16-.13a1.08 1.08 0 0 0 .87.45.72.72 0 0 0 .49-.18.58.58 0 0 0 .2-.45.51.51 0 0 0-.24-.45 1.12 1.12 0 0 0-.63-.16h-.15l-.05-.12 1-1.11H2.89v-.19h1.76v.15l-.95 1.08h.28a1.24 1.24 0 0 1 .27.09 1 1 0 0 1 .23.15.65.65 0 0 1 .16.22.72.72 0 0 1 .06.29.75.75 0 0 1-.13.43.84.84 0 0 1-.33.29 1 1 0 0 1-.45.1 1.26 1.26 0 0 1-.59-.13 1.31 1.31 0 0 1-.45-.33zM.07 113.83l1.6-2h.19v2h.46v.17h-.46v.68h-.2V114H.14zm.25 0h1.34v-1.66zM2.88 114a2.09 2.09 0 0 1-.09-.67 2 2 0 0 1 .14-.77 1.28 1.28 0 0 1 .4-.55 1 1 0 0 1 .6-.2 1 1 0 0 1 .42.08 1.69 1.69 0 0 1 .39.24l-.13.16a1.38 1.38 0 0 0-.33-.22.85.85 0 0 0-.36-.07.76.76 0 0 0-.66.38 1.8 1.8 0 0 0-.25 1v.07a1 1 0 0 1 .88-.52 1.07 1.07 0 0 1 .47.11.9.9 0 0 1 .36.31.77.77 0 0 1 .14.45.89.89 0 0 1-.13.47.9.9 0 0 1-.35.33 1.09 1.09 0 0 1-.9 0 1 1 0 0 1-.32-.21 1.13 1.13 0 0 1-.28-.39zm.21-.18a.64.64 0 0 0 .23.5.82.82 0 0 0 .56.2.73.73 0 0 0 .54-.21.71.71 0 0 0 .21-.52.62.62 0 0 0-.21-.48.79.79 0 0 0-.54-.19.83.83 0 0 0-.32.06.76.76 0 0 0-.25.16.72.72 0 0 0-.16.22.63.63 0 0 0-.07.27zM.07 105.1l1.6-2h.19v2h.46v.18h-.46v.68h-.2v-.68H.14zm.25 0h1.34v-1.66zM2.76 104a.9.9 0 0 1 .28-.67 1 1 0 0 1 .71-.27 1 1 0 0 1 .71.28 1.11 1.11 0 0 1 .26.43 2.09 2.09 0 0 1 .09.67 2 2 0 0 1-.15.78 1.28 1.28 0 0 1-.41.54 1 1 0 0 1-.58.19 1.06 1.06 0 0 1-.44-.09 1.77 1.77 0 0 1-.4-.26l.13-.16a1.07 1.07 0 0 0 .71.32.78.78 0 0 0 .67-.38 1.68 1.68 0 0 0 .26-1v-.1a1 1 0 0 1-.87.54 1 1 0 0 1-.69-.25.8.8 0 0 1-.28-.57zm.24 0a.63.63 0 0 0 .21.49.79.79 0 0 0 .55.19.83.83 0 0 0 .32-.06.73.73 0 0 0 .25-.16.76.76 0 0 0 .15-.23.67.67 0 0 0-.17-.77.81.81 0 0 0-.57-.21.77.77 0 0 0-.31.06.67.67 0 0 0-.24.17.77.77 0 0 0-.15.24.78.78 0 0 0-.04.28zM.11 96.81l.15-.15a1.2 1.2 0 0 0 .84.41.75.75 0 0 0 .54-.2.67.67 0 0 0 .21-.51.6.6 0 0 0-.22-.48.82.82 0 0 0-.55-.19 1.32 1.32 0 0 0-.63.18l-.16-.1.08-1.36h1.57v.19H.55l-.07 1.06a1.4 1.4 0 0 1 .62-.15 1 1 0 0 1 .69.24.77.77 0 0 1 .28.61.84.84 0 0 1-.28.65 1 1 0 0 1-.7.25 1.18 1.18 0 0 1-.53-.13 1.66 1.66 0 0 1-.45-.32zM2.56 95.81a1.81 1.81 0 0 1 .08-.55 1.55 1.55 0 0 1 .23-.46 1.11 1.11 0 0 1 .37-.32 1 1 0 0 1 .48-.12 1 1 0 0 1 .48.12 1.07 1.07 0 0 1 .37.31 1.54 1.54 0 0 1 .23.46 1.85 1.85 0 0 1 .08.56 1.81 1.81 0 0 1-.08.55 1.56 1.56 0 0 1-.23.46 1.1 1.1 0 0 1-.37.32 1 1 0 0 1-1 0 1.09 1.09 0 0 1-.37-.32 1.54 1.54 0 0 1-.23-.46 1.85 1.85 0 0 1-.04-.55zm.22 0a1.64 1.64 0 0 0 .07.47 1.43 1.43 0 0 0 .19.4.93.93 0 0 0 .3.28.78.78 0 0 0 .78 0 .9.9 0 0 0 .3-.28 1.41 1.41 0 0 0 .18-.4 1.69 1.69 0 0 0 .07-.47 1.65 1.65 0 0 0-.07-.47 1.41 1.41 0 0 0-.19-.4.94.94 0 0 0-.3-.28.76.76 0 0 0-.39-.11.78.78 0 0 0-.32.07.81.81 0 0 0-.26.19 1.23 1.23 0 0 0-.19.28 1.4 1.4 0 0 0-.12.34 1.78 1.78 0 0 0-.05.38zM.11 88.07l.15-.15a1.2 1.2 0 0 0 .84.41.75.75 0 0 0 .54-.2.67.67 0 0 0 .21-.51.6.6 0 0 0-.22-.48.82.82 0 0 0-.55-.14 1.32 1.32 0 0 0-.63.18L.29 87l.08-1.36h1.57v.19H.55l-.07 1.1a1.4 1.4 0 0 1 .62-.15 1 1 0 0 1 .69.24.77.77 0 0 1 .28.61.84.84 0 0 1-.28.65 1 1 0 0 1-.7.25 1.18 1.18 0 0 1-.53-.13 1.66 1.66 0 0 1-.45-.33zM2.42 85.89l.64-.24h.16v2.82H3v-2.6l-.54.18zM.11 79.34l.15-.15a1.2 1.2 0 0 0 .84.41.75.75 0 0 0 .54-.2.67.67 0 0 0 .21-.51.6.6 0 0 0-.22-.48.82.82 0 0 0-.55-.19 1.32 1.32 0 0 0-.63.18l-.16-.1.08-1.36h1.57v.19H.55l-.07 1.06A1.4 1.4 0 0 1 1.1 78a1 1 0 0 1 .69.24.77.77 0 0 1 .28.61.84.84 0 0 1-.28.65 1 1 0 0 1-.7.25 1.18 1.18 0 0 1-.53-.13 1.66 1.66 0 0 1-.45-.28zM2.64 79.08a2.09 2.09 0 0 1-.09-.67 2 2 0 0 1 .14-.77 1.28 1.28 0 0 1 .4-.55 1 1 0 0 1 .6-.2 1 1 0 0 1 .42.08 1.69 1.69 0 0 1 .39.24l-.13.16a1.38 1.38 0 0 0-.37-.21.85.85 0 0 0-.36-.07.76.76 0 0 0-.66.38 1.8 1.8 0 0 0-.25 1v.07a1 1 0 0 1 .91-.54 1.07 1.07 0 0 1 .47.11.9.9 0 0 1 .36.31.77.77 0 0 1 .14.45.89.89 0 0 1-.13.47.9.9 0 0 1-.35.33 1.09 1.09 0 0 1-.9 0 1 1 0 0 1-.32-.21 1.13 1.13 0 0 1-.27-.38zm.21-.18a.64.64 0 0 0 .23.5.82.82 0 0 0 .56.2.73.73 0 0 0 .54-.21.71.71 0 0 0 .21-.52.62.62 0 0 0-.21-.48.79.79 0 0 0-.54-.19.83.83 0 0 0-.32.06.76.76 0 0 0-.25.16.72.72 0 0 0-.16.22.63.63 0 0 0-.06.26zM.11 70.61l.15-.15a1.2 1.2 0 0 0 .84.41.75.75 0 0 0 .54-.2.67.67 0 0 0 .21-.51.6.6 0 0 0-.22-.48.82.82 0 0 0-.55-.19 1.32 1.32 0 0 0-.63.18l-.16-.1.08-1.36h1.57v.19H.55l-.07 1.06a1.4 1.4 0 0 1 .62-.15 1 1 0 0 1 .69.24.77.77 0 0 1 .28.61.84.84 0 0 1-.28.65 1 1 0 0 1-.7.25 1.18 1.18 0 0 1-.53-.13 1.66 1.66 0 0 1-.45-.32zM2.52 70.26a.6.6 0 0 1 .17-.42 1 1 0 0 1 .45-.27 1 1 0 0 1-.38-.26.58.58 0 0 1-.15-.4.6.6 0 0 1 .13-.38.87.87 0 0 1 .35-.26 1.2 1.2 0 0 1 .92 0 .87.87 0 0 1 .35.26.6.6 0 0 1 .14.39.57.57 0 0 1-.15.4 1 1 0 0 1-.38.26 1 1 0 0 1 .45.27.61.61 0 0 1 .17.43.66.66 0 0 1-.14.41.89.89 0 0 1-.37.28 1.37 1.37 0 0 1-.53.1 1.2 1.2 0 0 1-.74-.22.68.68 0 0 1-.29-.59zm.21 0a.51.51 0 0 0 .27.44 1 1 0 0 0 .6.17 1 1 0 0 0 .6-.17.52.52 0 0 0 .22-.43.51.51 0 0 0-.24-.43 1 1 0 0 0-.58-.17 1 1 0 0 0-.58.17.52.52 0 0 0-.28.44zm.1-1.36a.5.5 0 0 0 .21.41.82.82 0 0 0 .52.16.82.82 0 0 0 .52-.16.51.51 0 0 0 .21-.42.47.47 0 0 0-.21-.39.85.85 0 0 0-.52-.15.84.84 0 0 0-.52.16.48.48 0 0 0-.21.41zM.22 61.62A2.09 2.09 0 0 1 .14 61a2 2 0 0 1 .14-.77 1.28 1.28 0 0 1 .4-.55 1 1 0 0 1 .6-.2 1 1 0 0 1 .42.08 1.69 1.69 0 0 1 .39.24l-.09.12a1.38 1.38 0 0 0-.33-.22.85.85 0 0 0-.36-.07.76.76 0 0 0-.71.37 1.8 1.8 0 0 0-.25 1v.07a1 1 0 0 1 .88-.52 1.07 1.07 0 0 1 .47.11.9.9 0 0 1 .3.34.77.77 0 0 1 .14.45.89.89 0 0 1-.13.47.9.9 0 0 1-.35.33 1 1 0 0 1-.5.12 1 1 0 0 1-.4-.08 1 1 0 0 1-.32-.21 1.13 1.13 0 0 1-.22-.46zm.21-.18a.64.64 0 0 0 .23.5.82.82 0 0 0 .56.2.73.73 0 0 0 .54-.21.71.71 0 0 0 .24-.52.62.62 0 0 0-.21-.48.79.79 0 0 0-.54-.19.83.83 0 0 0-.32.06.76.76 0 0 0-.28.2.72.72 0 0 0-.16.22.63.63 0 0 0-.06.22zM2.63 62.28v-.15l1-.95a3 3 0 0 0 .49-.53.78.78 0 0 0 .14-.43.56.56 0 0 0-.19-.43.64.64 0 0 0-.45-.17.78.78 0 0 0-.45.13 1.47 1.47 0 0 0-.37.39L2.7 60a2.08 2.08 0 0 1 .19-.25 1.21 1.21 0 0 1 .21-.19.85.85 0 0 1 .27-.12 1.26 1.26 0 0 1 .33 0 .83.83 0 0 1 .59.22.73.73 0 0 1 .24.55.91.91 0 0 1 0 .27.93.93 0 0 1-.13.26 2.21 2.21 0 0 1-.21.26l-.32.31-.87.78h1.55v.19zM.22 52.89a2.09 2.09 0 0 1-.09-.67 2 2 0 0 1 .14-.77 1.28 1.28 0 0 1 .4-.55 1 1 0 0 1 .6-.2 1 1 0 0 1 .42.08 1.69 1.69 0 0 1 .39.24l-.08.17a1.38 1.38 0 0 0-.38-.19.85.85 0 0 0-.36-.07.76.76 0 0 0-.66.38 1.8 1.8 0 0 0-.25 1v.07a1 1 0 0 1 .88-.52 1.07 1.07 0 0 1 .47.11.9.9 0 0 1 .36.31.77.77 0 0 1 .14.45.89.89 0 0 1-.13.47.9.9 0 0 1-.35.33 1 1 0 0 1-.5.12 1 1 0 0 1-.4-.08 1 1 0 0 1-.32-.21 1.13 1.13 0 0 1-.28-.47zm.21-.18a.64.64 0 0 0 .23.5.82.82 0 0 0 .56.2.73.73 0 0 0 .54-.21.71.71 0 0 0 .24-.52.62.62 0 0 0-.21-.48.79.79 0 0 0-.58-.2.83.83 0 0 0-.32.06.76.76 0 0 0-.25.16.72.72 0 0 0-.16.22.63.63 0 0 0-.05.27zM2.68 53.15l.14-.15a1.2 1.2 0 0 0 .84.41.75.75 0 0 0 .54-.2.67.67 0 0 0 .21-.51.6.6 0 0 0-.22-.48.82.82 0 0 0-.54-.22 1.32 1.32 0 0 0-.63.18l-.16-.1.08-1.36h1.57v.19H3.12L3 52a1.4 1.4 0 0 1 .62-.15 1 1 0 0 1 .69.24.77.77 0 0 1 .28.61.84.84 0 0 1-.28.65 1 1 0 0 1-.7.25 1.18 1.18 0 0 1-.53-.13 1.66 1.66 0 0 1-.4-.32zM.22 44.16a2.09 2.09 0 0 1-.09-.67 2 2 0 0 1 .14-.77 1.28 1.28 0 0 1 .4-.55 1 1 0 0 1 .6-.2 1 1 0 0 1 .42.08 1.69 1.69 0 0 1 .39.24l-.08.17a1.38 1.38 0 0 0-.33-.22.85.85 0 0 0-.36-.07.76.76 0 0 0-.66.38 1.8 1.8 0 0 0-.25 1v.07a1 1 0 0 1 .88-.52 1.07 1.07 0 0 1 .47.11.9.9 0 0 1 .36.31.77.77 0 0 1 .14.45.89.89 0 0 1-.13.47.9.9 0 0 1-.35.33 1 1 0 0 1-.5.12 1 1 0 0 1-.4-.08 1 1 0 0 1-.32-.21 1.13 1.13 0 0 1-.33-.44zM.43 44a.64.64 0 0 0 .23.5.82.82 0 0 0 .56.2.73.73 0 0 0 .54-.21A.71.71 0 0 0 2 44a.62.62 0 0 0-.21-.48.79.79 0 0 0-.54-.19.83.83 0 0 0-.32.06.76.76 0 0 0-.25.16.72.72 0 0 0-.16.22.63.63 0 0 0-.09.23zM2.79 44.16a2.09 2.09 0 0 1-.09-.67 2 2 0 0 1 .14-.77 1.28 1.28 0 0 1 .4-.55 1 1 0 0 1 .6-.2 1 1 0 0 1 .42.08 1.69 1.69 0 0 1 .39.24l-.13.16a1.38 1.38 0 0 0-.33-.22.85.85 0 0 0-.36-.07.76.76 0 0 0-.66.38 1.8 1.8 0 0 0-.25 1v.07a1 1 0 0 1 .88-.52 1.07 1.07 0 0 1 .47.11.9.9 0 0 1 .36.31.77.77 0 0 1 .14.45.89.89 0 0 1-.13.47.9.9 0 0 1-.35.33 1.09 1.09 0 0 1-.9 0 1 1 0 0 1-.32-.21 1.13 1.13 0 0 1-.28-.39zM3 44a.64.64 0 0 0 .23.5.82.82 0 0 0 .56.2.73.73 0 0 0 .54-.21.71.71 0 0 0 .21-.49.62.62 0 0 0-.21-.48.79.79 0 0 0-.54-.19.83.83 0 0 0-.32.06.76.76 0 0 0-.25.16.72.72 0 0 0-.16.22A.63.63 0 0 0 3 44zM.15 33.48v-.19H2v.15L.73 36.09H.5l1.27-2.61zM2.36 36.09v-.15l1-.95a3 3 0 0 0 .49-.53A.78.78 0 0 0 4 34a.56.56 0 0 0-.19-.43.64.64 0 0 0-.45-.17.78.78 0 0 0-.45.13 1.47 1.47 0 0 0-.37.39l-.16-.1a2.08 2.08 0 0 1 .19-.25 1.21 1.21 0 0 1 .21-.19.85.85 0 0 1 .27-.12 1.26 1.26 0 0 1 .33 0 .83.83 0 0 1 .59.22.73.73 0 0 1 .24.55.91.91 0 0 1 0 .27.93.93 0 0 1-.13.26 2.21 2.21 0 0 1-.21.26l-.32.31-.86.78h1.58v.19zM.24 24.75v-.19h1.85v.15L.82 27.36H.59l1.27-2.61zM2.16 26.52l1.6-2H4v2h.46v.18H4v.68h-.2v-.68H2.24zm.25 0h1.34v-1.68zM.18 17.87a.6.6 0 0 1 .17-.42 1 1 0 0 1 .45-.27 1 1 0 0 1-.38-.26.58.58 0 0 1-.15-.4.6.6 0 0 1 .13-.38.87.87 0 0 1 .35-.26 1.17 1.17 0 0 1 .46-.09 1.16 1.16 0 0 1 .46.09.87.87 0 0 1 .35.26.6.6 0 0 1 .14.39.57.57 0 0 1-.15.4 1 1 0 0 1-.38.26 1 1 0 0 1 .45.27.61.61 0 0 1 .17.43.66.66 0 0 1-.14.41.89.89 0 0 1-.37.28 1.37 1.37 0 0 1-.53.1 1.2 1.2 0 0 1-.74-.22.68.68 0 0 1-.29-.59zm.21 0a.51.51 0 0 0 .23.42 1 1 0 0 0 .6.17 1 1 0 0 0 .6-.17.52.52 0 0 0 .18-.41.51.51 0 0 0-.24-.43 1 1 0 0 0-.58-.17 1 1 0 0 0-.58.17.52.52 0 0 0-.2.44zm.1-1.36a.5.5 0 0 0 .21.41.82.82 0 0 0 .52.16.82.82 0 0 0 .52-.16.51.51 0 0 0 .26-.4.47.47 0 0 0-.21-.39.85.85 0 0 0-.57-.13.84.84 0 0 0-.52.16.48.48 0 0 0-.2.37zM2.7 18.17l.16-.17a1.08 1.08 0 0 0 .87.45.72.72 0 0 0 .49-.18.58.58 0 0 0 .2-.45.51.51 0 0 0-.24-.45 1.12 1.12 0 0 0-.63-.16H3.4l-.05-.12 1-1.11H2.84v-.19h1.75V16l-.95 1.08h.28a1.24 1.24 0 0 1 .27.09 1 1 0 0 1 .23.15.65.65 0 0 1 .16.22.72.72 0 0 1 .06.29.75.75 0 0 1-.13.43.84.84 0 0 1-.33.29 1 1 0 0 1-.45.1 1.26 1.26 0 0 1-.59-.13 1.31 1.31 0 0 1-.44-.35zM48.21 303.78l1.6-2H50v2h.46v.18H50v.68h-.2v-.68h-1.52zm.25 0h1.34v-1.68zM52.13 303.22a1.81 1.81 0 0 1 .08-.55 1.55 1.55 0 0 1 .23-.46 1.11 1.11 0 0 1 .37-.32 1 1 0 0 1 .48-.12 1 1 0 0 1 .48.12 1.07 1.07 0 0 1 .37.31 1.54 1.54 0 0 1 .23.46 1.85 1.85 0 0 1 .08.56 1.81 1.81 0 0 1-.08.55 1.56 1.56 0 0 1-.23.46 1.1 1.1 0 0 1-.37.32 1 1 0 0 1-1 0 1.09 1.09 0 0 1-.37-.32 1.54 1.54 0 0 1-.23-.46 1.85 1.85 0 0 1-.04-.55zm.22 0a1.64 1.64 0 0 0 .07.47 1.43 1.43 0 0 0 .19.4.93.93 0 0 0 .3.28.78.78 0 0 0 .78 0 .9.9 0 0 0 .3-.28 1.41 1.41 0 0 0 .18-.4 1.69 1.69 0 0 0 .07-.47 1.65 1.65 0 0 0-.07-.47 1.41 1.41 0 0 0-.19-.4.94.94 0 0 0-.3-.28.76.76 0 0 0-.39-.11.78.78 0 0 0-.29.04.81.81 0 0 0-.26.19 1.23 1.23 0 0 0-.19.28 1.4 1.4 0 0 0-.12.34 1.78 1.78 0 0 0-.08.41zM55 303.22a1.81 1.81 0 0 1 .08-.55 1.55 1.55 0 0 1 .23-.46 1.11 1.11 0 0 1 .37-.32 1 1 0 0 1 .48-.12 1 1 0 0 1 .48.12 1.07 1.07 0 0 1 .37.31 1.54 1.54 0 0 1 .23.46 1.85 1.85 0 0 1 .08.56 1.81 1.81 0 0 1-.08.55 1.56 1.56 0 0 1-.23.46 1.1 1.1 0 0 1-.37.32 1 1 0 0 1-1 0 1.09 1.09 0 0 1-.37-.32 1.54 1.54 0 0 1-.23-.46 1.85 1.85 0 0 1-.04-.55zm.22 0a1.64 1.64 0 0 0 .07.47 1.43 1.43 0 0 0 .19.4.93.93 0 0 0 .3.28.78.78 0 0 0 .78 0 .9.9 0 0 0 .3-.28 1.41 1.41 0 0 0 .18-.4 1.69 1.69 0 0 0 .07-.47 1.65 1.65 0 0 0-.07-.47 1.41 1.41 0 0 0-.19-.4.94.94 0 0 0-.3-.28.76.76 0 0 0-.39-.11.78.78 0 0 0-.32.07.81.81 0 0 0-.26.19 1.23 1.23 0 0 0-.19.28 1.4 1.4 0 0 0-.12.34 1.78 1.78 0 0 0-.08.38zM57.81 303.22a1.81 1.81 0 0 1 .08-.55 1.55 1.55 0 0 1 .23-.46 1.11 1.11 0 0 1 .37-.32 1 1 0 0 1 .48-.12 1 1 0 0 1 .48.12 1.07 1.07 0 0 1 .37.31 1.54 1.54 0 0 1 .23.46 1.85 1.85 0 0 1 .08.56 1.81 1.81 0 0 1-.08.55 1.56 1.56 0 0 1-.23.46 1.1 1.1 0 0 1-.37.32 1 1 0 0 1-1 0 1.09 1.09 0 0 1-.37-.32 1.54 1.54 0 0 1-.23-.46 1.85 1.85 0 0 1-.04-.55zm.22 0a1.64 1.64 0 0 0 .07.47 1.43 1.43 0 0 0 .19.4.93.93 0 0 0 .3.28.78.78 0 0 0 .78 0 .9.9 0 0 0 .3-.28 1.41 1.41 0 0 0 .18-.4 1.69 1.69 0 0 0 .07-.47 1.65 1.65 0 0 0-.07-.47 1.41 1.41 0 0 0-.19-.4.94.94 0 0 0-.3-.28.76.76 0 0 0-.36-.07.78.78 0 0 0-.32.07.81.81 0 0 0-.26.19 1.23 1.23 0 0 0-.19.28 1.4 1.4 0 0 0-.12.34 1.78 1.78 0 0 0-.11.34zM74 304a2.09 2.09 0 0 1-.09-.67 2 2 0 0 1 .14-.77 1.28 1.28 0 0 1 .4-.55 1 1 0 0 1 .6-.2 1 1 0 0 1 .42.08 1.69 1.69 0 0 1 .39.24l-.13.16a1.38 1.38 0 0 0-.33-.22.85.85 0 0 0-.4-.07.76.76 0 0 0-.66.38 1.8 1.8 0 0 0-.25 1v.07a1 1 0 0 1 .88-.52 1.07 1.07 0 0 1 .47.11.9.9 0 0 1 .36.31.77.77 0 0 1 .14.45.89.89 0 0 1-.13.47.9.9 0 0 1-.35.33 1.09 1.09 0 0 1-.9 0 1 1 0 0 1-.32-.21A1.13 1.13 0 0 1 74 304zm.21-.18a.64.64 0 0 0 .23.5.82.82 0 0 0 .56.2.73.73 0 0 0 .54-.21.71.71 0 0 0 .21-.52.62.62 0 0 0-.21-.48.79.79 0 0 0-.54-.19.83.83 0 0 0-.32.06.76.76 0 0 0-.25.16.72.72 0 0 0-.16.22.63.63 0 0 0-.08.22zM77.67 303.22a1.81 1.81 0 0 1 .08-.55 1.55 1.55 0 0 1 .23-.46 1.11 1.11 0 0 1 .37-.32 1 1 0 0 1 .48-.12 1 1 0 0 1 .48.12 1.07 1.07 0 0 1 .37.31 1.54 1.54 0 0 1 .23.46 1.85 1.85 0 0 1 .08.56 1.81 1.81 0 0 1-.08.55 1.56 1.56 0 0 1-.23.46 1.1 1.1 0 0 1-.37.32 1 1 0 0 1-1 0 1.09 1.09 0 0 1-.37-.32 1.54 1.54 0 0 1-.23-.46 1.85 1.85 0 0 1-.04-.55zm.22 0a1.64 1.64 0 0 0 .07.47 1.43 1.43 0 0 0 .19.4.93.93 0 0 0 .3.28.78.78 0 0 0 .78 0 .9.9 0 0 0 .3-.28 1.41 1.41 0 0 0 .18-.4 1.69 1.69 0 0 0 .07-.47 1.65 1.65 0 0 0-.07-.47 1.41 1.41 0 0 0-.19-.4.94.94 0 0 0-.3-.28.76.76 0 0 0-.39-.11.78.78 0 0 0-.32.07.81.81 0 0 0-.26.19 1.23 1.23 0 0 0-.19.28 1.4 1.4 0 0 0-.12.34 1.78 1.78 0 0 0-.06.38zM80.51 303.22a1.81 1.81 0 0 1 .08-.55 1.55 1.55 0 0 1 .23-.46 1.11 1.11 0 0 1 .37-.32 1 1 0 0 1 .48-.12 1 1 0 0 1 .48.12 1.07 1.07 0 0 1 .37.31 1.54 1.54 0 0 1 .23.46 1.85 1.85 0 0 1 .08.56 1.81 1.81 0 0 1-.08.55 1.56 1.56 0 0 1-.23.46 1.1 1.1 0 0 1-.37.32 1 1 0 0 1-1 0 1.09 1.09 0 0 1-.37-.32 1.54 1.54 0 0 1-.23-.46 1.85 1.85 0 0 1-.04-.55zm.22 0a1.64 1.64 0 0 0 .07.47 1.43 1.43 0 0 0 .19.4.93.93 0 0 0 .3.28.78.78 0 0 0 .78 0 .9.9 0 0 0 .3-.28 1.41 1.41 0 0 0 .18-.4 1.69 1.69 0 0 0 .07-.47 1.65 1.65 0 0 0-.07-.47 1.41 1.41 0 0 0-.19-.4.94.94 0 0 0-.3-.28.76.76 0 0 0-.39-.11.78.78 0 0 0-.32.07.81.81 0 0 0-.26.19 1.23 1.23 0 0 0-.19.28 1.4 1.4 0 0 0-.12.34 1.78 1.78 0 0 0-.06.38zM83.35 303.22a1.81 1.81 0 0 1 .08-.55 1.55 1.55 0 0 1 .23-.46 1.11 1.11 0 0 1 .37-.32 1 1 0 0 1 .48-.12 1 1 0 0 1 .48.12 1.07 1.07 0 0 1 .37.31 1.54 1.54 0 0 1 .23.46 1.85 1.85 0 0 1 .08.56 1.81 1.81 0 0 1-.08.55 1.56 1.56 0 0 1-.23.46 1.1 1.1 0 0 1-.37.32 1 1 0 0 1-1 0 1.09 1.09 0 0 1-.37-.32 1.54 1.54 0 0 1-.23-.46 1.85 1.85 0 0 1-.04-.55zm.22 0a1.64 1.64 0 0 0 .07.47 1.43 1.43 0 0 0 .19.4.93.93 0 0 0 .3.28.78.78 0 0 0 .78 0 .9.9 0 0 0 .3-.28 1.41 1.41 0 0 0 .18-.4 1.69 1.69 0 0 0 .07-.47 1.65 1.65 0 0 0-.07-.47 1.41 1.41 0 0 0-.19-.4.94.94 0 0 0-.3-.28.76.76 0 0 0-.39-.11.78.78 0 0 0-.32.07.81.81 0 0 0-.26.19 1.23 1.23 0 0 0-.19.28 1.4 1.4 0 0 0-.12.34 1.78 1.78 0 0 0-.06.38zM100.86 303.86a.6.6 0 0 1 .17-.42 1 1 0 0 1 .45-.27 1 1 0 0 1-.38-.26.58.58 0 0 1-.15-.4.6.6 0 0 1 .13-.38.87.87 0 0 1 .35-.26 1.2 1.2 0 0 1 .92 0 .87.87 0 0 1 .35.26.6.6 0 0 1 .14.39.57.57 0 0 1-.15.4 1 1 0 0 1-.38.26 1 1 0 0 1 .45.27.61.61 0 0 1 .17.43.66.66 0 0 1-.14.41.89.89 0 0 1-.37.28 1.37 1.37 0 0 1-.53.1 1.2 1.2 0 0 1-.74-.22.68.68 0 0 1-.29-.59zm.21 0a.51.51 0 0 0 .23.42 1 1 0 0 0 .6.17 1 1 0 0 0 .6-.17.52.52 0 0 0 .22-.43.51.51 0 0 0-.24-.43 1.08 1.08 0 0 0-1.17 0 .52.52 0 0 0-.23.46zm.1-1.36a.5.5 0 0 0 .21.41.9.9 0 0 0 1 0 .51.51 0 0 0 .21-.42.47.47 0 0 0-.21-.39.85.85 0 0 0-.52-.15.84.84 0 0 0-.52.16.48.48 0 0 0-.17.41zM104.62 303.22a1.81 1.81 0 0 1 .08-.55 1.55 1.55 0 0 1 .23-.46 1.11 1.11 0 0 1 .37-.32 1 1 0 0 1 .48-.12 1 1 0 0 1 .48.12 1.07 1.07 0 0 1 .37.31 1.54 1.54 0 0 1 .23.46 1.85 1.85 0 0 1 .08.56 1.81 1.81 0 0 1-.08.55 1.56 1.56 0 0 1-.23.46 1.1 1.1 0 0 1-.37.32 1 1 0 0 1-1 0 1.09 1.09 0 0 1-.37-.32 1.54 1.54 0 0 1-.23-.46 1.85 1.85 0 0 1-.04-.55zm.22 0a1.64 1.64 0 0 0 .07.47 1.43 1.43 0 0 0 .19.4.93.93 0 0 0 .3.28.78.78 0 0 0 .78 0 .9.9 0 0 0 .3-.28 1.41 1.41 0 0 0 .18-.4 1.69 1.69 0 0 0 .07-.47 1.65 1.65 0 0 0-.07-.47 1.41 1.41 0 0 0-.19-.4.94.94 0 0 0-.3-.28.76.76 0 0 0-.39-.11.78.78 0 0 0-.32.07.81.81 0 0 0-.26.19 1.23 1.23 0 0 0-.19.28 1.4 1.4 0 0 0-.12.34 1.78 1.78 0 0 0-.05.38zM107.46 303.22a1.81 1.81 0 0 1 .08-.55 1.55 1.55 0 0 1 .23-.46 1.11 1.11 0 0 1 .37-.32 1 1 0 0 1 .48-.12 1 1 0 0 1 .48.12 1.07 1.07 0 0 1 .37.31 1.54 1.54 0 0 1 .23.46 1.85 1.85 0 0 1 .08.56 1.81 1.81 0 0 1-.08.55 1.56 1.56 0 0 1-.23.46 1.1 1.1 0 0 1-.37.32 1 1 0 0 1-1 0 1.09 1.09 0 0 1-.37-.32 1.54 1.54 0 0 1-.23-.46 1.85 1.85 0 0 1-.04-.55zm.22 0a1.64 1.64 0 0 0 .07.47 1.43 1.43 0 0 0 .19.4.93.93 0 0 0 .3.28.78.78 0 0 0 .78 0 .9.9 0 0 0 .3-.28 1.41 1.41 0 0 0 .18-.4 1.69 1.69 0 0 0 .07-.47 1.65 1.65 0 0 0-.07-.47 1.41 1.41 0 0 0-.19-.4.94.94 0 0 0-.3-.28.76.76 0 0 0-.39-.11.78.78 0 0 0-.32.07.81.81 0 0 0-.26.19 1.23 1.23 0 0 0-.19.28 1.4 1.4 0 0 0-.12.34 1.78 1.78 0 0 0-.05.38zM110.3 303.22a1.81 1.81 0 0 1 .08-.55 1.55 1.55 0 0 1 .23-.46 1.11 1.11 0 0 1 .37-.32 1 1 0 0 1 .48-.12 1 1 0 0 1 .48.12 1.07 1.07 0 0 1 .37.31 1.54 1.54 0 0 1 .23.46 1.85 1.85 0 0 1 .08.56 1.81 1.81 0 0 1-.08.55 1.56 1.56 0 0 1-.23.46 1.1 1.1 0 0 1-.37.32 1 1 0 0 1-1 0 1.09 1.09 0 0 1-.37-.32 1.54 1.54 0 0 1-.23-.46 1.85 1.85 0 0 1-.04-.55zm.22 0a1.64 1.64 0 0 0 .07.47 1.43 1.43 0 0 0 .19.4.93.93 0 0 0 .3.28.78.78 0 0 0 .78 0 .9.9 0 0 0 .3-.28 1.41 1.41 0 0 0 .18-.4 1.69 1.69 0 0 0 .07-.47 1.65 1.65 0 0 0-.07-.47 1.41 1.41 0 0 0-.19-.4.94.94 0 0 0-.3-.28.76.76 0 0 0-.39-.11.78.78 0 0 0-.32.07.81.81 0 0 0-.26.19 1.23 1.23 0 0 0-.19.28 1.4 1.4 0 0 0-.12.34 1.78 1.78 0 0 0-.05.38zM125.39 302l.64-.24h.16v2.82H126V302l-.54.18zM126.87 303.22a1.81 1.81 0 0 1 .08-.55 1.55 1.55 0 0 1 .23-.46 1.11 1.11 0 0 1 .37-.32 1 1 0 0 1 .48-.12 1 1 0 0 1 .48.12 1.07 1.07 0 0 1 .37.31 1.54 1.54 0 0 1 .23.46 1.85 1.85 0 0 1 .08.56 1.81 1.81 0 0 1-.08.55 1.56 1.56 0 0 1-.23.46 1.1 1.1 0 0 1-.37.32 1 1 0 0 1-1 0 1.09 1.09 0 0 1-.37-.32 1.54 1.54 0 0 1-.23-.46 1.85 1.85 0 0 1-.04-.55zm.22 0a1.64 1.64 0 0 0 .07.47 1.43 1.43 0 0 0 .19.4.93.93 0 0 0 .3.28.78.78 0 0 0 .78 0 .9.9 0 0 0 .3-.28 1.41 1.41 0 0 0 .18-.4 1.69 1.69 0 0 0 .07-.47 1.65 1.65 0 0 0-.07-.47 1.41 1.41 0 0 0-.19-.4.94.94 0 0 0-.3-.28.76.76 0 0 0-.42-.07.78.78 0 0 0-.32.07.81.81 0 0 0-.26.19 1.23 1.23 0 0 0-.19.28 1.4 1.4 0 0 0-.12.34 1.78 1.78 0 0 0-.03.34zM130.91 303.22a1.81 1.81 0 0 1 .08-.55 1.55 1.55 0 0 1 .23-.46 1.11 1.11 0 0 1 .37-.32 1 1 0 0 1 .48-.12 1 1 0 0 1 .48.12 1.07 1.07 0 0 1 .37.31 1.54 1.54 0 0 1 .23.46 1.85 1.85 0 0 1 .08.56 1.81 1.81 0 0 1-.08.55 1.56 1.56 0 0 1-.23.46 1.1 1.1 0 0 1-.37.32 1 1 0 0 1-1 0 1.09 1.09 0 0 1-.37-.32 1.54 1.54 0 0 1-.23-.46 1.85 1.85 0 0 1-.04-.55zm.22 0a1.64 1.64 0 0 0 .07.47 1.43 1.43 0 0 0 .19.4.93.93 0 0 0 .3.28.78.78 0 0 0 .78 0 .9.9 0 0 0 .3-.28 1.41 1.41 0 0 0 .18-.4 1.69 1.69 0 0 0 .07-.47 1.65 1.65 0 0 0-.07-.47 1.41 1.41 0 0 0-.19-.4.94.94 0 0 0-.3-.28.76.76 0 0 0-.39-.11.78.78 0 0 0-.32.07.81.81 0 0 0-.26.19 1.23 1.23 0 0 0-.19.28 1.4 1.4 0 0 0-.12.34 1.78 1.78 0 0 0-.06.38zM133.75 303.22a1.81 1.81 0 0 1 .08-.55 1.55 1.55 0 0 1 .23-.46 1.11 1.11 0 0 1 .37-.32 1 1 0 0 1 .48-.12 1 1 0 0 1 .48.12 1.07 1.07 0 0 1 .37.31 1.54 1.54 0 0 1 .23.46 1.85 1.85 0 0 1 .08.56 1.81 1.81 0 0 1-.08.55 1.56 1.56 0 0 1-.23.46 1.1 1.1 0 0 1-.37.32 1 1 0 0 1-1 0 1.09 1.09 0 0 1-.37-.32 1.54 1.54 0 0 1-.23-.46 1.85 1.85 0 0 1-.04-.55zm.22 0a1.64 1.64 0 0 0 .07.47 1.43 1.43 0 0 0 .19.4.93.93 0 0 0 .3.28.78.78 0 0 0 .78 0 .9.9 0 0 0 .3-.28 1.41 1.41 0 0 0 .18-.4 1.69 1.69 0 0 0 .07-.47 1.65 1.65 0 0 0-.07-.47 1.41 1.41 0 0 0-.19-.4.94.94 0 0 0-.3-.28.76.76 0 0 0-.39-.11.78.78 0 0 0-.32.07.81.81 0 0 0-.26.19 1.23 1.23 0 0 0-.19.28 1.4 1.4 0 0 0-.12.34 1.78 1.78 0 0 0-.02.38zM136.58 303.22a1.81 1.81 0 0 1 .08-.55 1.55 1.55 0 0 1 .23-.46 1.11 1.11 0 0 1 .37-.32 1 1 0 0 1 .48-.12 1 1 0 0 1 .48.12 1.07 1.07 0 0 1 .37.31 1.54 1.54 0 0 1 .23.46 1.85 1.85 0 0 1 .08.56 1.81 1.81 0 0 1-.08.55 1.56 1.56 0 0 1-.23.46 1.1 1.1 0 0 1-.37.32 1 1 0 0 1-1 0 1.09 1.09 0 0 1-.37-.32 1.54 1.54 0 0 1-.23-.46 1.85 1.85 0 0 1-.04-.55zm.22 0a1.64 1.64 0 0 0 .07.47 1.43 1.43 0 0 0 .19.4.93.93 0 0 0 .3.28.78.78 0 0 0 .78 0 .9.9 0 0 0 .3-.28 1.41 1.41 0 0 0 .18-.4 1.69 1.69 0 0 0 .07-.47 1.65 1.65 0 0 0-.07-.47 1.41 1.41 0 0 0-.19-.4.94.94 0 0 0-.3-.28.76.76 0 0 0-.39-.11.78.78 0 0 0-.32.07.81.81 0 0 0-.26.19 1.23 1.23 0 0 0-.19.28 1.4 1.4 0 0 0-.12.34 1.78 1.78 0 0 0-.05.38zM149.33 304.62v-.15l1-.95a3 3 0 0 0 .49-.53.78.78 0 0 0 .14-.43.56.56 0 0 0-.19-.43.64.64 0 0 0-.45-.17.78.78 0 0 0-.45.13 1.47 1.47 0 0 0-.37.39l-.16-.1a2.08 2.08 0 0 1 .19-.25 1.21 1.21 0 0 1 .21-.19.85.85 0 0 1 .27-.12 1.26 1.26 0 0 1 .33 0 .83.83 0 0 1 .59.22.73.73 0 0 1 .24.55.91.91 0 0 1 0 .27.93.93 0 0 1-.13.26 2.21 2.21 0 0 1-.21.26l-.32.31-.86.78h1.58v.19zM151.76 303.22a1.81 1.81 0 0 1 .08-.55 1.55 1.55 0 0 1 .23-.46 1.11 1.11 0 0 1 .37-.32 1 1 0 0 1 .48-.12 1 1 0 0 1 .48.12 1.07 1.07 0 0 1 .37.31 1.54 1.54 0 0 1 .23.46 1.85 1.85 0 0 1 .08.56 1.81 1.81 0 0 1-.08.55 1.56 1.56 0 0 1-.23.46 1.1 1.1 0 0 1-.37.32 1 1 0 0 1-1 0 1.09 1.09 0 0 1-.37-.32 1.54 1.54 0 0 1-.23-.46 1.85 1.85 0 0 1-.04-.55zm.22 0a1.64 1.64 0 0 0 .07.47 1.43 1.43 0 0 0 .19.4.93.93 0 0 0 .3.28.78.78 0 0 0 .78 0 .9.9 0 0 0 .3-.28 1.41 1.41 0 0 0 .18-.4 1.69 1.69 0 0 0 .07-.47 1.65 1.65 0 0 0-.07-.47 1.41 1.41 0 0 0-.19-.4.94.94 0 0 0-.3-.28.76.76 0 0 0-.39-.11.78.78 0 0 0-.32.07.81.81 0 0 0-.26.19 1.23 1.23 0 0 0-.19.28 1.4 1.4 0 0 0-.12.34 1.78 1.78 0 0 0-.03.38zM155.8 303.22a1.81 1.81 0 0 1 .08-.55 1.55 1.55 0 0 1 .23-.46 1.11 1.11 0 0 1 .37-.32 1 1 0 0 1 .48-.12 1 1 0 0 1 .48.12 1.07 1.07 0 0 1 .37.31 1.54 1.54 0 0 1 .23.46 1.85 1.85 0 0 1 .08.56 1.81 1.81 0 0 1-.08.55 1.56 1.56 0 0 1-.23.46 1.1 1.1 0 0 1-.37.32 1 1 0 0 1-1 0 1.09 1.09 0 0 1-.37-.32 1.54 1.54 0 0 1-.23-.46 1.85 1.85 0 0 1-.04-.55zm.22 0a1.64 1.64 0 0 0 .07.47 1.43 1.43 0 0 0 .19.4.93.93 0 0 0 .3.28.78.78 0 0 0 .78 0 .9.9 0 0 0 .3-.28 1.41 1.41 0 0 0 .18-.4 1.69 1.69 0 0 0 .07-.47 1.65 1.65 0 0 0-.07-.47 1.41 1.41 0 0 0-.19-.4.94.94 0 0 0-.3-.28.76.76 0 0 0-.35-.07.78.78 0 0 0-.32.07.81.81 0 0 0-.26.19 1.23 1.23 0 0 0-.19.28 1.4 1.4 0 0 0-.12.34 1.78 1.78 0 0 0-.11.34zM158.64 303.22a1.81 1.81 0 0 1 .08-.55 1.55 1.55 0 0 1 .23-.46 1.11 1.11 0 0 1 .37-.32 1 1 0 0 1 .48-.12 1 1 0 0 1 .48.12 1.07 1.07 0 0 1 .37.31 1.54 1.54 0 0 1 .23.46 1.85 1.85 0 0 1 .08.56 1.81 1.81 0 0 1-.08.55 1.56 1.56 0 0 1-.23.46 1.1 1.1 0 0 1-.37.32 1 1 0 0 1-1 0 1.09 1.09 0 0 1-.37-.32 1.54 1.54 0 0 1-.23-.46 1.85 1.85 0 0 1-.04-.55zm.22 0a1.64 1.64 0 0 0 .07.47 1.43 1.43 0 0 0 .19.4.93.93 0 0 0 .3.28.78.78 0 0 0 .78 0 .9.9 0 0 0 .3-.28 1.41 1.41 0 0 0 .18-.4 1.69 1.69 0 0 0 .07-.47 1.65 1.65 0 0 0-.07-.47 1.41 1.41 0 0 0-.19-.4.94.94 0 0 0-.3-.28.76.76 0 0 0-.39-.11.78.78 0 0 0-.32.07.81.81 0 0 0-.26.19 1.23 1.23 0 0 0-.19.28 1.4 1.4 0 0 0-.12.34 1.78 1.78 0 0 0-.05.38zM161.48 303.22a1.81 1.81 0 0 1 .08-.55 1.55 1.55 0 0 1 .23-.46 1.11 1.11 0 0 1 .37-.32 1 1 0 0 1 .48-.12 1 1 0 0 1 .48.12 1.07 1.07 0 0 1 .37.31 1.54 1.54 0 0 1 .23.46 1.85 1.85 0 0 1 .08.56 1.81 1.81 0 0 1-.08.55 1.56 1.56 0 0 1-.23.46 1.1 1.1 0 0 1-.37.32 1 1 0 0 1-1 0 1.09 1.09 0 0 1-.37-.32 1.54 1.54 0 0 1-.23-.46 1.85 1.85 0 0 1-.04-.55zm.22 0a1.64 1.64 0 0 0 .07.47 1.43 1.43 0 0 0 .19.4.93.93 0 0 0 .3.28.78.78 0 0 0 .78 0 .9.9 0 0 0 .3-.28 1.41 1.41 0 0 0 .18-.4 1.69 1.69 0 0 0 .07-.47 1.65 1.65 0 0 0-.07-.47 1.41 1.41 0 0 0-.19-.4.94.94 0 0 0-.3-.28.76.76 0 0 0-.39-.11.78.78 0 0 0-.32.07.81.81 0 0 0-.26.19 1.23 1.23 0 0 0-.19.28 1.4 1.4 0 0 0-.12.34 1.78 1.78 0 0 0-.05.38zM174.21 303.78l1.6-2h.19v2h.46v.18H176v.68h-.2v-.68h-1.52zm.25 0h1.34v-1.68zM176.93 303.22a1.81 1.81 0 0 1 .08-.55 1.55 1.55 0 0 1 .23-.46 1.11 1.11 0 0 1 .37-.32 1 1 0 0 1 .48-.12 1 1 0 0 1 .48.12 1.07 1.07 0 0 1 .37.31 1.54 1.54 0 0 1 .23.46 1.85 1.85 0 0 1 .08.56 1.81 1.81 0 0 1-.08.55 1.56 1.56 0 0 1-.23.46 1.1 1.1 0 0 1-.37.32 1 1 0 0 1-1 0 1.09 1.09 0 0 1-.37-.32 1.54 1.54 0 0 1-.23-.46 1.85 1.85 0 0 1-.04-.55zm.22 0a1.64 1.64 0 0 0 .07.47 1.43 1.43 0 0 0 .19.4.93.93 0 0 0 .3.28.78.78 0 0 0 .78 0 .9.9 0 0 0 .3-.28 1.41 1.41 0 0 0 .18-.4 1.69 1.69 0 0 0 .07-.47 1.65 1.65 0 0 0-.07-.47 1.41 1.41 0 0 0-.19-.4.94.94 0 0 0-.3-.28.76.76 0 0 0-.39-.11.78.78 0 0 0-.32.07.81.81 0 0 0-.26.19 1.23 1.23 0 0 0-.19.28 1.4 1.4 0 0 0-.12.34 1.78 1.78 0 0 0-.05.38zM181 303.22a1.81 1.81 0 0 1 .08-.55 1.55 1.55 0 0 1 .23-.46 1.11 1.11 0 0 1 .37-.32 1 1 0 0 1 .48-.12 1 1 0 0 1 .48.12 1.07 1.07 0 0 1 .37.31 1.54 1.54 0 0 1 .23.46 1.85 1.85 0 0 1 .08.56 1.81 1.81 0 0 1-.08.55 1.56 1.56 0 0 1-.23.46 1.1 1.1 0 0 1-.37.32 1 1 0 0 1-1 0 1.09 1.09 0 0 1-.37-.32 1.54 1.54 0 0 1-.23-.46 1.85 1.85 0 0 1-.04-.55zm.22 0a1.64 1.64 0 0 0 .07.47 1.43 1.43 0 0 0 .19.4.93.93 0 0 0 .3.28.78.78 0 0 0 .78 0 .9.9 0 0 0 .3-.28 1.41 1.41 0 0 0 .18-.4 1.69 1.69 0 0 0 .07-.47 1.65 1.65 0 0 0-.07-.47 1.41 1.41 0 0 0-.19-.4.94.94 0 0 0-.3-.28.76.76 0 0 0-.39-.11.78.78 0 0 0-.32.07.81.81 0 0 0-.26.19 1.23 1.23 0 0 0-.19.28 1.4 1.4 0 0 0-.12.34 1.78 1.78 0 0 0-.08.38zM183.81 303.22a1.81 1.81 0 0 1 .08-.55 1.55 1.55 0 0 1 .23-.46 1.11 1.11 0 0 1 .37-.32 1 1 0 0 1 .48-.12 1 1 0 0 1 .48.12 1.07 1.07 0 0 1 .37.31 1.54 1.54 0 0 1 .23.46 1.85 1.85 0 0 1 .08.56 1.81 1.81 0 0 1-.08.55 1.56 1.56 0 0 1-.23.46 1.1 1.1 0 0 1-.37.32 1 1 0 0 1-1 0 1.09 1.09 0 0 1-.37-.32 1.54 1.54 0 0 1-.23-.46 1.85 1.85 0 0 1-.04-.55zm.22 0a1.64 1.64 0 0 0 .07.47 1.43 1.43 0 0 0 .19.4.93.93 0 0 0 .3.28.78.78 0 0 0 .78 0 .9.9 0 0 0 .3-.28 1.41 1.41 0 0 0 .18-.4 1.69 1.69 0 0 0 .07-.47 1.65 1.65 0 0 0-.07-.47 1.41 1.41 0 0 0-.19-.4.94.94 0 0 0-.3-.28.76.76 0 0 0-.36-.07.78.78 0 0 0-.32.07.81.81 0 0 0-.26.19 1.23 1.23 0 0 0-.19.28 1.4 1.4 0 0 0-.12.34 1.78 1.78 0 0 0-.11.34zM186.65 303.22a1.81 1.81 0 0 1 .08-.55 1.55 1.55 0 0 1 .23-.46 1.11 1.11 0 0 1 .37-.32 1 1 0 0 1 .48-.12 1 1 0 0 1 .48.12 1.07 1.07 0 0 1 .37.31 1.54 1.54 0 0 1 .23.46 1.85 1.85 0 0 1 .08.56 1.81 1.81 0 0 1-.08.55 1.56 1.56 0 0 1-.23.46 1.1 1.1 0 0 1-.37.32 1 1 0 0 1-1 0 1.09 1.09 0 0 1-.37-.32 1.54 1.54 0 0 1-.23-.46 1.85 1.85 0 0 1-.04-.55zm.22 0a1.64 1.64 0 0 0 .07.47 1.43 1.43 0 0 0 .19.4.93.93 0 0 0 .3.28.78.78 0 0 0 .78 0 .9.9 0 0 0 .3-.28 1.41 1.41 0 0 0 .18-.4 1.69 1.69 0 0 0 .07-.47 1.65 1.65 0 0 0-.07-.47 1.41 1.41 0 0 0-.19-.4.94.94 0 0 0-.3-.28.76.76 0 0 0-.39-.11.78.78 0 0 0-.32.07.81.81 0 0 0-.26.19 1.23 1.23 0 0 0-.19.28 1.4 1.4 0 0 0-.12.34 1.78 1.78 0 0 0-.05.38zM200.86 304a2.09 2.09 0 0 1-.09-.67 2 2 0 0 1 .14-.77 1.28 1.28 0 0 1 .4-.55 1 1 0 0 1 .6-.2 1 1 0 0 1 .42.08 1.69 1.69 0 0 1 .39.24l-.13.16a1.38 1.38 0 0 0-.33-.22.85.85 0 0 0-.36-.07.76.76 0 0 0-.66.38 1.8 1.8 0 0 0-.25 1v.07a1 1 0 0 1 .88-.52 1.07 1.07 0 0 1 .47.11.9.9 0 0 1 .36.31.77.77 0 0 1 .14.45.89.89 0 0 1-.13.47.9.9 0 0 1-.35.33 1.09 1.09 0 0 1-.9 0 1 1 0 0 1-.32-.21 1.13 1.13 0 0 1-.28-.39zm.21-.18a.64.64 0 0 0 .23.5.82.82 0 0 0 .56.2.73.73 0 0 0 .54-.21.71.71 0 0 0 .21-.52.62.62 0 0 0-.21-.48.79.79 0 0 0-.54-.19.83.83 0 0 0-.32.06.76.76 0 0 0-.25.16.72.72 0 0 0-.16.22.63.63 0 0 0-.06.22zM203.34 303.22a1.81 1.81 0 0 1 .08-.55 1.55 1.55 0 0 1 .23-.46 1.11 1.11 0 0 1 .37-.32 1 1 0 0 1 .48-.12 1 1 0 0 1 .48.12 1.07 1.07 0 0 1 .37.31 1.54 1.54 0 0 1 .23.46 1.85 1.85 0 0 1 .08.56 1.81 1.81 0 0 1-.08.55 1.56 1.56 0 0 1-.23.46 1.1 1.1 0 0 1-.37.32 1 1 0 0 1-1 0 1.09 1.09 0 0 1-.37-.32 1.54 1.54 0 0 1-.23-.46 1.85 1.85 0 0 1-.04-.55zm.22 0a1.64 1.64 0 0 0 .07.47 1.43 1.43 0 0 0 .19.4.93.93 0 0 0 .3.28.78.78 0 0 0 .78 0 .9.9 0 0 0 .3-.28 1.41 1.41 0 0 0 .18-.4 1.69 1.69 0 0 0 .07-.47 1.65 1.65 0 0 0-.07-.47 1.41 1.41 0 0 0-.19-.4.94.94 0 0 0-.3-.28.76.76 0 0 0-.39-.11.78.78 0 0 0-.32.07.81.81 0 0 0-.26.19 1.23 1.23 0 0 0-.19.28 1.4 1.4 0 0 0-.12.34 1.78 1.78 0 0 0-.05.38zM207.38 303.22a1.81 1.81 0 0 1 .08-.55 1.55 1.55 0 0 1 .23-.46 1.11 1.11 0 0 1 .37-.32 1 1 0 0 1 .48-.12 1 1 0 0 1 .48.12 1.07 1.07 0 0 1 .37.31 1.54 1.54 0 0 1 .23.46 1.85 1.85 0 0 1 .08.56 1.81 1.81 0 0 1-.08.55 1.56 1.56 0 0 1-.23.46 1.1 1.1 0 0 1-.37.32 1 1 0 0 1-1 0 1.09 1.09 0 0 1-.37-.32 1.54 1.54 0 0 1-.23-.46 1.85 1.85 0 0 1-.04-.55zm.22 0a1.64 1.64 0 0 0 .07.47 1.43 1.43 0 0 0 .19.4.93.93 0 0 0 .3.28.78.78 0 0 0 .78 0 .9.9 0 0 0 .3-.28 1.41 1.41 0 0 0 .18-.4 1.69 1.69 0 0 0 .07-.47 1.65 1.65 0 0 0-.07-.47 1.41 1.41 0 0 0-.19-.4.94.94 0 0 0-.3-.28.76.76 0 0 0-.39-.11.78.78 0 0 0-.32.07.81.81 0 0 0-.26.19 1.23 1.23 0 0 0-.19.28 1.4 1.4 0 0 0-.12.34 1.78 1.78 0 0 0-.05.38zM210.22 303.22a1.81 1.81 0 0 1 .08-.55 1.55 1.55 0 0 1 .23-.46 1.11 1.11 0 0 1 .37-.32 1 1 0 0 1 .48-.12 1 1 0 0 1 .48.12 1.07 1.07 0 0 1 .37.31 1.54 1.54 0 0 1 .23.46 1.85 1.85 0 0 1 .08.56 1.81 1.81 0 0 1-.08.55 1.56 1.56 0 0 1-.23.46 1.1 1.1 0 0 1-.37.32 1 1 0 0 1-1 0 1.09 1.09 0 0 1-.37-.32 1.54 1.54 0 0 1-.23-.46 1.85 1.85 0 0 1-.04-.55zm.22 0a1.64 1.64 0 0 0 .07.47 1.43 1.43 0 0 0 .19.4.93.93 0 0 0 .3.28.78.78 0 0 0 .78 0 .9.9 0 0 0 .3-.28 1.41 1.41 0 0 0 .18-.4 1.69 1.69 0 0 0 .07-.47 1.65 1.65 0 0 0-.07-.47 1.41 1.41 0 0 0-.19-.4.94.94 0 0 0-.3-.28.76.76 0 0 0-.39-.11.78.78 0 0 0-.32.07.81.81 0 0 0-.26.19 1.23 1.23 0 0 0-.19.28 1.4 1.4 0 0 0-.12.34 1.78 1.78 0 0 0-.05.38zM213.06 303.22a1.81 1.81 0 0 1 .08-.55 1.55 1.55 0 0 1 .23-.46 1.11 1.11 0 0 1 .37-.32 1 1 0 0 1 .48-.12 1 1 0 0 1 .48.12 1.07 1.07 0 0 1 .37.31 1.54 1.54 0 0 1 .23.46 1.85 1.85 0 0 1 .08.56 1.81 1.81 0 0 1-.08.55 1.56 1.56 0 0 1-.23.46 1.1 1.1 0 0 1-.37.32 1 1 0 0 1-1 0 1.09 1.09 0 0 1-.37-.32 1.54 1.54 0 0 1-.23-.46 1.85 1.85 0 0 1-.04-.55zm.22 0a1.64 1.64 0 0 0 .07.47 1.43 1.43 0 0 0 .19.4.93.93 0 0 0 .3.28.78.78 0 0 0 .78 0 .9.9 0 0 0 .3-.28 1.41 1.41 0 0 0 .18-.4 1.69 1.69 0 0 0 .07-.47 1.65 1.65 0 0 0-.07-.47 1.41 1.41 0 0 0-.19-.4.94.94 0 0 0-.3-.28.76.76 0 0 0-.39-.11.78.78 0 0 0-.32.07.81.81 0 0 0-.26.19 1.23 1.23 0 0 0-.19.28 1.4 1.4 0 0 0-.12.34 1.78 1.78 0 0 0-.05.38zM225.24 303.86a.6.6 0 0 1 .17-.42 1 1 0 0 1 .45-.27 1 1 0 0 1-.38-.26.58.58 0 0 1-.15-.4.6.6 0 0 1 .13-.38.87.87 0 0 1 .35-.26 1.2 1.2 0 0 1 .92 0 .87.87 0 0 1 .35.26.6.6 0 0 1 .14.39.57.57 0 0 1-.15.4 1 1 0 0 1-.38.26 1 1 0 0 1 .45.27.61.61 0 0 1 .17.43.66.66 0 0 1-.14.41.89.89 0 0 1-.37.28 1.37 1.37 0 0 1-.53.1 1.2 1.2 0 0 1-.74-.22.68.68 0 0 1-.29-.59zm.21 0a.51.51 0 0 0 .23.42 1 1 0 0 0 .6.17 1 1 0 0 0 .6-.17.52.52 0 0 0 .22-.43.51.51 0 0 0-.24-.43 1.08 1.08 0 0 0-1.17 0 .52.52 0 0 0-.24.46zm.1-1.36a.5.5 0 0 0 .21.41.9.9 0 0 0 1 0 .51.51 0 0 0 .21-.42.47.47 0 0 0-.21-.39.85.85 0 0 0-.52-.15.84.84 0 0 0-.52.16.48.48 0 0 0-.17.41zM227.8 303.22a1.81 1.81 0 0 1 .08-.55 1.55 1.55 0 0 1 .23-.46 1.11 1.11 0 0 1 .37-.32 1 1 0 0 1 .48-.12 1 1 0 0 1 .48.12 1.07 1.07 0 0 1 .37.31 1.54 1.54 0 0 1 .23.46 1.85 1.85 0 0 1 .08.56 1.81 1.81 0 0 1-.08.55 1.56 1.56 0 0 1-.23.46 1.1 1.1 0 0 1-.37.32 1 1 0 0 1-1 0 1.09 1.09 0 0 1-.37-.32 1.54 1.54 0 0 1-.23-.46 1.85 1.85 0 0 1-.04-.55zm.22 0a1.64 1.64 0 0 0 .07.47 1.43 1.43 0 0 0 .19.4.93.93 0 0 0 .3.28.78.78 0 0 0 .78 0 .9.9 0 0 0 .3-.28 1.41 1.41 0 0 0 .18-.4 1.69 1.69 0 0 0 .07-.47 1.65 1.65 0 0 0-.07-.47 1.41 1.41 0 0 0-.19-.4.94.94 0 0 0-.3-.28.76.76 0 0 0-.35-.07.78.78 0 0 0-.32.07.81.81 0 0 0-.26.19 1.23 1.23 0 0 0-.19.28 1.4 1.4 0 0 0-.12.34 1.78 1.78 0 0 0-.11.34zM231.83 303.22a1.81 1.81 0 0 1 .08-.55 1.55 1.55 0 0 1 .23-.46 1.11 1.11 0 0 1 .37-.32 1 1 0 0 1 .48-.12 1 1 0 0 1 .48.12 1.07 1.07 0 0 1 .37.31 1.54 1.54 0 0 1 .23.46 1.85 1.85 0 0 1 .08.56 1.81 1.81 0 0 1-.08.55 1.56 1.56 0 0 1-.23.46 1.1 1.1 0 0 1-.37.32 1 1 0 0 1-1 0 1.09 1.09 0 0 1-.37-.32 1.54 1.54 0 0 1-.23-.46 1.85 1.85 0 0 1-.04-.55zm.22 0a1.64 1.64 0 0 0 .07.47 1.43 1.43 0 0 0 .19.4.93.93 0 0 0 .3.28.78.78 0 0 0 .78 0 .9.9 0 0 0 .3-.28 1.41 1.41 0 0 0 .18-.4 1.69 1.69 0 0 0 .07-.47 1.65 1.65 0 0 0-.07-.47 1.41 1.41 0 0 0-.19-.4.94.94 0 0 0-.3-.28.76.76 0 0 0-.38-.07.78.78 0 0 0-.32.07.81.81 0 0 0-.26.19 1.23 1.23 0 0 0-.19.28 1.4 1.4 0 0 0-.12.34 1.78 1.78 0 0 0-.06.34zM234.67 303.22a1.81 1.81 0 0 1 .08-.55 1.55 1.55 0 0 1 .23-.46 1.11 1.11 0 0 1 .37-.32 1 1 0 0 1 .48-.12 1 1 0 0 1 .48.12 1.07 1.07 0 0 1 .37.31 1.54 1.54 0 0 1 .23.46 1.85 1.85 0 0 1 .08.56 1.81 1.81 0 0 1-.08.55 1.56 1.56 0 0 1-.23.46 1.1 1.1 0 0 1-.37.32 1 1 0 0 1-1 0 1.09 1.09 0 0 1-.37-.32 1.54 1.54 0 0 1-.23-.46 1.85 1.85 0 0 1-.04-.55zm.22 0a1.64 1.64 0 0 0 .07.47 1.43 1.43 0 0 0 .19.4.93.93 0 0 0 .3.28.78.78 0 0 0 .78 0 .9.9 0 0 0 .3-.28 1.41 1.41 0 0 0 .18-.4 1.69 1.69 0 0 0 .07-.47 1.65 1.65 0 0 0-.07-.47 1.41 1.41 0 0 0-.19-.4.94.94 0 0 0-.3-.28.76.76 0 0 0-.39-.11.78.78 0 0 0-.32.07.81.81 0 0 0-.26.19 1.23 1.23 0 0 0-.19.28 1.4 1.4 0 0 0-.12.34 1.78 1.78 0 0 0-.05.38zM237.51 303.22a1.81 1.81 0 0 1 .08-.55 1.55 1.55 0 0 1 .23-.46 1.11 1.11 0 0 1 .37-.32 1 1 0 0 1 .48-.12 1 1 0 0 1 .48.12 1.07 1.07 0 0 1 .37.31 1.54 1.54 0 0 1 .23.46 1.85 1.85 0 0 1 .08.56 1.81 1.81 0 0 1-.08.55 1.56 1.56 0 0 1-.23.46 1.1 1.1 0 0 1-.37.32 1 1 0 0 1-1 0 1.09 1.09 0 0 1-.37-.32 1.54 1.54 0 0 1-.23-.46 1.85 1.85 0 0 1-.04-.55zm.22 0a1.64 1.64 0 0 0 .07.47 1.43 1.43 0 0 0 .19.4.93.93 0 0 0 .3.28.78.78 0 0 0 .78 0 .9.9 0 0 0 .3-.28 1.41 1.41 0 0 0 .18-.4 1.69 1.69 0 0 0 .07-.47 1.65 1.65 0 0 0-.07-.47 1.41 1.41 0 0 0-.19-.4.94.94 0 0 0-.3-.28.76.76 0 0 0-.39-.11.78.78 0 0 0-.32.07.81.81 0 0 0-.26.19 1.23 1.23 0 0 0-.19.28 1.4 1.4 0 0 0-.12.34 1.78 1.78 0 0 0-.05.38zM249.89 302l.64-.24h.16v2.82h-.2V302l-.54.18zM251.37 303.22a1.81 1.81 0 0 1 .08-.55 1.55 1.55 0 0 1 .23-.46 1.11 1.11 0 0 1 .37-.32 1 1 0 0 1 .48-.12 1 1 0 0 1 .48.12 1.07 1.07 0 0 1 .37.31 1.54 1.54 0 0 1 .23.46 1.85 1.85 0 0 1 .08.56 1.81 1.81 0 0 1-.08.55 1.56 1.56 0 0 1-.23.46 1.1 1.1 0 0 1-.37.32 1 1 0 0 1-1 0 1.09 1.09 0 0 1-.37-.32 1.54 1.54 0 0 1-.23-.46 1.85 1.85 0 0 1-.04-.55zm.22 0a1.64 1.64 0 0 0 .07.47 1.43 1.43 0 0 0 .19.4.93.93 0 0 0 .3.28.78.78 0 0 0 .78 0 .9.9 0 0 0 .3-.28 1.41 1.41 0 0 0 .18-.4 1.69 1.69 0 0 0 .07-.47 1.65 1.65 0 0 0-.07-.47 1.41 1.41 0 0 0-.19-.4.94.94 0 0 0-.3-.28.76.76 0 0 0-.39-.11.78.78 0 0 0-.32.07.81.81 0 0 0-.26.19 1.23 1.23 0 0 0-.19.28 1.4 1.4 0 0 0-.12.34 1.78 1.78 0 0 0-.06.38zM254.21 303.22a1.81 1.81 0 0 1 .08-.55 1.55 1.55 0 0 1 .23-.46 1.11 1.11 0 0 1 .37-.32 1 1 0 0 1 .48-.12 1 1 0 0 1 .48.12 1.07 1.07 0 0 1 .37.31 1.54 1.54 0 0 1 .23.46 1.85 1.85 0 0 1 .08.56 1.81 1.81 0 0 1-.08.55 1.56 1.56 0 0 1-.23.46 1.1 1.1 0 0 1-.37.32 1 1 0 0 1-1 0 1.09 1.09 0 0 1-.37-.32 1.54 1.54 0 0 1-.23-.46 1.85 1.85 0 0 1-.04-.55zm.22 0a1.64 1.64 0 0 0 .07.47 1.43 1.43 0 0 0 .19.4.93.93 0 0 0 .3.28.78.78 0 0 0 .78 0 .9.9 0 0 0 .3-.28 1.41 1.41 0 0 0 .18-.4 1.69 1.69 0 0 0 .07-.47 1.65 1.65 0 0 0-.07-.47 1.41 1.41 0 0 0-.19-.4.94.94 0 0 0-.3-.28.76.76 0 0 0-.39-.11.78.78 0 0 0-.32.07.81.81 0 0 0-.26.19 1.23 1.23 0 0 0-.19.28 1.4 1.4 0 0 0-.12.34 1.78 1.78 0 0 0-.06.38zM258.25 303.22a1.81 1.81 0 0 1 .08-.55 1.55 1.55 0 0 1 .23-.46 1.11 1.11 0 0 1 .37-.32 1 1 0 0 1 .48-.12 1 1 0 0 1 .48.12 1.07 1.07 0 0 1 .37.31 1.54 1.54 0 0 1 .23.46 1.85 1.85 0 0 1 .08.56 1.81 1.81 0 0 1-.08.55 1.56 1.56 0 0 1-.23.46 1.1 1.1 0 0 1-.37.32 1 1 0 0 1-1 0 1.09 1.09 0 0 1-.37-.32 1.54 1.54 0 0 1-.23-.46 1.85 1.85 0 0 1-.04-.55zm.22 0a1.64 1.64 0 0 0 .07.47 1.43 1.43 0 0 0 .19.4.93.93 0 0 0 .3.28.78.78 0 0 0 .78 0 .9.9 0 0 0 .3-.28 1.41 1.41 0 0 0 .18-.4 1.69 1.69 0 0 0 .07-.47 1.65 1.65 0 0 0-.07-.47 1.41 1.41 0 0 0-.19-.4.94.94 0 0 0-.3-.28.76.76 0 0 0-.39-.11.78.78 0 0 0-.32.07.81.81 0 0 0-.26.19 1.23 1.23 0 0 0-.19.28 1.4 1.4 0 0 0-.12.34 1.78 1.78 0 0 0-.06.38zM261.08 303.22a1.81 1.81 0 0 1 .08-.55 1.55 1.55 0 0 1 .23-.46 1.11 1.11 0 0 1 .37-.32 1 1 0 0 1 .48-.12 1 1 0 0 1 .48.12 1.07 1.07 0 0 1 .37.31 1.54 1.54 0 0 1 .23.46 1.85 1.85 0 0 1 .08.56 1.81 1.81 0 0 1-.08.55 1.56 1.56 0 0 1-.23.46 1.1 1.1 0 0 1-.37.32 1 1 0 0 1-1 0 1.09 1.09 0 0 1-.37-.32 1.54 1.54 0 0 1-.23-.46 1.85 1.85 0 0 1-.04-.55zm.22 0a1.64 1.64 0 0 0 .07.47 1.43 1.43 0 0 0 .19.4.93.93 0 0 0 .3.28.78.78 0 0 0 .78 0 .9.9 0 0 0 .3-.28 1.41 1.41 0 0 0 .18-.4 1.69 1.69 0 0 0 .07-.47 1.65 1.65 0 0 0-.07-.47 1.41 1.41 0 0 0-.19-.4.94.94 0 0 0-.3-.28.76.76 0 0 0-.39-.11.78.78 0 0 0-.32.07.81.81 0 0 0-.26.19 1.23 1.23 0 0 0-.19.28 1.4 1.4 0 0 0-.12.34 1.78 1.78 0 0 0-.05.38zM263.92 303.22a1.81 1.81 0 0 1 .08-.55 1.55 1.55 0 0 1 .23-.46 1.11 1.11 0 0 1 .37-.32 1 1 0 0 1 .48-.12 1 1 0 0 1 .48.12 1.07 1.07 0 0 1 .37.31 1.54 1.54 0 0 1 .23.46 1.85 1.85 0 0 1 .08.56 1.81 1.81 0 0 1-.08.55 1.56 1.56 0 0 1-.23.46 1.1 1.1 0 0 1-.37.32 1 1 0 0 1-1 0 1.09 1.09 0 0 1-.37-.32 1.54 1.54 0 0 1-.23-.46 1.85 1.85 0 0 1-.04-.55zm.22 0a1.64 1.64 0 0 0 .07.47 1.43 1.43 0 0 0 .19.4.93.93 0 0 0 .3.28.78.78 0 0 0 .78 0 .9.9 0 0 0 .3-.28 1.41 1.41 0 0 0 .18-.4 1.69 1.69 0 0 0 .07-.47 1.65 1.65 0 0 0-.07-.47 1.41 1.41 0 0 0-.19-.4.94.94 0 0 0-.3-.28.76.76 0 0 0-.39-.11.78.78 0 0 0-.32.07.81.81 0 0 0-.26.19 1.23 1.23 0 0 0-.19.28 1.4 1.4 0 0 0-.12.34 1.78 1.78 0 0 0-.05.38zM10.15 1.45a1.81 1.81 0 0 1 .08-.55 1.55 1.55 0 0 1 .23-.46 1.11 1.11 0 0 1 .37-.32 1 1 0 0 1 .49-.12 1 1 0 0 1 .48.12 1.07 1.07 0 0 1 .37.31 1.54 1.54 0 0 1 .23.46 1.85 1.85 0 0 1 .08.56 1.81 1.81 0 0 1-.08.55 1.56 1.56 0 0 1-.23.46 1.1 1.1 0 0 1-.37.32 1 1 0 0 1-1 0 1.09 1.09 0 0 1-.37-.32 1.54 1.54 0 0 1-.2-.46 1.85 1.85 0 0 1-.08-.55zm.22 0a1.64 1.64 0 0 0 .07.47 1.43 1.43 0 0 0 .19.4.93.93 0 0 0 .3.28.78.78 0 0 0 .78 0 .9.9 0 0 0 .3-.28 1.41 1.41 0 0 0 .18-.4 1.69 1.69 0 0 0 .07-.47 1.65 1.65 0 0 0-.07-.45A1.41 1.41 0 0 0 12 .57a.94.94 0 0 0-.3-.28.76.76 0 0 0-.39-.11.78.78 0 0 0-.31.07.81.81 0 0 0-.26.19 1.23 1.23 0 0 0-.19.28 1.4 1.4 0 0 0-.12.34 1.78 1.78 0 0 0-.06.39zM23 2.85V2.7l1-.95a3 3 0 0 0 .49-.53.78.78 0 0 0 .14-.43.56.56 0 0 0-.19-.43.64.64 0 0 0-.44-.17.78.78 0 0 0-.45.13 1.47 1.47 0 0 0-.37.39L23 .61a2.08 2.08 0 0 1 .19-.25 1.21 1.21 0 0 1 .21-.19.85.85 0 0 1 .28-.17A1.26 1.26 0 0 1 24 0a.83.83 0 0 1 .59.22.73.73 0 0 1 .24.55.91.91 0 0 1 0 .27.93.93 0 0 1-.13.26 2.21 2.21 0 0 1-.21.26l-.32.31-.86.78h1.58v.19zM26.58 1.45a1.81 1.81 0 0 1 .09-.55 1.55 1.55 0 0 1 .23-.47 1.11 1.11 0 0 1 .37-.32 1 1 0 0 1 .48-.11 1 1 0 0 1 .48.12 1.07 1.07 0 0 1 .37.31 1.54 1.54 0 0 1 .23.46 1.85 1.85 0 0 1 .08.56 1.81 1.81 0 0 1-.08.55 1.56 1.56 0 0 1-.23.46 1.1 1.1 0 0 1-.37.32 1 1 0 0 1-1 0 1.09 1.09 0 0 1-.37-.32 1.54 1.54 0 0 1-.19-.46 1.85 1.85 0 0 1-.09-.55zm.22 0a1.64 1.64 0 0 0 .07.47 1.43 1.43 0 0 0 .19.4.93.93 0 0 0 .3.28.78.78 0 0 0 .78 0 .9.9 0 0 0 .3-.28 1.41 1.41 0 0 0 .18-.4 1.69 1.69 0 0 0 .07-.47 1.65 1.65 0 0 0-.07-.45 1.41 1.41 0 0 0-.19-.4.94.94 0 0 0-.3-.28.76.76 0 0 0-.39-.11.78.78 0 0 0-.32.07.81.81 0 0 0-.26.19 1.23 1.23 0 0 0-.16.25 1.4 1.4 0 0 0-.12.34 1.78 1.78 0 0 0-.08.39zM29.42 1.45a1.81 1.81 0 0 1 .09-.55 1.55 1.55 0 0 1 .23-.46 1.11 1.11 0 0 1 .37-.32 1 1 0 0 1 .48-.12 1 1 0 0 1 .48.12 1.07 1.07 0 0 1 .37.31 1.54 1.54 0 0 1 .23.46 1.85 1.85 0 0 1 .08.56 1.81 1.81 0 0 1-.08.55 1.56 1.56 0 0 1-.23.46 1.1 1.1 0 0 1-.37.32 1 1 0 0 1-1 0 1.09 1.09 0 0 1-.37-.32 1.54 1.54 0 0 1-.19-.46 1.85 1.85 0 0 1-.09-.55zm.22 0a1.64 1.64 0 0 0 .07.47 1.43 1.43 0 0 0 .19.4.93.93 0 0 0 .3.28.78.78 0 0 0 .78 0 .9.9 0 0 0 .3-.28 1.41 1.41 0 0 0 .18-.4 1.69 1.69 0 0 0 .07-.47 1.65 1.65 0 0 0-.07-.45 1.41 1.41 0 0 0-.19-.4.94.94 0 0 0-.27-.31.76.76 0 0 0-.39-.11.78.78 0 0 0-.32.07.81.81 0 0 0-.29.19 1.23 1.23 0 0 0-.19.28 1.4 1.4 0 0 0-.12.34 1.78 1.78 0 0 0-.05.39zM32.26 1.45a1.81 1.81 0 0 1 .09-.55 1.55 1.55 0 0 1 .23-.46 1.11 1.11 0 0 1 .37-.32 1 1 0 0 1 .48-.12 1 1 0 0 1 .48.12 1.07 1.07 0 0 1 .37.31 1.54 1.54 0 0 1 .23.46 1.85 1.85 0 0 1 .08.56 1.81 1.81 0 0 1-.09.55 1.56 1.56 0 0 1-.23.46 1.1 1.1 0 0 1-.37.32 1 1 0 0 1-1 0 1.09 1.09 0 0 1-.37-.32 1.54 1.54 0 0 1-.18-.46 1.85 1.85 0 0 1-.09-.55zm.22 0a1.64 1.64 0 0 0 .07.47 1.43 1.43 0 0 0 .19.4.93.93 0 0 0 .3.28.78.78 0 0 0 .78 0 .9.9 0 0 0 .3-.28 1.41 1.41 0 0 0 .18-.4 1.69 1.69 0 0 0 .07-.47A1.65 1.65 0 0 0 34.3 1a1.41 1.41 0 0 0-.19-.4.94.94 0 0 0-.3-.28.76.76 0 0 0-.39-.11.78.78 0 0 0-.32.07.81.81 0 0 0-.26.19 1.23 1.23 0 0 0-.19.28 1.4 1.4 0 0 0-.12.34 1.78 1.78 0 0 0-.05.36zM48.21 2l1.6-2H50v2h.46v.18H50v.68h-.2v-.7h-1.52zm.25 0h1.34V.33zM52.13 1.45a1.81 1.81 0 0 1 .08-.55 1.55 1.55 0 0 1 .23-.46 1.11 1.11 0 0 1 .37-.32 1 1 0 0 1 .48-.12 1 1 0 0 1 .48.12 1.07 1.07 0 0 1 .37.31 1.54 1.54 0 0 1 .23.46 1.85 1.85 0 0 1 .08.56 1.81 1.81 0 0 1-.08.55 1.56 1.56 0 0 1-.23.46 1.1 1.1 0 0 1-.37.32 1 1 0 0 1-1 0 1.09 1.09 0 0 1-.37-.32 1.54 1.54 0 0 1-.19-.46 1.85 1.85 0 0 1-.08-.55zm.22 0a1.64 1.64 0 0 0 .07.47 1.43 1.43 0 0 0 .19.4.93.93 0 0 0 .3.28.78.78 0 0 0 .78 0 .9.9 0 0 0 .3-.28 1.41 1.41 0 0 0 .18-.4 1.69 1.69 0 0 0 .07-.47 1.65 1.65 0 0 0-.07-.45A1.41 1.41 0 0 0 54 .57a.94.94 0 0 0-.3-.28.76.76 0 0 0-.39-.11.78.78 0 0 0-.31.07.81.81 0 0 0-.26.19 1.23 1.23 0 0 0-.19.28 1.4 1.4 0 0 0-.12.34 1.78 1.78 0 0 0-.08.39zM55 1.45a1.81 1.81 0 0 1 .05-.55 1.55 1.55 0 0 1 .23-.46 1.11 1.11 0 0 1 .37-.32 1 1 0 0 1 .48-.12 1 1 0 0 1 .48.12 1.07 1.07 0 0 1 .39.31 1.54 1.54 0 0 1 .23.46 1.85 1.85 0 0 1 .08.56 1.81 1.81 0 0 1-.08.55 1.56 1.56 0 0 1-.23.46 1.1 1.1 0 0 1-.37.32 1 1 0 0 1-1 0 1.09 1.09 0 0 1-.37-.32 1.54 1.54 0 0 1-.21-.46 1.85 1.85 0 0 1-.05-.55zm.22 0a1.64 1.64 0 0 0 .07.47 1.43 1.43 0 0 0 .19.4.93.93 0 0 0 .3.28.78.78 0 0 0 .78 0 .9.9 0 0 0 .3-.28 1.41 1.41 0 0 0 .18-.4 1.69 1.69 0 0 0 .07-.47A1.65 1.65 0 0 0 57 1a1.41 1.41 0 0 0-.19-.4.94.94 0 0 0-.3-.28.76.76 0 0 0-.39-.11.78.78 0 0 0-.32.07.81.81 0 0 0-.26.19 1.23 1.23 0 0 0-.19.28 1.4 1.4 0 0 0-.12.34 1.78 1.78 0 0 0-.04.36zM57.81 1.45a1.81 1.81 0 0 1 .08-.55 1.55 1.55 0 0 1 .23-.46 1.11 1.11 0 0 1 .37-.32A1 1 0 0 1 59 0a1 1 0 0 1 .48.12 1.07 1.07 0 0 1 .37.31 1.54 1.54 0 0 1 .15.46 1.85 1.85 0 0 1 .08.56A1.81 1.81 0 0 1 60 2a1.56 1.56 0 0 1-.23.46 1.1 1.1 0 0 1-.37.32 1 1 0 0 1-1 0 1.09 1.09 0 0 1-.37-.32 1.54 1.54 0 0 1-.14-.46 1.85 1.85 0 0 1-.08-.55zm.22 0a1.64 1.64 0 0 0 .07.47 1.43 1.43 0 0 0 .19.4.93.93 0 0 0 .3.28.78.78 0 0 0 .78 0 .9.9 0 0 0 .3-.28 1.41 1.41 0 0 0 .18-.4 1.69 1.69 0 0 0 .07-.47 1.65 1.65 0 0 0-.07-.45 1.41 1.41 0 0 0-.19-.4.94.94 0 0 0-.3-.28.76.76 0 0 0-.36-.13.78.78 0 0 0-.32.07.81.81 0 0 0-.26.19 1.23 1.23 0 0 0-.19.28 1.4 1.4 0 0 0-.12.34 1.78 1.78 0 0 0-.11.38zM74 2.18a2.09 2.09 0 0 1-.09-.67A2 2 0 0 1 74 .75a1.28 1.28 0 0 1 .4-.55A1 1 0 0 1 75 0a1 1 0 0 1 .42.08 1.69 1.69 0 0 1 .39.24l-.13.16a1.38 1.38 0 0 0-.33-.22.85.85 0 0 0-.35-.07.76.76 0 0 0-.66.38 1.8 1.8 0 0 0-.25 1v.07a1 1 0 0 1 .91-.52 1.07 1.07 0 0 1 .47.11.9.9 0 0 1 .36.31.77.77 0 0 1 .14.45.89.89 0 0 1-.13.47.9.9 0 0 1-.35.33 1.09 1.09 0 0 1-.9 0 1 1 0 0 1-.32-.21 1.13 1.13 0 0 1-.27-.4zm.19-.18a.64.64 0 0 0 .23.5.82.82 0 0 0 .56.2.73.73 0 0 0 .54-.21.71.71 0 0 0 .21-.49.62.62 0 0 0-.21-.48.79.79 0 0 0-.52-.22.83.83 0 0 0-.32.06.76.76 0 0 0-.25.16.72.72 0 0 0-.16.22.63.63 0 0 0-.08.26zM77.67 1.45a1.81 1.81 0 0 1 .08-.55A1.55 1.55 0 0 1 78 .43a1.11 1.11 0 0 1 .37-.32 1 1 0 0 1 .46-.11 1 1 0 0 1 .48.12 1.07 1.07 0 0 1 .37.31 1.54 1.54 0 0 1 .23.46 1.85 1.85 0 0 1 .08.56 1.81 1.81 0 0 1-.09.55 1.56 1.56 0 0 1-.23.46 1.1 1.1 0 0 1-.37.32 1 1 0 0 1-1 0 1.09 1.09 0 0 1-.3-.32 1.54 1.54 0 0 1-.25-.46 1.85 1.85 0 0 1-.08-.55zm.22 0a1.64 1.64 0 0 0 .07.47 1.43 1.43 0 0 0 .19.4.93.93 0 0 0 .3.28.78.78 0 0 0 .78 0 .9.9 0 0 0 .3-.28 1.41 1.41 0 0 0 .18-.4 1.69 1.69 0 0 0 .07-.47A1.65 1.65 0 0 0 79.7 1a1.41 1.41 0 0 0-.19-.4.94.94 0 0 0-.3-.28.76.76 0 0 0-.39-.11.78.78 0 0 0-.32.07.81.81 0 0 0-.26.19 1.23 1.23 0 0 0-.24.25 1.4 1.4 0 0 0-.12.34 1.78 1.78 0 0 0 0 .39zM80.51 1.45a1.81 1.81 0 0 1 .08-.55 1.55 1.55 0 0 1 .23-.46 1.11 1.11 0 0 1 .37-.32 1 1 0 0 1 .48-.12 1 1 0 0 1 .48.12 1.07 1.07 0 0 1 .37.31 1.54 1.54 0 0 1 .23.46 1.85 1.85 0 0 1 .08.56 1.81 1.81 0 0 1-.08.55 1.56 1.56 0 0 1-.23.46 1.1 1.1 0 0 1-.37.32 1 1 0 0 1-1 0 1.09 1.09 0 0 1-.37-.32 1.54 1.54 0 0 1-.19-.46 1.85 1.85 0 0 1-.08-.55zm.22 0a1.64 1.64 0 0 0 .07.47 1.43 1.43 0 0 0 .19.4.93.93 0 0 0 .3.28.78.78 0 0 0 .78 0 .9.9 0 0 0 .3-.28 1.41 1.41 0 0 0 .18-.4 1.69 1.69 0 0 0 .07-.47 1.65 1.65 0 0 0-.08-.45 1.41 1.41 0 0 0-.19-.4.94.94 0 0 0-.3-.28.76.76 0 0 0-.39-.11.78.78 0 0 0-.32.07.81.81 0 0 0-.26.19 1.23 1.23 0 0 0-.19.28 1.4 1.4 0 0 0-.12.34 1.78 1.78 0 0 0-.05.36zM83.35 1.45a1.81 1.81 0 0 1 .08-.55 1.55 1.55 0 0 1 .23-.46A1.11 1.11 0 0 1 84 .12a1 1 0 0 1 .51-.12 1 1 0 0 1 .49.12 1.07 1.07 0 0 1 .37.31 1.54 1.54 0 0 1 .23.46 1.85 1.85 0 0 1 .08.56 1.81 1.81 0 0 1-.08.55 1.56 1.56 0 0 1-.23.46 1.1 1.1 0 0 1-.37.32 1 1 0 0 1-1 0 1.09 1.09 0 0 1-.37-.32 1.54 1.54 0 0 1-.2-.46 1.85 1.85 0 0 1-.08-.55zm.22 0a1.64 1.64 0 0 0 .07.47 1.43 1.43 0 0 0 .19.4.93.93 0 0 0 .3.28.78.78 0 0 0 .78 0 .9.9 0 0 0 .3-.28 1.41 1.41 0 0 0 .18-.4 1.69 1.69 0 0 0 .07-.47 1.65 1.65 0 0 0-.08-.45 1.41 1.41 0 0 0-.19-.4.94.94 0 0 0-.3-.28.76.76 0 0 0-.39-.13.78.78 0 0 0-.32.07.81.81 0 0 0-.26.19 1.23 1.23 0 0 0-.19.28 1.4 1.4 0 0 0-.12.34 1.78 1.78 0 0 0-.05.38zM100.86 2.09a.6.6 0 0 1 .17-.42 1 1 0 0 1 .45-.27 1 1 0 0 1-.38-.26.58.58 0 0 1-.15-.4.6.6 0 0 1 .13-.38.87.87 0 0 1 .35-.26 1.2 1.2 0 0 1 .92 0 .87.87 0 0 1 .35.26.6.6 0 0 1 .14.39.57.57 0 0 1-.15.4 1 1 0 0 1-.38.26 1 1 0 0 1 .45.27.61.61 0 0 1 .17.43.66.66 0 0 1-.14.41.89.89 0 0 1-.37.28 1.37 1.37 0 0 1-.53.1 1.2 1.2 0 0 1-.74-.22.68.68 0 0 1-.29-.59zm.21 0a.51.51 0 0 0 .23.42 1 1 0 0 0 .6.17 1 1 0 0 0 .6-.17.52.52 0 0 0 .22-.43.51.51 0 0 0-.24-.43 1.08 1.08 0 0 0-1.17 0 .52.52 0 0 0-.23.46zm.1-1.36a.5.5 0 0 0 .21.41.9.9 0 0 0 1 0 .51.51 0 0 0 .21-.42.47.47 0 0 0-.21-.39.85.85 0 0 0-.48-.13.84.84 0 0 0-.52.16.48.48 0 0 0-.21.39zM104.62 1.45a1.81 1.81 0 0 1 .08-.55 1.55 1.55 0 0 1 .23-.46 1.11 1.11 0 0 1 .37-.32 1 1 0 0 1 .48-.12 1 1 0 0 1 .48.12 1.07 1.07 0 0 1 .37.31 1.54 1.54 0 0 1 .23.46 1.85 1.85 0 0 1 .08.56 1.81 1.81 0 0 1-.08.55 1.56 1.56 0 0 1-.23.46 1.1 1.1 0 0 1-.37.32 1 1 0 0 1-1 0 1.09 1.09 0 0 1-.37-.32 1.54 1.54 0 0 1-.19-.46 1.85 1.85 0 0 1-.08-.55zm.22 0a1.64 1.64 0 0 0 .07.47 1.43 1.43 0 0 0 .19.4.93.93 0 0 0 .3.28.78.78 0 0 0 .78 0 .9.9 0 0 0 .3-.28 1.41 1.41 0 0 0 .18-.4 1.69 1.69 0 0 0 .07-.47 1.65 1.65 0 0 0-.07-.47 1.41 1.41 0 0 0-.19-.4.94.94 0 0 0-.3-.28.76.76 0 0 0-.39-.11.78.78 0 0 0-.32.07.81.81 0 0 0-.26.19 1.23 1.23 0 0 0-.19.28 1.4 1.4 0 0 0-.12.34 1.78 1.78 0 0 0-.05.38zM107.46 1.45a1.81 1.81 0 0 1 .08-.55 1.55 1.55 0 0 1 .23-.46 1.11 1.11 0 0 1 .37-.32 1 1 0 0 1 .48-.12 1 1 0 0 1 .48.12 1.07 1.07 0 0 1 .37.31 1.54 1.54 0 0 1 .23.46 1.85 1.85 0 0 1 .08.56 1.81 1.81 0 0 1-.08.55 1.56 1.56 0 0 1-.23.46 1.1 1.1 0 0 1-.37.32 1 1 0 0 1-1 0 1.09 1.09 0 0 1-.37-.32 1.54 1.54 0 0 1-.23-.46 1.85 1.85 0 0 1-.04-.55zm.22 0a1.64 1.64 0 0 0 .07.47 1.43 1.43 0 0 0 .19.4.93.93 0 0 0 .3.28.78.78 0 0 0 .78 0 .9.9 0 0 0 .3-.28 1.41 1.41 0 0 0 .18-.4 1.69 1.69 0 0 0 .07-.47 1.65 1.65 0 0 0-.07-.45 1.41 1.41 0 0 0-.19-.4.94.94 0 0 0-.3-.28.76.76 0 0 0-.39-.11.78.78 0 0 0-.32.07.81.81 0 0 0-.26.19 1.23 1.23 0 0 0-.19.28 1.4 1.4 0 0 0-.12.34 1.78 1.78 0 0 0-.05.36zM110.3 1.45a1.81 1.81 0 0 1 .08-.55 1.55 1.55 0 0 1 .23-.46 1.11 1.11 0 0 1 .39-.32 1 1 0 0 1 .48-.12 1 1 0 0 1 .48.12 1.07 1.07 0 0 1 .37.31 1.54 1.54 0 0 1 .23.46 1.85 1.85 0 0 1 .08.56 1.81 1.81 0 0 1-.08.55 1.56 1.56 0 0 1-.23.46 1.1 1.1 0 0 1-.37.32 1 1 0 0 1-1 0 1.09 1.09 0 0 1-.37-.32 1.54 1.54 0 0 1-.23-.46 1.85 1.85 0 0 1-.06-.55zm.22 0a1.64 1.64 0 0 0 .07.47 1.43 1.43 0 0 0 .19.4.93.93 0 0 0 .3.28.78.78 0 0 0 .78 0 .9.9 0 0 0 .3-.28 1.41 1.41 0 0 0 .18-.4 1.69 1.69 0 0 0 .07-.47 1.65 1.65 0 0 0-.07-.47 1.41 1.41 0 0 0-.19-.4.94.94 0 0 0-.3-.28.76.76 0 0 0-.39-.11.78.78 0 0 0-.32.07.81.81 0 0 0-.26.19 1.23 1.23 0 0 0-.19.28 1.4 1.4 0 0 0-.12.34 1.78 1.78 0 0 0-.05.38zM125.39.26L126 0h.16v2.85H126V.24l-.54.18zM126.87 1.45a1.81 1.81 0 0 1 .08-.55 1.55 1.55 0 0 1 .23-.46 1.11 1.11 0 0 1 .37-.32A1 1 0 0 1 128 0a1 1 0 0 1 .48.12 1.07 1.07 0 0 1 .37.31 1.54 1.54 0 0 1 .23.46 1.85 1.85 0 0 1 .08.56 1.81 1.81 0 0 1-.08.55 1.56 1.56 0 0 1-.23.46 1.1 1.1 0 0 1-.37.32 1 1 0 0 1-1 0 1.09 1.09 0 0 1-.37-.32 1.54 1.54 0 0 1-.23-.46 1.85 1.85 0 0 1-.01-.55zm.22 0a1.64 1.64 0 0 0 .07.47 1.43 1.43 0 0 0 .19.4.93.93 0 0 0 .3.28.78.78 0 0 0 .78 0 .9.9 0 0 0 .3-.28 1.41 1.41 0 0 0 .18-.4 1.69 1.69 0 0 0 .07-.47 1.65 1.65 0 0 0-.08-.45 1.41 1.41 0 0 0-.19-.4.94.94 0 0 0-.3-.28.76.76 0 0 0-.41-.13.78.78 0 0 0-.32.07.81.81 0 0 0-.26.19 1.23 1.23 0 0 0-.19.28 1.4 1.4 0 0 0-.12.34 1.78 1.78 0 0 0-.03.38zM130.91 1.45A1.81 1.81 0 0 1 131 .9a1.55 1.55 0 0 1 .23-.46 1.11 1.11 0 0 1 .37-.32 1 1 0 0 1 .48-.12 1 1 0 0 1 .48.12 1.07 1.07 0 0 1 .37.31 1.54 1.54 0 0 1 .23.46 1.85 1.85 0 0 1 .08.56 1.81 1.81 0 0 1-.08.55 1.56 1.56 0 0 1-.23.46 1.1 1.1 0 0 1-.37.32 1 1 0 0 1-1 0 1.09 1.09 0 0 1-.37-.32A1.54 1.54 0 0 1 131 2a1.85 1.85 0 0 1-.09-.55zm.22 0a1.64 1.64 0 0 0 .07.47 1.43 1.43 0 0 0 .19.4.93.93 0 0 0 .3.28.78.78 0 0 0 .78 0 .9.9 0 0 0 .3-.28 1.41 1.41 0 0 0 .18-.4 1.69 1.69 0 0 0 .07-.47 1.65 1.65 0 0 0-.07-.47 1.41 1.41 0 0 0-.19-.4.94.94 0 0 0-.3-.28.76.76 0 0 0-.39-.11.78.78 0 0 0-.32.07.81.81 0 0 0-.26.19 1.23 1.23 0 0 0-.19.28 1.4 1.4 0 0 0-.12.34 1.78 1.78 0 0 0-.06.38zM133.75 1.45a1.81 1.81 0 0 1 .08-.55 1.55 1.55 0 0 1 .23-.46 1.11 1.11 0 0 1 .37-.32 1 1 0 0 1 .48-.12 1 1 0 0 1 .48.12 1.07 1.07 0 0 1 .37.31 1.54 1.54 0 0 1 .23.46 1.85 1.85 0 0 1 .08.56A1.81 1.81 0 0 1 136 2a1.56 1.56 0 0 1-.23.46 1.1 1.1 0 0 1-.37.32 1 1 0 0 1-1 0 1.09 1.09 0 0 1-.37-.32 1.54 1.54 0 0 1-.23-.46 1.85 1.85 0 0 1-.05-.55zm.22 0a1.64 1.64 0 0 0 .07.47 1.43 1.43 0 0 0 .19.4.93.93 0 0 0 .3.28.78.78 0 0 0 .78 0 .9.9 0 0 0 .3-.28 1.41 1.41 0 0 0 .18-.4 1.69 1.69 0 0 0 .07-.47 1.65 1.65 0 0 0-.07-.47 1.41 1.41 0 0 0-.19-.4.94.94 0 0 0-.3-.28.76.76 0 0 0-.39-.11.78.78 0 0 0-.32.07.81.81 0 0 0-.26.19 1.23 1.23 0 0 0-.19.28 1.4 1.4 0 0 0-.12.34 1.78 1.78 0 0 0-.02.38zM136.58 1.45a1.81 1.81 0 0 1 .08-.55 1.55 1.55 0 0 1 .23-.46 1.11 1.11 0 0 1 .37-.32 1 1 0 0 1 .48-.12 1 1 0 0 1 .48.12 1.07 1.07 0 0 1 .37.31 1.54 1.54 0 0 1 .23.46 1.85 1.85 0 0 1 .08.56 1.81 1.81 0 0 1-.08.55 1.56 1.56 0 0 1-.23.46 1.1 1.1 0 0 1-.37.32 1 1 0 0 1-1 0 1.09 1.09 0 0 1-.37-.32 1.54 1.54 0 0 1-.23-.46 1.85 1.85 0 0 1-.04-.55zm.22 0a1.64 1.64 0 0 0 .07.47 1.43 1.43 0 0 0 .19.4.93.93 0 0 0 .3.28.78.78 0 0 0 .78 0 .9.9 0 0 0 .3-.28 1.41 1.41 0 0 0 .18-.4 1.69 1.69 0 0 0 .07-.47 1.65 1.65 0 0 0-.07-.47 1.41 1.41 0 0 0-.19-.4.94.94 0 0 0-.3-.28.76.76 0 0 0-.39-.11.78.78 0 0 0-.32.07.81.81 0 0 0-.26.19 1.23 1.23 0 0 0-.19.28 1.4 1.4 0 0 0-.12.34 1.78 1.78 0 0 0-.05.38zM149.33 2.85V2.7l1-.95a3 3 0 0 0 .49-.53.78.78 0 0 0 .18-.43.56.56 0 0 0-.19-.43.64.64 0 0 0-.45-.17.78.78 0 0 0-.45.13 1.47 1.47 0 0 0-.37.39l-.16-.1a2.08 2.08 0 0 1 .19-.25 1.21 1.21 0 0 1 .21-.19.85.85 0 0 1 .27-.12 1.26 1.26 0 0 1 .33 0 .83.83 0 0 1 .59.22.73.73 0 0 1 .24.55.91.91 0 0 1 0 .27.93.93 0 0 1-.13.26 2.21 2.21 0 0 1-.21.26l-.32.31-.86.78h1.58v.19zM151.76 1.45a1.81 1.81 0 0 1 .08-.55 1.55 1.55 0 0 1 .23-.46 1.11 1.11 0 0 1 .37-.32 1 1 0 0 1 .48-.12 1 1 0 0 1 .48.12 1.07 1.07 0 0 1 .37.31 1.54 1.54 0 0 1 .23.46 1.85 1.85 0 0 1 .08.56A1.81 1.81 0 0 1 154 2a1.56 1.56 0 0 1-.23.46 1.1 1.1 0 0 1-.37.32 1 1 0 0 1-1 0 1.09 1.09 0 0 1-.37-.32 1.54 1.54 0 0 1-.23-.46 1.85 1.85 0 0 1-.04-.55zm.22 0a1.64 1.64 0 0 0 .07.47 1.43 1.43 0 0 0 .19.4.93.93 0 0 0 .3.28.78.78 0 0 0 .78 0 .9.9 0 0 0 .3-.28 1.41 1.41 0 0 0 .18-.4 1.69 1.69 0 0 0 .07-.47 1.65 1.65 0 0 0-.07-.45 1.41 1.41 0 0 0-.19-.4.94.94 0 0 0-.3-.28.76.76 0 0 0-.39-.11.78.78 0 0 0-.32.07.81.81 0 0 0-.26.19 1.23 1.23 0 0 0-.19.28 1.4 1.4 0 0 0-.12.34 1.78 1.78 0 0 0-.03.36zM155.8 1.45a1.81 1.81 0 0 1 .08-.55 1.55 1.55 0 0 1 .23-.46 1.11 1.11 0 0 1 .37-.32A1 1 0 0 1 157 0a1 1 0 0 1 .48.12 1.07 1.07 0 0 1 .37.31 1.54 1.54 0 0 1 .23.46 1.85 1.85 0 0 1 .08.56A1.81 1.81 0 0 1 158 2a1.56 1.56 0 0 1-.23.46 1.1 1.1 0 0 1-.37.32 1 1 0 0 1-1 0 1.09 1.09 0 0 1-.37-.32 1.54 1.54 0 0 1-.23-.46 1.85 1.85 0 0 1 0-.55zm.22 0a1.64 1.64 0 0 0 .07.47 1.43 1.43 0 0 0 .19.4.93.93 0 0 0 .3.28.78.78 0 0 0 .78 0 .9.9 0 0 0 .3-.28 1.41 1.41 0 0 0 .18-.4 1.69 1.69 0 0 0 .07-.47 1.65 1.65 0 0 0-.07-.47 1.41 1.41 0 0 0-.19-.4.94.94 0 0 0-.3-.28.76.76 0 0 0-.35-.11.78.78 0 0 0-.32.07.81.81 0 0 0-.26.19 1.23 1.23 0 0 0-.19.28 1.4 1.4 0 0 0-.12.34 1.78 1.78 0 0 0-.11.38zM158.64 1.45a1.81 1.81 0 0 1 .08-.55 1.55 1.55 0 0 1 .28-.47 1.11 1.11 0 0 1 .37-.32 1 1 0 0 1 .43-.11 1 1 0 0 1 .48.12 1.07 1.07 0 0 1 .37.31 1.54 1.54 0 0 1 .23.46 1.85 1.85 0 0 1 .08.56 1.81 1.81 0 0 1-.08.55 1.56 1.56 0 0 1-.23.46 1.1 1.1 0 0 1-.37.32 1 1 0 0 1-1 0 1.09 1.09 0 0 1-.37-.32 1.54 1.54 0 0 1-.23-.46 1.85 1.85 0 0 1-.04-.55zm.22 0a1.64 1.64 0 0 0 .07.47 1.43 1.43 0 0 0 .19.4.93.93 0 0 0 .3.28.78.78 0 0 0 .78 0 .9.9 0 0 0 .3-.28 1.41 1.41 0 0 0 .18-.4 1.69 1.69 0 0 0 .07-.47 1.65 1.65 0 0 0-.07-.47 1.41 1.41 0 0 0-.19-.4.94.94 0 0 0-.3-.28.76.76 0 0 0-.39-.11.78.78 0 0 0-.32.07.81.81 0 0 0-.26.19 1.23 1.23 0 0 0-.19.28 1.4 1.4 0 0 0-.12.34 1.78 1.78 0 0 0-.05.38zM161.48 1.45a1.81 1.81 0 0 1 .08-.55 1.55 1.55 0 0 1 .23-.46 1.11 1.11 0 0 1 .37-.32 1 1 0 0 1 .48-.12 1 1 0 0 1 .48.12 1.07 1.07 0 0 1 .37.31 1.54 1.54 0 0 1 .23.46 1.85 1.85 0 0 1 .08.56 1.81 1.81 0 0 1-.08.55 1.56 1.56 0 0 1-.23.46 1.1 1.1 0 0 1-.37.32 1 1 0 0 1-1 0 1.09 1.09 0 0 1-.37-.32 1.54 1.54 0 0 1-.23-.46 1.85 1.85 0 0 1-.04-.55zm.22 0a1.64 1.64 0 0 0 .07.47 1.43 1.43 0 0 0 .19.4.93.93 0 0 0 .3.28.78.78 0 0 0 .78 0 .9.9 0 0 0 .3-.28 1.41 1.41 0 0 0 .18-.4 1.69 1.69 0 0 0 .07-.47 1.65 1.65 0 0 0-.07-.47 1.41 1.41 0 0 0-.19-.4.94.94 0 0 0-.3-.28.76.76 0 0 0-.39-.11.78.78 0 0 0-.32.07.81.81 0 0 0-.26.19 1.23 1.23 0 0 0-.19.28 1.4 1.4 0 0 0-.12.34 1.78 1.78 0 0 0-.05.38zM174.21 2l1.6-2h.19v2h.46v.18H176v.68h-.2v-.7h-1.52zm.25 0h1.34V.33zM176.93 1.45A1.81 1.81 0 0 1 177 .9a1.55 1.55 0 0 1 .23-.46 1.11 1.11 0 0 1 .37-.32 1 1 0 0 1 .48-.12 1 1 0 0 1 .48.12 1.07 1.07 0 0 1 .37.31 1.54 1.54 0 0 1 .23.46 1.85 1.85 0 0 1 .08.56 1.81 1.81 0 0 1-.08.55 1.56 1.56 0 0 1-.23.46 1.1 1.1 0 0 1-.37.32 1 1 0 0 1-1 0 1.09 1.09 0 0 1-.37-.32A1.54 1.54 0 0 1 177 2a1.85 1.85 0 0 1-.07-.55zm.22 0a1.64 1.64 0 0 0 .07.47 1.43 1.43 0 0 0 .19.4.93.93 0 0 0 .3.28.78.78 0 0 0 .78 0 .9.9 0 0 0 .3-.28 1.41 1.41 0 0 0 .18-.4 1.69 1.69 0 0 0 .07-.47A1.65 1.65 0 0 0 179 1a1.41 1.41 0 0 0-.19-.4.94.94 0 0 0-.3-.28.76.76 0 0 0-.39-.11.78.78 0 0 0-.32.07.81.81 0 0 0-.26.19 1.23 1.23 0 0 0-.19.28 1.4 1.4 0 0 0-.12.34 1.78 1.78 0 0 0-.08.36zM181 1.45a1.81 1.81 0 0 1 .08-.55 1.55 1.55 0 0 1 .23-.46 1.11 1.11 0 0 1 .37-.32 1 1 0 0 1 .48-.12 1 1 0 0 1 .48.12 1.07 1.07 0 0 1 .37.31 1.54 1.54 0 0 1 .23.46 1.85 1.85 0 0 1 .08.56 1.81 1.81 0 0 1-.08.55 1.56 1.56 0 0 1-.23.46 1.1 1.1 0 0 1-.37.32 1 1 0 0 1-1 0 1.09 1.09 0 0 1-.37-.32 1.54 1.54 0 0 1-.23-.46 1.85 1.85 0 0 1-.04-.55zm.22 0a1.64 1.64 0 0 0 .07.47 1.43 1.43 0 0 0 .19.4.93.93 0 0 0 .3.28.78.78 0 0 0 .78 0 .9.9 0 0 0 .3-.28 1.41 1.41 0 0 0 .18-.4 1.69 1.69 0 0 0 .07-.47A1.65 1.65 0 0 0 183 1a1.41 1.41 0 0 0-.19-.4.94.94 0 0 0-.3-.28.76.76 0 0 0-.39-.11.78.78 0 0 0-.32.07.81.81 0 0 0-.26.19 1.23 1.23 0 0 0-.19.28 1.4 1.4 0 0 0-.12.34 1.78 1.78 0 0 0-.04.36zM183.81 1.45a1.81 1.81 0 0 1 .08-.55 1.55 1.55 0 0 1 .23-.46 1.11 1.11 0 0 1 .37-.32A1 1 0 0 1 185 0a1 1 0 0 1 .48.12 1.07 1.07 0 0 1 .37.31 1.54 1.54 0 0 1 .23.46 1.85 1.85 0 0 1 .08.56A1.81 1.81 0 0 1 186 2a1.56 1.56 0 0 1-.23.46 1.1 1.1 0 0 1-.37.32 1 1 0 0 1-1 0 1.09 1.09 0 0 1-.37-.32 1.54 1.54 0 0 1-.23-.46 1.85 1.85 0 0 1 .01-.55zm.22 0a1.64 1.64 0 0 0 .07.47 1.43 1.43 0 0 0 .19.4.93.93 0 0 0 .3.28.78.78 0 0 0 .78 0 .9.9 0 0 0 .3-.28 1.41 1.41 0 0 0 .18-.4 1.69 1.69 0 0 0 .07-.47 1.65 1.65 0 0 0-.07-.47 1.41 1.41 0 0 0-.19-.4.94.94 0 0 0-.3-.28.76.76 0 0 0-.36-.11.78.78 0 0 0-.32.07.81.81 0 0 0-.26.19 1.23 1.23 0 0 0-.19.28 1.4 1.4 0 0 0-.12.34 1.78 1.78 0 0 0-.11.38zM186.65 1.45a1.81 1.81 0 0 1 .08-.55 1.55 1.55 0 0 1 .27-.47 1.11 1.11 0 0 1 .37-.32 1 1 0 0 1 .48-.12 1 1 0 0 1 .48.12 1.07 1.07 0 0 1 .37.31 1.54 1.54 0 0 1 .23.46 1.85 1.85 0 0 1 .08.56 1.81 1.81 0 0 1-.08.55 1.56 1.56 0 0 1-.23.46 1.1 1.1 0 0 1-.37.32 1 1 0 0 1-1 0 1.09 1.09 0 0 1-.37-.32 1.54 1.54 0 0 1-.23-.46 1.85 1.85 0 0 1-.08-.54zm.22 0a1.64 1.64 0 0 0 .07.47 1.43 1.43 0 0 0 .19.4.93.93 0 0 0 .3.28.78.78 0 0 0 .78 0 .9.9 0 0 0 .3-.28 1.41 1.41 0 0 0 .18-.4 1.69 1.69 0 0 0 .07-.47 1.65 1.65 0 0 0-.07-.47 1.41 1.41 0 0 0-.19-.4.94.94 0 0 0-.3-.28.76.76 0 0 0-.39-.11.78.78 0 0 0-.32.07.81.81 0 0 0-.26.19 1.23 1.23 0 0 0-.19.28 1.4 1.4 0 0 0-.12.34 1.78 1.78 0 0 0-.05.38zM200.86 2.18a2.09 2.09 0 0 1-.09-.67 2 2 0 0 1 .14-.77 1.28 1.28 0 0 1 .4-.55 1 1 0 0 1 .6-.2 1 1 0 0 1 .42.08 1.69 1.69 0 0 1 .39.24l-.13.16a1.38 1.38 0 0 0-.33-.22.85.85 0 0 0-.36-.07.76.76 0 0 0-.66.38 1.8 1.8 0 0 0-.25 1v.07a1 1 0 0 1 .88-.52 1.07 1.07 0 0 1 .47.11.9.9 0 0 1 .36.31.77.77 0 0 1 .14.45.89.89 0 0 1-.13.47.9.9 0 0 1-.35.33 1.09 1.09 0 0 1-.9 0 1 1 0 0 1-.32-.21 1.13 1.13 0 0 1-.28-.39zm.21-.18a.64.64 0 0 0 .23.5.82.82 0 0 0 .56.2.73.73 0 0 0 .54-.21.71.71 0 0 0 .2-.49.62.62 0 0 0-.21-.48.79.79 0 0 0-.54-.19.83.83 0 0 0-.32.06.76.76 0 0 0-.25.16.72.72 0 0 0-.16.22.63.63 0 0 0-.05.23zM203.34 1.45a1.81 1.81 0 0 1 .08-.55 1.55 1.55 0 0 1 .23-.46 1.11 1.11 0 0 1 .35-.32 1 1 0 0 1 .48-.12 1 1 0 0 1 .48.12 1.07 1.07 0 0 1 .37.31 1.54 1.54 0 0 1 .23.46 1.85 1.85 0 0 1 .08.56 1.81 1.81 0 0 1-.08.55 1.56 1.56 0 0 1-.23.46 1.1 1.1 0 0 1-.37.32 1 1 0 0 1-1 0 1.09 1.09 0 0 1-.37-.32 1.54 1.54 0 0 1-.23-.46 1.85 1.85 0 0 1-.02-.55zm.22 0a1.64 1.64 0 0 0 .07.47 1.43 1.43 0 0 0 .19.4.93.93 0 0 0 .3.28.78.78 0 0 0 .78 0 .9.9 0 0 0 .3-.28 1.41 1.41 0 0 0 .18-.4 1.69 1.69 0 0 0 .07-.47 1.65 1.65 0 0 0-.07-.47 1.41 1.41 0 0 0-.19-.4.94.94 0 0 0-.3-.28.76.76 0 0 0-.39-.11.78.78 0 0 0-.32.07.81.81 0 0 0-.26.19 1.23 1.23 0 0 0-.19.28 1.4 1.4 0 0 0-.12.34 1.78 1.78 0 0 0-.05.38zM207.38 1.45a1.81 1.81 0 0 1 .08-.55 1.55 1.55 0 0 1 .23-.46 1.11 1.11 0 0 1 .37-.32 1 1 0 0 1 .48-.12 1 1 0 0 1 .48.12 1.07 1.07 0 0 1 .37.31 1.54 1.54 0 0 1 .23.46 1.85 1.85 0 0 1 .08.56 1.81 1.81 0 0 1-.08.55 1.56 1.56 0 0 1-.23.46 1.1 1.1 0 0 1-.37.32 1 1 0 0 1-1 0 1.09 1.09 0 0 1-.37-.32 1.54 1.54 0 0 1-.23-.46 1.85 1.85 0 0 1-.04-.55zm.22 0a1.64 1.64 0 0 0 .07.47 1.43 1.43 0 0 0 .19.4.93.93 0 0 0 .3.28.78.78 0 0 0 .78 0 .9.9 0 0 0 .3-.28 1.41 1.41 0 0 0 .18-.4 1.69 1.69 0 0 0 .07-.47 1.65 1.65 0 0 0-.07-.47 1.41 1.41 0 0 0-.19-.4.94.94 0 0 0-.3-.28.76.76 0 0 0-.39-.11.78.78 0 0 0-.32.07.81.81 0 0 0-.26.19 1.23 1.23 0 0 0-.19.28 1.4 1.4 0 0 0-.12.34 1.78 1.78 0 0 0-.05.38zM210.22 1.45a1.81 1.81 0 0 1 .08-.55 1.55 1.55 0 0 1 .23-.46 1.11 1.11 0 0 1 .37-.32 1 1 0 0 1 .48-.12 1 1 0 0 1 .48.12 1.07 1.07 0 0 1 .37.31 1.54 1.54 0 0 1 .23.46 1.85 1.85 0 0 1 .08.56 1.81 1.81 0 0 1-.08.55 1.56 1.56 0 0 1-.23.46 1.1 1.1 0 0 1-.37.32 1 1 0 0 1-1 0 1.09 1.09 0 0 1-.37-.32 1.54 1.54 0 0 1-.19-.46 1.85 1.85 0 0 1-.08-.55zm.22 0a1.64 1.64 0 0 0 .07.47 1.43 1.43 0 0 0 .19.4.93.93 0 0 0 .3.28.78.78 0 0 0 .78 0 .9.9 0 0 0 .3-.28 1.41 1.41 0 0 0 .18-.4 1.69 1.69 0 0 0 .07-.47 1.65 1.65 0 0 0-.07-.47 1.41 1.41 0 0 0-.19-.4.94.94 0 0 0-.3-.28.76.76 0 0 0-.39-.11.78.78 0 0 0-.32.07.81.81 0 0 0-.26.19 1.23 1.23 0 0 0-.19.28 1.4 1.4 0 0 0-.12.34 1.78 1.78 0 0 0-.05.38zM213.06 1.45a1.81 1.81 0 0 1 .08-.55 1.55 1.55 0 0 1 .23-.46 1.11 1.11 0 0 1 .37-.32 1 1 0 0 1 .48-.12 1 1 0 0 1 .48.12 1.07 1.07 0 0 1 .37.31 1.54 1.54 0 0 1 .23.46 1.85 1.85 0 0 1 .08.56 1.81 1.81 0 0 1-.08.55 1.56 1.56 0 0 1-.23.46 1.1 1.1 0 0 1-.37.32 1 1 0 0 1-1 0 1.09 1.09 0 0 1-.37-.32 1.54 1.54 0 0 1-.23-.46 1.85 1.85 0 0 1-.04-.55zm.22 0a1.64 1.64 0 0 0 .07.47 1.43 1.43 0 0 0 .19.4.93.93 0 0 0 .3.28.78.78 0 0 0 .78 0 .9.9 0 0 0 .3-.28 1.41 1.41 0 0 0 .18-.4 1.69 1.69 0 0 0 .07-.47 1.65 1.65 0 0 0-.07-.45 1.41 1.41 0 0 0-.19-.4.94.94 0 0 0-.3-.28.76.76 0 0 0-.39-.11.78.78 0 0 0-.32.07.81.81 0 0 0-.26.19 1.23 1.23 0 0 0-.19.28 1.4 1.4 0 0 0-.12.34 1.78 1.78 0 0 0-.05.36zM225.24 2.09a.6.6 0 0 1 .17-.42 1 1 0 0 1 .45-.27 1 1 0 0 1-.38-.26.58.58 0 0 1-.15-.4.6.6 0 0 1 .13-.38.87.87 0 0 1 .35-.26 1.2 1.2 0 0 1 .92 0 .87.87 0 0 1 .35.26.6.6 0 0 1 .14.39.57.57 0 0 1-.15.4 1 1 0 0 1-.38.26 1 1 0 0 1 .45.27.61.61 0 0 1 .17.43.66.66 0 0 1-.14.41.89.89 0 0 1-.37.28 1.37 1.37 0 0 1-.53.1 1.2 1.2 0 0 1-.74-.22.68.68 0 0 1-.29-.59zm.21 0a.51.51 0 0 0 .23.42 1 1 0 0 0 .6.17 1 1 0 0 0 .6-.17.52.52 0 0 0 .22-.43.51.51 0 0 0-.24-.43 1.08 1.08 0 0 0-1.17 0 .52.52 0 0 0-.24.46zm.1-1.36a.5.5 0 0 0 .21.41.9.9 0 0 0 1 0 .51.51 0 0 0 .24-.4.47.47 0 0 0-.21-.39.85.85 0 0 0-.52-.15.84.84 0 0 0-.52.16.48.48 0 0 0-.2.39zM227.8 1.45a1.81 1.81 0 0 1 .08-.55 1.55 1.55 0 0 1 .23-.46 1.11 1.11 0 0 1 .37-.32A1 1 0 0 1 229 0a1 1 0 0 1 .48.12 1.07 1.07 0 0 1 .37.31 1.54 1.54 0 0 1 .23.46 1.85 1.85 0 0 1 .08.56A1.81 1.81 0 0 1 230 2a1.56 1.56 0 0 1-.23.46 1.1 1.1 0 0 1-.37.32 1 1 0 0 1-1 0 1.09 1.09 0 0 1-.37-.32 1.54 1.54 0 0 1-.23-.46 1.85 1.85 0 0 1 0-.55zm.22 0a1.64 1.64 0 0 0 .07.47 1.43 1.43 0 0 0 .19.4.93.93 0 0 0 .3.28.78.78 0 0 0 .78 0 .9.9 0 0 0 .3-.28 1.41 1.41 0 0 0 .18-.4 1.69 1.69 0 0 0 .07-.47 1.65 1.65 0 0 0-.07-.47 1.41 1.41 0 0 0-.19-.4.94.94 0 0 0-.3-.28.76.76 0 0 0-.35-.11.78.78 0 0 0-.32.07.81.81 0 0 0-.26.19 1.23 1.23 0 0 0-.19.28 1.4 1.4 0 0 0-.12.34 1.78 1.78 0 0 0-.11.38zM231.83 1.45a1.81 1.81 0 0 1 .08-.55 1.55 1.55 0 0 1 .23-.46 1.11 1.11 0 0 1 .37-.32A1 1 0 0 1 233 0a1 1 0 0 1 .48.12 1.07 1.07 0 0 1 .37.31 1.54 1.54 0 0 1 .23.46 1.85 1.85 0 0 1 .08.56 1.81 1.81 0 0 1-.08.55 1.56 1.56 0 0 1-.23.46 1.1 1.1 0 0 1-.37.32 1 1 0 0 1-1 0 1.09 1.09 0 0 1-.37-.32 1.54 1.54 0 0 1-.23-.46 1.85 1.85 0 0 1-.05-.55zm.22 0a1.64 1.64 0 0 0 .07.47 1.43 1.43 0 0 0 .19.4.93.93 0 0 0 .3.28.78.78 0 0 0 .78 0 .9.9 0 0 0 .3-.28 1.41 1.41 0 0 0 .18-.4 1.69 1.69 0 0 0 .07-.47 1.65 1.65 0 0 0-.07-.47 1.41 1.41 0 0 0-.19-.4.94.94 0 0 0-.3-.28.76.76 0 0 0-.38-.11.78.78 0 0 0-.32.07.81.81 0 0 0-.26.19 1.23 1.23 0 0 0-.19.28 1.4 1.4 0 0 0-.12.34 1.78 1.78 0 0 0-.06.38zM234.67 1.45a1.81 1.81 0 0 1 .08-.55 1.55 1.55 0 0 1 .25-.47 1.11 1.11 0 0 1 .37-.32 1 1 0 0 1 .48-.12 1 1 0 0 1 .48.12 1.07 1.07 0 0 1 .37.31 1.54 1.54 0 0 1 .23.46 1.85 1.85 0 0 1 .08.56 1.81 1.81 0 0 1-.08.55 1.56 1.56 0 0 1-.23.46 1.1 1.1 0 0 1-.37.32 1 1 0 0 1-1 0 1.09 1.09 0 0 1-.37-.32 1.54 1.54 0 0 1-.23-.46 1.85 1.85 0 0 1-.06-.54zm.22 0a1.64 1.64 0 0 0 .07.47 1.43 1.43 0 0 0 .19.4.93.93 0 0 0 .3.28.78.78 0 0 0 .78 0 .9.9 0 0 0 .3-.28 1.41 1.41 0 0 0 .18-.4 1.69 1.69 0 0 0 .07-.47 1.65 1.65 0 0 0-.07-.47 1.41 1.41 0 0 0-.19-.4.94.94 0 0 0-.3-.28.76.76 0 0 0-.39-.11.78.78 0 0 0-.32.07.81.81 0 0 0-.26.19 1.23 1.23 0 0 0-.19.28 1.4 1.4 0 0 0-.12.34 1.78 1.78 0 0 0-.05.38zM237.51 1.45a1.81 1.81 0 0 1 .09-.55 1.55 1.55 0 0 1 .23-.46 1.11 1.11 0 0 1 .37-.32 1 1 0 0 1 .48-.12 1 1 0 0 1 .48.12 1.07 1.07 0 0 1 .37.31 1.54 1.54 0 0 1 .23.46 1.85 1.85 0 0 1 .08.56 1.81 1.81 0 0 1-.08.55 1.56 1.56 0 0 1-.23.46 1.1 1.1 0 0 1-.37.32 1 1 0 0 1-1 0 1.09 1.09 0 0 1-.37-.32 1.54 1.54 0 0 1-.19-.46 1.85 1.85 0 0 1-.09-.55zm.22 0a1.64 1.64 0 0 0 .07.47 1.43 1.43 0 0 0 .19.4.93.93 0 0 0 .3.28.78.78 0 0 0 .78 0 .9.9 0 0 0 .3-.28 1.41 1.41 0 0 0 .18-.4 1.69 1.69 0 0 0 .07-.47 1.65 1.65 0 0 0-.07-.47 1.41 1.41 0 0 0-.19-.4.94.94 0 0 0-.3-.28.76.76 0 0 0-.39-.11.78.78 0 0 0-.32.07.81.81 0 0 0-.26.19 1.23 1.23 0 0 0-.19.28 1.4 1.4 0 0 0-.12.34 1.78 1.78 0 0 0-.05.38zM249.89.26l.64-.24h.16v2.83h-.2V.24l-.54.18zM251.37 1.45a1.81 1.81 0 0 1 .08-.55 1.55 1.55 0 0 1 .23-.46 1.11 1.11 0 0 1 .32-.32 1 1 0 0 1 .48-.12 1 1 0 0 1 .48.12 1.07 1.07 0 0 1 .37.31 1.54 1.54 0 0 1 .23.46 1.85 1.85 0 0 1 .08.56 1.81 1.81 0 0 1-.08.55 1.56 1.56 0 0 1-.23.46 1.1 1.1 0 0 1-.37.32 1 1 0 0 1-1 0 1.09 1.09 0 0 1-.37-.32 1.54 1.54 0 0 1-.23-.46 1.85 1.85 0 0 1 .01-.55zm.22 0a1.64 1.64 0 0 0 .07.47 1.43 1.43 0 0 0 .19.4.93.93 0 0 0 .3.28.78.78 0 0 0 .78 0 .9.9 0 0 0 .3-.28 1.41 1.41 0 0 0 .18-.4 1.69 1.69 0 0 0 .07-.47 1.65 1.65 0 0 0-.08-.45 1.41 1.41 0 0 0-.19-.4.94.94 0 0 0-.3-.28.76.76 0 0 0-.39-.11.78.78 0 0 0-.32.07.81.81 0 0 0-.26.19 1.23 1.23 0 0 0-.19.28 1.4 1.4 0 0 0-.12.34 1.78 1.78 0 0 0-.05.36zM254.21 1.45a1.81 1.81 0 0 1 .08-.55 1.55 1.55 0 0 1 .23-.46 1.11 1.11 0 0 1 .37-.32 1 1 0 0 1 .48-.12 1 1 0 0 1 .48.12 1.07 1.07 0 0 1 .37.31 1.54 1.54 0 0 1 .23.46 1.85 1.85 0 0 1 .08.56 1.81 1.81 0 0 1-.08.55 1.56 1.56 0 0 1-.23.46 1.1 1.1 0 0 1-.37.32 1 1 0 0 1-1 0 1.09 1.09 0 0 1-.37-.32 1.54 1.54 0 0 1-.23-.46 1.85 1.85 0 0 1-.04-.55zm.22 0a1.64 1.64 0 0 0 .07.47 1.43 1.43 0 0 0 .19.4.93.93 0 0 0 .3.28.78.78 0 0 0 .78 0 .9.9 0 0 0 .3-.28 1.41 1.41 0 0 0 .18-.4 1.69 1.69 0 0 0 .07-.47 1.65 1.65 0 0 0-.07-.47 1.41 1.41 0 0 0-.19-.4.94.94 0 0 0-.3-.28.76.76 0 0 0-.39-.11.78.78 0 0 0-.32.07.81.81 0 0 0-.26.19 1.23 1.23 0 0 0-.19.28 1.4 1.4 0 0 0-.12.34 1.78 1.78 0 0 0-.06.38zM258.25 1.45a1.81 1.81 0 0 1 .08-.55 1.55 1.55 0 0 1 .23-.46 1.11 1.11 0 0 1 .37-.32 1 1 0 0 1 .48-.12 1 1 0 0 1 .48.12 1.07 1.07 0 0 1 .37.31 1.54 1.54 0 0 1 .23.46 1.85 1.85 0 0 1 .08.56 1.81 1.81 0 0 1-.08.55 1.56 1.56 0 0 1-.23.46 1.1 1.1 0 0 1-.37.32 1 1 0 0 1-1 0 1.09 1.09 0 0 1-.37-.32 1.54 1.54 0 0 1-.23-.46 1.85 1.85 0 0 1-.04-.55zm.22 0a1.64 1.64 0 0 0 .07.47 1.43 1.43 0 0 0 .19.4.93.93 0 0 0 .3.28.78.78 0 0 0 .78 0 .9.9 0 0 0 .3-.28 1.41 1.41 0 0 0 .18-.4 1.69 1.69 0 0 0 .07-.47 1.65 1.65 0 0 0-.07-.47 1.41 1.41 0 0 0-.19-.4.94.94 0 0 0-.3-.28.76.76 0 0 0-.39-.11.78.78 0 0 0-.32.07.81.81 0 0 0-.26.19 1.23 1.23 0 0 0-.19.28 1.4 1.4 0 0 0-.12.34 1.78 1.78 0 0 0-.06.38zM261.08 1.45a1.81 1.81 0 0 1 .08-.55 1.55 1.55 0 0 1 .23-.46 1.11 1.11 0 0 1 .37-.32 1 1 0 0 1 .48-.12 1 1 0 0 1 .48.12 1.07 1.07 0 0 1 .37.31 1.54 1.54 0 0 1 .23.46 1.85 1.85 0 0 1 .08.56 1.81 1.81 0 0 1-.08.55 1.56 1.56 0 0 1-.23.46 1.1 1.1 0 0 1-.37.32 1 1 0 0 1-1 0 1.09 1.09 0 0 1-.37-.32 1.54 1.54 0 0 1-.23-.46 1.85 1.85 0 0 1-.04-.55zm.22 0a1.64 1.64 0 0 0 .07.47 1.43 1.43 0 0 0 .19.4.93.93 0 0 0 .3.28.78.78 0 0 0 .78 0 .9.9 0 0 0 .3-.28 1.41 1.41 0 0 0 .18-.4 1.69 1.69 0 0 0 .07-.47 1.65 1.65 0 0 0-.07-.47 1.41 1.41 0 0 0-.19-.4.94.94 0 0 0-.3-.28.76.76 0 0 0-.39-.11.78.78 0 0 0-.32.07.81.81 0 0 0-.26.19 1.23 1.23 0 0 0-.19.28 1.4 1.4 0 0 0-.12.34 1.78 1.78 0 0 0-.05.38zM263.92 1.45A1.81 1.81 0 0 1 264 .9a1.55 1.55 0 0 1 .23-.46 1.11 1.11 0 0 1 .37-.32 1 1 0 0 1 .48-.12 1 1 0 0 1 .48.12 1.07 1.07 0 0 1 .37.31 1.54 1.54 0 0 1 .23.46 1.85 1.85 0 0 1 .08.56 1.81 1.81 0 0 1-.08.55 1.56 1.56 0 0 1-.23.46 1.1 1.1 0 0 1-.37.32 1 1 0 0 1-1 0 1.09 1.09 0 0 1-.37-.32A1.54 1.54 0 0 1 264 2a1.85 1.85 0 0 1-.08-.55zm.22 0a1.64 1.64 0 0 0 .07.47 1.43 1.43 0 0 0 .19.4.93.93 0 0 0 .3.28.78.78 0 0 0 .78 0 .9.9 0 0 0 .3-.28 1.41 1.41 0 0 0 .18-.4 1.69 1.69 0 0 0 .07-.47A1.65 1.65 0 0 0 266 1a1.41 1.41 0 0 0-.19-.4.94.94 0 0 0-.3-.28.76.76 0 0 0-.39-.11.78.78 0 0 0-.32.07.81.81 0 0 0-.26.19 1.23 1.23 0 0 0-.19.28 1.4 1.4 0 0 0-.12.34 1.78 1.78 0 0 0-.09.36z"/><path class="cls-3" d="M29.38 295.46V9.1M55.29 295.46V9.1M80.73 295.46V9.1M106.17 295.46V9.1M131.61 295.46V9.1M157.04 295.46V9.1M182.48 295.46V9.1M207.92 295.46V9.1M233.36 295.46V9.1M258.79 295.46V9.1M11.13 287.5h3.5M11.13 278.77h3.5M11.13 270h3.5M11.13 261.31h3.5M11.13 252.67h3.5M11.13 243.91h3.5M11.13 235.3h3.5M11.13 226.53h3.5M11.13 217.83h3.5M11.13 209.05h3.5M11.13 200.41h3.5M11.13 191.72h3.5M11.13 183.01h3.5M11.13 174.3h3.5M11.13 165.61h3.5M11.13 156.85h3.5M11.13 148.19h3.5M11.13 139.54h3.5M11.13 130.77h3.5M11.13 122.08h3.5M11.13 113.27h3.5M11.13 104.64h3.5M11.13 95.92h3.5M11.13 87.27h3.5M11.13 78.48h3.5M11.13 69.71h3.5M11.13 61.14h3.5M11.13 52.42h3.5M11.13 43.69h3.5M11.13 35.01h3.5M11.13 26.24h3.5M11.13 17.58h3.5"/></g><g id="Layer_3" data-name="Layer 3"><rect class="cls-4" x="25.89" y="285.92" width="13.18" height="3.15" rx="1.56" ry="1.56"/><rect class="cls-5" x="15.89" y="285.92" width="15.26" height="3.15" rx="1.56" ry="1.56"/><rect class="cls-4" x="31.32" y="277.19" width="26.3" height="3.15" rx="1.56" ry="1.56"/><rect class="cls-5" x="21.32" y="277.19" width="22.24" height="3.15" rx="1.56" ry="1.56"/><rect class="cls-4" x="35.45" y="268.42" width="49.62" height="3.15" rx="1.56" ry="1.56"/><rect class="cls-5" x="25.45" y="268.42" width="43.62" height="3.15" rx="1.56" ry="1.56"/><rect class="cls-4" x="41.01" y="259.74" width="71.43" height="3.15" rx="1.56" ry="1.56"/><rect class="cls-5" x="31.01" y="259.74" width="54.8" height="3.15" rx="1.56" ry="1.56"/><rect class="cls-4" x="51.45" y="251.09" width="83.05" height="3.15" rx="1.56" ry="1.56"/><rect class="cls-5" x="41.45" y="251.09" width="70.78" height="3.15" rx="1.56" ry="1.56"/><rect class="cls-4" x="53.37" y="242.33" width="84.28" height="3.15" rx="1.56" ry="1.56"/><rect class="cls-5" x="43.37" y="242.33" width="82.07" height="3.15" rx="1.56" ry="1.56"/><rect class="cls-4" x="67.3" y="233.73" width="84.51" height="3.15" rx="1.56" ry="1.56"/><rect class="cls-5" x="57.3" y="233.73" width="81.42" height="3.15" rx="1.56" ry="1.56"/><rect class="cls-4" x="79.43" y="224.96" width="81.79" height="3.15" rx="1.56" ry="1.56"/><rect class="cls-5" x="69.43" y="224.96" width="77.07" height="3.15" rx="1.56" ry="1.56"/><rect class="cls-4" x="83.65" y="216.25" width="79.04" height="3.15" rx="1.56" ry="1.56"/><rect class="cls-5" x="73.65" y="216.25" width="74.35" height="3.15" rx="1.56" ry="1.56"/><rect class="cls-4" x="93.99" y="207.48" width="69.45" height="3.15" rx="1.56" ry="1.56"/><rect class="cls-5" x="83.99" y="207.48" width="71.76" height="3.15" rx="1.56" ry="1.56"/><rect class="cls-4" x="102.58" y="198.83" width="66.39" height="3.15" rx="1.56" ry="1.56"/><rect class="cls-5" x="92.58" y="198.83" width="65.54" height="3.15" rx="1.56" ry="1.56"/><rect class="cls-4" x="121.4" y="190.15" width="54.26" height="3.15" rx="1.56" ry="1.56"/><rect class="cls-5" x="111.4" y="190.15" width="50.92" height="3.15" rx="1.56" ry="1.56"/><rect class="cls-4" x="123.73" y="181.43" width="53.38" height="3.15" rx="1.56" ry="1.56"/><rect class="cls-5" x="113.73" y="181.43" width="48.86" height="3.15" rx="1.56" ry="1.56"/><rect class="cls-4" x="134.6" y="172.72" width="47.12" height="3.15" rx="1.56" ry="1.56"/><rect class="cls-5" x="124.6" y="172.72" width="42.59" height="3.15" rx="1.56" ry="1.56"/><rect class="cls-4" x="144.73" y="164.03" width="42.65" height="3.15" rx="1.56" ry="1.56"/><rect class="cls-5" x="134.73" y="164.03" width="35.88" height="3.15" rx="1.56" ry="1.56"/><rect class="cls-4" x="145.48" y="155.28" width="44.29" height="3.15" rx="1.56" ry="1.56"/><rect class="cls-5" x="135.48" y="155.28" width="37.5" height="3.15" rx="1.56" ry="1.56"/><rect class="cls-4" x="147.66" y="146.61" width="45.57" height="3.15" rx="1.56" ry="1.56"/><rect class="cls-5" x="137.66" y="146.61" width="39.92" height="3.15" rx="1.56" ry="1.56"/><rect class="cls-4" x="149.87" y="137.96" width="47.99" height="3.15" rx="1.56" ry="1.56"/><rect class="cls-5" x="139.87" y="137.96" width="41.24" height="3.15" rx="1.56" ry="1.56"/><rect class="cls-4" x="152.12" y="129.19" width="51.49" height="3.15" rx="1.56" ry="1.56"/><rect class="cls-5" x="142.12" y="129.19" width="45.91" height="3.15" rx="1.56" ry="1.56"/><rect class="cls-4" x="154.31" y="120.51" width="51.63" height="3.15" rx="1.56" ry="1.56"/><rect class="cls-5" x="144.31" y="120.51" width="44.82" height="3.15" rx="1.56" ry="1.56"/><rect class="cls-4" x="156.5" y="111.69" width="55.19" height="3.15" rx="1.56" ry="1.56"/><rect class="cls-5" x="146.5" y="111.69" width="45.05" height="3.15" rx="1.56" ry="1.56"/><rect class="cls-4" x="158.71" y="103.07" width="56.46" height="3.15" rx="1.56" ry="1.56"/><rect class="cls-5" x="148.71" y="103.07" width="48.43" height="3.15" rx="1.56" ry="1.56"/><rect class="cls-4" x="160.9" y="94.34" width="57.74" height="3.15" rx="1.56" ry="1.56"/><rect class="cls-5" x="150.9" y="94.34" width="46.1" height="3.15" rx="1.56" ry="1.56"/><rect class="cls-4" x="163.15" y="85.69" width="60.08" height="3.15" rx="1.56" ry="1.56"/><rect class="cls-5" x="153.15" y="85.69" width="47.55" height="3.15" rx="1.56" ry="1.56"/><rect class="cls-4" x="165.37" y="76.9" width="63.66" height="3.15" rx="1.56" ry="1.56"/><rect class="cls-5" x="155.37" y="76.9" width="46.59" height="3.15" rx="1.56" ry="1.56"/><rect class="cls-4" x="167.18" y="68.13" width="66.46" height="3.15" rx="1.56" ry="1.56"/><rect class="cls-5" x="157.18" y="68.13" width="49.3" height="3.15" rx="1.56" ry="1.56"/><rect class="cls-4" x="169.77" y="59.57" width="69.65" height="3.15" rx="1.56" ry="1.56"/><rect class="cls-5" x="159.77" y="59.57" width="52.47" height="3.15" rx="1.56" ry="1.56"/><rect class="cls-4" x="172.05" y="50.84" width="69.65" height="3.15" rx="1.56" ry="1.56"/><rect class="cls-5" x="162.05" y="50.84" width="58.33" height="3.15" rx="1.56" ry="1.56"/><rect class="cls-4" x="173.77" y="42.11" width="72.69" height="3.15" rx="1.56" ry="1.56"/><rect class="cls-5" x="163.77" y="42.11" width="58.91" height="3.15" rx="1.56" ry="1.56"/><rect class="cls-4" x="175.56" y="33.44" width="77.93" height="3.15" rx="1.56" ry="1.56"/><rect class="cls-5" x="165.56" y="33.44" width="60.55" height="3.15" rx="1.56" ry="1.56"/><rect class="cls-4" x="177.25" y="24.67" width="81.54" height="3.15" rx="1.56" ry="1.56"/><rect class="cls-5" x="167.25" y="24.67" width="62.38" height="3.15" rx="1.56" ry="1.56"/><rect class="cls-4" x="179" y="16" width="86.57" height="3.15" rx="1.56" ry="1.56"/><rect class="cls-5" x="169" y="16" width="80.22" height="3.15" rx="1.56" ry="1.56"/></g></g></svg>