<svg xmlns="http://www.w3.org/2000/svg" width="92" height="63" viewBox="0 0 92 63"><defs><style>.cls-1,.cls-2{fill-rule:evenodd}.cls-2{fill:red}</style></defs><path class="cls-1" d="M34.565 41.178l-6.047-.124-1.778-.036-1.778-.038-1.517-.029-.711-.015-.376-1.084-3.506-10.106a1.063 1.063 0 0 0-2.013 0l-3.506 10.106-.377 1.084-.712.015-1.518.029-1.777.038-1.777.036-6.048.124a1.069 1.069 0 0 0-.994.748 1.084 1.084 0 0 0 .376 1.194l9.42 7.155L6.5 61.6a1.09 1.09 0 0 0 .391 1.187 1.038 1.038 0 0 0 .3.153.94.94 0 0 0 .106.02 1.161 1.161 0 0 0 .219.04h.008a.964.964 0 0 0 .2-.03 1.01 1.01 0 0 0 .108-.016 1.065 1.065 0 0 0 .3-.144l9.717-6.774 9.717 6.774a1.058 1.058 0 0 0 1.235-.017 1.09 1.09 0 0 0 .39-1.187l-3.429-11.331 9.423-7.155a1.087 1.087 0 0 0 .374-1.194 1.069 1.069 0 0 0-.994-.748zm-10.022 7.5l-1.107.841.4 1.328 2.65 8.764L19 54.4l-1.153-.8-1.153.8L9.2 59.616l2.649-8.765.4-1.328-1.107-.841-7.314-5.557 3.385-.069 1.78-.036 1.772-.038 1.521-.03.714-.015 1.4-.029.458-1.317.377-1.085 2.612-7.531 2.613 7.53.376 1.085.457 1.319 1.4.029.714.015 1.513.029 1.78.038 1.776.036 3.387.069zm67.3-6.757a1.07 1.07 0 0 0-.994-.748l-6.049-.119-1.778-.036-1.778-.038-1.518-.029-.711-.015-.376-1.084-3.504-10.106a1.063 1.063 0 0 0-2.013 0l-3.506 10.106-.377 1.084-.712.015-1.517.029-1.777.038-1.777.036-6.048.124a1.069 1.069 0 0 0-.994.748 1.084 1.084 0 0 0 .376 1.194l9.42 7.155L62.787 61.6a1.09 1.09 0 0 0 .391 1.187 1.04 1.04 0 0 0 .3.153.941.941 0 0 0 .105.02 1.164 1.164 0 0 0 .217.04h.008a.964.964 0 0 0 .2-.03 1.012 1.012 0 0 0 .108-.016 1.065 1.065 0 0 0 .3-.144l9.717-6.774 9.717 6.774a1.058 1.058 0 0 0 1.235-.017 1.09 1.09 0 0 0 .39-1.187l-3.43-11.331 9.423-7.155a1.087 1.087 0 0 0 .374-1.194zm-11.017 6.762l-1.107.841.4 1.328 2.65 8.764-7.487-5.216-1.153-.8-1.153.8-7.49 5.221 2.649-8.765.4-1.328-1.107-.841-7.318-5.558 3.385-.069 1.78-.036 1.772-.038 1.521-.03.712-.015 1.4-.029.458-1.317.377-1.085 2.612-7.531 2.613 7.53.376 1.085.457 1.319 1.4.029.714.015 1.513.024 1.781.039 1.776.036 3.387.069z"/><path id="Shape_13_copy" data-name="Shape 13 copy" class="cls-2" d="M57.329 32.579L53.9 21.249l9.423-7.154A1.088 1.088 0 0 0 63.7 12.9a1.07 1.07 0 0 0-.994-.747l-6.047-.124-1.778-.036-1.781-.038-1.517-.03-.711-.014-.372-1.085L46.993.721a1.063 1.063 0 0 0-2.013 0l-3.505 10.105-.375 1.085-.712.014-1.518.03-1.777.038-1.777.036-6.048.124a1.07 1.07 0 0 0-.994.747 1.085 1.085 0 0 0 .376 1.194l9.42 7.154-3.424 11.33a1.09 1.09 0 0 0 .391 1.187 1.037 1.037 0 0 0 .3.153c.034.012.07.011.106.02a1.18 1.18 0 0 0 .217.033h.008a1.018 1.018 0 0 0 .2-.03.984.984 0 0 0 .108-.016 1.066 1.066 0 0 0 .3-.144l9.717-6.774 9.707 6.776a1.061 1.061 0 0 0 1.235-.018 1.091 1.091 0 0 0 .394-1.186zM47.14 25.37l-1.153-.8-1.153.8-7.489 5.221 2.649-8.765.4-1.328-1.107-.841L31.97 14.1l3.385-.069 1.78-.035 1.772-.039 1.521-.029.712-.015 1.4-.029.46-1.318.377-1.086 2.612-7.53 2.611 7.53.376 1.084.457 1.319 1.4.029.714.015 1.513.029 1.781.039 1.776.035L60 14.1l-7.32 5.559-1.108.841.4 1.328 2.65 8.764z"/></svg>