<svg xmlns="http://www.w3.org/2000/svg" width="185" height="122"><defs><linearGradient id="a" x1="0%" x2="61.566%" y1="0%" y2="78.801%"><stop offset="0%" stop-color="#00ADEF" stop-opacity=".81"/><stop offset="39%" stop-color="#19CDD7" stop-opacity=".81"/><stop offset="100%" stop-color="#31ECBE" stop-opacity=".81"/></linearGradient></defs><path fill-rule="evenodd" fill="#00AFED" d="M167.241 53.316l12.442-5.16.766 1.851-12.443 5.16-.765-1.851zm12.823 45.411l-.766 1.851-12.438-5.16.766-1.851 12.438 5.16zm-24.48 12.895l1.414-1.417 9.518 9.529-1.414 1.417-9.518-9.529zm-.304-74.49l9.506-9.548 1.416 1.415-9.506 9.547-1.416-1.414zM142.552 82.18c1.297 1.868 2 4.091 2 6.378 0 4.327-2.546 8.289-6.419 10.123.134.698.202 1.395.202 2.084 0 6.176-5.017 11.2-11.184 11.2l-.943.079c-.29.005-20.379.212-29.781.212-1.25 0-2.31-.004-3.111-.012a28.371 28.371 0 0 1-1.536-.037c-2.549-.181-5.905-1.408-8.355-2.304-.973-.356-1.814-.663-2.319-.798-.869-.232-1.898-.256-2.25-.274l-32.867.002a.997.997 0 0 1-1-1.001V60.271c0-.551.446-.999.997-1.001l19.73-.06c.102.007 1.473.113 3.187-.336 2.892-.758 5.529-3.32 7.838-7.615.634-1.181 1.124-2.921 1.642-4.762.834-2.964 1.78-6.323 3.703-8.991 1.423-1.973 3.974-4.51 6.441-6.964l1.148-1.145c2.056-2.059 5.686-6.686 7.154-10.019 1.861-4.224 1.977-8.164 2.045-10.517.02-.668.035-1.196.085-1.61.426-3.512 1.841-5.669 4.326-6.596 4.062-1.513 7.714 1.373 9.779 4.576 1.478 2.295 3.427 5.924 4.309 10.169.823 3.951.133 8.816-1.801 12.694a508.678 508.678 0 0 1-2.919 5.705c-1.155 2.237-2.246 4.349-2.718 5.34-.815 1.704-1.042 2.764-1.134 3.832-.084.989.156 1.846.695 2.481.54.637 1.253.903 1.74.94 2.564.192 7.219-.374 11.327-.875l.172-.021c3.331-.407 11.28-1.143 11.36-1.151l.582-.004c6.167 0 11.184 5.025 11.184 11.201 0 2.859-1.08 5.572-3.003 7.635 3.155 2.045 5.13 5.599 5.13 9.405 0 3.945-2.098 7.59-5.436 9.598zm-2.006-19.565a9.182 9.182 0 0 0 3.315-7.073c0-5.072-4.12-9.198-9.184-9.198h-.491c.013.003-7.906.737-11.208 1.14l-.173.021c-4.199.514-8.958 1.093-11.721.884-1.15-.087-2.314-.7-3.111-1.639-.623-.734-1.33-2.013-1.164-3.949.094-1.113.32-2.433 1.321-4.527.486-1.019 1.584-3.144 2.746-5.394a531.809 531.809 0 0 0 2.907-5.681c1.716-3.441 2.357-7.912 1.632-11.391-.819-3.944-2.645-7.338-4.032-9.492-1.644-2.549-4.453-4.883-7.4-3.783-1.189.442-2.608 1.407-3.038 4.959-.039.324-.054.835-.072 1.428-.073 2.5-.195 6.685-2.214 11.266-1.638 3.719-5.486 8.54-7.57 10.627l-1.153 1.15c-2.409 2.397-4.901 4.876-6.228 6.716-1.716 2.38-2.611 5.557-3.4 8.36-.549 1.952-1.067 3.795-1.806 5.168-2.583 4.805-5.642 7.7-9.093 8.605-2.067.54-3.708.402-3.779.397l-18.641.061v45.56l31.859-.002c.055.012 1.462-.008 2.774.343.59.157 1.428.463 2.489.851 2.339.854 5.542 2.026 7.815 2.188.251.019.735.025 1.41.031 6.803.062 32.521-.195 32.781-.197l.954-.079c5.144-.003 9.264-4.129 9.264-9.2 0-.794-.111-1.605-.33-2.414a1.002 1.002 0 0 1 .61-1.199c3.551-1.347 5.937-4.8 5.937-8.594a9.193 9.193 0 0 0-2.275-6.046.998.998 0 0 1-.224-.869.998.998 0 0 1 .561-.7 9.224 9.224 0 0 0 5.374-8.361c0-3.515-2.055-6.771-5.234-8.294a1.001 1.001 0 0 1-.208-1.673zM34.501 113.419H8.694L.845 55.328l33.659.108c2.471 0 4.485 1.949 4.485 4.344v49.294c0 2.396-2.014 4.345-4.488 4.345zm2.488-53.639c0-1.291-1.116-2.341-2.488-2.341l-31.367-.1 7.308 54.077h24.059c1.372 0 2.488-1.05 2.488-2.342V59.78zm134.482 12.812l13.462.009-.002 2.003-13.462-.009.002-2.003z"/><path fill="url(#a)" d="M167.241 53.316l12.442-5.16.766 1.851-12.443 5.16-.765-1.851zm12.823 45.411l-.766 1.851-12.438-5.16.766-1.851 12.438 5.16zm-24.48 12.895l1.414-1.417 9.518 9.529-1.414 1.417-9.518-9.529zm-.304-74.49l9.506-9.548 1.416 1.415-9.506 9.547-1.416-1.414zM142.552 82.18c1.297 1.868 2 4.091 2 6.378 0 4.327-2.546 8.289-6.419 10.123.134.698.202 1.395.202 2.084 0 6.176-5.017 11.2-11.184 11.2l-.943.079c-.29.005-20.379.212-29.781.212-1.25 0-2.31-.004-3.111-.012a28.371 28.371 0 0 1-1.536-.037c-2.549-.181-5.905-1.408-8.355-2.304-.973-.356-1.814-.663-2.319-.798-.869-.232-1.898-.256-2.25-.274l-32.867.002a.997.997 0 0 1-1-1.001V60.271c0-.551.446-.999.997-1.001l19.73-.06c.102.007 1.473.113 3.187-.336 2.892-.758 5.529-3.32 7.838-7.615.634-1.181 1.124-2.921 1.642-4.762.834-2.964 1.78-6.323 3.703-8.991 1.423-1.973 3.974-4.51 6.441-6.964l1.148-1.145c2.056-2.059 5.686-6.686 7.154-10.019 1.861-4.224 1.977-8.164 2.045-10.517.02-.668.035-1.196.085-1.61.426-3.512 1.841-5.669 4.326-6.596 4.062-1.513 7.714 1.373 9.779 4.576 1.478 2.295 3.427 5.924 4.309 10.169.823 3.951.133 8.816-1.801 12.694a508.678 508.678 0 0 1-2.919 5.705c-1.155 2.237-2.246 4.349-2.718 5.34-.815 1.704-1.042 2.764-1.134 3.832-.084.989.156 1.846.695 2.481.54.637 1.253.903 1.74.94 2.564.192 7.219-.374 11.327-.875l.172-.021c3.331-.407 11.28-1.143 11.36-1.151l.582-.004c6.167 0 11.184 5.025 11.184 11.201 0 2.859-1.08 5.572-3.003 7.635 3.155 2.045 5.13 5.599 5.13 9.405 0 3.945-2.098 7.59-5.436 9.598zm-2.006-19.565a9.182 9.182 0 0 0 3.315-7.073c0-5.072-4.12-9.198-9.184-9.198h-.491c.013.003-7.906.737-11.208 1.14l-.173.021c-4.199.514-8.958 1.093-11.721.884-1.15-.087-2.314-.7-3.111-1.639-.623-.734-1.33-2.013-1.164-3.949.094-1.113.32-2.433 1.321-4.527.486-1.019 1.584-3.144 2.746-5.394a531.809 531.809 0 0 0 2.907-5.681c1.716-3.441 2.357-7.912 1.632-11.391-.819-3.944-2.645-7.338-4.032-9.492-1.644-2.549-4.453-4.883-7.4-3.783-1.189.442-2.608 1.407-3.038 4.959-.039.324-.054.835-.072 1.428-.073 2.5-.195 6.685-2.214 11.266-1.638 3.719-5.486 8.54-7.57 10.627l-1.153 1.15c-2.409 2.397-4.901 4.876-6.228 6.716-1.716 2.38-2.611 5.557-3.4 8.36-.549 1.952-1.067 3.795-1.806 5.168-2.583 4.805-5.642 7.7-9.093 8.605-2.067.54-3.708.402-3.779.397l-18.641.061v45.56l31.859-.002c.055.012 1.462-.008 2.774.343.59.157 1.428.463 2.489.851 2.339.854 5.542 2.026 7.815 2.188.251.019.735.025 1.41.031 6.803.062 32.521-.195 32.781-.197l.954-.079c5.144-.003 9.264-4.129 9.264-9.2 0-.794-.111-1.605-.33-2.414a1.002 1.002 0 0 1 .61-1.199c3.551-1.347 5.937-4.8 5.937-8.594a9.193 9.193 0 0 0-2.275-6.046.998.998 0 0 1-.224-.869.998.998 0 0 1 .561-.7 9.224 9.224 0 0 0 5.374-8.361c0-3.515-2.055-6.771-5.234-8.294a1.001 1.001 0 0 1-.208-1.673zM34.501 113.419H8.694L.845 55.328l33.659.108c2.471 0 4.485 1.949 4.485 4.344v49.294c0 2.396-2.014 4.345-4.488 4.345zm2.488-53.639c0-1.291-1.116-2.341-2.488-2.341l-31.367-.1 7.308 54.077h24.059c1.372 0 2.488-1.05 2.488-2.342V59.78zm134.482 12.812l13.462.009-.002 2.003-13.462-.009.002-2.003z"/></svg>