<svg xmlns="http://www.w3.org/2000/svg" width="118" height="100"><path fill-rule="evenodd" fill="#272324" d="M116.13 36.41C110.263 21.176 98.391 8.572 83.56 1.827L84.383 0c15.305 6.959 27.555 19.966 33.609 35.684l-1.862.726zm-11.012-.117l-1.862.726c-3.719-9.654-11.243-17.642-20.642-21.917l.823-1.828c9.872 4.488 17.774 12.88 21.681 23.019zm-4.127 21.966c0 23.012-18.632 41.736-41.535 41.736-22.905 0-41.539-18.724-41.539-41.736 0-23.011 18.634-41.732 41.539-41.732 22.903 0 41.535 18.721 41.535 41.732zM59.456 18.533c-21.804 0-39.542 17.821-39.542 39.726 0 21.906 17.738 39.728 39.542 39.728 21.801 0 39.538-17.822 39.538-39.728 0-21.905-17.737-39.726-39.538-39.726zm-1.459 9.117h1.997v33.433l18.505-11.562 1.054 1.705-21.556 13.465V27.65zm-43.25 9.369l-1.862-.726c3.907-10.139 11.809-18.531 21.681-23.019l.823 1.828c-9.399 4.275-16.923 12.263-20.642 21.917zM1.873 36.41l-1.862-.726C6.066 19.966 18.316 6.959 33.621 0l.822 1.827C19.613 8.572 7.741 21.176 1.873 36.41z"/></svg>