<svg xmlns="http://www.w3.org/2000/svg" width="56" height="46" viewBox="0 0 56 46"><defs><linearGradient id="a" x1="0%" x2="61.566%" y1="0%" y2="78.801%"><stop offset="0%" stop-color="#00ADEF"/><stop offset="44%" stop-color="#16CADE"/><stop offset="100%" stop-color="#2CE6CD"/></linearGradient></defs><path fill="url(#a)" d="M48.067 36.097c.256 0 .508.102.69.276a.93.93 0 0 1 .286.665.926.926 0 0 1-.286.665 1.004 1.004 0 0 1-1.381 0 .926.926 0 0 1-.286-.665.93.93 0 0 1 .286-.665 1.01 1.01 0 0 1 .691-.276zm-14.012 0c.257 0 .509.102.69.276a.93.93 0 0 1 .287.665.927.927 0 0 1-.287.665 1 1 0 0 1-1.38 0 .927.927 0 0 1-.287-.665.93.93 0 0 1 .287-.665c.181-.174.433-.276.69-.276zm20.968 9.902H5.274c-.539 0-.976-.421-.976-.941v-8.704c0-.52.437-.94.976-.94.54 0 .977.42.977.94v7.764h5.957V36.99c0-.52.437-.941.976-.941.54 0 .977.421.977.941v7.128h5.004V36.99c0-.52.437-.941.976-.941.54 0 .977.421.977.941v7.128h32.929V1.88h-5.004v31.159c0 .519-.437.941-.976.941-.54 0-.977-.422-.977-.941V1.88h-5.102v35.157c0 .521-.437.941-.976.941-.539 0-.977-.42-.977-.941V1.88h-5.003v31.159c0 .519-.438.941-.977.941-.539 0-.977-.422-.977-.941V1.88h-5.003v35.157c0 .521-.438.941-.977.941-.539 0-.976-.42-.976-.941V1.88h-5.004v7.104c0 .52-.437.941-.977.941-.539 0-.976-.421-.976-.941V1.88h-5.004v7.104c0 .52-.437.941-.977.941-.539 0-.976-.421-.976-.941V1.88H6.251v7.762c0 .519-.437.94-.977.94-.539 0-.976-.421-.976-.94V.939c0-.519.437-.94.976-.94h49.749c.54 0 .977.421.977.94v44.119c0 .52-.437.941-.977.941zM11.166 15.134a4.545 4.545 0 0 0 3.984 0c.887-.435 2.883-.666 3.881-.666H19.387l-.248-.239a.916.916 0 0 1 0-1.33c.381-.367 1-.367 1.381 0l1.915 1.844a.917.917 0 0 1 0 1.33l-1.915 1.844a.993.993 0 0 1-.691.276.993.993 0 0 1-.69-.276.917.917 0 0 1 0-1.33l.248-.238h-.354c-.693 0-2.381.159-2.994.461a6.543 6.543 0 0 1-2.881.665 6.539 6.539 0 0 1-2.88-.665 4.532 4.532 0 0 0-3.984 0 6.569 6.569 0 0 1-5.761 0 .924.924 0 0 1-.425-1.266.994.994 0 0 1 1.314-.41 4.545 4.545 0 0 0 3.984 0 6.567 6.567 0 0 1 5.76 0zm-9.744 7.591a4.539 4.539 0 0 0 3.984 0 6.56 6.56 0 0 1 5.76 0 4.539 4.539 0 0 0 3.984 0c.887-.437 2.883-.667 3.881-.667H19.387l-.297-.286a.917.917 0 0 1 0-1.33c.382-.367 1-.367 1.381 0l1.964 1.892a.917.917 0 0 1 0 1.33l-1.964 1.89a.99.99 0 0 1-.69.276c-.25 0-.5-.092-.691-.276a.917.917 0 0 1 0-1.33l.297-.285h-.344c-.697 0-2.389.158-3.004.461a6.54 6.54 0 0 1-2.881.666 6.54 6.54 0 0 1-2.88-.666 4.545 4.545 0 0 0-3.984 0 6.562 6.562 0 0 1-5.761 0 .924.924 0 0 1-.425-1.266c.245-.462.833-.645 1.314-.409zm0 7.552a4.539 4.539 0 0 0 3.984 0 6.56 6.56 0 0 1 5.76 0 4.539 4.539 0 0 0 3.984 0c.887-.436 2.883-.666 3.881-.666H19.387l-.306-.295a.917.917 0 0 1 0-1.33c.382-.367 1-.367 1.382 0l1.972 1.9a.917.917 0 0 1 0 1.33l-1.972 1.899a.993.993 0 0 1-.691.276c-.25 0-.5-.092-.691-.276a.917.917 0 0 1 0-1.33l.306-.293h-.344c-.697.001-2.389.157-3.004.461a6.54 6.54 0 0 1-2.881.665 6.539 6.539 0 0 1-2.88-.665 4.532 4.532 0 0 0-3.984 0 6.569 6.569 0 0 1-5.761 0 .925.925 0 0 1-.425-1.266.995.995 0 0 1 1.314-.41z"/></svg>