<svg xmlns="http://www.w3.org/2000/svg" width="74.808" height="59.971" viewBox="0 0 74.808 59.971"><linearGradient id="a" gradientUnits="userSpaceOnUse" x1="-199.363" y1="279.895" x2="-154.073" y2="221.927" gradientTransform="matrix(1 0 0 -1 214.4 288.631)"><stop offset="0" stop-color="#0c90c2"/><stop offset="1" stop-color="#2dd2ab"/></linearGradient><path d="M67.241 59.971l-1.602-1.211c7.526-9.943 9.263-23.279 4.533-34.804C62.759 5.907 42.036-2.745 23.986 4.657 15.239 8.245 8.414 15.022 4.767 23.741s-3.678 18.336-.089 27.078a35.448 35.448 0 0 0 4.524 7.94L7.6 59.97a37.548 37.548 0 0 1-4.779-8.39c-3.793-9.238-3.761-19.399.093-28.614C6.768 13.754 13.98 6.592 23.223 2.801c19.079-7.829 40.973 1.322 48.806 20.393 4.999 12.179 3.164 26.27-4.788 36.777zM8.332 48.343l7.703-3.185.768 1.855-7.704 3.185-.767-1.855zm-2.16-9.365v-2.007h8.339v2.007H6.172zm10.631-11.21l-.769 1.854-7.7-3.19.769-1.854 7.7 3.19zm-.638-13.049l5.892 5.89-1.42 1.419-5.891-5.89 1.419-1.419zm13.488 1.288l-1.855.768-3.191-7.7 1.855-.768 3.191 7.7zm6.588-9.091h2.008v8.334h-2.008V6.916zm12.148 1.395l1.855.768-3.191 7.696-1.855-.768 3.191-7.696zm20.106 30.086l-8.336-.007.002-2.007 8.336.007-.002 2.007zM52.466 20.702l5.884-5.9 1.422 1.417-5.884 5.9-1.422-1.417zm14.049 5.73l-7.703 3.19-.769-1.854 7.703-3.19.769 1.854zM35.24 32.07a5.724 5.724 0 0 1 2.181-.432 5.73 5.73 0 0 1 5.324 3.568 5.688 5.688 0 0 1 .283 3.435l20.531 8.581-.775 1.852-20.53-8.581a5.724 5.724 0 0 1-4.827 2.645 5.736 5.736 0 0 1-5.323-3.566 5.71 5.71 0 0 1 .015-4.401 5.701 5.701 0 0 1 3.121-3.101zm-1.28 6.74a3.734 3.734 0 0 0 3.466 2.322c.487 0 .964-.095 1.419-.281a3.722 3.722 0 0 0 2.034-2.021l.001-.002a3.7 3.7 0 0 0 .007-2.859 3.729 3.729 0 0 0-3.466-2.324c-.486 0-.964.095-1.419.281a3.72 3.72 0 0 0-2.033 2.019 3.729 3.729 0 0 0-.009 2.865z" fill="url(#a)"/></svg>