<svg xmlns="http://www.w3.org/2000/svg" width="294" height="99"><defs><linearGradient id="a" x1="0%" x2="70.711%" y1="70.711%" y2="0%"><stop offset="0%" stop-color="#00ADEF"/><stop offset="100%" stop-color="#31ECBE"/></linearGradient></defs><path fill-rule="evenodd" fill="url(#a)" d="M282.951 64.543l-.794-1.831 7.82-3.346C230.2 37.433 170.515 48.565 169.913 48.682l-.982.189-.383-1.953.984-.191c.605-.116 60.703-11.338 120.964 10.706l-3.824-7.314 1.779-.918 5.546 10.61-11.046 4.732zm-31.916-35.726l5.675-6.216c-48.879 4.006-85.946 19.418-86.32 19.576l-.921.387-.781-1.832.921-.39c.377-.159 37.689-15.678 86.873-19.721l-6.585-5.127 1.236-1.568 9.469 7.373-8.082 8.857-1.485-1.339zm-99.991 64.175h35.13v2.007h-35.316v-.007h-1.82v-6.996h-.075V38.005h.075V13.688h-37.621c-5.049 0-9.528-2.684-9.528-8.541V2.014H65.213V.008h36.676V0h49.155V38.005h4.741c5.868 0 7.207 4.889 7.207 9.929v40.062h-11.948v4.996zm-2.006-90.978h-45.144v3.133c0 4.441 3.413 6.536 7.523 6.536h37.621V2.014zm11.944 83.98v-38.06c0-4.102-.748-7.927-5.197-7.927h-4.741v45.987h9.938zM94.694 9.3l1.003.026-.052 2.006-1.002-.025c-.587-.019-57.79-1.294-83.993 13.348l8.375 2.003-.469 1.952-11.714-2.804.47-1.48-.021-.035.04-.025 3.157-9.944 1.914.608-2.491 7.837C36.66 7.999 92.289 9.237 94.694 9.3zm2.096 4.43l.983-.198.393 1.968-.983.198c-.17.033-17.333 3.568-37.002 15.364-17.82 10.681-41.344 30.511-53.106 64.493l7.487-3.989.943 1.771L4.873 99 0 87.984l1.835-.816 3.376 7.639C17.19 60.282 41.099 40.149 59.214 29.301 79.172 17.348 96.615 13.764 96.79 13.73zM67.811 90.546c-5.213-26.583 3.328-45.104 11.542-56.041 9.111-12.128 19.497-17.642 19.935-17.871l.888-.463.928 1.777-.887.464c-.104.054-10.477 5.574-19.313 17.369C72.948 46.403 64.682 64.42 69.813 90.33l4.497-7.256 1.705 1.057-6.348 10.241-9.747-7.075 1.177-1.629 6.714 4.878zm102.373-35.04l-.996-.102.203-1.981.996.101c.492.049 48.607 5.23 72.331 31.483l.405-8.428 2.001.097-.576 11.949-11.939-1.443.24-1.977 8.257.996c-23.237-25.556-70.439-30.648-70.922-30.695z"/></svg>