<svg xmlns="http://www.w3.org/2000/svg" width="20" height="22" viewBox="0 0 20 22"><path fill-rule="evenodd" fill="#00ADEF" d="M18.792 16.77c-1.154-.478-3.897-1.419-5.584-1.914-.143-.045-.166-.052-.166-.646 0-.492.203-.987.402-1.406.215-.455.47-1.22.561-1.906.256-.296.604-.877.829-1.989.196-.978.104-1.333-.026-1.667-.013-.036-.028-.069-.038-.105-.049-.229.018-1.421.187-2.345.116-.635-.03-1.984-.909-3.1C13.493.987 12.431.121 10.491.001L9.427.002c-1.906.119-2.969.985-3.524 1.69-.879 1.116-1.025 2.465-.909 3.099.17.925.236 2.117.188 2.341-.01.041-.025.074-.039.11-.129.334-.222.689-.025 1.667.223 1.112.572 1.693.829 1.989.09.686.345 1.451.561 1.906.157.333.231.786.231 1.426 0 .596-.022.603-.157.645-1.744.511-4.521 1.509-5.556 1.96-.82.349-1.021.976-1.021 1.543v2.617c0 .369.222 1.002 1.021 1.002h17.958c.8 0 1.021-.633 1.021-1.002v-2.617c0-.567-.393-1.258-1.213-1.608zm.155 4.181H1.058v-2.573c0-.317.093-.458.39-.585.997-.433 3.754-1.422 5.452-1.921.892-.281.892-1.067.892-1.642 0-.798-.105-1.393-.331-1.872a5.973 5.973 0 0 1-.47-1.597l-.041-.31-.207-.238c-.113-.13-.397-.536-.593-1.508-.152-.757-.084-.933-.03-1.074.031-.075.059-.15.081-.235l.005-.023.006-.022c.105-.494-.037-1.957-.182-2.747-.067-.364.017-1.397.702-2.267.419-.534 1.233-1.187 2.73-1.29h.996c1.223.082 2.153.516 2.761 1.29.685.87.769 1.903.702 2.269-.148.811-.288 2.25-.181 2.75l.009.038.011.039c.016.053.035.106.056.16l.01.026.001.001c.059.154.127.326-.025 1.085-.196.97-.481 1.379-.594 1.51l-.205.236-.042.31a6.032 6.032 0 0 1-.47 1.597c-.248.526-.502 1.155-.502 1.852 0 .574 0 1.362.921 1.649 1.648.484 4.36 1.413 5.467 1.873.419.178.576.492.576.646l-.006 2.573z"/></svg>