<svg xmlns="http://www.w3.org/2000/svg" preserveAspectRatio="xMidYMid" width="20" height="22" viewBox="0 0 20 22"><path fill="#3eb5f1" fill-rule="evenodd" d="M18.792 16.77c-1.154-.479-3.897-1.419-5.584-1.915-.144-.044-.166-.051-.166-.646 0-.492.203-.986.402-1.405.215-.456.47-1.22.561-1.907.256-.295.604-.877.829-1.988.196-.978.104-1.333-.026-1.668-.013-.035-.028-.069-.038-.104-.049-.23.018-1.421.187-2.346.116-.634-.03-1.983-.909-3.099C13.493.987 12.431.121 10.491 0L9.427.002c-1.906.119-2.969.985-3.524 1.69-.879 1.116-1.025 2.465-.909 3.098.17.926.236 2.117.188 2.342-.01.04-.025.074-.039.109-.13.335-.222.69-.025 1.668.223 1.111.572 1.693.829 1.988.09.687.345 1.451.561 1.907.157.333.231.786.231 1.426 0 .596-.022.602-.157.645-1.744.511-4.521 1.508-5.556 1.959-.82.35-1.021.977-1.021 1.544v2.616c0 .37.222 1.003 1.021 1.003h17.958c.8 0 1.021-.633 1.021-1.003v-2.616c0-.567-.393-1.259-1.213-1.608zm.155 4.181H1.058v-2.573c0-.317.093-.458.39-.585.997-.434 3.754-1.422 5.452-1.921.892-.281.892-1.067.892-1.642 0-.798-.105-1.393-.332-1.872a6.023 6.023 0 0 1-.469-1.597l-.041-.311-.207-.237c-.113-.13-.397-.537-.593-1.509-.152-.756-.084-.932-.03-1.073.031-.075.059-.151.081-.236l.005-.022.006-.023c.105-.493-.037-1.956-.182-2.746-.067-.364.017-1.397.702-2.268.419-.533 1.233-1.186 2.73-1.289l.996-.001c1.223.083 2.153.517 2.761 1.29.685.871.769 1.904.702 2.27-.148.81-.288 2.25-.181 2.75l.009.038.011.038c.016.053.035.107.056.161l.01.026.001.001c.059.153.127.326-.026 1.084-.195.971-.48 1.379-.593 1.51l-.205.236-.042.31a6.04 6.04 0 0 1-.47 1.598c-.248.525-.502 1.155-.502 1.851 0 .575 0 1.363.921 1.65 1.648.484 4.36 1.414 5.467 1.873.419.177.576.492.576.646l-.006 2.573z"/></svg>