<svg xmlns="http://www.w3.org/2000/svg" width="20" height="22" viewBox="0 0 20 22"><path fill-rule="evenodd" fill="#FFF" d="M18.792 16.771c-1.154-.479-3.897-1.419-5.584-1.915-.144-.045-.166-.052-.166-.646 0-.492.203-.987.402-1.406.215-.455.47-1.219.561-1.906.256-.296.604-.877.829-1.988.196-.978.104-1.334-.026-1.668-.013-.035-.028-.069-.038-.105-.049-.23.018-1.421.187-2.345.116-.634-.03-1.984-.909-3.1C13.493.987 12.431.121 10.491.001L9.427.002c-1.906.119-2.969.985-3.524 1.69-.879 1.116-1.025 2.466-.909 3.099.17.925.236 2.116.188 2.341-.01.041-.025.075-.039.11-.13.334-.222.69-.025 1.668.223 1.111.572 1.692.829 1.988a7.06 7.06 0 0 0 .561 1.906c.157.333.231.786.231 1.426 0 .596-.022.603-.157.645-1.744.511-4.521 1.509-5.556 1.96-.82.349-1.021.977-1.021 1.543v2.617c0 .369.222 1.002 1.021 1.002h17.958c.8 0 1.021-.633 1.021-1.002v-2.617c0-.566-.393-1.258-1.213-1.607zm.155 4.18H1.058v-2.573c0-.317.093-.458.39-.584.997-.434 3.754-1.423 5.452-1.922.892-.28.892-1.067.892-1.642 0-.797-.105-1.393-.331-1.872a5.973 5.973 0 0 1-.47-1.597l-.041-.31-.207-.238c-.113-.13-.397-.536-.593-1.508-.152-.757-.084-.933-.03-1.074.031-.075.059-.15.081-.235l.005-.023.006-.023c.105-.492-.037-1.956-.182-2.746-.067-.364.017-1.397.702-2.267.419-.533 1.233-1.187 2.73-1.29l.996-.001c1.223.083 2.153.517 2.761 1.291.685.87.769 1.903.702 2.269-.148.811-.288 2.25-.181 2.75l.009.038.011.039c.016.053.035.107.056.16l.01.027h.001c.059.154.127.326-.026 1.085-.195.97-.48 1.379-.593 1.51l-.205.236-.042.309a6.03 6.03 0 0 1-.47 1.598c-.248.526-.502 1.155-.502 1.852 0 .574 0 1.363.921 1.649 1.648.484 4.36 1.414 5.467 1.873.419.178.576.492.576.646l-.006 2.573z"/></svg>