<svg xmlns="http://www.w3.org/2000/svg" width="114" height="115"><path fill-rule="evenodd" fill="#272324" d="M112.868 56.95c-.984-.583-2.382-.432-3.933.42-4.463 2.469-11.43 3.85-16.953 3.358-7.278-.645-13.422-2.151-18.768-4.572a16.446 16.446 0 0 0-1.253-5.501c2.873-2.368 8.02-6.91 12.71-12.596 3.729-4.52 6.009-9.609 6.418-14.329.438-5.042-1.297-9.462-4.885-12.447C79.126 5.39 61.761.007 59.957.007h-.002c-.927.003-1.701.418-2.125 1.137-.582.99-.433 2.395.42 3.954 2.455 4.481 3.828 11.483 3.34 17.027-.632 7.188-2.093 13.277-4.435 18.583-.043-.001-.086-.005-.128-.005a16.19 16.19 0 0 0-6.334 1.308c-2.351-2.901-6.986-8.245-12.811-13.093-9.751-8.114-20.714-8.746-26.66-1.538C5.354 34.492-.008 51.946-.004 53.746c.003.93.417 1.707 1.135 2.131.986.583 2.382.434 3.933-.423 4.462-2.464 11.437-3.84 16.953-3.354 7.277.645 13.421 2.149 18.767 4.57-.012.624.001 1.245.059 1.873.186 1.994.737 3.89 1.587 5.639-2.999 2.461-8.175 7.024-12.9 12.754-8.079 9.79-8.709 20.804-1.533 26.775 7.079 5.892 24.444 11.275 26.248 11.275h.002c.926-.002 1.7-.415 2.124-1.137.582-.991.433-2.393-.42-3.952-2.454-4.483-3.828-11.484-3.341-17.027.671-7.628 2.265-14.025 4.866-19.559a16.193 16.193 0 0 0 6.578-1.586c2.698 3.249 6.894 7.881 12.062 12.185 5.221 4.345 10.789 6.545 15.749 6.545 4.303 0 8.149-1.657 10.911-5.005 5.868-7.114 11.231-24.565 11.226-26.366-.003-.932-.416-1.707-1.134-2.134zM47.924 68.041a14.232 14.232 0 0 1-5.097-9.684 14.266 14.266 0 0 1 3.215-10.471 14.2 14.2 0 0 1 10.985-5.181c3.307 0 6.533 1.17 9.084 3.292 6.052 5.034 6.896 14.078 1.882 20.157a14.196 14.196 0 0 1-10.983 5.182 14.238 14.238 0 0 1-9.086-3.295zM63.575 22.3c.528-5.994-.91-13.296-3.579-18.168-.612-1.117-.571-1.765-.45-1.97.059-.102.199-.154.401-.154 1.433.072 18.204 5.17 24.985 10.815 3.115 2.591 4.557 6.304 4.173 10.733-.375 4.319-2.495 9.015-5.968 13.227-4.404 5.337-9.227 9.65-12.094 12.04a16.173 16.173 0 0 0-3.66-4.368 16.254 16.254 0 0 0-8.121-3.581c2.267-5.356 3.687-11.451 4.313-18.574zM22.192 50.108c-5.975-.531-13.238.913-18.088 3.594-1.113.614-1.758.572-1.962.453-.101-.062-.153-.201-.153-.403.071-1.438 5.146-18.282 10.768-25.097 5.196-6.298 15.005-5.559 23.853 1.804 5.465 4.547 9.869 9.555 12.252 12.464a16.24 16.24 0 0 0-4.354 3.688 16.224 16.224 0 0 0-3.538 7.954c-5.402-2.349-11.559-3.819-18.778-4.457zm28.434 42.587c-.527 5.994.911 13.295 3.579 18.166.612 1.118.571 1.764.45 1.971-.06.101-.198.153-.401.153-1.432-.072-18.203-5.17-24.985-10.814-6.274-5.22-5.536-15.074 1.795-23.96 4.484-5.435 9.385-9.799 12.356-12.255a16.311 16.311 0 0 0 3.232 3.626 16.233 16.233 0 0 0 8.677 3.657c-2.493 5.568-4.042 11.938-4.703 19.456zm50.616-8.522c-5.197 6.3-15.007 5.558-23.855-1.803-4.908-4.089-8.919-8.481-11.571-11.65a16.266 16.266 0 0 0 3.711-3.29 16.251 16.251 0 0 0 3.666-9.096c5.362 2.309 11.467 3.753 18.614 4.387 5.968.531 13.237-.916 18.087-3.596 1.113-.614 1.756-.571 1.962-.45.101.06.153.199.154.402-.071 1.439-5.148 18.284-10.768 25.096z"/></svg>