<svg xmlns="http://www.w3.org/2000/svg" width="80" height="86"><path fill-rule="evenodd" fill="#2C2728" d="M78.003 85.998V11.623h2.012v74.375h-2.012zm-8.016-58.437h2.012v58.437h-2.012V27.561zm-8.016 15.937h2.012v42.5h-2.012v-42.5zm-8.015 15.939h2.012v26.561h-2.012V59.437zm-8.205-29.238c-3.38.594-6.606.717-8.682.717-.163 0-.287-.003-.435-.004a9.037 9.037 0 0 1-1.103 2.135c-.009.014-.021.026-.031.04 1.299 2.635 3.169 5.197 5.754 7.798 1.991 2.005 5.159 3.764 7.705 4.278 1.466.297 1.933 1.053 2.081 1.476.202.576.072 1.195-.354 1.697-.643.759-8.754 5.967-13.743 6.848-.468.08-.93.123-1.384.123-4.513 0-8.261-3.973-9.364-10.158-.592-3.329-.724-6.467-.719-8.681a8.998 8.998 0 0 1-2.737-1.376c-2.788 1.298-5.481 3.224-8.219 5.911-2.016 1.981-3.785 5.133-4.301 7.66-.3 1.458-1.061 1.924-1.488 2.071a1.656 1.656 0 0 1-.543.092c-.409 0-.815-.152-1.163-.445-.763-.641-6.002-8.71-6.886-13.663-.904-5.086 3.247-9.478 10.095-10.684 3.652-.645 7.116-.736 9.228-.714a8.996 8.996 0 0 1 1.247-2.571c.133-.19.278-.368.424-.545-1.3-2.631-3.168-5.19-5.749-7.787-1.994-2.005-5.162-3.764-7.705-4.277-1.468-.3-1.934-1.056-2.083-1.478-.2-.577-.07-1.196.356-1.698.641-.756 8.754-5.965 13.742-6.843 5.115-.906 9.531 3.224 10.748 10.032.663 3.725.743 7.245.716 9.283a8.977 8.977 0 0 1 2.594 1.445c2.602-1.289 5.135-3.124 7.712-5.653 2.015-1.979 3.784-5.129 4.302-7.659.299-1.457 1.059-1.923 1.485-2.07.579-.2 1.202-.073 1.708.352.763.64 6.002 8.709 6.886 13.662.457 2.563-.394 5.062-2.397 7.031-1.836 1.807-4.57 3.103-7.697 3.655zM28.176 44.798c1.008 5.651 4.469 9.1 8.416 8.417 4.103-.723 10.822-4.883 12.325-5.991a2.507 2.507 0 0 0-.36-.102c-2.945-.594-6.456-2.536-8.734-4.83-2.51-2.526-4.409-5.029-5.784-7.609a9.003 9.003 0 0 1-4.341 2.065 9.008 9.008 0 0 1-1.586.14c-.213 0-.416-.041-.625-.055.01 2.103.154 4.96.689 7.965zm-8.958-15.331a8.98 8.98 0 0 1-.113-2.148c-2.051-.008-5.203.1-8.52.684-5.682 1.001-9.163 4.44-8.465 8.368.728 4.077 4.909 10.754 6.026 12.251.035-.091.071-.209.101-.357.597-2.924 2.55-6.414 4.859-8.685 2.671-2.622 5.324-4.549 8.065-5.933a8.952 8.952 0 0 1-1.953-4.18zM28.462 10.5c-1.01-5.647-4.477-9.111-8.416-8.411-4.104.724-10.821 4.88-12.326 5.99.092.035.211.072.362.101 2.939.594 6.45 2.535 8.732 4.831 2.548 2.563 4.469 5.102 5.85 7.723a9.003 9.003 0 0 1 3.88-1.684 9.025 9.025 0 0 1 1.589-.14c.346 0 .68.052 1.017.09.009-2.003-.097-5.173-.688-8.5zm6.58 16.181a7.002 7.002 0 0 0-6.909-5.772c-.413 0-.829.037-1.238.109a6.991 6.991 0 0 0-4.537 2.875 6.916 6.916 0 0 0-1.16 5.224 7.006 7.006 0 0 0 6.914 5.771 7.24 7.24 0 0 0 1.235-.109 6.983 6.983 0 0 0 4.535-2.878 6.9 6.9 0 0 0 1.16-5.22zm18.822-6.819c-.727-4.078-4.909-10.755-6.026-12.251-.035.09-.071.208-.101.357-.599 2.926-2.551 6.415-4.86 8.681-2.541 2.495-5.06 4.358-7.649 5.725a8.942 8.942 0 0 1 1.795 3.956c.154.867.178 1.735.082 2.585 1.996.003 5.069-.117 8.295-.686 2.729-.479 5.084-1.584 6.632-3.107 1.075-1.057 2.266-2.827 1.832-5.26z"/></svg>