<svg xmlns="http://www.w3.org/2000/svg" width="81" height="76.03" viewBox="0 0 81 76.03"><defs><style>.cls-1{fill:#fff;fill-rule:evenodd}</style></defs><path id="vent" class="cls-1" d="M228.672 6244.14s-.076-9.03-6.068-12.31c-6.135-4.13-3.681-13.23 4.494-15.68s19.774-1.3 24.516 6.93c4.534 7.11 5.274 13.87-12.18 30.06 0 0-1.229-9.27-10.762-9m-11.892 17.45s-7.863 4.53-7.777 11.33c-.59 7.34-9.757 9.71-15.951 3.87s-10.9-16.44-6.049-24.6c3.99-7.42 9.54-11.41 32.334-4.34 0 0-6.461 4.33-2.557 13.74m22.447 0s8.451 3.32 13.768-.96c6.163-4.09 13.722 1.58 12.95 10.03s-6.223 18.69-15.675 19.96c-8.344 1.5-14.928-.35-23.481-22.5 0 0 9.117 2.35 12.438-6.53m-2.9-2.86a8.659 8.659 0 1 1-5.963-10.63 8.683 8.683 0 0 1 5.963 10.63" transform="translate(-185 -6215)"/></svg>