<svg version="1.2" baseProfile="tiny" xmlns="http://www.w3.org/2000/svg" width="16" height="16" viewBox="0 0 16 16"><path fill-rule="evenodd" fill="#FFF" d="M6.999 4.374a.684.684 0 0 0-.369-.115c-.333 0-.584.271-.584.63v6.222c0 .359.251.631.584.631.125 0 .252-.04.368-.116l4.707-3.082A.647.647 0 0 0 12.014 8a.644.644 0 0 0-.309-.544L6.999 4.374zM7 10V6l3.885 2L7 10zM8 0C3.589 0 0 3.589 0 8s3.589 8 8 8 8-3.589 8-8-3.589-8-8-8zm0 15.096C4.087 15.096.904 11.912.904 8A7.104 7.104 0 0 1 8 .904c3.912 0 7.096 3.183 7.096 7.096 0 3.912-3.184 7.096-7.096 7.096z"/></svg>