<svg xmlns="http://www.w3.org/2000/svg" width="67.825" height="60.967" viewBox="123.493 49.023 67.825 60.967"><linearGradient id="a" gradientUnits="userSpaceOnUse" x1="-78.63" y1="235.404" x2="-46.513" y2="194.296" gradientTransform="matrix(1 0 0 -1 214.4 289.628)"><stop offset="0" stop-color="#0c90c2"/><stop offset="1" stop-color="#2dd2ab"/></linearGradient><path d="M190.756 75.869a4.16 4.16 0 0 1-3.588 2.09h-23.037a4.151 4.151 0 0 1-3.587-2.092 4.25 4.25 0 0 1-.019-4.188l11.515-20.53a4.152 4.152 0 0 1 3.611-2.126c1.49 0 2.873.814 3.61 2.124l11.517 20.535a4.256 4.256 0 0 1-.022 4.187zm-1.706-3.191l-11.516-20.533c-.384-.682-1.106-1.106-1.884-1.106s-1.5.424-1.884 1.107L162.25 72.678a2.211 2.211 0 0 0 .011 2.177 2.163 2.163 0 0 0 1.869 1.09h23.037a2.17 2.17 0 0 0 1.871-1.09c.386-.67.391-1.505.012-2.177zm-13.186 1.023a2.02 2.02 0 0 1-1.378-.518c-.399-.349-.602-.84-.602-1.46 0-.542.192-1.011.57-1.391.377-.381.84-.577 1.386-.577.542 0 1.012.196 1.398.575.383.382.579.85.579 1.393 0 .611-.201 1.1-.594 1.455a1.973 1.973 0 0 1-1.359.523zm1.369-7.929c-.053.722-.176 1.27-.367 1.668a1.132 1.132 0 0 1-1.073.668c-.498 0-.863-.225-1.061-.655-.173-.384-.295-.941-.368-1.704l-.374-5.657c-.072-1.119-.106-1.897-.106-2.385 0-.704.189-1.266.563-1.672.376-.407.875-.615 1.487-.615.75 0 1.262.278 1.527.82.239.502.357 1.193.357 2.117 0 .523-.029 1.061-.084 1.601l-.501 5.814zm-34.61 44.218c-10.548 0-19.13-8.702-19.13-19.399 0-10.321 17.533-39.736 18.281-40.983.359-.602 1.339-.602 1.698 0 .747 1.247 18.281 30.662 18.281 40.983 0 10.697-8.582 19.399-19.13 19.399zm0-57.892c-3.568 6.121-17.142 29.972-17.142 38.494 0 9.585 7.69 17.383 17.142 17.383s17.142-7.798 17.142-17.383c0-8.524-13.574-32.373-17.142-38.494zm8.572 40.09c.482-.136 1.019.177 1.15.682a.964.964 0 0 1-.658 1.174l-.772.215.659.396a.981.981 0 0 1 .343 1.305.95.95 0 0 1-1.287.357l-.63-.379.204.793c.13.51-.167 1.036-.66 1.173-.555.149-1.029-.183-1.152-.685l-.687-2.658-4.144-2.489v5.001l1.875 1.949a.985.985 0 0 1 0 1.35.944.944 0 0 1-1.336 0l-.539-.56v.764c0 .53-.421.962-.936.962a.951.951 0 0 1-.938-.962v-.764l-.539.56a.944.944 0 0 1-1.333.003.987.987 0 0 1-.002-1.352l1.874-1.95v-5.001l-4.144 2.489-.686 2.662c-.128.503-.647.824-1.149.684a.972.972 0 0 1-.664-1.176l.207-.792-.629.377c-.429.259-1.039.092-1.288-.354a.98.98 0 0 1 .339-1.304l.663-.399-.775-.216c-.495-.135-.791-.661-.659-1.173.129-.505.659-.819 1.151-.682l2.549.711 4.167-2.503-4.167-2.501-2.549.709c-.473.134-1.022-.178-1.151-.681-.131-.511.164-1.037.658-1.175l.775-.215-.662-.397a.983.983 0 0 1-.342-1.306.95.95 0 0 1 1.292-.354l.627.377-.205-.793a.967.967 0 0 1 .66-1.175c.489-.136 1.023.179 1.153.683l.684 2.663 4.144 2.49V83.72l-1.874-1.951a.985.985 0 0 1 0-1.349.94.94 0 0 1 1.335-.001l.539.561v-.764a.95.95 0 0 1 .938-.961.95.95 0 0 1 .936.961v.765l.54-.562a.942.942 0 0 1 1.335 0 .985.985 0 0 1 0 1.35l-1.875 1.951v4.999l4.144-2.489.687-2.662c.126-.502.655-.822 1.152-.683a.97.97 0 0 1 .661 1.172l-.205.794.626-.375c.436-.262 1.037-.095 1.291.352a.984.984 0 0 1-.343 1.308l-.661.395.774.217a.963.963 0 0 1 .658 1.175c-.131.506-.675.823-1.158.678l-2.542-.707-4.166 2.501 4.166 2.503 2.551-.71z" fill="url(#a)"/></svg>