<svg xmlns="http://www.w3.org/2000/svg" preserveAspectRatio="xMidYMid" width="38" height="12" viewBox="0 0 38 12.09"><defs><style>.cls-1{fill:#000;fill-rule:evenodd}</style></defs><path d="M33.321 12.085c-2.579 0-4.678-2.096-4.678-4.668 0-2.286 3.298-6.345 3.96-7.134.356-.425 1.08-.425 1.436 0 .661.789 3.96 4.848 3.96 7.134 0 2.572-2.099 4.668-4.678 4.668zm0-9.709c-1.339 1.746-2.807 4.039-2.807 5.041a2.809 2.809 0 0 0 2.807 2.802 2.809 2.809 0 0 0 2.807-2.802c0-1.003-1.468-3.298-2.807-5.041zm-14.163 9.709c-2.579 0-4.678-2.096-4.678-4.668 0-2.286 3.299-6.345 3.96-7.134.356-.425 1.08-.425 1.436 0 .662.789 3.96 4.848 3.96 7.134 0 2.572-2.099 4.668-4.678 4.668zm0-9.709c-1.338 1.746-2.806 4.039-2.806 5.041a2.808 2.808 0 0 0 2.806 2.802 2.809 2.809 0 0 0 2.807-2.802c0-1.003-1.468-3.298-2.807-5.041zM4.679 12.085A4.68 4.68 0 0 1 .001 7.417c0-2.286 3.298-6.345 3.959-7.134.357-.425 1.08-.425 1.437 0 .661.789 3.96 4.848 3.96 7.134 0 2.572-2.099 4.668-4.678 4.668zm0-9.709C3.34 4.122 1.872 6.415 1.872 7.417a2.809 2.809 0 0 0 2.807 2.802 2.809 2.809 0 0 0 2.806-2.802c0-1.003-1.468-3.298-2.806-5.041z" class="cls-1"/></svg>