<svg xmlns="http://www.w3.org/2000/svg" width="126" height="118"><defs><linearGradient id="a" x1="0%" x2="61.566%" y1="0%" y2="78.801%"><stop offset="0%" stop-color="#00ADEF" stop-opacity=".81"/><stop offset="39%" stop-color="#19CDD7" stop-opacity=".81"/><stop offset="100%" stop-color="#31ECBE" stop-opacity=".81"/></linearGradient></defs><path fill-rule="evenodd" fill="#00AFED" d="M124.332 81.765l-6.312-9.685c-3.963 19.864-18.069 36.175-37.131 42.78a56.378 56.378 0 0 1-18.483 3.133c-8.5 0-16.961-1.947-24.839-5.806-13.637-6.681-23.862-18.279-28.791-32.658l1.883-.653c4.756 13.873 14.623 25.064 27.781 31.51 13.156 6.446 28.004 7.362 41.799 2.58 18.36-6.362 31.955-22.055 35.808-41.178l-9.458 6.23-1.092-1.676 12.371-8.149 8.13 12.474-1.666 1.098zM92.665 70.46c1.143 2.151 2.207 3.92 2.207 9.729 0 8.022-6.961 15.481-17.062 15.481-10.187 0-16.808-8.056-16.808-15.481 0-5.036.467-6.913 2.504-10.241 2.58-4.215 14.304-18.429 14.304-18.429s13.723 16.81 14.855 18.941zm-27.462.538c-1.837 3.001-2.209 4.547-2.209 9.191 0 6.509 5.953 13.477 14.816 13.477 4.235 0 8.123-1.485 10.947-4.181 2.62-2.502 4.123-5.89 4.123-9.296 0-5.089-.814-6.614-1.843-8.543l-.13-.242c-.623-1.173-6.948-9.157-13.102-16.729-3.25 3.983-10.674 13.172-12.602 16.323zm12.791 20.957c-7.592 0-12.692-6.229-12.692-12.048 0-3.666.371-5.169 1.89-7.651a.992.992 0 0 1 1.371-.328c.468.29.615.907.326 1.379-1.326 2.166-1.595 3.277-1.595 6.6 0 4.852 4.299 10.045 10.7 10.045.55 0 .996.448.996 1.001a.999.999 0 0 1-.996 1.002zM47.924 65.29c-10.186 0-16.807-8.056-16.807-15.481 0-5.035.466-6.912 2.504-10.241 2.579-4.214 14.303-18.429 14.303-18.429S61.647 37.95 62.779 40.08c1.144 2.152 2.208 3.921 2.208 9.729 0 8.023-6.961 15.481-17.063 15.481zm13.227-24.024l-.129-.242c-.623-1.172-6.949-9.157-13.102-16.729-3.25 3.984-10.674 13.173-12.603 16.323-1.837 3.001-2.208 4.548-2.208 9.191 0 6.509 5.953 13.478 14.815 13.478 4.236 0 8.124-1.485 10.947-4.181 2.621-2.502 4.123-5.891 4.123-9.297 0-5.089-.813-6.613-1.843-8.543zM48.108 61.575c-7.592 0-12.691-6.229-12.691-12.047 0-3.667.37-5.17 1.89-7.652a.993.993 0 0 1 1.371-.328c.468.29.614.907.325 1.378-1.325 2.167-1.594 3.278-1.594 6.602 0 4.851 4.299 10.044 10.699 10.044.551 0 .996.448.996 1.001a.998.998 0 0 1-.996 1.002zm39.44-53.149c-13.156-6.446-28-7.362-41.799-2.58C27.389 12.207 13.794 27.9 9.942 47.023l9.458-6.229 1.092 1.677-12.371 8.147L-.01 38.144l1.666-1.098 6.313 9.685c3.963-19.865 18.068-36.175 37.13-42.779C59.401-1.004 74.786-.054 88.421 6.624c13.636 6.681 23.862 18.28 28.791 32.659l-1.883.654c-4.756-13.875-14.623-25.066-27.781-31.511z"/><path fill="url(#a)" d="M124.332 81.765l-6.312-9.685c-3.963 19.864-18.069 36.175-37.131 42.78a56.378 56.378 0 0 1-18.483 3.133c-8.5 0-16.961-1.947-24.839-5.806-13.637-6.681-23.862-18.279-28.791-32.658l1.883-.653c4.756 13.873 14.623 25.064 27.781 31.51 13.156 6.446 28.004 7.362 41.799 2.58 18.36-6.362 31.955-22.055 35.808-41.178l-9.458 6.23-1.092-1.676 12.371-8.149 8.13 12.474-1.666 1.098zM92.665 70.46c1.143 2.151 2.207 3.92 2.207 9.729 0 8.022-6.961 15.481-17.062 15.481-10.187 0-16.808-8.056-16.808-15.481 0-5.036.467-6.913 2.504-10.241 2.58-4.215 14.304-18.429 14.304-18.429s13.723 16.81 14.855 18.941zm-27.462.538c-1.837 3.001-2.209 4.547-2.209 9.191 0 6.509 5.953 13.477 14.816 13.477 4.235 0 8.123-1.485 10.947-4.181 2.62-2.502 4.123-5.89 4.123-9.296 0-5.089-.814-6.614-1.843-8.543l-.13-.242c-.623-1.173-6.948-9.157-13.102-16.729-3.25 3.983-10.674 13.172-12.602 16.323zm12.791 20.957c-7.592 0-12.692-6.229-12.692-12.048 0-3.666.371-5.169 1.89-7.651a.992.992 0 0 1 1.371-.328c.468.29.615.907.326 1.379-1.326 2.166-1.595 3.277-1.595 6.6 0 4.852 4.299 10.045 10.7 10.045.55 0 .996.448.996 1.001a.999.999 0 0 1-.996 1.002zM47.924 65.29c-10.186 0-16.807-8.056-16.807-15.481 0-5.035.466-6.912 2.504-10.241 2.579-4.214 14.303-18.429 14.303-18.429S61.647 37.95 62.779 40.08c1.144 2.152 2.208 3.921 2.208 9.729 0 8.023-6.961 15.481-17.063 15.481zm13.227-24.024l-.129-.242c-.623-1.172-6.949-9.157-13.102-16.729-3.25 3.984-10.674 13.173-12.603 16.323-1.837 3.001-2.208 4.548-2.208 9.191 0 6.509 5.953 13.478 14.815 13.478 4.236 0 8.124-1.485 10.947-4.181 2.621-2.502 4.123-5.891 4.123-9.297 0-5.089-.813-6.613-1.843-8.543zM48.108 61.575c-7.592 0-12.691-6.229-12.691-12.047 0-3.667.37-5.17 1.89-7.652a.993.993 0 0 1 1.371-.328c.468.29.614.907.325 1.378-1.325 2.167-1.594 3.278-1.594 6.602 0 4.851 4.299 10.044 10.699 10.044.551 0 .996.448.996 1.001a.998.998 0 0 1-.996 1.002zm39.44-53.149c-13.156-6.446-28-7.362-41.799-2.58C27.389 12.207 13.794 27.9 9.942 47.023l9.458-6.229 1.092 1.677-12.371 8.147L-.01 38.144l1.666-1.098 6.313 9.685c3.963-19.865 18.068-36.175 37.13-42.779C59.401-1.004 74.786-.054 88.421 6.624c13.636 6.681 23.862 18.28 28.791 32.659l-1.883.654c-4.756-13.875-14.623-25.066-27.781-31.511z"/></svg>