<svg xmlns="http://www.w3.org/2000/svg" width="114.969" height="82" viewBox="0 0 114.969 82"><defs><style>.cls-1{fill:#fff;fill-rule:evenodd}</style></defs><path id="water" class="cls-1" d="M68.844 5334.62c0-3.23 5.8-12.63 5.8-12.63s5.8 9.4 5.8 12.63a5.8 5.8 0 1 1-11.6 0M122 5348H26v-2h96v2zm-51.969 56.01a5.752 5.752 0 0 1-2.833-.62 2.716 2.716 0 0 1-1.434-2.34c-.033-1.77 1.577-3.85 4.308-5.56l.911-.59 51.573-33.94c2.3-1.44 3.324-2.94 3.311-3.71a.574.574 0 0 0-.369-.53c-1.4-.82-5.371-.2-8.834 1.98l-1.183.74-56.425 37.76c-4.33 2.89-8.725 2.81-10.985 1.5a2.7 2.7 0 0 1-1.433-2.34c-.032-1.77 1.575-3.85 4.3-5.56l1.087-.69 47.206-29.4c2.288-1.44 3.316-2.93 3.3-3.71a.572.572 0 0 0-.368-.52c-1.4-.82-5.383-.2-8.844 1.98l-16.308 9.89-30.147 19.32c-3.968 2.5-8.707 3.36-11.026 2.02a2.7 2.7 0 0 1-1.433-2.34c-.033-1.77 1.577-3.85 4.306-5.56l32.768-20.58c2.127-1.39 3.086-2.81 3.071-3.56a.571.571 0 0 0-.368-.52c-1.4-.81-5.378-.2-8.842 1.98l-1.111.68-25.864 17.11c-4.082 2.56-7.858 3.32-10.1 2.02a2.689 2.689 0 0 1-1.437-2.34c-.033-1.77 1.575-3.85 4.3-5.56l15.862-9.91c2.29-1.44 3.318-2.93 3.3-3.71a.57.57 0 0 0-.368-.53c-1.4-.81-5.381-.2-8.843 1.98l-1.185.74-25.837 14.75-1.047-1.85 26.948-15.45c3.963-2.49 8.7-3.37 11.022-2.02a2.7 2.7 0 0 1 1.433 2.34c.031 1.77-1.577 3.85-4.3 5.56l-15.863 9.91c-2.288 1.44-3.315 2.93-3.3 3.71a.575.575 0 0 0 .372.53c1.486.86 4.665.06 7.917-1.98l1-.63 25.984-17.17c3.957-2.49 8.7-3.36 11.017-2.02a2.717 2.717 0 0 1 1.433 2.34c.033 1.77-1.575 3.85-4.3 5.56l-.005-.01-32.532 20.44c-2.293 1.44-3.321 2.93-3.308 3.71a.592.592 0 0 0 .369.53c1.4.8 5.377.19 8.844-1.98l1.177-.74 28.975-18.59 16.315-9.89c3.948-2.49 8.69-3.36 11.015-2.02a2.713 2.713 0 0 1 1.432 2.35c.032 1.76-1.575 3.84-4.3 5.55l-1 .64-47.291 29.45c-2.289 1.44-3.317 2.93-3.3 3.71a.573.573 0 0 0 .369.53c1.424.82 4.926 1.12 8.738-1.42l2.849-1.97 54.821-36.58c3.371-2.12 8.378-3.55 11.021-2.01a2.685 2.685 0 0 1 1.43 2.34c.032 1.77-1.578 3.84-4.305 5.56l-1.169.74-51.318 33.78c-2.3 1.45-3.329 2.94-3.315 3.72a.572.572 0 0 0 .367.52c1.406.81 5.383.2 8.848-1.98l1-.63 31.1-18.98c3.957-2.48 8.695-3.36 11.017-2.01a2.154 2.154 0 0 1 1.125 1.89c.04 2.18-3 5.1-5.844 6.89l-1.126-1.81c3.285-2.07 5.027-4.5 4.844-5.08-1.461-.85-5.436-.23-8.9 1.94l-1.106.68-30.986 18.92a16.315 16.315 0 0 1-8.193 2.65z" transform="translate(-13.031 -5322)"/></svg>