<svg xmlns="http://www.w3.org/2000/svg" width="88" height="88" viewBox="0 0 88 88"><defs><style>.cls-1{fill:none;stroke:#f5f5f5;stroke-width:1px}.cls-2,.cls-3{fill-rule:evenodd}.cls-3{fill:red}</style></defs><circle id="Ellipse_2_copy_9" data-name="Ellipse 2 copy 9" class="cls-1" cx="44" cy="44" r="44"/><path class="cls-2" d="M47.386 24.516A25.859 25.859 0 0 0 16.459 39.8a26.5 26.5 0 0 0 3.319 25.745.991.991 0 0 0 1.4.2 1.013 1.013 0 0 0 .193-1.41 24.465 24.465 0 0 1-3.071-23.77 23.873 23.873 0 0 1 28.55-14.111 1 1 0 0 0 1.228-.7 1.007 1.007 0 0 0-.692-1.238zM65.223 42a1 1 0 0 0-1.247-.663 1.007 1.007 0 0 0-.657 1.259 24.388 24.388 0 0 1-3.783 21.731 1.013 1.013 0 0 0 .193 1.41.992.992 0 0 0 1.4-.2A26.411 26.411 0 0 0 65.223 42zm-23.16 3.767a4.185 4.185 0 0 0-3.255.012 4.233 4.233 0 0 0-2.289 2.327 4.277 4.277 0 0 0-.254 2.3l-13.2 5.572a1.009 1.009 0 0 0-.535 1.317 1 1 0 0 0 .92.618.984.984 0 0 0 .384-.078l13.2-5.572a4.192 4.192 0 0 0 3.41 1.757 4.257 4.257 0 0 0 3.937-2.66 4.308 4.308 0 0 0-2.318-5.591zm.474 4.833a2.248 2.248 0 0 1-4.168.013 2.277 2.277 0 0 1-.005-1.742 2.243 2.243 0 0 1 2.942-1.241 2.288 2.288 0 0 1 1.231 2.97zm14.3.547h4.333a1.006 1.006 0 0 0 0-2.013h-4.337a1.006 1.006 0 0 0 0 2.014zm3.563 6.927a1.009 1.009 0 0 0-.54-1.314l-4.006-1.672a.991.991 0 0 0-1.3.545 1.009 1.009 0 0 0 .54 1.314L59.1 58.62a.984.984 0 0 0 .381.077 1 1 0 0 0 .919-.623zM18.856 49.74a1 1 0 0 0 1 1.005h4.335a1.006 1.006 0 0 0 0-2.013h-4.335a1 1 0 0 0-1 1.008zM20.5 41.4a1.009 1.009 0 0 0 .539 1.315l4.006 1.675a.986.986 0 0 0 .381.077 1 1 0 0 0 .922-.621 1.009 1.009 0 0 0-.539-1.315L21.8 40.854a.993.993 0 0 0-1.3.546zm13.727-5.819a.989.989 0 0 0 .381-.077 1.01 1.01 0 0 0 .539-1.315l-1.659-4.041a.994.994 0 0 0-1.3-.544 1.01 1.01 0 0 0-.539 1.315l1.659 4.041a1 1 0 0 0 .919.619zM29.173 39.2a.99.99 0 0 0 .7-.294 1.012 1.012 0 0 0 0-1.423l-3.059-3.1a.99.99 0 0 0-1.41 0 1.013 1.013 0 0 0 0 1.423l3.059 3.1a.988.988 0 0 0 .71.294zm12.4-5.47v-4.376a1 1 0 1 0-1.994 0v4.376a1 1 0 1 0 1.991 0z"/><path class="cls-3" d="M73.928 17.929L72.389 16.7l-4.064 5.075a12.749 12.749 0 1 0 1.342 1.476zm-3.556 13.089a10.775 10.775 0 1 1-3.278-7.706l-8.7 10.871-3.471-4.768-1.594 1.158 4.99 6.857L68.4 24.835a10.665 10.665 0 0 1 1.972 6.183z"/></svg>