<svg version="1.2" baseProfile="tiny" xmlns="http://www.w3.org/2000/svg" width="132" height="178" viewBox="0 0 132 178"><path fill-rule="evenodd" fill="#FFF" d="M89.181.983l-.571.697c27.006 22.011 42.495 54.443 42.495 88.977 0 33.171-14.491 64.764-39.759 86.676l.593.681c25.464-22.084 40.068-53.924 40.068-87.356 0-34.804-15.61-67.491-42.826-89.675zM44.872 23.026l-.572.698c20.228 16.488 31.831 40.779 31.831 66.645 0 24.846-10.855 48.511-29.781 64.924l.592.68c19.123-16.585 30.091-40.495 30.091-65.604 0-26.137-11.722-50.683-32.161-67.343zM.563 45.069l-.571.696c13.45 10.963 21.165 27.116 21.165 44.314 0 16.521-7.218 32.254-19.802 43.169l.592.68c12.782-11.085 20.112-27.067 20.112-43.849 0-17.47-7.835-33.875-21.496-45.01z"/></svg>