<svg version="1.2" baseProfile="tiny" xmlns="http://www.w3.org/2000/svg" width="132" height="178" viewBox="0 0 132 178"><g fill-rule="evenodd" fill="#FFF"><path d="M.896 87.343c0-33.171 14.492-64.764 39.758-86.676l-.592-.681C14.597 22.07-.007 53.91-.007 87.343c0 34.804 15.609 67.49 42.826 89.674l.571-.698C16.384 154.309.896 121.876.896 87.343zm109.948.577c0-16.521 7.218-32.254 19.802-43.169l-.593-.68c-12.781 11.085-20.111 27.067-20.111 43.849 0 17.471 7.835 33.876 21.496 45.011l.57-.696c-13.449-10.964-21.164-27.117-21.164-44.315zM55.87 87.632c0-24.846 10.855-48.511 29.781-64.924l-.593-.68c-19.123 16.585-30.09 40.495-30.09 65.604 0 26.136 11.722 50.683 32.162 67.342l.57-.697c-20.228-16.489-31.83-40.78-31.83-66.645z"/></g></svg>