<svg xmlns="http://www.w3.org/2000/svg" width="310" height="32"><path fill-rule="evenodd" fill="#DDD" d="M80.177 31.281c35.723 0 56.003-7.433 75.636-14.625 21.399-7.839 42.034-14.293 78.096-13.927 36.04.364 55.639 7.99 74.593 15.365l.776.303.724-1.866-.777-.301C290.995 9.135 270.334 1.097 233.93.728c-36.358-.367-58.012 6.431-78.793 14.045-19.958 7.311-40.588 14.856-77.608 14.493-35.555-.357-56.256-8.234-74.521-15.182l-2.303-.877-.708 1.872 2.302.875c18.42 7.007 39.298 14.951 75.21 15.314.897.008 1.79.013 2.668.013z"/></svg>