<svg id="weather" xmlns="http://www.w3.org/2000/svg" width="271" height="271" viewBox="0 0 271 271"><defs><style>.cls-1{fill:#f5f5f5;stroke:#fff;stroke-width:1px}.cls-2,.cls-3{fill-rule:evenodd}.cls-3{fill:red}</style></defs><circle id="base" class="cls-1" cx="135.5" cy="135.5" r="135"/><path class="cls-2" d="M1394.7 5165.58a8.583 8.583 0 0 0-5.28-2.28 10.13 10.13 0 0 0-10.43-7.32c-2.16-5.84-8.38-8.16-11.94-8.23-3.99-.09-10.55 2.01-12.38 7.9a15.831 15.831 0 0 0-11.62 3.45 12.44 12.44 0 0 0-4.43 9.47c-.18 8.71 9 13.66 13.77 13.76a19.49 19.49 0 0 0 7.77-1.77 11.6 11.6 0 0 0 6.35 2.07h.23a10.527 10.527 0 0 0 6.07-1.91 15.332 15.332 0 0 0 5.26 1.1 8.359 8.359 0 0 0 5.78-2.38 7.158 7.158 0 0 0 3.58.86h.24a8.965 8.965 0 0 0 9.28-9.05 7.558 7.558 0 0 0-2.25-5.67zm-7.22 12.71c-2.21-.05-2.87-.77-2.88-.77a1.01 1.01 0 0 0-.79-.46 1 1 0 0 0-.84.39 6.675 6.675 0 0 1-4.86 2.36 13.124 13.124 0 0 1-4.99-1.15.985.985 0 0 0-1.12.15 8.4 8.4 0 0 1-5.27 1.81h-.18a9.611 9.611 0 0 1-5.62-1.99 1 1 0 0 0-1.12-.14 16.694 16.694 0 0 1-7.37 1.83c-3.61-.07-11.98-4.15-11.82-11.71a10.487 10.487 0 0 1 3.72-7.98 13.951 13.951 0 0 1 10.93-2.89.991.991 0 0 0 1.12-.78c1.18-5.49 7.44-7.21 10.45-7.21a.808.808 0 0 1 .16.01c2.67.05 8.7 1.98 10.33 7.57a1.008 1.008 0 0 0 1.07.71c7.75-.85 9.24 6.35 9.25 6.42a1 1 0 0 0 .96.81 6.822 6.822 0 0 1 4.7 1.76 5.523 5.523 0 0 1 1.65 4.18c-.1 4.75-3.84 7.12-7.48 7.08zm-15.24 12.95a1 1 0 1 0-1.73 1l5.85 10.35a.984.984 0 0 0 .87.51.947.947 0 0 0 .49-.13 1.011 1.011 0 0 0 .38-1.37zm-17.98-4.87a1 1 0 1 0-1.74.99l5.85 10.36a1.013 1.013 0 0 0 1.37.37 1.006 1.006 0 0 0 .37-1.37zm32.99-.94a1 1 0 1 0-1.73 1l5.85 10.35a.984.984 0 0 0 .87.51.947.947 0 0 0 .49-.13 1.011 1.011 0 0 0 .38-1.37zm-101.08-53.52h-.01a39.424 39.424 0 0 0-28.13 11.72 40.192 40.192 0 0 0 .01 56.56 39.409 39.409 0 0 0 28.12 11.71h.01a39.383 39.383 0 0 0 28.13-11.72 40.192 40.192 0 0 0-.01-56.56 39.409 39.409 0 0 0-28.12-11.71zm26.72 66.85a37.434 37.434 0 0 1-26.72 11.13h-.01a37.443 37.443 0 0 1-26.71-11.12 38.176 38.176 0 0 1-.01-53.72 37.434 37.434 0 0 1 26.72-11.13h.01a37.46 37.46 0 0 1 26.71 11.12 38.186 38.186 0 0 1 .01 53.72zm-28.75-28.89a2.9 2.9 0 0 0 0 4.08 2.861 2.861 0 0 0 4.05 0 2.9 2.9 0 0 0 0-4.08 2.843 2.843 0 0 0-4.05 0z" transform="translate(-1147 -5039)"/><path id="Shape_18_copy" data-name="Shape 18 copy" class="cls-3" d="M1219.33 5164.04a19.135 19.135 0 1 0-17.67 26.52 18.886 18.886 0 0 0 7.24-1.44 19.289 19.289 0 0 0 10.43-25.08zm-11.19 23.22a17.2 17.2 0 0 1-13-31.85 16.832 16.832 0 0 1 6.48-1.29 17.226 17.226 0 0 1 6.52 33.14zm23.95-16.93h-6.41a1.005 1.005 0 0 0 0 2.01h6.41a1.005 1.005 0 0 0 0-2.01zm-9.16-7.86a.992.992 0 0 0 .92.62.838.838 0 0 0 .38-.08l5.93-2.46a1.007 1.007 0 0 0-.77-1.86l-5.92 2.47a1 1 0 0 0-.54 1.31zm-12.47-12.54a1.008 1.008 0 0 0 1.3-.55l2.46-5.95a1 1 0 0 0-1.85-.77l-2.45 5.95a1.007 1.007 0 0 0 .54 1.32zm7.85 5.41a.992.992 0 0 0 .71-.3l4.52-4.56a1.008 1.008 0 0 0 0-1.42 1 1 0 0 0-1.41 0l-4.53 4.56a1 1 0 0 0 .01 1.42.97.97 0 0 0 .7.3zm-16.85-6.58a.994.994 0 0 0 .99-1v-6.45a1 1 0 1 0-1.99 0v6.45a1 1 0 0 0 1 1zm-9.95.62a1 1 0 0 0 .93.62 1.058 1.058 0 0 0 .38-.07 1.015 1.015 0 0 0 .54-1.32l-2.45-5.95a1 1 0 0 0-1.31-.55 1.015 1.015 0 0 0-.54 1.32zm-7.58 5.57a.96.96 0 0 0 .7.29.982.982 0 0 0 .71-.29 1.008 1.008 0 0 0 0-1.42l-4.53-4.56a1 1 0 0 0-1.41 0 1.008 1.008 0 0 0 0 1.42zm-10.81 5.6l5.92 2.46a.838.838 0 0 0 .38.08.992.992 0 0 0 .92-.62 1 1 0 0 0-.54-1.31l-5.92-2.47a1 1 0 0 0-1.3.54 1.015 1.015 0 0 0 .54 1.32zm5.29 11.52a1 1 0 0 0-1-1H1171a1.005 1.005 0 0 0 0 2.01h6.41a1 1 0 0 0 1-1.01zm1.75 8.87a.993.993 0 0 0-1.3-.55l-5.93 2.47a1 1 0 0 0 .39 1.93 1.058 1.058 0 0 0 .38-.07l5.92-2.47a1 1 0 0 0 .54-1.31zm12.47 12.54a.993.993 0 0 0-1.3.55l-2.46 5.95a1 1 0 0 0 .54 1.31 1.087 1.087 0 0 0 .39.08 1.008 1.008 0 0 0 .92-.62l2.45-5.95a1.007 1.007 0 0 0-.54-1.32zm-8.56-5.11l-4.52 4.56a1.008 1.008 0 0 0 0 1.42 1 1 0 0 0 1.41 0l4.53-4.56a1.017 1.017 0 0 0-.01-1.42.978.978 0 0 0-1.41 0zm17.56 6.28a.994.994 0 0 0-.99 1v6.45a1 1 0 1 0 1.99 0v-6.45a1 1 0 0 0-1-1zm9.95-.62a1 1 0 0 0-1.31-.55 1.012 1.012 0 0 0-.54 1.32l2.45 5.95a1 1 0 0 0 .93.62.9.9 0 0 0 .38-.08 1 1 0 0 0 .54-1.31zm7.58-5.57a1 1 0 0 0-1.41 0 1.008 1.008 0 0 0 0 1.42l4.53 4.55a.992.992 0 0 0 .71.3.97.97 0 0 0 .7-.3 1.008 1.008 0 0 0 0-1.42zm10.81-5.6l-5.92-2.47a1 1 0 0 0-.76 1.86l5.92 2.47a1.008 1.008 0 0 0 1.3-.55 1 1 0 0 0-.54-1.31zm36.12-15.21l-11.48 4.26 11.48 4.26v-8.52z" transform="translate(-1147 -5039)"/></svg>