<svg xmlns="http://www.w3.org/2000/svg" width="88" height="88" viewBox="0 0 88 88"><defs><style>.cls-1{fill:none;stroke:#f5f5f5;stroke-width:1px}.cls-2,.cls-3{fill-rule:evenodd}.cls-3{fill:red}</style></defs><circle id="Ellipse_2_copy_2" data-name="Ellipse 2 copy 2" class="cls-1" cx="44" cy="44" r="44"/><path class="cls-2" d="M71.61 48.9a4.9 4.9 0 0 0-2.73-1.3 5.72 5.72 0 0 0-5.48-3.917h-.014a7.651 7.651 0 0 0-6.553-4.343c-2.133-.04-5.633 1.06-6.811 4.152a8.593 8.593 0 0 0-6.058 1.96 7.167 7.167 0 0 0-2.481 5.357c-.1 4.984 4.935 7.7 7.666 7.761a10.511 10.511 0 0 0 4.024-.874 6.541 6.541 0 0 0 3.357 1.033h.128a5.968 5.968 0 0 0 3.238-.957 8.289 8.289 0 0 0 2.679.529 4.719 4.719 0 0 0 3.1-1.164 4.593 4.593 0 0 0 1.8.358h.125a5.232 5.232 0 0 0 5.333-5.25A4.485 4.485 0 0 0 71.61 48.9zm-4.092 6.579a2.039 2.039 0 0 1-1.175-.268.989.989 0 0 0-.73-.377 1.011 1.011 0 0 0-.833.384 2.913 2.913 0 0 1-2.163 1.068 6.313 6.313 0 0 1-2.407-.561.993.993 0 0 0-1.113.152 3.669 3.669 0 0 1-2.527.836 4.5 4.5 0 0 1-2.638-.938.984.984 0 0 0-1.112-.132 8.7 8.7 0 0 1-3.63.911c-1.746-.037-5.8-2.022-5.72-5.7a5.1 5.1 0 0 1 1.779-3.862 6.759 6.759 0 0 1 5.351-1.417.991.991 0 0 0 1.112-.787c.622-2.924 4.188-3.471 5.081-3.429 1.281.027 4.179.957 4.962 3.658a.994.994 0 0 0 1.062.718 3.821 3.821 0 0 1 4.323 3 1 1 0 0 0 .954.816 3.087 3.087 0 0 1 2.142.8 2.441 2.441 0 0 1 .715 1.851 3.2 3.2 0 0 1-3.433 3.275zm-7.179 7.571a.983.983 0 0 0-1.347-.4 1.016 1.016 0 0 0-.4 1.368l2.681 5a.989.989 0 0 0 .873.527.971.971 0 0 0 .474-.123 1.016 1.016 0 0 0 .4-1.368zm-9.407-2.577a.984.984 0 0 0-1.348-.4 1.018 1.018 0 0 0-.4 1.369l2.682 5a.99.99 0 0 0 .873.526.977.977 0 0 0 .475-.123 1.017 1.017 0 0 0 .4-1.369zm17.257-.492a.983.983 0 0 0-1.347-.4 1.016 1.016 0 0 0-.4 1.368l2.681 5a.989.989 0 0 0 .873.528.971.971 0 0 0 .474-.123 1.016 1.016 0 0 0 .4-1.368z"/><path id="Shape_24_copy" data-name="Shape 24 copy" class="cls-3" d="M35.006 28.623a10.238 10.238 0 0 0-8.014-.027 10.707 10.707 0 0 0-5.712 13.877 10.488 10.488 0 0 0 9.7 6.6 10.269 10.269 0 0 0 3.962-.8A10.705 10.705 0 0 0 40.654 34.4a10.477 10.477 0 0 0-5.648-5.777zm3.789 13.136a8.439 8.439 0 0 1-15.677-.053 8.676 8.676 0 0 1 4.629-11.243 8.314 8.314 0 0 1 6.492.022 8.5 8.5 0 0 1 4.577 4.679 8.688 8.688 0 0 1-.021 6.595zm4.748-4.333a1.009 1.009 0 0 0 0 2.018h3.352a1.009 1.009 0 0 0 0-2.018h-3.352zm-1.876-3.491a.985.985 0 0 0 1.3.546l3.1-1.3a1.014 1.014 0 0 0 .538-1.319.99.99 0 0 0-1.3-.546l-3.1 1.3a1.014 1.014 0 0 0-.538 1.319zm-6.267-6.37a.972.972 0 0 0 .38.077 1 1 0 0 0 .918-.623l1.284-3.144a1.015 1.015 0 0 0-.538-1.319.99.99 0 0 0-1.3.546l-1.284 3.145a1.014 1.014 0 0 0 .54 1.318zm4.289 2.9a.98.98 0 0 0 .7-.3l2.367-2.411a1.019 1.019 0 0 0 0-1.427.983.983 0 0 0-1.405 0l-2.367 2.411a1.02 1.02 0 0 0 0 1.427.985.985 0 0 0 .704.296zm-8.815-3.474a1 1 0 0 0 .994-1.009v-3.41a.994.994 0 1 0-1.987 0v3.406a1 1 0 0 0 .991 1.009zm-5.636.031a.993.993 0 0 0 .918.624.967.967 0 0 0 .379-.077 1.014 1.014 0 0 0 .539-1.318L25.791 23.1a.989.989 0 0 0-1.3-.547 1.014 1.014 0 0 0-.539 1.318zm-3.865 3.1a.983.983 0 0 0 1.405 0 1.02 1.02 0 0 0 0-1.427l-2.37-2.406a.982.982 0 0 0-1.405 0 1.019 1.019 0 0 0 0 1.427zm-5.5 3.061l3.1 1.3a.985.985 0 0 0 1.3-.546 1.014 1.014 0 0 0-.537-1.319l-3.1-1.3a.99.99 0 0 0-1.3.546 1.014 1.014 0 0 0 .535 1.313zm2.424 6.657a1.009 1.009 0 0 0 0-2.018h-3.353a1.009 1.009 0 0 0 0 2.019h3.352zm1.876 3.491a.991.991 0 0 0-1.3-.546l-3.1 1.3a1.016 1.016 0 0 0-.537 1.319.994.994 0 0 0 .918.623.974.974 0 0 0 .38-.077l3.1-1.3a1.015 1.015 0 0 0 .536-1.325zm6.267 6.37a.99.99 0 0 0-1.3.545l-1.284 3.145a1.015 1.015 0 0 0 .538 1.319.986.986 0 0 0 1.3-.546l1.284-3.145a1.014 1.014 0 0 0-.54-1.319zm-4.991-2.6l-2.369 2.407a1.019 1.019 0 0 0 0 1.427.983.983 0 0 0 1.4 0l2.367-2.411a1.021 1.021 0 0 0 0-1.427.983.983 0 0 0-1.401.003zm9.519 3.176a1 1 0 0 0-.994 1.009v3.406a.994.994 0 1 0 1.987 0v-3.409a1 1 0 0 0-.996-1.01zm5.636-.031a.989.989 0 0 0-1.3-.547 1.014 1.014 0 0 0-.539 1.318l1.282 3.147a.992.992 0 0 0 .918.624.969.969 0 0 0 .379-.077 1.014 1.014 0 0 0 .538-1.318z"/></svg>