<svg xmlns="http://www.w3.org/2000/svg" width="142" height="141"><defs><linearGradient id="a" x1="0%" x2="61.566%" y1="0%" y2="78.801%"><stop offset="0%" stop-color="#00ADEF" stop-opacity=".81"/><stop offset="39%" stop-color="#19CDD7" stop-opacity=".81"/><stop offset="100%" stop-color="#31ECBE" stop-opacity=".81"/></linearGradient></defs><path fill-rule="evenodd" fill="#00AFED" d="M141.81 68.571c-.09-1.058-.632-1.901-1.487-2.315-1.201-.58-2.83-.26-4.589.901-4.166 2.754-10.328 4.831-16.133 5.577 11.295-4.017 17.703-12.448 16.017-21.945-1.985-11.18-14.057-30.077-15.744-31.496-.811-.685-1.792-.9-2.687-.589-1.261.436-2.189 1.813-2.613 3.878-.88 4.337-3.252 9.411-6.276 13.733 4.129-10.14 2.439-19.753-5.021-24.958C93.954 4.853 72.035 0 69.839.201c-1.058.089-1.903.628-2.316 1.48-.582 1.2-.263 2.828.899 4.588 3.509 5.288 5.931 13.806 5.891 20.715a96.887 96.887 0 0 1-.028 1.717l-.025-.146C71.547 13.25 61.812 3.935 50.547 5.933 39.372 7.909 20.434 19.964 19.005 21.652c-.686.811-.902 1.789-.591 2.685.437 1.259 1.816 2.184 3.884 2.606 5.841 1.184 13.021 5.054 17.902 9.585-11.507-6.295-22.967-5.212-28.842 3.173C4.856 48.989 0 70.886.185 73.087c.088 1.058.629 1.903 1.483 2.317.392.19.83.284 1.303.284.976 0 2.103-.401 3.29-1.184 4.681-3.096 11.887-5.341 18.275-5.795-11.653 3.93-18.313 12.482-16.601 22.143 1.984 11.177 14.053 30.074 15.742 31.496.569.478 1.219.726 1.866.726.278 0 .556-.045.826-.139 1.258-.437 2.184-1.813 2.607-3.875 1.085-5.329 4.408-11.757 8.427-16.539-5.42 10.983-4.078 21.702 3.958 27.315 9.143 6.38 30.422 11.162 33.293 11.162.054 0 .103-.002.144-.006 1.06-.09 1.905-.632 2.319-1.485.581-1.197.261-2.824-.901-4.581-1.936-2.92-3.537-6.818-4.58-10.883 1.103 1.828 2.346 3.48 3.733 4.879 3.614 3.646 7.855 5.523 12.408 5.523.997 0 2.008-.09 3.03-.271 11.185-1.982 30.113-14.035 31.54-15.722.685-.812.9-1.79.588-2.685-.437-1.258-1.816-2.182-3.883-2.604-4.443-.902-9.653-3.36-14.042-6.476 3.725 1.581 7.478 2.439 10.995 2.457l.121.001c6.205 0 11.222-2.484 14.515-7.188 6.502-9.296 11.355-31.185 11.169-33.386zm-25.271-45.589c.315-1.536.88-2.24 1.304-2.387.223-.076.469 0 .734.224 1.256 1.128 13.15 19.527 15.067 30.32 1.788 10.064-6.858 18.847-21.023 21.36-.487.086-.965.155-1.448.232.21-3.157.041-6.36-.525-9.555-1.148-6.478-3.833-12.433-7.793-17.46.302-.411.603-.822.901-1.243a102.03 102.03 0 0 0 1.724-1.661c5.26-5.19 9.704-13.161 11.059-19.83zM78.318 106.9c-9.856 1.741-19.801-.451-28.007-6.177-8.205-5.726-13.686-14.299-15.433-24.141-1.747-9.842.449-19.773 6.182-27.963 5.734-8.194 14.319-13.667 24.176-15.411 2.208-.39 4.42-.584 6.616-.584 7.608 0 15.025 2.318 21.393 6.765 8.205 5.722 13.685 14.293 15.429 24.136 1.745 9.841-.452 19.774-6.187 27.971-5.731 8.191-14.314 13.661-24.169 15.404zM70.095 5.164c-.867-1.31-.956-2.225-.769-2.609.102-.21.331-.33.677-.359a.813.813 0 0 1 .053-.002c2.038 0 23.159 4.584 32.073 10.803 8.391 5.855 8.497 18.17.26 29.948-.046.066-.094.129-.141.195-.294.276-.586.544-.878.812a39.681 39.681 0 0 0-6.978-6.204c-5.483-3.829-11.706-6.154-18.175-6.877.056-1.259.093-2.555.101-3.876.043-7.382-2.459-16.156-6.223-21.831zm4.123 25.537c-.074-.005-.149-.006-.223-.01l.225-.035-.002.045zm-53.911-7.02c-.076-.22 0-.469.225-.734C21.665 21.694 40.1 9.814 50.897 7.903c10.094-1.782 18.882 6.854 21.39 21.001.103.579.197 1.154.288 1.727a40.003 40.003 0 0 0-7.69.606c-6.987 1.237-13.363 4.259-18.631 8.73a99.364 99.364 0 0 0-3.693-3.942c-5.199-5.251-13.181-9.688-19.863-11.043-1.54-.315-2.25-.897-2.391-1.301zM5.154 72.835c-1.309.863-2.225.956-2.611.768-.21-.101-.332-.331-.36-.678C2.096 71.239 6.719 49.822 13 40.849c5.871-8.382 18.206-8.485 29.997-.252.483.335.956.676 1.426 1.017a39.779 39.779 0 0 0-5.005 5.857c-4.066 5.808-6.435 12.447-6.993 19.328a99.044 99.044 0 0 0-5.404-.179c-7.349-.019-16.182 2.455-21.867 6.215zm21.858 45.825c-.315 1.534-.878 2.238-1.301 2.385-.223.078-.473-.001-.739-.225-1.256-1.129-13.148-19.531-15.064-30.317-1.784-10.07 6.864-18.853 21.029-21.361.458-.081.915-.155 1.371-.229-.072 2.657.121 5.34.596 8.018 1.236 6.961 4.252 13.315 8.712 18.568a99.285 99.285 0 0 0-3.543 3.332c-5.256 5.178-9.701 13.148-11.061 19.829zm47.531 17.369c.866 1.307.965 2.204.77 2.606-.102.211-.333.333-.682.363a.754.754 0 0 1-.052.002c-2.034 0-23.161-4.589-32.069-10.804-8.392-5.861-8.498-18.178-.256-29.952.267-.38.537-.756.807-1.13a39.873 39.873 0 0 0 6.1 5.249c5.306 3.701 11.302 5.996 17.541 6.796.121.795.245 1.591.388 2.395.328 1.848.776 3.63 1.324 5.335.476 6.731 2.81 14.133 6.129 19.14zm46.5-19.606c.076.221 0 .469-.225.735-1.13 1.253-19.556 13.131-30.361 15.046-5.016.884-9.743-.733-13.664-4.689-2.75-2.775-4.936-6.585-6.39-11.008a31.987 31.987 0 0 1-.076-2.294c.011-1.633.06-3.229.142-4.752.41.013.82.024 1.231.024a39.92 39.92 0 0 0 6.968-.615c6.373-1.126 12.237-3.739 17.216-7.581.253.187.514.371.771.557.693.744 1.404 1.489 2.139 2.233 5.194 5.25 13.175 9.688 19.858 11.045 1.538.313 2.243.877 2.391 1.299zm7.956-15.612c-2.92 4.172-7.4 6.329-12.984 6.332-5.4-.028-11.444-2.185-17.015-6.074-.34-.238-.666-.481-1-.721-.14-.15-.272-.299-.409-.448a39.666 39.666 0 0 0 6.539-7.258c3.746-5.354 6.056-11.413 6.835-17.716 1.307.06 2.641.103 4.011.112l.191.001c7.35 0 16.036-2.486 21.673-6.213 1.309-.864 2.209-.962 2.61-.769.211.103.333.332.362.678.088 1.685-4.532 23.097-10.813 32.076z"/><path fill="url(#a)" d="M141.81 68.571c-.09-1.058-.632-1.901-1.487-2.315-1.201-.58-2.83-.26-4.589.901-4.166 2.754-10.328 4.831-16.133 5.577 11.295-4.017 17.703-12.448 16.017-21.945-1.985-11.18-14.057-30.077-15.744-31.496-.811-.685-1.792-.9-2.687-.589-1.261.436-2.189 1.813-2.613 3.878-.88 4.337-3.252 9.411-6.276 13.733 4.129-10.14 2.439-19.753-5.021-24.958C93.954 4.853 72.035 0 69.839.201c-1.058.089-1.903.628-2.316 1.48-.582 1.2-.263 2.828.899 4.588 3.509 5.288 5.931 13.806 5.891 20.715a96.887 96.887 0 0 1-.028 1.717l-.025-.146C71.547 13.25 61.812 3.935 50.547 5.933 39.372 7.909 20.434 19.964 19.005 21.652c-.686.811-.902 1.789-.591 2.685.437 1.259 1.816 2.184 3.884 2.606 5.841 1.184 13.021 5.054 17.902 9.585-11.507-6.295-22.967-5.212-28.842 3.173C4.856 48.989 0 70.886.185 73.087c.088 1.058.629 1.903 1.483 2.317.392.19.83.284 1.303.284.976 0 2.103-.401 3.29-1.184 4.681-3.096 11.887-5.341 18.275-5.795-11.653 3.93-18.313 12.482-16.601 22.143 1.984 11.177 14.053 30.074 15.742 31.496.569.478 1.219.726 1.866.726.278 0 .556-.045.826-.139 1.258-.437 2.184-1.813 2.607-3.875 1.085-5.329 4.408-11.757 8.427-16.539-5.42 10.983-4.078 21.702 3.958 27.315 9.143 6.38 30.422 11.162 33.293 11.162.054 0 .103-.002.144-.006 1.06-.09 1.905-.632 2.319-1.485.581-1.197.261-2.824-.901-4.581-1.936-2.92-3.537-6.818-4.58-10.883 1.103 1.828 2.346 3.48 3.733 4.879 3.614 3.646 7.855 5.523 12.408 5.523.997 0 2.008-.09 3.03-.271 11.185-1.982 30.113-14.035 31.54-15.722.685-.812.9-1.79.588-2.685-.437-1.258-1.816-2.182-3.883-2.604-4.443-.902-9.653-3.36-14.042-6.476 3.725 1.581 7.478 2.439 10.995 2.457l.121.001c6.205 0 11.222-2.484 14.515-7.188 6.502-9.296 11.355-31.185 11.169-33.386zm-25.271-45.589c.315-1.536.88-2.24 1.304-2.387.223-.076.469 0 .734.224 1.256 1.128 13.15 19.527 15.067 30.32 1.788 10.064-6.858 18.847-21.023 21.36-.487.086-.965.155-1.448.232.21-3.157.041-6.36-.525-9.555-1.148-6.478-3.833-12.433-7.793-17.46.302-.411.603-.822.901-1.243a102.03 102.03 0 0 0 1.724-1.661c5.26-5.19 9.704-13.161 11.059-19.83zM78.318 106.9c-9.856 1.741-19.801-.451-28.007-6.177-8.205-5.726-13.686-14.299-15.433-24.141-1.747-9.842.449-19.773 6.182-27.963 5.734-8.194 14.319-13.667 24.176-15.411 2.208-.39 4.42-.584 6.616-.584 7.608 0 15.025 2.318 21.393 6.765 8.205 5.722 13.685 14.293 15.429 24.136 1.745 9.841-.452 19.774-6.187 27.971-5.731 8.191-14.314 13.661-24.169 15.404zM70.095 5.164c-.867-1.31-.956-2.225-.769-2.609.102-.21.331-.33.677-.359a.813.813 0 0 1 .053-.002c2.038 0 23.159 4.584 32.073 10.803 8.391 5.855 8.497 18.17.26 29.948-.046.066-.094.129-.141.195-.294.276-.586.544-.878.812a39.681 39.681 0 0 0-6.978-6.204c-5.483-3.829-11.706-6.154-18.175-6.877.056-1.259.093-2.555.101-3.876.043-7.382-2.459-16.156-6.223-21.831zm4.123 25.537c-.074-.005-.149-.006-.223-.01l.225-.035-.002.045zm-53.911-7.02c-.076-.22 0-.469.225-.734C21.665 21.694 40.1 9.814 50.897 7.903c10.094-1.782 18.882 6.854 21.39 21.001.103.579.197 1.154.288 1.727a40.003 40.003 0 0 0-7.69.606c-6.987 1.237-13.363 4.259-18.631 8.73a99.364 99.364 0 0 0-3.693-3.942c-5.199-5.251-13.181-9.688-19.863-11.043-1.54-.315-2.25-.897-2.391-1.301zM5.154 72.835c-1.309.863-2.225.956-2.611.768-.21-.101-.332-.331-.36-.678C2.096 71.239 6.719 49.822 13 40.849c5.871-8.382 18.206-8.485 29.997-.252.483.335.956.676 1.426 1.017a39.779 39.779 0 0 0-5.005 5.857c-4.066 5.808-6.435 12.447-6.993 19.328a99.044 99.044 0 0 0-5.404-.179c-7.349-.019-16.182 2.455-21.867 6.215zm21.858 45.825c-.315 1.534-.878 2.238-1.301 2.385-.223.078-.473-.001-.739-.225-1.256-1.129-13.148-19.531-15.064-30.317-1.784-10.07 6.864-18.853 21.029-21.361.458-.081.915-.155 1.371-.229-.072 2.657.121 5.34.596 8.018 1.236 6.961 4.252 13.315 8.712 18.568a99.285 99.285 0 0 0-3.543 3.332c-5.256 5.178-9.701 13.148-11.061 19.829zm47.531 17.369c.866 1.307.965 2.204.77 2.606-.102.211-.333.333-.682.363a.754.754 0 0 1-.052.002c-2.034 0-23.161-4.589-32.069-10.804-8.392-5.861-8.498-18.178-.256-29.952.267-.38.537-.756.807-1.13a39.873 39.873 0 0 0 6.1 5.249c5.306 3.701 11.302 5.996 17.541 6.796.121.795.245 1.591.388 2.395.328 1.848.776 3.63 1.324 5.335.476 6.731 2.81 14.133 6.129 19.14zm46.5-19.606c.076.221 0 .469-.225.735-1.13 1.253-19.556 13.131-30.361 15.046-5.016.884-9.743-.733-13.664-4.689-2.75-2.775-4.936-6.585-6.39-11.008a31.987 31.987 0 0 1-.076-2.294c.011-1.633.06-3.229.142-4.752.41.013.82.024 1.231.024a39.92 39.92 0 0 0 6.968-.615c6.373-1.126 12.237-3.739 17.216-7.581.253.187.514.371.771.557.693.744 1.404 1.489 2.139 2.233 5.194 5.25 13.175 9.688 19.858 11.045 1.538.313 2.243.877 2.391 1.299zm7.956-15.612c-2.92 4.172-7.4 6.329-12.984 6.332-5.4-.028-11.444-2.185-17.015-6.074-.34-.238-.666-.481-1-.721-.14-.15-.272-.299-.409-.448a39.666 39.666 0 0 0 6.539-7.258c3.746-5.354 6.056-11.413 6.835-17.716 1.307.06 2.641.103 4.011.112l.191.001c7.35 0 16.036-2.486 21.673-6.213 1.309-.864 2.209-.962 2.61-.769.211.103.333.332.362.678.088 1.685-4.532 23.097-10.813 32.076z"/></svg>