<svg xmlns="http://www.w3.org/2000/svg" width="72.869" height="61.002" viewBox="277.495 128.022 72.869 61.002"><linearGradient id="a" gradientUnits="userSpaceOnUse" x1="70.648" y1="165.182" x2="123.761" y2="97.2" gradientTransform="matrix(1 0 0 -1 214.4 289.663)"><stop offset="0" stop-color="#0c90c2"/><stop offset="1" stop-color="#2dd2ab"/></linearGradient><path d="M343.941 187.947l-1.834-.807c7.761-17.496 8.324-37.81 1.545-55.736l1.875-.704c6.963 18.411 6.385 39.276-1.586 57.247zm-9.987-7.031c6.027-13.588 6.464-29.365 1.2-43.287l1.875-.704c5.449 14.407 4.996 30.736-1.241 44.799l-1.834-.808zm-8.214-5.687c4.444-10.018 4.766-21.649.884-31.914l1.875-.704c4.066 10.75 3.729 22.933-.925 33.426l-1.834-.808zm-8.192-5.889c2.804-6.32 3.009-13.659.56-20.137l1.875-.704c2.633 6.963 2.414 14.854-.601 21.648l-1.834-.807zm-12.527 19.684h-22.915c-2.543 0-4.611-2.061-4.611-4.594v-51.815c0-2.533 2.068-4.593 4.611-4.593h22.915c2.542 0 4.61 2.061 4.61 4.593v51.815c0 2.533-2.068 4.594-4.61 4.594zm2.605-56.409a2.603 2.603 0 0 0-2.605-2.596h-22.915a2.604 2.604 0 0 0-2.607 2.596v1.549h28.127v-1.549zm0 3.546H279.5v42.792h28.127v-42.792h-.001zm0 44.789H279.5v3.48a2.605 2.605 0 0 0 2.607 2.597h22.915a2.604 2.604 0 0 0 2.605-2.597v-3.48h-.001zm-14.091 5.047a2.027 2.027 0 0 1-2.03-2.024c0-1.121.909-2.025 2.03-2.025 1.124 0 2.033.904 2.033 2.025a2.029 2.029 0 0 1-2.033 2.024zm-4.29-54.921c.531 0 .962.431.962.959a.962.962 0 0 1-1.925 0c0-.528.432-.959.963-.959zm7.41 1.945h-4.781v-1.997h4.781v1.997z" fill="url(#a)"/></svg>