<svg xmlns="http://www.w3.org/2000/svg" width="23" height="23"><path fill-rule="evenodd" fill="#BBB" d="M11.024 22.85c-6.066 0-11-4.935-11-11.002 0-6.067 4.934-11.002 11-11.002 1.018 0 2.029.139 3.002.415a.5.5 0 1 1-.271.962 10.056 10.056 0 0 0-2.731-.377c-5.514 0-10 4.487-10 10.002 0 5.515 4.486 10.002 10 10.002 5.513 0 9.999-4.487 9.999-10.002 0-2.563-.968-5-2.725-6.864a.5.5 0 1 1 .726-.686 10.96 10.96 0 0 1 2.999 7.55c0 6.067-4.934 11.002-10.999 11.002zm2.016-12.312c.246.378.393.826.393 1.31a2.412 2.412 0 0 1-2.409 2.41 2.413 2.413 0 0 1-2.41-2.41c0-.484.147-.932.393-1.31L6.852 8.383a.5.5 0 0 1 .707-.708l2.155 2.156a2.39 2.39 0 0 1 1.31-.393c.483 0 .931.147 1.309.393l4.064-4.065a.5.5 0 0 1 .707.708l-4.064 4.064zm-2.016-.099a1.41 1.41 0 0 0 0 2.819 1.41 1.41 0 0 0 0-2.819z"/></svg>