<svg xmlns="http://www.w3.org/2000/svg" width="71" height="54" viewBox="0 0 71 54"><defs><linearGradient id="a" x1="0%" x2="61.566%" y1="0%" y2="78.801%"><stop offset="0%" stop-color="#00ADEF"/><stop offset="39%" stop-color="#19CDD7"/><stop offset="100%" stop-color="#31ECBE"/></linearGradient></defs><path fill-rule="evenodd" fill="#F54F4F" d="M69.67 9.451a.995.995 0 0 0-1.702-.359l-5.52 6.412-6.232-.889-1.692-5.567 5.755-6.686a1.01 1.01 0 0 0 .185-.999 1.002 1.002 0 0 0-.776-.65c-4.364-.718-8.688.852-11.57 4.202-3.018 3.505-3.889 8.297-2.334 12.643L34.158 31.107l-1.187-.492c-2.146-.889-3.194-2.916-3.121-4.457.016-.353.124-1.194.811-1.404.16-.048.739-.038 1.162-.031 1.516.029 3.592.067 4.692-1.234.732-.869 1.016-2.222.72-3.45-.298-1.239-1.13-2.197-2.343-2.7-1.742-.723-14.722-.613-16.457-.052-1.335.431-7.534 3.025-9.001 3.64l-3.907-1.391a.837.837 0 0 0-.61.016.854.854 0 0 0-.472.505.855.855 0 0 0 .516 1.091l4.215 1.503a.837.837 0 0 0 .609-.018c.06-.025 7.749-3.258 9.167-3.716 1.255-.406 13.908-.568 15.295.004.894.37 1.222 1.032 1.339 1.522.194.805-.052 1.569-.363 1.936-.58.687-2.258.655-3.367.634-.711-.014-1.272-.024-1.689.104-1.192.363-1.941 1.471-2.012 2.959-.099 2.075 1.166 4.875 4.17 6.122l11.601 4.81c.02.021.029.048.051.067a.987.987 0 0 0 .653.247c.012 0 .023-.008.034-.008l.742.308c.619.257 1.707.527 2.449 1.408.512.611 1.047 1.153.489 2.521-.121.298-.266.383-.383.435-.708.286-2.194-.381-3.177-.822-.25-.112-.486-.217-.698-.305l-.765-.317c-.054-.025-.108-.055-.162-.077L32.54 36.061c-.015-.006-.03-.004-.045-.009l-1.49-.618a.847.847 0 0 0-1.107.466.858.858 0 0 0 .462 1.116l12.287 5.096c.917.464 2.506 2.083 1.731 3.983-.085.21-.179.248-.223.266-.512.206-1.728-.339-2.455-.666-.206-.091-.397-.179-.569-.248l-2.65-1.109c-.106-.057-.21-.126-.316-.169l-7.949-3.289-2.141-.895c-.014-.006-.028-.003-.042-.009l-.827-.342a.846.846 0 0 0-1.106.465.855.855 0 0 0 .462 1.116c.752.313 1.883.781 3.133 1.299l8.109 3.393c.351.223.768.605 1.062 1.098.416.696.483 1.401.201 2.092-.056.136-.106.154-.128.164-.397.162-1.461-.316-2.032-.572-.178-.079-.345-.154-.498-.217L24.44 43.557l-.007-.001a38.381 38.381 0 0 0-.18-.074.847.847 0 0 0-1.106.465.856.856 0 0 0 .462 1.116l.192.08.003.001c2.462 1.022 9.154 3.787 9.153 3.786.226.094.665.437.944.994.307.612.325 1.257.056 1.918-.022.056-.083.16-.123.175-.281.113-1.089-.254-1.476-.431-.148-.066-.285-.129-.412-.182l-13.712-5.638C9.467 41.717 6.805 33.688 6.779 33.609a.846.846 0 0 0-.443-.512l-5.081-2.428c-.568-.272-.957.011-1.116.474-.159.464.027.888.428 1.08l4.723 2.266c.628 1.689 3.681 8.732 11.938 12.681.041.026.073.061.119.08l13.955 5.738c.111.045.23.1.359.159.781.355 1.851.839 2.8.459.328-.133.788-.435 1.065-1.113.328-.806.39-1.651.202-2.454l.038.015c.138.057.289.126.451.198 1.021.458 2.29 1.027 3.353.598a1.96 1.96 0 0 0 1.067-1.102 3.896 3.896 0 0 0 .118-2.601l.255.111c1.157.52 2.599 1.166 3.777.691.522-.209.925-.629 1.16-1.202.47-1.155.398-2.282.026-3.268.903.285 1.821.418 2.62.095.6-.238 1.053-.715 1.32-1.372.645-1.58.415-2.224-.504-3.765-.808-1.355-2.383-1.995-3.258-2.356l8.936-10.38c4.481.943 9.065-.601 12.083-4.108 2.884-3.35 3.818-7.888 2.5-12.142zm-4.003 10.826a10.51 10.51 0 0 1-10.689 3.337.987.987 0 0 0-1.001.314l-9.769 11.348-8.108-3.363 11.582-13.498a1.01 1.01 0 0 0 .166-1.043c-1.562-3.787-.882-8.055 1.774-11.141a10.496 10.496 0 0 1 7.857-3.679l-4.82 5.6a1.006 1.006 0 0 0-.2.952l2.038 6.71c.113.373.43.645.813.7l7.395 1.056a.995.995 0 0 0 .891-.337l4.579-5.318a10.683 10.683 0 0 1-2.508 8.362z"/><path fill="url(#a)" d="M69.67 9.451a.995.995 0 0 0-1.702-.359l-5.52 6.412-6.232-.889-1.692-5.567 5.755-6.686a1.01 1.01 0 0 0 .185-.999 1.002 1.002 0 0 0-.776-.65c-4.364-.718-8.688.852-11.57 4.202-3.018 3.505-3.889 8.297-2.334 12.643L34.158 31.107l-1.187-.492c-2.146-.889-3.194-2.916-3.121-4.457.016-.353.124-1.194.811-1.404.16-.048.739-.038 1.162-.031 1.516.029 3.592.067 4.692-1.234.732-.869 1.016-2.222.72-3.45-.298-1.239-1.13-2.197-2.343-2.7-1.742-.723-14.722-.613-16.457-.052-1.335.431-7.534 3.025-9.001 3.64l-3.907-1.391a.837.837 0 0 0-.61.016.854.854 0 0 0-.472.505.855.855 0 0 0 .516 1.091l4.215 1.503a.837.837 0 0 0 .609-.018c.06-.025 7.749-3.258 9.167-3.716 1.255-.406 13.908-.568 15.295.004.894.37 1.222 1.032 1.339 1.522.194.805-.052 1.569-.363 1.936-.58.687-2.258.655-3.367.634-.711-.014-1.272-.024-1.689.104-1.192.363-1.941 1.471-2.012 2.959-.099 2.075 1.166 4.875 4.17 6.122l11.601 4.81c.02.021.029.048.051.067a.987.987 0 0 0 .653.247c.012 0 .023-.008.034-.008l.742.308c.619.257 1.707.527 2.449 1.408.512.611 1.047 1.153.489 2.521-.121.298-.266.383-.383.435-.708.286-2.194-.381-3.177-.822-.25-.112-.486-.217-.698-.305l-.765-.317c-.054-.025-.108-.055-.162-.077L32.54 36.061c-.015-.006-.03-.004-.045-.009l-1.49-.618a.847.847 0 0 0-1.107.466.858.858 0 0 0 .462 1.116l12.287 5.096c.917.464 2.506 2.083 1.731 3.983-.085.21-.179.248-.223.266-.512.206-1.728-.339-2.455-.666-.206-.091-.397-.179-.569-.248l-2.65-1.109c-.106-.057-.21-.126-.316-.169l-7.949-3.289-2.141-.895c-.014-.006-.028-.003-.042-.009l-.827-.342a.846.846 0 0 0-1.106.465.855.855 0 0 0 .462 1.116c.752.313 1.883.781 3.133 1.299l8.109 3.393c.351.223.768.605 1.062 1.098.416.696.483 1.401.201 2.092-.056.136-.106.154-.128.164-.397.162-1.461-.316-2.032-.572-.178-.079-.345-.154-.498-.217L24.44 43.557l-.007-.001a38.381 38.381 0 0 0-.18-.074.847.847 0 0 0-1.106.465.856.856 0 0 0 .462 1.116l.192.08.003.001c2.462 1.022 9.154 3.787 9.153 3.786.226.094.665.437.944.994.307.612.325 1.257.056 1.918-.022.056-.083.16-.123.175-.281.113-1.089-.254-1.476-.431-.148-.066-.285-.129-.412-.182l-13.712-5.638C9.467 41.717 6.805 33.688 6.779 33.609a.846.846 0 0 0-.443-.512l-5.081-2.428c-.568-.272-.957.011-1.116.474-.159.464.027.888.428 1.08l4.723 2.266c.628 1.689 3.681 8.732 11.938 12.681.041.026.073.061.119.08l13.955 5.738c.111.045.23.1.359.159.781.355 1.851.839 2.8.459.328-.133.788-.435 1.065-1.113.328-.806.39-1.651.202-2.454l.038.015c.138.057.289.126.451.198 1.021.458 2.29 1.027 3.353.598a1.96 1.96 0 0 0 1.067-1.102 3.896 3.896 0 0 0 .118-2.601l.255.111c1.157.52 2.599 1.166 3.777.691.522-.209.925-.629 1.16-1.202.47-1.155.398-2.282.026-3.268.903.285 1.821.418 2.62.095.6-.238 1.053-.715 1.32-1.372.645-1.58.415-2.224-.504-3.765-.808-1.355-2.383-1.995-3.258-2.356l8.936-10.38c4.481.943 9.065-.601 12.083-4.108 2.884-3.35 3.818-7.888 2.5-12.142zm-4.003 10.826a10.51 10.51 0 0 1-10.689 3.337.987.987 0 0 0-1.001.314l-9.769 11.348-8.108-3.363 11.582-13.498a1.01 1.01 0 0 0 .166-1.043c-1.562-3.787-.882-8.055 1.774-11.141a10.496 10.496 0 0 1 7.857-3.679l-4.82 5.6a1.006 1.006 0 0 0-.2.952l2.038 6.71c.113.373.43.645.813.7l7.395 1.056a.995.995 0 0 0 .891-.337l4.579-5.318a10.683 10.683 0 0 1-2.508 8.362z"/></svg>