<svg xmlns="http://www.w3.org/2000/svg" width="130.757" height="49.649" viewBox="0 0 130.757 49.649"><path fill="#009FE3" d="M85.013 17.626h-5.954l-3.737 14.316h5.948zM93.629 32.183c1.333 0 2.936-.119 4.924-.563l.971-3.833c-1.791.527-2.937.591-3.482.591-2.205 0-3.879-.878-3.844-2.756.034-2.302 2.173-4.521 5.625-4.521.981 0 2.192.165 3.24.553l.946-3.774-.359-.057a24.632 24.632 0 0 0-4.336-.391c-7.895 0-11.81 4.673-11.89 8.968-.064 4.012 3.767 5.783 8.205 5.783zM3.811 46.792c-1.417-1.794-1.789-7.817 4.586-16.98C.673 40.054 1.854 45.677 3.375 47.564c3.258 4.032 12.465 2.014 22.661-4.307h-.189c-9.777 5.995-18.741 7.7-22.036 3.535zM49.388 17.626h-8.891l-3.74 14.315h9.605c5.022 0 8.501-1.736 9.803-6.715 1.202-4.582-1.611-7.6-6.777-7.6zm1.05 7.107c-.624 2.392-2.037 4.147-4.713 4.147h-2.079l2.1-8.034h2.146c2.436 0 3.115 1.729 2.546 3.887zM50.415 7.245c1.623 1.881 1.854 4.75.915 8.18 1.755-4.215 1.926-7.729.12-9.821-3.437-3.984-13.007-1.651-23.444 5.079 9.927-5.831 18.911-7.495 22.409-3.438z"/><path fill="none" d="M62.64 26.077h3.624l-.795-4.532z"/><path fill="#009FE3" d="M70.874 17.626h-7.323l-8.123 14.315h3.97l1.564-2.566 5.683-.036.702 2.603h6.08l-2.553-14.316zm-8.234 8.451l2.829-4.532.795 4.532H62.64zM108.681 26.678h4.709l-1.372 5.264h5.954l3.739-14.316h-5.948l-1.304 4.985h-4.716l1.3-4.985H105.1l-3.747 14.316h5.948zM124.805 17.626l-3.737 14.316h5.95l3.739-14.316z"/><g><path d="M33.271 35.136S21.364 17.311 25.904 0c0 0-3.377 7.327-7.294 11.746-.001 0 .993 12.894 14.661 23.39"/><path fill="#86D0F4" d="M26.94 30.416c-7.06-7.772-8.697-15.465-9.048-17.864-4.14 4.569-10.009 8.98-17.892 10.47 0 0 13.048-1.376 26.94 7.394"/></g></svg>