<svg xmlns="http://www.w3.org/2000/svg" width="130.757" height="49.648" viewBox="0 0 130.757 49.648" overflow="visible"><path fill="#FFF" d="M85.013 17.626h-5.954l-3.737 14.316h5.948zM93.628 32.183c1.334 0 2.937-.119 4.925-.563l.971-3.833c-1.791.526-2.937.591-3.481.591-2.205 0-3.879-.878-3.844-2.756.033-2.303 2.172-4.521 5.625-4.521.98 0 2.191.165 3.239.553l.946-3.773-.359-.057a24.509 24.509 0 0 0-4.336-.392c-7.895 0-11.811 4.673-11.891 8.968-.063 4.012 3.768 5.783 8.205 5.783zM3.811 46.792c-1.417-1.794-1.789-7.816 4.586-16.979C.673 40.054 1.854 45.677 3.375 47.564c3.258 4.032 12.465 2.015 22.661-4.308h-.189c-9.777 5.996-18.741 7.701-22.036 3.536zM49.388 17.626h-8.891l-3.74 14.314h9.605c5.022 0 8.501-1.735 9.803-6.715 1.202-4.581-1.611-7.599-6.777-7.599zm1.05 7.107c-.624 2.393-2.037 4.146-4.713 4.146h-2.079l2.1-8.033h2.146c2.436 0 3.115 1.729 2.546 3.887zM50.415 7.245c1.623 1.881 1.854 4.75.915 8.18 1.755-4.215 1.926-7.729.12-9.82-3.437-3.983-13.007-1.65-23.444 5.079 9.927-5.832 18.911-7.496 22.409-3.439zM70.875 17.626h-7.324L55.428 31.94h3.97l1.564-2.565 5.683-.036.702 2.604h6.08l-2.552-14.317zm-8.235 8.451l2.829-4.532.795 4.532H62.64zM108.681 26.677h4.709l-1.372 5.265h5.954l3.738-14.316h-5.947l-1.305 4.985h-4.714l1.298-4.985H105.1l-3.747 14.316h5.947zM124.805 17.626l-3.737 14.316h5.95l3.739-14.316z"/><g fill="#FFF"><path d="M33.271 35.135S21.364 17.311 25.904-.001c0 0-3.377 7.327-7.294 11.746-.001.001.993 12.895 14.661 23.39"/><path d="M26.94 30.416c-7.06-7.771-8.697-15.465-9.048-17.864-4.14 4.569-10.009 8.98-17.892 10.47 0 0 13.048-1.376 26.94 7.394"/></g></svg>