<svg id="Layer_1" data-name="Layer 1" xmlns="http://www.w3.org/2000/svg" viewBox="0 0 84.2 89.94"><defs><style>.cls-1{fill:#dddddc}.cls-2{fill:#686969}.cls-3{fill:#878787}</style></defs><title>Монтажная область 4ahu</title><path class="cls-1" d="M83.85 84.07h-61v-61h61zm-58-3h55v-55h-55z"/><path class="cls-2" d="M84 84.2H22.73V22.95H84zm-61-.25h60.73V23.2H23zm58-2.75H25.73V25.95H81zm-55-.25h54.73V26.2H26z"/><path class="cls-3" d="M22.75 3.16h.2v18.08h-.2zM84 3.16h.2v18.08H84z"/><path class="cls-3" d="M22.81 5.72h61.21v.2H22.81z"/><path class="cls-3" d="M22.78 5.83l.85-.5.86-.49v1.99l-.86-.5-.85-.5zM84.1 5.83l-.86.5-.85.5V4.84l.85.49.86.5zM26 12.32h.2v8.94H26zM80.86 12.32h.2v8.94h-.2z"/><path class="cls-3" d="M26.06 14.89h54.81v.2H26.06z"/><path class="cls-3" d="M26.04 15l.86-.5.85-.5v1.99l-.85-.49-.86-.5zM81.04 15l-.85.5-.86.49V14l.86.5.85.5zM53.11 3.39V0h1.4a1.28 1.28 0 0 1 .8.23.74.74 0 0 1 .3.62.88.88 0 0 1 0 .3.7.7 0 0 1-.14.23 1.05 1.05 0 0 1-.18.16l-.29.11q.77.2.77.82a.8.8 0 0 1-.33.67 1.43 1.43 0 0 1-.88.25zm.25-1.83h1.12a1 1 0 0 0 .63-.18.62.62 0 0 0 .24-.52.54.54 0 0 0-.22-.46 1 1 0 0 0-.62-.17h-1.14zm0 1.59h1.24a1.15 1.15 0 0 0 .69-.15.6.6 0 0 0 .26-.51.55.55 0 0 0-.27-.49 1.41 1.41 0 0 0-.77-.17h-1.14zM43.88 13.14V9.75h1.4a1.28 1.28 0 0 1 .8.23.74.74 0 0 1 .3.62.88.88 0 0 1 0 .3.7.7 0 0 1-.14.23 1.05 1.05 0 0 1-.18.16l-.21.11q.77.2.77.82a.8.8 0 0 1-.33.67 1.43 1.43 0 0 1-.88.25zm.25-1.83h1.12a1 1 0 0 0 .63-.18.62.62 0 0 0 .24-.52.54.54 0 0 0-.22-.45 1 1 0 0 0-.62-.17h-1.15zm0 1.59h1.23a1.15 1.15 0 0 0 .69-.19.6.6 0 0 0 .26-.51.55.55 0 0 0-.27-.49 1.41 1.41 0 0 0-.77-.17h-1.14zM47.21 11.84v-.26h1.3v.26zM48.85 10l.78-.29h.19v3.42h-.24V10l-.66.22zM50.64 11.45a2.19 2.19 0 0 1 .1-.67 1.87 1.87 0 0 1 .28-.56 1.33 1.33 0 0 1 .45-.38 1.27 1.27 0 0 1 1.16 0 1.3 1.3 0 0 1 .44.38 1.88 1.88 0 0 1 .28.56 2.24 2.24 0 0 1 .1.67 2.19 2.19 0 0 1-.1.67 1.88 1.88 0 0 1-.28.56 1.32 1.32 0 0 1-.45.38 1.26 1.26 0 0 1-1.16 0 1.32 1.32 0 0 1-.44-.38 1.88 1.88 0 0 1-.28-.56 2.24 2.24 0 0 1-.1-.67zm.26 0a2 2 0 0 0 .1.55 1.75 1.75 0 0 0 .23.49 1.12 1.12 0 0 0 .36.34.94.94 0 0 0 .95 0 1.1 1.1 0 0 0 .36-.34 1.72 1.72 0 0 0 .22-.49 2.07 2.07 0 0 0 0-1.14 1.72 1.72 0 0 0-.23-.49 1.12 1.12 0 0 0-.36-.34.95.95 0 0 0-.86 0 1 1 0 0 0-.32.23 1.51 1.51 0 0 0-.23.34 1.74 1.74 0 0 0-.12.4 2.15 2.15 0 0 0-.1.45zM54.08 11.45a2.22 2.22 0 0 1 .1-.67 1.87 1.87 0 0 1 .28-.56 1.34 1.34 0 0 1 .45-.38 1.27 1.27 0 0 1 1.16 0 1.29 1.29 0 0 1 .44.38 1.88 1.88 0 0 1 .28.56 2.3 2.3 0 0 1 0 1.34 1.88 1.88 0 0 1-.28.56 1.33 1.33 0 0 1-.45.38 1.26 1.26 0 0 1-1.16 0 1.31 1.31 0 0 1-.44-.38 1.88 1.88 0 0 1-.28-.56 2.24 2.24 0 0 1-.1-.67zm.26 0a2 2 0 0 0 .08.57 1.72 1.72 0 0 0 .23.49 1.11 1.11 0 0 0 .36.34.94.94 0 0 0 .95 0 1.09 1.09 0 0 0 .36-.34 1.72 1.72 0 0 0 .22-.49 2 2 0 0 0 .08-.57 2 2 0 0 0-.08-.57 1.7 1.7 0 0 0-.23-.49A1.11 1.11 0 0 0 56 10a.92.92 0 0 0-.47-.13.94.94 0 0 0-.39.08 1 1 0 0 0-.32.23 1.51 1.51 0 0 0-.23.34 1.7 1.7 0 0 0-.15.42 2.15 2.15 0 0 0-.1.51zM59.11 13.14v-2.47h.22l1 1.42 1-1.42h.21v2.47h-.24v-2.06l-1 1.37-1-1.37v2.06zM62.45 13.14v-2.47h.22l1 1.42 1-1.42h.21v2.47h-.24v-2.06l-1 1.37-1-1.37v2.06zM3.16 84.31h18.08v.2H3.16zM3.16 23.06h18.08v.2H3.16z"/><path class="cls-3" d="M5.72 23.24h.2v61.21h-.2z"/><path class="cls-3" d="M5.83 84.41l-.5-.85-.49-.86h1.99l-.5.86-.5.85zM5.83 23.14l.5.86.5.85H4.84l.49-.85.5-.86zM12.32 81.06h8.94v.2h-8.94zM12.32 26.2h8.94v.2h-8.94z"/><path class="cls-3" d="M14.89 26.39h.2V81.2h-.2z"/><path class="cls-3" d="M15 81.1l-.5-.85-.5-.86h1.99l-.49.86-.5.85zM15 26.25l.5.85.49.85H14l.5-.85.5-.85zM3.39 54.15H0v-.25h1.57v-2.18H0v-.25h3.39v.25H1.8v2.17h1.59zM13.14 63.38H9.75v-.25h1.57V61H9.75v-.25h3.39V61h-1.59v2.17h1.59zM11.84 59.87h-.26v-1.3h.26zM10 58.23l-.29-.78v-.19h3.42v.24H10l.22.66zM11.45 56.44a2.19 2.19 0 0 1-.67-.1 1.85 1.85 0 0 1-.56-.28 1.33 1.33 0 0 1-.38-.45 1.27 1.27 0 0 1 0-1.16 1.31 1.31 0 0 1 .38-.44 1.9 1.9 0 0 1 .56-.28 2.3 2.3 0 0 1 1.34 0 1.88 1.88 0 0 1 .56.28 1.32 1.32 0 0 1 .38.45 1.26 1.26 0 0 1 0 1.16 1.31 1.31 0 0 1-.38.44 1.88 1.88 0 0 1-.56.28 2.24 2.24 0 0 1-.67.1zm0-.26a2 2 0 0 0 .57-.08 1.72 1.72 0 0 0 .49-.23 1.12 1.12 0 0 0 .34-.36.94.94 0 0 0 0-.95 1.08 1.08 0 0 0-.34-.36A1.75 1.75 0 0 0 12 54a2.07 2.07 0 0 0-.57-.08 2 2 0 0 0-.57.08 1.72 1.72 0 0 0-.49.23 1.12 1.12 0 0 0-.34.37.95.95 0 0 0 0 .86 1 1 0 0 0 .23.32 1.51 1.51 0 0 0 .34.23 1.74 1.74 0 0 0 .42.15 2.15 2.15 0 0 0 .43.01zM11.45 53a2.22 2.22 0 0 1-.67-.1 1.87 1.87 0 0 1-.56-.28 1.33 1.33 0 0 1-.38-.45 1.27 1.27 0 0 1 0-1.16 1.29 1.29 0 0 1 .38-.44 1.88 1.88 0 0 1 .56-.28 2.24 2.24 0 0 1 .67-.1 2.19 2.19 0 0 1 .67.1 1.85 1.85 0 0 1 .56.28 1.32 1.32 0 0 1 .38.45 1.26 1.26 0 0 1 0 1.16 1.33 1.33 0 0 1-.38.44 1.9 1.9 0 0 1-.56.28 2.24 2.24 0 0 1-.67.1zm0-.26a2 2 0 0 0 .57-.08 1.75 1.75 0 0 0 .49-.23 1.13 1.13 0 0 0 .34-.37.92.92 0 0 0 .13-.47.93.93 0 0 0-.13-.47 1.09 1.09 0 0 0-.34-.36 1.72 1.72 0 0 0-.49-.22 2.07 2.07 0 0 0-1.14 0 1.7 1.7 0 0 0-.49.23 1.12 1.12 0 0 0-.34.36.92.92 0 0 0-.13.47.93.93 0 0 0 .08.4 1 1 0 0 0 .23.32 1.51 1.51 0 0 0 .34.23 1.7 1.7 0 0 0 .42.15 2.15 2.15 0 0 0 .46.03zM13.14 48h-2.47v-.22l1.42-1-1.42-1v-.21h2.47v.24h-2.06l1.37 1-1.37 1h2.06zM13.14 44.62h-2.47v-.22l1.42-1-1.42-1v-.21h2.47v.24h-2.06l1.37 1-1.37 1h2.06z"/><path class="cls-2" d="M25.73 84.03h.25v5.79h-.25zM80.85 84.03h.25v5.79h-.25z"/><path class="cls-2" d="M22.83 89.69h61.19v.25H22.83zM29.06 88.39A1.42 1.42 0 1 1 30.48 87a1.42 1.42 0 0 1-1.42 1.39zm0-2.58A1.17 1.17 0 1 0 30.23 87a1.17 1.17 0 0 0-1.17-1.19zM77.81 88.39A1.42 1.42 0 1 1 79.23 87a1.42 1.42 0 0 1-1.42 1.39zm0-2.58A1.17 1.17 0 1 0 79 87a1.17 1.17 0 0 0-1.19-1.19z"/></svg>