<svg xmlns="http://www.w3.org/2000/svg" width="59" height="48" viewBox="0 0 59 48"><defs><linearGradient id="a" gradientUnits="userSpaceOnUse" y1="31.003" x2="60.992" y2="31.003"><stop offset="0" stop-color="#008abf"/><stop offset=".374" stop-color="#15a5af"/><stop offset=".748" stop-color="#24b9a3"/><stop offset="1" stop-color="#2ac09f"/></linearGradient></defs><path fill="url(#a)" d="M57.411 25.385H45.589A1.591 1.591 0 0 1 44 23.796v-9.078c0-2.045 1.671-3.709 3.726-3.709h7.548c2.055 0 3.726 1.664 3.726 3.709v9.078c0 .876-.713 1.589-1.589 1.589zM57 14.718c0-.943-.774-1.709-1.726-1.709h-7.548c-.952 0-1.726.766-1.726 1.709v8.667h11v-8.667zM51.5 9A4.505 4.505 0 0 1 47 4.5C47 2.019 49.019 0 51.5 0S56 2.019 56 4.5 53.981 9 51.5 9zm0-7A2.502 2.502 0 0 0 49 4.5C49 5.879 50.121 7 51.5 7S54 5.879 54 4.5 52.879 2 51.5 2zM51 37v-8a1 1 0 1 1 2 0v9a1 1 0 0 1-1 1h-8a1 1 0 1 1 0-2h7zM39.049 48H19.951A1.953 1.953 0 0 1 18 46.049V31.384c0-2.964 2.424-5.375 5.403-5.375h12.194c2.979 0 5.403 2.411 5.403 5.375v14.665A1.953 1.953 0 0 1 39.049 48zM39 31.384c0-1.862-1.526-3.375-3.403-3.375H23.403c-1.877 0-3.403 1.513-3.403 3.375v14.665L39.049 46 39 31.384zM29 24c-3.859 0-7-3.141-7-7s3.141-7 7-7 7 3.141 7 7-3.141 7-7 7zm0-12c-2.757 0-5 2.243-5 5s2.243 5 5 5 5-2.243 5-5-2.243-5-5-5zM15 39H7a1 1 0 0 1-1-1v-9a1 1 0 1 1 2 0v8h7a1 1 0 1 1 0 2zm-1.589-13.615H1.589A1.591 1.591 0 0 1 0 23.796v-9.078c0-2.045 1.671-3.709 3.726-3.709h7.548c2.055 0 3.726 1.664 3.726 3.709v9.078c0 .876-.713 1.589-1.589 1.589zM13 14.718c0-.943-.774-1.709-1.726-1.709H3.726c-.952 0-1.726.766-1.726 1.709v8.667h11v-8.667zM7.5 9A4.505 4.505 0 0 1 3 4.5C3 2.019 5.019 0 7.5 0S12 2.019 12 4.5 9.981 9 7.5 9zm0-7A2.502 2.502 0 0 0 5 4.5C5 5.879 6.121 7 7.5 7S10 5.879 10 4.5 8.879 2 7.5 2z"/></svg>