<svg xmlns="http://www.w3.org/2000/svg" width="88" height="88" viewBox="0 0 88 88"><defs><linearGradient id="a" x1="0%" x2="61.566%" y1="0%" y2="78.801%"><stop offset="0%" stop-color="#00ADEF" stop-opacity=".8"/><stop offset="44%" stop-color="#1CD1DA" stop-opacity=".8"/><stop offset="100%" stop-color="#37F4C5" stop-opacity=".8"/></linearGradient></defs><path fill="url(#a)" d="M84 7.012c2.206 0 4 1.794 4 4V72c0 2.206-1.794 4-4 4H60.733l.529.528a2.923 2.923 0 0 1 0 4.127l-6.491 6.49a2.9 2.9 0 0 1-2.063.855c-.78 0-1.512-.304-2.064-.855L39.499 76H4c-2.206 0-4-1.794-4-4V11.012c0-2.206 1.794-4 4-4h60V4c0-2.206 1.794-4 4-4h20v2H68a2 2 0 0 0-2 2v3.012h1V6c0-1.654 1.346-3 3-3h15v2H70a1 1 0 0 0-1 1v1.012h15zM39.077 72.75l12.982 12.981a.915.915 0 0 0 1.298 0l6.49-6.491a.917.917 0 0 0 0-1.298L46.866 64.961c-.054-.054-.255-.077-.556-.077-1.079 0-3.437.292-5.019.506.27.684.557 1.313.852 1.86a3.798 3.798 0 0 1 2.286-.773 3.81 3.81 0 0 1 2.712 1.123 3.84 3.84 0 0 1 0 5.425 3.807 3.807 0 0 1-2.712 1.124 3.807 3.807 0 0 1-2.712-1.124 3.832 3.832 0 0 1-.876-4.039c-.49-.777-.903-1.636-1.246-2.461-.26 1.86-.794 5.948-.518 6.225zM50 62.963a26.663 26.663 0 0 0 5-4.713V24.745a26.626 26.626 0 0 0-5-4.706v42.924zm-3.209-1.761c.159.582.297 1.174.416 1.765.26.061.535.167.793.347V18.723a26.277 26.277 0 0 0-4.957-2.285v37.478c2.094 1.811 3.347 5.815 3.748 7.286zm-3.748-4.067v6.016a54.323 54.323 0 0 1 2.115-.213c-.086-.396-.185-.8-.297-1.21-.493-1.81-1.143-3.407-1.818-4.593zm2.142 14.421a2.684 2.684 0 0 1-.714.096c-.61 0-1.171-.206-1.688-.543.087.18.198.352.348.502a1.831 1.831 0 0 0 2.596 0c.15-.15.261-.321.348-.502a2.625 2.625 0 0 1-.89.447zm.194-2.808a1.835 1.835 0 0 0-.95-.271c-.417 0-.829.149-1.168.431.429.475.844.744 1.21.744a.698.698 0 0 0 .188-.025c.318-.087.558-.399.72-.879zm-4.336-5.343v-8.38c-.06-.012-.12-.025-.178-.025a.698.698 0 0 0-.188.025c-1.212.33-1.302 3.867-.202 7.899.049.182.102.36.154.538l.414-.057zm-2.304.716a24.877 24.877 0 0 1-.194-.671c-.582-2.133-.878-4.234-.835-5.915.08-3.141 1.372-4.148 2.441-4.44.231-.063.472-.095.714-.095.061 0 .118.016.178.02V15.837A26.424 26.424 0 0 0 36 15.064v52.878c.471-.027.938-.069 1.402-.12.072-.555.152-1.146.246-1.815a2.893 2.893 0 0 1 1.091-1.886zM4 9.012a2 2 0 0 0-2 2V72a2 2 0 0 0 2 2h33.504c-.455-.489-.668-1.059-.345-4.145-.88.085-1.766.145-2.668.145C18.781 70 6 57.219 6 41.509c0-15.71 12.781-28.491 28.491-28.491 9.111 0 17.232 4.305 22.451 10.982H57v.074a28.342 28.342 0 0 1 5.982 17.435c0 6.563-2.239 12.609-5.982 17.431V59h-.048a28.704 28.704 0 0 1-6.883 6.335L58.734 74H84a2 2 0 0 0 2-2V11.012a2 2 0 0 0-2-2H4zm30 58.976V15.031c-1.711.031-3.383.22-5 .561v51.835c1.617.34 3.289.529 5 .561zm-7-1.069v-50.82a26.353 26.353 0 0 0-5 2.047v46.726a26.288 26.288 0 0 0 5 2.047zm-7-3.238V19.337a26.652 26.652 0 0 0-5 4.236v35.872a26.577 26.577 0 0 0 5 4.236zm-7-6.691V26.029a26.359 26.359 0 0 0-5 15.48 26.364 26.364 0 0 0 5 15.481zm44-29.446v27.91a26.332 26.332 0 0 0 3.982-13.945c0-5.126-1.461-9.91-3.982-13.965zM79 70H65c-1.654 0-3-1.346-3-3v-2c0-1.654 1.346-3 3-3h14c1.654 0 3 1.346 3 3v2c0 1.654-1.346 3-3 3zm1-5a1 1 0 0 0-1-1H65a1 1 0 0 0-1 1v2a1 1 0 0 0 1 1h14a1 1 0 0 0 1-1v-2z"/></svg>