<svg xmlns="http://www.w3.org/2000/svg" width="68" height="53" viewBox="0 0 68 53"><defs><linearGradient id="a" gradientUnits="userSpaceOnUse" y1="31.003" x2="60.992" y2="31.003"><stop offset="0" stop-color="#008abf"/><stop offset=".374" stop-color="#15a5af"/><stop offset=".748" stop-color="#24b9a3"/><stop offset="1" stop-color="#2ac09f"/></linearGradient></defs><path fill="url(#a)" d="M67 29h-7v7a.999.999 0 0 1-1.753.658L51.546 29H42v15a1 1 0 0 1-1 1h-7v7a1.001 1.001 0 0 1-1.753.658L25.546 45H1a1 1 0 0 1-1-1V17a1 1 0 0 1 1-1h25V1a1 1 0 0 1 1-1h40a1 1 0 0 1 1 1v27a1 1 0 0 1-1 1zM2 18v25h24c.288 0 .563.124.753.342L32 49.339V44a1 1 0 0 1 1-1h7V18H2zM66 2H28v14h13a1 1 0 0 1 1 1v10h10c.288 0 .563.124.753.342L58 33.339V28a1 1 0 0 1 1-1h7V2zM48.373 15.06l-.226 2.449H46.99l-.341-3.674.114-.113c1.452-.031 2.566-.333 3.345-.907.779-.575 1.168-1.354 1.168-2.337 0-.831-.302-1.531-.907-2.098-.604-.567-1.406-.851-2.404-.851-1.528 0-2.904.711-4.128 2.133l-1.156-1.111c1.451-1.754 3.227-2.632 5.33-2.632 1.511 0 2.736.424 3.674 1.271.937.846 1.406 1.935 1.406 3.265 0 1.347-.439 2.401-1.316 3.164-.877.764-2.01 1.244-3.402 1.441zM48.6 22h-2.086v-2.382H48.6V22zM20.23 37.608a.995.995 0 0 1-.792.392h-.018a1.001 1.001 0 0 1-.796-.419l-5.438-7.612a1 1 0 0 1 1.628-1.162l4.653 6.513 11.146-14.522a1 1 0 1 1 1.586 1.217L20.23 37.608z"/></svg>