<svg xmlns="http://www.w3.org/2000/svg" width="88" height="88" viewBox="0 0 88 88"><defs><linearGradient id="a" x1="0%" x2="61.566%" y1="0%" y2="78.801%"><stop offset="0%" stop-color="#00ADEF" stop-opacity=".8"/><stop offset="44%" stop-color="#1CD1DA" stop-opacity=".8"/><stop offset="100%" stop-color="#37F4C5" stop-opacity=".8"/></linearGradient></defs><path fill="url(#a)" d="M88 84.87v.016C87.972 86.632 86.56 88 84.787 88a3.206 3.206 0 0 1-2.601-1.311l-3.371-4.556H26.544c-1.954 0-3.544-1.6-3.544-3.566V56.338H7.947l-2.025 3.959A3.133 3.133 0 0 1 3.115 62C1.396 62 .028 60.689 0 59.011V3.539C0 1.588 1.603 0 3.574 0h70.851C76.396 0 78 1.588 78 3.539V39h6.456C86.41 39 88 40.599 88 42.565V84.87zM76 3.539C76 2.689 75.295 2 74.425 2H3.574C2.705 2 2 2.689 2 3.539v55.442c.011.65.558 1.019 1.115 1.019.403 0 .811-.193 1.026-.614l2.582-5.048h67.702c.87 0 1.575-.69 1.575-1.54V3.539zm10 39.026c0-.864-.692-1.565-1.544-1.565H78v11.798c0 1.952-1.604 3.54-3.575 3.54H25v22.229c0 .865.691 1.566 1.544 1.566h53.279l3.971 5.367c.255.344.627.5.993.5.609 0 1.201-.431 1.213-1.146V42.565zM70 67H51a1 1 0 1 1 0-2h19a1 1 0 1 1 0 2zm-5.962-5H54a1 1 0 1 1 0-2h10.038a1 1 0 1 1 0 2zM50 62H32a1 1 0 1 1 0-2h18a1 1 0 1 1 0 2zm-18 3h9a1 1 0 1 1 0 2h-9a1 1 0 1 1 0-2zm0 5h4a1 1 0 1 1 0 2h-4a1 1 0 1 1 0-2zm13-3a1 1 0 1 1 0-2h2a1 1 0 1 1 0 2h-2zm-5 3h13a1 1 0 1 1 0 2H40a1 1 0 1 1 0-2zm17.006 0H59a1 1 0 1 1 0 2h-1.994a1 1 0 1 1 0-2zm8.12-42.995a8.22 8.22 0 0 1-2.225 1.326c-.836.34-1.744.569-2.725.688l-.292 4.142h-1.068l-.436-5.371.178-.162c2.178-.043 3.872-.542 5.08-1.497 1.208-.954 1.812-2.246 1.812-3.875 0-1.402-.505-2.586-1.513-3.551-1.008-.965-2.338-1.448-3.988-1.448-2.427 0-4.562 1.138-6.407 3.414l-1.181-.987c.668-.831 1.351-1.524 2.046-2.079.696-.556 1.522-1.006 2.476-1.351.955-.345 1.998-.518 3.131-.518 2.135 0 3.867.626 5.193 1.877 1.327 1.251 1.99 2.799 1.99 4.643 0 .993-.183 1.896-.55 2.71a5.661 5.661 0 0 1-1.521 2.039zm-19.984 4.86l-2.527.419A13.92 13.92 0 0 1 41.6 34.72l1.489 2.079a2.202 2.202 0 0 1-.24 2.847l-2.242 2.228c-.421.418-.977.65-1.572.65-.466 0-.917-.142-1.293-.411l-2.083-1.48c-.782.411-1.602.748-2.452 1.009l-.428 2.512A2.218 2.218 0 0 1 30.583 46h-3.174a2.218 2.218 0 0 1-2.196-1.846l-.421-2.512a14.24 14.24 0 0 1-2.376-.971l-2.113 1.494c-.376.27-.82.411-1.286.411a2.211 2.211 0 0 1-1.572-.65l-2.241-2.227a2.193 2.193 0 0 1-.241-2.848l1.482-2.048a13.882 13.882 0 0 1-1.031-2.429l-2.556-.434A2.213 2.213 0 0 1 11 29.757v-3.146c0-1.084.782-2.004 1.858-2.183l2.496-.418c.256-.845.587-1.66 1.001-2.445l-1.505-2.1a2.203 2.203 0 0 1 .241-2.848l2.249-2.228a2.2 2.2 0 0 1 1.571-.65c.467 0 .918.142 1.294.411l2.068 1.48a14.041 14.041 0 0 1 2.444-1.024l.436-2.541a2.218 2.218 0 0 1 2.196-1.846h3.166c1.09 0 2.015.777 2.196 1.846l.421 2.481c.88.262 1.73.613 2.542 1.039l2.091-1.479a2.22 2.22 0 0 1 2.858.238l2.24 2.228c.775.762.873 1.966.241 2.848l-1.489 2.07c.414.778.752 1.592 1.015 2.437l2.527.426A2.185 2.185 0 0 1 47 26.536v3.147a2.21 2.21 0 0 1-1.858 2.182zM45 26.536c.001-.119-.068-.193-.172-.21l-2.53-.427-1.212-.204-.365-1.173a12.233 12.233 0 0 0-.872-2.093l-.583-1.097.725-1.009 1.489-2.071a.19.19 0 0 0-.02-.255l-2.248-2.234a.211.211 0 0 0-.162-.069.195.195 0 0 0-.121.037l-2.099 1.487-1 .708-1.085-.57a12.3 12.3 0 0 0-2.183-.893l-1.193-.355-.209-1.227-.421-2.481a.219.219 0 0 0-.224-.181h-3.166c-.114 0-.206.073-.224.179l-.437 2.546-.207 1.208-1.17.364c-.72.224-1.424.519-2.094.877l-1.096.588-1.012-.724-2.068-1.481a.23.23 0 0 0-.13-.037.205.205 0 0 0-.148.056l-2.265 2.243a.201.201 0 0 0-.022.262l1.505 2.101.719 1.004-.576 1.093a11.822 11.822 0 0 0-.856 2.091l-.359 1.188-1.224.205-2.497.418c-.113.019-.188.103-.188.211v3.146c0 .107.075.192.187.21l2.562.435 1.206.204.367 1.167c.224.713.521 1.412.881 2.077l.599 1.106-.737 1.019-1.481 2.048a.192.192 0 0 0 .023.251l2.248 2.233a.213.213 0 0 0 .162.069.196.196 0 0 0 .122-.037l2.122-1.501.997-.705 1.082.564c.632.33 1.32.61 2.044.835l1.177.364.204 1.215.421 2.512c.017.103.109.177.223.177h3.174c.114 0 .206-.074.223-.179l.43-2.515.207-1.213 1.176-.362a12.328 12.328 0 0 0 2.109-.868l1.088-.572 1.001.712 2.083 1.479c.05.036.101.042.135.042a.215.215 0 0 0 .163-.069l2.241-2.227a.203.203 0 0 0 .024-.265l-1.489-2.078-.72-1.004.577-1.094c.369-.7.662-1.402.871-2.087l.362-1.187 1.224-.202 2.527-.419a.21.21 0 0 0 .185-.209v-3.147zm-16.041 9.846a8.205 8.205 0 1 1 8.205-8.204 8.205 8.205 0 0 1-8.205 8.204zm0-14.409a6.212 6.212 0 0 0-6.205 6.205 6.212 6.212 0 0 0 6.205 6.204 6.212 6.212 0 0 0 6.205-6.204 6.212 6.212 0 0 0-6.205-6.205zm31.476 17.255H58.25v-2.815h2.185v2.815z"/></svg>