<svg xmlns="http://www.w3.org/2000/svg" width="59" height="49" viewBox="0 0 59 49"><defs><linearGradient id="a" x1="0%" x2="61.566%" y1="0%" y2="78.801%"><stop offset="0%" stop-color="#00ADEF"/><stop offset="39%" stop-color="#19CDD7"/><stop offset="100%" stop-color="#31ECBE"/></linearGradient></defs><path fill="url(#a)" d="M58.907 22.5c0-2.31-1.771-4.197-4.034-4.45V3c0-1.654-1.357-3-3.025-3h-1.009c-1.668 0-3.025 1.346-3.025 3v1.429a188.16 188.16 0 0 1-10.535 5.677C31.538 12.952 26.685 13 26.636 13H8.486c-.557 0-1.008.447-1.008 1v1.07C3.784 15.528.923 18.458.923 22s2.861 6.472 6.555 6.93V30c0 .553.451 1 1.008 1h2.299l5.821 17.316a1.003 1.003 0 0 0 .956.684c.12 0 .239-.022.355-.064l8.067-3c.287-.107.51-.338.604-.628a.994.994 0 0 0-.119-.862c-.037-.055-3.557-5.437-3.838-13.446h3.901c.681.146 5.309 1.198 10.747 3.894a188.16 188.16 0 0 1 10.535 5.677V42c0 1.654 1.357 3 3.025 3h1.009c1.668 0 3.025-1.346 3.025-3V26.95c2.263-.253 4.034-2.14 4.034-4.45zM2.94 22c0-2.446 1.961-4.484 4.538-4.913v9.826C4.901 26.484 2.94 24.446 2.94 22zm6.555-7h16.134v14H9.495V15zm14.658 29.48l-5.966 2.219L12.911 31h7.692c.209 6.571 2.428 11.426 3.55 13.48zm14.028-11.374c-4.748-2.355-8.85-3.495-10.535-3.904V14.948c1.818-.152 5.878-.744 10.535-3.054a190.634 190.634 0 0 0 9.633-5.151v31.514a190.634 190.634 0 0 0-9.633-5.151zM52.856 42c0 .552-.452 1-1.008 1h-1.009a1.005 1.005 0 0 1-1.008-1V3c0-.552.452-1 1.008-1h1.009c.556 0 1.008.448 1.008 1v39zm2.017-17.051v-4.898A2.508 2.508 0 0 1 56.89 22.5a2.508 2.508 0 0 1-2.017 2.449z"/></svg>