<svg xmlns="http://www.w3.org/2000/svg" width="88" height="88" viewBox="0 0 88 88"><defs><linearGradient id="a" x1="0%" x2="61.566%" y1="0%" y2="78.801%"><stop offset="0%" stop-color="#00ADEF" stop-opacity=".8"/><stop offset="44%" stop-color="#1CD1DA" stop-opacity=".8"/><stop offset="100%" stop-color="#37F4C5" stop-opacity=".8"/></linearGradient></defs><path fill="url(#a)" d="M84 83h-3.968c.351.801.204 1.77-.451 2.426l-1.933 1.933A2.177 2.177 0 0 1 76.1 88a2.177 2.177 0 0 1-1.547-.641l-2.646-2.646-1.685 1.684a2.172 2.172 0 0 1-1.547.642 2.18 2.18 0 0 1-2.027-1.363L65.557 83H4c-2.206 0-4-1.795-4-4V60c0-2.206 1.794-4 4-4h80c2.205 0 4 1.794 4 4v19c0 2.205-1.795 4-4 4zm-15.5 1.921a.188.188 0 0 0 .308.062l2.965-2.965a.19.19 0 0 1 .267 0l3.927 3.927A.191.191 0 0 0 76.1 86a.192.192 0 0 0 .134-.055l1.933-1.933a.188.188 0 0 0 0-.267l-3.927-3.927a.188.188 0 0 1 0-.267l2.966-2.965a.189.189 0 0 0-.062-.308l-14.172-5.774a.189.189 0 0 0-.246.246L68.5 84.921zM86 60a2 2 0 0 0-2-2H4a2 2 0 0 0-2 2v19a2 2 0 0 0 2 2h60.743l-3.869-9.496a2.185 2.185 0 0 1 .21-2.046c.247-.367.599-.63.995-.792h-1.898v4.89h-.849v-4.89h-2.015v-.74h4.878v.696c.226-.078.46-.132.705-.132.175 0 .346.028.515.069v-.633h.838v.94l13.645 5.56A2.186 2.186 0 0 1 78.62 78l-1.685 1.685L78.251 81H84a2 2 0 0 0 2-2V60zM55.368 72.717c-.501.639-1.176.958-2.025.958-.574 0-1.068-.156-1.481-.468-.414-.312-.621-.748-.621-1.307 0-.588.218-1.041.653-1.361.436-.319 1.02-.479 1.753-.479a6.3 6.3 0 0 1 1.721.24v-.175c0-.493-.145-.871-.435-1.132-.29-.261-.701-.392-1.231-.392-.552 0-1.121.135-1.71.403l-.25-.686c.697-.32 1.379-.479 2.047-.479.799 0 1.405.207 1.818.62.393.393.588.944.588 1.656v3.441h-.827v-.839zm.011-1.753a5.92 5.92 0 0 0-1.645-.239c-.514 0-.918.103-1.208.31a.98.98 0 0 0-.435.844c0 .341.135.613.408.816.272.204.607.305 1.007.305.523 0 .966-.141 1.329-.424.362-.284.544-.646.544-1.089v-.523zm-5.271 1.024c0 .471-.203.873-.609 1.203-.406.33-.947.495-1.622.495a3.606 3.606 0 0 1-2.331-.838l.425-.621c.573.487 1.201.729 1.883.729.385 0 .714-.088.986-.266.272-.178.408-.423.408-.735a.773.773 0 0 0-.37-.681c-.246-.163-.595-.245-1.045-.245h-.751v-.686h.762c.37 0 .671-.089.904-.266a.846.846 0 0 0 .348-.703c0-.254-.115-.457-.343-.61-.229-.152-.521-.229-.876-.229-.668 0-1.238.19-1.71.567l-.414-.588c.61-.472 1.336-.708 2.178-.708.625 0 1.12.14 1.486.419.367.28.55.641.55 1.084 0 .617-.301 1.049-.904 1.296.698.247 1.045.707 1.045 1.383zm-6.62.729c-.501.639-1.176.958-2.025.958-.574 0-1.068-.156-1.481-.468-.414-.312-.621-.748-.621-1.307 0-.588.218-1.041.654-1.361.435-.319 1.019-.479 1.752-.479.582 0 1.155.08 1.721.24v-.175c0-.493-.145-.871-.435-1.132-.29-.261-.701-.392-1.231-.392-.552 0-1.121.135-1.71.403l-.25-.686c.697-.32 1.379-.479 2.047-.479.799 0 1.405.207 1.818.62.393.393.588.944.588 1.656v3.441h-.827v-.839zm.011-1.753a5.92 5.92 0 0 0-1.645-.239c-.514 0-.918.103-1.208.31a.98.98 0 0 0-.435.844c0 .341.136.613.408.816.273.204.607.305 1.007.305.523 0 .966-.141 1.329-.424.362-.284.544-.646.544-1.089v-.523zm-5.64 2.592l-2.004-2.581-1.187 1.219v1.362h-.838v-5.63h.838v3.245l3.082-3.245h1.034l-2.352 2.439 2.417 3.191h-.99zm-6.632-.839c-.501.639-1.175.958-2.025.958-.573 0-1.067-.156-1.48-.468-.414-.312-.621-.748-.621-1.307 0-.588.217-1.041.653-1.361.435-.319 1.019-.479 1.753-.479.581 0 1.154.08 1.72.24v-.175c0-.493-.145-.871-.435-1.132-.29-.261-.7-.392-1.231-.392-.551 0-1.121.135-1.709.403l-.25-.686c.697-.32 1.378-.479 2.046-.479.799 0 1.406.207 1.819.62.392.393.588.944.588 1.656v3.441h-.828v-.839zm.011-1.753a5.913 5.913 0 0 0-1.644-.239c-.515 0-.918.103-1.208.31a.981.981 0 0 0-.436.844c0 .341.136.613.408.816.273.204.608.305 1.007.305.524 0 .966-.141 1.329-.424.363-.284.544-.646.544-1.089v-.523zm-5.302.555c0 .618-.249 1.133-.746 1.546-.498.414-1.137.621-1.922.621-1.219 0-2.28-.41-3.179-1.23l.511-.599c.77.726 1.663 1.089 2.679 1.089.486 0 .904-.136 1.252-.409.349-.272.523-.625.523-1.061 0-.472-.189-.824-.566-1.057-.378-.232-.875-.348-1.492-.348h-.839v-.708h.839c.552 0 1-.128 1.345-.386.344-.258.517-.608.517-1.051 0-.392-.162-.717-.485-.974-.322-.258-.734-.387-1.235-.387-.857 0-1.605.287-2.244.86l-.501-.599c.4-.341.815-.595 1.247-.762.432-.167.938-.251 1.519-.251.755 0 1.372.193 1.852.577.478.385.718.872.718 1.46 0 .864-.465 1.462-1.394 1.796.486.146.875.374 1.166.686.29.312.435.708.435 1.187zM84 55H4c-2.206 0-4-1.794-4-4V32c0-2.206 1.794-4 4-4h80c2.205 0 4 1.794 4 4v19c0 2.206-1.795 4-4 4zm2-23a2 2 0 0 0-2-2H4a2 2 0 0 0-2 2v19a2 2 0 0 0 2 2h80a2 2 0 0 0 2-2V32zM66.648 43.095h-3.245v2.461h-.838v-5.63h.838v2.428h3.245v-2.428h.839v5.63h-.839v-2.461zm-8.547 2.591c-.836 0-1.53-.287-2.086-.86-.555-.573-.832-1.267-.832-2.08 0-.806.281-1.497.843-2.074.563-.577 1.262-.866 2.097-.866.834 0 1.531.287 2.091.86.558.574.838 1.268.838 2.08 0 .806-.283 1.498-.85 2.075-.565.577-1.267.865-2.101.865zm1.486-4.497a1.96 1.96 0 0 0-1.486-.642c-.603 0-1.096.212-1.481.636-.385.425-.577.946-.577 1.563 0 .61.199 1.127.598 1.552.4.425.894.637 1.482.637.602 0 1.098-.21 1.486-.632.388-.421.582-.94.582-1.557 0-.609-.201-1.128-.604-1.557zm-7.921 4.486c-.313 0-.568-.049-.768-.147a3.158 3.158 0 0 1-.637-.43v2.2h-.849v-2.2c-.45.385-.919.577-1.405.577-.683 0-1.235-.263-1.656-.789-.42-.526-.63-1.247-.63-2.161 0-.9.21-1.612.63-2.135.421-.522.973-.784 1.656-.784.486 0 .955.204 1.405.61v-2.482h.849v2.482c.45-.406.919-.61 1.405-.61.689 0 1.245.263 1.666.79.421.526.631 1.243.631 2.15 0 .9-.212 1.614-.637 2.14-.425.526-.978.789-1.66.789zm-2.254-4.562c-.349-.37-.759-.555-1.23-.555-.524 0-.919.196-1.188.587-.269.393-.402.934-.402 1.623 0 1.445.529 2.167 1.59 2.167.471 0 .881-.185 1.23-.555v-3.267zm3.277.027c-.268-.388-.664-.582-1.187-.582-.472 0-.886.185-1.241.555v3.267c.355.37.769.555 1.241.555 1.06 0 1.59-.729 1.59-2.189 0-.682-.134-1.217-.403-1.606zM40.08 43.084c.058.573.273 1.029.647 1.367.375.337.819.505 1.334.505.675 0 1.267-.264 1.776-.794l.522.468c-.632.704-1.405 1.056-2.319 1.056-.791 0-1.458-.274-1.998-.822-.541-.548-.812-1.254-.812-2.118 0-.82.258-1.515.774-2.085a2.49 2.49 0 0 1 1.927-.855c.805 0 1.445.283 1.917.85.471.566.708 1.278.708 2.134 0 .109-.004.206-.012.294H40.08zm3.087-2.031c-.309-.359-.728-.539-1.258-.539-.479 0-.89.178-1.23.534-.341.355-.541.809-.599 1.361h3.626c-.051-.545-.23-.996-.539-1.356zm-6.3-.387h-2.352v.131c0 .857-.033 1.586-.098 2.189-.065.602-.147 1.074-.244 1.415-.099.342-.235.607-.409.795-.174.189-.343.311-.506.365a1.917 1.917 0 0 1-.605.081c-.218 0-.442-.028-.675-.086l.098-.719c.167.051.302.076.403.076.16 0 .29-.02.392-.06.102-.04.213-.145.332-.316.12-.17.213-.412.278-.724.065-.312.121-.755.168-1.328.048-.574.072-1.27.072-2.091v-.468h3.985v5.63h-.839v-4.89zm-9.887 2.418c.058.573.274 1.029.648 1.367.374.337.818.505 1.334.505.675 0 1.266-.264 1.775-.794l.523.468c-.632.704-1.406 1.056-2.32 1.056-.791 0-1.458-.274-1.998-.822-.541-.548-.811-1.254-.811-2.118 0-.82.258-1.515.773-2.085a2.49 2.49 0 0 1 1.927-.855c.806 0 1.445.283 1.917.85.472.566.708 1.278.708 2.134 0 .109-.004.206-.012.294H26.98zm3.087-2.031c-.308-.359-.727-.539-1.258-.539-.479 0-.889.178-1.23.534-.341.355-.541.809-.599 1.361h3.626c-.05-.545-.23-.996-.539-1.356zm-6.527 4.503h-.871v-6.839h-2.56v-.783h5.989v.783H23.54v6.839zM84 27H4c-2.206 0-4-1.794-4-4V4c0-2.206 1.794-4 4-4h80c2.205 0 4 1.794 4 4v19c0 2.206-1.795 4-4 4zm2-23a2 2 0 0 0-2-2H4a2 2 0 0 0-2 2v19a2 2 0 0 0 2 2h80a2 2 0 0 0 2-2V4zM53.435 15.509h-1.556l-.676.892c-.385.509-.679.893-.882 1.155h-1.034l1.721-2.178c-.444-.102-.805-.301-1.084-.599a1.544 1.544 0 0 1-.419-1.1c0-.522.188-.945.566-1.268.377-.323.897-.485 1.557-.485h2.646v5.63h-.839v-2.047zm0-2.843h-1.763c-.414 0-.74.093-.975.278-.236.185-.353.441-.353.768 0 .334.125.598.375.795.251.195.575.294.974.294h1.742v-2.135zm-6.369.599l-2.079 2.853-2.058-2.853v4.291h-.817v-5.63h.795l2.102 2.962 2.101-2.962h.806v5.63h-.85v-4.291zm-7.818-2.036l-4.541 6.327h-.838V9.934h.86v6.326l4.552-6.326h.817v7.622h-.85v-6.327z"/></svg>