<svg xmlns="http://www.w3.org/2000/svg" width="88" height="88" viewBox="0 0 88 88"><defs><linearGradient id="a" x1="0%" x2="61.566%" y1="0%" y2="78.801%"><stop offset="0%" stop-color="#00ADEF" stop-opacity=".8"/><stop offset="44%" stop-color="#1CD1DA" stop-opacity=".8"/><stop offset="100%" stop-color="#37F4C5" stop-opacity=".8"/></linearGradient></defs><path fill="url(#a)" d="M84 88h-6c-2.206 0-4-1.794-4-4V34c0-2.206 1.794-4 4-4h6c2.206 0 4 1.794 4 4v50c0 2.206-1.794 4-4 4zm2-54a2 2 0 0 0-2-2h-6a2 2 0 0 0-2 2v3h5v2h-5v4h5v2h-5v4h5v2h-5v4h5v2h-5v4h5v2h-5v4h5v2h-5v4h5v2h-5v4h5v2h-5v3a2 2 0 0 0 2 2h6a2 2 0 0 0 2-2V34zM68.667 88h-1.334C65.495 88 64 86.379 64 84.387V64.226c0-.403 0-1.63 2.481-4.527L68 57.925l1.519 1.774C72 62.596 72 63.823 72 64.226v20.161C72 86.379 70.505 88 68.667 88zM68 61s-1.704 1.999-1.951 3h3.902C69.704 62.999 68 61 68 61zm2 5h-4v18.387c0 .891.597 1.613 1.333 1.613h1.334c.736 0 1.333-.722 1.333-1.613V66zm-15 5H12c-2.206 0-4-1.795-4-4-2.206 0-4-1.794-4-4h-.618C1.517 63 0 61.472 0 59.595V3.405C0 1.527 1.517 0 3.382 0h35.236c.955 0 1.886.39 2.553 1.071L44.04 4H51c2.206 0 4 1.794 4 4 2.205 0 4 1.794 4 4v55c0 2.205-1.795 4-4 4zM38 10.429V2H3.382C2.619 2 2 2.629 2 3.405v56.19C2 60.371 2.619 61 3.382 61h44.236c.763 0 1.382-.629 1.382-1.405V13h-8.571C39.09 13 38 11.847 38 10.429zm2-7.695v7.695c0 .309.196.571.429.571h7.669L40 2.734zM53 8a2 2 0 0 0-2-2h-5.001l3.987 4.07A3.524 3.524 0 0 1 51 12.551v47.044C51 61.472 49.483 63 47.618 63H6a2 2 0 0 0 2 2h43a2 2 0 0 0 2-2V8zm4 4a2 2 0 0 0-2-2v53c0 2.206-1.794 4-4 4H10a2 2 0 0 0 2 2h43a2 2 0 0 0 2-2V12zM39 42h-3a1 1 0 1 1 0-2h3a1 1 0 1 1 0 2zm0-16h-3a1 1 0 1 1 0-2h3a1 1 0 1 1 0 2zm-7 0h-6a1 1 0 1 1 0-2h6a1 1 0 1 1 0 2zM19.5 51h-10A2.503 2.503 0 0 1 7 48.5v-7C7 40.121 8.122 39 9.5 39h10c1.378 0 2.5 1.121 2.5 2.5v7c0 1.378-1.122 2.5-2.5 2.5zm.5-9.5a.5.5 0 0 0-.5-.5h-10a.5.5 0 0 0-.5.5v7a.5.5 0 0 0 .5.5h10a.5.5 0 0 0 .5-.5v-7zm-.5-6.5h-10A2.503 2.503 0 0 1 7 32.5v-7C7 24.121 8.122 23 9.5 23h10c1.378 0 2.5 1.121 2.5 2.5v7c0 1.378-1.122 2.5-2.5 2.5zm.5-9.5a.5.5 0 0 0-.5-.5h-10a.5.5 0 0 0-.5.5v7a.5.5 0 0 0 .5.5h10a.5.5 0 0 0 .5-.5v-7zm1-7.5h-3a1 1 0 1 1 0-2h3a1 1 0 1 1 0 2zm-7 0H8a1 1 0 1 1 0-2h6a1 1 0 1 1 0 2zm12 10h12a1 1 0 1 1 0 2H26a1 1 0 1 1 0-2zm0 12h6a1 1 0 1 1 0 2h-6a1 1 0 1 1 0-2zm0 4h12a1 1 0 1 1 0 2H26a1 1 0 1 1 0-2z"/></svg>