<svg xmlns="http://www.w3.org/2000/svg" width="82" height="90" viewBox="0 0 82 90"><defs><linearGradient id="a" x1="0%" x2="61.566%" y1="0%" y2="78.801%"><stop offset="0%" stop-color="#00ADEF"/><stop offset="39%" stop-color="#19CDD7"/><stop offset="100%" stop-color="#31ECBE"/></linearGradient></defs><path fill-rule="evenodd" fill="#A67C52" d="M82 45c0 24.814-18.393 45-41 45S0 69.814 0 45c0-.176.058-.333.138-.477A49.439 49.439 0 0 1 0 41C0 18.393 18.393 0 41 0s41 18.393 41 41c0 1.187-.055 2.359-.138 3.523.08.144.138.301.138.477zM41 88c14.394 0 26.981-8.648 33.739-21.473C67.334 78.28 54.976 86 41 86c-13.976 0-26.334-7.72-33.739-19.473C14.019 79.352 26.606 88 41 88zm27.888-16.983C61.566 77.825 51.763 82 41 82c-10.763 0-20.566-4.175-27.888-10.983C20.198 79.019 30.079 84 41 84c10.921 0 20.802-4.981 27.888-12.983zM41 2C19.495 2 2 19.495 2 41s17.495 39 39 39 39-17.495 39-39S62.505 2 41 2zm0 71a1 1 0 1 1 0-2c16.542 0 30-13.458 30-30a1 1 0 1 1 2 0c0 17.644-14.356 32-32 32zm-5.6-26.336H34v6.01h19.8a1 1 0 1 1 0 2H34v7.801a1 1 0 1 1-2 0v-7.801h-7a1 1 0 1 1 0-2h7v-6.01h-7a1 1 0 1 1 0-2h7v-27.14l.915-.077c4.366-.371 15.156-.65 21.051 4.764C56.643 24.67 58 27.981 58 32.054c0 9.148-8.448 14.61-22.6 14.61zm17.213-22.979c-4.95-4.547-14.073-4.61-18.613-4.314v25.293h1.4c18.593 0 20.6-8.818 20.6-12.61 0-3.489-1.14-6.306-3.387-8.369zm-25.161-9.459C17.304 19.371 11 29.631 11 41a1 1 0 1 1-2 0c0-12.127 6.724-23.07 17.548-28.558a1 1 0 0 1 .904 1.784z"/><path fill="url(#a)" d="M82 45c0 24.814-18.393 45-41 45S0 69.814 0 45c0-.176.058-.333.138-.477A49.439 49.439 0 0 1 0 41C0 18.393 18.393 0 41 0s41 18.393 41 41c0 1.187-.055 2.359-.138 3.523.08.144.138.301.138.477zM41 88c14.394 0 26.981-8.648 33.739-21.473C67.334 78.28 54.976 86 41 86c-13.976 0-26.334-7.72-33.739-19.473C14.019 79.352 26.606 88 41 88zm27.888-16.983C61.566 77.825 51.763 82 41 82c-10.763 0-20.566-4.175-27.888-10.983C20.198 79.019 30.079 84 41 84c10.921 0 20.802-4.981 27.888-12.983zM41 2C19.495 2 2 19.495 2 41s17.495 39 39 39 39-17.495 39-39S62.505 2 41 2zm0 71a1 1 0 1 1 0-2c16.542 0 30-13.458 30-30a1 1 0 1 1 2 0c0 17.644-14.356 32-32 32zm-5.6-26.336H34v6.01h19.8a1 1 0 1 1 0 2H34v7.801a1 1 0 1 1-2 0v-7.801h-7a1 1 0 1 1 0-2h7v-6.01h-7a1 1 0 1 1 0-2h7v-27.14l.915-.077c4.366-.371 15.156-.65 21.051 4.764C56.643 24.67 58 27.981 58 32.054c0 9.148-8.448 14.61-22.6 14.61zm17.213-22.979c-4.95-4.547-14.073-4.61-18.613-4.314v25.293h1.4c18.593 0 20.6-8.818 20.6-12.61 0-3.489-1.14-6.306-3.387-8.369zm-25.161-9.459C17.304 19.371 11 29.631 11 41a1 1 0 1 1-2 0c0-12.127 6.724-23.07 17.548-28.558a1 1 0 0 1 .904 1.784z"/></svg>