<svg xmlns="http://www.w3.org/2000/svg" width="65" height="52" viewBox="0 0 65 52"><defs><linearGradient id="a" gradientUnits="userSpaceOnUse" y1="31.003" x2="60.992" y2="31.003"><stop offset="0" stop-color="#008abf"/><stop offset=".374" stop-color="#15a5af"/><stop offset=".748" stop-color="#24b9a3"/><stop offset="1" stop-color="#2ac09f"/></linearGradient></defs><path fill="url(#a)" d="M49.351 52H1a1 1 0 0 1-1-1V1a1 1 0 0 1 1-1h48.351L65 12.52v26.96L49.351 52zM26 20v12h22V20H26zm22-2V6H26v12h22zM26 34v12h22V34H26zm0 14v2h22v-2H26zM2 20v12h22V20H2zm22-2V6H2v12h22zM2 34v12h22V34H2zm0 14v2h22v-2H2zM24 4V2H2v2h22zm2 0h22V2H26v2zm24 44.92l3-2.4V5.48l-3-2.399V48.92zm5-4l3-2.4V9.48l-3-2.399V44.92zm8-31.44l-3-2.399v29.838l3-2.4V13.48z"/></svg>