<svg xmlns="http://www.w3.org/2000/svg" width="15" height="15"><path fill-rule="evenodd" fill="#403305" d="M14.503 6.509c-.141-.067-.436-.147-.825.111-.432.286-1.161.48-1.703.482a6.374 6.374 0 0 1-1.837-.27 2.213 2.213 0 0 0-.09-.328c.332-.335.804-.848 1.236-1.467.95-1.361.879-2.883-.169-3.619C10.172.76 8.002.266 7.74.307a.653.653 0 0 0-.545.362c-.07.142-.147.438.109.83.287.434.485 1.137.482 1.708A6.33 6.33 0 0 1 7.51 5.07c-.155.03-.305.079-.451.141a11.47 11.47 0 0 0-1.443-1.218c-1.362-.953-2.879-.88-3.613.171-.664.954-1.134 3.073-1.11 3.383.022.241.16.446.368.546a.687.687 0 0 0 .297.066.942.942 0 0 0 .526-.179c.432-.287 1.119-.519 1.704-.481a6.253 6.253 0 0 1 1.96.303c.029.121.064.239.111.354-.336.347-.751.813-1.135 1.364-.43.617-.669 1.299-.672 1.921-.003.712.296 1.314.843 1.697.932.653 2.961 1.114 3.348 1.114l.027-.001a.663.663 0 0 0 .544-.366c.068-.142.145-.438-.111-.827-.287-.434-.484-1.136-.479-1.708a6.35 6.35 0 0 1 .281-1.887c.072-.019.145-.034.214-.06.362.358.851.8 1.428 1.204.616.431 1.297.67 1.918.673h.013c.705 0 1.301-.299 1.681-.843.657-.943 1.135-3.09 1.109-3.38a.658.658 0 0 0-.365-.548zM6.9 6.562a1.263 1.263 0 0 1 1.758-.313c.57.4.709 1.19.311 1.762a1.25 1.25 0 0 1-.813.52 1.246 1.246 0 0 1-.944-.209 1.268 1.268 0 0 1-.312-1.76zm3.645-4.327c.683.48.439 1.493-.076 2.232-.333.477-.695.885-.984 1.188a2.19 2.19 0 0 0-.257-.222 2.22 2.22 0 0 0-.704-.32 7.519 7.519 0 0 0 .256-1.9 4.555 4.555 0 0 0-.391-1.789c.658.161 1.655.46 2.156.811zM2.011 6.893c.16-.661.46-1.66.808-2.159.475-.683 1.489-.442 2.227.075.482.339.892.705 1.197.998-.053.061-.11.116-.157.183l-.001.001c-.17.243-.281.509-.344.782a7.49 7.49 0 0 0-1.947-.271 4.449 4.449 0 0 0-1.783.391zm3.453 5.428c-.279-.194-.419-.489-.417-.875.002-.421.176-.903.493-1.355.303-.436.63-.815.913-1.116.063.055.12.115.19.164.254.178.539.277.833.338a7.586 7.586 0 0 0-.247 1.867 4.52 4.52 0 0 0 .389 1.788c-.659-.161-1.655-.461-2.154-.811zm7.479-2.454c-.193.277-.484.417-.865.417h-.008c-.42-.002-.901-.178-1.354-.494a9.95 9.95 0 0 1-1.15-.952 2.16 2.16 0 0 0 .218-.257c.158-.227.262-.475.327-.729a7.595 7.595 0 0 0 1.858.246c.606.031 1.228-.144 1.783-.391-.159.66-.458 1.658-.809 2.16z"/></svg>