<svg xmlns="http://www.w3.org/2000/svg" width="11" height="15"><path fill-rule="evenodd" fill="#403305" d="M5.923 14.254c-2.773 0-5.028-2.305-5.028-5.137 0-1.869 1.994-4.9 4.148-7.895.234-.327.398-.554.512-.72a.486.486 0 0 1 .388-.21c.116-.022.301.068.396.192 1.387 1.826 4.613 6.32 4.613 8.633 0 2.832-2.256 5.137-5.029 5.137zm.042-12.629c-.043.058-.087.121-.134.187-1.186 1.648-3.96 5.505-3.96 7.305 0 2.282 1.818 4.139 4.052 4.139 2.234 0 4.052-1.857 4.052-4.139 0-1.537-2.004-4.782-4.01-7.492zm-.188 10.634a.493.493 0 0 1-.488-.499c0-.275.218-.498.488-.498 1.165 0 2.149-.685 2.149-1.496 0-.276.218-.499.488-.499s.488.223.488.499c0 1.375-1.402 2.493-3.125 2.493z"/></svg>