<svg xmlns="http://www.w3.org/2000/svg" width="13" height="15"><path fill-rule="evenodd" fill="#403305" d="M12.481 10.203l-1.173-.71.6-.156a.5.5 0 0 0 .352-.607.485.485 0 0 0-.595-.36l-1.546.403-2.406-1.456 2.392-1.482 1.548.386a.492.492 0 0 0 .592-.366.501.501 0 0 0-.358-.604l-.599-.149 1.163-.722a.506.506 0 0 0 .164-.686.487.487 0 0 0-.672-.168l-1.165.722.147-.612a.499.499 0 0 0-.359-.603.487.487 0 0 0-.591.365l-.379 1.583-2.345 1.453v-2.8L8.38 2.482a.508.508 0 0 0 0-.707.482.482 0 0 0-.692 0l-.437.447V.831c0-.276-.219-.5-.489-.5a.495.495 0 0 0-.489.5v1.39l-.437-.446a.481.481 0 0 0-.691 0 .508.508 0 0 0 0 .707l1.128 1.151v2.812L3.905 5.012l-.395-1.58a.485.485 0 0 0-.596-.359.5.5 0 0 0-.352.607l.153.611-1.172-.71a.484.484 0 0 0-.67.175.505.505 0 0 0 .171.684l1.173.71-.6.156a.499.499 0 0 0-.352.607.492.492 0 0 0 .595.36l1.546-.404 2.406 1.457L3.42 8.808l-1.549-.385a.489.489 0 0 0-.591.365.5.5 0 0 0 .358.604l.599.15-1.163.721a.507.507 0 0 0-.165.686.49.49 0 0 0 .673.168l1.165-.722-.147.612a.5.5 0 0 0 .475.618c.221 0 .42-.153.475-.38l.379-1.583L6.273 8.21v2.8l-1.128 1.152a.505.505 0 0 0 0 .705.48.48 0 0 0 .691 0l.437-.445v1.39c0 .277.219.5.489.5s.489-.223.489-.5v-1.391l.437.446a.48.48 0 0 0 .692 0 .505.505 0 0 0 0-.705l-1.129-1.153V8.197L9.62 9.631l.395 1.58a.491.491 0 0 0 .595.36.501.501 0 0 0 .353-.608l-.153-.611 1.172.709a.474.474 0 0 0 .249.071c.167 0 .33-.088.421-.245a.505.505 0 0 0-.171-.684z"/></svg>