<svg xmlns="http://www.w3.org/2000/svg" width="14" height="14"><path fill-rule="evenodd" fill="#403305" d="M9.563 8.319c-1.112 0-2.177-.535-3.206-1.052-.969-.486-1.884-.945-2.761-.945-1.736 0-2.599.82-2.635.855a.498.498 0 0 1-.7-.709c.046-.047 1.165-1.145 3.335-1.145 1.112 0 2.176.534 3.206 1.051.969.487 1.884.946 2.761.946 1.735 0 2.599-.82 2.634-.855a.5.5 0 0 1 .701.709c-.047.047-1.166 1.145-3.335 1.145zm0-4.993c-1.112 0-2.177-.535-3.206-1.051-.969-.487-1.884-.947-2.761-.947-1.736 0-2.599.82-2.635.856a.499.499 0 0 1-.7-.709C.307 1.428 1.426.33 3.596.33c1.112 0 2.176.534 3.206 1.051.969.487 1.884.946 2.761.946 1.735 0 2.599-.82 2.634-.855a.5.5 0 0 1 .701.709c-.047.047-1.166 1.145-3.335 1.145zm-5.967 6.99c1.112 0 2.176.535 3.206 1.051.969.487 1.884.946 2.761.946 1.735 0 2.599-.82 2.634-.855a.499.499 0 0 1 .701.709c-.047.047-1.166 1.145-3.335 1.145-1.112 0-2.177-.535-3.206-1.051-.969-.487-1.884-.946-2.761-.946-1.736 0-2.599.82-2.635.855a.497.497 0 1 1-.7-.709c.046-.047 1.165-1.145 3.335-1.145z"/></svg>