<svg width="200" height="46" viewBox="0 0 200 46" fill="none" xmlns="http://www.w3.org/2000/svg">
<path d="M85.5429 22.3997C85.5429 22.3997 89.6075 21.014 89.6075 16.3951C89.6075 10.991 85.7738 8.31201 80.5083 8.31201H66.6978V37.6883H81.7092C86.3281 37.6883 90.8546 34.455 90.8546 29.5128C90.8546 23.6468 85.5429 22.4459 85.5429 22.3997ZM73.9033 14.409H79.2612C80.924 14.409 82.0325 15.5175 82.0325 17.1803C82.0325 18.4736 81.0164 19.8593 79.1226 19.8593H73.8571V14.409H73.9033ZM79.3074 31.5451H73.9494V25.7715H79.1688C81.8016 25.7715 83.0487 26.9262 83.0487 28.6352C83.0487 30.7599 81.4783 31.5451 79.3074 31.5451Z" fill="#E20015"/>
<path d="M106.744 7.57227C98.2448 7.57227 93.2563 14.3621 93.2563 22.9532C93.2563 31.5906 98.2448 38.3342 106.744 38.3342C115.289 38.3342 120.231 31.5906 120.231 22.9532C120.231 14.3621 115.289 7.57227 106.744 7.57227ZM106.744 31.3135C102.587 31.3135 100.508 27.5721 100.508 22.9532C100.508 18.3343 102.587 14.6392 106.744 14.6392C110.901 14.6392 113.025 18.3805 113.025 22.9532C113.025 27.5721 110.901 31.3135 106.744 31.3135Z" fill="#E20015"/>
<path d="M135.888 19.8125L134.872 19.5815C132.378 19.0734 130.392 18.4268 130.392 16.6254C130.392 14.6855 132.286 13.9003 133.949 13.9003C136.397 13.9003 138.567 15.1012 139.953 16.6254L144.526 12.0989C142.447 9.74325 139.075 7.47998 133.81 7.47998C127.621 7.47998 122.955 10.9442 122.955 16.7178C122.955 21.9834 126.743 24.5699 131.362 25.5399L132.378 25.7709C136.212 26.5561 137.644 27.1565 137.644 29.0041C137.644 30.7593 136.073 31.914 133.671 31.914C130.808 31.914 128.221 30.6669 126.235 28.1265L121.57 32.7454C124.156 35.8401 127.436 38.2419 133.764 38.2419C139.26 38.2419 145.126 35.101 145.126 28.6808C145.172 21.9834 140.092 20.6901 135.888 19.8125Z" fill="#E20015"/>
<path d="M161.525 31.3136C158.292 31.3136 154.92 28.6347 154.92 22.7687C154.92 17.5493 158.061 14.6394 161.34 14.6394C163.927 14.6394 165.451 15.8403 166.652 17.9188L172.564 13.9927C169.608 9.5124 166.098 7.61865 161.248 7.61865C152.379 7.61865 147.576 14.5008 147.576 22.8149C147.576 31.5446 152.887 38.3806 161.155 38.3806C166.975 38.3806 169.746 36.3483 172.749 32.0065L166.79 27.988C165.589 29.928 164.296 31.3136 161.525 31.3136Z" fill="#E20015"/>
<path d="M192.286 8.26465V19.0729H183.372V8.26465H175.658V37.6409H183.372V26.0474H192.286V37.6409H200V8.26465H192.286Z" fill="#E20015"/>
<path d="M22.2631 0.736816C9.97684 0.736816 0 10.7137 0 23C0 35.2862 9.97684 45.2631 22.2631 45.2631C34.5494 45.2631 44.5263 35.2862 44.5263 23C44.5263 10.7137 34.5494 0.736816 22.2631 0.736816ZM22.2631 43.1846C11.1316 43.1846 2.07851 34.1315 2.07851 23C2.07851 11.8684 11.1316 2.81533 22.2631 2.81533C33.3947 2.81533 42.4478 11.8684 42.4478 23C42.4478 34.1315 33.3947 43.1846 22.2631 43.1846Z" fill="#575757"/>
<path d="M31.4548 9.09668H29.9305V16.7179H14.6419V9.09668H13.0715C8.59116 12.099 5.58887 17.1798 5.58887 22.9996C5.58887 28.8194 8.59116 33.9002 13.0715 36.9025H14.6419V29.2813H29.9305V36.9025H31.4548C35.9813 33.9002 38.9374 28.8194 38.9374 22.9996C38.9374 17.1798 35.9813 12.099 31.4548 9.09668ZM12.5172 33.9002C9.42256 31.1751 7.62119 27.249 7.62119 22.9996C7.62119 18.7502 9.42256 14.8241 12.5172 12.099V33.9002ZM29.9305 27.1566H14.6419V18.7964H29.9305C29.9305 18.8426 29.9305 27.1566 29.9305 27.1566ZM32.009 33.854V29.2351V16.7179V12.099C35.0575 14.8241 36.8589 18.7502 36.8589 22.9534C36.8589 27.2028 35.0575 31.1289 32.009 33.854Z" fill="#575757"/>
</svg>
