<svg width="200" height="42" viewBox="0 0 200 42" fill="none" xmlns="http://www.w3.org/2000/svg">
<g clip-path="url(#clip0_4_56)">
<path d="M0 0.0461426H45.1862L0 41.9524V0.0461426Z" fill="#00A0E4"/>
<path d="M22.5875 0.0461426H0V20.9949L22.5875 0.0461426Z" fill="black"/>
<path d="M157.232 9.07861H167.864L161.997 33.0024H151.362L157.232 9.07861Z" fill="#00A0E4"/>
<path d="M119.499 33.0011H129.157L130.907 25.7687L136.247 33.0011H148.059L139.547 20.8524L152.784 9.07739H141.606L133.144 16.4049L134.95 9.07739H124.874L119.499 33.0011Z" fill="#00A0E4"/>
<path d="M103.054 33.0011L108.929 9.07739H119.561L113.686 33.0011H103.054Z" fill="#00A0E4"/>
<path d="M167.059 33.0011H174.42L177.839 19.3524L182.145 33.0011H194.044L199.999 9.07739H192.146L188.8 22.2637L184.189 9.07739H172.982L167.059 33.0011Z" fill="#00A0E4"/>
<path d="M55.375 27.4287C56.8392 27.2108 58.1967 26.5343 59.2523 25.4965C60.3079 24.4586 61.0073 23.1127 61.25 21.6524C61.25 21.6524 61.9337 17.515 60.375 15.9987C59.6587 15.3791 58.7367 15.0496 57.79 15.0749H53.7087L50.7737 27.4287H55.375ZM39.23 32.9999L45.1837 9.07617H61.16C61.16 9.07617 72.16 9.95741 71.0112 21.1437C70.98 21.4687 70.45 31.1062 58.7212 32.9987L39.23 32.9999Z" fill="#00A0E4"/>
<path d="M87.3011 22.9698L86.2111 16.8449L82.8648 22.9698H87.3011ZM79.9061 28.4511L77.0311 33.0036H70.0273L83.3011 9.07983H95.4411L99.6623 33.0036H89.0711L88.2636 28.4511H79.9061Z" fill="#00A0E4"/>
</g>
<defs>
<clipPath id="clip0_4_56">
<rect width="200" height="41.9075" fill="white" transform="translate(0 0.0461426)"/>
</clipPath>
</defs>
</svg>
