<svg width="200" height="30" viewBox="0 0 200 30" fill="none" xmlns="http://www.w3.org/2000/svg">
<g clip-path="url(#clip0_8_98)">
<path d="M40.8231 4.18896H46.5801V13.0314H46.6421L53.1434 4.18896H60.0776L52.089 14.2723L60.6966 25.8454H53.3548L46.6383 16.0094H46.5763V25.8454H40.8193L40.8231 4.18896Z" fill="black"/>
<path d="M63.3256 4.18896H78.5522V8.28215H69.0787V12.7536H78.0268V16.8493H69.0787V21.7508H78.8914V25.8466H63.3218L63.3256 4.18896Z" fill="black"/>
<path d="M82.7974 4.18896H90.1391L97.4455 18.8972H97.505L97.4126 4.18896H102.676V25.8454H95.5252L87.9708 11.0457H87.9088L88.0948 25.8454H82.8012L82.7974 4.18896Z" fill="black"/>
<path d="M110.811 8.47127H105.486V4.18896H121.893V8.47127H116.568V25.8466H110.811V8.47127Z" fill="black"/>
<path d="M132.295 8.65873H132.236L129.451 17.1282H134.86L132.295 8.65873ZM128.767 4.18994H135.823L144.151 25.8463H137.838L136.227 21.224H128.114L126.413 25.8463H120.563L128.767 4.18994Z" fill="black"/>
<path d="M148.336 8.47127H143.01V4.18896H159.418V8.47127H154.093V25.8466H148.336V8.47127Z" fill="black"/>
<path d="M162.205 20.5093C164.04 21.4644 166.081 21.9541 168.148 21.9355C169.976 21.9355 171.71 21.5625 171.71 19.8254C171.71 15.7918 161.493 18.3346 161.493 10.4564C161.493 5.24279 166.57 3.81403 170.904 3.81403C172.791 3.79387 174.67 4.06614 176.474 4.62107L176.102 9.08986C174.591 8.42032 172.956 8.08159 171.304 8.09633C169.847 8.09633 167.436 8.22325 167.436 10.1138C167.436 13.6209 177.651 11.2558 177.651 19.0807C177.651 24.6978 172.945 26.2178 168.146 26.2178C165.966 26.219 163.797 25.9058 161.707 25.2877L162.205 20.5093Z" fill="black"/>
<path d="M200 17.6241C200 23.5508 196.162 26.2204 190.529 26.2204C184.896 26.2204 181.056 23.5559 181.056 17.6241V4.18848H186.813V16.6623C186.813 19.5172 187.586 21.9381 190.529 21.9381C193.472 21.9381 194.243 19.5172 194.243 16.6623V4.18848H200V17.6241Z" fill="black"/>
<path d="M18.5276 0.377441H10.6846V8.24419H18.5276V0.377441Z" fill="#E50019"/>
<path d="M18.5276 21.7539H10.6846V29.6232H18.5276V21.7539Z" fill="#E50019"/>
<path d="M6.77857 14.9823L0 18.938L3.94441 25.7294L10.723 21.7737L6.77857 14.9823Z" fill="#E50019"/>
<path d="M3.98914 4.22135L0.0166016 11.0044L6.78247 14.9857L10.755 8.20269L3.98914 4.22135Z" fill="#E50019"/>
<path d="M22.4565 14.9789L18.5127 21.7744L25.2953 25.7295L29.2391 18.934L22.4565 14.9789Z" fill="#E50019"/>
<path d="M25.25 4.2227L18.4824 8.20361L22.4539 14.9873L29.2215 11.0064L25.25 4.2227Z" fill="#E50019"/>
</g>
<defs>
<clipPath id="clip0_8_98">
<rect width="200" height="29.2453" fill="white" transform="translate(0 0.377441)"/>
</clipPath>
</defs>
</svg>
