<svg width="200" height="82" viewBox="0 0 200 82" fill="none" xmlns="http://www.w3.org/2000/svg">
<g clip-path="url(#clip0_8_179)">
<path d="M129.691 61.4017C128.93 62.019 128.079 62.5135 127.169 62.8674C125.946 63.3416 124.644 63.5731 123.334 63.5491C122.298 63.593 121.265 63.407 120.308 63.0045C119.351 62.6019 118.493 61.9923 117.794 61.2188C116.323 59.2412 115.609 56.7928 115.784 54.3252C115.784 51.3464 116.426 49.1197 117.683 47.7218C118.445 46.9636 119.359 46.3785 120.363 46.0056C121.367 45.6326 122.439 45.4804 123.506 45.5591C124.804 45.5457 126.094 45.7621 127.318 46.1986C128.184 46.4727 128.986 46.9193 129.678 47.512C129.933 47.7757 130.076 48.1304 130.075 48.4995V60.4067C130.077 60.7737 129.942 61.1279 129.696 61.3978L129.691 61.4017ZM136.411 29.201H130.663C130.085 29.201 130.077 29.8763 130.077 29.8763V41.7963L129.255 41.3589C128.384 40.8913 127.448 40.5585 126.479 40.3715C125.348 40.1707 124.2 40.0761 123.051 40.0889C119.041 39.9047 115.121 41.3268 112.142 44.0461C109.47 46.6309 108.069 50.4409 108.092 55.0682C107.979 58.8009 109.186 62.4521 111.497 65.3665C113.729 68.0524 117.059 69.4158 121.389 69.4158C127.606 69.4158 130.066 65.6262 130.066 65.6262L130.083 69.3006H137.026V62.4249C137.026 54.7575 137.026 29.9019 137.026 29.9019C137.026 29.9019 137.055 29.2035 136.417 29.2035L136.411 29.201ZM101.935 29.2035H96.3095C96.2067 29.1975 96.1038 29.2157 96.0091 29.2568C95.9145 29.298 95.8306 29.3608 95.7641 29.4404C95.6977 29.5199 95.6505 29.614 95.6263 29.7152C95.6021 29.8164 95.6015 29.9219 95.6247 30.0233C95.6247 30.9186 95.6247 35.2314 95.6247 36.1266H102.561V29.9313C102.576 29.8388 102.57 29.7442 102.544 29.6544C102.518 29.5646 102.472 29.4818 102.41 29.412C102.348 29.3423 102.272 29.2875 102.186 29.2514C102.101 29.2153 102.008 29.1989 101.916 29.2035H101.935ZM193.875 62.5528C193.898 62.7484 193.861 62.9466 193.769 63.1202C193.677 63.2939 193.534 63.4346 193.36 63.5235C191.269 64.4753 188.972 64.8715 186.687 64.6746C185.653 64.6624 184.651 64.316 183.827 63.6862C183.002 63.0565 182.399 62.1765 182.106 61.1753C182.027 60.8069 181.346 56.5531 185.41 55.2166C187.982 54.5757 190.679 54.6451 193.216 55.4174C193.74 55.5619 193.874 55.8689 193.874 56.4969L193.875 62.5528ZM188.727 40.0019C180.578 40.0019 177.708 44.9899 176.802 47.3892L176.485 48.2551L179.197 49.1901C179.197 49.1901 180.95 44.1266 187.858 44.4169C194.84 44.7034 194.022 50.478 193.966 51.4002C189.7 50.175 185.154 50.3828 181.015 51.9923C176.512 54.0732 175.817 58.2593 175.958 61.3288C176.166 65.8679 180.135 69.0614 185.296 69.3518C189.929 69.6152 192.015 68.5908 193.93 66.6519L193.878 69.2955H199.993V49.3435C200.12 45.9031 197.715 40.007 188.727 40.007V40.0019ZM149.948 51.8516C149.625 51.8414 149.596 51.5229 149.602 51.3643C149.836 49.789 150.555 48.3283 151.658 47.1897C152.379 46.4852 153.231 45.9324 154.166 45.5633C155.1 45.1942 156.098 45.0163 157.101 45.0398C158.862 44.9875 160.58 45.5988 161.92 46.7549C163.135 47.8867 163.958 49.3842 164.265 51.0254C164.33 51.2326 164.445 51.8286 163.963 51.8286L149.948 51.8516ZM167.21 44.4438C165.966 43.0068 164.419 41.8701 162.683 41.1175C160.947 40.3649 159.065 40.0155 157.178 40.0953C155.235 40.0392 153.301 40.3721 151.487 41.0745C149.672 41.7769 148.013 42.835 146.604 44.188C145.209 45.5758 144.117 47.2433 143.397 49.0832C142.678 50.9231 142.348 52.8947 142.427 54.8713C142.341 56.8145 142.661 58.7543 143.366 60.5643C144.071 62.3743 145.146 64.014 146.52 65.3768C149.256 67.9782 153.144 69.2942 158.06 69.2942C167.584 69.2942 169.653 62.664 170.435 60.4693L167.972 59.6661C165.779 63.7128 160.855 63.9558 157.982 63.7678C156.041 63.656 154.171 62.9908 152.589 61.8494C151.785 61.2411 151.108 60.4775 150.598 59.6028C150.088 58.7281 149.755 57.7597 149.618 56.7539L149.484 55.8586H170.913C170.835 51.065 169.607 47.2166 167.208 44.4412L167.21 44.4438ZM5.43106 45.7855C5.43106 24.9267 22.8437 7.95855 44.2437 7.95855C50.7046 7.94888 57.0682 9.54833 62.7715 12.6154C68.4748 15.6826 73.342 20.1227 76.9425 25.5431C71.6868 10.6929 57.1361 0.48291 40.7589 0.48291C19.6614 0.48291 2.50069 17.1096 2.50069 37.5489C2.52672 43.1426 3.85124 48.652 6.36777 53.6345C5.77486 51.0606 5.46036 48.4292 5.4298 45.7867L5.43106 45.7855ZM83.4551 29.16H76.469C76.3754 29.1505 76.2808 29.1628 76.1927 29.1962C76.1046 29.2296 76.0252 29.2831 75.9609 29.3526C75.8966 29.422 75.849 29.5055 75.8219 29.5966C75.7948 29.6876 75.7888 29.7838 75.8045 29.8776C76.0547 31.7088 76.1626 33.557 76.1273 35.4053C76.1273 42.3117 75.3032 52.2417 67.7994 61.6665L67.2678 62.3316C67.2678 62.3316 62.7678 30.5298 62.6741 29.9006C62.6741 29.9006 62.6475 29.16 62.0412 29.16H55.0057C54.3412 29.16 54.383 29.8712 54.383 29.8712C54.2197 33.5482 52.1906 64.1682 30.0792 69.1127C35.5093 69.4698 40.908 68.0411 45.4678 65.0404C48.3776 63.3048 50.9075 60.9893 52.9039 58.2348C54.9002 55.4802 56.3212 52.3442 57.0804 49.0174C57.0804 49.0174 59.7817 66.0904 60.1361 70.0143L60.1589 70.2701L59.9412 70.3852C54.6725 73.221 48.879 74.9217 42.9267 75.3799C36.9744 75.8382 30.9927 75.044 25.3597 73.0475C19.7267 71.051 14.5647 67.8957 10.2 63.7809C5.83535 59.6661 2.36285 54.6813 0.00195312 49.1414C1.99032 58.32 7.02523 66.5357 14.2711 72.4249C21.517 78.3142 30.5381 81.5229 39.8374 81.5187C62.3842 81.5187 75.7868 62.4504 78.1019 48.9048C78.1019 48.9048 81.1399 68.6548 81.2171 69.2994H90.4412C90.3045 68.4502 84.1956 30.4953 84.0943 29.8763C84.0943 29.8763 84.0614 29.1614 83.4614 29.1614L83.4551 29.16ZM95.6374 40.2258V69.2981L102.437 69.2878V40.2245L95.6374 40.2258Z" fill="#00A1ED"/>
</g>
<defs>
<clipPath id="clip0_8_179">
<rect width="200" height="81.0345" fill="white" transform="translate(0 0.48291)"/>
</clipPath>
</defs>
</svg>
