<?xml version="1.0" encoding="utf-8"?>
<!-- Generator: Adobe Illustrator 23.0.3, SVG Export Plug-In . SVG Version: 6.00 Build 0)  -->
<svg version="1.1" id="Слой_1" xmlns="http://www.w3.org/2000/svg" xmlns:xlink="http://www.w3.org/1999/xlink" x="0px" y="0px"
	 viewBox="0 0 19.84 19.84" style="enable-background:new 0 0 19.84 19.84;" xml:space="preserve">
<style type="text/css">
	.st0{fill:none;stroke:#000000;stroke-width:0.5;stroke-linejoin:bevel;stroke-miterlimit:10;}
</style>
<g>
	<g>
		<path class="st0" d="M9.43,2.85V0.71 M14.51,2.06l-1.07,1.85 M17.89,5.57l-1.86,1.07 M5.1,1.86l1.07,1.85 M3.24,6.64L1.39,5.57
			 M15.61,10.08c0-1.64-0.67-3.13-1.75-4.2c-1.08-1.08-2.57-1.74-4.22-1.74S6.5,4.8,5.42,5.88s-1.75,2.56-1.75,4.2"/>
	</g>
	<g>
		<path class="st0" d="M4.14,16.3l3.32-0.88l0.87,3.36 M9.92,11.18l-4.5,7.77 M5.07,11.15l-2.44,2.44 M9.92,11.18l-8.9-0.06
			 M14.78,11.21l2.41,2.47 M9.92,11.18l8.9,0.06 M15.63,16.37l-3.31-0.92l-0.91,3.35 M9.92,11.18l4.4,7.83"/>
	</g>
</g>
</svg>
