<?xml version="1.0" encoding="utf-8"?>
<!-- Generator: Adobe Illustrator 23.0.3, SVG Export Plug-In . SVG Version: 6.00 Build 0)  -->
<svg version="1.1" id="Слой_1" xmlns="http://www.w3.org/2000/svg" xmlns:xlink="http://www.w3.org/1999/xlink" x="0px" y="0px"
	 viewBox="0 0 19.84 19.84" style="enable-background:new 0 0 19.84 19.84;" xml:space="preserve">
<style type="text/css">
	.st0{fill:none;stroke:#000000;stroke-width:0.5;stroke-miterlimit:10;}
</style>
<g>
	<g>
		<path class="st0" d="M14.4,5.44c0,2.48-2.01,4.48-4.48,4.48V0.96C12.4,0.96,14.4,2.96,14.4,5.44z M5.44,5.44
			c2.48,0,4.48,2.01,4.48,4.48H0.96C0.96,7.44,2.97,5.44,5.44,5.44z M5.44,14.4c0-2.48,2.01-4.48,4.48-4.48v8.96
			C7.45,18.88,5.44,16.88,5.44,14.4z M14.4,14.4c-2.48,0-4.48-2.01-4.48-4.48h8.96C18.88,12.39,16.88,14.4,14.4,14.4z"/>
	</g>
</g>
</svg>
