<?xml version="1.0" encoding="utf-8"?>
<!-- Generator: Adobe Illustrator 23.0.3, SVG Export Plug-In . SVG Version: 6.00 Build 0)  -->
<svg version="1.1" id="Слой_1" xmlns="http://www.w3.org/2000/svg" xmlns:xlink="http://www.w3.org/1999/xlink" x="0px" y="0px"
	 viewBox="0 0 19.84 19.84" style="enable-background:new 0 0 19.84 19.84;" xml:space="preserve">
<style type="text/css">
	.st0{fill:none;stroke:#000000;stroke-width:0.5;stroke-linecap:round;stroke-linejoin:round;stroke-miterlimit:10;}
</style>
<g>
	<g>
		<path class="st0" d="M18.18,9.92c0-0.59-0.05-1.18-0.06-1.77c-0.01-0.53-0.06-1.05,0.03-1.58c0.08-0.51,0.27-0.95,0.46-1.42
			c0.1-0.25,0.32-0.77-0.05-0.91c-0.22-0.08-0.47,0.04-0.68,0.11c-0.2,0.07-0.41,0.14-0.61,0.22c-0.44,0.17-0.89,0.24-1.36,0.26
			C14.9,4.88,13.9,4.65,12.9,4.57c-0.99-0.09-1.98-0.17-2.97-0.23c-1,0.05-1.99,0.14-2.98,0.22c-1,0.09-2.01,0.31-3.01,0.26
			C3.47,4.81,3.02,4.74,2.58,4.57c-0.2-0.08-0.4-0.15-0.61-0.22c-0.21-0.07-0.46-0.19-0.68-0.1C0.92,4.38,1.14,4.9,1.23,5.15
			C1.42,5.62,1.62,6.06,1.7,6.57C1.78,7.1,1.73,7.62,1.72,8.15C1.71,8.74,1.66,9.33,1.66,9.92s0.05,1.18,0.06,1.77
			c0.01,0.53,0.06,1.05-0.03,1.58c-0.08,0.51-0.27,0.95-0.46,1.42c-0.1,0.25-0.32,0.77,0.05,0.91c0.22,0.08,0.47-0.04,0.68-0.11
			c0.2-0.07,0.41-0.14,0.61-0.22c0.44-0.17,0.89-0.24,1.36-0.26c1.01-0.05,2.01,0.18,3.01,0.26c0.99,0.09,1.98,0.17,2.97,0.23
			c0.99-0.05,1.98-0.14,2.97-0.23c1-0.09,2.01-0.31,3.01-0.26c0.47,0.02,0.92,0.09,1.36,0.26c0.2,0.08,0.41,0.15,0.61,0.22
			c0.21,0.07,0.45,0.19,0.68,0.11c0.37-0.14,0.15-0.66,0.05-0.91c-0.19-0.47-0.38-0.91-0.46-1.42c-0.08-0.53-0.04-1.05-0.03-1.58
			C18.13,11.1,18.18,10.51,18.18,9.92"/>
	</g>
</g>
</svg>
