<?xml version="1.0" encoding="utf-8"?>
<!-- Generator: Adobe Illustrator 23.0.3, SVG Export Plug-In . SVG Version: 6.00 Build 0)  -->
<svg version="1.1" id="Слой_1" xmlns="http://www.w3.org/2000/svg" xmlns:xlink="http://www.w3.org/1999/xlink" x="0px" y="0px"
	 viewBox="0 0 19.84 19.84" style="enable-background:new 0 0 19.84 19.84;" xml:space="preserve">
<style type="text/css">
	.st0{fill:none;stroke:#000000;stroke-width:0.5;stroke-miterlimit:10;}
	.st1{fill:#FFFFFF;}
</style>
<g>
	<g>
		<path class="st0" d="M14.4,5.44c0,2.48-2.01,4.48-4.48,4.48V0.96C12.4,0.96,14.4,2.96,14.4,5.44z M5.44,5.44
			c2.48,0,4.48,2.01,4.48,4.48H0.96C0.96,7.45,2.97,5.44,5.44,5.44z M5.44,14.4c0-2.48,2.01-4.48,4.48-4.48v8.96
			C7.45,18.88,5.44,16.88,5.44,14.4z M14.4,14.4c-2.48,0-4.48-2.01-4.48-4.48h8.96C18.88,12.4,16.88,14.4,14.4,14.4z"/>
	</g>
</g>
<rect x="12.71" y="13.05" class="st1" width="3.07" height="2.22"/>
<g>
	<g>
		<g>
			<path d="M13.48,17.3l-0.5,1.6h-0.64l1.63-5.1h0.74l1.63,5.1h-0.66l-0.51-1.6H13.48z M15.05,16.79l-0.47-1.47
				c-0.11-0.33-0.18-0.64-0.25-0.93h-0.01c-0.07,0.29-0.14,0.61-0.24,0.92l-0.47,1.48H15.05z"/>
		</g>
	</g>
</g>
</svg>
