<?xml version="1.0" encoding="utf-8"?>
<!-- Generator: Adobe Illustrator 23.0.3, SVG Export Plug-In . SVG Version: 6.00 Build 0)  -->
<svg version="1.1" id="Слой_1" xmlns="http://www.w3.org/2000/svg" xmlns:xlink="http://www.w3.org/1999/xlink" x="0px" y="0px"
	 viewBox="0 0 19.84 19.84" style="enable-background:new 0 0 19.84 19.84;" xml:space="preserve">
<style type="text/css">
	.st0{fill:none;stroke:#000000;stroke-width:0.5;stroke-miterlimit:10;}
</style>
<g>
	<g>
		<path class="st0" d="M13.04,6.96l5.92,5.93 M9.98,9.92c0,0,0-6.87,0-6.92C9.96,2.85,9.89,2.74,9.75,2.68
			C9.62,2.63,9.5,2.64,9.38,2.74c-0.24,0.2-4.16,3.53-4.61,3.91c-0.14,0.12-0.3,0.18-0.5,0.18c-1.02-0.01-2.04,0-3.06,0
			c-0.05,0-0.09,0-0.14,0C1.03,6.83,1,6.85,1,6.91C1,6.95,1,7,1,7.04c0,1.1,0,5.01,0,5.41c0,0.26-0.02,0.23,0.23,0.23
			c1.04,0,2.08,0,3.12,0c0.16,0,0.3,0.05,0.41,0.16c0.19,0.18,4.57,4.19,4.68,4.3c0.06,0.05,0.12,0.06,0.19,0.05
			c0.13-0.02,0.32-0.16,0.33-0.34C9.98,16.79,9.98,9.92,9.98,9.92z M13.04,12.89l5.92-5.93"/>
	</g>
</g>
</svg>
