<?xml version="1.0" encoding="utf-8"?>
<!-- Generator: Adobe Illustrator 23.0.3, SVG Export Plug-In . SVG Version: 6.00 Build 0)  -->
<svg version="1.1" id="Слой_1" xmlns="http://www.w3.org/2000/svg" xmlns:xlink="http://www.w3.org/1999/xlink" x="0px" y="0px"
	 viewBox="0 0 19.84 19.84" style="enable-background:new 0 0 19.84 19.84;" xml:space="preserve">
<style type="text/css">
	.st0{fill:none;stroke:#000000;stroke-width:0.5;stroke-linejoin:bevel;stroke-miterlimit:10;}
	.st1{fill:none;stroke:#000000;stroke-width:0.5;stroke-miterlimit:10;}
</style>
<g>
	<g>
		<path class="st0" d="M9.72,2.81v-2.1 M14.7,2.04l-1.05,1.82 M18,5.49l-1.82,1.05 M19.13,10.12h-2.1 M9.72,19.13v-2.1 M5.48,1.84
			l1.05,1.82 M3.66,6.54L1.84,5.49 M2.81,10.12h-2.1 M3.86,13.65L2.04,14.7 M6.53,16.18L5.48,18 M15.77,9.92
			c0-1.61-0.66-3.08-1.71-4.13C13,4.73,11.53,4.08,9.92,4.08S6.84,4.73,5.79,5.79C4.73,6.85,4.08,8.31,4.08,9.92S4.73,13,5.79,14.05
			c1.06,1.06,2.52,1.71,4.13,1.71"/>
	</g>
	<g>
		<path class="st1" d="M12.26,17.26h3.43 M12.26,15.65h4.07c2.19,0,2.14-3.84,0-3.84h-2.94v7.32"/>
	</g>
</g>
</svg>
