<?xml version="1.0" encoding="utf-8"?>
<!-- Generator: Adobe Illustrator 23.0.3, SVG Export Plug-In . SVG Version: 6.00 Build 0)  -->
<svg version="1.1" id="Слой_1" xmlns="http://www.w3.org/2000/svg" xmlns:xlink="http://www.w3.org/1999/xlink" x="0px" y="0px"
	 viewBox="0 0 19.84 19.84" style="enable-background:new 0 0 19.84 19.84;" xml:space="preserve">
<style type="text/css">
	.st0{fill:none;stroke:#000000;stroke-width:0.5;stroke-linejoin:bevel;stroke-miterlimit:10;}
</style>
<g>
	<g>
		<path class="st0" d="M15.9,3.96l-3.44,0.9l-0.9-3.46 M9.92,9.23l4.66-8 M17.44,11.8l-2.5-2.55l2.53-2.51 M9.92,9.23l9.21,0.06
			 M2.37,11.7L4.9,9.19L2.4,6.65 M9.92,9.23L0.71,9.16 M4.01,3.88l3.43,0.95l0.94-3.45 M9.92,9.23L5.37,1.17 M9.92,10.02L9.92,10.02
			c-0.42,2.27-3.04,3.19-3.04,5.55c0,1.59,1.42,2.99,3.03,2.99c1.62,0,3.03-1.39,3.03-2.99C12.96,13.21,10.34,12.29,9.92,10.02z"/>
	</g>
</g>
</svg>
