<?xml version="1.0" encoding="utf-8"?>
<!-- Generator: Adobe Illustrator 23.0.3, SVG Export Plug-In . SVG Version: 6.00 Build 0)  -->
<svg version="1.1" id="Слой_1" xmlns="http://www.w3.org/2000/svg" xmlns:xlink="http://www.w3.org/1999/xlink" x="0px" y="0px"
	 viewBox="0 0 19.84 19.84" style="enable-background:new 0 0 19.84 19.84;" xml:space="preserve">
<g>
	<g>
		<path d="M5.19,11.18L4.28,8.55c-0.2-0.6-0.34-1.14-0.48-1.67H3.77C3.64,7.41,3.5,7.98,3.31,8.53l-0.9,2.65H5.19z M2.17,12.1
			l-0.95,2.88H0l3.12-9.15h1.41l3.12,9.15H6.39L5.42,12.1H2.17z"/>
	</g>
</g>
<polygon points="10.21,8.82 10.21,10.42 11.75,10.42 11.75,10.83 10.21,10.83 10.21,12.43 9.78,12.43 9.78,10.83 8.24,10.83 
	8.24,10.42 9.78,10.42 9.78,8.82 "/>
<polygon points="14.26,8.82 14.26,10.42 15.79,10.42 15.79,10.83 14.26,10.83 14.26,12.43 13.83,12.43 13.83,10.83 12.29,10.83 
	12.29,10.42 13.83,10.42 13.83,8.82 "/>
<polygon points="17.87,8.82 17.87,10.42 16.34,10.42 16.34,10.83 17.87,10.83 17.87,12.43 18.31,12.43 18.31,10.83 19.84,10.83 
	19.84,10.42 18.31,10.42 18.31,8.82 "/>
</svg>
