<?xml version="1.0" encoding="utf-8"?>
<!-- Generator: Adobe Illustrator 23.0.3, SVG Export Plug-In . SVG Version: 6.00 Build 0)  -->
<svg version="1.1" id="Слой_1" xmlns="http://www.w3.org/2000/svg" xmlns:xlink="http://www.w3.org/1999/xlink" x="0px" y="0px"
	 viewBox="0 0 19.84 19.84" style="enable-background:new 0 0 19.84 19.84;" xml:space="preserve">
<style type="text/css">
	.st0{fill:none;stroke:#000000;stroke-width:0.5;stroke-miterlimit:10;}
	.st1{fill:none;stroke:#000000;stroke-width:0.5;stroke-linejoin:bevel;stroke-miterlimit:10;}
</style>
<g>
	<g>
		<path class="st0" d="M8.72,17.68c-4.29,0-7.76-3.47-7.76-7.76s3.47-7.76,7.76-7.76s7.76,3.47,7.76,7.76"/>
	</g>
	<g>
		<path class="st1" d="M18.98,5.56c-2.38,1.83-2.33,4.47-2.33,4.47S14.87,7.5,12.1,7.74"/>
	</g>
	<g>
		<path d="M14.45,15.21l-0.55-1.7c-0.12-0.38-0.2-0.73-0.29-1.07H13.6c-0.08,0.34-0.16,0.71-0.28,1.07l-0.54,1.7H14.45z
			 M12.63,15.81l-0.57,1.85h-0.74l1.88-5.89h0.85l1.88,5.89h-0.76l-0.59-1.85C14.58,15.81,12.63,15.81,12.63,15.81z"/>
	</g>
</g>
</svg>
