<?xml version="1.0" encoding="utf-8"?>
<!-- Generator: Adobe Illustrator 23.0.3, SVG Export Plug-In . SVG Version: 6.00 Build 0)  -->
<svg version="1.1" id="Слой_1" xmlns="http://www.w3.org/2000/svg" xmlns:xlink="http://www.w3.org/1999/xlink" x="0px" y="0px"
	 viewBox="0 0 19.84 19.84" style="enable-background:new 0 0 19.84 19.84;" xml:space="preserve">
<style type="text/css">
	.st0{fill:none;stroke:#000000;stroke-width:0.5;stroke-linecap:round;stroke-linejoin:bevel;stroke-miterlimit:10;}
	.st1{fill:none;stroke:#000000;stroke-width:0.5;stroke-miterlimit:10;}
</style>
<g>
	<g>
		<path class="st0" d="M15.54,1.72l3.45,3.44 M15.54,1.72l-3.45,3.44 M15.54,1.72c0,10.33-4.02,16.62-14.86,16.32"/>
	</g>
	<g>
		<path class="st1" d="M3.9,3.24h4.16c0.07,0,0.12,0.06,0.12,0.13c0,0.02,0,0.05-0.01,0.06L6.64,6.39h1.92
			c0.07,0,0.12,0.06,0.12,0.13c0,0.02-0.01,0.05-0.02,0.06l-3.49,6.78c-0.03,0.06-0.11,0.09-0.16,0.05
			c-0.04-0.03-0.06-0.07-0.06-0.12V8.68H3.9c-0.07,0-0.12-0.06-0.12-0.13V3.37C3.78,3.3,3.83,3.24,3.9,3.24z"/>
	</g>
</g>
</svg>
