<?xml version="1.0" encoding="utf-8"?>
<!-- Generator: Adobe Illustrator 23.0.3, SVG Export Plug-In . SVG Version: 6.00 Build 0)  -->
<svg version="1.1" id="Слой_1" xmlns="http://www.w3.org/2000/svg" xmlns:xlink="http://www.w3.org/1999/xlink" x="0px" y="0px"
	 viewBox="0 0 19.84 19.84" style="enable-background:new 0 0 19.84 19.84;" xml:space="preserve">
<style type="text/css">
	.st0{fill:none;stroke:#1D1D1B;stroke-width:0.5;stroke-miterlimit:10;}
</style>
<g>
	<path class="st0" d="M11.65,12.94H8.19l-1.73,3.02l1.73,3.02h3.45l1.73-3.02L11.65,12.94z M6.47,9.92H3.01l-1.73,3.02l1.73,3.02
		h3.45l1.73-3.02L6.47,9.92z M16.83,9.92h-3.46l-1.73,3.02l1.73,3.02h3.46l1.73-3.02L16.83,9.92z M11.65,6.9H8.19L6.47,9.92
		l1.73,3.02h3.45l1.73-3.02L11.65,6.9z M6.47,3.88H3.01L1.28,6.9l1.73,3.02h3.45L8.19,6.9L6.47,3.88z M16.83,3.88h-3.46L11.65,6.9
		l1.73,3.02h3.46l1.73-3.02L16.83,3.88z M11.65,0.86H8.19L6.47,3.88L8.19,6.9h3.45l1.73-3.02L11.65,0.86z"/>
</g>
</svg>
