<?xml version="1.0" encoding="utf-8"?>
<!-- Generator: Adobe Illustrator 23.0.3, SVG Export Plug-In . SVG Version: 6.00 Build 0)  -->
<svg version="1.1" id="Слой_1" xmlns="http://www.w3.org/2000/svg" xmlns:xlink="http://www.w3.org/1999/xlink" x="0px" y="0px"
	 viewBox="0 0 19.84 19.84" style="enable-background:new 0 0 19.84 19.84;" xml:space="preserve">
<style type="text/css">
	.st0{fill:none;stroke:#1D1D1B;stroke-width:0.5;stroke-linecap:round;stroke-linejoin:round;stroke-miterlimit:10;}
</style>
<g>
	<polyline class="st0" points="17.68,6.87 18.88,4.24 16.3,3 	"/>
	<path class="st0" d="M18.88,4.22l-1.51,0.59c-1.78,0.7-4.17,0.7-5.94,0L9.92,4.22 M0.96,4.22l1.51-0.59c1.78-0.7,4.17-0.7,5.94,0
		l1.51,0.59"/>
	<polyline class="st0" points="17.68,11.85 18.88,9.23 16.3,7.99 	"/>
	<path class="st0" d="M18.88,9.21L17.37,9.8c-1.78,0.7-4.17,0.7-5.94,0L9.92,9.21 M0.96,9.21l1.51-0.59c1.78-0.7,4.17-0.7,5.94,0
		l1.51,0.59"/>
	<polyline class="st0" points="17.68,16.84 18.88,14.21 16.3,12.97 	"/>
	<path class="st0" d="M18.88,14.19l-1.51,0.59c-1.78,0.7-4.17,0.7-5.94,0l-1.51-0.59 M0.96,14.19l1.51-0.59
		c1.78-0.7,4.17-0.7,5.94,0l1.51,0.59"/>
</g>
</svg>
