<?xml version="1.0" encoding="utf-8"?>
<!-- Generator: Adobe Illustrator 23.0.3, SVG Export Plug-In . SVG Version: 6.00 Build 0)  -->
<svg version="1.1" id="Слой_1" xmlns="http://www.w3.org/2000/svg" xmlns:xlink="http://www.w3.org/1999/xlink" x="0px" y="0px"
	 viewBox="0 0 19.84 19.84" style="enable-background:new 0 0 19.84 19.84;" xml:space="preserve">
<style type="text/css">
	.st0{fill:none;stroke:#1D1D1B;stroke-width:0.5;stroke-miterlimit:10;}
</style>
<g>
	<path class="st0" d="M1.67,11.22c-0.44,0.51-0.71,1.18-0.71,1.91c0,0.81,0.33,1.55,0.86,2.08c0.53,0.53,1.27,0.86,2.08,0.86
		l11.13,0.01v0h0v0c0.81,0,1.55-0.33,2.08-0.86c0.53-0.53,0.86-1.26,0.86-2.07h0h0c0-0.75-0.29-1.44-0.75-1.96
		c-0.47-0.52-1.13-0.88-1.87-0.96c-0.07-0.01-0.14-0.05-0.17-0.13c-0.2-0.59-0.58-1.09-1.07-1.44c-0.48-0.34-1.07-0.55-1.71-0.55
		c-0.14,0-0.28,0.01-0.42,0.03c-0.14,0.02-0.28,0.05-0.41,0.09v0c-0.08,0.02-0.16,0-0.21-0.07c-0.39-0.55-0.92-1.01-1.53-1.33
		c-0.59-0.3-1.26-0.48-1.96-0.48c-1.08,0-2.07,0.4-2.82,1.06c-0.76,0.67-1.28,1.59-1.42,2.64c-0.01,0.09-0.07,0.16-0.16,0.18
		C2.75,10.34,2.12,10.7,1.67,11.22L1.67,11.22z M12.72,6.03c0.84-0.1,1.68,0.08,2.38,0.49c0.7,0.41,1.28,1.03,1.61,1.81 M12.14,3.85
		c1.44-0.25,2.88,0.04,4.07,0.73c1.2,0.69,2.16,1.79,2.67,3.16"/>
</g>
</svg>
