<?xml version="1.0" encoding="utf-8"?>
<!-- Generator: Adobe Illustrator 23.0.3, SVG Export Plug-In . SVG Version: 6.00 Build 0)  -->
<svg version="1.1" id="Слой_1" xmlns="http://www.w3.org/2000/svg" xmlns:xlink="http://www.w3.org/1999/xlink" x="0px" y="0px"
	 viewBox="0 0 19.84 19.84" style="enable-background:new 0 0 19.84 19.84;" xml:space="preserve">
<style type="text/css">
	.st0{fill:none;stroke:#1D1D1B;stroke-width:0.5;stroke-linejoin:bevel;stroke-miterlimit:10;}
</style>
<g>
	<path class="st0" d="M8.17,10.96C7.71,10.08,8.04,9,8.92,8.54c0.88-0.46,1.96-0.13,2.42,0.75c0.46,0.88,0.51,4.8,0.51,4.8
		S8.64,11.83,8.17,10.96z M13.73,16.52l-0.9-1.55 M16.52,13.73l-1.55-0.9 M17.54,9.92h-1.79 M16.52,6.11l-1.55,0.9 M13.73,3.32
		l-0.9,1.55 M9.92,2.3v1.79 M18.88,9.92c0,4.95-4.01,8.96-8.96,8.96s-8.96-4.01-8.96-8.96s4.01-8.96,8.96-8.96
		S18.88,4.97,18.88,9.92z"/>
</g>
</svg>
