<?xml version="1.0" encoding="utf-8"?>
<!-- Generator: Adobe Illustrator 23.0.3, SVG Export Plug-In . SVG Version: 6.00 Build 0)  -->
<svg version="1.1" id="Слой_1" xmlns="http://www.w3.org/2000/svg" xmlns:xlink="http://www.w3.org/1999/xlink" x="0px" y="0px"
	 viewBox="0 0 19.84 19.84" style="enable-background:new 0 0 19.84 19.84;" xml:space="preserve">
<style type="text/css">
	.st0{fill:none;stroke:#1D1D1B;stroke-width:0.5;stroke-linejoin:bevel;stroke-miterlimit:10;}
	.st1{fill:#1D1D1B;}
</style>
<path class="st0" d="M15.9,4.36l-3.44,0.9l-0.9-3.46 M9.92,9.63l4.66-8 M14.94,9.66l2.53-2.51 M9.92,9.63l9.21,0.06 M4.9,9.59
	L2.4,7.05 M9.92,9.63L0.71,9.56 M4.01,4.28l3.43,0.95l0.94-3.45 M9.92,9.63L5.37,1.57 M9.92,10.42L9.92,10.42"/>
<g>
	<path class="st1" d="M7.71,11.64c-0.67,0-1.21,0.55-1.21,1.22c0,0.67,0.54,1.22,1.21,1.22c0.68,0,1.23-0.55,1.23-1.22
		C8.94,12.17,8.4,11.64,7.71,11.64z M7.71,13.67c-0.42,0-0.76-0.36-0.76-0.81c0-0.46,0.33-0.81,0.76-0.81
		c0.45,0,0.79,0.35,0.79,0.81C8.5,13.31,8.15,13.67,7.71,13.67z"/>
</g>
<rect x="3" y="15.43" class="st1" width="2.66" height="0.57"/>
<path class="st1" d="M12.77,11.64c-1.78,0-2.93,1.28-2.93,3.27c0,2,1.12,3.29,2.86,3.29c1.4,0,2.4-0.74,2.7-2h-0.69
	c-0.25,0.91-0.96,1.42-1.96,1.42c-1.32,0-2.18-1.07-2.18-2.72c0-1.64,0.84-2.69,2.15-2.69c0.98,0,1.7,0.53,1.95,1.42h0.69
	C15.07,12.4,14.08,11.64,12.77,11.64z"/>
</svg>
