<?xml version="1.0" encoding="utf-8"?>
<!-- Generator: Adobe Illustrator 23.0.3, SVG Export Plug-In . SVG Version: 6.00 Build 0)  -->
<svg version="1.1" id="Слой_1" xmlns="http://www.w3.org/2000/svg" xmlns:xlink="http://www.w3.org/1999/xlink" x="0px" y="0px"
	 viewBox="0 0 19.84 19.84" style="enable-background:new 0 0 19.84 19.84;" xml:space="preserve">
<style type="text/css">
	.st0{fill:none;stroke:#1D1D1B;stroke-width:0.5;stroke-miterlimit:10;}
</style>
<g>
	<path class="st0" d="M6.74,11.99c0-1.76,1.43-3.18,3.18-3.18c1.76,0,3.18,1.43,3.18,3.19s-1.43,3.18-3.19,3.18
		C8.16,15.17,6.74,13.75,6.74,11.99z M6.82,11.99c0-1.72,1.4-3.11,3.11-3.1c1.72,0,3.11,1.4,3.1,3.11c0,1.72-1.4,3.11-3.11,3.1
		C8.2,15.1,6.81,13.7,6.82,11.99z M14.87,15.44c0-1.11,0.9-2,2.01-2c1.11,0,2,0.9,2,2.01c0,1.11-0.9,2-2.01,2
		C15.77,17.44,14.87,16.55,14.87,15.44z M14.94,15.44c0-1.07,0.87-1.93,1.93-1.93c1.07,0,1.93,0.87,1.93,1.94
		c0,1.07-0.87,1.93-1.94,1.93C15.81,17.37,14.94,16.51,14.94,15.44z M0.96,15.42c0-1.11,0.9-2,2.01-2c1.11,0,2,0.9,2,2.01
		c0,1.11-0.9,2-2.01,2C1.85,17.42,0.96,16.53,0.96,15.42z M1.03,15.42c0-1.07,0.87-1.93,1.94-1.93c1.07,0,1.93,0.87,1.93,1.94
		c0,1.07-0.87,1.93-1.93,1.93C1.89,17.35,1.03,16.49,1.03,15.42z M15.11,14.49l-2.32-1.14 M11.94,4.32c0,1.06-0.86,1.92-1.93,1.92
		c-1.06,0-1.92-0.86-1.92-1.92c0-1.06,0.86-1.92,1.93-1.92C11.08,2.4,11.94,3.26,11.94,4.32z M4.73,14.63l2.38-1.17 M11.87,4.4
		c0,1.07-0.87,1.93-1.94,1.93C8.86,6.33,8,5.47,8,4.4c0-1.07,0.87-1.93,1.94-1.93C11.01,2.47,11.87,3.33,11.87,4.4z M9.93,6.33
		l0,2.55"/>
</g>
</svg>
