<?xml version="1.0" encoding="utf-8"?>
<!-- Generator: Adobe Illustrator 23.0.3, SVG Export Plug-In . SVG Version: 6.00 Build 0)  -->
<svg version="1.1" id="Слой_1" xmlns="http://www.w3.org/2000/svg" xmlns:xlink="http://www.w3.org/1999/xlink" x="0px" y="0px"
	 viewBox="0 0 19.84 19.84" style="enable-background:new 0 0 19.84 19.84;" xml:space="preserve">
<style type="text/css">
	.st0{fill:none;stroke:#1D1D1B;stroke-width:0.5;stroke-miterlimit:10;}
</style>
<g>
	<path class="st0" d="M5.34,9.23C5.32,9.24,5.3,9.24,5.28,9.24l-1.14,0v0H4.09l-0.05,0l-0.02,0H3.39H3.38
		C3.16,9.28,2.96,9.39,2.81,9.54l0,0C2.62,9.73,2.5,9.99,2.5,10.27v7.57c0,0.28,0.12,0.55,0.31,0.73c0.19,0.19,0.45,0.3,0.73,0.3
		H16.3c0.29,0,0.55-0.12,0.73-0.3v0c0.19-0.19,0.3-0.45,0.3-0.73v-7.57c0-0.28-0.12-0.55-0.3-0.73c-0.15-0.15-0.35-0.26-0.57-0.29
		h-1.89c-0.03,0-0.05,0-0.08-0.01H5.34z M16.2,8.72l0-1.48c0-0.85-0.17-1.66-0.48-2.4c-0.32-0.77-0.79-1.46-1.37-2.04
		c-0.58-0.58-1.27-1.05-2.04-1.37c-0.74-0.31-1.55-0.48-2.4-0.48s-1.66,0.17-2.4,0.48C6.76,1.75,6.07,2.22,5.49,2.8
		C4.91,3.38,4.44,4.07,4.12,4.84c-0.31,0.74-0.48,1.55-0.48,2.4l0,1.48 M9.92,10.77c-0.5,0-0.96,0.2-1.29,0.53
		c-0.33,0.33-0.54,0.79-0.54,1.29c0,0.3,0.07,0.59,0.2,0.84c0.11,0.22,0.27,0.41,0.46,0.57l0,2.19c0,0.25,0.1,0.48,0.27,0.64
		c0.16,0.17,0.39,0.27,0.64,0.27h0.52c0.25,0,0.48-0.1,0.64-0.27c0.17-0.17,0.27-0.39,0.27-0.64h0l0-2.19
		c0.19-0.16,0.34-0.35,0.46-0.57c0.13-0.25,0.2-0.53,0.2-0.84c0-0.5-0.2-0.96-0.53-1.29C10.88,10.98,10.43,10.77,9.92,10.77z"/>
</g>
</svg>
