<svg xmlns="http://www.w3.org/2000/svg" width="177" height="92"><path fill-rule="evenodd" fill="#E10F21" d="M125.94 67.977c11.72 2.93 22.47 8.951 35.24 8.789 1.94-.651 3.961-1.465 5.82-2.522-.566 2.115-2.991 3.498-4.607 4.882-15.196 8.87-29.42-2.929-42.11-8.789-5.739 2.279-12.69 5.128-18.995 2.523-.404-.65-.888-1.546-.404-2.278 4.203-4.639 10.669-3.622 16.812-3.54.768-.163 4.203.692 5.092-.041 15.276-8.3 27.4-22.704 32.008-39.385.726-3.092 1.212-7.731-.405-10.416-1.94-2.604-4.365-3.662-7.516-3.662.242-.57.161-1.465.969-1.546 4.688 0 9.457.895 12.609 4.069 4.042 5.126 3.314 13.182 1.131 19.123-6.87 16.112-21.175 24.575-35.644 32.793zm-18.428 1.953c-.566.733-.808 1.547.162 2.198 3.556.244 6.708-.896 9.295-2.524-3.072-.813-6.709-1.22-9.457.326zM81.631 45.751c0-1.127-.271-2.123-1.414-2.123-1.24 0-1.569.888-1.569 2.34v5.785h-4.029V35.487h4.029v6.343c.813-1.149 1.724-1.755 3.079-1.755 2.674 0 3.932 1.755 3.932 4.875v6.803h-4.028v-6.002zm-13.73 3.294c1.046 0 1.452-.802 1.569-1.691h4.067c-.349 3.446-2.828 4.724-5.636 4.724-3.273 0-5.791-2.059-5.791-5.893 0-3.879 2.441-6.11 5.791-6.11 2.711 0 5.268 1.3 5.559 4.658h-4.087c-.02-.498-.174-.889-.426-1.17-.252-.304-.601-.455-1.046-.455-1.511 0-1.762 1.755-1.762 3.098 0 1.712.581 2.839 1.762 2.839zm-11.987.281c.639 0 1.22-.325 1.511-.996h3.854c-.697 2.816-3.253 3.748-5.616 3.748-3.254 0-5.772-2.08-5.772-5.893 0-3.727 2.498-6.11 5.752-6.11 3.758 0 6.024 2.903 5.966 7.02h-7.69c0 1.343.93 2.231 1.995 2.231zm1.666-4.528c0-1.04-.833-1.972-1.782-1.972-1.201 0-1.879.759-1.879 1.972h3.661zm-18.165 3.943l4.59-5.048h-4.184V40.4h9.142v3.141l-4.435 4.919h4.648v3.293h-9.761v-3.012zm-6.624.304c1.046 0 1.453-.802 1.569-1.691h4.067c-.348 3.446-2.828 4.724-5.636 4.724-3.273 0-5.791-2.059-5.791-5.893 0-3.879 2.44-6.11 5.791-6.11 2.712 0 5.268 1.3 5.559 4.658h-4.087c-.019-.498-.174-.889-.426-1.17-.252-.304-.6-.455-1.046-.455-1.511 0-1.763 1.755-1.763 3.098 0 1.712.582 2.839 1.763 2.839z"/><path fill-rule="evenodd" fill="#133F88" d="M139.602 14.116c-13.587 4.75-23.535 18.429-28.711 31.205-1.132 3.932-2.183 9.584.161 13.187 1.86 1.884 4.853 2.294 7.603 1.803 3.397-.819 6.47-2.785 8.897-5.488h.646c-.324 2.293-2.992 4.013-4.69 5.488-5.257 3.849-12.536 5.733-19.006 3.686-4.853-1.311-5.177-6.962-5.662-11.386 2.831-17.937 17.955-30.551 32.432-37.513 3.639-1.556 7.602-2.62 11.646-3.194.081 1.638-2.103 1.802-3.316 2.212zM45.42 21.954c-12.72 0-23.363 11.225-23.363 24.107s10.312 23.996 23.032 23.996c3.484 0 6.788-.542 9.749-1.856l9.079 9.003c-5.289 3.161-11.788 4.752-18.373 4.752C25.914 81.956 10 65.84 10 45.96 10 26.081 25.914 9.965 45.544 9.965c10.005 0 19.488 3.741 25.947 10.48l-8.263 8.411c-4.186-4.367-11.324-6.902-17.808-6.902z"/><path fill-rule="evenodd" d="M131.612 91.987c-20.077 0-37.15-13.274-43.119-31.614-5.978 18.324-23.044 31.582-43.11 31.582-25.027 0-45.388-20.627-45.388-45.981 0-25.355 20.361-45.982 45.388-45.982 20.076 0 37.15 13.274 43.12 31.614C94.48 13.281 111.546.024 131.612.024c25.027 0 45.387 20.627 45.387 45.982 0 25.354-20.36 45.981-45.387 45.981zM45.383 1.613c-24.137 0-43.774 19.9-43.774 44.361 0 24.46 19.637 44.36 43.774 44.36 20.205 0 37.257-13.945 42.276-32.836a46.507 46.507 0 0 1-1.435-11.492c0-3.979.501-7.841 1.444-11.526C82.659 15.573 65.6 1.613 45.383 1.613zM88.5 38.294a45.151 45.151 0 0 0-.662 7.712c0 2.618.225 5.185.657 7.68.435-2.505.662-5.083.662-7.712 0-2.619-.225-5.185-.657-7.68zm43.112-36.649c-20.205 0-37.256 13.945-42.275 32.836a46.514 46.514 0 0 1 1.434 11.493c0 3.978-.501 7.84-1.443 11.525 5.008 18.908 22.067 32.867 42.284 32.867 24.137 0 43.774-19.9 43.774-44.36 0-24.461-19.637-44.361-43.774-44.361zM72.684 72.682l-1.143 1.158 2.384 2.415-.961.973-2.384-2.415-1.407 1.427 2.71 2.745-.96.975-3.712-3.76 5.433-5.506 3.596 3.643-.961.973-2.595-2.628zm-8.409.543l-2.118-2.147 5.434-5.505 2.158 2.188c1.648 1.67.43 3.594-.6 4.637-1.165 1.181-3.26 2.462-4.874.827zm4.359-4.693l-.98-.993-3.558 3.603.995 1.008c.831.841 2.04.181 2.933-.724 1.605-1.625 1.045-2.452.61-2.894zm-8.377.62l.806-1.451-1.804-1.829-1.461.79-1.076-1.09 7.177-3.739 1.178 1.193-3.711 7.251-1.109-1.125zm3.001-5.483l-.013-.014-2.775 1.543 1.245 1.262 1.543-2.791zm-8.225.191l4.541-4.6-.014-.014-5.453 3.677-1.001-1.015 3.648-5.504-.013-.014-4.541 4.6-.953-.965 5.433-5.506 1.492 1.512-3.398 5.236.013.014 5.155-3.457 1.478 1.497-5.433 5.505-.954-.966z"/></svg>