<svg xmlns="http://www.w3.org/2000/svg" width="80" height="79"><defs><filter filterUnits="userSpaceOnUse" id="a" x="-787" y="-2116" width="1658" height="3593"><feOffset in="SourceAlpha" dy="5"/><feGaussianBlur result="blurOut" stdDeviation="3.873"/><feFlood flood-color="#000" result="floodOut"/><feComposite operator="atop" in="floodOut" in2="blurOut"/><feComponentTransfer><feFuncA type="linear" slope=".15"/></feComponentTransfer><feMerge><feMergeNode/><feMergeNode in="SourceGraphic"/></feMerge></filter></defs><g filter="url(#a)" fill-rule="evenodd"><path fill="#1E3F7B" d="M42.108 33.866L19.174 18.585A25.084 25.084 0 0 0 14 33.871a25.076 25.076 0 0 0 5.173 15.283l22.942-15.283-.007-.005z"/><path fill="#FFF" d="M65 33.741H42.071l.007.005L19.1 48.993A25.595 25.595 0 0 0 39.46 59C53.565 59 65 47.693 65 33.746v-.005z"/><path fill="#DA122D" d="M39.328 9a25.594 25.594 0 0 0-20.359 10.009l22.97 15.25h22.93C64.866 20.308 53.432 9 39.328 9z"/></g></svg>