<svg xmlns="http://www.w3.org/2000/svg" width="312" height="125"><path fill-rule="evenodd" fill="#009EE2" d="M141.531 105.789L131.46 44.642h-13.107l1.212 9.414c-.419 16.308-5.585 31.004-14.385 41.94l-7.178-51.354H84.993c-4.322 44.989-19.312 56.206-40.68 61.489 25.046 1.09 38.115-12.078 44.994-28.957l4.531 29.387c-6.916 4.755-15.021 7.819-24.075 8.702-30.684 2.975-61.039-14.927-69.727-43.92 2.871 30.076 29.181 53.647 61.211 53.647 31.035 0 56.71-22.131 60.882-50.873l4.052 31.672h15.35zm169.875-31.004c-.957-10.179-8.949-14.215-18.699-13.881-7.491.275-15.79 4.14-18.699 13.644l5.107 1.506c4.366-10.928 22.235-10.409 22.617.846v1.766c-2.146-1.15-5.309-1.759-9.929-1.625-11.26 0-17.936 6.647-18.4 14.838-.464 8.197 5.323 14.837 16.733 14.837 5.405 0 9.129-1.49 11.596-3.909v3.205h9.674V74.785zm-17.285 9.326c2.968 0 5.652.393 7.611 1.729v11.039c-1.825 1.269-4.509 2.144-8.322 2.352-6.003 0-10.168-3.391-10.168-7.56 0-4.177 4.875-7.56 10.879-7.56zm-50.273-23.118c12.561 0 22.751 9.341 22.751 23.073 0 .876-.045 1.736-.142 2.59h-33.42c2.063 7.189 7.432 10.497 16.403 10.201 6.146-.23 9.451-2.768 11.17-5.401h5.137c-1.832 8.517-7.843 14.994-20.052 15.12-15.268 0-24.606-9.764-24.606-22.51 0-12.738 10.191-23.073 22.759-23.073zm.635 8.703c6.251 0 9.316 3.776 10.887 9.044h-21.765c1.57-5.268 4.635-9.044 10.878-9.044zM10.832 82.182S-2.737 62.878 8.888 36.815c7.41-16.611 20.621-28.92 38.692-33.771 29.966-8.05 62.16 7.292 72.837 36.634 0 0-17.002-28.689-55.671-26.56C28.843 15.099 3.894 47.52 10.832 82.182zm182.13-12.323c3.731 0 7.088 1.647 9.466 4.281v18.8c-2.378 2.633-5.735 4.28-9.466 4.28-7.185 0-13.017-6.12-13.017-13.68 0-7.553 5.832-13.681 13.017-13.681zm9.466-25.506h11.431v61.436h-11.431v-4.169c-3.918 3.413-8.845 5.468-14.086 5.468-11.791 0-20.733-10.38-19.97-23.177.755-12.798 9.615-23.177 22.714-23.177 4.261 0 8.149 1.357 11.342 3.694V44.353zm-53.772 16.381h11.237v45.055h-11.237V60.734zm0-16.381h11.237v11.172h-11.237V44.353z"/></svg>