<svg xmlns="http://www.w3.org/2000/svg" viewBox="0 0 141.73 29.57"><defs><style>.cls-1{fill:#7dc7f5}.cls-2{fill:#201600}.cls-3{fill:#41a6e4}</style></defs><title>Ресурс 1</title><g id="Слой_2" data-name="Слой 2"><path class="cls-1" d="M0 0H32.02L0 29.57V0z"/><path class="cls-2" d="M16.01 0H0v14.79L16.01 0z"/><path class="cls-3" d="M111.42 6.37h7.54l-4.16 16.88h-7.53l4.15-16.88zM84.69 23.25h6.84l1.24-5.1 3.78 5.1h8.37l-6.03-8.57 9.38-8.31h-7.92l-6 5.17 1.29-5.17h-7.15l-3.8 16.88zM73.03 23.25l4.16-16.88h7.53l-4.16 16.88h-7.53zM118.39 23.25h5.21l2.43-9.63 3.05 9.63h8.43l4.22-16.88h-5.56l-2.37 9.31-3.27-9.31h-7.94l-4.2 16.88zM27.8 23.25L32 6.37h11.34s7.79.62 7 8.51c0 .23-.4 7-8.71 8.37zm11.44-3.93a5 5 0 0 0 4.16-4.08s.48-2.92-.62-4a2.7 2.7 0 0 0-1.83-.65h-2.89L36 19.32zM56.63 20l-2 3.21h-5L59 6.37h8.6l3 16.88h-7.5L62.55 20zm5.24-3.87l-.77-4.32-2.37 4.32z"/></g></svg>