<svg xmlns="http://www.w3.org/2000/svg" width="411" height="61"><path fill-rule="evenodd" fill="#164194" d="M391.135 35.897v-8.353h18.891v17.617s-.187 5.012-.923 6.586c0 0-.667 2.697-3.251 4.647 0 0-2.807 3-12.106 4.045-.355.019-21.253 1.593-21.708-13.912V16.543S369.686.011 390.896.011c0 0 13.801-.455 17.451 7.868 0 0 1.804 2.229 1.324 11.431h-14.707v-4.716s-.027-3.81-3.847-3.81c0 0-3.978.171-3.978 3.366v31.011s-.169 4.163 4.315 4.163c0 0 3.686-.081 3.686-4.461v-8.966h-4.005zm-67.864-11.488h-.649l.871 34.628h-14.531V2.126h17.853l14.929 34.633h.64l-1.048-34.636h14.717v56.914h-17.32l-15.462-34.628zm-53.619 36.297c-22.329 0-20.694-16.075-20.694-16.075V2.161H264.9l.045 42.81c0 4.8 4.486 4.556 4.486 4.556 4.262 0 4.05-4.671 4.05-4.671V2.163h15.578v43.205c0 15.572-19.407 15.338-19.407 15.338zm-51.264-35.858c2.469.97 6.457 3.476 6.457 3.476 7.46 4.559 6.785 13.223 6.785 13.223v5.697c-.898 14.139-20.09 13.742-20.09 13.742-20.092 0-19.653-13.389-19.653-13.389v-7.002h15.633v4.819c0 4.105 3.904 4.285 3.904 4.285 4.268.17 4.625-4.016 4.625-4.016.584-4.077-3.836-6.639-3.836-6.639-4.377-2.284-11.672-6.275-11.672-6.275-3.594-2.394-5.052-4.56-5.052-4.56-2.581-3.305-2.414-8.436-2.414-8.436v-4.448c0-6.156 1.629-7.922 1.629-7.922C198.856-.52 213.335.447 213.335.447c18.411.511 17.282 12.141 17.282 12.141l.027 7.104h-14.672v-4.823c0-3.419-4.094-3.647-4.094-3.647-3.145 0-3.873 2.165-3.873 2.165-1.741 3.308 1.232 6.156 1.232 6.156 1.517 1.711 9.151 5.305 9.151 5.305zm-57.756-8.477h-1.01l-7.597 42.647h-15.266l-7.692-42.663h-1.141l-.173 42.673h-14.511l1.226-56.635h24.509l4.693 30.996h1.149l4.913-31.276H174l1.569 56.915h-14.586l-.351-42.657zm-84.308-1.305h-1.285L69.32 58.963H53.7l9.654-56.615h24.653l9.652 56.615H82.04l-5.716-43.897zM26.51 24.848c2.47.97 6.453 3.475 6.453 3.475 7.465 4.56 6.793 13.225 6.793 13.225v5.696c-.902 14.139-20.093 13.742-20.093 13.742C-.425 60.986.012 47.597.012 47.597v-7.005h15.637v4.822c0 4.105 3.903 4.285 3.903 4.285 4.266.17 4.625-4.016 4.625-4.016.584-4.08-3.84-6.642-3.84-6.642-4.378-2.282-11.669-6.272-11.669-6.272-3.593-2.394-5.051-4.56-5.051-4.56-2.583-3.307-2.415-8.436-2.415-8.436v-4.448c0-6.158 1.628-7.922 1.628-7.922.023-.041.055-.077.078-.122C6.893 1.069 18.042.46 18.042.46c2.035-.103 3.42-.013 3.42-.013 18.405.509 17.283 12.139 17.283 12.139l.029 7.106H24.097v-4.823c0-3.419-4.097-3.645-4.097-3.645-3.141 0-3.868 2.165-3.868 2.165-1.742 3.302 1.233 6.154 1.233 6.154 1.514 1.714 9.145 5.305 9.145 5.305z"/></svg>