<svg xmlns="http://www.w3.org/2000/svg" width="88" height="88" viewBox="0 0 88 88"><defs><linearGradient id="a" x1="0%" x2="61.566%" y1="0%" y2="78.801%"><stop offset="0%" stop-color="#000000" stop-opacity=".8"/><stop offset="44%" stop-color="#000000" stop-opacity=".8"/><stop offset="100%" stop-color="#000000" stop-opacity=".8"/></linearGradient></defs><path fill="url(#a)" d="M88 8v43H48v31h4v6H36v-6h4V51H0V8h19V6h-3V0h8v6h-3v2h22V6h-3V0h8v6h-3v2h22V6h-3V0h8v6h-3v2h19zM38 84v2h12v-2H38zm8-2V51h-4v31h4zM22 4V2h-4v2h4zm24 0V2h-4v2h4zm24 0V2h-4v2h4zM2 10v39h84V10H2zm2 2h80v35H4V12zm2 33h76V14H6v31zm39.5-3.505a2.485 2.485 0 0 1-3 0l-8.658-6.586a2.126 2.126 0 0 1-.73-2.374 2.135 2.135 0 0 1 2.027-1.453h2.324V19.44c0-1.345 1.105-2.44 2.463-2.44h8.148c1.358 0 2.463 1.095 2.463 2.44v11.642h2.324c.92 0 1.734.584 2.027 1.453a2.126 2.126 0 0 1-.73 2.374L45.5 41.495zm7.361-8.413H49a.452.452 0 0 1-.463-.44V19.44a.452.452 0 0 0-.463-.44h-8.148a.452.452 0 0 0-.463.44v13.202c0 .243-.207.44-.463.44h-3.861c-.131 0-.189.157-.087.235l8.659 6.587a.478.478 0 0 0 .578 0l8.658-6.587c.103-.078.045-.235-.086-.235z"/></svg>