<svg xmlns="http://www.w3.org/2000/svg" width="88" height="88" viewBox="0 0 88 88"><defs><linearGradient id="a" x1="0%" x2="61.566%" y1="0%" y2="78.801%"><stop offset="0%" stop-color="#000000" stop-opacity=".8"/><stop offset="44%" stop-color="#000000" stop-opacity=".8"/><stop offset="100%" stop-color="#000000" stop-opacity=".8"/></linearGradient></defs><path fill="url(#a)" d="M84 88H4c-2.206 0-4-1.795-4-4V4c0-2.206 1.794-4 4-4h80c2.206 0 4 1.794 4 4v80c0 2.205-1.794 4-4 4zm2-84a2 2 0 0 0-2-2H4a2 2 0 0 0-2 2v4h84V4zm0 6H2v74a2 2 0 0 0 2 2h80a2 2 0 0 0 2-2V10zm-9 66H64c-1.654 0-3-1.346-3-3V60c0-1.654 1.346-3 3-3h13c1.654 0 3 1.346 3 3v13c0 1.654-1.346 3-3 3zm1-16a1 1 0 0 0-1-1H64a1 1 0 0 0-1 1v13a1 1 0 0 0 1 1h13a1 1 0 0 0 1-1V60zm-1-10H64c-1.654 0-3-1.346-3-3V34c0-1.654 1.346-3 3-3h13c1.654 0 3 1.346 3 3v13c0 1.654-1.346 3-3 3zm1-16a1 1 0 0 0-1-1H64a1 1 0 0 0-1 1v13a1 1 0 0 0 1 1h13a1 1 0 0 0 1-1V34zM26 16h36v2H26v-2zm1 18v13c0 1.654-1.346 3-3 3H11c-1.654 0-3-1.346-3-3V34c0-1.654 1.346-3 3-3h13c1.654 0 3 1.346 3 3zm-2 0a1 1 0 0 0-1-1H11a1 1 0 0 0-1 1v13a1 1 0 0 0 1 1h13a1 1 0 0 0 1-1V34zM11 57h13c1.654 0 3 1.346 3 3v13c0 1.654-1.346 3-3 3H11c-1.654 0-3-1.346-3-3V60c0-1.654 1.346-3 3-3zm-1 16a1 1 0 0 0 1 1h13a1 1 0 0 0 1-1V60a1 1 0 0 0-1-1H11a1 1 0 0 0-1 1v13zm26-52h16v2H36v-2zm1 10h14c1.654 0 3 1.346 3 3v13c0 1.654-1.346 3-3 3H37c-1.654 0-3-1.346-3-3V34c0-1.654 1.346-3 3-3zm-1 16a1 1 0 0 0 1 1h14a1 1 0 0 0 1-1V34a1 1 0 0 0-1-1H37a1 1 0 0 0-1 1v13zm1 10h14c1.654 0 3 1.346 3 3v13c0 1.654-1.346 3-3 3H37c-1.654 0-3-1.346-3-3V60c0-1.654 1.346-3 3-3zm-1 16a1 1 0 0 0 1 1h14a1 1 0 0 0 1-1V60a1 1 0 0 0-1-1H37a1 1 0 0 0-1 1v13zM76 4a1 1 0 1 1 0 2 1 1 0 0 1 0-2zm3 0a1 1 0 1 1 0 2 1 1 0 0 1 0-2zm3 0a1 1 0 1 1 0 2 1 1 0 0 1 0-2z"/></svg>