<svg xmlns="http://www.w3.org/2000/svg" width="69" height="48" viewBox="0 0 69 48"><defs><linearGradient id="a" x1="0%" x2="61.566%" y1="0%" y2="78.801%"><stop offset="0%" stop-color="#00ADEF"/><stop offset="39%" stop-color="#19CDD7"/><stop offset="100%" stop-color="#31ECBE"/></linearGradient></defs><path fill="url(#a)" d="M66.194 47.582l-.3.418H3.09l-.3-.418c-.114-.158-2.794-3.961-2.794-10.425V22.129c0-1.282 1.177-3.071 3.091-3.071h62.811c1.914 0 3.09 1.789 3.09 3.071v15.028c0 6.464-2.68 10.267-2.794 10.425zm.785-25.453c0-.267-.384-1.074-1.081-1.074H3.087c-.698 0-1.081.807-1.081 1.074v15.028c0 4.663 1.531 7.771 2.157 8.846h60.656c.625-1.084 2.16-4.216 2.16-8.846V22.129zm-5.023 16.884H6.71a1 1 0 0 1-1.004-.998c0-.552.449-.999 1.004-.999h55.246c.555 0 1.005.447 1.005.999s-.45.998-1.005.998zM6.71 27.031a1.002 1.002 0 0 1-1.004-.999c0-.551.449-.999 1.004-.999.555 0 1.004.448 1.004.999 0 .551-.449.999-1.004.999zM7.714 41.01h53.238c.555 0 1.004.447 1.004.999a1 1 0 0 1-1.004.998H7.714a1 1 0 0 1-1.004-.998c0-.552.449-.999 1.004-.999zM61.423 7.015c-.219 0-.439-.071-.624-.217l-4.642-3.663v10.914c0 .552-.449.999-1.004.999a1.001 1.001 0 0 1-1.005-.999V3.135l-4.641 3.663a1.011 1.011 0 0 1-1.411-.161.994.994 0 0 1 .161-1.403L54.528.286a1.008 1.008 0 0 1 1.249 0l6.271 4.948a.993.993 0 0 1 .162 1.403 1.005 1.005 0 0 1-.787.378zm-20.389 0c-.219 0-.439-.071-.624-.217l-4.642-3.663v10.914c0 .552-.449.999-1.004.999a1.002 1.002 0 0 1-1.005-.999V3.135l-4.641 3.663a1.011 1.011 0 0 1-1.411-.161.994.994 0 0 1 .162-1.403l6.27-4.948a1.01 1.01 0 0 1 1.25 0l6.271 4.948a.995.995 0 0 1 .162 1.403 1.008 1.008 0 0 1-.788.378zm-21.013-.217l-4.64-3.663v10.914c0 .552-.45.999-1.005.999a1.002 1.002 0 0 1-1.005-.999V3.135L8.73 6.798a1.012 1.012 0 0 1-1.412-.161.994.994 0 0 1 .162-1.403L13.751.286a1.01 1.01 0 0 1 1.25 0l6.27 4.948a.994.994 0 0 1 .162 1.403 1.01 1.01 0 0 1-1.412.161z"/></svg>