<svg xmlns="http://www.w3.org/2000/svg" width="46" height="46" viewBox="0 0 46 46"><defs><linearGradient id="a" x1="0%" x2="61.566%" y1="0%" y2="78.801%"><stop offset="0%" stop-color="#00ADEF"/><stop offset="39%" stop-color="#19CDD7"/><stop offset="100%" stop-color="#31ECBE"/></linearGradient></defs><path fill="url(#a)" d="M10.177 26.859a1 1 0 0 1-1.405-.161l-2.443-3.076a1 1 0 0 1 0-1.244l2.443-3.076a1 1 0 0 1 1.566 1.244L9.184 22H22V9.184l-1.454 1.154a1 1 0 1 1-1.244-1.567l3.076-2.442a1 1 0 0 1 1.244 0l3.076 2.442a1 1 0 1 1-1.244 1.567L24 9.184V22h12.816l-1.154-1.454a1 1 0 1 1 1.566-1.244l2.443 3.076a1 1 0 0 1 0 1.244l-2.443 3.076a1 1 0 1 1-1.566-1.244L36.816 24H24v12.816l1.454-1.154a1 1 0 0 1 1.244 1.567l-3.076 2.442a1.004 1.004 0 0 1-1.244 0l-3.076-2.442a1 1 0 1 1 1.244-1.567L22 36.816V24H9.184l1.154 1.454a1 1 0 0 1-.161 1.405zM45 46H1a1 1 0 0 1-1-1v-4.889c0-.303.138-.591.375-.781l8.148-6.518a1.001 1.001 0 1 1 1.25 1.562L2 40.592V44h42V2H2v27.111a1 1 0 1 1-2 0V1a1 1 0 0 1 1-1h44a1 1 0 0 1 1 1v44a1 1 0 0 1-1 1z"/></svg>