<svg xmlns="http://www.w3.org/2000/svg" width="81" height="42" viewBox="0 0 81 42"><defs><linearGradient id="a" gradientUnits="userSpaceOnUse" y1="31.003" x2="60.992" y2="31.003"><stop offset="0" stop-color="#008abf"/><stop offset=".374" stop-color="#15a5af"/><stop offset=".748" stop-color="#24b9a3"/><stop offset="1" stop-color="#2ac09f"/></linearGradient></defs><path fill="url(#a)" d="M80.841 14.501c-.16-.462-.55-.744-1.119-.473l-5.098 2.423a.845.845 0 0 0-.444.511c-.027.08-2.697 8.095-11.492 12.136l-13.756 5.628c-.127.053-.266.116-.413.181-.389.177-1.2.543-1.482.43-.039-.014-.1-.118-.123-.174-.27-.66-.251-1.304.056-1.915.281-.556.721-.898.948-.992-.002.001 6.702-2.755 9.177-3.776l.008-.004h.001l.192-.08a.853.853 0 0 0-.647-1.579l-.18.075-.007.001-6.132 2.648c.309-1.111.031-1.777-.743-3.067-.026-.044-.06-.081-.088-.124l1.202-.5c1.253-.516 2.386-.983 3.139-1.295a.853.853 0 0 0-.647-1.578l-.829.342c-.014.005-.028.002-.041.008l-2.149.894-2.014.829c-.71-.471-1.457-.769-1.942-.968l-2.599-1.073 6.411-2.645a.856.856 0 0 0 .463-1.114.85.85 0 0 0-1.111-.466l-1.494.617c-.015.005-.03.003-.045.009l-6.473 2.671-4.565-1.884 11.253-4.643c3.015-1.245 4.283-4.039 4.184-6.111-.071-1.485-.823-2.591-2.019-2.954-.418-.127-.98-.118-1.694-.103-1.113.021-2.796.052-3.378-.634-.312-.366-.559-1.128-.364-1.932.117-.489.446-1.15 1.343-1.519 1.392-.57 14.086-.409 15.344-.004 1.423.457 9.137 3.684 9.197 3.709a.842.842 0 0 0 .611.018l4.228-1.5a.856.856 0 1 0 .044-1.593.84.84 0 0 0-.611-.016l-3.92 1.389c-1.471-.615-7.69-3.204-9.03-3.634C60.253.11 47.23 0 45.483.721c-1.217.503-2.051 1.459-2.351 2.696-.296 1.226-.012 2.577.723 3.443 1.104 1.299 3.186 1.261 4.707 1.232.424-.006 1.005-.017 1.166.031.689.21.797 1.05.813 1.402.073 1.538-.978 3.561-3.13 4.449l-12.843 5.3-1.472-.608c-2.153-.887-3.204-2.91-3.131-4.449.016-.352.125-1.192.813-1.402.161-.048.742-.037 1.166-.03 1.521.028 3.603.067 4.707-1.233.735-.866 1.019-2.217.723-3.443-.3-1.237-1.134-2.193-2.351-2.695-1.747-.721-14.769-.612-16.51-.052-1.34.43-7.558 3.02-9.03 3.634L5.564 7.607a.848.848 0 0 0-1.086.52.853.853 0 0 0 .518 1.089l4.229 1.5a.84.84 0 0 0 .61-.018c.06-.025 7.775-3.252 9.197-3.709 1.259-.404 13.952-.566 15.344.004.897.37 1.227 1.03 1.343 1.519.195.804-.052 1.566-.364 1.932-.581.686-2.265.655-3.378.634-.713-.014-1.276-.024-1.694.104-1.196.362-1.948 1.468-2.019 2.953-.099 2.072 1.17 4.866 4.184 6.111l13.123 5.414c.621.257 1.713.526 2.457 1.406.513.61 1.05 1.151.49 2.517-.121.296-.267.382-.384.433-.71.286-2.201-.38-3.187-.82-.251-.111-.487-.216-.7-.304l-.768-.317c-.054-.025-.108-.054-.162-.076l-10.654-4.397c-.014-.006-.03-.004-.044-.009l-1.495-.617a.85.85 0 0 0-1.111.466.855.855 0 0 0 .463 1.114l12.327 5.086c.92.465 2.515 2.08 1.737 3.976-.085.21-.18.248-.224.266-.513.205-1.734-.339-2.463-.665-.206-.091-.398-.178-.571-.248l-2.658-1.106c-.106-.058-.211-.126-.317-.17l-7.975-3.282-2.148-.894c-.014-.006-.028-.003-.042-.008l-.829-.342a.847.847 0 0 0-1.11.464.854.854 0 0 0 .463 1.115l3.127 1.289 8.152 3.394c.352.222.77.604 1.065 1.096.417.695.484 1.398.202 2.088-.056.136-.107.154-.129.164-.398.161-1.465-.316-2.039-.571-.178-.079-.345-.154-.499-.217l-12.008-4.906-.006-.001-.181-.074a.85.85 0 0 0-1.11.465.853.853 0 0 0 .463 1.113l.193.08.009.004a9383.04 9383.04 0 0 0 9.177 3.776c.227.094.667.436.947.992.308.611.326 1.256.056 1.915-.022.056-.083.16-.123.175-.282.112-1.093-.254-1.481-.431-.148-.065-.286-.128-.414-.181L18.312 33.79C9.517 29.749 6.846 21.734 6.82 21.655a.85.85 0 0 0-.445-.511L1.278 18.72c-.57-.271-.96.011-1.119.474-.16.462.026.886.428 1.077l4.738 2.263c.631 1.685 3.694 8.716 11.977 12.657.041.026.074.061.12.08l14 5.728c.111.045.231.1.36.159.783.353 1.857.838 2.809.458.329-.133.791-.435 1.068-1.111a4.007 4.007 0 0 0 .203-2.45l.038.015c.138.057.29.126.453.198 1.024.457 2.297 1.025 3.363.597.491-.21.855-.575 1.07-1.1a3.872 3.872 0 0 0 .12-2.597l.255.112c1.161.518 2.607 1.163 3.789.689.134-.054.259-.121.377-.201.006.015.008.03.014.045.277.676.739.978 1.068 1.111.951.379 2.025-.105 2.809-.459.129-.058.249-.113.359-.158l14-5.728c.047-.019.079-.054.121-.08 8.282-3.942 11.345-10.972 11.976-12.658l4.738-2.262c.402-.192.589-.615.429-1.078zM46.183 31.518l-.023.057c-.009-.022-.012-.046-.02-.068l.043.011z"/></svg>