<svg xmlns="http://www.w3.org/2000/svg" width="62" height="51" viewBox="0 0 62 51"><defs><linearGradient id="a" x1="0%" x2="61.566%" y1="0%" y2="78.801%"><stop offset="0%" stop-color="#00ADEF"/><stop offset="39%" stop-color="#19CDD7"/><stop offset="100%" stop-color="#31ECBE"/></linearGradient></defs><path fill="url(#a)" d="M61.526 50.787a.994.994 0 0 1-.972.045c-.059-.028-5.923-2.907-14.554-2.907s-14.495 2.879-14.554 2.907a.988.988 0 0 1-.961-.037c-.046-.028-4.934-2.87-14.485-2.87-9.551 0-14.439 2.842-14.488 2.872-.31.183-.695.186-1.006.009A1.007 1.007 0 0 1 0 49.934V4.013c0-.353.185-.679.485-.861C.699 3.024 5.84-.004 16-.004c8.473 0 13.455 2.106 15 2.88 1.545-.774 6.527-2.88 15-2.88 10.16 0 15.301 3.028 15.515 3.156.3.182.485.508.485.861v45.921c0 .347-.18.669-.474.853zM30 4.624c-1.443-.696-6.138-2.619-14-2.619-7.846 0-12.545 1.918-14 2.619v43.714c2.221-.934 6.877-2.422 14-2.422 7.134 0 11.784 1.49 14 2.424V4.624zm30 0c-1.452-.7-6.152-2.619-14-2.619-7.859 0-12.554 1.921-14 2.62v43.787c2.336-.911 7.35-2.496 14-2.496 6.642 0 11.66 1.583 14 2.495V4.624zM37.216 39.911a1.006 1.006 0 0 1-.432-1.962c2.832-.627 5.933-.945 9.216-.945 3.7 0 7.146.4 10.245 1.19A1.006 1.006 0 0 1 56 40.172a1.05 1.05 0 0 1-.247-.03c-2.938-.75-6.219-1.129-9.753-1.129-3.139 0-6.094.302-8.784.898zM56 31.132a1 1 0 0 1-.247-.03c-2.938-.749-6.219-1.129-9.753-1.129-3.139 0-6.094.302-8.784.898a1.004 1.004 0 0 1-.432-1.961c2.832-.628 5.933-.946 9.216-.946 3.7 0 7.146.4 10.245 1.19.535.137.86.684.724 1.221a1.002 1.002 0 0 1-.969.757zm0-9.039c-.082 0-.164-.01-.247-.031-2.938-.749-6.219-1.129-9.753-1.129-3.139 0-6.094.303-8.784.899a1.005 1.005 0 0 1-.432-1.962c2.832-.628 5.933-.945 9.216-.945 3.7 0 7.146.4 10.245 1.189.535.138.86.684.724 1.222a1.002 1.002 0 0 1-.969.757zm0-9.04a1.05 1.05 0 0 1-.247-.03c-2.938-.75-6.219-1.129-9.753-1.129-3.139 0-6.094.302-8.784.898a1.006 1.006 0 0 1-.432-1.962c2.832-.627 5.933-.945 9.216-.945 3.7 0 7.146.4 10.245 1.19A1.006 1.006 0 0 1 56 13.053zM7.242 39.137a.998.998 0 0 1-.857-.182A1.008 1.008 0 0 1 6 38.163V11.811c0-.398.234-.758.597-.919.171-.075 4.252-1.857 9.403-1.857 6.231 0 9.422 2.089 9.555 2.178.278.186.445.5.445.836v26.114a.998.998 0 0 1-1.242.975c-.039-.01-3.951-.975-8.758-.975-4.821 0-8.719.964-8.758.974zM24 12.64c-1.001-.501-3.684-1.596-8-1.596-3.627 0-6.74.989-8 1.452v24.425a43.381 43.381 0 0 1 8-.767c3.449 0 6.41.46 8 .767V12.64z"/></svg>