<svg xmlns="http://www.w3.org/2000/svg" width="88" height="88" viewBox="0 0 88 88"><defs><linearGradient id="a" x1="0%" x2="61.566%" y1="0%" y2="78.801%"><stop offset="0%" stop-color="#000000" stop-opacity=".8"/><stop offset="44%" stop-color="#000000" stop-opacity=".8"/><stop offset="100%" stop-color="#000000" stop-opacity=".8"/></linearGradient></defs><path fill="url(#a)" d="M88 28.951V21.962l-3.106-1.55-40-19.968L44-.002l-.895.446-40 19.968L0 21.962v7.461l3.105 1.55L8 33.416v11.745c0 10.637 15.813 18.97 36 18.97 7.457 0 14.313-1.14 20-3.11v3.252c-1.72.446-3 1.996-3 3.852 0 .868.287 1.667.76 2.323-.642 2.085-.76 4.651-.76 6.163 0 4.632 2.188 8.353 2.282 8.51L65 88.001l1.718-2.88c.093-.157 2.282-3.878 2.282-8.51 0-1.512-.118-4.078-.76-6.163.473-.656.76-1.455.76-2.323 0-1.856-1.28-3.406-3-3.852v-3.999c8.562-3.438 14-8.878 14-15.113V33.416l4.894-2.443L88 29.423v-.472zm-86-.762v-4.757l1.105.552L43 43.899v4.757L14 34.179l-12-5.99zm42 33.945c-18.778 0-34-7.599-34-16.973V34.415l33.105 16.526.895.446.894-.446L64 41.403v17.481c-5.613 2.042-12.523 3.25-20 3.25zm1-13.478v-4.757l19-9.484v4.756l-19 9.485zm20 35.443s-2-3.353-2-7.488c0-1.83.177-3.499.468-4.8a3.97 3.97 0 0 0 3.064 0c.291 1.301.468 2.97.468 4.8 0 4.135-2 7.488-2 7.488zm2-15.974a1.999 1.999 0 0 1-2 1.996c-1.105 0-2-.894-2-1.996 0-1.103.895-1.997 2-1.997 1.104 0 2 .894 2 1.997zM49.594 23.716c.261-.462.406-.971.406-1.518 0-2.314-2.523-3.993-6-3.993s-6 1.679-6 3.993 2.523 3.994 6 3.994c1.608 0 3.008-.363 4.052-.978l15.741 7.072L44 42.166 4 22.198 44 2.23l40 19.968-17.898 8.935-16.508-7.417zM48 22.198c0 1.103-1.791 1.997-4 1.997s-4-.894-4-1.997c0-1.103 1.791-1.997 4-1.997s4 .894 4 1.997zm30 22.963c0 5.185-4.662 9.823-12 12.936V40.405l12-5.99v10.746zm6-15.974l-6 2.995-12 5.991v-4.757l18.894-9.432L86 23.432v4.757l-2 .998z"/></svg>