<svg xmlns="http://www.w3.org/2000/svg" width="88" height="88" viewBox="0 0 88 88"><defs><linearGradient id="a" x1="0%" x2="61.566%" y1="0%" y2="78.801%"><stop offset="0%" stop-color="#000000" stop-opacity=".8"/><stop offset="44%" stop-color="#000000" stop-opacity=".8"/><stop offset="100%" stop-color="#000000" stop-opacity=".8"/></linearGradient></defs><path fill="url(#a)" d="M88 84.454A3.555 3.555 0 0 1 84.444 88H3.555A3.555 3.555 0 0 1 0 84.454V53.545c0-.556.141-1.076.371-1.545H.052c.049-.358.134-.713.296-1.05l14.411-29.93A3.61 3.61 0 0 1 18.002 19H22V4c0-2.206 1.794-4 4-4h36c2.206 0 4 1.794 4 4v15h3.998a3.61 3.61 0 0 1 3.243 2.02l14.411 29.93c.162.337.247.692.296 1.05h-.319c.23.469.371.989.371 1.545v30.909zM22 21h-3.998c-.618 0-1.18.346-1.441.888L2.998 50.056A3.54 3.54 0 0 1 3.555 50H12v-5c0-2.206 1.794-4 4-4h1v-4c0-2.206 1.794-4 4-4h1V21zm-8 24v5h17.075c1.01 0 1.923.535 2.416 1.405L35.816 55h16.367l2.325-3.595A2.764 2.764 0 0 1 56.925 50H74v-5a2 2 0 0 0-2-2H16a2 2 0 0 0-2 2zM64 4a2 2 0 0 0-2-2H26a2 2 0 0 0-2 2v29h40V4zM21 35a2 2 0 0 0-2 2v4h50v-4a2 2 0 0 0-2-2H21zm50.439-13.112A1.594 1.594 0 0 0 69.998 21H66v12h1c2.205 0 4 1.794 4 4v4h1c2.206 0 4 1.794 4 4v5h8.444c.191 0 .375.027.558.056L71.439 21.888zM86 53.545A1.55 1.55 0 0 0 84.444 52H56.925a.778.778 0 0 0-.696.427l-2.681 4.146a.778.778 0 0 1-.696.427H35.147a.781.781 0 0 1-.696-.427l-2.68-4.146a.778.778 0 0 0-.696-.427H3.555A1.55 1.55 0 0 0 2 53.545v30.909A1.55 1.55 0 0 0 3.555 86h80.889c.859 0 1.556-.692 1.556-1.546V53.545zM55 77H33c-1.654 0-3-1.346-3-3v-4c0-1.654 1.346-3 3-3h22c1.654 0 3 1.346 3 3v4c0 1.654-1.346 3-3 3zm1-7a1 1 0 0 0-1-1H33a1 1 0 0 0-1 1v4a1 1 0 0 0 1 1h22a1 1 0 0 0 1-1v-4zM30 6h12c1.102 0 2 .897 2 2v7c0 1.103-.898 2-2 2H30c-1.103 0-2-.897-2-2V8c0-1.103.897-2 2-2zm0 9h12.001L42 8H30v7zm-1 6h6.223a1 1 0 0 1 0 2H29a1 1 0 1 1 0-2zm0 4h2.333a1 1 0 1 1 0 2H29a1 1 0 1 1 0-2zm5.444 0H36a1 1 0 1 1 0 2h-1.556a1 1 0 1 1 0-2zm3.889-4h2.334a1 1 0 1 1 0 2h-2.334a1 1 0 1 1 0-2z"/></svg>