<svg xmlns="http://www.w3.org/2000/svg" width="88" height="88"><defs><linearGradient id="a" x1="0%" x2="61.566%" y1="0%" y2="78.801%"><stop offset="0%" stop-color="#000000" stop-opacity=".8"/><stop offset="44%" stop-color="#000000" stop-opacity=".8"/><stop offset="100%" stop-color="#000000" stop-opacity=".8"/></linearGradient></defs><path fill="url(#a)" d="M87.166 75.785L72.718 87.389a2.78 2.78 0 0 1-1.736.611c-.63 0-1.247-.217-1.737-.611L60.046 80H19.307c-1.865 0-3.383-1.527-3.383-3.405V63H3.381c-1.865 0-3.383-1.528-3.383-3.405V3.405C-.002 1.527 1.516 0 3.381 0h35.204c.956 0 1.887.391 2.554 1.073l8.808 8.998a3.526 3.526 0 0 1 1.012 2.48V17h3.552c.956 0 1.887.391 2.554 1.073l8.808 8.998a3.526 3.526 0 0 1 1.012 2.48V47h12.592a2.778 2.778 0 0 1 2.774 2.775v22.037h3.516c.946 0 1.792.599 2.106 1.49.315.892.031 1.89-.707 2.483zM40.003 2.772v7.657c0 .315.253.571.564.571h7.489l-8.053-8.228zM48.957 13h-8.39A2.572 2.572 0 0 1 38 10.429V2H3.381C2.618 2 2 2.629 2 3.405v56.19C2 60.371 2.618 61 3.381 61h44.195c.763 0 1.381-.629 1.381-1.405V13zm7.008 6.809v7.627c0 .311.253.564.564.564h7.453l-8.017-8.191zM64.883 30h-8.354a2.569 2.569 0 0 1-2.567-2.564V19h-3.003v40.595c0 1.877-1.517 3.405-3.383 3.405h-29.65v13.595c0 .776.618 1.405 1.381 1.405h38.249l-2.758-2.215a2.235 2.235 0 0 1-.708-2.483 2.237 2.237 0 0 1 2.107-1.49h3.515V49.775A2.778 2.778 0 0 1 62.487 47h2.396V30zm20.884 43.812h-4.746a.774.774 0 0 1-.772-.776V49.775a.774.774 0 0 0-.772-.775h-16.99a.774.774 0 0 0-.773.775v23.261a.773.773 0 0 1-.772.776h-4.745a.233.233 0 0 0-.145.414L70.499 85.83a.772.772 0 0 0 .965 0l14.447-11.604a.232.232 0 0 0-.144-.414zM29.302 69H23.04a1 1 0 0 1 0-2h6.262a1.001 1.001 0 0 1 0 2zm9.645-21h-3.003a1 1 0 1 1 0-2h3.003a1 1 0 1 1 0 2zm0-14h-3.003a1 1 0 1 1 0-2h3.003a1 1 0 1 1 0 2zm0-14h-3.003a1 1 0 1 1 0-2h3.003a1 1 0 1 1 0 2zM31.94 48h-6.006a1 1 0 1 1 0-2h6.006a1 1 0 1 1 0 2zm0-14h-6.006a1 1 0 1 1 0-2h6.006a1 1 0 1 1 0 2zm0-14h-6.006a1 1 0 1 1 0-2h6.006a1 1 0 1 1 0 2zM19.427 55h-9.009a2.504 2.504 0 0 1-2.502-2.5v-5c0-1.379 1.122-2.5 2.502-2.5h9.009a2.504 2.504 0 0 1 2.503 2.5v5c0 1.378-1.123 2.5-2.503 2.5zm.501-7.5a.5.5 0 0 0-.501-.5h-9.009a.5.5 0 0 0-.5.5v5a.5.5 0 0 0 .5.5h9.009a.5.5 0 0 0 .501-.5v-5zm-.501-6.5h-9.009a2.504 2.504 0 0 1-2.502-2.5v-5c0-1.379 1.122-2.5 2.502-2.5h9.009a2.504 2.504 0 0 1 2.503 2.5v5c0 1.378-1.123 2.5-2.503 2.5zm.501-7.5a.5.5 0 0 0-.501-.5h-9.009a.5.5 0 0 0-.5.5v5a.5.5 0 0 0 .5.5h9.009a.5.5 0 0 0 .501-.5v-5zm-.501-6.5h-9.009a2.504 2.504 0 0 1-2.502-2.5v-5c0-1.379 1.122-2.5 2.502-2.5h9.009a2.504 2.504 0 0 1 2.503 2.5v5c0 1.378-1.123 2.5-2.503 2.5zm.501-7.5a.5.5 0 0 0-.501-.5h-9.009a.5.5 0 0 0-.5.5v5a.5.5 0 0 0 .5.5h9.009a.5.5 0 0 0 .501-.5v-5z"/></svg>