<svg xmlns="http://www.w3.org/2000/svg" width="50" height="48" viewBox="0 0 50 48"><defs><linearGradient id="a" x1="0%" x2="61.566%" y1="0%" y2="78.801%"><stop offset="0%" stop-color="#00ADEF"/><stop offset="39%" stop-color="#19CDD7"/><stop offset="100%" stop-color="#31ECBE"/></linearGradient></defs><path fill="url(#a)" d="M49.702 13.625L18.461 44.867a.987.987 0 0 1-.295.196c-.034.016-.067.025-.102.037-.039.013-.074.033-.114.041L3.749 47.98a.996.996 0 0 1-.903-.273 1 1 0 0 1-.274-.903l2.84-14.201c.008-.04.028-.076.041-.114.011-.035.021-.068.037-.102a.987.987 0 0 1 .196-.295L36.928.851a.999.999 0 0 1 1.414 0l11.36 11.36a.999.999 0 0 1 0 1.414zm-10.641 7.814l-4.267-4.267-21.307 21.307 4.267 4.267 21.307-21.307zM4.827 45.726l10.899-2.18-8.719-8.719-2.18 10.899zm2.98-12.927l4.266 4.266L33.38 15.758l-4.266-4.266L7.807 32.799zM37.635 2.972l-7.107 7.106 9.947 9.946 7.106-7.106-9.946-9.946zM27.995 2h-27a1 1 0 1 1 0-2h27a1 1 0 1 1 0 2zm-27 8.333h15a1 1 0 1 1 0 2h-15a1 1 0 1 1 0-2zm0 10.334h6a1 1 0 1 1 0 2h-6a1 1 0 1 1 0-2z"/></svg>