<svg xmlns="http://www.w3.org/2000/svg" width="88" height="88" viewBox="0 0 88 88"><defs><linearGradient id="a" x1="0%" x2="61.566%" y1="0%" y2="78.801%"><stop offset="0%" stop-color="#000000" stop-opacity=".8"/><stop offset="44%" stop-color="#000000" stop-opacity=".8"/><stop offset="100%" stop-color="#000000" stop-opacity=".8"/></linearGradient></defs><path fill="url(#a)" d="M85.713 20.955l-7.918 9.114a1.543 1.543 0 0 1-.361.303L62.04 39.605l-1.95 5.811a1.5 1.5 0 0 1-1.425 1.02c-.395 0-.779-.154-1.063-.437l-15.938-15.83a1.486 1.486 0 0 1-.399-1.399c.119-.503.492-.909.986-1.073l5.849-1.936 9.107-15.069c.082-.135.184-.257.304-.36l9.357-8.055C68.637.753 70.889 0 73.137 0c2.478 0 4.952.915 6.772 2.723l5.324 5.288c3.47 3.448 3.686 9.254.48 12.944zm-1.904-11.53l-5.324-5.288C77.118 2.779 75.168 2 73.137 2c-1.853 0-3.611.635-4.95 1.788l-9.296 8.003-9.065 14.999-.383.634-.707.234-5.064 1.677 14.769 14.669 1.689-5.032.234-.698.635-.381 15.324-9.191 7.865-9.054c2.532-2.914 2.362-7.5-.379-10.223zM61.867 31.373a1.004 1.004 0 0 1-.712.293c-.258 0-.515-.097-.712-.293a.995.995 0 0 1 0-1.414l16.318-16.208c.393-.39 1.03-.39 1.423 0a.994.994 0 0 1 0 1.414L61.867 31.373zm-4.279-4.25a1.004 1.004 0 0 1-.712.293c-.257 0-.515-.097-.712-.293a.995.995 0 0 1 0-1.414L72.482 9.501c.393-.39 1.03-.39 1.424 0a.995.995 0 0 1 0 1.414L57.588 27.123zm6.597 28.837c1.67-.538 3.387-.8 5.094-.8 4.306 0 8.534 1.672 11.694 4.81a16.344 16.344 0 0 1 3.702 17.608 1.498 1.498 0 0 1-1.399.949c-.395 0-.778-.155-1.062-.438l-9.558-9.494-6.376 6.332 9.559 9.495c.359.356.512.867.408 1.36-.104.493-.45.901-.923 1.085A16.622 16.622 0 0 1 69.293 88a16.588 16.588 0 0 1-11.695-4.811 16.345 16.345 0 0 1-4.038-16.675L41.004 54.042l-14.87 14.771-5.289 9.394a1.498 1.498 0 0 1-.639.607l-8.5 4.221a1.51 1.51 0 0 1-1.734-.279l-5.313-5.278a1.485 1.485 0 0 1-.281-1.722l4.249-8.443c.136-.268.348-.489.611-.635l9.458-5.253 14.87-14.771-11.94-11.861c-1.67.538-3.388.801-5.094.801a16.593 16.593 0 0 1-11.695-4.811 16.346 16.346 0 0 1-3.702-17.608 1.498 1.498 0 0 1 1.399-.948c.394 0 .778.154 1.063.437l9.558 9.495 6.375-6.332-9.558-9.495a1.483 1.483 0 0 1-.408-1.36c.103-.493.45-.901.922-1.085a16.626 16.626 0 0 1 6.031-1.133c4.307 0 8.535 1.672 11.695 4.811A16.345 16.345 0 0 1 32.25 24.24l31.935 31.72zM20.12 62.839l-.197.196-.244.135-9.321 5.177-4.015 7.976 4.792 4.76 8.03-3.988 5.212-9.259.136-.242.197-.196L39.578 52.63l-4.59-4.559L20.12 62.839zm6.669-53.86a14.483 14.483 0 0 0-10.272-4.225c-1.554 0-3.082.245-4.553.729l8.99 8.93 1.424 1.414-1.424 1.414-6.375 6.332-1.424 1.414-1.423-1.414-8.991-8.93a14.358 14.358 0 0 0 3.52 14.726 14.484 14.484 0 0 0 10.271 4.225c1.52 0 3.025-.237 4.472-.703l1.173-.378.872.866L34.99 45.24l1.424 1.414-.002.003 4.59 4.559.002-.002 1.424 1.414L54.983 65.1l.872.866-.38 1.165c-1.691 5.181-.332 10.792 3.547 14.643A14.477 14.477 0 0 0 69.293 86a14.54 14.54 0 0 0 4.554-.729l-8.991-8.93-1.424-1.414 1.424-1.414 6.376-6.332 1.424-1.414 1.423 1.414 8.99 8.929a14.355 14.355 0 0 0-3.52-14.725 14.476 14.476 0 0 0-10.27-4.225c-1.521 0-3.026.236-4.473.702l-1.173.378-.872-.866-31.935-31.72-.871-.866.38-1.165c1.69-5.18.331-10.792-3.546-14.644z"/></svg>