<svg xmlns="http://www.w3.org/2000/svg" width="71" height="54" viewBox="0 0 71 54"><defs><linearGradient id="a" gradientUnits="userSpaceOnUse" y1="31.003" x2="60.992" y2="31.003"><stop offset="0" stop-color="#008abf"/><stop offset=".374" stop-color="#15a5af"/><stop offset=".748" stop-color="#24b9a3"/><stop offset="1" stop-color="#2ac09f"/></linearGradient></defs><path fill="url(#a)" d="M68.322 23.836L35.573 36.552 9.086 26.325v10.919c1.728.444 3.013 1.985 3.013 3.831 0 3.471-3.319 5.699-3.46 5.792l-.558.367-.557-.367c-.141-.093-3.46-2.321-3.46-5.792 0-1.846 1.285-3.387 3.013-3.831V25.549L2.651 23.84a4.145 4.145 0 0 1-.328-7.547L33.673.557a4.133 4.133 0 0 1 3.708.001l31.255 15.736a4.144 4.144 0 0 1-.314 7.542zM6.072 41.075c0 1.684 1.254 3.035 2.009 3.698.756-.662 2.009-2.013 2.009-3.698 0-1.095-.901-1.986-2.009-1.986-1.107 0-2.009.891-2.009 1.986zm61.653-23.011L36.469 2.327a2.101 2.101 0 0 0-1.886.001L3.234 18.064a2.16 2.16 0 0 0-1.177 2.02 2.149 2.149 0 0 0 1.338 1.911l32.176 12.423 32.005-12.427a2.146 2.146 0 0 0 1.326-1.907 2.16 2.16 0 0 0-1.177-2.02zM36.069 39.98l18.155-7.11v12.884a3.549 3.549 0 0 1-1.943 3.184c-.41.209-.822.423-1.238.638-3.982 2.067-8.494 4.409-15.516 4.409-7.025 0-11.533-2.341-15.512-4.407-.417-.216-.83-.43-1.242-.641a3.548 3.548 0 0 1-1.941-3.183V32.279l18.119 7.686c.357.15.757.156 1.118.015zm-17.228-4.687v10.461c0 .599.335 1.155.852 1.417.417.213.834.43 1.256.649 3.957 2.054 8.048 4.179 14.578 4.179 6.527 0 10.622-2.126 14.582-4.181.421-.218.838-.434 1.252-.646.519-.264.854-.819.854-1.418v-9.961l-15.41 6.036a3.535 3.535 0 0 1-2.644-.038l-15.32-6.498z"/></svg>