<svg xmlns="http://www.w3.org/2000/svg" width="88" height="88" viewBox="0 0 88 88"><defs><linearGradient id="a" x1="0%" x2="61.566%" y1="0%" y2="78.801%"><stop offset="0%" stop-color="#000000" stop-opacity=".8"/><stop offset="44%" stop-color="#000000" stop-opacity=".8"/><stop offset="100%" stop-color="#000000" stop-opacity=".8"/></linearGradient></defs><path fill="url(#a)" d="M84 54H28c-2.206 0-4-1.794-4-4V38c0-2.206 1.794-4 4-4h56c2.206 0 4 1.794 4 4v12c0 2.206-1.794 4-4 4zm-20-2h10v-4H64v4zm-14 0h12v-4H50v4zm-12 0h10v-4H38v4zm-12-2a2 2 0 0 0 2 2h8v-4H26v2zm60-12a2 2 0 0 0-2-2H28a2 2 0 0 0-2 2v8h60v-8zm0 10H76v4h8a2 2 0 0 0 2-2v-2zm-56-9h6a1 1 0 1 1 0 2h-6a1 1 0 1 1 0-2zm20.468-15.144a1.002 1.002 0 0 1-.337-1.373.997.997 0 0 1 1.369-.34c.14.083 3.007 1.845 4.273 5.35l.698-1.566a1 1 0 1 1 1.826.815l-1.634 3.665a1 1 0 0 1-1.32.507l-3.665-1.634a1 1 0 1 1 .814-1.827l1.352.603c-1.052-2.749-3.349-4.184-3.376-4.2zM72 19H16c-2.206 0-4-1.794-4-4V4c0-2.206 1.794-4 4-4h56c2.206 0 4 1.794 4 4v11c0 2.206-1.794 4-4 4zm2-15a2 2 0 0 0-2-2H16a2 2 0 0 0-2 2v11a2 2 0 0 0 2 2h56a2 2 0 0 0 2-2V4zM63 15H25a1 1 0 1 1 0-2h38a1 1 0 1 1 0 2zm0-3H25a1 1 0 1 1 0-2h38a1 1 0 1 1 0 2zM47 6h-6a1 1 0 1 1 0-2h6a1 1 0 1 1 0 2zM14.902 25.768l1.071 4.478a1 1 0 0 1-1.946.465l-.523-2.189c-11.178 11.291-7.59 26.455-1.269 33.827a1 1 0 1 1-1.517 1.302C3.955 55.765.081 39.629 11.724 27.48l-2.39.497a1 1 0 1 1-.408-1.958l4.8-.998a.996.996 0 0 1 1.176.747zm41.61 39.084a1 1 0 0 1-.97 1.029l-3.91.118L51.6 66a1 1 0 0 1-.998-.97l-.119-3.91a1.001 1.001 0 0 1 .97-1.03.981.981 0 0 1 1.03.97l.044 1.447c2.073-1.994 2.479-4.615 2.483-4.646a1 1 0 1 1 1.981.274c-.022.155-.491 3.322-3.056 5.794l1.546-.047a1.005 1.005 0 0 1 1.031.97zM63 73v11c0 2.206-1.794 4-4 4H4c-2.206 0-4-1.794-4-4V73c0-2.206 1.794-4 4-4h55c2.206 0 4 1.794 4 4zM4 86h55c.738 0 1.376-.405 1.723-1H2.277c.347.595.984 1 1.723 1zm56.723-3c-.347-.595-.985-1-1.723-1H4c-.739 0-1.376.405-1.723 1h58.446zM2 73v7.556A3.959 3.959 0 0 1 4 80h55c.732 0 1.409.212 2 .556V73a2 2 0 0 0-2-2H4a2 2 0 0 0-2 2zm55 5a1 1 0 1 1 0-2 1 1 0 0 1 0 2zm-4 0a1 1 0 1 1 0-2 1 1 0 0 1 0 2z"/></svg>