<svg width="200" height="46" fill="none" xmlns="http://www.w3.org/2000/svg"><path d="M85.543 22.4s4.064-1.386 4.064-6.005c0-5.404-3.833-8.083-9.099-8.083h-13.81v29.376h15.011c4.62 0 9.146-3.233 9.146-8.175 0-5.866-5.312-7.067-5.312-7.113zm-11.64-7.991h5.358c1.663 0 2.772 1.108 2.772 2.771 0 1.294-1.017 2.68-2.91 2.68h-5.266v-5.451h.046zm5.404 17.136H73.95v-5.774h5.22c2.633 0 3.88 1.155 3.88 2.864 0 2.125-1.57 2.91-3.742 2.91zm27.437-23.973c-8.5 0-13.488 6.79-13.488 15.381 0 8.638 4.989 15.381 13.488 15.381 8.545 0 13.487-6.743 13.487-15.38 0-8.592-4.942-15.382-13.487-15.382zm0 23.742c-4.157 0-6.236-3.742-6.236-8.36 0-4.62 2.079-8.315 6.236-8.315s6.281 3.742 6.281 8.314c0 4.62-2.124 8.36-6.281 8.36zm29.144-11.501l-1.016-.232c-2.494-.508-4.48-1.154-4.48-2.956 0-1.94 1.894-2.725 3.557-2.725 2.448 0 4.618 1.201 6.004 2.725l4.573-4.526c-2.079-2.356-5.451-4.619-10.716-4.619-6.189 0-10.855 3.464-10.855 9.238 0 5.265 3.788 7.852 8.407 8.822l1.016.23c3.834.786 5.266 1.387 5.266 3.234 0 1.755-1.571 2.91-3.973 2.91-2.863 0-5.45-1.247-7.436-3.788l-4.665 4.62c2.586 3.094 5.866 5.496 12.194 5.496 5.496 0 11.362-3.141 11.362-9.561.046-6.698-5.034-7.99-9.238-8.869zm25.637 11.501c-3.233 0-6.605-2.68-6.605-8.545 0-5.22 3.141-8.13 6.42-8.13 2.587 0 4.111 1.201 5.312 3.28l5.912-3.926c-2.956-4.48-6.466-6.374-11.316-6.374-8.869 0-13.672 6.882-13.672 15.196 0 8.73 5.311 15.566 13.579 15.566 5.82 0 8.591-2.033 11.594-6.374l-5.959-4.019c-1.201 1.94-2.494 3.326-5.265 3.326zm30.761-23.049v10.808h-8.914V8.265h-7.714V37.64h7.714V26.047h8.914v11.594H200V8.265h-7.714z" fill="#E20015"/><path d="M22.263.737C9.977.737 0 10.714 0 23c0 12.286 9.977 22.263 22.263 22.263 12.286 0 22.263-9.977 22.263-22.263C44.526 10.714 34.55.737 22.263.737zm0 42.448C11.132 43.185 2.08 34.132 2.08 23c0-11.132 9.053-20.185 20.184-20.185 11.132 0 20.185 9.053 20.185 20.185 0 11.132-9.053 20.185-20.185 20.185z" fill="#575757"/><path d="M31.455 9.097H29.93v7.62H14.64v-7.62h-1.57C8.591 12.099 5.59 17.18 5.59 23s3 10.9 7.48 13.903h1.57V29.28h15.29v7.622h1.524C35.98 33.9 38.937 28.819 38.937 23c0-5.82-2.956-10.901-7.482-13.903zM12.517 33.9C9.423 31.175 7.621 27.25 7.621 23s1.802-8.176 4.896-10.901V33.9zm17.413-6.743H14.642v-8.36H29.93v8.36zm2.079 6.697V12.099a14.547 14.547 0 014.85 10.854c0 4.25-1.802 8.176-4.85 10.901z" fill="#575757"/></svg>