<svg width="200" height="42" fill="none" xmlns="http://www.w3.org/2000/svg"><g clip-path="url(#clip0_4_56)"><path d="M0 .046h45.186L0 41.952V.046z" fill="#00A0E4"/><path d="M22.587.046H0v20.949L22.587.046z" fill="#000"/><path d="M157.232 9.079h10.632l-5.867 23.923h-10.635l5.87-23.923zm-37.733 23.922h9.658l1.75-7.232 5.34 7.232h11.812l-8.512-12.149 13.237-11.775h-11.178l-8.462 7.328 1.806-7.328h-10.076l-5.375 23.924zm-16.445 0l5.875-23.924h10.632l-5.875 23.924h-10.632zm64.005 0h7.361l3.419-13.649 4.306 13.65h11.899l5.955-23.925h-7.853L188.8 22.264l-4.611-13.187h-11.207l-5.923 23.924zM55.375 27.429a7 7 0 005.875-5.777s.684-4.137-.875-5.653a3.796 3.796 0 00-2.585-.924h-4.081l-2.935 12.354h4.601zm-16.145 5.57l5.954-23.923H61.16s11 .881 9.851 12.068c-.031.325-.561 9.962-12.29 11.855H39.23zM87.301 22.97l-1.09-6.125-3.346 6.125H87.3zm-7.395 5.481l-2.875 4.553h-7.004L83.301 9.08h12.14l4.221 23.924h-10.59l-.808-4.553h-8.358z" fill="#00A0E4"/></g><defs><clipPath id="clip0_4_56"><path fill="#fff" transform="translate(0 .046)" d="M0 0h200v41.907H0z"/></clipPath></defs></svg>