<svg width="200" height="30" fill="none" xmlns="http://www.w3.org/2000/svg"><g clip-path="url(#clip0_8_98)"><path d="M40.823 4.189h5.757v8.842h.062l6.501-8.842h6.935l-7.989 10.083 8.608 11.573h-7.342l-6.717-9.836h-.062v9.836H40.82l.004-21.656zm22.503 0h15.226v4.093H69.08v4.472h8.948v4.095H69.08v4.902h9.812v4.096h-15.57l.005-21.658zm19.471 0h7.342l7.306 14.708h.06L97.413 4.19h5.263v21.656h-7.15l-7.555-14.8h-.062l.186 14.8H82.8L82.797 4.19zm28.014 4.282h-5.325V4.19h16.407v4.282h-5.325v17.376h-5.757V8.47zm21.484.188h-.059l-2.785 8.47h5.409l-2.565-8.47zm-3.528-4.47h7.056l8.328 21.657h-6.313l-1.611-4.622h-8.113l-1.701 4.622h-5.85l8.204-21.656zm19.569 4.282h-5.326V4.19h16.408v4.282h-5.325v17.376h-5.757V8.47zm13.869 12.039a12.627 12.627 0 005.943 1.425c1.828 0 3.562-.372 3.562-2.11 0-4.033-10.217-1.49-10.217-9.369 0-5.213 5.077-6.642 9.411-6.642a18.28 18.28 0 015.57.807l-.372 4.469a11.585 11.585 0 00-4.798-.994c-1.457 0-3.868.127-3.868 2.018 0 3.507 10.215 1.142 10.215 8.967 0 5.617-4.706 7.137-9.505 7.137a22.662 22.662 0 01-6.439-.93l.498-4.779zM200 17.624c0 5.927-3.838 8.596-9.471 8.596s-9.473-2.664-9.473-8.596V4.188h5.757v12.474c0 2.855.773 5.276 3.716 5.276s3.714-2.42 3.714-5.276V4.188H200v13.436z" fill="#000"/><path d="M18.528.377h-7.843v7.867h7.843V.377zm0 21.377h-7.843v7.87h7.843v-7.87z" fill="#E50019"/><path d="M6.779 14.982L0 18.938l3.944 6.791 6.779-3.955-3.944-6.792z" fill="#E50019"/><path d="M3.99 4.221L.016 11.004l6.765 3.982 3.973-6.783L3.989 4.22zm18.466 10.758l-3.943 6.795 6.782 3.956 3.944-6.796-6.783-3.955z" fill="#E50019"/><path d="M25.25 4.223l-6.768 3.98 3.972 6.784 6.767-3.98-3.971-6.784z" fill="#E50019"/></g><defs><clipPath id="clip0_8_98"><path fill="#fff" transform="translate(0 .377)" d="M0 0h200v29.245H0z"/></clipPath></defs></svg>