<svg width="200" height="82" fill="none" xmlns="http://www.w3.org/2000/svg"><g clip-path="url(#clip0_8_179)"><path d="M129.691 61.402a9.43 9.43 0 01-2.522 1.465 10.095 10.095 0 01-3.835.682 7.036 7.036 0 01-3.026-.544 7.1 7.1 0 01-2.514-1.786 10.33 10.33 0 01-2.01-6.894c0-2.979.642-5.205 1.899-6.603a7.505 7.505 0 012.68-1.716 7.451 7.451 0 013.143-.447 11.008 11.008 0 013.812.64 6.76 6.76 0 012.36 1.313c.255.264.398.618.397.987v11.908a1.46 1.46 0 01-.379.99l-.005.005zm6.72-32.201h-5.748c-.578 0-.586.675-.586.675v11.92l-.822-.437a9.792 9.792 0 00-2.776-.988 18.438 18.438 0 00-3.428-.282 15.147 15.147 0 00-10.909 3.957c-2.672 2.585-4.073 6.395-4.05 11.022a15.808 15.808 0 003.405 10.299c2.232 2.685 5.562 4.049 9.892 4.049 6.217 0 8.677-3.79 8.677-3.79l.017 3.675h6.943V29.902s.029-.699-.609-.699l-.006-.002zm-34.476.002h-5.626a.658.658 0 00-.545.237.673.673 0 00-.14.583v6.104h6.937V29.93a.632.632 0 00-.375-.68.615.615 0 00-.27-.048h.019zm91.94 33.35a.97.97 0 01-.106.567.954.954 0 01-.409.404 13.339 13.339 0 01-6.673 1.15 4.801 4.801 0 01-2.86-.988 4.882 4.882 0 01-1.721-2.51c-.079-.37-.76-4.623 3.304-5.96a14.643 14.643 0 017.806.201c.524.145.658.452.658 1.08l.001 6.056zm-5.148-22.551c-8.149 0-11.019 4.988-11.925 7.387l-.317.866 2.712.935s1.753-5.063 8.661-4.773c6.982.286 6.164 6.061 6.108 6.983a20.277 20.277 0 00-12.951.592c-4.503 2.081-5.198 6.267-5.057 9.337.208 4.539 4.177 7.732 9.338 8.023 4.633.263 6.719-.761 8.634-2.7l-.052 2.644h6.115V49.343c.127-3.44-2.278-9.336-11.266-9.336v-.005zm-38.779 11.85c-.323-.01-.352-.33-.346-.488a7.604 7.604 0 012.056-4.174 7.561 7.561 0 012.508-1.627 7.507 7.507 0 012.935-.523 7.056 7.056 0 014.819 1.715 7.795 7.795 0 012.345 4.27c.065.208.18.804-.302.804l-14.015.023zm17.262-7.408a12.639 12.639 0 00-4.527-3.327 12.511 12.511 0 00-5.505-1.022 14.591 14.591 0 00-5.691.98 14.722 14.722 0 00-4.883 3.113 14.205 14.205 0 00-3.207 4.895 14.333 14.333 0 00-.97 5.788 13.985 13.985 0 00.939 5.693 13.87 13.87 0 003.154 4.813c2.736 2.601 6.624 3.917 11.54 3.917 9.524 0 11.593-6.63 12.375-8.825l-2.463-.803c-2.193 4.047-7.117 4.29-9.99 4.102a10.22 10.22 0 01-5.393-1.919 7.646 7.646 0 01-1.991-2.246 7.727 7.727 0 01-.98-2.85l-.134-.894h21.429c-.078-4.794-1.306-8.642-3.705-11.418l.002.003zM5.431 45.785c0-20.858 17.413-37.826 38.813-37.826a38.988 38.988 0 0118.528 4.656 39.457 39.457 0 0114.17 12.928C71.688 10.693 57.136.483 40.76.483 19.66.483 2.5 17.11 2.5 37.549a36.058 36.058 0 003.867 16.086 36.862 36.862 0 01-.938-7.848l.001-.002zM83.455 29.16H76.47a.607.607 0 00-.647.437.624.624 0 00-.017.28c.25 1.832.358 3.68.322 5.528 0 6.907-.824 16.837-8.328 26.261l-.531.666s-4.5-31.802-4.594-32.431c0 0-.026-.741-.633-.741h-7.035c-.665 0-.623.711-.623.711-.163 3.677-2.192 34.297-24.304 39.242a25 25 0 0015.389-4.073 25.01 25.01 0 007.436-6.805 25.3 25.3 0 004.176-9.218s2.702 17.073 3.056 20.997l.023.256-.218.115a42.832 42.832 0 01-17.014 4.995 42.751 42.751 0 01-17.567-2.332A43.085 43.085 0 0110.2 63.78 43.615 43.615 0 01.002 49.14c1.988 9.179 7.023 17.395 14.27 23.284a40.499 40.499 0 0025.565 9.094c22.547 0 35.95-19.069 38.265-32.614 0 0 3.038 19.75 3.115 20.394h9.224c-.136-.849-6.245-38.804-6.347-39.423 0 0-.033-.715-.633-.715l-.006-.001zm12.182 11.066v29.072l6.8-.01V40.225h-6.8z" fill="#00A1ED"/></g><defs><clipPath id="clip0_8_179"><path fill="#fff" transform="translate(0 .483)" d="M0 0h200v81.034H0z"/></clipPath></defs></svg>